{
  "asset": {
    "version": "2.0",
    "generator": "Project Ironwright original Apex asset builder"
  },
  "scene": 0,
  "scenes": [
    {
      "name": "CisternApex",
      "nodes": [
        0
      ]
    }
  ],
  "nodes": [
    {
      "name": "ApexModel",
      "children": [
        1,
        23,
        29,
        30,
        31,
        32,
        37,
        38,
        39,
        40,
        45,
        46,
        47,
        48,
        49,
        50,
        51,
        52,
        53,
        54,
        55,
        56,
        57,
        58,
        59,
        60,
        61,
        62,
        63,
        64,
        65,
        66,
        67,
        68,
        69,
        70,
        71,
        72,
        73,
        74,
        75,
        76,
        77,
        78,
        79,
        80,
        81
      ],
      "extras": {
        "ironwright_asset_id": "apex.cistern.v1",
        "asset_quality": "authored_high_definition",
        "manufactured_surface_profile": "chamfered_high_definition",
        "socket_contract": "crown, jaw, dorsal_membrane, flank_roots, threat_eyes"
      }
    },
    {
      "name": "Torso",
      "translation": [
        0.0,
        0.0,
        0.0
      ],
      "extras": {
        "surface": "layered_cistern_carapace"
      },
      "children": [
        2,
        3,
        4,
        5,
        6,
        7,
        8,
        9,
        10,
        11,
        12,
        13,
        14,
        15,
        16,
        17,
        18,
        19,
        20,
        21,
        22
      ]
    },
    {
      "name": "TorsoCore",
      "translation": [
        0.0,
        1.02,
        0.22
      ],
      "mesh": 0,
      "scale": [
        1.28,
        0.86,
        1.46
      ],
      "extras": {
        "release_material_family": "chitin"
      }
    },
    {
      "name": "TorsoSegment0",
      "translation": [
        0.0,
        1.03,
        -0.86
      ],
      "mesh": 1,
      "scale": [
        1.18,
        0.78,
        1.18
      ]
    },
    {
      "name": "ApexThoraxRib0",
      "translation": [
        0.0,
        1.48,
        -0.86
      ],
      "mesh": 5,
      "rotation": [
        0.0,
        0.0,
        0.02999550020249566,
        0.9995500337489875
      ]
    },
    {
      "name": "ApexFastenerL0",
      "translation": [
        -0.68,
        1.32,
        -0.86
      ],
      "mesh": 12
    },
    {
      "name": "ApexFastenerR0",
      "translation": [
        0.68,
        1.32,
        -0.86
      ],
      "mesh": 12
    },
    {
      "name": "TorsoSegment1",
      "translation": [
        0.0,
        1.03,
        -0.42
      ],
      "mesh": 1,
      "scale": [
        1.13,
        0.78,
        1.14
      ]
    },
    {
      "name": "ApexThoraxRib1",
      "translation": [
        0.0,
        1.455,
        -0.42
      ],
      "mesh": 5,
      "rotation": [
        0.0,
        0.0,
        0.02999550020249566,
        0.9995500337489875
      ]
    },
    {
      "name": "ApexFastenerL1",
      "translation": [
        -0.68,
        1.32,
        -0.42
      ],
      "mesh": 12
    },
    {
      "name": "ApexFastenerR1",
      "translation": [
        0.68,
        1.32,
        -0.42
      ],
      "mesh": 12
    },
    {
      "name": "TorsoSegment2",
      "translation": [
        0.0,
        1.03,
        0.020000000000000018
      ],
      "mesh": 1,
      "scale": [
        1.0799999999999998,
        0.78,
        1.0999999999999999
      ]
    },
    {
      "name": "ApexThoraxRib2",
      "translation": [
        0.0,
        1.43,
        0.020000000000000018
      ],
      "mesh": 5,
      "rotation": [
        0.0,
        0.0,
        0.02999550020249566,
        0.9995500337489875
      ]
    },
    {
      "name": "ApexFastenerL2",
      "translation": [
        -0.68,
        1.32,
        0.020000000000000018
      ],
      "mesh": 12
    },
    {
      "name": "ApexFastenerR2",
      "translation": [
        0.68,
        1.32,
        0.020000000000000018
      ],
      "mesh": 12
    },
    {
      "name": "TorsoSegment3",
      "translation": [
        0.0,
        1.03,
        0.4600000000000001
      ],
      "mesh": 1,
      "scale": [
        1.0299999999999998,
        0.78,
        1.06
      ]
    },
    {
      "name": "ApexThoraxRib3",
      "translation": [
        0.0,
        1.405,
        0.4600000000000001
      ],
      "mesh": 5,
      "rotation": [
        0.0,
        0.0,
        0.02999550020249566,
        0.9995500337489875
      ]
    },
    {
      "name": "ApexFastenerL3",
      "translation": [
        -0.68,
        1.32,
        0.4600000000000001
      ],
      "mesh": 12
    },
    {
      "name": "ApexFastenerR3",
      "translation": [
        0.68,
        1.32,
        0.4600000000000001
      ],
      "mesh": 12
    },
    {
      "name": "TorsoSegment4",
      "translation": [
        0.0,
        1.03,
        0.9
      ],
      "mesh": 1,
      "scale": [
        0.98,
        0.78,
        1.02
      ]
    },
    {
      "name": "ApexThoraxRib4",
      "translation": [
        0.0,
        1.38,
        0.9
      ],
      "mesh": 5,
      "rotation": [
        0.0,
        0.0,
        0.02999550020249566,
        0.9995500337489875
      ]
    },
    {
      "name": "ApexFastenerL4",
      "translation": [
        -0.68,
        1.32,
        0.9
      ],
      "mesh": 12
    },
    {
      "name": "ApexFastenerR4",
      "translation": [
        0.68,
        1.32,
        0.9
      ],
      "mesh": 12
    },
    {
      "name": "ApexCrown",
      "translation": [
        0.0,
        2.0,
        -1.02
      ],
      "mesh": 2,
      "scale": [
        1.34,
        0.92,
        1.22
      ],
      "extras": {
        "socket_type": "crown"
      },
      "children": [
        24,
        25,
        26,
        27,
        28
      ]
    },
    {
      "name": "ApexCrownPlate",
      "translation": [
        0.0,
        0.3,
        0.16
      ],
      "mesh": 5,
      "scale": [
        1.2,
        1.0,
        0.8
      ]
    },
    {
      "name": "ApexCrownRidgeL",
      "translation": [
        -0.34,
        0.34,
        0.18
      ],
      "mesh": 13,
      "rotation": [
        -0.011651328665186225,
        -0.08912014444711758,
        -0.12910947863375175,
        0.9875487779957918
      ],
      "scale": [
        0.72,
        1.0,
        0.82
      ],
      "extras": {
        "surface": "crown_ridge"
      }
    },
    {
      "name": "ApexCrownFastenerL",
      "translation": [
        -0.48,
        0.2,
        0.12
      ],
      "mesh": 12,
      "extras": {
        "surface": "crown_socket"
      }
    },
    {
      "name": "ApexCrownRidgeR",
      "translation": [
        0.34,
        0.34,
        0.18
      ],
      "mesh": 13,
      "rotation": [
        -0.011651328665186225,
        0.08912014444711758,
        0.12910947863375175,
        0.9875487779957918
      ],
      "scale": [
        0.72,
        1.0,
        0.82
      ],
      "extras": {
        "surface": "crown_ridge"
      }
    },
    {
      "name": "ApexCrownFastenerR",
      "translation": [
        0.48,
        0.2,
        0.12
      ],
      "mesh": 12,
      "extras": {
        "surface": "crown_socket"
      }
    },
    {
      "name": "OrganicDorsalPlate",
      "translation": [
        0.0,
        1.74,
        0.18
      ],
      "mesh": 5,
      "scale": [
        1.25,
        0.9,
        1.1
      ],
      "extras": {
        "surface": "layered_shell_break"
      }
    },
    {
      "name": "ApexEyeL",
      "translation": [
        -0.34,
        2.16,
        -1.62
      ],
      "mesh": 11,
      "extras": {
        "socket_type": "threat_eye"
      }
    },
    {
      "name": "ApexCheekL",
      "translation": [
        -0.64,
        1.72,
        -1.15
      ],
      "mesh": 4,
      "rotation": [
        0.0,
        0.0,
        -0.08987854919801104,
        0.9959527330119943
      ]
    },
    {
      "name": "ApexJawL",
      "translation": [
        -0.42,
        1.15,
        -1.78
      ],
      "mesh": 3,
      "rotation": [
        0.39789204641725984,
        -0.02390221232602499,
        -0.05499423896180847,
        0.9154705005213539
      ],
      "extras": {
        "socket_type": "jaw"
      },
      "children": [
        33,
        34,
        35,
        36
      ]
    },
    {
      "name": "ApexJawRootCollarL",
      "translation": [
        0.0,
        0.48,
        0.08
      ],
      "mesh": 17,
      "rotation": [
        0.059964006479444595,
        0.0,
        0.0,
        0.9982005399352042
      ],
      "scale": [
        1.0,
        0.92,
        1.06
      ],
      "extras": {
        "surface": "jaw_root_attachment"
      }
    },
    {
      "name": "ApexJawToothL0",
      "translation": [
        -0.2,
        -0.33,
        -0.3
      ],
      "mesh": 16,
      "rotation": [
        1.0,
        0.0,
        0.0,
        6.123233995736766e-17
      ],
      "scale": [
        0.92,
        1.12,
        0.92
      ],
      "extras": {
        "surface": "jaw_tooth"
      }
    },
    {
      "name": "ApexJawToothL1",
      "translation": [
        0.0,
        -0.030000000000000027,
        -0.3
      ],
      "mesh": 16,
      "rotation": [
        1.0,
        0.0,
        0.0,
        6.123233995736766e-17
      ],
      "scale": [
        0.92,
        1.12,
        0.92
      ],
      "extras": {
        "surface": "jaw_tooth"
      }
    },
    {
      "name": "ApexJawToothL2",
      "translation": [
        0.2,
        0.26999999999999996,
        -0.3
      ],
      "mesh": 16,
      "rotation": [
        1.0,
        0.0,
        0.0,
        6.123233995736766e-17
      ],
      "scale": [
        0.92,
        1.12,
        0.92
      ],
      "extras": {
        "surface": "jaw_tooth"
      }
    },
    {
      "name": "ApexJawLatchL",
      "translation": [
        -0.56,
        1.16,
        -1.95
      ],
      "mesh": 14,
      "rotation": [
        0.39789204641725984,
        -0.02390221232602499,
        -0.05499423896180847,
        0.9154705005213539
      ],
      "extras": {
        "surface": "jaw_hardware"
      }
    },
    {
      "name": "ApexEyeR",
      "translation": [
        0.34,
        2.16,
        -1.62
      ],
      "mesh": 11,
      "extras": {
        "socket_type": "threat_eye"
      }
    },
    {
      "name": "ApexCheekR",
      "translation": [
        0.64,
        1.72,
        -1.15
      ],
      "mesh": 4,
      "rotation": [
        0.0,
        0.0,
        0.08987854919801104,
        0.9959527330119943
      ]
    },
    {
      "name": "ApexJawR",
      "translation": [
        0.42,
        1.15,
        -1.78
      ],
      "mesh": 3,
      "rotation": [
        0.39789204641725984,
        0.02390221232602499,
        0.05499423896180847,
        0.9154705005213539
      ],
      "extras": {
        "socket_type": "jaw"
      },
      "children": [
        41,
        42,
        43,
        44
      ]
    },
    {
      "name": "ApexJawRootCollarR",
      "translation": [
        0.0,
        0.48,
        0.08
      ],
      "mesh": 17,
      "rotation": [
        0.059964006479444595,
        0.0,
        0.0,
        0.9982005399352042
      ],
      "scale": [
        1.0,
        0.92,
        1.06
      ],
      "extras": {
        "surface": "jaw_root_attachment"
      }
    },
    {
      "name": "ApexJawToothR0",
      "translation": [
        -0.2,
        -0.33,
        -0.3
      ],
      "mesh": 16,
      "rotation": [
        1.0,
        0.0,
        0.0,
        6.123233995736766e-17
      ],
      "scale": [
        0.92,
        1.12,
        0.92
      ],
      "extras": {
        "surface": "jaw_tooth"
      }
    },
    {
      "name": "ApexJawToothR1",
      "translation": [
        0.0,
        -0.030000000000000027,
        -0.3
      ],
      "mesh": 16,
      "rotation": [
        1.0,
        0.0,
        0.0,
        6.123233995736766e-17
      ],
      "scale": [
        0.92,
        1.12,
        0.92
      ],
      "extras": {
        "surface": "jaw_tooth"
      }
    },
    {
      "name": "ApexJawToothR2",
      "translation": [
        0.2,
        0.26999999999999996,
        -0.3
      ],
      "mesh": 16,
      "rotation": [
        1.0,
        0.0,
        0.0,
        6.123233995736766e-17
      ],
      "scale": [
        0.92,
        1.12,
        0.92
      ],
      "extras": {
        "surface": "jaw_tooth"
      }
    },
    {
      "name": "ApexJawLatchR",
      "translation": [
        0.56,
        1.16,
        -1.95
      ],
      "mesh": 14,
      "rotation": [
        0.39789204641725984,
        0.02390221232602499,
        0.05499423896180847,
        0.9154705005213539
      ],
      "extras": {
        "surface": "jaw_hardware"
      }
    },
    {
      "name": "ApexSpine0",
      "translation": [
        -1.35,
        2.0,
        0.14
      ],
      "mesh": 8,
      "rotation": [
        0.0,
        0.0,
        -0.1395431146442365,
        0.9902159962126371
      ],
      "extras": {
        "surface": "bone_ridge"
      }
    },
    {
      "name": "ApexSpine1",
      "translation": [
        -1.0125000000000002,
        2.08,
        0.14
      ],
      "mesh": 8,
      "rotation": [
        0.0,
        0.0,
        -0.1048071688288825,
        0.9944925627484974
      ],
      "extras": {
        "surface": "bone_ridge"
      }
    },
    {
      "name": "ApexSpine2",
      "translation": [
        -0.675,
        2.16,
        0.14
      ],
      "mesh": 8,
      "rotation": [
        0.0,
        0.0,
        -0.06994284733753277,
        0.9975510002532796
      ],
      "extras": {
        "surface": "bone_ridge"
      }
    },
    {
      "name": "ApexSpine3",
      "translation": [
        -0.3374999999999999,
        2.0,
        0.14
      ],
      "mesh": 8,
      "rotation": [
        0.0,
        0.0,
        -0.034992854604336196,
        0.9993875625234886
      ],
      "extras": {
        "surface": "bone_ridge"
      }
    },
    {
      "name": "ApexSpine4",
      "translation": [
        0.0,
        2.08,
        0.14
      ],
      "mesh": 8,
      "extras": {
        "surface": "bone_ridge"
      }
    },
    {
      "name": "ApexSpine5",
      "translation": [
        0.3374999999999999,
        2.16,
        0.14
      ],
      "mesh": 8,
      "rotation": [
        0.0,
        0.0,
        0.034992854604336196,
        0.9993875625234886
      ],
      "extras": {
        "surface": "bone_ridge"
      }
    },
    {
      "name": "ApexSpine6",
      "translation": [
        0.6750000000000003,
        2.0,
        0.14
      ],
      "mesh": 8,
      "rotation": [
        0.0,
        0.0,
        0.06994284733753277,
        0.9975510002532796
      ],
      "extras": {
        "surface": "bone_ridge"
      }
    },
    {
      "name": "ApexSpine7",
      "translation": [
        1.0125000000000002,
        2.08,
        0.14
      ],
      "mesh": 8,
      "rotation": [
        0.0,
        0.0,
        0.1048071688288825,
        0.9944925627484974
      ],
      "extras": {
        "surface": "bone_ridge"
      }
    },
    {
      "name": "ApexSpine8",
      "translation": [
        1.35,
        2.16,
        0.14
      ],
      "mesh": 8,
      "rotation": [
        0.0,
        0.0,
        0.1395431146442365,
        0.9902159962126371
      ],
      "extras": {
        "surface": "bone_ridge"
      }
    },
    {
      "name": "ApexLegL0",
      "translation": [
        -0.8,
        0.7,
        -0.72
      ],
      "mesh": 6,
      "rotation": [
        0.0,
        0.0,
        -0.35227423327508994,
        0.9358968236779348
      ]
    },
    {
      "name": "ApexTalonL0",
      "translation": [
        -1.23,
        0.18,
        -0.76
      ],
      "mesh": 7,
      "rotation": [
        0.0,
        0.0,
        -0.17902957342582418,
        0.9838436927881214
      ]
    },
    {
      "name": "ApexLegL1",
      "translation": [
        -0.8600000000000001,
        0.7,
        -0.17999999999999994
      ],
      "mesh": 6,
      "rotation": [
        0.0,
        0.0,
        -0.31456656061611776,
        0.9492354180824408
      ]
    },
    {
      "name": "ApexTalonL1",
      "translation": [
        -1.27,
        0.18,
        -0.21999999999999995
      ],
      "mesh": 7,
      "rotation": [
        0.0,
        0.0,
        -0.17902957342582418,
        0.9838436927881214
      ]
    },
    {
      "name": "ApexLegL2",
      "translation": [
        -0.92,
        0.7,
        0.3600000000000001
      ],
      "mesh": 6,
      "rotation": [
        0.0,
        0.0,
        -0.2763556485641137,
        0.961055438310771
      ]
    },
    {
      "name": "ApexTalonL2",
      "translation": [
        -1.31,
        0.18,
        0.3200000000000001
      ],
      "mesh": 7,
      "rotation": [
        0.0,
        0.0,
        -0.17902957342582418,
        0.9838436927881214
      ]
    },
    {
      "name": "ApexLegL3",
      "translation": [
        -0.98,
        0.7,
        0.9000000000000001
      ],
      "mesh": 6,
      "rotation": [
        0.0,
        0.0,
        -0.23770262642713458,
        0.9713379748520296
      ]
    },
    {
      "name": "ApexTalonL3",
      "translation": [
        -1.35,
        0.18,
        0.8600000000000001
      ],
      "mesh": 7,
      "rotation": [
        0.0,
        0.0,
        -0.17902957342582418,
        0.9838436927881214
      ]
    },
    {
      "name": "ApexFlankRootL",
      "translation": [
        -1.08,
        1.18,
        0.28
      ],
      "mesh": 10,
      "rotation": [
        0.0,
        0.0,
        -0.2279775235351884,
        0.9736663950053749
      ],
      "extras": {
        "socket_type": "flank_root"
      }
    },
    {
      "name": "ApexMembraneL",
      "translation": [
        -1.36,
        1.86,
        0.34
      ],
      "mesh": 9,
      "rotation": [
        -0.002695952040668956,
        -0.08983810688418198,
        -0.02987410040473738,
        0.9955045878945352
      ],
      "scale": [
        0.18,
        1.48,
        0.42
      ],
      "extras": {
        "surface": "dorsal_membrane"
      }
    },
    {
      "name": "ApexMembraneRibL0",
      "translation": [
        -1.3,
        1.52,
        0.04
      ],
      "mesh": 15,
      "rotation": [
        -0.018736073364130114,
        -0.0879039996862101,
        -0.20761620697512945,
        0.9740725624897362
      ],
      "scale": [
        0.76,
        1.0,
        0.7
      ],
      "extras": {
        "surface": "dorsal_membrane_rib"
      }
    },
    {
      "name": "ApexMembraneRibL1",
      "translation": [
        -1.33,
        1.8,
        0.32
      ],
      "mesh": 15,
      "rotation": [
        -0.015205864084053076,
        -0.0885829289614912,
        -0.1684976229306639,
        0.9815958422185663
      ],
      "scale": [
        0.76,
        1.0,
        0.7
      ],
      "extras": {
        "surface": "dorsal_membrane_rib"
      }
    },
    {
      "name": "ApexMembraneRibL2",
      "translation": [
        -1.36,
        2.08,
        0.6000000000000001
      ],
      "mesh": 15,
      "rotation": [
        -0.011651328665186225,
        -0.08912014444711758,
        -0.12910947863375175,
        0.9875487779957918
      ],
      "scale": [
        0.76,
        1.0,
        0.7
      ],
      "extras": {
        "surface": "dorsal_membrane_rib"
      }
    },
    {
      "name": "ApexLegR0",
      "translation": [
        0.8,
        0.7,
        -0.72
      ],
      "mesh": 6,
      "rotation": [
        0.0,
        0.0,
        0.35227423327508994,
        0.9358968236779348
      ]
    },
    {
      "name": "ApexTalonR0",
      "translation": [
        1.23,
        0.18,
        -0.76
      ],
      "mesh": 7,
      "rotation": [
        0.0,
        0.0,
        0.17902957342582418,
        0.9838436927881214
      ]
    },
    {
      "name": "ApexLegR1",
      "translation": [
        0.8600000000000001,
        0.7,
        -0.17999999999999994
      ],
      "mesh": 6,
      "rotation": [
        0.0,
        0.0,
        0.31456656061611776,
        0.9492354180824408
      ]
    },
    {
      "name": "ApexTalonR1",
      "translation": [
        1.27,
        0.18,
        -0.21999999999999995
      ],
      "mesh": 7,
      "rotation": [
        0.0,
        0.0,
        0.17902957342582418,
        0.9838436927881214
      ]
    },
    {
      "name": "ApexLegR2",
      "translation": [
        0.92,
        0.7,
        0.3600000000000001
      ],
      "mesh": 6,
      "rotation": [
        0.0,
        0.0,
        0.2763556485641137,
        0.961055438310771
      ]
    },
    {
      "name": "ApexTalonR2",
      "translation": [
        1.31,
        0.18,
        0.3200000000000001
      ],
      "mesh": 7,
      "rotation": [
        0.0,
        0.0,
        0.17902957342582418,
        0.9838436927881214
      ]
    },
    {
      "name": "ApexLegR3",
      "translation": [
        0.98,
        0.7,
        0.9000000000000001
      ],
      "mesh": 6,
      "rotation": [
        0.0,
        0.0,
        0.23770262642713458,
        0.9713379748520296
      ]
    },
    {
      "name": "ApexTalonR3",
      "translation": [
        1.35,
        0.18,
        0.8600000000000001
      ],
      "mesh": 7,
      "rotation": [
        0.0,
        0.0,
        0.17902957342582418,
        0.9838436927881214
      ]
    },
    {
      "name": "ApexFlankRootR",
      "translation": [
        1.08,
        1.18,
        0.28
      ],
      "mesh": 10,
      "rotation": [
        0.0,
        0.0,
        0.2279775235351884,
        0.9736663950053749
      ],
      "extras": {
        "socket_type": "flank_root"
      }
    },
    {
      "name": "ApexMembraneR",
      "translation": [
        1.36,
        1.86,
        0.34
      ],
      "mesh": 9,
      "rotation": [
        -0.002695952040668956,
        0.08983810688418198,
        0.02987410040473738,
        0.9955045878945352
      ],
      "scale": [
        0.18,
        1.48,
        0.42
      ],
      "extras": {
        "surface": "dorsal_membrane"
      }
    },
    {
      "name": "ApexMembraneRibR0",
      "translation": [
        1.3,
        1.52,
        0.04
      ],
      "mesh": 15,
      "rotation": [
        -0.018736073364130114,
        0.0879039996862101,
        0.20761620697512945,
        0.9740725624897362
      ],
      "scale": [
        0.76,
        1.0,
        0.7
      ],
      "extras": {
        "surface": "dorsal_membrane_rib"
      }
    },
    {
      "name": "ApexMembraneRibR1",
      "translation": [
        1.33,
        1.8,
        0.32
      ],
      "mesh": 15,
      "rotation": [
        -0.015205864084053076,
        0.0885829289614912,
        0.1684976229306639,
        0.9815958422185663
      ],
      "scale": [
        0.76,
        1.0,
        0.7
      ],
      "extras": {
        "surface": "dorsal_membrane_rib"
      }
    },
    {
      "name": "ApexMembraneRibR2",
      "translation": [
        1.36,
        2.08,
        0.6000000000000001
      ],
      "mesh": 15,
      "rotation": [
        -0.011651328665186225,
        0.08912014444711758,
        0.12910947863375175,
        0.9875487779957918
      ],
      "scale": [
        0.76,
        1.0,
        0.7
      ],
      "extras": {
        "surface": "dorsal_membrane_rib"
      }
    },
    {
      "name": "ProductionAssetMarker",
      "translation": [
        0.0,
        0.0,
        0.0
      ],
      "extras": {
        "asset_contract": "apex.cistern.v1",
        "source": "original_shared_mesh_builder"
      }
    }
  ],
  "meshes": [
    {
      "name": "Core",
      "primitives": [
        {
          "attributes": {
            "POSITION": 0,
            "NORMAL": 1
          },
          "indices": 2,
          "material": 0
        }
      ]
    },
    {
      "name": "Segment",
      "primitives": [
        {
          "attributes": {
            "POSITION": 3,
            "NORMAL": 4
          },
          "indices": 5,
          "material": 1
        }
      ]
    },
    {
      "name": "Crown",
      "primitives": [
        {
          "attributes": {
            "POSITION": 6,
            "NORMAL": 7
          },
          "indices": 8,
          "material": 1
        }
      ]
    },
    {
      "name": "Jaw",
      "primitives": [
        {
          "attributes": {
            "POSITION": 9,
            "NORMAL": 10
          },
          "indices": 11,
          "material": 3
        }
      ]
    },
    {
      "name": "JawPlate",
      "primitives": [
        {
          "attributes": {
            "POSITION": 12,
            "NORMAL": 13
          },
          "indices": 14,
          "material": 3
        }
      ]
    },
    {
      "name": "Rib",
      "primitives": [
        {
          "attributes": {
            "POSITION": 15,
            "NORMAL": 16
          },
          "indices": 17,
          "material": 1
        }
      ]
    },
    {
      "name": "Leg",
      "primitives": [
        {
          "attributes": {
            "POSITION": 18,
            "NORMAL": 19
          },
          "indices": 20,
          "material": 6
        }
      ]
    },
    {
      "name": "Talon",
      "primitives": [
        {
          "attributes": {
            "POSITION": 21,
            "NORMAL": 22
          },
          "indices": 23,
          "material": 3
        }
      ]
    },
    {
      "name": "Spine",
      "primitives": [
        {
          "attributes": {
            "POSITION": 24,
            "NORMAL": 25
          },
          "indices": 26,
          "material": 3
        }
      ]
    },
    {
      "name": "Membrane",
      "primitives": [
        {
          "attributes": {
            "POSITION": 27,
            "NORMAL": 28
          },
          "indices": 29,
          "material": 4
        }
      ]
    },
    {
      "name": "Root",
      "primitives": [
        {
          "attributes": {
            "POSITION": 30,
            "NORMAL": 31
          },
          "indices": 32,
          "material": 6
        }
      ]
    },
    {
      "name": "Eye",
      "primitives": [
        {
          "attributes": {
            "POSITION": 33,
            "NORMAL": 34
          },
          "indices": 35,
          "material": 5
        }
      ]
    },
    {
      "name": "Fastener",
      "primitives": [
        {
          "attributes": {
            "POSITION": 36,
            "NORMAL": 37
          },
          "indices": 38,
          "material": 3
        }
      ]
    },
    {
      "name": "CrownRidge",
      "primitives": [
        {
          "attributes": {
            "POSITION": 39,
            "NORMAL": 40
          },
          "indices": 41,
          "material": 3
        }
      ]
    },
    {
      "name": "JawLatch",
      "primitives": [
        {
          "attributes": {
            "POSITION": 42,
            "NORMAL": 43
          },
          "indices": 44,
          "material": 3
        }
      ]
    },
    {
      "name": "MembraneRib",
      "primitives": [
        {
          "attributes": {
            "POSITION": 45,
            "NORMAL": 46
          },
          "indices": 47,
          "material": 3
        }
      ]
    },
    {
      "name": "JawTooth",
      "primitives": [
        {
          "attributes": {
            "POSITION": 48,
            "NORMAL": 49
          },
          "indices": 50,
          "material": 3
        }
      ]
    },
    {
      "name": "JawRootCollar",
      "primitives": [
        {
          "attributes": {
            "POSITION": 51,
            "NORMAL": 52
          },
          "indices": 53,
          "material": 2
        }
      ]
    }
  ],
  "materials": [
    {
      "name": "Apex wet carapace",
      "pbrMetallicRoughness": {
        "baseColorFactor": [
          0.035,
          0.045,
          0.055,
          1.0
        ],
        "metallicFactor": 0.24,
        "roughnessFactor": 0.28
      }
    },
    {
      "name": "Apex layered shell",
      "pbrMetallicRoughness": {
        "baseColorFactor": [
          0.17,
          0.2,
          0.2,
          1.0
        ],
        "metallicFactor": 0.18,
        "roughnessFactor": 0.4
      }
    },
    {
      "name": "Apex deep flesh",
      "pbrMetallicRoughness": {
        "baseColorFactor": [
          0.16,
          0.035,
          0.045,
          1.0
        ],
        "metallicFactor": 0.0,
        "roughnessFactor": 0.7
      }
    },
    {
      "name": "Apex bone",
      "pbrMetallicRoughness": {
        "baseColorFactor": [
          0.48,
          0.4,
          0.29,
          1.0
        ],
        "metallicFactor": 0.0,
        "roughnessFactor": 0.56
      }
    },
    {
      "name": "Apex membrane",
      "pbrMetallicRoughness": {
        "baseColorFactor": [
          0.12,
          0.012,
          0.028,
          0.92
        ],
        "metallicFactor": 0.0,
        "roughnessFactor": 0.42
      },
      "emissiveFactor": [
        0.035,
        0.002,
        0.006
      ]
    },
    {
      "name": "Apex threat eye",
      "pbrMetallicRoughness": {
        "baseColorFactor": [
          0.42,
          0.02,
          0.006,
          1.0
        ],
        "metallicFactor": 0.0,
        "roughnessFactor": 0.2
      },
      "emissiveFactor": [
        1.0,
        0.05,
        0.008
      ]
    },
    {
      "name": "Apex tendon",
      "pbrMetallicRoughness": {
        "baseColorFactor": [
          0.34,
          0.08,
          0.1,
          1.0
        ],
        "metallicFactor": 0.0,
        "roughnessFactor": 0.5
      }
    }
  ],
  "accessors": [
    {
      "bufferView": 0,
      "componentType": 5126,
      "count": 900,
      "type": "VEC3",
      "min": [
        -0.88,
        -0.88,
        -0.88
      ],
      "max": [
        0.88,
        0.88,
        0.88
      ]
    },
    {
      "bufferView": 1,
      "componentType": 5126,
      "count": 900,
      "type": "VEC3"
    },
    {
      "bufferView": 2,
      "componentType": 5123,
      "count": 5184,
      "type": "SCALAR",
      "normalized": false
    },
    {
      "bufferView": 3,
      "componentType": 5126,
      "count": 800,
      "type": "VEC3",
      "min": [
        -0.68,
        -0.68,
        -0.68
      ],
      "max": [
        0.68,
        0.68,
        0.68
      ]
    },
    {
      "bufferView": 4,
      "componentType": 5126,
      "count": 800,
      "type": "VEC3"
    },
    {
      "bufferView": 5,
      "componentType": 5123,
      "count": 4608,
      "type": "SCALAR",
      "normalized": false
    },
    {
      "bufferView": 6,
      "componentType": 5126,
      "count": 900,
      "type": "VEC3",
      "min": [
        -0.62,
        -0.62,
        -0.62
      ],
      "max": [
        0.62,
        0.62,
        0.62
      ]
    },
    {
      "bufferView": 7,
      "componentType": 5126,
      "count": 900,
      "type": "VEC3"
    },
    {
      "bufferView": 8,
      "componentType": 5123,
      "count": 5184,
      "type": "SCALAR",
      "normalized": false
    },
    {
      "bufferView": 9,
      "componentType": 5126,
      "count": 66,
      "type": "VEC3",
      "min": [
        -0.13,
        -0.675,
        -0.13
      ],
      "max": [
        0.13,
        0.675,
        0.13
      ]
    },
    {
      "bufferView": 10,
      "componentType": 5126,
      "count": 66,
      "type": "VEC3"
    },
    {
      "bufferView": 11,
      "componentType": 5123,
      "count": 384,
      "type": "SCALAR",
      "normalized": false
    },
    {
      "bufferView": 12,
      "componentType": 5126,
      "count": 96,
      "type": "VEC3",
      "min": [
        -0.16,
        -0.09,
        -0.46
      ],
      "max": [
        0.16,
        0.09,
        0.46
      ]
    },
    {
      "bufferView": 13,
      "componentType": 5126,
      "count": 96,
      "type": "VEC3"
    },
    {
      "bufferView": 14,
      "componentType": 5123,
      "count": 132,
      "type": "SCALAR",
      "normalized": false
    },
    {
      "bufferView": 15,
      "componentType": 5126,
      "count": 96,
      "type": "VEC3",
      "min": [
        -0.76,
        -0.07,
        -0.12
      ],
      "max": [
        0.76,
        0.07,
        0.12
      ]
    },
    {
      "bufferView": 16,
      "componentType": 5126,
      "count": 96,
      "type": "VEC3"
    },
    {
      "bufferView": 17,
      "componentType": 5123,
      "count": 132,
      "type": "SCALAR",
      "normalized": false
    },
    {
      "bufferView": 18,
      "componentType": 5126,
      "count": 66,
      "type": "VEC3",
      "min": [
        -0.12,
        -0.86,
        -0.12
      ],
      "max": [
        0.12,
        0.86,
        0.12
      ]
    },
    {
      "bufferView": 19,
      "componentType": 5126,
      "count": 66,
      "type": "VEC3"
    },
    {
      "bufferView": 20,
      "componentType": 5123,
      "count": 384,
      "type": "SCALAR",
      "normalized": false
    },
    {
      "bufferView": 21,
      "componentType": 5126,
      "count": 66,
      "type": "VEC3",
      "min": [
        -0.075,
        -0.41,
        -0.075
      ],
      "max": [
        0.075,
        0.41,
        0.075
      ]
    },
    {
      "bufferView": 22,
      "componentType": 5126,
      "count": 66,
      "type": "VEC3"
    },
    {
      "bufferView": 23,
      "componentType": 5123,
      "count": 384,
      "type": "SCALAR",
      "normalized": false
    },
    {
      "bufferView": 24,
      "componentType": 5126,
      "count": 66,
      "type": "VEC3",
      "min": [
        -0.13,
        -0.52,
        -0.13
      ],
      "max": [
        0.13,
        0.52,
        0.13
      ]
    },
    {
      "bufferView": 25,
      "componentType": 5126,
      "count": 66,
      "type": "VEC3"
    },
    {
      "bufferView": 26,
      "componentType": 5123,
      "count": 384,
      "type": "SCALAR",
      "normalized": false
    },
    {
      "bufferView": 27,
      "componentType": 5126,
      "count": 800,
      "type": "VEC3",
      "min": [
        -0.58,
        -0.58,
        -0.58
      ],
      "max": [
        0.58,
        0.58,
        0.58
      ]
    },
    {
      "bufferView": 28,
      "componentType": 5126,
      "count": 800,
      "type": "VEC3"
    },
    {
      "bufferView": 29,
      "componentType": 5123,
      "count": 4608,
      "type": "SCALAR",
      "normalized": false
    },
    {
      "bufferView": 30,
      "componentType": 5126,
      "count": 66,
      "type": "VEC3",
      "min": [
        -0.2,
        -0.65,
        -0.2
      ],
      "max": [
        0.2,
        0.65,
        0.2
      ]
    },
    {
      "bufferView": 31,
      "componentType": 5126,
      "count": 66,
      "type": "VEC3"
    },
    {
      "bufferView": 32,
      "componentType": 5123,
      "count": 384,
      "type": "SCALAR",
      "normalized": false
    },
    {
      "bufferView": 33,
      "componentType": 5126,
      "count": 800,
      "type": "VEC3",
      "min": [
        -0.11,
        -0.11,
        -0.11
      ],
      "max": [
        0.11,
        0.11,
        0.11
      ]
    },
    {
      "bufferView": 34,
      "componentType": 5126,
      "count": 800,
      "type": "VEC3"
    },
    {
      "bufferView": 35,
      "componentType": 5123,
      "count": 4608,
      "type": "SCALAR",
      "normalized": false
    },
    {
      "bufferView": 36,
      "componentType": 5126,
      "count": 800,
      "type": "VEC3",
      "min": [
        -0.055,
        -0.055,
        -0.055
      ],
      "max": [
        0.055,
        0.055,
        0.055
      ]
    },
    {
      "bufferView": 37,
      "componentType": 5126,
      "count": 800,
      "type": "VEC3"
    },
    {
      "bufferView": 38,
      "componentType": 5123,
      "count": 4608,
      "type": "SCALAR",
      "normalized": false
    },
    {
      "bufferView": 39,
      "componentType": 5126,
      "count": 66,
      "type": "VEC3",
      "min": [
        -0.06,
        -0.54,
        -0.06
      ],
      "max": [
        0.06,
        0.54,
        0.06
      ]
    },
    {
      "bufferView": 40,
      "componentType": 5126,
      "count": 66,
      "type": "VEC3"
    },
    {
      "bufferView": 41,
      "componentType": 5123,
      "count": 384,
      "type": "SCALAR",
      "normalized": false
    },
    {
      "bufferView": 42,
      "componentType": 5126,
      "count": 96,
      "type": "VEC3",
      "min": [
        -0.1,
        -0.05,
        -0.22
      ],
      "max": [
        0.1,
        0.05,
        0.22
      ]
    },
    {
      "bufferView": 43,
      "componentType": 5126,
      "count": 96,
      "type": "VEC3"
    },
    {
      "bufferView": 44,
      "componentType": 5123,
      "count": 132,
      "type": "SCALAR",
      "normalized": false
    },
    {
      "bufferView": 45,
      "componentType": 5126,
      "count": 66,
      "type": "VEC3",
      "min": [
        -0.035,
        -0.41,
        -0.035
      ],
      "max": [
        0.035,
        0.41,
        0.035
      ]
    },
    {
      "bufferView": 46,
      "componentType": 5126,
      "count": 66,
      "type": "VEC3"
    },
    {
      "bufferView": 47,
      "componentType": 5123,
      "count": 384,
      "type": "SCALAR",
      "normalized": false
    },
    {
      "bufferView": 48,
      "componentType": 5126,
      "count": 66,
      "type": "VEC3",
      "min": [
        -0.13,
        -0.29,
        -0.13
      ],
      "max": [
        0.13,
        0.29,
        0.13
      ]
    },
    {
      "bufferView": 49,
      "componentType": 5126,
      "count": 66,
      "type": "VEC3"
    },
    {
      "bufferView": 50,
      "componentType": 5123,
      "count": 384,
      "type": "SCALAR",
      "normalized": false
    },
    {
      "bufferView": 51,
      "componentType": 5126,
      "count": 1154,
      "type": "VEC3",
      "min": [
        -0.2802287224209191,
        -0.3059088969686057,
        -0.2976
      ],
      "max": [
        0.32480000000000003,
        0.3059088969686057,
        0.24
      ]
    },
    {
      "bufferView": 52,
      "componentType": 5126,
      "count": 1154,
      "type": "VEC3"
    },
    {
      "bufferView": 53,
      "componentType": 5123,
      "count": 6336,
      "type": "SCALAR",
      "normalized": false
    },
    {
      "bufferView": 54,
      "componentType": 5126,
      "count": 3,
      "type": "SCALAR",
      "min": [
        0.0
      ],
      "max": [
        1.6
      ]
    },
    {
      "bufferView": 55,
      "componentType": 5126,
      "count": 3,
      "type": "VEC3"
    },
    {
      "bufferView": 56,
      "componentType": 5126,
      "count": 3,
      "type": "SCALAR",
      "min": [
        0.0
      ],
      "max": [
        1.6
      ]
    },
    {
      "bufferView": 57,
      "componentType": 5126,
      "count": 3,
      "type": "VEC4"
    },
    {
      "bufferView": 58,
      "componentType": 5126,
      "count": 3,
      "type": "SCALAR",
      "min": [
        0.0
      ],
      "max": [
        1.6
      ]
    },
    {
      "bufferView": 59,
      "componentType": 5126,
      "count": 3,
      "type": "VEC4"
    },
    {
      "bufferView": 60,
      "componentType": 5126,
      "count": 3,
      "type": "SCALAR",
      "min": [
        0.0
      ],
      "max": [
        1.6
      ]
    },
    {
      "bufferView": 61,
      "componentType": 5126,
      "count": 3,
      "type": "VEC4"
    },
    {
      "bufferView": 62,
      "componentType": 5126,
      "count": 3,
      "type": "SCALAR",
      "min": [
        0.0
      ],
      "max": [
        0.56
      ]
    },
    {
      "bufferView": 63,
      "componentType": 5126,
      "count": 3,
      "type": "VEC4"
    },
    {
      "bufferView": 64,
      "componentType": 5126,
      "count": 3,
      "type": "SCALAR",
      "min": [
        0.0
      ],
      "max": [
        0.56
      ]
    },
    {
      "bufferView": 65,
      "componentType": 5126,
      "count": 3,
      "type": "VEC4"
    },
    {
      "bufferView": 66,
      "componentType": 5126,
      "count": 3,
      "type": "SCALAR",
      "min": [
        0.0
      ],
      "max": [
        0.48
      ]
    },
    {
      "bufferView": 67,
      "componentType": 5126,
      "count": 3,
      "type": "VEC3"
    },
    {
      "bufferView": 68,
      "componentType": 5126,
      "count": 3,
      "type": "SCALAR",
      "min": [
        0.0
      ],
      "max": [
        0.48
      ]
    },
    {
      "bufferView": 69,
      "componentType": 5126,
      "count": 3,
      "type": "VEC4"
    },
    {
      "bufferView": 70,
      "componentType": 5126,
      "count": 3,
      "type": "SCALAR",
      "min": [
        0.0
      ],
      "max": [
        0.48
      ]
    },
    {
      "bufferView": 71,
      "componentType": 5126,
      "count": 3,
      "type": "VEC4"
    },
    {
      "bufferView": 72,
      "componentType": 5126,
      "count": 3,
      "type": "SCALAR",
      "min": [
        0.0
      ],
      "max": [
        0.48
      ]
    },
    {
      "bufferView": 73,
      "componentType": 5126,
      "count": 3,
      "type": "VEC4"
    },
    {
      "bufferView": 74,
      "componentType": 5126,
      "count": 3,
      "type": "SCALAR",
      "min": [
        0.0
      ],
      "max": [
        0.48
      ]
    },
    {
      "bufferView": 75,
      "componentType": 5126,
      "count": 3,
      "type": "VEC4"
    },
    {
      "bufferView": 76,
      "componentType": 5126,
      "count": 3,
      "type": "SCALAR",
      "min": [
        0.0
      ],
      "max": [
        0.48
      ]
    },
    {
      "bufferView": 77,
      "componentType": 5126,
      "count": 3,
      "type": "VEC4"
    },
    {
      "bufferView": 78,
      "componentType": 5126,
      "count": 3,
      "type": "SCALAR",
      "min": [
        0.0
      ],
      "max": [
        0.24
      ]
    },
    {
      "bufferView": 79,
      "componentType": 5126,
      "count": 3,
      "type": "VEC3"
    },
    {
      "bufferView": 80,
      "componentType": 5126,
      "count": 3,
      "type": "SCALAR",
      "min": [
        0.0
      ],
      "max": [
        0.24
      ]
    },
    {
      "bufferView": 81,
      "componentType": 5126,
      "count": 3,
      "type": "VEC4"
    },
    {
      "bufferView": 82,
      "componentType": 5126,
      "count": 3,
      "type": "SCALAR",
      "min": [
        0.0
      ],
      "max": [
        0.6
      ]
    },
    {
      "bufferView": 83,
      "componentType": 5126,
      "count": 3,
      "type": "VEC3"
    },
    {
      "bufferView": 84,
      "componentType": 5126,
      "count": 3,
      "type": "SCALAR",
      "min": [
        0.0
      ],
      "max": [
        0.6
      ]
    },
    {
      "bufferView": 85,
      "componentType": 5126,
      "count": 3,
      "type": "VEC4"
    },
    {
      "bufferView": 86,
      "componentType": 5126,
      "count": 3,
      "type": "SCALAR",
      "min": [
        0.0
      ],
      "max": [
        0.6
      ]
    },
    {
      "bufferView": 87,
      "componentType": 5126,
      "count": 3,
      "type": "VEC4"
    },
    {
      "bufferView": 88,
      "componentType": 5126,
      "count": 3,
      "type": "SCALAR",
      "min": [
        0.0
      ],
      "max": [
        0.6
      ]
    },
    {
      "bufferView": 89,
      "componentType": 5126,
      "count": 3,
      "type": "VEC4"
    },
    {
      "bufferView": 90,
      "componentType": 5126,
      "count": 3,
      "type": "SCALAR",
      "min": [
        0.0
      ],
      "max": [
        1.0
      ]
    },
    {
      "bufferView": 91,
      "componentType": 5126,
      "count": 3,
      "type": "VEC3"
    },
    {
      "bufferView": 92,
      "componentType": 5126,
      "count": 3,
      "type": "SCALAR",
      "min": [
        0.0
      ],
      "max": [
        1.0
      ]
    },
    {
      "bufferView": 93,
      "componentType": 5126,
      "count": 3,
      "type": "VEC4"
    },
    {
      "bufferView": 94,
      "componentType": 5126,
      "count": 3,
      "type": "SCALAR",
      "min": [
        0.0
      ],
      "max": [
        0.56
      ]
    },
    {
      "bufferView": 95,
      "componentType": 5126,
      "count": 3,
      "type": "VEC4"
    },
    {
      "bufferView": 96,
      "componentType": 5126,
      "count": 3,
      "type": "SCALAR",
      "min": [
        0.0
      ],
      "max": [
        0.56
      ]
    },
    {
      "bufferView": 97,
      "componentType": 5126,
      "count": 3,
      "type": "VEC4"
    },
    {
      "bufferView": 98,
      "componentType": 5126,
      "count": 3,
      "type": "SCALAR",
      "min": [
        0.0
      ],
      "max": [
        0.56
      ]
    },
    {
      "bufferView": 99,
      "componentType": 5126,
      "count": 3,
      "type": "VEC4"
    },
    {
      "bufferView": 100,
      "componentType": 5126,
      "count": 3,
      "type": "SCALAR",
      "min": [
        0.0
      ],
      "max": [
        0.56
      ]
    },
    {
      "bufferView": 101,
      "componentType": 5126,
      "count": 3,
      "type": "VEC4"
    },
    {
      "bufferView": 102,
      "componentType": 5126,
      "count": 3,
      "type": "SCALAR",
      "min": [
        0.0
      ],
      "max": [
        0.64
      ]
    },
    {
      "bufferView": 103,
      "componentType": 5126,
      "count": 3,
      "type": "VEC4"
    },
    {
      "bufferView": 104,
      "componentType": 5126,
      "count": 3,
      "type": "SCALAR",
      "min": [
        0.0
      ],
      "max": [
        0.64
      ]
    },
    {
      "bufferView": 105,
      "componentType": 5126,
      "count": 3,
      "type": "VEC4"
    }
  ],
  "bufferViews": [
    {
      "buffer": 0,
      "byteOffset": 0,
      "byteLength": 10800,
      "target": 34962
    },
    {
      "buffer": 0,
      "byteOffset": 10800,
      "byteLength": 10800,
      "target": 34962
    },
    {
      "buffer": 0,
      "byteOffset": 21600,
      "byteLength": 10368,
      "target": 34963
    },
    {
      "buffer": 0,
      "byteOffset": 31968,
      "byteLength": 9600,
      "target": 34962
    },
    {
      "buffer": 0,
      "byteOffset": 41568,
      "byteLength": 9600,
      "target": 34962
    },
    {
      "buffer": 0,
      "byteOffset": 51168,
      "byteLength": 9216,
      "target": 34963
    },
    {
      "buffer": 0,
      "byteOffset": 60384,
      "byteLength": 10800,
      "target": 34962
    },
    {
      "buffer": 0,
      "byteOffset": 71184,
      "byteLength": 10800,
      "target": 34962
    },
    {
      "buffer": 0,
      "byteOffset": 81984,
      "byteLength": 10368,
      "target": 34963
    },
    {
      "buffer": 0,
      "byteOffset": 92352,
      "byteLength": 792,
      "target": 34962
    },
    {
      "buffer": 0,
      "byteOffset": 93144,
      "byteLength": 792,
      "target": 34962
    },
    {
      "buffer": 0,
      "byteOffset": 93936,
      "byteLength": 768,
      "target": 34963
    },
    {
      "buffer": 0,
      "byteOffset": 94704,
      "byteLength": 1152,
      "target": 34962
    },
    {
      "buffer": 0,
      "byteOffset": 95856,
      "byteLength": 1152,
      "target": 34962
    },
    {
      "buffer": 0,
      "byteOffset": 97008,
      "byteLength": 264,
      "target": 34963
    },
    {
      "buffer": 0,
      "byteOffset": 97272,
      "byteLength": 1152,
      "target": 34962
    },
    {
      "buffer": 0,
      "byteOffset": 98424,
      "byteLength": 1152,
      "target": 34962
    },
    {
      "buffer": 0,
      "byteOffset": 99576,
      "byteLength": 264,
      "target": 34963
    },
    {
      "buffer": 0,
      "byteOffset": 99840,
      "byteLength": 792,
      "target": 34962
    },
    {
      "buffer": 0,
      "byteOffset": 100632,
      "byteLength": 792,
      "target": 34962
    },
    {
      "buffer": 0,
      "byteOffset": 101424,
      "byteLength": 768,
      "target": 34963
    },
    {
      "buffer": 0,
      "byteOffset": 102192,
      "byteLength": 792,
      "target": 34962
    },
    {
      "buffer": 0,
      "byteOffset": 102984,
      "byteLength": 792,
      "target": 34962
    },
    {
      "buffer": 0,
      "byteOffset": 103776,
      "byteLength": 768,
      "target": 34963
    },
    {
      "buffer": 0,
      "byteOffset": 104544,
      "byteLength": 792,
      "target": 34962
    },
    {
      "buffer": 0,
      "byteOffset": 105336,
      "byteLength": 792,
      "target": 34962
    },
    {
      "buffer": 0,
      "byteOffset": 106128,
      "byteLength": 768,
      "target": 34963
    },
    {
      "buffer": 0,
      "byteOffset": 106896,
      "byteLength": 9600,
      "target": 34962
    },
    {
      "buffer": 0,
      "byteOffset": 116496,
      "byteLength": 9600,
      "target": 34962
    },
    {
      "buffer": 0,
      "byteOffset": 126096,
      "byteLength": 9216,
      "target": 34963
    },
    {
      "buffer": 0,
      "byteOffset": 135312,
      "byteLength": 792,
      "target": 34962
    },
    {
      "buffer": 0,
      "byteOffset": 136104,
      "byteLength": 792,
      "target": 34962
    },
    {
      "buffer": 0,
      "byteOffset": 136896,
      "byteLength": 768,
      "target": 34963
    },
    {
      "buffer": 0,
      "byteOffset": 137664,
      "byteLength": 9600,
      "target": 34962
    },
    {
      "buffer": 0,
      "byteOffset": 147264,
      "byteLength": 9600,
      "target": 34962
    },
    {
      "buffer": 0,
      "byteOffset": 156864,
      "byteLength": 9216,
      "target": 34963
    },
    {
      "buffer": 0,
      "byteOffset": 166080,
      "byteLength": 9600,
      "target": 34962
    },
    {
      "buffer": 0,
      "byteOffset": 175680,
      "byteLength": 9600,
      "target": 34962
    },
    {
      "buffer": 0,
      "byteOffset": 185280,
      "byteLength": 9216,
      "target": 34963
    },
    {
      "buffer": 0,
      "byteOffset": 194496,
      "byteLength": 792,
      "target": 34962
    },
    {
      "buffer": 0,
      "byteOffset": 195288,
      "byteLength": 792,
      "target": 34962
    },
    {
      "buffer": 0,
      "byteOffset": 196080,
      "byteLength": 768,
      "target": 34963
    },
    {
      "buffer": 0,
      "byteOffset": 196848,
      "byteLength": 1152,
      "target": 34962
    },
    {
      "buffer": 0,
      "byteOffset": 198000,
      "byteLength": 1152,
      "target": 34962
    },
    {
      "buffer": 0,
      "byteOffset": 199152,
      "byteLength": 264,
      "target": 34963
    },
    {
      "buffer": 0,
      "byteOffset": 199416,
      "byteLength": 792,
      "target": 34962
    },
    {
      "buffer": 0,
      "byteOffset": 200208,
      "byteLength": 792,
      "target": 34962
    },
    {
      "buffer": 0,
      "byteOffset": 201000,
      "byteLength": 768,
      "target": 34963
    },
    {
      "buffer": 0,
      "byteOffset": 201768,
      "byteLength": 792,
      "target": 34962
    },
    {
      "buffer": 0,
      "byteOffset": 202560,
      "byteLength": 792,
      "target": 34962
    },
    {
      "buffer": 0,
      "byteOffset": 203352,
      "byteLength": 768,
      "target": 34963
    },
    {
      "buffer": 0,
      "byteOffset": 204120,
      "byteLength": 13848,
      "target": 34962
    },
    {
      "buffer": 0,
      "byteOffset": 217968,
      "byteLength": 13848,
      "target": 34962
    },
    {
      "buffer": 0,
      "byteOffset": 231816,
      "byteLength": 12672,
      "target": 34963
    },
    {
      "buffer": 0,
      "byteOffset": 244488,
      "byteLength": 12
    },
    {
      "buffer": 0,
      "byteOffset": 244500,
      "byteLength": 36
    },
    {
      "buffer": 0,
      "byteOffset": 244536,
      "byteLength": 12
    },
    {
      "buffer": 0,
      "byteOffset": 244548,
      "byteLength": 48
    },
    {
      "buffer": 0,
      "byteOffset": 244596,
      "byteLength": 12
    },
    {
      "buffer": 0,
      "byteOffset": 244608,
      "byteLength": 48
    },
    {
      "buffer": 0,
      "byteOffset": 244656,
      "byteLength": 12
    },
    {
      "buffer": 0,
      "byteOffset": 244668,
      "byteLength": 48
    },
    {
      "buffer": 0,
      "byteOffset": 244716,
      "byteLength": 12
    },
    {
      "buffer": 0,
      "byteOffset": 244728,
      "byteLength": 48
    },
    {
      "buffer": 0,
      "byteOffset": 244776,
      "byteLength": 12
    },
    {
      "buffer": 0,
      "byteOffset": 244788,
      "byteLength": 48
    },
    {
      "buffer": 0,
      "byteOffset": 244836,
      "byteLength": 12
    },
    {
      "buffer": 0,
      "byteOffset": 244848,
      "byteLength": 36
    },
    {
      "buffer": 0,
      "byteOffset": 244884,
      "byteLength": 12
    },
    {
      "buffer": 0,
      "byteOffset": 244896,
      "byteLength": 48
    },
    {
      "buffer": 0,
      "byteOffset": 244944,
      "byteLength": 12
    },
    {
      "buffer": 0,
      "byteOffset": 244956,
      "byteLength": 48
    },
    {
      "buffer": 0,
      "byteOffset": 245004,
      "byteLength": 12
    },
    {
      "buffer": 0,
      "byteOffset": 245016,
      "byteLength": 48
    },
    {
      "buffer": 0,
      "byteOffset": 245064,
      "byteLength": 12
    },
    {
      "buffer": 0,
      "byteOffset": 245076,
      "byteLength": 48
    },
    {
      "buffer": 0,
      "byteOffset": 245124,
      "byteLength": 12
    },
    {
      "buffer": 0,
      "byteOffset": 245136,
      "byteLength": 48
    },
    {
      "buffer": 0,
      "byteOffset": 245184,
      "byteLength": 12
    },
    {
      "buffer": 0,
      "byteOffset": 245196,
      "byteLength": 36
    },
    {
      "buffer": 0,
      "byteOffset": 245232,
      "byteLength": 12
    },
    {
      "buffer": 0,
      "byteOffset": 245244,
      "byteLength": 48
    },
    {
      "buffer": 0,
      "byteOffset": 245292,
      "byteLength": 12
    },
    {
      "buffer": 0,
      "byteOffset": 245304,
      "byteLength": 36
    },
    {
      "buffer": 0,
      "byteOffset": 245340,
      "byteLength": 12
    },
    {
      "buffer": 0,
      "byteOffset": 245352,
      "byteLength": 48
    },
    {
      "buffer": 0,
      "byteOffset": 245400,
      "byteLength": 12
    },
    {
      "buffer": 0,
      "byteOffset": 245412,
      "byteLength": 48
    },
    {
      "buffer": 0,
      "byteOffset": 245460,
      "byteLength": 12
    },
    {
      "buffer": 0,
      "byteOffset": 245472,
      "byteLength": 48
    },
    {
      "buffer": 0,
      "byteOffset": 245520,
      "byteLength": 12
    },
    {
      "buffer": 0,
      "byteOffset": 245532,
      "byteLength": 36
    },
    {
      "buffer": 0,
      "byteOffset": 245568,
      "byteLength": 12
    },
    {
      "buffer": 0,
      "byteOffset": 245580,
      "byteLength": 48
    },
    {
      "buffer": 0,
      "byteOffset": 245628,
      "byteLength": 12
    },
    {
      "buffer": 0,
      "byteOffset": 245640,
      "byteLength": 48
    },
    {
      "buffer": 0,
      "byteOffset": 245688,
      "byteLength": 12
    },
    {
      "buffer": 0,
      "byteOffset": 245700,
      "byteLength": 48
    },
    {
      "buffer": 0,
      "byteOffset": 245748,
      "byteLength": 12
    },
    {
      "buffer": 0,
      "byteOffset": 245760,
      "byteLength": 48
    },
    {
      "buffer": 0,
      "byteOffset": 245808,
      "byteLength": 12
    },
    {
      "buffer": 0,
      "byteOffset": 245820,
      "byteLength": 48
    },
    {
      "buffer": 0,
      "byteOffset": 245868,
      "byteLength": 12
    },
    {
      "buffer": 0,
      "byteOffset": 245880,
      "byteLength": 48
    },
    {
      "buffer": 0,
      "byteOffset": 245928,
      "byteLength": 12
    },
    {
      "buffer": 0,
      "byteOffset": 245940,
      "byteLength": 48
    }
  ],
  "buffers": [
    {
      "byteLength": 245988,
      "uri": "data:application/octet-stream;base64,"
    }
  ],
  "animations": [
    {
      "name": "Idle",
      "samplers": [
        {
          "input": 54,
          "output": 55,
          "interpolation": "LINEAR"
        },
        {
          "input": 56,
          "output": 57,
          "interpolation": "LINEAR"
        },
        {
          "input": 58,
          "output": 59,
          "interpolation": "LINEAR"
        },
        {
          "input": 60,
          "output": 61,
          "interpolation": "LINEAR"
        }
      ],
      "channels": [
        {
          "sampler": 0,
          "target": {
            "node": 0,
            "path": "translation"
          }
        },
        {
          "sampler": 1,
          "target": {
            "node": 1,
            "path": "rotation"
          }
        },
        {
          "sampler": 2,
          "target": {
            "node": 64,
            "path": "rotation"
          }
        },
        {
          "sampler": 3,
          "target": {
            "node": 77,
            "path": "rotation"
          }
        }
      ]
    },
    {
      "name": "Walk",
      "samplers": [
        {
          "input": 62,
          "output": 63,
          "interpolation": "LINEAR"
        },
        {
          "input": 64,
          "output": 65,
          "interpolation": "LINEAR"
        }
      ],
      "channels": [
        {
          "sampler": 0,
          "target": {
            "node": 55,
            "path": "rotation"
          }
        },
        {
          "sampler": 1,
          "target": {
            "node": 1,
            "path": "rotation"
          }
        }
      ]
    },
    {
      "name": "Attack",
      "samplers": [
        {
          "input": 66,
          "output": 67,
          "interpolation": "LINEAR"
        },
        {
          "input": 68,
          "output": 69,
          "interpolation": "LINEAR"
        },
        {
          "input": 70,
          "output": 71,
          "interpolation": "LINEAR"
        },
        {
          "input": 72,
          "output": 73,
          "interpolation": "LINEAR"
        },
        {
          "input": 74,
          "output": 75,
          "interpolation": "LINEAR"
        },
        {
          "input": 76,
          "output": 77,
          "interpolation": "LINEAR"
        }
      ],
      "channels": [
        {
          "sampler": 0,
          "target": {
            "node": 23,
            "path": "translation"
          }
        },
        {
          "sampler": 1,
          "target": {
            "node": 1,
            "path": "rotation"
          }
        },
        {
          "sampler": 2,
          "target": {
            "node": 32,
            "path": "rotation"
          }
        },
        {
          "sampler": 3,
          "target": {
            "node": 40,
            "path": "rotation"
          }
        },
        {
          "sampler": 4,
          "target": {
            "node": 64,
            "path": "rotation"
          }
        },
        {
          "sampler": 5,
          "target": {
            "node": 77,
            "path": "rotation"
          }
        }
      ]
    },
    {
      "name": "Hit",
      "samplers": [
        {
          "input": 78,
          "output": 79,
          "interpolation": "LINEAR"
        },
        {
          "input": 80,
          "output": 81,
          "interpolation": "LINEAR"
        }
      ],
      "channels": [
        {
          "sampler": 0,
          "target": {
            "node": 0,
            "path": "translation"
          }
        },
        {
          "sampler": 1,
          "target": {
            "node": 1,
            "path": "rotation"
          }
        }
      ]
    },
    {
      "name": "Feed",
      "samplers": [
        {
          "input": 82,
          "output": 83,
          "interpolation": "LINEAR"
        },
        {
          "input": 84,
          "output": 85,
          "interpolation": "LINEAR"
        },
        {
          "input": 86,
          "output": 87,
          "interpolation": "LINEAR"
        },
        {
          "input": 88,
          "output": 89,
          "interpolation": "LINEAR"
        }
      ],
      "channels": [
        {
          "sampler": 0,
          "target": {
            "node": 0,
            "path": "translation"
          }
        },
        {
          "sampler": 1,
          "target": {
            "node": 1,
            "path": "rotation"
          }
        },
        {
          "sampler": 2,
          "target": {
            "node": 32,
            "path": "rotation"
          }
        },
        {
          "sampler": 3,
          "target": {
            "node": 40,
            "path": "rotation"
          }
        }
      ]
    },
    {
      "name": "Nest",
      "samplers": [
        {
          "input": 90,
          "output": 91,
          "interpolation": "LINEAR"
        },
        {
          "input": 92,
          "output": 93,
          "interpolation": "LINEAR"
        }
      ],
      "channels": [
        {
          "sampler": 0,
          "target": {
            "node": 0,
            "path": "translation"
          }
        },
        {
          "sampler": 1,
          "target": {
            "node": 1,
            "path": "rotation"
          }
        }
      ]
    },
    {
      "name": "Retreat",
      "samplers": [
        {
          "input": 94,
          "output": 95,
          "interpolation": "LINEAR"
        },
        {
          "input": 96,
          "output": 97,
          "interpolation": "LINEAR"
        },
        {
          "input": 98,
          "output": 99,
          "interpolation": "LINEAR"
        },
        {
          "input": 100,
          "output": 101,
          "interpolation": "LINEAR"
        }
      ],
      "channels": [
        {
          "sampler": 0,
          "target": {
            "node": 55,
            "path": "rotation"
          }
        },
        {
          "sampler": 1,
          "target": {
            "node": 1,
            "path": "rotation"
          }
        },
        {
          "sampler": 2,
          "target": {
            "node": 64,
            "path": "rotation"
          }
        },
        {
          "sampler": 3,
          "target": {
            "node": 77,
            "path": "rotation"
          }
        }
      ]
    },
    {
      "name": "Death",
      "samplers": [
        {
          "input": 102,
          "output": 103,
          "interpolation": "LINEAR"
        },
        {
          "input": 104,
          "output": 105,
          "interpolation": "LINEAR"
        }
      ],
      "channels": [
        {
          "sampler": 0,
          "target": {
            "node": 0,
            "path": "rotation"
          }
        },
        {
          "sampler": 1,
          "target": {
            "node": 1,
            "path": "rotation"
          }
        }
      ]
    }
  ],
  "extras": {
    "ironwright_asset_id": "apex.cistern.v1",
    "manufactured_surface_profile": "chamfered_high_definition",
    "required_nodes": [
      "ApexModel",
      "Torso",
      "TorsoCore",
      "ApexCrown",
      "ApexJawL",
      "ApexJawRootCollarL",
      "ApexJawRootCollarR",
      "ApexMembraneL",
      "ApexFlankRootL",
      "ProductionAssetMarker"
    ],
    "animation_clips": [
      "Idle",
      "Walk",
      "Attack",
      "Hit",
      "Feed",
      "Nest",
      "Retreat",
      "Death"
    ]
  }
}
