{
  "asset": {
    "version": "2.0",
    "generator": "Project Ironwright original civic vehicle wreck builder"
  },
  "scene": 0,
  "scenes": [
    {
      "name": "VehicleWreck",
      "nodes": [
        0
      ]
    }
  ],
  "nodes": [
    {
      "name": "VehicleWreckModel",
      "children": [
        1,
        2,
        3,
        4,
        5,
        6,
        7,
        8,
        9,
        10,
        11,
        12,
        13,
        14,
        15,
        16,
        17,
        18,
        19,
        20,
        21,
        22,
        23,
        24,
        25,
        26,
        27,
        28,
        29,
        30,
        31,
        32,
        33,
        34,
        35,
        36,
        37,
        38,
        39,
        40
      ],
      "extras": {
        "ironwright_asset_id": "vehicle_wreck.civic_shell.v1",
        "asset_quality": "authored_high_definition",
        "socket_contract": "civic_wreck_shell, service_panel, status_lens"
      }
    },
    {
      "name": "VehicleChassis",
      "translation": [
        0.0,
        0.58,
        0.0
      ],
      "mesh": 0,
      "extras": {
        "surface": "rounded_civic_shell"
      }
    },
    {
      "name": "VehicleLowerChassis",
      "translation": [
        0.0,
        0.75,
        0.0
      ],
      "mesh": 1
    },
    {
      "name": "VehicleCab",
      "translation": [
        -0.42,
        1.02,
        0.0
      ],
      "mesh": 2,
      "rotation": [
        0.0,
        0.0,
        0.024997395914712332,
        0.9996875162757026
      ]
    },
    {
      "name": "VehicleCabRoof",
      "translation": [
        -0.42,
        1.37,
        0.0
      ],
      "mesh": 3,
      "rotation": [
        0.0,
        0.0,
        0.024997395914712332,
        0.9996875162757026
      ]
    },
    {
      "name": "VehicleWindshield",
      "translation": [
        -0.42,
        1.14,
        -0.54
      ],
      "mesh": 4,
      "rotation": [
        0.0,
        0.0,
        0.03998933418663416,
        0.9992001066609779
      ]
    },
    {
      "name": "VehicleRearWindow",
      "translation": [
        -0.42,
        1.14,
        0.54
      ],
      "mesh": 5,
      "rotation": [
        0.0,
        0.0,
        -0.03998933418663416,
        0.9992001066609779
      ]
    },
    {
      "name": "VehicleFrontBumper",
      "translation": [
        1.3,
        0.52,
        0.0
      ],
      "mesh": 10
    },
    {
      "name": "VehicleHeadlampL",
      "translation": [
        1.405,
        0.74,
        -0.43
      ],
      "mesh": 11,
      "extras": {
        "surface": "front_service_lamp"
      }
    },
    {
      "name": "VehicleHeadlampR",
      "translation": [
        1.405,
        0.74,
        0.43
      ],
      "mesh": 11,
      "extras": {
        "surface": "front_service_lamp"
      }
    },
    {
      "name": "VehicleFrontGrilleUpper",
      "translation": [
        1.405,
        0.62,
        0.0
      ],
      "mesh": 12,
      "extras": {
        "surface": "front_grille"
      }
    },
    {
      "name": "VehicleFrontGrilleLower",
      "translation": [
        1.405,
        0.48,
        0.0
      ],
      "mesh": 12,
      "extras": {
        "surface": "front_grille"
      }
    },
    {
      "name": "VehicleWheel00",
      "translation": [
        -0.92,
        0.31,
        -0.68
      ],
      "mesh": 6,
      "rotation": [
        0.7071067811865476,
        0.0,
        0.0,
        0.7071067811865476
      ]
    },
    {
      "name": "VehicleWheelHub00",
      "translation": [
        -0.92,
        0.31,
        -0.68
      ],
      "mesh": 7,
      "rotation": [
        0.7071067811865476,
        0.0,
        0.0,
        0.7071067811865476
      ]
    },
    {
      "name": "VehicleWheelRim00",
      "translation": [
        -0.92,
        0.31,
        -0.68
      ],
      "mesh": 8,
      "rotation": [
        0.7071067811865476,
        0.0,
        0.0,
        0.7071067811865476
      ]
    },
    {
      "name": "VehicleWheel01",
      "translation": [
        0.92,
        0.31,
        -0.68
      ],
      "mesh": 6,
      "rotation": [
        0.7071067811865476,
        0.0,
        0.0,
        0.7071067811865476
      ]
    },
    {
      "name": "VehicleWheelHub01",
      "translation": [
        0.92,
        0.31,
        -0.68
      ],
      "mesh": 7,
      "rotation": [
        0.7071067811865476,
        0.0,
        0.0,
        0.7071067811865476
      ]
    },
    {
      "name": "VehicleWheelRim01",
      "translation": [
        0.92,
        0.31,
        -0.68
      ],
      "mesh": 8,
      "rotation": [
        0.7071067811865476,
        0.0,
        0.0,
        0.7071067811865476
      ]
    },
    {
      "name": "VehicleWheel02",
      "translation": [
        -0.92,
        0.31,
        0.68
      ],
      "mesh": 6,
      "rotation": [
        0.7071067811865476,
        0.0,
        0.0,
        0.7071067811865476
      ]
    },
    {
      "name": "VehicleWheelHub02",
      "translation": [
        -0.92,
        0.31,
        0.68
      ],
      "mesh": 7,
      "rotation": [
        0.7071067811865476,
        0.0,
        0.0,
        0.7071067811865476
      ]
    },
    {
      "name": "VehicleWheelRim02",
      "translation": [
        -0.92,
        0.31,
        0.68
      ],
      "mesh": 8,
      "rotation": [
        0.7071067811865476,
        0.0,
        0.0,
        0.7071067811865476
      ]
    },
    {
      "name": "VehicleWheel03",
      "translation": [
        0.92,
        0.31,
        0.68
      ],
      "mesh": 6,
      "rotation": [
        0.7071067811865476,
        0.0,
        0.0,
        0.7071067811865476
      ]
    },
    {
      "name": "VehicleWheelHub03",
      "translation": [
        0.92,
        0.31,
        0.68
      ],
      "mesh": 7,
      "rotation": [
        0.7071067811865476,
        0.0,
        0.0,
        0.7071067811865476
      ]
    },
    {
      "name": "VehicleWheelRim03",
      "translation": [
        0.92,
        0.31,
        0.68
      ],
      "mesh": 8,
      "rotation": [
        0.7071067811865476,
        0.0,
        0.0,
        0.7071067811865476
      ]
    },
    {
      "name": "VehicleAxle00",
      "translation": [
        0.0,
        0.34,
        -0.68
      ],
      "mesh": 9,
      "rotation": [
        0.0,
        0.0,
        0.7071067811865476,
        0.7071067811865476
      ]
    },
    {
      "name": "VehicleAxle01",
      "translation": [
        0.0,
        0.34,
        0.68
      ],
      "mesh": 9,
      "rotation": [
        0.0,
        0.0,
        0.7071067811865476,
        0.7071067811865476
      ]
    },
    {
      "name": "VehicleServicePanel",
      "translation": [
        0.68,
        0.84,
        -0.6
      ],
      "mesh": 16,
      "rotation": [
        0.0,
        0.0,
        -0.03998933418663416,
        0.9992001066609779
      ],
      "extras": {
        "surface": "maintenance_access"
      }
    },
    {
      "name": "VehicleServiceFastener00",
      "translation": [
        0.48,
        0.91,
        -0.64
      ],
      "mesh": 19
    },
    {
      "name": "VehicleServiceFastener01",
      "translation": [
        0.61,
        0.91,
        -0.64
      ],
      "mesh": 19
    },
    {
      "name": "VehicleServiceFastener02",
      "translation": [
        0.74,
        0.91,
        -0.64
      ],
      "mesh": 19
    },
    {
      "name": "VehicleServiceFastener03",
      "translation": [
        0.87,
        0.91,
        -0.64
      ],
      "mesh": 19
    },
    {
      "name": "VehicleStatusLens",
      "translation": [
        1.34,
        0.74,
        -0.62
      ],
      "mesh": 15,
      "extras": {
        "socket_type": "status_lens"
      }
    },
    {
      "name": "VehicleWarningStripe00",
      "translation": [
        0.38,
        0.88,
        -0.66
      ],
      "mesh": 14,
      "rotation": [
        0.0,
        0.0,
        0.07492970727274234,
        0.9971888181122075
      ]
    },
    {
      "name": "VehicleWarningStripe01",
      "translation": [
        0.62,
        0.88,
        -0.66
      ],
      "mesh": 14,
      "rotation": [
        0.0,
        0.0,
        0.07492970727274234,
        0.9971888181122075
      ]
    },
    {
      "name": "VehicleWarningStripe02",
      "translation": [
        0.86,
        0.88,
        -0.66
      ],
      "mesh": 14,
      "rotation": [
        0.0,
        0.0,
        0.07492970727274234,
        0.9971888181122075
      ]
    },
    {
      "name": "VehicleCableBundle00",
      "translation": [
        0.06,
        0.8400000000000001,
        0.565
      ],
      "mesh": 17,
      "rotation": [
        0.6420610457488308,
        -0.0869474979713315,
        0.07363499068819261,
        0.7581395875924122
      ]
    },
    {
      "name": "VehicleCableBundle01",
      "translation": [
        0.22,
        0.875,
        0.6200000000000001
      ],
      "mesh": 17,
      "rotation": [
        0.6569575621312972,
        -0.08111562225729393,
        0.07142018986106138,
        0.7461408539039561
      ]
    },
    {
      "name": "VehicleGlassShard00",
      "translation": [
        -0.92,
        1.46,
        -0.56
      ],
      "mesh": 18,
      "rotation": [
        -0.06893460489015323,
        -0.011833095212998083,
        0.1687680215369814,
        0.9831710700650278
      ]
    },
    {
      "name": "VehicleGlassShard01",
      "translation": [
        -0.54,
        1.51,
        -0.56
      ],
      "mesh": 18,
      "rotation": [
        -0.0886424634220942,
        0.10594957982374772,
        0.17580666294787617,
        0.9746841629352382
      ]
    },
    {
      "name": "VehicleGlassShard02",
      "translation": [
        -0.16000000000000003,
        1.46,
        -0.56
      ],
      "mesh": 18,
      "rotation": [
        -0.10707540148747793,
        0.22220841084120863,
        0.18031672489362144,
        0.9521786383191749
      ]
    },
    {
      "name": "ProductionAssetMarker",
      "translation": [
        0.0,
        0.0,
        0.0
      ],
      "extras": {
        "asset_contract": "vehicle_wreck.civic_shell.v1",
        "source": "original_shared_mesh_builder"
      }
    }
  ],
  "meshes": [
    {
      "name": "Chassis",
      "primitives": [
        {
          "attributes": {
            "POSITION": 0,
            "NORMAL": 1,
            "TEXCOORD_0": 2,
            "TANGENT": 3
          },
          "indices": 4,
          "material": 0
        }
      ]
    },
    {
      "name": "LowerChassis",
      "primitives": [
        {
          "attributes": {
            "POSITION": 5,
            "NORMAL": 6,
            "TEXCOORD_0": 7,
            "TANGENT": 8
          },
          "indices": 9,
          "material": 0
        }
      ]
    },
    {
      "name": "Cab",
      "primitives": [
        {
          "attributes": {
            "POSITION": 10,
            "NORMAL": 11,
            "TEXCOORD_0": 12,
            "TANGENT": 13
          },
          "indices": 14,
          "material": 1
        }
      ]
    },
    {
      "name": "Roof",
      "primitives": [
        {
          "attributes": {
            "POSITION": 15,
            "NORMAL": 16,
            "TEXCOORD_0": 17,
            "TANGENT": 18
          },
          "indices": 19,
          "material": 2
        }
      ]
    },
    {
      "name": "Glass",
      "primitives": [
        {
          "attributes": {
            "POSITION": 20,
            "NORMAL": 21,
            "TEXCOORD_0": 22,
            "TANGENT": 23
          },
          "indices": 24,
          "material": 4
        }
      ]
    },
    {
      "name": "SideGlass",
      "primitives": [
        {
          "attributes": {
            "POSITION": 25,
            "NORMAL": 26,
            "TEXCOORD_0": 27,
            "TANGENT": 28
          },
          "indices": 29,
          "material": 4
        }
      ]
    },
    {
      "name": "Wheel",
      "primitives": [
        {
          "attributes": {
            "POSITION": 30,
            "NORMAL": 31,
            "TEXCOORD_0": 32,
            "TANGENT": 33
          },
          "indices": 34,
          "material": 3
        }
      ]
    },
    {
      "name": "Hub",
      "primitives": [
        {
          "attributes": {
            "POSITION": 35,
            "NORMAL": 36,
            "TEXCOORD_0": 37,
            "TANGENT": 38
          },
          "indices": 39,
          "material": 0
        }
      ]
    },
    {
      "name": "Rim",
      "primitives": [
        {
          "attributes": {
            "POSITION": 40,
            "NORMAL": 41,
            "TEXCOORD_0": 42,
            "TANGENT": 43
          },
          "indices": 44,
          "material": 2
        }
      ]
    },
    {
      "name": "Axle",
      "primitives": [
        {
          "attributes": {
            "POSITION": 45,
            "NORMAL": 46,
            "TEXCOORD_0": 47,
            "TANGENT": 48
          },
          "indices": 49,
          "material": 2
        }
      ]
    },
    {
      "name": "Bumper",
      "primitives": [
        {
          "attributes": {
            "POSITION": 50,
            "NORMAL": 51,
            "TEXCOORD_0": 52,
            "TANGENT": 53
          },
          "indices": 54,
          "material": 2
        }
      ]
    },
    {
      "name": "Headlamp",
      "primitives": [
        {
          "attributes": {
            "POSITION": 55,
            "NORMAL": 56,
            "TEXCOORD_0": 57,
            "TANGENT": 58
          },
          "indices": 59,
          "material": 6
        }
      ]
    },
    {
      "name": "GrilleBar",
      "primitives": [
        {
          "attributes": {
            "POSITION": 60,
            "NORMAL": 61,
            "TEXCOORD_0": 62,
            "TANGENT": 63
          },
          "indices": 64,
          "material": 1
        }
      ]
    },
    {
      "name": "Panel",
      "primitives": [
        {
          "attributes": {
            "POSITION": 65,
            "NORMAL": 66,
            "TEXCOORD_0": 67,
            "TANGENT": 68
          },
          "indices": 69,
          "material": 1
        }
      ]
    },
    {
      "name": "Warning",
      "primitives": [
        {
          "attributes": {
            "POSITION": 70,
            "NORMAL": 71,
            "TEXCOORD_0": 72,
            "TANGENT": 73
          },
          "indices": 74,
          "material": 5
        }
      ]
    },
    {
      "name": "Lens",
      "primitives": [
        {
          "attributes": {
            "POSITION": 75,
            "NORMAL": 76,
            "TEXCOORD_0": 77,
            "TANGENT": 78
          },
          "indices": 79,
          "material": 5
        }
      ]
    },
    {
      "name": "Service",
      "primitives": [
        {
          "attributes": {
            "POSITION": 80,
            "NORMAL": 81,
            "TEXCOORD_0": 82,
            "TANGENT": 83
          },
          "indices": 84,
          "material": 6
        }
      ]
    },
    {
      "name": "Cable",
      "primitives": [
        {
          "attributes": {
            "POSITION": 85,
            "NORMAL": 86,
            "TEXCOORD_0": 87,
            "TANGENT": 88
          },
          "indices": 89,
          "material": 6
        }
      ]
    },
    {
      "name": "Shard",
      "primitives": [
        {
          "attributes": {
            "POSITION": 90,
            "NORMAL": 91,
            "TEXCOORD_0": 92,
            "TANGENT": 93
          },
          "indices": 94,
          "material": 4
        }
      ]
    },
    {
      "name": "Fastener",
      "primitives": [
        {
          "attributes": {
            "POSITION": 95,
            "NORMAL": 96,
            "TEXCOORD_0": 97,
            "TANGENT": 98
          },
          "indices": 99,
          "material": 5
        }
      ]
    }
  ],
  "materials": [
    {
      "name": "Civic oxidized steel",
      "pbrMetallicRoughness": {
        "baseColorFactor": [
          0.18,
          0.21,
          0.21,
          1.0
        ],
        "metallicFactor": 0.82,
        "roughnessFactor": 0.46
      }
    },
    {
      "name": "Civic dark machinery",
      "pbrMetallicRoughness": {
        "baseColorFactor": [
          0.035,
          0.045,
          0.047,
          1.0
        ],
        "metallicFactor": 0.72,
        "roughnessFactor": 0.42
      }
    },
    {
      "name": "Civic oxide",
      "pbrMetallicRoughness": {
        "baseColorFactor": [
          0.34,
          0.12,
          0.055,
          1.0
        ],
        "metallicFactor": 0.58,
        "roughnessFactor": 0.6
      }
    },
    {
      "name": "Civic rubber",
      "pbrMetallicRoughness": {
        "baseColorFactor": [
          0.014,
          0.018,
          0.019,
          1.0
        ],
        "metallicFactor": 0.04,
        "roughnessFactor": 0.94
      }
    },
    {
      "name": "Civic glass",
      "pbrMetallicRoughness": {
        "baseColorFactor": [
          0.16,
          0.29,
          0.3,
          0.48
        ],
        "metallicFactor": 0.12,
        "roughnessFactor": 0.18
      },
      "alphaMode": "BLEND",
      "emissiveFactor": [
        0.03,
        0.13,
        0.14
      ]
    },
    {
      "name": "Civic amber status",
      "pbrMetallicRoughness": {
        "baseColorFactor": [
          0.52,
          0.18,
          0.035,
          1.0
        ],
        "metallicFactor": 0.22,
        "roughnessFactor": 0.34
      },
      "emissiveFactor": [
        0.95,
        0.23,
        0.025
      ]
    },
    {
      "name": "Civic cyan service",
      "pbrMetallicRoughness": {
        "baseColorFactor": [
          0.025,
          0.18,
          0.2,
          1.0
        ],
        "metallicFactor": 0.26,
        "roughnessFactor": 0.28
      },
      "emissiveFactor": [
        0.08,
        0.76,
        0.82
      ]
    }
  ],
  "accessors": [
    {
      "bufferView": 0,
      "componentType": 5126,
      "count": 1000,
      "type": "VEC3",
      "min": [
        -1.28,
        -0.38,
        -0.7
      ],
      "max": [
        1.28,
        0.38,
        0.7
      ]
    },
    {
      "bufferView": 1,
      "componentType": 5126,
      "count": 1000,
      "type": "VEC3"
    },
    {
      "bufferView": 2,
      "componentType": 5126,
      "count": 1000,
      "type": "VEC2"
    },
    {
      "bufferView": 3,
      "componentType": 5126,
      "count": 1000,
      "type": "VEC4"
    },
    {
      "bufferView": 4,
      "componentType": 5123,
      "count": 5760,
      "type": "SCALAR",
      "normalized": false
    },
    {
      "bufferView": 5,
      "componentType": 5126,
      "count": 96,
      "type": "VEC3",
      "min": [
        -1.21,
        -0.08,
        -0.58
      ],
      "max": [
        1.21,
        0.08,
        0.58
      ]
    },
    {
      "bufferView": 6,
      "componentType": 5126,
      "count": 96,
      "type": "VEC3"
    },
    {
      "bufferView": 7,
      "componentType": 5126,
      "count": 96,
      "type": "VEC2"
    },
    {
      "bufferView": 8,
      "componentType": 5126,
      "count": 96,
      "type": "VEC4"
    },
    {
      "bufferView": 9,
      "componentType": 5123,
      "count": 132,
      "type": "SCALAR",
      "normalized": false
    },
    {
      "bufferView": 10,
      "componentType": 5126,
      "count": 96,
      "type": "VEC3",
      "min": [
        -0.78,
        -0.3,
        -0.52
      ],
      "max": [
        0.78,
        0.3,
        0.52
      ]
    },
    {
      "bufferView": 11,
      "componentType": 5126,
      "count": 96,
      "type": "VEC3"
    },
    {
      "bufferView": 12,
      "componentType": 5126,
      "count": 96,
      "type": "VEC2"
    },
    {
      "bufferView": 13,
      "componentType": 5126,
      "count": 96,
      "type": "VEC4"
    },
    {
      "bufferView": 14,
      "componentType": 5123,
      "count": 132,
      "type": "SCALAR",
      "normalized": false
    },
    {
      "bufferView": 15,
      "componentType": 5126,
      "count": 96,
      "type": "VEC3",
      "min": [
        -0.72,
        -0.065,
        -0.49
      ],
      "max": [
        0.72,
        0.065,
        0.49
      ]
    },
    {
      "bufferView": 16,
      "componentType": 5126,
      "count": 96,
      "type": "VEC3"
    },
    {
      "bufferView": 17,
      "componentType": 5126,
      "count": 96,
      "type": "VEC2"
    },
    {
      "bufferView": 18,
      "componentType": 5126,
      "count": 96,
      "type": "VEC4"
    },
    {
      "bufferView": 19,
      "componentType": 5123,
      "count": 132,
      "type": "SCALAR",
      "normalized": false
    },
    {
      "bufferView": 20,
      "componentType": 5126,
      "count": 96,
      "type": "VEC3",
      "min": [
        -0.54,
        -0.16,
        -0.035
      ],
      "max": [
        0.54,
        0.16,
        0.035
      ]
    },
    {
      "bufferView": 21,
      "componentType": 5126,
      "count": 96,
      "type": "VEC3"
    },
    {
      "bufferView": 22,
      "componentType": 5126,
      "count": 96,
      "type": "VEC2"
    },
    {
      "bufferView": 23,
      "componentType": 5126,
      "count": 96,
      "type": "VEC4"
    },
    {
      "bufferView": 24,
      "componentType": 5123,
      "count": 132,
      "type": "SCALAR",
      "normalized": false
    },
    {
      "bufferView": 25,
      "componentType": 5126,
      "count": 96,
      "type": "VEC3",
      "min": [
        -0.36,
        -0.14,
        -0.035
      ],
      "max": [
        0.36,
        0.14,
        0.035
      ]
    },
    {
      "bufferView": 26,
      "componentType": 5126,
      "count": 96,
      "type": "VEC3"
    },
    {
      "bufferView": 27,
      "componentType": 5126,
      "count": 96,
      "type": "VEC2"
    },
    {
      "bufferView": 28,
      "componentType": 5126,
      "count": 96,
      "type": "VEC4"
    },
    {
      "bufferView": 29,
      "componentType": 5123,
      "count": 132,
      "type": "SCALAR",
      "normalized": false
    },
    {
      "bufferView": 30,
      "componentType": 5126,
      "count": 66,
      "type": "VEC3",
      "min": [
        -0.22,
        -0.08,
        -0.22
      ],
      "max": [
        0.22,
        0.08,
        0.22
      ]
    },
    {
      "bufferView": 31,
      "componentType": 5126,
      "count": 66,
      "type": "VEC3"
    },
    {
      "bufferView": 32,
      "componentType": 5126,
      "count": 66,
      "type": "VEC2"
    },
    {
      "bufferView": 33,
      "componentType": 5126,
      "count": 66,
      "type": "VEC4"
    },
    {
      "bufferView": 34,
      "componentType": 5123,
      "count": 384,
      "type": "SCALAR",
      "normalized": false
    },
    {
      "bufferView": 35,
      "componentType": 5126,
      "count": 58,
      "type": "VEC3",
      "min": [
        -0.11,
        -0.095,
        -0.11
      ],
      "max": [
        0.11,
        0.095,
        0.11
      ]
    },
    {
      "bufferView": 36,
      "componentType": 5126,
      "count": 58,
      "type": "VEC3"
    },
    {
      "bufferView": 37,
      "componentType": 5126,
      "count": 58,
      "type": "VEC2"
    },
    {
      "bufferView": 38,
      "componentType": 5126,
      "count": 58,
      "type": "VEC4"
    },
    {
      "bufferView": 39,
      "componentType": 5123,
      "count": 336,
      "type": "SCALAR",
      "normalized": false
    },
    {
      "bufferView": 40,
      "componentType": 5126,
      "count": 432,
      "type": "VEC3",
      "min": [
        -0.185,
        -0.025,
        -0.185
      ],
      "max": [
        0.185,
        0.025,
        0.185
      ]
    },
    {
      "bufferView": 41,
      "componentType": 5126,
      "count": 432,
      "type": "VEC3"
    },
    {
      "bufferView": 42,
      "componentType": 5126,
      "count": 432,
      "type": "VEC2"
    },
    {
      "bufferView": 43,
      "componentType": 5126,
      "count": 432,
      "type": "VEC4"
    },
    {
      "bufferView": 44,
      "componentType": 5123,
      "count": 2592,
      "type": "SCALAR",
      "normalized": false
    },
    {
      "bufferView": 45,
      "componentType": 5126,
      "count": 58,
      "type": "VEC3",
      "min": [
        -0.055,
        -0.95,
        -0.055
      ],
      "max": [
        0.055,
        0.95,
        0.055
      ]
    },
    {
      "bufferView": 46,
      "componentType": 5126,
      "count": 58,
      "type": "VEC3"
    },
    {
      "bufferView": 47,
      "componentType": 5126,
      "count": 58,
      "type": "VEC2"
    },
    {
      "bufferView": 48,
      "componentType": 5126,
      "count": 58,
      "type": "VEC4"
    },
    {
      "bufferView": 49,
      "componentType": 5123,
      "count": 336,
      "type": "SCALAR",
      "normalized": false
    },
    {
      "bufferView": 50,
      "componentType": 5126,
      "count": 96,
      "type": "VEC3",
      "min": [
        -0.09,
        -0.1,
        -0.65
      ],
      "max": [
        0.09,
        0.1,
        0.65
      ]
    },
    {
      "bufferView": 51,
      "componentType": 5126,
      "count": 96,
      "type": "VEC3"
    },
    {
      "bufferView": 52,
      "componentType": 5126,
      "count": 96,
      "type": "VEC2"
    },
    {
      "bufferView": 53,
      "componentType": 5126,
      "count": 96,
      "type": "VEC4"
    },
    {
      "bufferView": 54,
      "componentType": 5123,
      "count": 132,
      "type": "SCALAR",
      "normalized": false
    },
    {
      "bufferView": 55,
      "componentType": 5126,
      "count": 608,
      "type": "VEC3",
      "min": [
        -0.11,
        -0.11,
        -0.11
      ],
      "max": [
        0.11,
        0.11,
        0.11
      ]
    },
    {
      "bufferView": 56,
      "componentType": 5126,
      "count": 608,
      "type": "VEC3"
    },
    {
      "bufferView": 57,
      "componentType": 5126,
      "count": 608,
      "type": "VEC2"
    },
    {
      "bufferView": 58,
      "componentType": 5126,
      "count": 608,
      "type": "VEC4"
    },
    {
      "bufferView": 59,
      "componentType": 5123,
      "count": 3456,
      "type": "SCALAR",
      "normalized": false
    },
    {
      "bufferView": 60,
      "componentType": 5126,
      "count": 96,
      "type": "VEC3",
      "min": [
        -0.035,
        -0.06,
        -0.33
      ],
      "max": [
        0.035,
        0.06,
        0.33
      ]
    },
    {
      "bufferView": 61,
      "componentType": 5126,
      "count": 96,
      "type": "VEC3"
    },
    {
      "bufferView": 62,
      "componentType": 5126,
      "count": 96,
      "type": "VEC2"
    },
    {
      "bufferView": 63,
      "componentType": 5126,
      "count": 96,
      "type": "VEC4"
    },
    {
      "bufferView": 64,
      "componentType": 5123,
      "count": 132,
      "type": "SCALAR",
      "normalized": false
    },
    {
      "bufferView": 65,
      "componentType": 5126,
      "count": 96,
      "type": "VEC3",
      "min": [
        -0.32,
        -0.04,
        -0.1
      ],
      "max": [
        0.32,
        0.04,
        0.1
      ]
    },
    {
      "bufferView": 66,
      "componentType": 5126,
      "count": 96,
      "type": "VEC3"
    },
    {
      "bufferView": 67,
      "componentType": 5126,
      "count": 96,
      "type": "VEC2"
    },
    {
      "bufferView": 68,
      "componentType": 5126,
      "count": 96,
      "type": "VEC4"
    },
    {
      "bufferView": 69,
      "componentType": 5123,
      "count": 132,
      "type": "SCALAR",
      "normalized": false
    },
    {
      "bufferView": 70,
      "componentType": 5126,
      "count": 96,
      "type": "VEC3",
      "min": [
        -0.065,
        -0.0225,
        -0.06
      ],
      "max": [
        0.065,
        0.0225,
        0.06
      ]
    },
    {
      "bufferView": 71,
      "componentType": 5126,
      "count": 96,
      "type": "VEC3"
    },
    {
      "bufferView": 72,
      "componentType": 5126,
      "count": 96,
      "type": "VEC2"
    },
    {
      "bufferView": 73,
      "componentType": 5126,
      "count": 96,
      "type": "VEC4"
    },
    {
      "bufferView": 74,
      "componentType": 5123,
      "count": 132,
      "type": "SCALAR",
      "normalized": false
    },
    {
      "bufferView": 75,
      "componentType": 5126,
      "count": 608,
      "type": "VEC3",
      "min": [
        -0.09,
        -0.09,
        -0.09
      ],
      "max": [
        0.09,
        0.09,
        0.09
      ]
    },
    {
      "bufferView": 76,
      "componentType": 5126,
      "count": 608,
      "type": "VEC3"
    },
    {
      "bufferView": 77,
      "componentType": 5126,
      "count": 608,
      "type": "VEC2"
    },
    {
      "bufferView": 78,
      "componentType": 5126,
      "count": 608,
      "type": "VEC4"
    },
    {
      "bufferView": 79,
      "componentType": 5123,
      "count": 3456,
      "type": "SCALAR",
      "normalized": false
    },
    {
      "bufferView": 80,
      "componentType": 5126,
      "count": 96,
      "type": "VEC3",
      "min": [
        -0.41,
        -0.0275,
        -0.17
      ],
      "max": [
        0.41,
        0.0275,
        0.17
      ]
    },
    {
      "bufferView": 81,
      "componentType": 5126,
      "count": 96,
      "type": "VEC3"
    },
    {
      "bufferView": 82,
      "componentType": 5126,
      "count": 96,
      "type": "VEC2"
    },
    {
      "bufferView": 83,
      "componentType": 5126,
      "count": 96,
      "type": "VEC4"
    },
    {
      "bufferView": 84,
      "componentType": 5123,
      "count": 132,
      "type": "SCALAR",
      "normalized": false
    },
    {
      "bufferView": 85,
      "componentType": 5126,
      "count": 50,
      "type": "VEC3",
      "min": [
        -0.028,
        -0.35,
        -0.028
      ],
      "max": [
        0.028,
        0.35,
        0.028
      ]
    },
    {
      "bufferView": 86,
      "componentType": 5126,
      "count": 50,
      "type": "VEC3"
    },
    {
      "bufferView": 87,
      "componentType": 5126,
      "count": 50,
      "type": "VEC2"
    },
    {
      "bufferView": 88,
      "componentType": 5126,
      "count": 50,
      "type": "VEC4"
    },
    {
      "bufferView": 89,
      "componentType": 5123,
      "count": 288,
      "type": "SCALAR",
      "normalized": false
    },
    {
      "bufferView": 90,
      "componentType": 5126,
      "count": 96,
      "type": "VEC3",
      "min": [
        -0.11,
        -0.02,
        -0.07
      ],
      "max": [
        0.11,
        0.02,
        0.07
      ]
    },
    {
      "bufferView": 91,
      "componentType": 5126,
      "count": 96,
      "type": "VEC3"
    },
    {
      "bufferView": 92,
      "componentType": 5126,
      "count": 96,
      "type": "VEC2"
    },
    {
      "bufferView": 93,
      "componentType": 5126,
      "count": 96,
      "type": "VEC4"
    },
    {
      "bufferView": 94,
      "componentType": 5123,
      "count": 132,
      "type": "SCALAR",
      "normalized": false
    },
    {
      "bufferView": 95,
      "componentType": 5126,
      "count": 50,
      "type": "VEC3",
      "min": [
        -0.026,
        -0.0175,
        -0.026
      ],
      "max": [
        0.026,
        0.0175,
        0.026
      ]
    },
    {
      "bufferView": 96,
      "componentType": 5126,
      "count": 50,
      "type": "VEC3"
    },
    {
      "bufferView": 97,
      "componentType": 5126,
      "count": 50,
      "type": "VEC2"
    },
    {
      "bufferView": 98,
      "componentType": 5126,
      "count": 50,
      "type": "VEC4"
    },
    {
      "bufferView": 99,
      "componentType": 5123,
      "count": 288,
      "type": "SCALAR",
      "normalized": false
    }
  ],
  "bufferViews": [
    {
      "buffer": 0,
      "byteOffset": 0,
      "byteLength": 12000,
      "target": 34962
    },
    {
      "buffer": 0,
      "byteOffset": 12000,
      "byteLength": 12000,
      "target": 34962
    },
    {
      "buffer": 0,
      "byteOffset": 24000,
      "byteLength": 8000,
      "target": 34962
    },
    {
      "buffer": 0,
      "byteOffset": 32000,
      "byteLength": 16000,
      "target": 34962
    },
    {
      "buffer": 0,
      "byteOffset": 48000,
      "byteLength": 11520,
      "target": 34963
    },
    {
      "buffer": 0,
      "byteOffset": 59520,
      "byteLength": 1152,
      "target": 34962
    },
    {
      "buffer": 0,
      "byteOffset": 60672,
      "byteLength": 1152,
      "target": 34962
    },
    {
      "buffer": 0,
      "byteOffset": 61824,
      "byteLength": 768,
      "target": 34962
    },
    {
      "buffer": 0,
      "byteOffset": 62592,
      "byteLength": 1536,
      "target": 34962
    },
    {
      "buffer": 0,
      "byteOffset": 64128,
      "byteLength": 264,
      "target": 34963
    },
    {
      "buffer": 0,
      "byteOffset": 64392,
      "byteLength": 1152,
      "target": 34962
    },
    {
      "buffer": 0,
      "byteOffset": 65544,
      "byteLength": 1152,
      "target": 34962
    },
    {
      "buffer": 0,
      "byteOffset": 66696,
      "byteLength": 768,
      "target": 34962
    },
    {
      "buffer": 0,
      "byteOffset": 67464,
      "byteLength": 1536,
      "target": 34962
    },
    {
      "buffer": 0,
      "byteOffset": 69000,
      "byteLength": 264,
      "target": 34963
    },
    {
      "buffer": 0,
      "byteOffset": 69264,
      "byteLength": 1152,
      "target": 34962
    },
    {
      "buffer": 0,
      "byteOffset": 70416,
      "byteLength": 1152,
      "target": 34962
    },
    {
      "buffer": 0,
      "byteOffset": 71568,
      "byteLength": 768,
      "target": 34962
    },
    {
      "buffer": 0,
      "byteOffset": 72336,
      "byteLength": 1536,
      "target": 34962
    },
    {
      "buffer": 0,
      "byteOffset": 73872,
      "byteLength": 264,
      "target": 34963
    },
    {
      "buffer": 0,
      "byteOffset": 74136,
      "byteLength": 1152,
      "target": 34962
    },
    {
      "buffer": 0,
      "byteOffset": 75288,
      "byteLength": 1152,
      "target": 34962
    },
    {
      "buffer": 0,
      "byteOffset": 76440,
      "byteLength": 768,
      "target": 34962
    },
    {
      "buffer": 0,
      "byteOffset": 77208,
      "byteLength": 1536,
      "target": 34962
    },
    {
      "buffer": 0,
      "byteOffset": 78744,
      "byteLength": 264,
      "target": 34963
    },
    {
      "buffer": 0,
      "byteOffset": 79008,
      "byteLength": 1152,
      "target": 34962
    },
    {
      "buffer": 0,
      "byteOffset": 80160,
      "byteLength": 1152,
      "target": 34962
    },
    {
      "buffer": 0,
      "byteOffset": 81312,
      "byteLength": 768,
      "target": 34962
    },
    {
      "buffer": 0,
      "byteOffset": 82080,
      "byteLength": 1536,
      "target": 34962
    },
    {
      "buffer": 0,
      "byteOffset": 83616,
      "byteLength": 264,
      "target": 34963
    },
    {
      "buffer": 0,
      "byteOffset": 83880,
      "byteLength": 792,
      "target": 34962
    },
    {
      "buffer": 0,
      "byteOffset": 84672,
      "byteLength": 792,
      "target": 34962
    },
    {
      "buffer": 0,
      "byteOffset": 85464,
      "byteLength": 528,
      "target": 34962
    },
    {
      "buffer": 0,
      "byteOffset": 85992,
      "byteLength": 1056,
      "target": 34962
    },
    {
      "buffer": 0,
      "byteOffset": 87048,
      "byteLength": 768,
      "target": 34963
    },
    {
      "buffer": 0,
      "byteOffset": 87816,
      "byteLength": 696,
      "target": 34962
    },
    {
      "buffer": 0,
      "byteOffset": 88512,
      "byteLength": 696,
      "target": 34962
    },
    {
      "buffer": 0,
      "byteOffset": 89208,
      "byteLength": 464,
      "target": 34962
    },
    {
      "buffer": 0,
      "byteOffset": 89672,
      "byteLength": 928,
      "target": 34962
    },
    {
      "buffer": 0,
      "byteOffset": 90600,
      "byteLength": 672,
      "target": 34963
    },
    {
      "buffer": 0,
      "byteOffset": 91272,
      "byteLength": 5184,
      "target": 34962
    },
    {
      "buffer": 0,
      "byteOffset": 96456,
      "byteLength": 5184,
      "target": 34962
    },
    {
      "buffer": 0,
      "byteOffset": 101640,
      "byteLength": 3456,
      "target": 34962
    },
    {
      "buffer": 0,
      "byteOffset": 105096,
      "byteLength": 6912,
      "target": 34962
    },
    {
      "buffer": 0,
      "byteOffset": 112008,
      "byteLength": 5184,
      "target": 34963
    },
    {
      "buffer": 0,
      "byteOffset": 117192,
      "byteLength": 696,
      "target": 34962
    },
    {
      "buffer": 0,
      "byteOffset": 117888,
      "byteLength": 696,
      "target": 34962
    },
    {
      "buffer": 0,
      "byteOffset": 118584,
      "byteLength": 464,
      "target": 34962
    },
    {
      "buffer": 0,
      "byteOffset": 119048,
      "byteLength": 928,
      "target": 34962
    },
    {
      "buffer": 0,
      "byteOffset": 119976,
      "byteLength": 672,
      "target": 34963
    },
    {
      "buffer": 0,
      "byteOffset": 120648,
      "byteLength": 1152,
      "target": 34962
    },
    {
      "buffer": 0,
      "byteOffset": 121800,
      "byteLength": 1152,
      "target": 34962
    },
    {
      "buffer": 0,
      "byteOffset": 122952,
      "byteLength": 768,
      "target": 34962
    },
    {
      "buffer": 0,
      "byteOffset": 123720,
      "byteLength": 1536,
      "target": 34962
    },
    {
      "buffer": 0,
      "byteOffset": 125256,
      "byteLength": 264,
      "target": 34963
    },
    {
      "buffer": 0,
      "byteOffset": 125520,
      "byteLength": 7296,
      "target": 34962
    },
    {
      "buffer": 0,
      "byteOffset": 132816,
      "byteLength": 7296,
      "target": 34962
    },
    {
      "buffer": 0,
      "byteOffset": 140112,
      "byteLength": 4864,
      "target": 34962
    },
    {
      "buffer": 0,
      "byteOffset": 144976,
      "byteLength": 9728,
      "target": 34962
    },
    {
      "buffer": 0,
      "byteOffset": 154704,
      "byteLength": 6912,
      "target": 34963
    },
    {
      "buffer": 0,
      "byteOffset": 161616,
      "byteLength": 1152,
      "target": 34962
    },
    {
      "buffer": 0,
      "byteOffset": 162768,
      "byteLength": 1152,
      "target": 34962
    },
    {
      "buffer": 0,
      "byteOffset": 163920,
      "byteLength": 768,
      "target": 34962
    },
    {
      "buffer": 0,
      "byteOffset": 164688,
      "byteLength": 1536,
      "target": 34962
    },
    {
      "buffer": 0,
      "byteOffset": 166224,
      "byteLength": 264,
      "target": 34963
    },
    {
      "buffer": 0,
      "byteOffset": 166488,
      "byteLength": 1152,
      "target": 34962
    },
    {
      "buffer": 0,
      "byteOffset": 167640,
      "byteLength": 1152,
      "target": 34962
    },
    {
      "buffer": 0,
      "byteOffset": 168792,
      "byteLength": 768,
      "target": 34962
    },
    {
      "buffer": 0,
      "byteOffset": 169560,
      "byteLength": 1536,
      "target": 34962
    },
    {
      "buffer": 0,
      "byteOffset": 171096,
      "byteLength": 264,
      "target": 34963
    },
    {
      "buffer": 0,
      "byteOffset": 171360,
      "byteLength": 1152,
      "target": 34962
    },
    {
      "buffer": 0,
      "byteOffset": 172512,
      "byteLength": 1152,
      "target": 34962
    },
    {
      "buffer": 0,
      "byteOffset": 173664,
      "byteLength": 768,
      "target": 34962
    },
    {
      "buffer": 0,
      "byteOffset": 174432,
      "byteLength": 1536,
      "target": 34962
    },
    {
      "buffer": 0,
      "byteOffset": 175968,
      "byteLength": 264,
      "target": 34963
    },
    {
      "buffer": 0,
      "byteOffset": 176232,
      "byteLength": 7296,
      "target": 34962
    },
    {
      "buffer": 0,
      "byteOffset": 183528,
      "byteLength": 7296,
      "target": 34962
    },
    {
      "buffer": 0,
      "byteOffset": 190824,
      "byteLength": 4864,
      "target": 34962
    },
    {
      "buffer": 0,
      "byteOffset": 195688,
      "byteLength": 9728,
      "target": 34962
    },
    {
      "buffer": 0,
      "byteOffset": 205416,
      "byteLength": 6912,
      "target": 34963
    },
    {
      "buffer": 0,
      "byteOffset": 212328,
      "byteLength": 1152,
      "target": 34962
    },
    {
      "buffer": 0,
      "byteOffset": 213480,
      "byteLength": 1152,
      "target": 34962
    },
    {
      "buffer": 0,
      "byteOffset": 214632,
      "byteLength": 768,
      "target": 34962
    },
    {
      "buffer": 0,
      "byteOffset": 215400,
      "byteLength": 1536,
      "target": 34962
    },
    {
      "buffer": 0,
      "byteOffset": 216936,
      "byteLength": 264,
      "target": 34963
    },
    {
      "buffer": 0,
      "byteOffset": 217200,
      "byteLength": 600,
      "target": 34962
    },
    {
      "buffer": 0,
      "byteOffset": 217800,
      "byteLength": 600,
      "target": 34962
    },
    {
      "buffer": 0,
      "byteOffset": 218400,
      "byteLength": 400,
      "target": 34962
    },
    {
      "buffer": 0,
      "byteOffset": 218800,
      "byteLength": 800,
      "target": 34962
    },
    {
      "buffer": 0,
      "byteOffset": 219600,
      "byteLength": 576,
      "target": 34963
    },
    {
      "buffer": 0,
      "byteOffset": 220176,
      "byteLength": 1152,
      "target": 34962
    },
    {
      "buffer": 0,
      "byteOffset": 221328,
      "byteLength": 1152,
      "target": 34962
    },
    {
      "buffer": 0,
      "byteOffset": 222480,
      "byteLength": 768,
      "target": 34962
    },
    {
      "buffer": 0,
      "byteOffset": 223248,
      "byteLength": 1536,
      "target": 34962
    },
    {
      "buffer": 0,
      "byteOffset": 224784,
      "byteLength": 264,
      "target": 34963
    },
    {
      "buffer": 0,
      "byteOffset": 225048,
      "byteLength": 600,
      "target": 34962
    },
    {
      "buffer": 0,
      "byteOffset": 225648,
      "byteLength": 600,
      "target": 34962
    },
    {
      "buffer": 0,
      "byteOffset": 226248,
      "byteLength": 400,
      "target": 34962
    },
    {
      "buffer": 0,
      "byteOffset": 226648,
      "byteLength": 800,
      "target": 34962
    },
    {
      "buffer": 0,
      "byteOffset": 227448,
      "byteLength": 576,
      "target": 34963
    }
  ],
  "buffers": [
    {
      "byteLength": 228024,
      "uri": "data:application/octet-stream;base64,"
    }
  ],
  "extras": {
    "ironwright_asset_id": "vehicle_wreck.civic_shell.v1",
    "required_nodes": [
      "VehicleWreckModel",
      "VehicleChassis",
      "VehicleCab",
      "VehicleCabRoof",
      "VehicleWindshield",
      "VehicleServicePanel",
      "VehicleStatusLens",
      "VehicleHeadlampL",
      "VehicleFrontGrilleUpper",
      "VehicleAxle00",
      "VehicleCableBundle00",
      "VehicleGlassShard00",
      "ProductionAssetMarker"
    ]
  }
}
