{
  "asset": {
    "version": "2.0",
    "generator": "Project Ironwright original Ashmantle asset builder"
  },
  "scene": 0,
  "scenes": [
    {
      "name": "Ashmantle",
      "nodes": [
        0
      ]
    }
  ],
  "nodes": [
    {
      "name": "AshmantleModel",
      "children": [
        1,
        27,
        28,
        29,
        30,
        31,
        32,
        33,
        34,
        35,
        36,
        37,
        38,
        39,
        40,
        41,
        42
      ],
      "extras": {
        "ironwright_asset_id": "ashmantle.route_predator.v1",
        "asset_quality": "authored_high_definition",
        "socket_contract": "heat_mantle, louver_fins, route_siphon, sensory_tendrils"
      }
    },
    {
      "name": "Torso",
      "translation": [
        0.0,
        0.0,
        0.0
      ],
      "extras": {
        "surface": "layered_wet_chitin"
      },
      "children": [
        2,
        3,
        4,
        5,
        6,
        7,
        8,
        9,
        10,
        11,
        12,
        13,
        14,
        15,
        16,
        17,
        18,
        19,
        20,
        21,
        22,
        23,
        24,
        25,
        26
      ]
    },
    {
      "name": "TorsoCore",
      "translation": [
        0.0,
        0.92,
        0.08
      ],
      "mesh": 0,
      "scale": [
        1.48,
        0.82,
        1.42
      ],
      "extras": {
        "release_material_family": "chitin"
      }
    },
    {
      "name": "TorsoSegment0",
      "translation": [
        0.0,
        0.89,
        -0.62
      ],
      "mesh": 1,
      "scale": [
        1.3,
        0.72,
        1.22
      ]
    },
    {
      "name": "AshmantleThoraxRib",
      "translation": [
        0.0,
        1.37,
        -0.62
      ],
      "mesh": 3,
      "rotation": [
        0.0,
        0.0,
        -0.01499943750632809,
        0.9998875021093592
      ],
      "scale": [
        1.0,
        1.0,
        0.74
      ]
    },
    {
      "name": "ThoraxFastener",
      "translation": [
        -0.56,
        1.18,
        -0.62
      ],
      "mesh": 10
    },
    {
      "name": "ThoraxFastener",
      "translation": [
        0.56,
        1.18,
        -0.62
      ],
      "mesh": 10
    },
    {
      "name": "AshmantleTorsoSurfaceVein0L",
      "translation": [
        -0.31,
        1.19,
        -1.1600000000000001
      ],
      "mesh": 12,
      "rotation": [
        0.0,
        0.0,
        -0.03998933418663416,
        0.9992001066609779
      ],
      "scale": [
        1.0,
        1.0,
        0.72
      ],
      "extras": {
        "surface": "vascular_surface_detail"
      }
    },
    {
      "name": "AshmantleTorsoSurfaceVein0R",
      "translation": [
        0.31,
        1.19,
        -1.1600000000000001
      ],
      "mesh": 12,
      "rotation": [
        0.0,
        0.0,
        0.03998933418663416,
        0.9992001066609779
      ],
      "scale": [
        1.0,
        1.0,
        0.72
      ],
      "extras": {
        "surface": "vascular_surface_detail"
      }
    },
    {
      "name": "TorsoSegment1",
      "translation": [
        0.0,
        0.872,
        -0.19
      ],
      "mesh": 1,
      "scale": [
        1.27,
        0.72,
        1.196
      ]
    },
    {
      "name": "AshmantleThoraxRib",
      "translation": [
        0.0,
        1.3350000000000002,
        -0.19
      ],
      "mesh": 3,
      "scale": [
        1.0,
        1.0,
        0.74
      ],
      "extras": {
        "surface": "layered_shell_break"
      }
    },
    {
      "name": "ThoraxFastener",
      "translation": [
        -0.56,
        1.18,
        -0.19
      ],
      "mesh": 10
    },
    {
      "name": "ThoraxFastener",
      "translation": [
        0.56,
        1.18,
        -0.19
      ],
      "mesh": 10
    },
    {
      "name": "AshmantleTorsoSurfaceVein1L",
      "translation": [
        -0.31,
        1.19,
        -0.73
      ],
      "mesh": 12,
      "rotation": [
        0.0,
        0.0,
        -0.03998933418663416,
        0.9992001066609779
      ],
      "scale": [
        1.0,
        1.0,
        0.72
      ],
      "extras": {
        "surface": "vascular_surface_detail"
      }
    },
    {
      "name": "AshmantleTorsoSurfaceVein1R",
      "translation": [
        0.31,
        1.19,
        -0.73
      ],
      "mesh": 12,
      "rotation": [
        0.0,
        0.0,
        0.03998933418663416,
        0.9992001066609779
      ],
      "scale": [
        1.0,
        1.0,
        0.72
      ],
      "extras": {
        "surface": "vascular_surface_detail"
      }
    },
    {
      "name": "TorsoSegment2",
      "translation": [
        0.0,
        0.854,
        0.24
      ],
      "mesh": 1,
      "scale": [
        1.24,
        0.72,
        1.172
      ]
    },
    {
      "name": "AshmantleThoraxRib",
      "translation": [
        0.0,
        1.3,
        0.24
      ],
      "mesh": 3,
      "rotation": [
        0.0,
        0.0,
        0.01499943750632809,
        0.9998875021093592
      ],
      "scale": [
        1.0,
        1.0,
        0.74
      ]
    },
    {
      "name": "ThoraxFastener",
      "translation": [
        -0.56,
        1.18,
        0.24
      ],
      "mesh": 10
    },
    {
      "name": "ThoraxFastener",
      "translation": [
        0.56,
        1.18,
        0.24
      ],
      "mesh": 10
    },
    {
      "name": "AshmantleTorsoSurfaceVein2L",
      "translation": [
        -0.31,
        1.19,
        -0.30000000000000004
      ],
      "mesh": 12,
      "rotation": [
        0.0,
        0.0,
        -0.03998933418663416,
        0.9992001066609779
      ],
      "scale": [
        1.0,
        1.0,
        0.72
      ],
      "extras": {
        "surface": "vascular_surface_detail"
      }
    },
    {
      "name": "AshmantleTorsoSurfaceVein2R",
      "translation": [
        0.31,
        1.19,
        -0.30000000000000004
      ],
      "mesh": 12,
      "rotation": [
        0.0,
        0.0,
        0.03998933418663416,
        0.9992001066609779
      ],
      "scale": [
        1.0,
        1.0,
        0.72
      ],
      "extras": {
        "surface": "vascular_surface_detail"
      }
    },
    {
      "name": "TorsoSegment3",
      "translation": [
        0.0,
        0.8360000000000001,
        0.67
      ],
      "mesh": 1,
      "scale": [
        1.21,
        0.72,
        1.148
      ]
    },
    {
      "name": "AshmantleThoraxRib",
      "translation": [
        0.0,
        1.2650000000000001,
        0.67
      ],
      "mesh": 3,
      "rotation": [
        0.0,
        0.0,
        0.02999550020249566,
        0.9995500337489875
      ],
      "scale": [
        1.0,
        1.0,
        0.74
      ]
    },
    {
      "name": "ThoraxFastener",
      "translation": [
        -0.56,
        1.18,
        0.67
      ],
      "mesh": 10
    },
    {
      "name": "ThoraxFastener",
      "translation": [
        0.56,
        1.18,
        0.67
      ],
      "mesh": 10
    },
    {
      "name": "AshmantleTorsoSurfaceVein3L",
      "translation": [
        -0.31,
        1.19,
        0.13
      ],
      "mesh": 12,
      "rotation": [
        0.0,
        0.0,
        -0.03998933418663416,
        0.9992001066609779
      ],
      "scale": [
        1.0,
        1.0,
        0.72
      ],
      "extras": {
        "surface": "vascular_surface_detail"
      }
    },
    {
      "name": "AshmantleTorsoSurfaceVein3R",
      "translation": [
        0.31,
        1.19,
        0.13
      ],
      "mesh": 12,
      "rotation": [
        0.0,
        0.0,
        0.03998933418663416,
        0.9992001066609779
      ],
      "scale": [
        1.0,
        1.0,
        0.72
      ],
      "extras": {
        "surface": "vascular_surface_detail"
      }
    },
    {
      "name": "OrganicDorsalPlate",
      "translation": [
        -0.12,
        1.54,
        0.18
      ],
      "mesh": 3,
      "rotation": [
        0.0,
        0.0,
        -0.01999866669333308,
        0.9998000066665778
      ],
      "scale": [
        1.08,
        1.0,
        1.4
      ],
      "extras": {
        "surface": "beveled_layered_shell_break"
      }
    },
    {
      "name": "AshmantleMantle",
      "translation": [
        0.0,
        1.28,
        0.18
      ],
      "mesh": 9,
      "scale": [
        1.5,
        0.92,
        1.34
      ],
      "extras": {
        "socket_type": "heat_mantle"
      }
    },
    {
      "name": "AshmantleSiphon",
      "translation": [
        0.0,
        0.82,
        -1.42
      ],
      "mesh": 9,
      "scale": [
        0.72,
        0.64,
        1.14
      ],
      "extras": {
        "socket_type": "route_siphon"
      }
    },
    {
      "name": "AshmantleHeatLouverL",
      "translation": [
        -0.82,
        1.2,
        0.28
      ],
      "mesh": 2,
      "rotation": [
        -0.008367564230688877,
        -0.13929201238211697,
        -0.05937731841294426,
        0.9884341420719305
      ],
      "scale": [
        0.72,
        1.0,
        1.12
      ],
      "extras": {
        "surface": "heat_louver"
      }
    },
    {
      "name": "AshmantleLouverRibL",
      "translation": [
        -1.04,
        1.24,
        0.3
      ],
      "mesh": 17,
      "rotation": [
        -0.01857255081221661,
        -0.1681598275217792,
        -0.10819582104233458,
        0.9796279891229875
      ],
      "scale": [
        0.7,
        1.0,
        0.86
      ],
      "extras": {
        "surface": "louver_rib"
      }
    },
    {
      "name": "AshmantleTendrilL",
      "translation": [
        -0.28,
        1.18,
        -1.58
      ],
      "mesh": 7,
      "rotation": [
        0.2461679699645253,
        -0.024699182544331684,
        -0.09672983749092606,
        0.9640718953917106
      ],
      "extras": {
        "socket_type": "sensory_tendril"
      }
    },
    {
      "name": "AshmantleEyeL",
      "translation": [
        -0.22,
        1.34,
        -1.62
      ],
      "mesh": 8,
      "extras": {
        "socket_type": "threat_eye"
      }
    },
    {
      "name": "AshmantleHeatLouverR",
      "translation": [
        0.82,
        1.2,
        0.28
      ],
      "mesh": 2,
      "rotation": [
        -0.008367564230688877,
        0.13929201238211697,
        0.05937731841294426,
        0.9884341420719305
      ],
      "scale": [
        0.72,
        1.0,
        1.12
      ],
      "extras": {
        "surface": "heat_louver"
      }
    },
    {
      "name": "AshmantleLouverRibR",
      "translation": [
        1.04,
        1.24,
        0.3
      ],
      "mesh": 17,
      "rotation": [
        -0.01857255081221661,
        0.1681598275217792,
        0.10819582104233458,
        0.9796279891229875
      ],
      "scale": [
        0.7,
        1.0,
        0.86
      ],
      "extras": {
        "surface": "louver_rib"
      }
    },
    {
      "name": "AshmantleTendrilR",
      "translation": [
        0.28,
        1.18,
        -1.58
      ],
      "mesh": 7,
      "rotation": [
        0.2461679699645253,
        0.024699182544331684,
        0.09672983749092606,
        0.9640718953917106
      ],
      "extras": {
        "socket_type": "sensory_tendril"
      }
    },
    {
      "name": "AshmantleEyeR",
      "translation": [
        0.22,
        1.34,
        -1.62
      ],
      "mesh": 8,
      "extras": {
        "socket_type": "threat_eye"
      }
    },
    {
      "name": "AshmantleMantleRib0",
      "translation": [
        -0.54,
        1.66,
        0.18
      ],
      "mesh": 13,
      "rotation": [
        0.0,
        -0.059964006479444595,
        0.0,
        0.9982005399352042
      ],
      "scale": [
        0.72,
        1.0,
        0.64
      ],
      "extras": {
        "surface": "mantle_rib"
      }
    },
    {
      "name": "AshmantleMantleRib1",
      "translation": [
        -0.18000000000000005,
        1.66,
        0.18
      ],
      "mesh": 13,
      "rotation": [
        0.0,
        -0.01999866669333308,
        0.0,
        0.9998000066665778
      ],
      "scale": [
        0.72,
        1.0,
        0.64
      ],
      "extras": {
        "surface": "mantle_rib"
      }
    },
    {
      "name": "AshmantleMantleRib2",
      "translation": [
        0.17999999999999994,
        1.66,
        0.18
      ],
      "mesh": 13,
      "rotation": [
        0.0,
        0.01999866669333308,
        0.0,
        0.9998000066665778
      ],
      "scale": [
        0.72,
        1.0,
        0.64
      ],
      "extras": {
        "surface": "mantle_rib"
      }
    },
    {
      "name": "AshmantleMantleRib3",
      "translation": [
        0.54,
        1.66,
        0.18
      ],
      "mesh": 13,
      "rotation": [
        0.0,
        0.059964006479444595,
        0.0,
        0.9982005399352042
      ],
      "scale": [
        0.72,
        1.0,
        0.64
      ],
      "extras": {
        "surface": "mantle_rib"
      }
    },
    {
      "name": "ProductionAssetMarker",
      "translation": [
        0.0,
        0.0,
        0.0
      ],
      "extras": {
        "asset_contract": "ashmantle.route_predator.v1",
        "source": "original_shared_mesh_builder"
      }
    }
  ],
  "meshes": [
    {
      "name": "Core",
      "primitives": [
        {
          "attributes": {
            "POSITION": 0,
            "NORMAL": 1
          },
          "indices": 2,
          "material": 0
        }
      ]
    },
    {
      "name": "Segment",
      "primitives": [
        {
          "attributes": {
            "POSITION": 3,
            "NORMAL": 4
          },
          "indices": 5,
          "material": 1
        }
      ]
    },
    {
      "name": "Plate",
      "primitives": [
        {
          "attributes": {
            "POSITION": 6,
            "NORMAL": 7
          },
          "indices": 8,
          "material": 1
        }
      ]
    },
    {
      "name": "ShellPlate",
      "primitives": [
        {
          "attributes": {
            "POSITION": 9,
            "NORMAL": 10
          },
          "indices": 11,
          "material": 1
        }
      ]
    },
    {
      "name": "Membrane",
      "primitives": [
        {
          "attributes": {
            "POSITION": 12,
            "NORMAL": 13
          },
          "indices": 14,
          "material": 2
        }
      ]
    },
    {
      "name": "Bone",
      "primitives": [
        {
          "attributes": {
            "POSITION": 15,
            "NORMAL": 16
          },
          "indices": 17,
          "material": 3
        }
      ]
    },
    {
      "name": "LongBone",
      "primitives": [
        {
          "attributes": {
            "POSITION": 18,
            "NORMAL": 19
          },
          "indices": 20,
          "material": 3
        }
      ]
    },
    {
      "name": "Tendon",
      "primitives": [
        {
          "attributes": {
            "POSITION": 21,
            "NORMAL": 22
          },
          "indices": 23,
          "material": 5
        }
      ]
    },
    {
      "name": "Eye",
      "primitives": [
        {
          "attributes": {
            "POSITION": 24,
            "NORMAL": 25
          },
          "indices": 26,
          "material": 4
        }
      ]
    },
    {
      "name": "Soft",
      "primitives": [
        {
          "attributes": {
            "POSITION": 27,
            "NORMAL": 28
          },
          "indices": 29,
          "material": 2
        }
      ]
    },
    {
      "name": "Fastener",
      "primitives": [
        {
          "attributes": {
            "POSITION": 30,
            "NORMAL": 31
          },
          "indices": 32,
          "material": 3
        }
      ]
    },
    {
      "name": "FineVein",
      "primitives": [
        {
          "attributes": {
            "POSITION": 33,
            "NORMAL": 34
          },
          "indices": 35,
          "material": 3
        }
      ]
    },
    {
      "name": "SurfaceVein",
      "primitives": [
        {
          "attributes": {
            "POSITION": 36,
            "NORMAL": 37
          },
          "indices": 38,
          "material": 5
        }
      ]
    },
    {
      "name": "Ridge",
      "primitives": [
        {
          "attributes": {
            "POSITION": 39,
            "NORMAL": 40
          },
          "indices": 41,
          "material": 3
        }
      ]
    },
    {
      "name": "ResonatorRing",
      "primitives": [
        {
          "attributes": {
            "POSITION": 42,
            "NORMAL": 43
          },
          "indices": 44,
          "material": 3
        }
      ]
    },
    {
      "name": "RootKnuckle",
      "primitives": [
        {
          "attributes": {
            "POSITION": 45,
            "NORMAL": 46
          },
          "indices": 47,
          "material": 3
        }
      ]
    },
    {
      "name": "WingFrame",
      "primitives": [
        {
          "attributes": {
            "POSITION": 48,
            "NORMAL": 49
          },
          "indices": 50,
          "material": 3
        }
      ]
    },
    {
      "name": "MembraneRib",
      "primitives": [
        {
          "attributes": {
            "POSITION": 51,
            "NORMAL": 52
          },
          "indices": 53,
          "material": 3
        }
      ]
    },
    {
      "name": "GillSpine",
      "primitives": [
        {
          "attributes": {
            "POSITION": 54,
            "NORMAL": 55
          },
          "indices": 56,
          "material": 3
        }
      ]
    },
    {
      "name": "BellRib",
      "primitives": [
        {
          "attributes": {
            "POSITION": 57,
            "NORMAL": 58
          },
          "indices": 59,
          "material": 3
        }
      ]
    },
    {
      "name": "RootSpine",
      "primitives": [
        {
          "attributes": {
            "POSITION": 60,
            "NORMAL": 61
          },
          "indices": 62,
          "material": 3
        }
      ]
    },
    {
      "name": "PlateCap",
      "primitives": [
        {
          "attributes": {
            "POSITION": 63,
            "NORMAL": 64
          },
          "indices": 65,
          "material": 3
        }
      ]
    },
    {
      "name": "CrownFastener",
      "primitives": [
        {
          "attributes": {
            "POSITION": 66,
            "NORMAL": 67
          },
          "indices": 68,
          "material": 3
        }
      ]
    }
  ],
  "materials": [
    {
      "name": "Ashmantle wet shell",
      "pbrMetallicRoughness": {
        "baseColorFactor": [
          0.035,
          0.045,
          0.055,
          1.0
        ],
        "metallicFactor": 0.18,
        "roughnessFactor": 0.32
      }
    },
    {
      "name": "Ashmantle layered plate",
      "pbrMetallicRoughness": {
        "baseColorFactor": [
          0.16,
          0.2,
          0.24,
          1.0
        ],
        "metallicFactor": 0.14,
        "roughnessFactor": 0.42
      }
    },
    {
      "name": "Ashmantle membrane",
      "pbrMetallicRoughness": {
        "baseColorFactor": [
          0.124,
          0.16740000000000002,
          0.1984,
          1.0
        ],
        "metallicFactor": 0.02,
        "roughnessFactor": 0.58
      }
    },
    {
      "name": "Ashmantle bone",
      "pbrMetallicRoughness": {
        "baseColorFactor": [
          0.52,
          0.48,
          0.38,
          1.0
        ],
        "metallicFactor": 0.0,
        "roughnessFactor": 0.62
      }
    },
    {
      "name": "Ashmantle threat light",
      "pbrMetallicRoughness": {
        "baseColorFactor": [
          0.94,
          0.23,
          0.08,
          1.0
        ],
        "metallicFactor": 0.0,
        "roughnessFactor": 0.22
      },
      "emissiveFactor": [
        1.0,
        0.18,
        0.04
      ]
    },
    {
      "name": "Ashmantle tendon",
      "pbrMetallicRoughness": {
        "baseColorFactor": [
          0.18,
          0.1,
          0.08,
          1.0
        ],
        "metallicFactor": 0.0,
        "roughnessFactor": 0.55
      }
    }
  ],
  "accessors": [
    {
      "bufferView": 0,
      "componentType": 5126,
      "count": 900,
      "type": "VEC3",
      "min": [
        -0.62,
        -0.62,
        -0.62
      ],
      "max": [
        0.62,
        0.62,
        0.62
      ]
    },
    {
      "bufferView": 1,
      "componentType": 5126,
      "count": 900,
      "type": "VEC3"
    },
    {
      "bufferView": 2,
      "componentType": 5123,
      "count": 5184,
      "type": "SCALAR",
      "normalized": false
    },
    {
      "bufferView": 3,
      "componentType": 5126,
      "count": 900,
      "type": "VEC3",
      "min": [
        -0.48,
        -0.48,
        -0.48
      ],
      "max": [
        0.48,
        0.48,
        0.48
      ]
    },
    {
      "bufferView": 4,
      "componentType": 5126,
      "count": 900,
      "type": "VEC3"
    },
    {
      "bufferView": 5,
      "componentType": 5123,
      "count": 5184,
      "type": "SCALAR",
      "normalized": false
    },
    {
      "bufferView": 6,
      "componentType": 5126,
      "count": 290,
      "type": "VEC3",
      "min": [
        -0.76,
        -0.08,
        -0.14
      ],
      "max": [
        0.76,
        0.08,
        0.14
      ]
    },
    {
      "bufferView": 7,
      "componentType": 5126,
      "count": 290,
      "type": "VEC3"
    },
    {
      "bufferView": 8,
      "componentType": 5123,
      "count": 1440,
      "type": "SCALAR",
      "normalized": false
    },
    {
      "bufferView": 9,
      "componentType": 5126,
      "count": 514,
      "type": "VEC3",
      "min": [
        -0.76,
        -0.12,
        -0.27
      ],
      "max": [
        0.76,
        0.12,
        0.27
      ]
    },
    {
      "bufferView": 10,
      "componentType": 5126,
      "count": 514,
      "type": "VEC3"
    },
    {
      "bufferView": 11,
      "componentType": 5123,
      "count": 2688,
      "type": "SCALAR",
      "normalized": false
    },
    {
      "bufferView": 12,
      "componentType": 5126,
      "count": 394,
      "type": "VEC3",
      "min": [
        -0.63,
        -0.0225,
        -0.54
      ],
      "max": [
        0.63,
        0.0225,
        0.54
      ]
    },
    {
      "bufferView": 13,
      "componentType": 5126,
      "count": 394,
      "type": "VEC3"
    },
    {
      "bufferView": 14,
      "componentType": 5123,
      "count": 2016,
      "type": "SCALAR",
      "normalized": false
    },
    {
      "bufferView": 15,
      "componentType": 5126,
      "count": 50,
      "type": "VEC3",
      "min": [
        -0.09,
        -0.43,
        -0.09
      ],
      "max": [
        0.09,
        0.43,
        0.09
      ]
    },
    {
      "bufferView": 16,
      "componentType": 5126,
      "count": 50,
      "type": "VEC3"
    },
    {
      "bufferView": 17,
      "componentType": 5123,
      "count": 288,
      "type": "SCALAR",
      "normalized": false
    },
    {
      "bufferView": 18,
      "componentType": 5126,
      "count": 50,
      "type": "VEC3",
      "min": [
        -0.065,
        -0.675,
        -0.065
      ],
      "max": [
        0.065,
        0.675,
        0.065
      ]
    },
    {
      "bufferView": 19,
      "componentType": 5126,
      "count": 50,
      "type": "VEC3"
    },
    {
      "bufferView": 20,
      "componentType": 5123,
      "count": 288,
      "type": "SCALAR",
      "normalized": false
    },
    {
      "bufferView": 21,
      "componentType": 5126,
      "count": 50,
      "type": "VEC3",
      "min": [
        -0.07,
        -0.575,
        -0.07
      ],
      "max": [
        0.07,
        0.575,
        0.07
      ]
    },
    {
      "bufferView": 22,
      "componentType": 5126,
      "count": 50,
      "type": "VEC3"
    },
    {
      "bufferView": 23,
      "componentType": 5123,
      "count": 288,
      "type": "SCALAR",
      "normalized": false
    },
    {
      "bufferView": 24,
      "componentType": 5126,
      "count": 900,
      "type": "VEC3",
      "min": [
        -0.095,
        -0.095,
        -0.095
      ],
      "max": [
        0.095,
        0.095,
        0.095
      ]
    },
    {
      "bufferView": 25,
      "componentType": 5126,
      "count": 900,
      "type": "VEC3"
    },
    {
      "bufferView": 26,
      "componentType": 5123,
      "count": 5184,
      "type": "SCALAR",
      "normalized": false
    },
    {
      "bufferView": 27,
      "componentType": 5126,
      "count": 900,
      "type": "VEC3",
      "min": [
        -0.34,
        -0.34,
        -0.34
      ],
      "max": [
        0.34,
        0.34,
        0.34
      ]
    },
    {
      "bufferView": 28,
      "componentType": 5126,
      "count": 900,
      "type": "VEC3"
    },
    {
      "bufferView": 29,
      "componentType": 5123,
      "count": 5184,
      "type": "SCALAR",
      "normalized": false
    },
    {
      "bufferView": 30,
      "componentType": 5126,
      "count": 900,
      "type": "VEC3",
      "min": [
        -0.045,
        -0.045,
        -0.045
      ],
      "max": [
        0.045,
        0.045,
        0.045
      ]
    },
    {
      "bufferView": 31,
      "componentType": 5126,
      "count": 900,
      "type": "VEC3"
    },
    {
      "bufferView": 32,
      "componentType": 5123,
      "count": 5184,
      "type": "SCALAR",
      "normalized": false
    },
    {
      "bufferView": 33,
      "componentType": 5126,
      "count": 50,
      "type": "VEC3",
      "min": [
        -0.026,
        -0.61,
        -0.026
      ],
      "max": [
        0.026,
        0.61,
        0.026
      ]
    },
    {
      "bufferView": 34,
      "componentType": 5126,
      "count": 50,
      "type": "VEC3"
    },
    {
      "bufferView": 35,
      "componentType": 5123,
      "count": 288,
      "type": "SCALAR",
      "normalized": false
    },
    {
      "bufferView": 36,
      "componentType": 5126,
      "count": 50,
      "type": "VEC3",
      "min": [
        -0.024,
        -0.44,
        -0.024
      ],
      "max": [
        0.024,
        0.44,
        0.024
      ]
    },
    {
      "bufferView": 37,
      "componentType": 5126,
      "count": 50,
      "type": "VEC3"
    },
    {
      "bufferView": 38,
      "componentType": 5123,
      "count": 288,
      "type": "SCALAR",
      "normalized": false
    },
    {
      "bufferView": 39,
      "componentType": 5126,
      "count": 96,
      "type": "VEC3",
      "min": [
        -0.62,
        -0.035,
        -0.05
      ],
      "max": [
        0.62,
        0.035,
        0.05
      ]
    },
    {
      "bufferView": 40,
      "componentType": 5126,
      "count": 96,
      "type": "VEC3"
    },
    {
      "bufferView": 41,
      "componentType": 5123,
      "count": 132,
      "type": "SCALAR",
      "normalized": false
    },
    {
      "bufferView": 42,
      "componentType": 5126,
      "count": 360,
      "type": "VEC3",
      "min": [
        -0.225,
        -0.03328697807033038,
        -0.225
      ],
      "max": [
        0.225,
        0.03328697807033038,
        0.225
      ]
    },
    {
      "bufferView": 43,
      "componentType": 5126,
      "count": 360,
      "type": "VEC3"
    },
    {
      "bufferView": 44,
      "componentType": 5123,
      "count": 2160,
      "type": "SCALAR",
      "normalized": false
    },
    {
      "bufferView": 45,
      "componentType": 5126,
      "count": 900,
      "type": "VEC3",
      "min": [
        -0.14,
        -0.14,
        -0.14
      ],
      "max": [
        0.14,
        0.14,
        0.14
      ]
    },
    {
      "bufferView": 46,
      "componentType": 5126,
      "count": 900,
      "type": "VEC3"
    },
    {
      "bufferView": 47,
      "componentType": 5123,
      "count": 5184,
      "type": "SCALAR",
      "normalized": false
    },
    {
      "bufferView": 48,
      "componentType": 5126,
      "count": 50,
      "type": "VEC3",
      "min": [
        -0.045,
        -0.79,
        -0.045
      ],
      "max": [
        0.045,
        0.79,
        0.045
      ]
    },
    {
      "bufferView": 49,
      "componentType": 5126,
      "count": 50,
      "type": "VEC3"
    },
    {
      "bufferView": 50,
      "componentType": 5123,
      "count": 288,
      "type": "SCALAR",
      "normalized": false
    },
    {
      "bufferView": 51,
      "componentType": 5126,
      "count": 50,
      "type": "VEC3",
      "min": [
        -0.03,
        -0.41,
        -0.03
      ],
      "max": [
        0.03,
        0.41,
        0.03
      ]
    },
    {
      "bufferView": 52,
      "componentType": 5126,
      "count": 50,
      "type": "VEC3"
    },
    {
      "bufferView": 53,
      "componentType": 5123,
      "count": 288,
      "type": "SCALAR",
      "normalized": false
    },
    {
      "bufferView": 54,
      "componentType": 5126,
      "count": 50,
      "type": "VEC3",
      "min": [
        -0.045,
        -0.39,
        -0.045
      ],
      "max": [
        0.045,
        0.39,
        0.045
      ]
    },
    {
      "bufferView": 55,
      "componentType": 5126,
      "count": 50,
      "type": "VEC3"
    },
    {
      "bufferView": 56,
      "componentType": 5123,
      "count": 288,
      "type": "SCALAR",
      "normalized": false
    },
    {
      "bufferView": 57,
      "componentType": 5126,
      "count": 50,
      "type": "VEC3",
      "min": [
        -0.04,
        -0.46,
        -0.04
      ],
      "max": [
        0.04,
        0.46,
        0.04
      ]
    },
    {
      "bufferView": 58,
      "componentType": 5126,
      "count": 50,
      "type": "VEC3"
    },
    {
      "bufferView": 59,
      "componentType": 5123,
      "count": 288,
      "type": "SCALAR",
      "normalized": false
    },
    {
      "bufferView": 60,
      "componentType": 5126,
      "count": 50,
      "type": "VEC3",
      "min": [
        -0.055,
        -0.71,
        -0.055
      ],
      "max": [
        0.055,
        0.71,
        0.055
      ]
    },
    {
      "bufferView": 61,
      "componentType": 5126,
      "count": 50,
      "type": "VEC3"
    },
    {
      "bufferView": 62,
      "componentType": 5123,
      "count": 288,
      "type": "SCALAR",
      "normalized": false
    },
    {
      "bufferView": 63,
      "componentType": 5126,
      "count": 242,
      "type": "VEC3",
      "min": [
        -0.22,
        -0.05,
        -0.09
      ],
      "max": [
        0.22,
        0.05,
        0.09
      ]
    },
    {
      "bufferView": 64,
      "componentType": 5126,
      "count": 242,
      "type": "VEC3"
    },
    {
      "bufferView": 65,
      "componentType": 5123,
      "count": 1152,
      "type": "SCALAR",
      "normalized": false
    },
    {
      "bufferView": 66,
      "componentType": 5126,
      "count": 900,
      "type": "VEC3",
      "min": [
        -0.06,
        -0.06,
        -0.06
      ],
      "max": [
        0.06,
        0.06,
        0.06
      ]
    },
    {
      "bufferView": 67,
      "componentType": 5126,
      "count": 900,
      "type": "VEC3"
    },
    {
      "bufferView": 68,
      "componentType": 5123,
      "count": 5184,
      "type": "SCALAR",
      "normalized": false
    },
    {
      "bufferView": 69,
      "componentType": 5126,
      "count": 3,
      "type": "SCALAR",
      "min": [
        0.0
      ],
      "max": [
        1.6
      ]
    },
    {
      "bufferView": 70,
      "componentType": 5126,
      "count": 3,
      "type": "VEC3"
    },
    {
      "bufferView": 71,
      "componentType": 5126,
      "count": 3,
      "type": "SCALAR",
      "min": [
        0.0
      ],
      "max": [
        1.6
      ]
    },
    {
      "bufferView": 72,
      "componentType": 5126,
      "count": 3,
      "type": "VEC4"
    },
    {
      "bufferView": 73,
      "componentType": 5126,
      "count": 3,
      "type": "SCALAR",
      "min": [
        0.0
      ],
      "max": [
        1.6
      ]
    },
    {
      "bufferView": 74,
      "componentType": 5126,
      "count": 3,
      "type": "VEC4"
    },
    {
      "bufferView": 75,
      "componentType": 5126,
      "count": 3,
      "type": "SCALAR",
      "min": [
        0.0
      ],
      "max": [
        1.6
      ]
    },
    {
      "bufferView": 76,
      "componentType": 5126,
      "count": 3,
      "type": "VEC4"
    },
    {
      "bufferView": 77,
      "componentType": 5126,
      "count": 3,
      "type": "SCALAR",
      "min": [
        0.0
      ],
      "max": [
        1.6
      ]
    },
    {
      "bufferView": 78,
      "componentType": 5126,
      "count": 3,
      "type": "VEC4"
    },
    {
      "bufferView": 79,
      "componentType": 5126,
      "count": 3,
      "type": "SCALAR",
      "min": [
        0.0
      ],
      "max": [
        1.6
      ]
    },
    {
      "bufferView": 80,
      "componentType": 5126,
      "count": 3,
      "type": "VEC4"
    },
    {
      "bufferView": 81,
      "componentType": 5126,
      "count": 3,
      "type": "SCALAR",
      "min": [
        0.0
      ],
      "max": [
        0.44
      ]
    },
    {
      "bufferView": 82,
      "componentType": 5126,
      "count": 3,
      "type": "VEC4"
    },
    {
      "bufferView": 83,
      "componentType": 5126,
      "count": 3,
      "type": "SCALAR",
      "min": [
        0.0
      ],
      "max": [
        0.44
      ]
    },
    {
      "bufferView": 84,
      "componentType": 5126,
      "count": 3,
      "type": "VEC4"
    },
    {
      "bufferView": 85,
      "componentType": 5126,
      "count": 3,
      "type": "SCALAR",
      "min": [
        0.0
      ],
      "max": [
        0.44
      ]
    },
    {
      "bufferView": 86,
      "componentType": 5126,
      "count": 3,
      "type": "VEC4"
    },
    {
      "bufferView": 87,
      "componentType": 5126,
      "count": 3,
      "type": "SCALAR",
      "min": [
        0.0
      ],
      "max": [
        0.44
      ]
    },
    {
      "bufferView": 88,
      "componentType": 5126,
      "count": 3,
      "type": "VEC4"
    },
    {
      "bufferView": 89,
      "componentType": 5126,
      "count": 3,
      "type": "SCALAR",
      "min": [
        0.0
      ],
      "max": [
        0.44
      ]
    },
    {
      "bufferView": 90,
      "componentType": 5126,
      "count": 3,
      "type": "VEC4"
    },
    {
      "bufferView": 91,
      "componentType": 5126,
      "count": 3,
      "type": "SCALAR",
      "min": [
        0.0
      ],
      "max": [
        0.44
      ]
    },
    {
      "bufferView": 92,
      "componentType": 5126,
      "count": 3,
      "type": "VEC4"
    },
    {
      "bufferView": 93,
      "componentType": 5126,
      "count": 3,
      "type": "SCALAR",
      "min": [
        0.0
      ],
      "max": [
        0.48
      ]
    },
    {
      "bufferView": 94,
      "componentType": 5126,
      "count": 3,
      "type": "VEC3"
    },
    {
      "bufferView": 95,
      "componentType": 5126,
      "count": 3,
      "type": "SCALAR",
      "min": [
        0.0
      ],
      "max": [
        0.48
      ]
    },
    {
      "bufferView": 96,
      "componentType": 5126,
      "count": 3,
      "type": "VEC4"
    },
    {
      "bufferView": 97,
      "componentType": 5126,
      "count": 3,
      "type": "SCALAR",
      "min": [
        0.0
      ],
      "max": [
        0.48
      ]
    },
    {
      "bufferView": 98,
      "componentType": 5126,
      "count": 3,
      "type": "VEC4"
    },
    {
      "bufferView": 99,
      "componentType": 5126,
      "count": 3,
      "type": "SCALAR",
      "min": [
        0.0
      ],
      "max": [
        0.48
      ]
    },
    {
      "bufferView": 100,
      "componentType": 5126,
      "count": 3,
      "type": "VEC4"
    },
    {
      "bufferView": 101,
      "componentType": 5126,
      "count": 3,
      "type": "SCALAR",
      "min": [
        0.0
      ],
      "max": [
        0.48
      ]
    },
    {
      "bufferView": 102,
      "componentType": 5126,
      "count": 3,
      "type": "VEC4"
    },
    {
      "bufferView": 103,
      "componentType": 5126,
      "count": 3,
      "type": "SCALAR",
      "min": [
        0.0
      ],
      "max": [
        0.48
      ]
    },
    {
      "bufferView": 104,
      "componentType": 5126,
      "count": 3,
      "type": "VEC4"
    },
    {
      "bufferView": 105,
      "componentType": 5126,
      "count": 3,
      "type": "SCALAR",
      "min": [
        0.0
      ],
      "max": [
        0.48
      ]
    },
    {
      "bufferView": 106,
      "componentType": 5126,
      "count": 3,
      "type": "VEC4"
    },
    {
      "bufferView": 107,
      "componentType": 5126,
      "count": 3,
      "type": "SCALAR",
      "min": [
        0.0
      ],
      "max": [
        0.48
      ]
    },
    {
      "bufferView": 108,
      "componentType": 5126,
      "count": 3,
      "type": "VEC4"
    },
    {
      "bufferView": 109,
      "componentType": 5126,
      "count": 3,
      "type": "SCALAR",
      "min": [
        0.0
      ],
      "max": [
        0.48
      ]
    },
    {
      "bufferView": 110,
      "componentType": 5126,
      "count": 3,
      "type": "VEC4"
    },
    {
      "bufferView": 111,
      "componentType": 5126,
      "count": 3,
      "type": "SCALAR",
      "min": [
        0.0
      ],
      "max": [
        0.24
      ]
    },
    {
      "bufferView": 112,
      "componentType": 5126,
      "count": 3,
      "type": "VEC3"
    },
    {
      "bufferView": 113,
      "componentType": 5126,
      "count": 3,
      "type": "SCALAR",
      "min": [
        0.0
      ],
      "max": [
        0.24
      ]
    },
    {
      "bufferView": 114,
      "componentType": 5126,
      "count": 3,
      "type": "VEC4"
    },
    {
      "bufferView": 115,
      "componentType": 5126,
      "count": 3,
      "type": "SCALAR",
      "min": [
        0.0
      ],
      "max": [
        0.6
      ]
    },
    {
      "bufferView": 116,
      "componentType": 5126,
      "count": 3,
      "type": "VEC3"
    },
    {
      "bufferView": 117,
      "componentType": 5126,
      "count": 3,
      "type": "SCALAR",
      "min": [
        0.0
      ],
      "max": [
        0.6
      ]
    },
    {
      "bufferView": 118,
      "componentType": 5126,
      "count": 3,
      "type": "VEC4"
    },
    {
      "bufferView": 119,
      "componentType": 5126,
      "count": 3,
      "type": "SCALAR",
      "min": [
        0.0
      ],
      "max": [
        0.6
      ]
    },
    {
      "bufferView": 120,
      "componentType": 5126,
      "count": 3,
      "type": "VEC4"
    },
    {
      "bufferView": 121,
      "componentType": 5126,
      "count": 3,
      "type": "SCALAR",
      "min": [
        0.0
      ],
      "max": [
        0.6
      ]
    },
    {
      "bufferView": 122,
      "componentType": 5126,
      "count": 3,
      "type": "VEC4"
    },
    {
      "bufferView": 123,
      "componentType": 5126,
      "count": 3,
      "type": "SCALAR",
      "min": [
        0.0
      ],
      "max": [
        0.6
      ]
    },
    {
      "bufferView": 124,
      "componentType": 5126,
      "count": 3,
      "type": "VEC4"
    },
    {
      "bufferView": 125,
      "componentType": 5126,
      "count": 3,
      "type": "SCALAR",
      "min": [
        0.0
      ],
      "max": [
        0.6
      ]
    },
    {
      "bufferView": 126,
      "componentType": 5126,
      "count": 3,
      "type": "VEC4"
    },
    {
      "bufferView": 127,
      "componentType": 5126,
      "count": 3,
      "type": "SCALAR",
      "min": [
        0.0
      ],
      "max": [
        0.6
      ]
    },
    {
      "bufferView": 128,
      "componentType": 5126,
      "count": 3,
      "type": "VEC4"
    },
    {
      "bufferView": 129,
      "componentType": 5126,
      "count": 3,
      "type": "SCALAR",
      "min": [
        0.0
      ],
      "max": [
        1.0
      ]
    },
    {
      "bufferView": 130,
      "componentType": 5126,
      "count": 3,
      "type": "VEC3"
    },
    {
      "bufferView": 131,
      "componentType": 5126,
      "count": 3,
      "type": "SCALAR",
      "min": [
        0.0
      ],
      "max": [
        1.0
      ]
    },
    {
      "bufferView": 132,
      "componentType": 5126,
      "count": 3,
      "type": "VEC4"
    },
    {
      "bufferView": 133,
      "componentType": 5126,
      "count": 3,
      "type": "SCALAR",
      "min": [
        0.0
      ],
      "max": [
        0.44
      ]
    },
    {
      "bufferView": 134,
      "componentType": 5126,
      "count": 3,
      "type": "VEC4"
    },
    {
      "bufferView": 135,
      "componentType": 5126,
      "count": 3,
      "type": "SCALAR",
      "min": [
        0.0
      ],
      "max": [
        0.44
      ]
    },
    {
      "bufferView": 136,
      "componentType": 5126,
      "count": 3,
      "type": "VEC4"
    },
    {
      "bufferView": 137,
      "componentType": 5126,
      "count": 3,
      "type": "SCALAR",
      "min": [
        0.0
      ],
      "max": [
        0.44
      ]
    },
    {
      "bufferView": 138,
      "componentType": 5126,
      "count": 3,
      "type": "VEC4"
    },
    {
      "bufferView": 139,
      "componentType": 5126,
      "count": 3,
      "type": "SCALAR",
      "min": [
        0.0
      ],
      "max": [
        0.44
      ]
    },
    {
      "bufferView": 140,
      "componentType": 5126,
      "count": 3,
      "type": "VEC4"
    },
    {
      "bufferView": 141,
      "componentType": 5126,
      "count": 3,
      "type": "SCALAR",
      "min": [
        0.0
      ],
      "max": [
        0.44
      ]
    },
    {
      "bufferView": 142,
      "componentType": 5126,
      "count": 3,
      "type": "VEC4"
    },
    {
      "bufferView": 143,
      "componentType": 5126,
      "count": 3,
      "type": "SCALAR",
      "min": [
        0.0
      ],
      "max": [
        0.44
      ]
    },
    {
      "bufferView": 144,
      "componentType": 5126,
      "count": 3,
      "type": "VEC4"
    },
    {
      "bufferView": 145,
      "componentType": 5126,
      "count": 3,
      "type": "SCALAR",
      "min": [
        0.0
      ],
      "max": [
        0.64
      ]
    },
    {
      "bufferView": 146,
      "componentType": 5126,
      "count": 3,
      "type": "VEC4"
    },
    {
      "bufferView": 147,
      "componentType": 5126,
      "count": 3,
      "type": "SCALAR",
      "min": [
        0.0
      ],
      "max": [
        0.64
      ]
    },
    {
      "bufferView": 148,
      "componentType": 5126,
      "count": 3,
      "type": "VEC4"
    }
  ],
  "bufferViews": [
    {
      "buffer": 0,
      "byteOffset": 0,
      "byteLength": 10800,
      "target": 34962
    },
    {
      "buffer": 0,
      "byteOffset": 10800,
      "byteLength": 10800,
      "target": 34962
    },
    {
      "buffer": 0,
      "byteOffset": 21600,
      "byteLength": 10368,
      "target": 34963
    },
    {
      "buffer": 0,
      "byteOffset": 31968,
      "byteLength": 10800,
      "target": 34962
    },
    {
      "buffer": 0,
      "byteOffset": 42768,
      "byteLength": 10800,
      "target": 34962
    },
    {
      "buffer": 0,
      "byteOffset": 53568,
      "byteLength": 10368,
      "target": 34963
    },
    {
      "buffer": 0,
      "byteOffset": 63936,
      "byteLength": 3480,
      "target": 34962
    },
    {
      "buffer": 0,
      "byteOffset": 67416,
      "byteLength": 3480,
      "target": 34962
    },
    {
      "buffer": 0,
      "byteOffset": 70896,
      "byteLength": 2880,
      "target": 34963
    },
    {
      "buffer": 0,
      "byteOffset": 73776,
      "byteLength": 6168,
      "target": 34962
    },
    {
      "buffer": 0,
      "byteOffset": 79944,
      "byteLength": 6168,
      "target": 34962
    },
    {
      "buffer": 0,
      "byteOffset": 86112,
      "byteLength": 5376,
      "target": 34963
    },
    {
      "buffer": 0,
      "byteOffset": 91488,
      "byteLength": 4728,
      "target": 34962
    },
    {
      "buffer": 0,
      "byteOffset": 96216,
      "byteLength": 4728,
      "target": 34962
    },
    {
      "buffer": 0,
      "byteOffset": 100944,
      "byteLength": 4032,
      "target": 34963
    },
    {
      "buffer": 0,
      "byteOffset": 104976,
      "byteLength": 600,
      "target": 34962
    },
    {
      "buffer": 0,
      "byteOffset": 105576,
      "byteLength": 600,
      "target": 34962
    },
    {
      "buffer": 0,
      "byteOffset": 106176,
      "byteLength": 576,
      "target": 34963
    },
    {
      "buffer": 0,
      "byteOffset": 106752,
      "byteLength": 600,
      "target": 34962
    },
    {
      "buffer": 0,
      "byteOffset": 107352,
      "byteLength": 600,
      "target": 34962
    },
    {
      "buffer": 0,
      "byteOffset": 107952,
      "byteLength": 576,
      "target": 34963
    },
    {
      "buffer": 0,
      "byteOffset": 108528,
      "byteLength": 600,
      "target": 34962
    },
    {
      "buffer": 0,
      "byteOffset": 109128,
      "byteLength": 600,
      "target": 34962
    },
    {
      "buffer": 0,
      "byteOffset": 109728,
      "byteLength": 576,
      "target": 34963
    },
    {
      "buffer": 0,
      "byteOffset": 110304,
      "byteLength": 10800,
      "target": 34962
    },
    {
      "buffer": 0,
      "byteOffset": 121104,
      "byteLength": 10800,
      "target": 34962
    },
    {
      "buffer": 0,
      "byteOffset": 131904,
      "byteLength": 10368,
      "target": 34963
    },
    {
      "buffer": 0,
      "byteOffset": 142272,
      "byteLength": 10800,
      "target": 34962
    },
    {
      "buffer": 0,
      "byteOffset": 153072,
      "byteLength": 10800,
      "target": 34962
    },
    {
      "buffer": 0,
      "byteOffset": 163872,
      "byteLength": 10368,
      "target": 34963
    },
    {
      "buffer": 0,
      "byteOffset": 174240,
      "byteLength": 10800,
      "target": 34962
    },
    {
      "buffer": 0,
      "byteOffset": 185040,
      "byteLength": 10800,
      "target": 34962
    },
    {
      "buffer": 0,
      "byteOffset": 195840,
      "byteLength": 10368,
      "target": 34963
    },
    {
      "buffer": 0,
      "byteOffset": 206208,
      "byteLength": 600,
      "target": 34962
    },
    {
      "buffer": 0,
      "byteOffset": 206808,
      "byteLength": 600,
      "target": 34962
    },
    {
      "buffer": 0,
      "byteOffset": 207408,
      "byteLength": 576,
      "target": 34963
    },
    {
      "buffer": 0,
      "byteOffset": 207984,
      "byteLength": 600,
      "target": 34962
    },
    {
      "buffer": 0,
      "byteOffset": 208584,
      "byteLength": 600,
      "target": 34962
    },
    {
      "buffer": 0,
      "byteOffset": 209184,
      "byteLength": 576,
      "target": 34963
    },
    {
      "buffer": 0,
      "byteOffset": 209760,
      "byteLength": 1152,
      "target": 34962
    },
    {
      "buffer": 0,
      "byteOffset": 210912,
      "byteLength": 1152,
      "target": 34962
    },
    {
      "buffer": 0,
      "byteOffset": 212064,
      "byteLength": 264,
      "target": 34963
    },
    {
      "buffer": 0,
      "byteOffset": 212328,
      "byteLength": 4320,
      "target": 34962
    },
    {
      "buffer": 0,
      "byteOffset": 216648,
      "byteLength": 4320,
      "target": 34962
    },
    {
      "buffer": 0,
      "byteOffset": 220968,
      "byteLength": 4320,
      "target": 34963
    },
    {
      "buffer": 0,
      "byteOffset": 225288,
      "byteLength": 10800,
      "target": 34962
    },
    {
      "buffer": 0,
      "byteOffset": 236088,
      "byteLength": 10800,
      "target": 34962
    },
    {
      "buffer": 0,
      "byteOffset": 246888,
      "byteLength": 10368,
      "target": 34963
    },
    {
      "buffer": 0,
      "byteOffset": 257256,
      "byteLength": 600,
      "target": 34962
    },
    {
      "buffer": 0,
      "byteOffset": 257856,
      "byteLength": 600,
      "target": 34962
    },
    {
      "buffer": 0,
      "byteOffset": 258456,
      "byteLength": 576,
      "target": 34963
    },
    {
      "buffer": 0,
      "byteOffset": 259032,
      "byteLength": 600,
      "target": 34962
    },
    {
      "buffer": 0,
      "byteOffset": 259632,
      "byteLength": 600,
      "target": 34962
    },
    {
      "buffer": 0,
      "byteOffset": 260232,
      "byteLength": 576,
      "target": 34963
    },
    {
      "buffer": 0,
      "byteOffset": 260808,
      "byteLength": 600,
      "target": 34962
    },
    {
      "buffer": 0,
      "byteOffset": 261408,
      "byteLength": 600,
      "target": 34962
    },
    {
      "buffer": 0,
      "byteOffset": 262008,
      "byteLength": 576,
      "target": 34963
    },
    {
      "buffer": 0,
      "byteOffset": 262584,
      "byteLength": 600,
      "target": 34962
    },
    {
      "buffer": 0,
      "byteOffset": 263184,
      "byteLength": 600,
      "target": 34962
    },
    {
      "buffer": 0,
      "byteOffset": 263784,
      "byteLength": 576,
      "target": 34963
    },
    {
      "buffer": 0,
      "byteOffset": 264360,
      "byteLength": 600,
      "target": 34962
    },
    {
      "buffer": 0,
      "byteOffset": 264960,
      "byteLength": 600,
      "target": 34962
    },
    {
      "buffer": 0,
      "byteOffset": 265560,
      "byteLength": 576,
      "target": 34963
    },
    {
      "buffer": 0,
      "byteOffset": 266136,
      "byteLength": 2904,
      "target": 34962
    },
    {
      "buffer": 0,
      "byteOffset": 269040,
      "byteLength": 2904,
      "target": 34962
    },
    {
      "buffer": 0,
      "byteOffset": 271944,
      "byteLength": 2304,
      "target": 34963
    },
    {
      "buffer": 0,
      "byteOffset": 274248,
      "byteLength": 10800,
      "target": 34962
    },
    {
      "buffer": 0,
      "byteOffset": 285048,
      "byteLength": 10800,
      "target": 34962
    },
    {
      "buffer": 0,
      "byteOffset": 295848,
      "byteLength": 10368,
      "target": 34963
    },
    {
      "buffer": 0,
      "byteOffset": 306216,
      "byteLength": 12
    },
    {
      "buffer": 0,
      "byteOffset": 306228,
      "byteLength": 36
    },
    {
      "buffer": 0,
      "byteOffset": 306264,
      "byteLength": 12
    },
    {
      "buffer": 0,
      "byteOffset": 306276,
      "byteLength": 48
    },
    {
      "buffer": 0,
      "byteOffset": 306324,
      "byteLength": 12
    },
    {
      "buffer": 0,
      "byteOffset": 306336,
      "byteLength": 48
    },
    {
      "buffer": 0,
      "byteOffset": 306384,
      "byteLength": 12
    },
    {
      "buffer": 0,
      "byteOffset": 306396,
      "byteLength": 48
    },
    {
      "buffer": 0,
      "byteOffset": 306444,
      "byteLength": 12
    },
    {
      "buffer": 0,
      "byteOffset": 306456,
      "byteLength": 48
    },
    {
      "buffer": 0,
      "byteOffset": 306504,
      "byteLength": 12
    },
    {
      "buffer": 0,
      "byteOffset": 306516,
      "byteLength": 48
    },
    {
      "buffer": 0,
      "byteOffset": 306564,
      "byteLength": 12
    },
    {
      "buffer": 0,
      "byteOffset": 306576,
      "byteLength": 48
    },
    {
      "buffer": 0,
      "byteOffset": 306624,
      "byteLength": 12
    },
    {
      "buffer": 0,
      "byteOffset": 306636,
      "byteLength": 48
    },
    {
      "buffer": 0,
      "byteOffset": 306684,
      "byteLength": 12
    },
    {
      "buffer": 0,
      "byteOffset": 306696,
      "byteLength": 48
    },
    {
      "buffer": 0,
      "byteOffset": 306744,
      "byteLength": 12
    },
    {
      "buffer": 0,
      "byteOffset": 306756,
      "byteLength": 48
    },
    {
      "buffer": 0,
      "byteOffset": 306804,
      "byteLength": 12
    },
    {
      "buffer": 0,
      "byteOffset": 306816,
      "byteLength": 48
    },
    {
      "buffer": 0,
      "byteOffset": 306864,
      "byteLength": 12
    },
    {
      "buffer": 0,
      "byteOffset": 306876,
      "byteLength": 48
    },
    {
      "buffer": 0,
      "byteOffset": 306924,
      "byteLength": 12
    },
    {
      "buffer": 0,
      "byteOffset": 306936,
      "byteLength": 36
    },
    {
      "buffer": 0,
      "byteOffset": 306972,
      "byteLength": 12
    },
    {
      "buffer": 0,
      "byteOffset": 306984,
      "byteLength": 48
    },
    {
      "buffer": 0,
      "byteOffset": 307032,
      "byteLength": 12
    },
    {
      "buffer": 0,
      "byteOffset": 307044,
      "byteLength": 48
    },
    {
      "buffer": 0,
      "byteOffset": 307092,
      "byteLength": 12
    },
    {
      "buffer": 0,
      "byteOffset": 307104,
      "byteLength": 48
    },
    {
      "buffer": 0,
      "byteOffset": 307152,
      "byteLength": 12
    },
    {
      "buffer": 0,
      "byteOffset": 307164,
      "byteLength": 48
    },
    {
      "buffer": 0,
      "byteOffset": 307212,
      "byteLength": 12
    },
    {
      "buffer": 0,
      "byteOffset": 307224,
      "byteLength": 48
    },
    {
      "buffer": 0,
      "byteOffset": 307272,
      "byteLength": 12
    },
    {
      "buffer": 0,
      "byteOffset": 307284,
      "byteLength": 48
    },
    {
      "buffer": 0,
      "byteOffset": 307332,
      "byteLength": 12
    },
    {
      "buffer": 0,
      "byteOffset": 307344,
      "byteLength": 48
    },
    {
      "buffer": 0,
      "byteOffset": 307392,
      "byteLength": 12
    },
    {
      "buffer": 0,
      "byteOffset": 307404,
      "byteLength": 48
    },
    {
      "buffer": 0,
      "byteOffset": 307452,
      "byteLength": 12
    },
    {
      "buffer": 0,
      "byteOffset": 307464,
      "byteLength": 36
    },
    {
      "buffer": 0,
      "byteOffset": 307500,
      "byteLength": 12
    },
    {
      "buffer": 0,
      "byteOffset": 307512,
      "byteLength": 48
    },
    {
      "buffer": 0,
      "byteOffset": 307560,
      "byteLength": 12
    },
    {
      "buffer": 0,
      "byteOffset": 307572,
      "byteLength": 36
    },
    {
      "buffer": 0,
      "byteOffset": 307608,
      "byteLength": 12
    },
    {
      "buffer": 0,
      "byteOffset": 307620,
      "byteLength": 48
    },
    {
      "buffer": 0,
      "byteOffset": 307668,
      "byteLength": 12
    },
    {
      "buffer": 0,
      "byteOffset": 307680,
      "byteLength": 48
    },
    {
      "buffer": 0,
      "byteOffset": 307728,
      "byteLength": 12
    },
    {
      "buffer": 0,
      "byteOffset": 307740,
      "byteLength": 48
    },
    {
      "buffer": 0,
      "byteOffset": 307788,
      "byteLength": 12
    },
    {
      "buffer": 0,
      "byteOffset": 307800,
      "byteLength": 48
    },
    {
      "buffer": 0,
      "byteOffset": 307848,
      "byteLength": 12
    },
    {
      "buffer": 0,
      "byteOffset": 307860,
      "byteLength": 48
    },
    {
      "buffer": 0,
      "byteOffset": 307908,
      "byteLength": 12
    },
    {
      "buffer": 0,
      "byteOffset": 307920,
      "byteLength": 48
    },
    {
      "buffer": 0,
      "byteOffset": 307968,
      "byteLength": 12
    },
    {
      "buffer": 0,
      "byteOffset": 307980,
      "byteLength": 36
    },
    {
      "buffer": 0,
      "byteOffset": 308016,
      "byteLength": 12
    },
    {
      "buffer": 0,
      "byteOffset": 308028,
      "byteLength": 48
    },
    {
      "buffer": 0,
      "byteOffset": 308076,
      "byteLength": 12
    },
    {
      "buffer": 0,
      "byteOffset": 308088,
      "byteLength": 48
    },
    {
      "buffer": 0,
      "byteOffset": 308136,
      "byteLength": 12
    },
    {
      "buffer": 0,
      "byteOffset": 308148,
      "byteLength": 48
    },
    {
      "buffer": 0,
      "byteOffset": 308196,
      "byteLength": 12
    },
    {
      "buffer": 0,
      "byteOffset": 308208,
      "byteLength": 48
    },
    {
      "buffer": 0,
      "byteOffset": 308256,
      "byteLength": 12
    },
    {
      "buffer": 0,
      "byteOffset": 308268,
      "byteLength": 48
    },
    {
      "buffer": 0,
      "byteOffset": 308316,
      "byteLength": 12
    },
    {
      "buffer": 0,
      "byteOffset": 308328,
      "byteLength": 48
    },
    {
      "buffer": 0,
      "byteOffset": 308376,
      "byteLength": 12
    },
    {
      "buffer": 0,
      "byteOffset": 308388,
      "byteLength": 48
    },
    {
      "buffer": 0,
      "byteOffset": 308436,
      "byteLength": 12
    },
    {
      "buffer": 0,
      "byteOffset": 308448,
      "byteLength": 48
    },
    {
      "buffer": 0,
      "byteOffset": 308496,
      "byteLength": 12
    },
    {
      "buffer": 0,
      "byteOffset": 308508,
      "byteLength": 48
    }
  ],
  "buffers": [
    {
      "byteLength": 308556,
      "uri": "data:application/octet-stream;base64,"
    }
  ],
  "animations": [
    {
      "name": "Idle",
      "samplers": [
        {
          "input": 69,
          "output": 70,
          "interpolation": "LINEAR"
        },
        {
          "input": 71,
          "output": 72,
          "interpolation": "LINEAR"
        },
        {
          "input": 73,
          "output": 74,
          "interpolation": "LINEAR"
        },
        {
          "input": 75,
          "output": 76,
          "interpolation": "LINEAR"
        },
        {
          "input": 77,
          "output": 78,
          "interpolation": "LINEAR"
        },
        {
          "input": 79,
          "output": 80,
          "interpolation": "LINEAR"
        }
      ],
      "channels": [
        {
          "sampler": 0,
          "target": {
            "node": 0,
            "path": "translation"
          }
        },
        {
          "sampler": 1,
          "target": {
            "node": 1,
            "path": "rotation"
          }
        },
        {
          "sampler": 2,
          "target": {
            "node": 30,
            "path": "rotation"
          }
        },
        {
          "sampler": 3,
          "target": {
            "node": 34,
            "path": "rotation"
          }
        },
        {
          "sampler": 4,
          "target": {
            "node": 31,
            "path": "rotation"
          }
        },
        {
          "sampler": 5,
          "target": {
            "node": 35,
            "path": "rotation"
          }
        }
      ]
    },
    {
      "name": "Walk",
      "samplers": [
        {
          "input": 81,
          "output": 82,
          "interpolation": "LINEAR"
        },
        {
          "input": 83,
          "output": 84,
          "interpolation": "LINEAR"
        },
        {
          "input": 85,
          "output": 86,
          "interpolation": "LINEAR"
        },
        {
          "input": 87,
          "output": 88,
          "interpolation": "LINEAR"
        },
        {
          "input": 89,
          "output": 90,
          "interpolation": "LINEAR"
        },
        {
          "input": 91,
          "output": 92,
          "interpolation": "LINEAR"
        }
      ],
      "channels": [
        {
          "sampler": 0,
          "target": {
            "node": 30,
            "path": "rotation"
          }
        },
        {
          "sampler": 1,
          "target": {
            "node": 1,
            "path": "rotation"
          }
        },
        {
          "sampler": 2,
          "target": {
            "node": 30,
            "path": "rotation"
          }
        },
        {
          "sampler": 3,
          "target": {
            "node": 34,
            "path": "rotation"
          }
        },
        {
          "sampler": 4,
          "target": {
            "node": 31,
            "path": "rotation"
          }
        },
        {
          "sampler": 5,
          "target": {
            "node": 35,
            "path": "rotation"
          }
        }
      ]
    },
    {
      "name": "Attack",
      "samplers": [
        {
          "input": 93,
          "output": 94,
          "interpolation": "LINEAR"
        },
        {
          "input": 95,
          "output": 96,
          "interpolation": "LINEAR"
        },
        {
          "input": 97,
          "output": 98,
          "interpolation": "LINEAR"
        },
        {
          "input": 99,
          "output": 100,
          "interpolation": "LINEAR"
        },
        {
          "input": 101,
          "output": 102,
          "interpolation": "LINEAR"
        },
        {
          "input": 103,
          "output": 104,
          "interpolation": "LINEAR"
        },
        {
          "input": 105,
          "output": 106,
          "interpolation": "LINEAR"
        },
        {
          "input": 107,
          "output": 108,
          "interpolation": "LINEAR"
        },
        {
          "input": 109,
          "output": 110,
          "interpolation": "LINEAR"
        }
      ],
      "channels": [
        {
          "sampler": 0,
          "target": {
            "node": 29,
            "path": "translation"
          }
        },
        {
          "sampler": 1,
          "target": {
            "node": 1,
            "path": "rotation"
          }
        },
        {
          "sampler": 2,
          "target": {
            "node": 29,
            "path": "rotation"
          }
        },
        {
          "sampler": 3,
          "target": {
            "node": 30,
            "path": "rotation"
          }
        },
        {
          "sampler": 4,
          "target": {
            "node": 34,
            "path": "rotation"
          }
        },
        {
          "sampler": 5,
          "target": {
            "node": 31,
            "path": "rotation"
          }
        },
        {
          "sampler": 6,
          "target": {
            "node": 35,
            "path": "rotation"
          }
        },
        {
          "sampler": 7,
          "target": {
            "node": 32,
            "path": "rotation"
          }
        },
        {
          "sampler": 8,
          "target": {
            "node": 36,
            "path": "rotation"
          }
        }
      ]
    },
    {
      "name": "Hit",
      "samplers": [
        {
          "input": 111,
          "output": 112,
          "interpolation": "LINEAR"
        },
        {
          "input": 113,
          "output": 114,
          "interpolation": "LINEAR"
        }
      ],
      "channels": [
        {
          "sampler": 0,
          "target": {
            "node": 0,
            "path": "translation"
          }
        },
        {
          "sampler": 1,
          "target": {
            "node": 1,
            "path": "rotation"
          }
        }
      ]
    },
    {
      "name": "Feed",
      "samplers": [
        {
          "input": 115,
          "output": 116,
          "interpolation": "LINEAR"
        },
        {
          "input": 117,
          "output": 118,
          "interpolation": "LINEAR"
        },
        {
          "input": 119,
          "output": 120,
          "interpolation": "LINEAR"
        },
        {
          "input": 121,
          "output": 122,
          "interpolation": "LINEAR"
        },
        {
          "input": 123,
          "output": 124,
          "interpolation": "LINEAR"
        },
        {
          "input": 125,
          "output": 126,
          "interpolation": "LINEAR"
        },
        {
          "input": 127,
          "output": 128,
          "interpolation": "LINEAR"
        }
      ],
      "channels": [
        {
          "sampler": 0,
          "target": {
            "node": 0,
            "path": "translation"
          }
        },
        {
          "sampler": 1,
          "target": {
            "node": 1,
            "path": "rotation"
          }
        },
        {
          "sampler": 2,
          "target": {
            "node": 29,
            "path": "rotation"
          }
        },
        {
          "sampler": 3,
          "target": {
            "node": 30,
            "path": "rotation"
          }
        },
        {
          "sampler": 4,
          "target": {
            "node": 34,
            "path": "rotation"
          }
        },
        {
          "sampler": 5,
          "target": {
            "node": 32,
            "path": "rotation"
          }
        },
        {
          "sampler": 6,
          "target": {
            "node": 36,
            "path": "rotation"
          }
        }
      ]
    },
    {
      "name": "Nest",
      "samplers": [
        {
          "input": 129,
          "output": 130,
          "interpolation": "LINEAR"
        },
        {
          "input": 131,
          "output": 132,
          "interpolation": "LINEAR"
        }
      ],
      "channels": [
        {
          "sampler": 0,
          "target": {
            "node": 0,
            "path": "translation"
          }
        },
        {
          "sampler": 1,
          "target": {
            "node": 1,
            "path": "rotation"
          }
        }
      ]
    },
    {
      "name": "Retreat",
      "samplers": [
        {
          "input": 133,
          "output": 134,
          "interpolation": "LINEAR"
        },
        {
          "input": 135,
          "output": 136,
          "interpolation": "LINEAR"
        },
        {
          "input": 137,
          "output": 138,
          "interpolation": "LINEAR"
        },
        {
          "input": 139,
          "output": 140,
          "interpolation": "LINEAR"
        },
        {
          "input": 141,
          "output": 142,
          "interpolation": "LINEAR"
        },
        {
          "input": 143,
          "output": 144,
          "interpolation": "LINEAR"
        }
      ],
      "channels": [
        {
          "sampler": 0,
          "target": {
            "node": 30,
            "path": "rotation"
          }
        },
        {
          "sampler": 1,
          "target": {
            "node": 1,
            "path": "rotation"
          }
        },
        {
          "sampler": 2,
          "target": {
            "node": 30,
            "path": "rotation"
          }
        },
        {
          "sampler": 3,
          "target": {
            "node": 34,
            "path": "rotation"
          }
        },
        {
          "sampler": 4,
          "target": {
            "node": 31,
            "path": "rotation"
          }
        },
        {
          "sampler": 5,
          "target": {
            "node": 35,
            "path": "rotation"
          }
        }
      ]
    },
    {
      "name": "Death",
      "samplers": [
        {
          "input": 145,
          "output": 146,
          "interpolation": "LINEAR"
        },
        {
          "input": 147,
          "output": 148,
          "interpolation": "LINEAR"
        }
      ],
      "channels": [
        {
          "sampler": 0,
          "target": {
            "node": 0,
            "path": "rotation"
          }
        },
        {
          "sampler": 1,
          "target": {
            "node": 1,
            "path": "rotation"
          }
        }
      ]
    }
  ],
  "extras": {
    "ironwright_asset_id": "ashmantle.route_predator.v1",
    "required_nodes": [
      "AshmantleModel",
      "Torso",
      "TorsoCore",
      "OrganicDorsalPlate",
      "AshmantleMantle",
      "AshmantleHeatLouverL",
      "AshmantleHeatLouverR",
      "AshmantleSiphon",
      "ProductionAssetMarker"
    ],
    "animation_clips": [
      "Idle",
      "Walk",
      "Attack",
      "Hit",
      "Feed",
      "Nest",
      "Retreat",
      "Death"
    ]
  }
}
