{
  "asset": {
    "version": "2.0",
    "generator": "Project Ironwright original Rootweaver asset builder"
  },
  "scene": 0,
  "scenes": [
    {
      "name": "Rootweaver",
      "nodes": [
        0
      ]
    }
  ],
  "nodes": [
    {
      "name": "RootweaverModel",
      "children": [
        1,
        19,
        20,
        21,
        22,
        23,
        24,
        25,
        26,
        27,
        28
      ],
      "extras": {
        "ironwright_asset_id": "rootweaver.route_controller.v1",
        "asset_quality": "authored_high_definition",
        "socket_contract": "root_arms, route_spines, spore_fan, crown_oculi"
      }
    },
    {
      "name": "Torso",
      "translation": [
        0.0,
        0.0,
        0.0
      ],
      "extras": {
        "surface": "layered_wet_chitin"
      },
      "children": [
        2,
        3,
        4,
        5,
        6,
        7,
        8,
        9,
        10,
        11,
        12,
        13,
        14,
        15,
        16,
        17,
        18
      ]
    },
    {
      "name": "TorsoCore",
      "translation": [
        0.0,
        0.92,
        0.08
      ],
      "mesh": 0,
      "scale": [
        1.45,
        0.82,
        1.62
      ],
      "extras": {
        "release_material_family": "chitin"
      }
    },
    {
      "name": "TorsoSegment0",
      "translation": [
        0.0,
        0.89,
        -0.62
      ],
      "mesh": 1,
      "scale": [
        1.22,
        0.72,
        1.25
      ]
    },
    {
      "name": "RootweaverThoraxRib",
      "translation": [
        0.0,
        1.37,
        -0.62
      ],
      "mesh": 2,
      "rotation": [
        0.0,
        0.0,
        -0.01499943750632809,
        0.9998875021093592
      ],
      "scale": [
        1.0,
        1.0,
        0.74
      ]
    },
    {
      "name": "ThoraxFastener",
      "translation": [
        -0.56,
        1.18,
        -0.62
      ],
      "mesh": 9
    },
    {
      "name": "ThoraxFastener",
      "translation": [
        0.56,
        1.18,
        -0.62
      ],
      "mesh": 9
    },
    {
      "name": "TorsoSegment1",
      "translation": [
        0.0,
        0.872,
        -0.19
      ],
      "mesh": 1,
      "scale": [
        1.18,
        0.72,
        1.22
      ]
    },
    {
      "name": "RootweaverThoraxRib",
      "translation": [
        0.0,
        1.3350000000000002,
        -0.19
      ],
      "mesh": 2,
      "scale": [
        1.0,
        1.0,
        0.74
      ],
      "extras": {
        "surface": "layered_shell_break"
      }
    },
    {
      "name": "ThoraxFastener",
      "translation": [
        -0.56,
        1.18,
        -0.19
      ],
      "mesh": 9
    },
    {
      "name": "ThoraxFastener",
      "translation": [
        0.56,
        1.18,
        -0.19
      ],
      "mesh": 9
    },
    {
      "name": "TorsoSegment2",
      "translation": [
        0.0,
        0.854,
        0.24
      ],
      "mesh": 1,
      "scale": [
        1.14,
        0.72,
        1.19
      ]
    },
    {
      "name": "RootweaverThoraxRib",
      "translation": [
        0.0,
        1.3,
        0.24
      ],
      "mesh": 2,
      "rotation": [
        0.0,
        0.0,
        0.01499943750632809,
        0.9998875021093592
      ],
      "scale": [
        1.0,
        1.0,
        0.74
      ]
    },
    {
      "name": "ThoraxFastener",
      "translation": [
        -0.56,
        1.18,
        0.24
      ],
      "mesh": 9
    },
    {
      "name": "ThoraxFastener",
      "translation": [
        0.56,
        1.18,
        0.24
      ],
      "mesh": 9
    },
    {
      "name": "TorsoSegment3",
      "translation": [
        0.0,
        0.8360000000000001,
        0.67
      ],
      "mesh": 1,
      "scale": [
        1.1,
        0.72,
        1.16
      ]
    },
    {
      "name": "RootweaverThoraxRib",
      "translation": [
        0.0,
        1.2650000000000001,
        0.67
      ],
      "mesh": 2,
      "rotation": [
        0.0,
        0.0,
        0.02999550020249566,
        0.9995500337489875
      ],
      "scale": [
        1.0,
        1.0,
        0.74
      ]
    },
    {
      "name": "ThoraxFastener",
      "translation": [
        -0.56,
        1.18,
        0.67
      ],
      "mesh": 9
    },
    {
      "name": "ThoraxFastener",
      "translation": [
        0.56,
        1.18,
        0.67
      ],
      "mesh": 9
    },
    {
      "name": "OrganicDorsalPlate",
      "translation": [
        -0.12,
        1.54,
        0.18
      ],
      "mesh": 2,
      "rotation": [
        0.0,
        0.0,
        -0.01999866669333308,
        0.9998000066665778
      ],
      "scale": [
        1.08,
        1.0,
        1.4
      ],
      "extras": {
        "surface": "layered_shell_break"
      }
    },
    {
      "name": "RootweaverCrown",
      "translation": [
        0.0,
        1.55,
        -0.42
      ],
      "mesh": 8,
      "scale": [
        1.28,
        1.2,
        1.18
      ],
      "extras": {
        "socket_type": "crown_oculi"
      }
    },
    {
      "name": "RootweaverSporeFan",
      "translation": [
        0.0,
        1.76,
        0.24
      ],
      "mesh": 3,
      "rotation": [
        0.0,
        0.0,
        0.7071080798594735,
        0.7071054825112363
      ],
      "scale": [
        1.0,
        1.0,
        1.24
      ],
      "extras": {
        "socket_type": "spore_fan"
      }
    },
    {
      "name": "RootweaverArmL",
      "translation": [
        -0.82,
        0.95,
        -0.2
      ],
      "mesh": 5,
      "rotation": [
        -0.03887696361761665,
        -0.09195266597143172,
        -0.38747287263277136,
        0.9164595255079895
      ],
      "scale": [
        1.0,
        1.0,
        1.28
      ],
      "extras": {
        "socket_type": "root_arm"
      }
    },
    {
      "name": "RootweaverRouteSpineL",
      "translation": [
        -0.86,
        1.34,
        0.4
      ],
      "mesh": 4,
      "rotation": [
        -0.015318806019171368,
        -0.10870422952601363,
        -0.1386997297285093,
        0.9842312277298161
      ],
      "extras": {
        "socket_type": "route_spine"
      }
    },
    {
      "name": "RootweaverOculusL",
      "translation": [
        -0.26,
        1.92,
        -0.82
      ],
      "mesh": 7,
      "extras": {
        "socket_type": "crown_oculus"
      }
    },
    {
      "name": "RootweaverArmR",
      "translation": [
        0.82,
        0.95,
        -0.2
      ],
      "mesh": 5,
      "rotation": [
        -0.03887696361761665,
        0.09195266597143172,
        0.38747287263277136,
        0.9164595255079895
      ],
      "scale": [
        1.0,
        1.0,
        1.28
      ],
      "extras": {
        "socket_type": "root_arm"
      }
    },
    {
      "name": "RootweaverRouteSpineR",
      "translation": [
        0.86,
        1.34,
        0.4
      ],
      "mesh": 4,
      "rotation": [
        -0.015318806019171368,
        0.10870422952601363,
        0.1386997297285093,
        0.9842312277298161
      ],
      "extras": {
        "socket_type": "route_spine"
      }
    },
    {
      "name": "RootweaverOculusR",
      "translation": [
        0.26,
        1.92,
        -0.82
      ],
      "mesh": 7,
      "extras": {
        "socket_type": "crown_oculus"
      }
    },
    {
      "name": "ProductionAssetMarker",
      "translation": [
        0.0,
        0.0,
        0.0
      ],
      "extras": {
        "asset_contract": "rootweaver.route_controller.v1",
        "source": "original_shared_mesh_builder"
      }
    }
  ],
  "meshes": [
    {
      "name": "Core",
      "primitives": [
        {
          "attributes": {
            "POSITION": 0,
            "NORMAL": 1
          },
          "indices": 2,
          "material": 0
        }
      ]
    },
    {
      "name": "Segment",
      "primitives": [
        {
          "attributes": {
            "POSITION": 3,
            "NORMAL": 4
          },
          "indices": 5,
          "material": 1
        }
      ]
    },
    {
      "name": "Plate",
      "primitives": [
        {
          "attributes": {
            "POSITION": 6,
            "NORMAL": 7
          },
          "indices": 8,
          "material": 1
        }
      ]
    },
    {
      "name": "Membrane",
      "primitives": [
        {
          "attributes": {
            "POSITION": 9,
            "NORMAL": 10
          },
          "indices": 11,
          "material": 2
        }
      ]
    },
    {
      "name": "Bone",
      "primitives": [
        {
          "attributes": {
            "POSITION": 12,
            "NORMAL": 13
          },
          "indices": 14,
          "material": 3
        }
      ]
    },
    {
      "name": "LongBone",
      "primitives": [
        {
          "attributes": {
            "POSITION": 15,
            "NORMAL": 16
          },
          "indices": 17,
          "material": 3
        }
      ]
    },
    {
      "name": "Tendon",
      "primitives": [
        {
          "attributes": {
            "POSITION": 18,
            "NORMAL": 19
          },
          "indices": 20,
          "material": 5
        }
      ]
    },
    {
      "name": "Eye",
      "primitives": [
        {
          "attributes": {
            "POSITION": 21,
            "NORMAL": 22
          },
          "indices": 23,
          "material": 4
        }
      ]
    },
    {
      "name": "Soft",
      "primitives": [
        {
          "attributes": {
            "POSITION": 24,
            "NORMAL": 25
          },
          "indices": 26,
          "material": 2
        }
      ]
    },
    {
      "name": "Fastener",
      "primitives": [
        {
          "attributes": {
            "POSITION": 27,
            "NORMAL": 28
          },
          "indices": 29,
          "material": 3
        }
      ]
    }
  ],
  "materials": [
    {
      "name": "Rootweaver wet shell",
      "pbrMetallicRoughness": {
        "baseColorFactor": [
          0.035,
          0.05,
          0.04,
          1.0
        ],
        "metallicFactor": 0.18,
        "roughnessFactor": 0.32
      }
    },
    {
      "name": "Rootweaver layered plate",
      "pbrMetallicRoughness": {
        "baseColorFactor": [
          0.2,
          0.23,
          0.14,
          1.0
        ],
        "metallicFactor": 0.14,
        "roughnessFactor": 0.42
      }
    },
    {
      "name": "Rootweaver membrane",
      "pbrMetallicRoughness": {
        "baseColorFactor": [
          0.29,
          0.06,
          0.12,
          1.0
        ],
        "metallicFactor": 0.02,
        "roughnessFactor": 0.58
      }
    },
    {
      "name": "Rootweaver bone",
      "pbrMetallicRoughness": {
        "baseColorFactor": [
          0.48,
          0.38,
          0.24,
          1.0
        ],
        "metallicFactor": 0.0,
        "roughnessFactor": 0.62
      }
    },
    {
      "name": "Rootweaver threat light",
      "pbrMetallicRoughness": {
        "baseColorFactor": [
          0.16,
          0.72,
          0.63,
          1.0
        ],
        "metallicFactor": 0.0,
        "roughnessFactor": 0.22
      },
      "emissiveFactor": [
        1.0,
        0.18,
        0.04
      ]
    },
    {
      "name": "Rootweaver tendon",
      "pbrMetallicRoughness": {
        "baseColorFactor": [
          0.28,
          0.08,
          0.09,
          1.0
        ],
        "metallicFactor": 0.0,
        "roughnessFactor": 0.55
      }
    }
  ],
  "accessors": [
    {
      "bufferView": 0,
      "componentType": 5126,
      "count": 442,
      "type": "VEC3",
      "min": [
        -0.62,
        -0.62,
        -0.6154795019407935
      ],
      "max": [
        0.62,
        0.62,
        0.6154795019407935
      ]
    },
    {
      "bufferView": 1,
      "componentType": 5126,
      "count": 442,
      "type": "VEC3"
    },
    {
      "bufferView": 2,
      "componentType": 5123,
      "count": 2496,
      "type": "SCALAR",
      "normalized": false
    },
    {
      "bufferView": 3,
      "componentType": 5126,
      "count": 360,
      "type": "VEC3",
      "min": [
        -0.48,
        -0.48,
        -0.48
      ],
      "max": [
        0.48,
        0.48,
        0.48
      ]
    },
    {
      "bufferView": 4,
      "componentType": 5126,
      "count": 360,
      "type": "VEC3"
    },
    {
      "bufferView": 5,
      "componentType": 5123,
      "count": 2016,
      "type": "SCALAR",
      "normalized": false
    },
    {
      "bufferView": 6,
      "componentType": 5126,
      "count": 24,
      "type": "VEC3",
      "min": [
        -0.76,
        -0.08,
        -0.14
      ],
      "max": [
        0.76,
        0.08,
        0.14
      ]
    },
    {
      "bufferView": 7,
      "componentType": 5126,
      "count": 24,
      "type": "VEC3"
    },
    {
      "bufferView": 8,
      "componentType": 5123,
      "count": 36,
      "type": "SCALAR",
      "normalized": false
    },
    {
      "bufferView": 9,
      "componentType": 5126,
      "count": 24,
      "type": "VEC3",
      "min": [
        -0.63,
        -0.0225,
        -0.54
      ],
      "max": [
        0.63,
        0.0225,
        0.54
      ]
    },
    {
      "bufferView": 10,
      "componentType": 5126,
      "count": 24,
      "type": "VEC3"
    },
    {
      "bufferView": 11,
      "componentType": 5123,
      "count": 36,
      "type": "SCALAR",
      "normalized": false
    },
    {
      "bufferView": 12,
      "componentType": 5126,
      "count": 30,
      "type": "VEC3",
      "min": [
        -0.09,
        -0.43,
        -0.08774351209636415
      ],
      "max": [
        0.09,
        0.43,
        0.08774351209636412
      ]
    },
    {
      "bufferView": 13,
      "componentType": 5126,
      "count": 30,
      "type": "VEC3"
    },
    {
      "bufferView": 14,
      "componentType": 5123,
      "count": 168,
      "type": "SCALAR",
      "normalized": false
    },
    {
      "bufferView": 15,
      "componentType": 5126,
      "count": 30,
      "type": "VEC3",
      "min": [
        -0.065,
        -0.675,
        -0.06337031429181855
      ],
      "max": [
        0.065,
        0.675,
        0.06337031429181854
      ]
    },
    {
      "bufferView": 16,
      "componentType": 5126,
      "count": 30,
      "type": "VEC3"
    },
    {
      "bufferView": 17,
      "componentType": 5123,
      "count": 168,
      "type": "SCALAR",
      "normalized": false
    },
    {
      "bufferView": 18,
      "componentType": 5126,
      "count": 30,
      "type": "VEC3",
      "min": [
        -0.07,
        -0.575,
        -0.06824495385272768
      ],
      "max": [
        0.07,
        0.575,
        0.06824495385272766
      ]
    },
    {
      "bufferView": 19,
      "componentType": 5126,
      "count": 30,
      "type": "VEC3"
    },
    {
      "bufferView": 20,
      "componentType": 5123,
      "count": 168,
      "type": "SCALAR",
      "normalized": false
    },
    {
      "bufferView": 21,
      "componentType": 5126,
      "count": 234,
      "type": "VEC3",
      "min": [
        -0.095,
        -0.095,
        -0.09355673653615977
      ],
      "max": [
        0.095,
        0.095,
        0.09355673653615976
      ]
    },
    {
      "bufferView": 22,
      "componentType": 5126,
      "count": 234,
      "type": "VEC3"
    },
    {
      "bufferView": 23,
      "componentType": 5123,
      "count": 1296,
      "type": "SCALAR",
      "normalized": false
    },
    {
      "bufferView": 24,
      "componentType": 5126,
      "count": 330,
      "type": "VEC3",
      "min": [
        -0.34,
        -0.34,
        -0.3365392902395172
      ],
      "max": [
        0.34,
        0.34,
        0.3365392902395172
      ]
    },
    {
      "bufferView": 25,
      "componentType": 5126,
      "count": 330,
      "type": "VEC3"
    },
    {
      "bufferView": 26,
      "componentType": 5123,
      "count": 1848,
      "type": "SCALAR",
      "normalized": false
    },
    {
      "bufferView": 27,
      "componentType": 5126,
      "count": 108,
      "type": "VEC3",
      "min": [
        -0.045,
        -0.045,
        -0.045
      ],
      "max": [
        0.045,
        0.045,
        0.045
      ]
    },
    {
      "bufferView": 28,
      "componentType": 5126,
      "count": 108,
      "type": "VEC3"
    },
    {
      "bufferView": 29,
      "componentType": 5123,
      "count": 576,
      "type": "SCALAR",
      "normalized": false
    },
    {
      "bufferView": 30,
      "componentType": 5126,
      "count": 3,
      "type": "SCALAR",
      "min": [
        0.0
      ],
      "max": [
        1.6
      ]
    },
    {
      "bufferView": 31,
      "componentType": 5126,
      "count": 3,
      "type": "VEC3"
    },
    {
      "bufferView": 32,
      "componentType": 5126,
      "count": 3,
      "type": "SCALAR",
      "min": [
        0.0
      ],
      "max": [
        0.44
      ]
    },
    {
      "bufferView": 33,
      "componentType": 5126,
      "count": 3,
      "type": "VEC4"
    },
    {
      "bufferView": 34,
      "componentType": 5126,
      "count": 3,
      "type": "SCALAR",
      "min": [
        0.0
      ],
      "max": [
        0.48
      ]
    },
    {
      "bufferView": 35,
      "componentType": 5126,
      "count": 3,
      "type": "VEC3"
    }
  ],
  "bufferViews": [
    {
      "buffer": 0,
      "byteOffset": 0,
      "byteLength": 5304,
      "target": 34962
    },
    {
      "buffer": 0,
      "byteOffset": 5304,
      "byteLength": 5304,
      "target": 34962
    },
    {
      "buffer": 0,
      "byteOffset": 10608,
      "byteLength": 4992,
      "target": 34963
    },
    {
      "buffer": 0,
      "byteOffset": 15600,
      "byteLength": 4320,
      "target": 34962
    },
    {
      "buffer": 0,
      "byteOffset": 19920,
      "byteLength": 4320,
      "target": 34962
    },
    {
      "buffer": 0,
      "byteOffset": 24240,
      "byteLength": 4032,
      "target": 34963
    },
    {
      "buffer": 0,
      "byteOffset": 28272,
      "byteLength": 288,
      "target": 34962
    },
    {
      "buffer": 0,
      "byteOffset": 28560,
      "byteLength": 288,
      "target": 34962
    },
    {
      "buffer": 0,
      "byteOffset": 28848,
      "byteLength": 72,
      "target": 34963
    },
    {
      "buffer": 0,
      "byteOffset": 28920,
      "byteLength": 288,
      "target": 34962
    },
    {
      "buffer": 0,
      "byteOffset": 29208,
      "byteLength": 288,
      "target": 34962
    },
    {
      "buffer": 0,
      "byteOffset": 29496,
      "byteLength": 72,
      "target": 34963
    },
    {
      "buffer": 0,
      "byteOffset": 29568,
      "byteLength": 360,
      "target": 34962
    },
    {
      "buffer": 0,
      "byteOffset": 29928,
      "byteLength": 360,
      "target": 34962
    },
    {
      "buffer": 0,
      "byteOffset": 30288,
      "byteLength": 336,
      "target": 34963
    },
    {
      "buffer": 0,
      "byteOffset": 30624,
      "byteLength": 360,
      "target": 34962
    },
    {
      "buffer": 0,
      "byteOffset": 30984,
      "byteLength": 360,
      "target": 34962
    },
    {
      "buffer": 0,
      "byteOffset": 31344,
      "byteLength": 336,
      "target": 34963
    },
    {
      "buffer": 0,
      "byteOffset": 31680,
      "byteLength": 360,
      "target": 34962
    },
    {
      "buffer": 0,
      "byteOffset": 32040,
      "byteLength": 360,
      "target": 34962
    },
    {
      "buffer": 0,
      "byteOffset": 32400,
      "byteLength": 336,
      "target": 34963
    },
    {
      "buffer": 0,
      "byteOffset": 32736,
      "byteLength": 2808,
      "target": 34962
    },
    {
      "buffer": 0,
      "byteOffset": 35544,
      "byteLength": 2808,
      "target": 34962
    },
    {
      "buffer": 0,
      "byteOffset": 38352,
      "byteLength": 2592,
      "target": 34963
    },
    {
      "buffer": 0,
      "byteOffset": 40944,
      "byteLength": 3960,
      "target": 34962
    },
    {
      "buffer": 0,
      "byteOffset": 44904,
      "byteLength": 3960,
      "target": 34962
    },
    {
      "buffer": 0,
      "byteOffset": 48864,
      "byteLength": 3696,
      "target": 34963
    },
    {
      "buffer": 0,
      "byteOffset": 52560,
      "byteLength": 1296,
      "target": 34962
    },
    {
      "buffer": 0,
      "byteOffset": 53856,
      "byteLength": 1296,
      "target": 34962
    },
    {
      "buffer": 0,
      "byteOffset": 55152,
      "byteLength": 1152,
      "target": 34963
    },
    {
      "buffer": 0,
      "byteOffset": 56304,
      "byteLength": 12
    },
    {
      "buffer": 0,
      "byteOffset": 56316,
      "byteLength": 36
    },
    {
      "buffer": 0,
      "byteOffset": 56352,
      "byteLength": 12
    },
    {
      "buffer": 0,
      "byteOffset": 56364,
      "byteLength": 48
    },
    {
      "buffer": 0,
      "byteOffset": 56412,
      "byteLength": 12
    },
    {
      "buffer": 0,
      "byteOffset": 56424,
      "byteLength": 36
    }
  ],
  "buffers": [
    {
      "byteLength": 56460,
      "uri": "data:application/octet-stream;base64,"
    }
  ],
  "animations": [
    {
      "name": "Idle",
      "samplers": [
        {
          "input": 30,
          "output": 31,
          "interpolation": "LINEAR"
        }
      ],
      "channels": [
        {
          "sampler": 0,
          "target": {
            "node": 0,
            "path": "translation"
          }
        }
      ]
    },
    {
      "name": "Walk",
      "samplers": [
        {
          "input": 32,
          "output": 33,
          "interpolation": "LINEAR"
        }
      ],
      "channels": [
        {
          "sampler": 0,
          "target": {
            "node": 22,
            "path": "rotation"
          }
        }
      ]
    },
    {
      "name": "Attack",
      "samplers": [
        {
          "input": 34,
          "output": 35,
          "interpolation": "LINEAR"
        }
      ],
      "channels": [
        {
          "sampler": 0,
          "target": {
            "node": 21,
            "path": "translation"
          }
        }
      ]
    }
  ],
  "extras": {
    "ironwright_asset_id": "rootweaver.route_controller.v1",
    "required_nodes": [
      "RootweaverModel",
      "Torso",
      "TorsoCore",
      "OrganicDorsalPlate",
      "ProductionAssetMarker"
    ],
    "animation_clips": [
      "Idle",
      "Walk",
      "Attack"
    ]
  }
}
