{
  "asset": {
    "version": "2.0",
    "generator": "Project Ironwright original salvage asset builder"
  },
  "scene": 0,
  "scenes": [
    {
      "name": "Salvage",
      "nodes": [
        0
      ]
    }
  ],
  "nodes": [
    {
      "name": "SalvageModel",
      "children": [
        1,
        2,
        3,
        4,
        5,
        6,
        7,
        8,
        9,
        10,
        11,
        12,
        13,
        14,
        15,
        16,
        17,
        18,
        19,
        20,
        21,
        22,
        23,
        24,
        25,
        26,
        27,
        28,
        29,
        30,
        31,
        32,
        33,
        34,
        35,
        36,
        37,
        38,
        39
      ],
      "extras": {
        "ironwright_asset_id": "salvage.opening_wreck.v1",
        "asset_quality": "authored_high_definition",
        "socket_contract": "salvage_target, status_lens, service_panel"
      }
    },
    {
      "name": "WreckChassis",
      "translation": [
        0.0,
        0.57,
        0.0
      ],
      "mesh": 0,
      "extras": {
        "surface": "rounded_load_bearing_shell"
      }
    },
    {
      "name": "WreckCore",
      "translation": [
        0.0,
        0.66,
        -0.03
      ],
      "mesh": 1
    },
    {
      "name": "WreckCabin",
      "translation": [
        -0.18,
        0.98,
        0.12
      ],
      "mesh": 2,
      "rotation": [
        0.0,
        0.0,
        -0.03998933418663416,
        0.9992001066609779
      ]
    },
    {
      "name": "WreckCabinPanel",
      "translation": [
        0.2,
        1.05,
        -0.34
      ],
      "mesh": 3,
      "rotation": [
        0.04996917377001421,
        0.000999516747853971,
        0.019973673567518554,
        0.9985505170011335
      ]
    },
    {
      "name": "WreckCabinHandle",
      "translation": [
        0.2,
        1.1,
        -0.405
      ],
      "mesh": 4,
      "rotation": [
        0.04996917377001421,
        0.000999516747853971,
        0.019973673567518554,
        0.9985505170011335
      ],
      "extras": {
        "surface": "cabin_service_grip"
      }
    },
    {
      "name": "WheelLF",
      "translation": [
        -0.9,
        0.39,
        -0.55
      ],
      "mesh": 5,
      "rotation": [
        0.7071067811865476,
        0.0,
        0.0,
        0.7071067811865476
      ]
    },
    {
      "name": "WheelHubLF",
      "translation": [
        -0.9,
        0.39,
        -0.55
      ],
      "mesh": 6,
      "rotation": [
        0.7071067811865476,
        0.0,
        0.0,
        0.7071067811865476
      ]
    },
    {
      "name": "WheelRimLF",
      "translation": [
        -0.9,
        0.39,
        -0.55
      ],
      "mesh": 7,
      "rotation": [
        0.7071067811865476,
        0.0,
        0.0,
        0.7071067811865476
      ]
    },
    {
      "name": "WheelLB",
      "translation": [
        -0.9,
        0.39,
        0.55
      ],
      "mesh": 5,
      "rotation": [
        0.7071067811865476,
        0.0,
        0.0,
        0.7071067811865476
      ]
    },
    {
      "name": "WheelHubLB",
      "translation": [
        -0.9,
        0.39,
        0.55
      ],
      "mesh": 6,
      "rotation": [
        0.7071067811865476,
        0.0,
        0.0,
        0.7071067811865476
      ]
    },
    {
      "name": "WheelRimLB",
      "translation": [
        -0.9,
        0.39,
        0.55
      ],
      "mesh": 7,
      "rotation": [
        0.7071067811865476,
        0.0,
        0.0,
        0.7071067811865476
      ]
    },
    {
      "name": "WheelRF",
      "translation": [
        0.9,
        0.39,
        -0.55
      ],
      "mesh": 5,
      "rotation": [
        0.7071067811865476,
        0.0,
        0.0,
        0.7071067811865476
      ]
    },
    {
      "name": "WheelHubRF",
      "translation": [
        0.9,
        0.39,
        -0.55
      ],
      "mesh": 6,
      "rotation": [
        0.7071067811865476,
        0.0,
        0.0,
        0.7071067811865476
      ]
    },
    {
      "name": "WheelRimRF",
      "translation": [
        0.9,
        0.39,
        -0.55
      ],
      "mesh": 7,
      "rotation": [
        0.7071067811865476,
        0.0,
        0.0,
        0.7071067811865476
      ]
    },
    {
      "name": "WheelRB",
      "translation": [
        0.9,
        0.39,
        0.55
      ],
      "mesh": 5,
      "rotation": [
        0.7071067811865476,
        0.0,
        0.0,
        0.7071067811865476
      ]
    },
    {
      "name": "WheelHubRB",
      "translation": [
        0.9,
        0.39,
        0.55
      ],
      "mesh": 6,
      "rotation": [
        0.7071067811865476,
        0.0,
        0.0,
        0.7071067811865476
      ]
    },
    {
      "name": "WheelRimRB",
      "translation": [
        0.9,
        0.39,
        0.55
      ],
      "mesh": 7,
      "rotation": [
        0.7071067811865476,
        0.0,
        0.0,
        0.7071067811865476
      ]
    },
    {
      "name": "WreckChassisRailFront",
      "translation": [
        0.0,
        0.8,
        -0.63
      ],
      "mesh": 8
    },
    {
      "name": "WreckChassisRailRear",
      "translation": [
        0.0,
        0.79,
        0.63
      ],
      "mesh": 8
    },
    {
      "name": "WreckServicePanel",
      "translation": [
        -0.64,
        0.72,
        -0.45
      ],
      "mesh": 9,
      "rotation": [
        0.0,
        0.7071067811865476,
        0.0,
        0.7071067811865476
      ],
      "extras": {
        "surface": "manual_salvage_access"
      }
    },
    {
      "name": "WreckServiceWindow",
      "translation": [
        -0.7,
        0.72,
        -0.45
      ],
      "mesh": 10,
      "rotation": [
        0.0,
        0.7071067811865476,
        0.0,
        0.7071067811865476
      ]
    },
    {
      "name": "WreckServiceFastener00",
      "translation": [
        -0.71,
        0.82,
        -0.44
      ],
      "mesh": 16,
      "rotation": [
        0.0,
        0.7071067811865476,
        0.0,
        0.7071067811865476
      ]
    },
    {
      "name": "WreckServiceFastener01",
      "translation": [
        -0.71,
        0.82,
        0.0
      ],
      "mesh": 16,
      "rotation": [
        0.0,
        0.7071067811865476,
        0.0,
        0.7071067811865476
      ]
    },
    {
      "name": "WreckServiceFastener02",
      "translation": [
        -0.71,
        0.82,
        0.44
      ],
      "mesh": 16,
      "rotation": [
        0.0,
        0.7071067811865476,
        0.0,
        0.7071067811865476
      ]
    },
    {
      "name": "WreckServiceLatch00",
      "translation": [
        -0.715,
        0.72,
        -0.69
      ],
      "mesh": 17,
      "rotation": [
        0.0,
        0.7071067811865476,
        0.0,
        0.7071067811865476
      ],
      "extras": {
        "surface": "manual_salvage_latch"
      }
    },
    {
      "name": "WreckServiceLatch01",
      "translation": [
        -0.715,
        0.72,
        -0.21000000000000002
      ],
      "mesh": 17,
      "rotation": [
        0.0,
        0.7071067811865476,
        0.0,
        0.7071067811865476
      ],
      "extras": {
        "surface": "manual_salvage_latch"
      }
    },
    {
      "name": "WreckPipeLeft",
      "translation": [
        -0.82,
        0.94,
        0.03
      ],
      "mesh": 11,
      "rotation": [
        0.0,
        0.0,
        0.7071067811865476,
        0.7071067811865476
      ]
    },
    {
      "name": "WreckPipeRight",
      "translation": [
        0.82,
        0.94,
        0.12
      ],
      "mesh": 11,
      "rotation": [
        0.0,
        0.0,
        0.7071067811865476,
        0.7071067811865476
      ]
    },
    {
      "name": "WreckPipeJointLeft",
      "translation": [
        -0.82,
        0.94,
        -0.56
      ],
      "mesh": 12
    },
    {
      "name": "WreckPipeJointRight",
      "translation": [
        0.82,
        0.94,
        -0.47
      ],
      "mesh": 12
    },
    {
      "name": "WreckStatusLens",
      "translation": [
        -0.74,
        1.05,
        -0.64
      ],
      "mesh": 13,
      "extras": {
        "socket_type": "status_lens"
      }
    },
    {
      "name": "WreckHazardStripe00",
      "translation": [
        -0.42,
        1.21,
        -0.36
      ],
      "mesh": 14,
      "rotation": [
        0.0,
        0.0,
        0.059964006479444595,
        0.9982005399352042
      ]
    },
    {
      "name": "WreckHazardStripe01",
      "translation": [
        -0.14,
        1.21,
        -0.36
      ],
      "mesh": 14,
      "rotation": [
        0.0,
        0.0,
        0.059964006479444595,
        0.9982005399352042
      ]
    },
    {
      "name": "WreckHazardStripe02",
      "translation": [
        0.14,
        1.21,
        -0.36
      ],
      "mesh": 14,
      "rotation": [
        0.0,
        0.0,
        0.059964006479444595,
        0.9982005399352042
      ]
    },
    {
      "name": "WreckHazardStripe03",
      "translation": [
        0.42,
        1.21,
        -0.36
      ],
      "mesh": 14,
      "rotation": [
        0.0,
        0.0,
        0.059964006479444595,
        0.9982005399352042
      ]
    },
    {
      "name": "BrokenGlassShard00",
      "translation": [
        -0.35,
        1.22,
        -0.1
      ],
      "mesh": 15,
      "rotation": [
        -0.08899917713225503,
        -0.012541932694795704,
        0.13897834640293338,
        0.9862083277001705
      ]
    },
    {
      "name": "BrokenGlassShard01",
      "translation": [
        0.0,
        1.28,
        0.08
      ],
      "mesh": 15,
      "rotation": [
        -0.09258951544763867,
        0.055162708091326805,
        0.05507006116516717,
        0.9926487523935481
      ]
    },
    {
      "name": "BrokenGlassShard02",
      "translation": [
        0.32,
        1.18,
        0.18
      ],
      "mesh": 15,
      "rotation": [
        -0.0843929872389628,
        0.12270066684010382,
        -0.028790119702371726,
        0.9884298149435807
      ]
    },
    {
      "name": "ProductionAssetMarker",
      "translation": [
        0.0,
        0.0,
        0.0
      ],
      "extras": {
        "asset_contract": "salvage.opening_wreck.v1",
        "source": "original_shared_mesh_builder"
      }
    }
  ],
  "meshes": [
    {
      "name": "Chassis",
      "primitives": [
        {
          "attributes": {
            "POSITION": 0,
            "NORMAL": 1,
            "TEXCOORD_0": 2,
            "TANGENT": 3
          },
          "indices": 4,
          "material": 0
        }
      ]
    },
    {
      "name": "Core",
      "primitives": [
        {
          "attributes": {
            "POSITION": 5,
            "NORMAL": 6,
            "TEXCOORD_0": 7,
            "TANGENT": 8
          },
          "indices": 9,
          "material": 1
        }
      ]
    },
    {
      "name": "Cabin",
      "primitives": [
        {
          "attributes": {
            "POSITION": 10,
            "NORMAL": 11,
            "TEXCOORD_0": 12,
            "TANGENT": 13
          },
          "indices": 14,
          "material": 0
        }
      ]
    },
    {
      "name": "CabinPanel",
      "primitives": [
        {
          "attributes": {
            "POSITION": 15,
            "NORMAL": 16,
            "TEXCOORD_0": 17,
            "TANGENT": 18
          },
          "indices": 19,
          "material": 1
        }
      ]
    },
    {
      "name": "CabinHandle",
      "primitives": [
        {
          "attributes": {
            "POSITION": 20,
            "NORMAL": 21,
            "TEXCOORD_0": 22,
            "TANGENT": 23
          },
          "indices": 24,
          "material": 4
        }
      ]
    },
    {
      "name": "Wheel",
      "primitives": [
        {
          "attributes": {
            "POSITION": 25,
            "NORMAL": 26,
            "TEXCOORD_0": 27,
            "TANGENT": 28
          },
          "indices": 29,
          "material": 2
        }
      ]
    },
    {
      "name": "Hub",
      "primitives": [
        {
          "attributes": {
            "POSITION": 30,
            "NORMAL": 31,
            "TEXCOORD_0": 32,
            "TANGENT": 33
          },
          "indices": 34,
          "material": 0
        }
      ]
    },
    {
      "name": "Rim",
      "primitives": [
        {
          "attributes": {
            "POSITION": 35,
            "NORMAL": 36,
            "TEXCOORD_0": 37,
            "TANGENT": 38
          },
          "indices": 39,
          "material": 1
        }
      ]
    },
    {
      "name": "Rail",
      "primitives": [
        {
          "attributes": {
            "POSITION": 40,
            "NORMAL": 41,
            "TEXCOORD_0": 42,
            "TANGENT": 43
          },
          "indices": 44,
          "material": 0
        }
      ]
    },
    {
      "name": "ServicePanel",
      "primitives": [
        {
          "attributes": {
            "POSITION": 45,
            "NORMAL": 46,
            "TEXCOORD_0": 47,
            "TANGENT": 48
          },
          "indices": 49,
          "material": 1
        }
      ]
    },
    {
      "name": "ServiceWindow",
      "primitives": [
        {
          "attributes": {
            "POSITION": 50,
            "NORMAL": 51,
            "TEXCOORD_0": 52,
            "TANGENT": 53
          },
          "indices": 54,
          "material": 3
        }
      ]
    },
    {
      "name": "Pipe",
      "primitives": [
        {
          "attributes": {
            "POSITION": 55,
            "NORMAL": 56,
            "TEXCOORD_0": 57,
            "TANGENT": 58
          },
          "indices": 59,
          "material": 1
        }
      ]
    },
    {
      "name": "PipeJoint",
      "primitives": [
        {
          "attributes": {
            "POSITION": 60,
            "NORMAL": 61,
            "TEXCOORD_0": 62,
            "TANGENT": 63
          },
          "indices": 64,
          "material": 0
        }
      ]
    },
    {
      "name": "Lens",
      "primitives": [
        {
          "attributes": {
            "POSITION": 65,
            "NORMAL": 66,
            "TEXCOORD_0": 67,
            "TANGENT": 68
          },
          "indices": 69,
          "material": 3
        }
      ]
    },
    {
      "name": "Hazard",
      "primitives": [
        {
          "attributes": {
            "POSITION": 70,
            "NORMAL": 71,
            "TEXCOORD_0": 72,
            "TANGENT": 73
          },
          "indices": 74,
          "material": 4
        }
      ]
    },
    {
      "name": "Glass",
      "primitives": [
        {
          "attributes": {
            "POSITION": 75,
            "NORMAL": 76,
            "TEXCOORD_0": 77,
            "TANGENT": 78
          },
          "indices": 79,
          "material": 5
        }
      ]
    },
    {
      "name": "Fastener",
      "primitives": [
        {
          "attributes": {
            "POSITION": 80,
            "NORMAL": 81,
            "TEXCOORD_0": 82,
            "TANGENT": 83
          },
          "indices": 84,
          "material": 4
        }
      ]
    },
    {
      "name": "Latch",
      "primitives": [
        {
          "attributes": {
            "POSITION": 85,
            "NORMAL": 86,
            "TEXCOORD_0": 87,
            "TANGENT": 88
          },
          "indices": 89,
          "material": 0
        }
      ]
    }
  ],
  "materials": [
    {
      "name": "Wreck weathered steel",
      "pbrMetallicRoughness": {
        "baseColorFactor": [
          0.2,
          0.24,
          0.23,
          1.0
        ],
        "metallicFactor": 0.82,
        "roughnessFactor": 0.46
      }
    },
    {
      "name": "Wreck oxide red",
      "pbrMetallicRoughness": {
        "baseColorFactor": [
          0.34,
          0.12,
          0.055,
          1.0
        ],
        "metallicFactor": 0.62,
        "roughnessFactor": 0.58
      }
    },
    {
      "name": "Wreck carbon rubber",
      "pbrMetallicRoughness": {
        "baseColorFactor": [
          0.018,
          0.022,
          0.023,
          1.0
        ],
        "metallicFactor": 0.05,
        "roughnessFactor": 0.92
      }
    },
    {
      "name": "Wreck cyan status",
      "pbrMetallicRoughness": {
        "baseColorFactor": [
          0.025,
          0.2,
          0.22,
          1.0
        ],
        "metallicFactor": 0.28,
        "roughnessFactor": 0.24
      },
      "emissiveFactor": [
        0.1,
        0.85,
        0.9
      ]
    },
    {
      "name": "Wreck warm hazard",
      "pbrMetallicRoughness": {
        "baseColorFactor": [
          0.44,
          0.18,
          0.035,
          1.0
        ],
        "metallicFactor": 0.3,
        "roughnessFactor": 0.38
      },
      "emissiveFactor": [
        0.82,
        0.2,
        0.025
      ]
    },
    {
      "name": "Wreck glass",
      "pbrMetallicRoughness": {
        "baseColorFactor": [
          0.2,
          0.34,
          0.35,
          0.42
        ],
        "metallicFactor": 0.12,
        "roughnessFactor": 0.18
      },
      "alphaMode": "BLEND",
      "emissiveFactor": [
        0.04,
        0.16,
        0.15
      ]
    }
  ],
  "accessors": [
    {
      "bufferView": 0,
      "componentType": 5126,
      "count": 1000,
      "type": "VEC3",
      "min": [
        -1.2,
        -0.42,
        -0.78
      ],
      "max": [
        1.2,
        0.42,
        0.78
      ]
    },
    {
      "bufferView": 1,
      "componentType": 5126,
      "count": 1000,
      "type": "VEC3"
    },
    {
      "bufferView": 2,
      "componentType": 5126,
      "count": 1000,
      "type": "VEC2"
    },
    {
      "bufferView": 3,
      "componentType": 5126,
      "count": 1000,
      "type": "VEC4"
    },
    {
      "bufferView": 4,
      "componentType": 5123,
      "count": 5760,
      "type": "SCALAR",
      "normalized": false
    },
    {
      "bufferView": 5,
      "componentType": 5126,
      "count": 672,
      "type": "VEC3",
      "min": [
        -0.97,
        -0.22,
        -0.62
      ],
      "max": [
        0.97,
        0.22,
        0.62
      ]
    },
    {
      "bufferView": 6,
      "componentType": 5126,
      "count": 672,
      "type": "VEC3"
    },
    {
      "bufferView": 7,
      "componentType": 5126,
      "count": 672,
      "type": "VEC2"
    },
    {
      "bufferView": 8,
      "componentType": 5126,
      "count": 672,
      "type": "VEC4"
    },
    {
      "bufferView": 9,
      "componentType": 5123,
      "count": 3840,
      "type": "SCALAR",
      "normalized": false
    },
    {
      "bufferView": 10,
      "componentType": 5126,
      "count": 96,
      "type": "VEC3",
      "min": [
        -0.64,
        -0.21,
        -0.44
      ],
      "max": [
        0.64,
        0.21,
        0.44
      ]
    },
    {
      "bufferView": 11,
      "componentType": 5126,
      "count": 96,
      "type": "VEC3"
    },
    {
      "bufferView": 12,
      "componentType": 5126,
      "count": 96,
      "type": "VEC2"
    },
    {
      "bufferView": 13,
      "componentType": 5126,
      "count": 96,
      "type": "VEC4"
    },
    {
      "bufferView": 14,
      "componentType": 5123,
      "count": 132,
      "type": "SCALAR",
      "normalized": false
    },
    {
      "bufferView": 15,
      "componentType": 5126,
      "count": 96,
      "type": "VEC3",
      "min": [
        -0.41,
        -0.0375,
        -0.26
      ],
      "max": [
        0.41,
        0.0375,
        0.26
      ]
    },
    {
      "bufferView": 16,
      "componentType": 5126,
      "count": 96,
      "type": "VEC3"
    },
    {
      "bufferView": 17,
      "componentType": 5126,
      "count": 96,
      "type": "VEC2"
    },
    {
      "bufferView": 18,
      "componentType": 5126,
      "count": 96,
      "type": "VEC4"
    },
    {
      "bufferView": 19,
      "componentType": 5123,
      "count": 132,
      "type": "SCALAR",
      "normalized": false
    },
    {
      "bufferView": 20,
      "componentType": 5126,
      "count": 96,
      "type": "VEC3",
      "min": [
        -0.21,
        -0.0275,
        -0.04
      ],
      "max": [
        0.21,
        0.0275,
        0.04
      ]
    },
    {
      "bufferView": 21,
      "componentType": 5126,
      "count": 96,
      "type": "VEC3"
    },
    {
      "bufferView": 22,
      "componentType": 5126,
      "count": 96,
      "type": "VEC2"
    },
    {
      "bufferView": 23,
      "componentType": 5126,
      "count": 96,
      "type": "VEC4"
    },
    {
      "bufferView": 24,
      "componentType": 5123,
      "count": 132,
      "type": "SCALAR",
      "normalized": false
    },
    {
      "bufferView": 25,
      "componentType": 5126,
      "count": 58,
      "type": "VEC3",
      "min": [
        -0.43,
        -0.14,
        -0.43
      ],
      "max": [
        0.43,
        0.14,
        0.43
      ]
    },
    {
      "bufferView": 26,
      "componentType": 5126,
      "count": 58,
      "type": "VEC3"
    },
    {
      "bufferView": 27,
      "componentType": 5126,
      "count": 58,
      "type": "VEC2"
    },
    {
      "bufferView": 28,
      "componentType": 5126,
      "count": 58,
      "type": "VEC4"
    },
    {
      "bufferView": 29,
      "componentType": 5123,
      "count": 336,
      "type": "SCALAR",
      "normalized": false
    },
    {
      "bufferView": 30,
      "componentType": 5126,
      "count": 58,
      "type": "VEC3",
      "min": [
        -0.18,
        -0.155,
        -0.18
      ],
      "max": [
        0.18,
        0.155,
        0.18
      ]
    },
    {
      "bufferView": 31,
      "componentType": 5126,
      "count": 58,
      "type": "VEC3"
    },
    {
      "bufferView": 32,
      "componentType": 5126,
      "count": 58,
      "type": "VEC2"
    },
    {
      "bufferView": 33,
      "componentType": 5126,
      "count": 58,
      "type": "VEC4"
    },
    {
      "bufferView": 34,
      "componentType": 5123,
      "count": 336,
      "type": "SCALAR",
      "normalized": false
    },
    {
      "bufferView": 35,
      "componentType": 5126,
      "count": 480,
      "type": "VEC3",
      "min": [
        -0.345,
        -0.035,
        -0.345
      ],
      "max": [
        0.345,
        0.035,
        0.345
      ]
    },
    {
      "bufferView": 36,
      "componentType": 5126,
      "count": 480,
      "type": "VEC3"
    },
    {
      "bufferView": 37,
      "componentType": 5126,
      "count": 480,
      "type": "VEC2"
    },
    {
      "bufferView": 38,
      "componentType": 5126,
      "count": 480,
      "type": "VEC4"
    },
    {
      "bufferView": 39,
      "componentType": 5123,
      "count": 2880,
      "type": "SCALAR",
      "normalized": false
    },
    {
      "bufferView": 40,
      "componentType": 5126,
      "count": 96,
      "type": "VEC3",
      "min": [
        -1.11,
        -0.05,
        -0.06
      ],
      "max": [
        1.11,
        0.05,
        0.06
      ]
    },
    {
      "bufferView": 41,
      "componentType": 5126,
      "count": 96,
      "type": "VEC3"
    },
    {
      "bufferView": 42,
      "componentType": 5126,
      "count": 96,
      "type": "VEC2"
    },
    {
      "bufferView": 43,
      "componentType": 5126,
      "count": 96,
      "type": "VEC4"
    },
    {
      "bufferView": 44,
      "componentType": 5123,
      "count": 132,
      "type": "SCALAR",
      "normalized": false
    },
    {
      "bufferView": 45,
      "componentType": 5126,
      "count": 96,
      "type": "VEC3",
      "min": [
        -0.44,
        -0.0275,
        -0.2
      ],
      "max": [
        0.44,
        0.0275,
        0.2
      ]
    },
    {
      "bufferView": 46,
      "componentType": 5126,
      "count": 96,
      "type": "VEC3"
    },
    {
      "bufferView": 47,
      "componentType": 5126,
      "count": 96,
      "type": "VEC2"
    },
    {
      "bufferView": 48,
      "componentType": 5126,
      "count": 96,
      "type": "VEC4"
    },
    {
      "bufferView": 49,
      "componentType": 5123,
      "count": 132,
      "type": "SCALAR",
      "normalized": false
    },
    {
      "bufferView": 50,
      "componentType": 5126,
      "count": 96,
      "type": "VEC3",
      "min": [
        -0.29,
        -0.013,
        -0.065
      ],
      "max": [
        0.29,
        0.013,
        0.065
      ]
    },
    {
      "bufferView": 51,
      "componentType": 5126,
      "count": 96,
      "type": "VEC3"
    },
    {
      "bufferView": 52,
      "componentType": 5126,
      "count": 96,
      "type": "VEC2"
    },
    {
      "bufferView": 53,
      "componentType": 5126,
      "count": 96,
      "type": "VEC4"
    },
    {
      "bufferView": 54,
      "componentType": 5123,
      "count": 132,
      "type": "SCALAR",
      "normalized": false
    },
    {
      "bufferView": 55,
      "componentType": 5126,
      "count": 50,
      "type": "VEC3",
      "min": [
        -0.055,
        -0.575,
        -0.055
      ],
      "max": [
        0.055,
        0.575,
        0.055
      ]
    },
    {
      "bufferView": 56,
      "componentType": 5126,
      "count": 50,
      "type": "VEC3"
    },
    {
      "bufferView": 57,
      "componentType": 5126,
      "count": 50,
      "type": "VEC2"
    },
    {
      "bufferView": 58,
      "componentType": 5126,
      "count": 50,
      "type": "VEC4"
    },
    {
      "bufferView": 59,
      "componentType": 5123,
      "count": 288,
      "type": "SCALAR",
      "normalized": false
    },
    {
      "bufferView": 60,
      "componentType": 5126,
      "count": 532,
      "type": "VEC3",
      "min": [
        -0.09,
        -0.09,
        -0.09
      ],
      "max": [
        0.09,
        0.09,
        0.09
      ]
    },
    {
      "bufferView": 61,
      "componentType": 5126,
      "count": 532,
      "type": "VEC3"
    },
    {
      "bufferView": 62,
      "componentType": 5126,
      "count": 532,
      "type": "VEC2"
    },
    {
      "bufferView": 63,
      "componentType": 5126,
      "count": 532,
      "type": "VEC4"
    },
    {
      "bufferView": 64,
      "componentType": 5123,
      "count": 3024,
      "type": "SCALAR",
      "normalized": false
    },
    {
      "bufferView": 65,
      "componentType": 5126,
      "count": 608,
      "type": "VEC3",
      "min": [
        -0.12,
        -0.12,
        -0.12
      ],
      "max": [
        0.12,
        0.12,
        0.12
      ]
    },
    {
      "bufferView": 66,
      "componentType": 5126,
      "count": 608,
      "type": "VEC3"
    },
    {
      "bufferView": 67,
      "componentType": 5126,
      "count": 608,
      "type": "VEC2"
    },
    {
      "bufferView": 68,
      "componentType": 5126,
      "count": 608,
      "type": "VEC4"
    },
    {
      "bufferView": 69,
      "componentType": 5123,
      "count": 3456,
      "type": "SCALAR",
      "normalized": false
    },
    {
      "bufferView": 70,
      "componentType": 5126,
      "count": 96,
      "type": "VEC3",
      "min": [
        -0.065,
        -0.03,
        -0.18
      ],
      "max": [
        0.065,
        0.03,
        0.18
      ]
    },
    {
      "bufferView": 71,
      "componentType": 5126,
      "count": 96,
      "type": "VEC3"
    },
    {
      "bufferView": 72,
      "componentType": 5126,
      "count": 96,
      "type": "VEC2"
    },
    {
      "bufferView": 73,
      "componentType": 5126,
      "count": 96,
      "type": "VEC4"
    },
    {
      "bufferView": 74,
      "componentType": 5123,
      "count": 132,
      "type": "SCALAR",
      "normalized": false
    },
    {
      "bufferView": 75,
      "componentType": 5126,
      "count": 96,
      "type": "VEC3",
      "min": [
        -0.17,
        -0.0175,
        -0.08
      ],
      "max": [
        0.17,
        0.0175,
        0.08
      ]
    },
    {
      "bufferView": 76,
      "componentType": 5126,
      "count": 96,
      "type": "VEC3"
    },
    {
      "bufferView": 77,
      "componentType": 5126,
      "count": 96,
      "type": "VEC2"
    },
    {
      "bufferView": 78,
      "componentType": 5126,
      "count": 96,
      "type": "VEC4"
    },
    {
      "bufferView": 79,
      "componentType": 5123,
      "count": 132,
      "type": "SCALAR",
      "normalized": false
    },
    {
      "bufferView": 80,
      "componentType": 5126,
      "count": 50,
      "type": "VEC3",
      "min": [
        -0.035,
        -0.02,
        -0.035
      ],
      "max": [
        0.035,
        0.02,
        0.035
      ]
    },
    {
      "bufferView": 81,
      "componentType": 5126,
      "count": 50,
      "type": "VEC3"
    },
    {
      "bufferView": 82,
      "componentType": 5126,
      "count": 50,
      "type": "VEC2"
    },
    {
      "bufferView": 83,
      "componentType": 5126,
      "count": 50,
      "type": "VEC4"
    },
    {
      "bufferView": 84,
      "componentType": 5123,
      "count": 288,
      "type": "SCALAR",
      "normalized": false
    },
    {
      "bufferView": 85,
      "componentType": 5126,
      "count": 50,
      "type": "VEC3",
      "min": [
        -0.055,
        -0.0225,
        -0.055
      ],
      "max": [
        0.055,
        0.0225,
        0.055
      ]
    },
    {
      "bufferView": 86,
      "componentType": 5126,
      "count": 50,
      "type": "VEC3"
    },
    {
      "bufferView": 87,
      "componentType": 5126,
      "count": 50,
      "type": "VEC2"
    },
    {
      "bufferView": 88,
      "componentType": 5126,
      "count": 50,
      "type": "VEC4"
    },
    {
      "bufferView": 89,
      "componentType": 5123,
      "count": 288,
      "type": "SCALAR",
      "normalized": false
    }
  ],
  "bufferViews": [
    {
      "buffer": 0,
      "byteOffset": 0,
      "byteLength": 12000,
      "target": 34962
    },
    {
      "buffer": 0,
      "byteOffset": 12000,
      "byteLength": 12000,
      "target": 34962
    },
    {
      "buffer": 0,
      "byteOffset": 24000,
      "byteLength": 8000,
      "target": 34962
    },
    {
      "buffer": 0,
      "byteOffset": 32000,
      "byteLength": 16000,
      "target": 34962
    },
    {
      "buffer": 0,
      "byteOffset": 48000,
      "byteLength": 11520,
      "target": 34963
    },
    {
      "buffer": 0,
      "byteOffset": 59520,
      "byteLength": 8064,
      "target": 34962
    },
    {
      "buffer": 0,
      "byteOffset": 67584,
      "byteLength": 8064,
      "target": 34962
    },
    {
      "buffer": 0,
      "byteOffset": 75648,
      "byteLength": 5376,
      "target": 34962
    },
    {
      "buffer": 0,
      "byteOffset": 81024,
      "byteLength": 10752,
      "target": 34962
    },
    {
      "buffer": 0,
      "byteOffset": 91776,
      "byteLength": 7680,
      "target": 34963
    },
    {
      "buffer": 0,
      "byteOffset": 99456,
      "byteLength": 1152,
      "target": 34962
    },
    {
      "buffer": 0,
      "byteOffset": 100608,
      "byteLength": 1152,
      "target": 34962
    },
    {
      "buffer": 0,
      "byteOffset": 101760,
      "byteLength": 768,
      "target": 34962
    },
    {
      "buffer": 0,
      "byteOffset": 102528,
      "byteLength": 1536,
      "target": 34962
    },
    {
      "buffer": 0,
      "byteOffset": 104064,
      "byteLength": 264,
      "target": 34963
    },
    {
      "buffer": 0,
      "byteOffset": 104328,
      "byteLength": 1152,
      "target": 34962
    },
    {
      "buffer": 0,
      "byteOffset": 105480,
      "byteLength": 1152,
      "target": 34962
    },
    {
      "buffer": 0,
      "byteOffset": 106632,
      "byteLength": 768,
      "target": 34962
    },
    {
      "buffer": 0,
      "byteOffset": 107400,
      "byteLength": 1536,
      "target": 34962
    },
    {
      "buffer": 0,
      "byteOffset": 108936,
      "byteLength": 264,
      "target": 34963
    },
    {
      "buffer": 0,
      "byteOffset": 109200,
      "byteLength": 1152,
      "target": 34962
    },
    {
      "buffer": 0,
      "byteOffset": 110352,
      "byteLength": 1152,
      "target": 34962
    },
    {
      "buffer": 0,
      "byteOffset": 111504,
      "byteLength": 768,
      "target": 34962
    },
    {
      "buffer": 0,
      "byteOffset": 112272,
      "byteLength": 1536,
      "target": 34962
    },
    {
      "buffer": 0,
      "byteOffset": 113808,
      "byteLength": 264,
      "target": 34963
    },
    {
      "buffer": 0,
      "byteOffset": 114072,
      "byteLength": 696,
      "target": 34962
    },
    {
      "buffer": 0,
      "byteOffset": 114768,
      "byteLength": 696,
      "target": 34962
    },
    {
      "buffer": 0,
      "byteOffset": 115464,
      "byteLength": 464,
      "target": 34962
    },
    {
      "buffer": 0,
      "byteOffset": 115928,
      "byteLength": 928,
      "target": 34962
    },
    {
      "buffer": 0,
      "byteOffset": 116856,
      "byteLength": 672,
      "target": 34963
    },
    {
      "buffer": 0,
      "byteOffset": 117528,
      "byteLength": 696,
      "target": 34962
    },
    {
      "buffer": 0,
      "byteOffset": 118224,
      "byteLength": 696,
      "target": 34962
    },
    {
      "buffer": 0,
      "byteOffset": 118920,
      "byteLength": 464,
      "target": 34962
    },
    {
      "buffer": 0,
      "byteOffset": 119384,
      "byteLength": 928,
      "target": 34962
    },
    {
      "buffer": 0,
      "byteOffset": 120312,
      "byteLength": 672,
      "target": 34963
    },
    {
      "buffer": 0,
      "byteOffset": 120984,
      "byteLength": 5760,
      "target": 34962
    },
    {
      "buffer": 0,
      "byteOffset": 126744,
      "byteLength": 5760,
      "target": 34962
    },
    {
      "buffer": 0,
      "byteOffset": 132504,
      "byteLength": 3840,
      "target": 34962
    },
    {
      "buffer": 0,
      "byteOffset": 136344,
      "byteLength": 7680,
      "target": 34962
    },
    {
      "buffer": 0,
      "byteOffset": 144024,
      "byteLength": 5760,
      "target": 34963
    },
    {
      "buffer": 0,
      "byteOffset": 149784,
      "byteLength": 1152,
      "target": 34962
    },
    {
      "buffer": 0,
      "byteOffset": 150936,
      "byteLength": 1152,
      "target": 34962
    },
    {
      "buffer": 0,
      "byteOffset": 152088,
      "byteLength": 768,
      "target": 34962
    },
    {
      "buffer": 0,
      "byteOffset": 152856,
      "byteLength": 1536,
      "target": 34962
    },
    {
      "buffer": 0,
      "byteOffset": 154392,
      "byteLength": 264,
      "target": 34963
    },
    {
      "buffer": 0,
      "byteOffset": 154656,
      "byteLength": 1152,
      "target": 34962
    },
    {
      "buffer": 0,
      "byteOffset": 155808,
      "byteLength": 1152,
      "target": 34962
    },
    {
      "buffer": 0,
      "byteOffset": 156960,
      "byteLength": 768,
      "target": 34962
    },
    {
      "buffer": 0,
      "byteOffset": 157728,
      "byteLength": 1536,
      "target": 34962
    },
    {
      "buffer": 0,
      "byteOffset": 159264,
      "byteLength": 264,
      "target": 34963
    },
    {
      "buffer": 0,
      "byteOffset": 159528,
      "byteLength": 1152,
      "target": 34962
    },
    {
      "buffer": 0,
      "byteOffset": 160680,
      "byteLength": 1152,
      "target": 34962
    },
    {
      "buffer": 0,
      "byteOffset": 161832,
      "byteLength": 768,
      "target": 34962
    },
    {
      "buffer": 0,
      "byteOffset": 162600,
      "byteLength": 1536,
      "target": 34962
    },
    {
      "buffer": 0,
      "byteOffset": 164136,
      "byteLength": 264,
      "target": 34963
    },
    {
      "buffer": 0,
      "byteOffset": 164400,
      "byteLength": 600,
      "target": 34962
    },
    {
      "buffer": 0,
      "byteOffset": 165000,
      "byteLength": 600,
      "target": 34962
    },
    {
      "buffer": 0,
      "byteOffset": 165600,
      "byteLength": 400,
      "target": 34962
    },
    {
      "buffer": 0,
      "byteOffset": 166000,
      "byteLength": 800,
      "target": 34962
    },
    {
      "buffer": 0,
      "byteOffset": 166800,
      "byteLength": 576,
      "target": 34963
    },
    {
      "buffer": 0,
      "byteOffset": 167376,
      "byteLength": 6384,
      "target": 34962
    },
    {
      "buffer": 0,
      "byteOffset": 173760,
      "byteLength": 6384,
      "target": 34962
    },
    {
      "buffer": 0,
      "byteOffset": 180144,
      "byteLength": 4256,
      "target": 34962
    },
    {
      "buffer": 0,
      "byteOffset": 184400,
      "byteLength": 8512,
      "target": 34962
    },
    {
      "buffer": 0,
      "byteOffset": 192912,
      "byteLength": 6048,
      "target": 34963
    },
    {
      "buffer": 0,
      "byteOffset": 198960,
      "byteLength": 7296,
      "target": 34962
    },
    {
      "buffer": 0,
      "byteOffset": 206256,
      "byteLength": 7296,
      "target": 34962
    },
    {
      "buffer": 0,
      "byteOffset": 213552,
      "byteLength": 4864,
      "target": 34962
    },
    {
      "buffer": 0,
      "byteOffset": 218416,
      "byteLength": 9728,
      "target": 34962
    },
    {
      "buffer": 0,
      "byteOffset": 228144,
      "byteLength": 6912,
      "target": 34963
    },
    {
      "buffer": 0,
      "byteOffset": 235056,
      "byteLength": 1152,
      "target": 34962
    },
    {
      "buffer": 0,
      "byteOffset": 236208,
      "byteLength": 1152,
      "target": 34962
    },
    {
      "buffer": 0,
      "byteOffset": 237360,
      "byteLength": 768,
      "target": 34962
    },
    {
      "buffer": 0,
      "byteOffset": 238128,
      "byteLength": 1536,
      "target": 34962
    },
    {
      "buffer": 0,
      "byteOffset": 239664,
      "byteLength": 264,
      "target": 34963
    },
    {
      "buffer": 0,
      "byteOffset": 239928,
      "byteLength": 1152,
      "target": 34962
    },
    {
      "buffer": 0,
      "byteOffset": 241080,
      "byteLength": 1152,
      "target": 34962
    },
    {
      "buffer": 0,
      "byteOffset": 242232,
      "byteLength": 768,
      "target": 34962
    },
    {
      "buffer": 0,
      "byteOffset": 243000,
      "byteLength": 1536,
      "target": 34962
    },
    {
      "buffer": 0,
      "byteOffset": 244536,
      "byteLength": 264,
      "target": 34963
    },
    {
      "buffer": 0,
      "byteOffset": 244800,
      "byteLength": 600,
      "target": 34962
    },
    {
      "buffer": 0,
      "byteOffset": 245400,
      "byteLength": 600,
      "target": 34962
    },
    {
      "buffer": 0,
      "byteOffset": 246000,
      "byteLength": 400,
      "target": 34962
    },
    {
      "buffer": 0,
      "byteOffset": 246400,
      "byteLength": 800,
      "target": 34962
    },
    {
      "buffer": 0,
      "byteOffset": 247200,
      "byteLength": 576,
      "target": 34963
    },
    {
      "buffer": 0,
      "byteOffset": 247776,
      "byteLength": 600,
      "target": 34962
    },
    {
      "buffer": 0,
      "byteOffset": 248376,
      "byteLength": 600,
      "target": 34962
    },
    {
      "buffer": 0,
      "byteOffset": 248976,
      "byteLength": 400,
      "target": 34962
    },
    {
      "buffer": 0,
      "byteOffset": 249376,
      "byteLength": 800,
      "target": 34962
    },
    {
      "buffer": 0,
      "byteOffset": 250176,
      "byteLength": 576,
      "target": 34963
    }
  ],
  "buffers": [
    {
      "byteLength": 250752,
      "uri": "data:application/octet-stream;base64,"
    }
  ],
  "extras": {
    "ironwright_asset_id": "salvage.opening_wreck.v1",
    "required_nodes": [
      "SalvageModel",
      "WreckChassis",
      "WreckCore",
      "WreckCabin",
      "WreckCabinHandle",
      "WreckServicePanel",
      "WreckStatusLens",
      "WreckPipeLeft",
      "WreckServiceLatch00",
      "BrokenGlassShard00",
      "ProductionAssetMarker"
    ]
  }
}
