{
  "asset": {
    "version": "2.0",
    "generator": "Project Ironwright original Roofleaper asset builder"
  },
  "scene": 0,
  "scenes": [
    {
      "name": "Roofleaper",
      "nodes": [
        0
      ]
    }
  ],
  "nodes": [
    {
      "name": "RoofleaperModel",
      "children": [
        1,
        27,
        28,
        29,
        30,
        31,
        32,
        33,
        34,
        35,
        36,
        37,
        38,
        39,
        40,
        41,
        42,
        43,
        44,
        45
      ],
      "extras": {
        "ironwright_asset_id": "roofleaper.ambusher.v1",
        "asset_quality": "authored_high_definition",
        "socket_contract": "crown, wing_membranes, talons, threat_eyes"
      }
    },
    {
      "name": "Torso",
      "translation": [
        0.0,
        0.0,
        0.0
      ],
      "extras": {
        "surface": "layered_wet_chitin"
      },
      "children": [
        2,
        3,
        4,
        5,
        6,
        7,
        8,
        9,
        10,
        11,
        12,
        13,
        14,
        15,
        16,
        17,
        18,
        19,
        20,
        21,
        22,
        23,
        24,
        25,
        26
      ]
    },
    {
      "name": "TorsoCore",
      "translation": [
        0.0,
        0.92,
        0.08
      ],
      "mesh": 0,
      "scale": [
        1.25,
        0.74,
        1.55
      ],
      "extras": {
        "release_material_family": "chitin"
      }
    },
    {
      "name": "TorsoSegment0",
      "translation": [
        0.0,
        0.89,
        -0.62
      ],
      "mesh": 1,
      "scale": [
        1.08,
        0.66,
        1.2
      ]
    },
    {
      "name": "RoofleaperThoraxRib",
      "translation": [
        0.0,
        1.35,
        -0.62
      ],
      "mesh": 3,
      "rotation": [
        0.0,
        0.0,
        -0.01499943750632809,
        0.9998875021093592
      ],
      "scale": [
        1.0,
        1.0,
        0.84
      ]
    },
    {
      "name": "ThoraxFastener",
      "translation": [
        -0.56,
        1.18,
        -0.62
      ],
      "mesh": 10
    },
    {
      "name": "ThoraxFastener",
      "translation": [
        0.56,
        1.18,
        -0.62
      ],
      "mesh": 10
    },
    {
      "name": "RoofleaperTorsoSurfaceVein0L",
      "translation": [
        -0.31,
        1.19,
        -1.1600000000000001
      ],
      "mesh": 12,
      "rotation": [
        0.0,
        0.0,
        -0.03998933418663416,
        0.9992001066609779
      ],
      "scale": [
        1.0,
        1.0,
        0.72
      ],
      "extras": {
        "surface": "vascular_surface_detail"
      }
    },
    {
      "name": "RoofleaperTorsoSurfaceVein0R",
      "translation": [
        0.31,
        1.19,
        -1.1600000000000001
      ],
      "mesh": 12,
      "rotation": [
        0.0,
        0.0,
        0.03998933418663416,
        0.9992001066609779
      ],
      "scale": [
        1.0,
        1.0,
        0.72
      ],
      "extras": {
        "surface": "vascular_surface_detail"
      }
    },
    {
      "name": "TorsoSegment1",
      "translation": [
        0.0,
        0.866,
        -0.19
      ],
      "mesh": 1,
      "scale": [
        1.04,
        0.66,
        1.168
      ]
    },
    {
      "name": "RoofleaperThoraxRib",
      "translation": [
        0.0,
        1.3050000000000002,
        -0.19
      ],
      "mesh": 3,
      "scale": [
        1.0,
        1.0,
        0.84
      ],
      "extras": {
        "surface": "layered_shell_break"
      }
    },
    {
      "name": "ThoraxFastener",
      "translation": [
        -0.56,
        1.18,
        -0.19
      ],
      "mesh": 10
    },
    {
      "name": "ThoraxFastener",
      "translation": [
        0.56,
        1.18,
        -0.19
      ],
      "mesh": 10
    },
    {
      "name": "RoofleaperTorsoSurfaceVein1L",
      "translation": [
        -0.31,
        1.19,
        -0.73
      ],
      "mesh": 12,
      "rotation": [
        0.0,
        0.0,
        -0.03998933418663416,
        0.9992001066609779
      ],
      "scale": [
        1.0,
        1.0,
        0.72
      ],
      "extras": {
        "surface": "vascular_surface_detail"
      }
    },
    {
      "name": "RoofleaperTorsoSurfaceVein1R",
      "translation": [
        0.31,
        1.19,
        -0.73
      ],
      "mesh": 12,
      "rotation": [
        0.0,
        0.0,
        0.03998933418663416,
        0.9992001066609779
      ],
      "scale": [
        1.0,
        1.0,
        0.72
      ],
      "extras": {
        "surface": "vascular_surface_detail"
      }
    },
    {
      "name": "TorsoSegment2",
      "translation": [
        0.0,
        0.842,
        0.24
      ],
      "mesh": 1,
      "scale": [
        1.0,
        0.66,
        1.136
      ]
    },
    {
      "name": "RoofleaperThoraxRib",
      "translation": [
        0.0,
        1.26,
        0.24
      ],
      "mesh": 3,
      "rotation": [
        0.0,
        0.0,
        0.01499943750632809,
        0.9998875021093592
      ],
      "scale": [
        1.0,
        1.0,
        0.84
      ]
    },
    {
      "name": "ThoraxFastener",
      "translation": [
        -0.56,
        1.18,
        0.24
      ],
      "mesh": 10
    },
    {
      "name": "ThoraxFastener",
      "translation": [
        0.56,
        1.18,
        0.24
      ],
      "mesh": 10
    },
    {
      "name": "RoofleaperTorsoSurfaceVein2L",
      "translation": [
        -0.31,
        1.19,
        -0.30000000000000004
      ],
      "mesh": 12,
      "rotation": [
        0.0,
        0.0,
        -0.03998933418663416,
        0.9992001066609779
      ],
      "scale": [
        1.0,
        1.0,
        0.72
      ],
      "extras": {
        "surface": "vascular_surface_detail"
      }
    },
    {
      "name": "RoofleaperTorsoSurfaceVein2R",
      "translation": [
        0.31,
        1.19,
        -0.30000000000000004
      ],
      "mesh": 12,
      "rotation": [
        0.0,
        0.0,
        0.03998933418663416,
        0.9992001066609779
      ],
      "scale": [
        1.0,
        1.0,
        0.72
      ],
      "extras": {
        "surface": "vascular_surface_detail"
      }
    },
    {
      "name": "TorsoSegment3",
      "translation": [
        0.0,
        0.8180000000000001,
        0.67
      ],
      "mesh": 1,
      "scale": [
        0.9600000000000001,
        0.66,
        1.1039999999999999
      ]
    },
    {
      "name": "RoofleaperThoraxRib",
      "translation": [
        0.0,
        1.215,
        0.67
      ],
      "mesh": 3,
      "rotation": [
        0.0,
        0.0,
        0.02999550020249566,
        0.9995500337489875
      ],
      "scale": [
        1.0,
        1.0,
        0.84
      ]
    },
    {
      "name": "ThoraxFastener",
      "translation": [
        -0.56,
        1.18,
        0.67
      ],
      "mesh": 10
    },
    {
      "name": "ThoraxFastener",
      "translation": [
        0.56,
        1.18,
        0.67
      ],
      "mesh": 10
    },
    {
      "name": "RoofleaperTorsoSurfaceVein3L",
      "translation": [
        -0.31,
        1.19,
        0.13
      ],
      "mesh": 12,
      "rotation": [
        0.0,
        0.0,
        -0.03998933418663416,
        0.9992001066609779
      ],
      "scale": [
        1.0,
        1.0,
        0.72
      ],
      "extras": {
        "surface": "vascular_surface_detail"
      }
    },
    {
      "name": "RoofleaperTorsoSurfaceVein3R",
      "translation": [
        0.31,
        1.19,
        0.13
      ],
      "mesh": 12,
      "rotation": [
        0.0,
        0.0,
        0.03998933418663416,
        0.9992001066609779
      ],
      "scale": [
        1.0,
        1.0,
        0.72
      ],
      "extras": {
        "surface": "vascular_surface_detail"
      }
    },
    {
      "name": "OrganicDorsalPlate",
      "translation": [
        -0.12,
        1.54,
        0.18
      ],
      "mesh": 3,
      "rotation": [
        0.0,
        0.0,
        -0.01999866669333308,
        0.9998000066665778
      ],
      "scale": [
        1.08,
        1.0,
        1.4
      ],
      "extras": {
        "surface": "beveled_layered_shell_break"
      }
    },
    {
      "name": "RoofleaperCrown",
      "translation": [
        0.0,
        1.3,
        -1.02
      ],
      "mesh": 9,
      "scale": [
        1.15,
        0.82,
        1.05
      ],
      "extras": {
        "socket_type": "crown"
      }
    },
    {
      "name": "RoofleaperCrownRidge0",
      "translation": [
        -0.22,
        1.58,
        -1.06
      ],
      "mesh": 13,
      "rotation": [
        -0.005589461240311497,
        -0.07971898290388295,
        -0.06971914956971628,
        0.9943605391763538
      ],
      "scale": [
        0.42,
        1.0,
        0.72
      ],
      "extras": {
        "surface": "crown_ridge"
      }
    },
    {
      "name": "RoofleaperCrownRidge1",
      "translation": [
        0.22,
        1.58,
        -1.06
      ],
      "mesh": 13,
      "rotation": [
        -0.005589461240311497,
        0.07971898290388295,
        0.06971914956971628,
        0.9943605391763538
      ],
      "scale": [
        0.42,
        1.0,
        0.72
      ],
      "extras": {
        "surface": "crown_ridge"
      }
    },
    {
      "name": "RoofleaperWingL",
      "translation": [
        -0.92,
        1.18,
        0.05
      ],
      "mesh": 4,
      "rotation": [
        -0.08396947783150321,
        -0.08550122071627803,
        -0.05679132946743477,
        0.9911677017266314
      ],
      "scale": [
        1.15,
        1.0,
        1.1
      ],
      "extras": {
        "socket_type": "wing_membrane"
      }
    },
    {
      "name": "RoofleaperWingFrameL",
      "translation": [
        -1.18,
        1.2,
        0.05
      ],
      "mesh": 16,
      "rotation": [
        -0.15303411746723375,
        -0.12750160348849693,
        -0.36142834345028885,
        0.9108751026071944
      ],
      "scale": [
        0.72,
        1.0,
        1.0
      ],
      "extras": {
        "surface": "wing_spar"
      }
    },
    {
      "name": "RoofleaperWingVeinL",
      "translation": [
        -1.12,
        1.2,
        0.05
      ],
      "mesh": 5,
      "rotation": [
        -0.15303411746723375,
        -0.12750160348849693,
        -0.36142834345028885,
        0.9108751026071944
      ],
      "scale": [
        0.6,
        1.0,
        1.0
      ]
    },
    {
      "name": "RoofleaperFineVeinL",
      "translation": [
        -0.92,
        1.2,
        0.04
      ],
      "mesh": 11,
      "rotation": [
        -0.11000419677007113,
        -0.14473920397466264,
        -0.15138240465825922,
        0.9716136099734479
      ],
      "scale": [
        0.72,
        1.0,
        0.88
      ],
      "extras": {
        "surface": "membrane_vascular_detail"
      }
    },
    {
      "name": "RoofleaperWingFastenerL",
      "translation": [
        -0.58,
        1.28,
        -0.02
      ],
      "mesh": 22,
      "extras": {
        "surface": "wing_socket"
      }
    },
    {
      "name": "RoofleaperTalonsL",
      "translation": [
        -0.54,
        0.3,
        -0.72
      ],
      "mesh": 6,
      "rotation": [
        -0.3694192552419519,
        0.03333779365868411,
        -0.08346703013711637,
        0.924906081854013
      ],
      "extras": {
        "socket_type": "talon"
      }
    },
    {
      "name": "RoofleaperEyeL",
      "translation": [
        -0.22,
        1.5,
        -1.45
      ],
      "mesh": 8,
      "extras": {
        "socket_type": "threat_eye"
      }
    },
    {
      "name": "RoofleaperWingR",
      "translation": [
        0.92,
        1.18,
        0.05
      ],
      "mesh": 4,
      "rotation": [
        0.07501410120698596,
        0.09345703061502153,
        0.04244404876157959,
        0.9918856641636957
      ],
      "scale": [
        1.15,
        1.0,
        1.1
      ],
      "extras": {
        "socket_type": "wing_membrane"
      }
    },
    {
      "name": "RoofleaperWingFrameR",
      "translation": [
        1.18,
        1.2,
        0.05
      ],
      "mesh": 16,
      "rotation": [
        0.030979323273787662,
        0.19676478732387853,
        0.3288931814597966,
        0.9231214303590509
      ],
      "scale": [
        0.72,
        1.0,
        1.0
      ],
      "extras": {
        "surface": "wing_spar"
      }
    },
    {
      "name": "RoofleaperWingVeinR",
      "translation": [
        1.12,
        1.2,
        0.05
      ],
      "mesh": 5,
      "rotation": [
        0.030979323273787662,
        0.19676478732387853,
        0.3288931814597966,
        0.9231214303590509
      ],
      "scale": [
        0.6,
        1.0,
        1.0
      ]
    },
    {
      "name": "RoofleaperFineVeinR",
      "translation": [
        0.92,
        1.2,
        0.04
      ],
      "mesh": 11,
      "rotation": [
        0.06572063495581355,
        0.1695026802597889,
        0.12302402607655025,
        0.9756099264222707
      ],
      "scale": [
        0.72,
        1.0,
        0.88
      ],
      "extras": {
        "surface": "membrane_vascular_detail"
      }
    },
    {
      "name": "RoofleaperWingFastenerR",
      "translation": [
        0.58,
        1.28,
        -0.02
      ],
      "mesh": 22,
      "extras": {
        "surface": "wing_socket"
      }
    },
    {
      "name": "RoofleaperTalonsR",
      "translation": [
        0.54,
        0.3,
        -0.72
      ],
      "mesh": 6,
      "rotation": [
        0.3694192552419519,
        0.03333779365868411,
        0.08346703013711637,
        0.924906081854013
      ],
      "extras": {
        "socket_type": "talon"
      }
    },
    {
      "name": "RoofleaperEyeR",
      "translation": [
        0.22,
        1.5,
        -1.45
      ],
      "mesh": 8,
      "extras": {
        "socket_type": "threat_eye"
      }
    },
    {
      "name": "ProductionAssetMarker",
      "translation": [
        0.0,
        0.0,
        0.0
      ],
      "extras": {
        "asset_contract": "roofleaper.ambusher.v1",
        "source": "original_shared_mesh_builder"
      }
    }
  ],
  "meshes": [
    {
      "name": "Core",
      "primitives": [
        {
          "attributes": {
            "POSITION": 0,
            "NORMAL": 1
          },
          "indices": 2,
          "material": 0
        }
      ]
    },
    {
      "name": "Segment",
      "primitives": [
        {
          "attributes": {
            "POSITION": 3,
            "NORMAL": 4
          },
          "indices": 5,
          "material": 1
        }
      ]
    },
    {
      "name": "Plate",
      "primitives": [
        {
          "attributes": {
            "POSITION": 6,
            "NORMAL": 7
          },
          "indices": 8,
          "material": 1
        }
      ]
    },
    {
      "name": "ShellPlate",
      "primitives": [
        {
          "attributes": {
            "POSITION": 9,
            "NORMAL": 10
          },
          "indices": 11,
          "material": 1
        }
      ]
    },
    {
      "name": "Membrane",
      "primitives": [
        {
          "attributes": {
            "POSITION": 12,
            "NORMAL": 13
          },
          "indices": 14,
          "material": 2
        }
      ]
    },
    {
      "name": "Bone",
      "primitives": [
        {
          "attributes": {
            "POSITION": 15,
            "NORMAL": 16
          },
          "indices": 17,
          "material": 3
        }
      ]
    },
    {
      "name": "LongBone",
      "primitives": [
        {
          "attributes": {
            "POSITION": 18,
            "NORMAL": 19
          },
          "indices": 20,
          "material": 3
        }
      ]
    },
    {
      "name": "Tendon",
      "primitives": [
        {
          "attributes": {
            "POSITION": 21,
            "NORMAL": 22
          },
          "indices": 23,
          "material": 5
        }
      ]
    },
    {
      "name": "Eye",
      "primitives": [
        {
          "attributes": {
            "POSITION": 24,
            "NORMAL": 25
          },
          "indices": 26,
          "material": 4
        }
      ]
    },
    {
      "name": "Soft",
      "primitives": [
        {
          "attributes": {
            "POSITION": 27,
            "NORMAL": 28
          },
          "indices": 29,
          "material": 2
        }
      ]
    },
    {
      "name": "Fastener",
      "primitives": [
        {
          "attributes": {
            "POSITION": 30,
            "NORMAL": 31
          },
          "indices": 32,
          "material": 3
        }
      ]
    },
    {
      "name": "FineVein",
      "primitives": [
        {
          "attributes": {
            "POSITION": 33,
            "NORMAL": 34
          },
          "indices": 35,
          "material": 3
        }
      ]
    },
    {
      "name": "SurfaceVein",
      "primitives": [
        {
          "attributes": {
            "POSITION": 36,
            "NORMAL": 37
          },
          "indices": 38,
          "material": 5
        }
      ]
    },
    {
      "name": "Ridge",
      "primitives": [
        {
          "attributes": {
            "POSITION": 39,
            "NORMAL": 40
          },
          "indices": 41,
          "material": 3
        }
      ]
    },
    {
      "name": "ResonatorRing",
      "primitives": [
        {
          "attributes": {
            "POSITION": 42,
            "NORMAL": 43
          },
          "indices": 44,
          "material": 3
        }
      ]
    },
    {
      "name": "RootKnuckle",
      "primitives": [
        {
          "attributes": {
            "POSITION": 45,
            "NORMAL": 46
          },
          "indices": 47,
          "material": 3
        }
      ]
    },
    {
      "name": "WingFrame",
      "primitives": [
        {
          "attributes": {
            "POSITION": 48,
            "NORMAL": 49
          },
          "indices": 50,
          "material": 3
        }
      ]
    },
    {
      "name": "MembraneRib",
      "primitives": [
        {
          "attributes": {
            "POSITION": 51,
            "NORMAL": 52
          },
          "indices": 53,
          "material": 3
        }
      ]
    },
    {
      "name": "GillSpine",
      "primitives": [
        {
          "attributes": {
            "POSITION": 54,
            "NORMAL": 55
          },
          "indices": 56,
          "material": 3
        }
      ]
    },
    {
      "name": "BellRib",
      "primitives": [
        {
          "attributes": {
            "POSITION": 57,
            "NORMAL": 58
          },
          "indices": 59,
          "material": 3
        }
      ]
    },
    {
      "name": "RootSpine",
      "primitives": [
        {
          "attributes": {
            "POSITION": 60,
            "NORMAL": 61
          },
          "indices": 62,
          "material": 3
        }
      ]
    },
    {
      "name": "PlateCap",
      "primitives": [
        {
          "attributes": {
            "POSITION": 63,
            "NORMAL": 64
          },
          "indices": 65,
          "material": 3
        }
      ]
    },
    {
      "name": "CrownFastener",
      "primitives": [
        {
          "attributes": {
            "POSITION": 66,
            "NORMAL": 67
          },
          "indices": 68,
          "material": 3
        }
      ]
    }
  ],
  "materials": [
    {
      "name": "Roofleaper wet shell",
      "pbrMetallicRoughness": {
        "baseColorFactor": [
          0.035,
          0.055,
          0.07,
          1.0
        ],
        "metallicFactor": 0.18,
        "roughnessFactor": 0.32
      }
    },
    {
      "name": "Roofleaper layered plate",
      "pbrMetallicRoughness": {
        "baseColorFactor": [
          0.16,
          0.22,
          0.25,
          1.0
        ],
        "metallicFactor": 0.14,
        "roughnessFactor": 0.42
      }
    },
    {
      "name": "Roofleaper membrane",
      "pbrMetallicRoughness": {
        "baseColorFactor": [
          0.062,
          0.1736,
          0.21080000000000002,
          1.0
        ],
        "metallicFactor": 0.02,
        "roughnessFactor": 0.58
      }
    },
    {
      "name": "Roofleaper bone",
      "pbrMetallicRoughness": {
        "baseColorFactor": [
          0.48,
          0.39,
          0.28,
          1.0
        ],
        "metallicFactor": 0.0,
        "roughnessFactor": 0.62
      }
    },
    {
      "name": "Roofleaper threat light",
      "pbrMetallicRoughness": {
        "baseColorFactor": [
          0.75,
          0.22,
          0.04,
          1.0
        ],
        "metallicFactor": 0.0,
        "roughnessFactor": 0.22
      },
      "emissiveFactor": [
        1.0,
        0.18,
        0.04
      ]
    },
    {
      "name": "Roofleaper tendon",
      "pbrMetallicRoughness": {
        "baseColorFactor": [
          0.3,
          0.09,
          0.08,
          1.0
        ],
        "metallicFactor": 0.0,
        "roughnessFactor": 0.55
      }
    }
  ],
  "accessors": [
    {
      "bufferView": 0,
      "componentType": 5126,
      "count": 900,
      "type": "VEC3",
      "min": [
        -0.62,
        -0.62,
        -0.62
      ],
      "max": [
        0.62,
        0.62,
        0.62
      ]
    },
    {
      "bufferView": 1,
      "componentType": 5126,
      "count": 900,
      "type": "VEC3"
    },
    {
      "bufferView": 2,
      "componentType": 5123,
      "count": 5184,
      "type": "SCALAR",
      "normalized": false
    },
    {
      "bufferView": 3,
      "componentType": 5126,
      "count": 900,
      "type": "VEC3",
      "min": [
        -0.48,
        -0.48,
        -0.48
      ],
      "max": [
        0.48,
        0.48,
        0.48
      ]
    },
    {
      "bufferView": 4,
      "componentType": 5126,
      "count": 900,
      "type": "VEC3"
    },
    {
      "bufferView": 5,
      "componentType": 5123,
      "count": 5184,
      "type": "SCALAR",
      "normalized": false
    },
    {
      "bufferView": 6,
      "componentType": 5126,
      "count": 290,
      "type": "VEC3",
      "min": [
        -0.76,
        -0.08,
        -0.14
      ],
      "max": [
        0.76,
        0.08,
        0.14
      ]
    },
    {
      "bufferView": 7,
      "componentType": 5126,
      "count": 290,
      "type": "VEC3"
    },
    {
      "bufferView": 8,
      "componentType": 5123,
      "count": 1440,
      "type": "SCALAR",
      "normalized": false
    },
    {
      "bufferView": 9,
      "componentType": 5126,
      "count": 684,
      "type": "VEC3",
      "min": [
        -0.76,
        -0.13,
        -0.28
      ],
      "max": [
        0.76,
        0.13,
        0.28
      ]
    },
    {
      "bufferView": 10,
      "componentType": 5126,
      "count": 684,
      "type": "VEC3"
    },
    {
      "bufferView": 11,
      "componentType": 5123,
      "count": 3888,
      "type": "SCALAR",
      "normalized": false
    },
    {
      "bufferView": 12,
      "componentType": 5126,
      "count": 684,
      "type": "VEC3",
      "min": [
        -0.63,
        -0.11,
        -0.54
      ],
      "max": [
        0.63,
        0.11,
        0.54
      ]
    },
    {
      "bufferView": 13,
      "componentType": 5126,
      "count": 684,
      "type": "VEC3"
    },
    {
      "bufferView": 14,
      "componentType": 5123,
      "count": 3888,
      "type": "SCALAR",
      "normalized": false
    },
    {
      "bufferView": 15,
      "componentType": 5126,
      "count": 336,
      "type": "VEC3",
      "min": [
        -0.09,
        -0.42999999999999994,
        -0.09
      ],
      "max": [
        0.09,
        0.42999999999999994,
        0.09
      ]
    },
    {
      "bufferView": 16,
      "componentType": 5126,
      "count": 336,
      "type": "VEC3"
    },
    {
      "bufferView": 17,
      "componentType": 5123,
      "count": 1872,
      "type": "SCALAR",
      "normalized": false
    },
    {
      "bufferView": 18,
      "componentType": 5126,
      "count": 336,
      "type": "VEC3",
      "min": [
        -0.065,
        -0.675,
        -0.065
      ],
      "max": [
        0.065,
        0.675,
        0.065
      ]
    },
    {
      "bufferView": 19,
      "componentType": 5126,
      "count": 336,
      "type": "VEC3"
    },
    {
      "bufferView": 20,
      "componentType": 5123,
      "count": 1872,
      "type": "SCALAR",
      "normalized": false
    },
    {
      "bufferView": 21,
      "componentType": 5126,
      "count": 336,
      "type": "VEC3",
      "min": [
        -0.07,
        -0.575,
        -0.07
      ],
      "max": [
        0.07,
        0.575,
        0.07
      ]
    },
    {
      "bufferView": 22,
      "componentType": 5126,
      "count": 336,
      "type": "VEC3"
    },
    {
      "bufferView": 23,
      "componentType": 5123,
      "count": 1872,
      "type": "SCALAR",
      "normalized": false
    },
    {
      "bufferView": 24,
      "componentType": 5126,
      "count": 900,
      "type": "VEC3",
      "min": [
        -0.095,
        -0.095,
        -0.095
      ],
      "max": [
        0.095,
        0.095,
        0.095
      ]
    },
    {
      "bufferView": 25,
      "componentType": 5126,
      "count": 900,
      "type": "VEC3"
    },
    {
      "bufferView": 26,
      "componentType": 5123,
      "count": 5184,
      "type": "SCALAR",
      "normalized": false
    },
    {
      "bufferView": 27,
      "componentType": 5126,
      "count": 900,
      "type": "VEC3",
      "min": [
        -0.34,
        -0.34,
        -0.34
      ],
      "max": [
        0.34,
        0.34,
        0.34
      ]
    },
    {
      "bufferView": 28,
      "componentType": 5126,
      "count": 900,
      "type": "VEC3"
    },
    {
      "bufferView": 29,
      "componentType": 5123,
      "count": 5184,
      "type": "SCALAR",
      "normalized": false
    },
    {
      "bufferView": 30,
      "componentType": 5126,
      "count": 900,
      "type": "VEC3",
      "min": [
        -0.045,
        -0.045,
        -0.045
      ],
      "max": [
        0.045,
        0.045,
        0.045
      ]
    },
    {
      "bufferView": 31,
      "componentType": 5126,
      "count": 900,
      "type": "VEC3"
    },
    {
      "bufferView": 32,
      "componentType": 5123,
      "count": 5184,
      "type": "SCALAR",
      "normalized": false
    },
    {
      "bufferView": 33,
      "componentType": 5126,
      "count": 336,
      "type": "VEC3",
      "min": [
        -0.026,
        -0.61,
        -0.026
      ],
      "max": [
        0.026,
        0.61,
        0.026
      ]
    },
    {
      "bufferView": 34,
      "componentType": 5126,
      "count": 336,
      "type": "VEC3"
    },
    {
      "bufferView": 35,
      "componentType": 5123,
      "count": 1872,
      "type": "SCALAR",
      "normalized": false
    },
    {
      "bufferView": 36,
      "componentType": 5126,
      "count": 336,
      "type": "VEC3",
      "min": [
        -0.024,
        -0.44,
        -0.024
      ],
      "max": [
        0.024,
        0.44,
        0.024
      ]
    },
    {
      "bufferView": 37,
      "componentType": 5126,
      "count": 336,
      "type": "VEC3"
    },
    {
      "bufferView": 38,
      "componentType": 5123,
      "count": 1872,
      "type": "SCALAR",
      "normalized": false
    },
    {
      "bufferView": 39,
      "componentType": 5126,
      "count": 96,
      "type": "VEC3",
      "min": [
        -0.62,
        -0.035,
        -0.05
      ],
      "max": [
        0.62,
        0.035,
        0.05
      ]
    },
    {
      "bufferView": 40,
      "componentType": 5126,
      "count": 96,
      "type": "VEC3"
    },
    {
      "bufferView": 41,
      "componentType": 5123,
      "count": 132,
      "type": "SCALAR",
      "normalized": false
    },
    {
      "bufferView": 42,
      "componentType": 5126,
      "count": 360,
      "type": "VEC3",
      "min": [
        -0.225,
        -0.03328697807033038,
        -0.225
      ],
      "max": [
        0.225,
        0.03328697807033038,
        0.225
      ]
    },
    {
      "bufferView": 43,
      "componentType": 5126,
      "count": 360,
      "type": "VEC3"
    },
    {
      "bufferView": 44,
      "componentType": 5123,
      "count": 2160,
      "type": "SCALAR",
      "normalized": false
    },
    {
      "bufferView": 45,
      "componentType": 5126,
      "count": 900,
      "type": "VEC3",
      "min": [
        -0.14,
        -0.14,
        -0.14
      ],
      "max": [
        0.14,
        0.14,
        0.14
      ]
    },
    {
      "bufferView": 46,
      "componentType": 5126,
      "count": 900,
      "type": "VEC3"
    },
    {
      "bufferView": 47,
      "componentType": 5123,
      "count": 5184,
      "type": "SCALAR",
      "normalized": false
    },
    {
      "bufferView": 48,
      "componentType": 5126,
      "count": 336,
      "type": "VEC3",
      "min": [
        -0.045,
        -0.79,
        -0.045
      ],
      "max": [
        0.045,
        0.79,
        0.045
      ]
    },
    {
      "bufferView": 49,
      "componentType": 5126,
      "count": 336,
      "type": "VEC3"
    },
    {
      "bufferView": 50,
      "componentType": 5123,
      "count": 1872,
      "type": "SCALAR",
      "normalized": false
    },
    {
      "bufferView": 51,
      "componentType": 5126,
      "count": 336,
      "type": "VEC3",
      "min": [
        -0.03,
        -0.41000000000000003,
        -0.03
      ],
      "max": [
        0.03,
        0.41000000000000003,
        0.03
      ]
    },
    {
      "bufferView": 52,
      "componentType": 5126,
      "count": 336,
      "type": "VEC3"
    },
    {
      "bufferView": 53,
      "componentType": 5123,
      "count": 1872,
      "type": "SCALAR",
      "normalized": false
    },
    {
      "bufferView": 54,
      "componentType": 5126,
      "count": 336,
      "type": "VEC3",
      "min": [
        -0.045,
        -0.39,
        -0.045
      ],
      "max": [
        0.045,
        0.39,
        0.045
      ]
    },
    {
      "bufferView": 55,
      "componentType": 5126,
      "count": 336,
      "type": "VEC3"
    },
    {
      "bufferView": 56,
      "componentType": 5123,
      "count": 1872,
      "type": "SCALAR",
      "normalized": false
    },
    {
      "bufferView": 57,
      "componentType": 5126,
      "count": 336,
      "type": "VEC3",
      "min": [
        -0.04,
        -0.46,
        -0.04
      ],
      "max": [
        0.04,
        0.46,
        0.04
      ]
    },
    {
      "bufferView": 58,
      "componentType": 5126,
      "count": 336,
      "type": "VEC3"
    },
    {
      "bufferView": 59,
      "componentType": 5123,
      "count": 1872,
      "type": "SCALAR",
      "normalized": false
    },
    {
      "bufferView": 60,
      "componentType": 5126,
      "count": 336,
      "type": "VEC3",
      "min": [
        -0.055,
        -0.71,
        -0.055
      ],
      "max": [
        0.055,
        0.71,
        0.055
      ]
    },
    {
      "bufferView": 61,
      "componentType": 5126,
      "count": 336,
      "type": "VEC3"
    },
    {
      "bufferView": 62,
      "componentType": 5123,
      "count": 1872,
      "type": "SCALAR",
      "normalized": false
    },
    {
      "bufferView": 63,
      "componentType": 5126,
      "count": 242,
      "type": "VEC3",
      "min": [
        -0.22,
        -0.05,
        -0.09
      ],
      "max": [
        0.22,
        0.05,
        0.09
      ]
    },
    {
      "bufferView": 64,
      "componentType": 5126,
      "count": 242,
      "type": "VEC3"
    },
    {
      "bufferView": 65,
      "componentType": 5123,
      "count": 1152,
      "type": "SCALAR",
      "normalized": false
    },
    {
      "bufferView": 66,
      "componentType": 5126,
      "count": 900,
      "type": "VEC3",
      "min": [
        -0.06,
        -0.06,
        -0.06
      ],
      "max": [
        0.06,
        0.06,
        0.06
      ]
    },
    {
      "bufferView": 67,
      "componentType": 5126,
      "count": 900,
      "type": "VEC3"
    },
    {
      "bufferView": 68,
      "componentType": 5123,
      "count": 5184,
      "type": "SCALAR",
      "normalized": false
    },
    {
      "bufferView": 69,
      "componentType": 5126,
      "count": 3,
      "type": "SCALAR",
      "min": [
        0.0
      ],
      "max": [
        1.6
      ]
    },
    {
      "bufferView": 70,
      "componentType": 5126,
      "count": 3,
      "type": "VEC3"
    },
    {
      "bufferView": 71,
      "componentType": 5126,
      "count": 3,
      "type": "SCALAR",
      "min": [
        0.0
      ],
      "max": [
        1.6
      ]
    },
    {
      "bufferView": 72,
      "componentType": 5126,
      "count": 3,
      "type": "VEC4"
    },
    {
      "bufferView": 73,
      "componentType": 5126,
      "count": 3,
      "type": "SCALAR",
      "min": [
        0.0
      ],
      "max": [
        1.6
      ]
    },
    {
      "bufferView": 74,
      "componentType": 5126,
      "count": 3,
      "type": "VEC4"
    },
    {
      "bufferView": 75,
      "componentType": 5126,
      "count": 3,
      "type": "SCALAR",
      "min": [
        0.0
      ],
      "max": [
        1.6
      ]
    },
    {
      "bufferView": 76,
      "componentType": 5126,
      "count": 3,
      "type": "VEC4"
    },
    {
      "bufferView": 77,
      "componentType": 5126,
      "count": 3,
      "type": "SCALAR",
      "min": [
        0.0
      ],
      "max": [
        1.6
      ]
    },
    {
      "bufferView": 78,
      "componentType": 5126,
      "count": 3,
      "type": "VEC4"
    },
    {
      "bufferView": 79,
      "componentType": 5126,
      "count": 3,
      "type": "SCALAR",
      "min": [
        0.0
      ],
      "max": [
        1.6
      ]
    },
    {
      "bufferView": 80,
      "componentType": 5126,
      "count": 3,
      "type": "VEC4"
    },
    {
      "bufferView": 81,
      "componentType": 5126,
      "count": 3,
      "type": "SCALAR",
      "min": [
        0.0
      ],
      "max": [
        0.44
      ]
    },
    {
      "bufferView": 82,
      "componentType": 5126,
      "count": 3,
      "type": "VEC4"
    },
    {
      "bufferView": 83,
      "componentType": 5126,
      "count": 3,
      "type": "SCALAR",
      "min": [
        0.0
      ],
      "max": [
        0.44
      ]
    },
    {
      "bufferView": 84,
      "componentType": 5126,
      "count": 3,
      "type": "VEC4"
    },
    {
      "bufferView": 85,
      "componentType": 5126,
      "count": 3,
      "type": "SCALAR",
      "min": [
        0.0
      ],
      "max": [
        0.44
      ]
    },
    {
      "bufferView": 86,
      "componentType": 5126,
      "count": 3,
      "type": "VEC4"
    },
    {
      "bufferView": 87,
      "componentType": 5126,
      "count": 3,
      "type": "SCALAR",
      "min": [
        0.0
      ],
      "max": [
        0.44
      ]
    },
    {
      "bufferView": 88,
      "componentType": 5126,
      "count": 3,
      "type": "VEC4"
    },
    {
      "bufferView": 89,
      "componentType": 5126,
      "count": 3,
      "type": "SCALAR",
      "min": [
        0.0
      ],
      "max": [
        0.44
      ]
    },
    {
      "bufferView": 90,
      "componentType": 5126,
      "count": 3,
      "type": "VEC4"
    },
    {
      "bufferView": 91,
      "componentType": 5126,
      "count": 3,
      "type": "SCALAR",
      "min": [
        0.0
      ],
      "max": [
        0.44
      ]
    },
    {
      "bufferView": 92,
      "componentType": 5126,
      "count": 3,
      "type": "VEC4"
    },
    {
      "bufferView": 93,
      "componentType": 5126,
      "count": 3,
      "type": "SCALAR",
      "min": [
        0.0
      ],
      "max": [
        0.48
      ]
    },
    {
      "bufferView": 94,
      "componentType": 5126,
      "count": 3,
      "type": "VEC3"
    },
    {
      "bufferView": 95,
      "componentType": 5126,
      "count": 3,
      "type": "SCALAR",
      "min": [
        0.0
      ],
      "max": [
        0.48
      ]
    },
    {
      "bufferView": 96,
      "componentType": 5126,
      "count": 3,
      "type": "VEC4"
    },
    {
      "bufferView": 97,
      "componentType": 5126,
      "count": 3,
      "type": "SCALAR",
      "min": [
        0.0
      ],
      "max": [
        0.48
      ]
    },
    {
      "bufferView": 98,
      "componentType": 5126,
      "count": 3,
      "type": "VEC4"
    },
    {
      "bufferView": 99,
      "componentType": 5126,
      "count": 3,
      "type": "SCALAR",
      "min": [
        0.0
      ],
      "max": [
        0.48
      ]
    },
    {
      "bufferView": 100,
      "componentType": 5126,
      "count": 3,
      "type": "VEC4"
    },
    {
      "bufferView": 101,
      "componentType": 5126,
      "count": 3,
      "type": "SCALAR",
      "min": [
        0.0
      ],
      "max": [
        0.48
      ]
    },
    {
      "bufferView": 102,
      "componentType": 5126,
      "count": 3,
      "type": "VEC4"
    },
    {
      "bufferView": 103,
      "componentType": 5126,
      "count": 3,
      "type": "SCALAR",
      "min": [
        0.0
      ],
      "max": [
        0.48
      ]
    },
    {
      "bufferView": 104,
      "componentType": 5126,
      "count": 3,
      "type": "VEC4"
    },
    {
      "bufferView": 105,
      "componentType": 5126,
      "count": 3,
      "type": "SCALAR",
      "min": [
        0.0
      ],
      "max": [
        0.48
      ]
    },
    {
      "bufferView": 106,
      "componentType": 5126,
      "count": 3,
      "type": "VEC4"
    },
    {
      "bufferView": 107,
      "componentType": 5126,
      "count": 3,
      "type": "SCALAR",
      "min": [
        0.0
      ],
      "max": [
        0.48
      ]
    },
    {
      "bufferView": 108,
      "componentType": 5126,
      "count": 3,
      "type": "VEC4"
    },
    {
      "bufferView": 109,
      "componentType": 5126,
      "count": 3,
      "type": "SCALAR",
      "min": [
        0.0
      ],
      "max": [
        0.24
      ]
    },
    {
      "bufferView": 110,
      "componentType": 5126,
      "count": 3,
      "type": "VEC3"
    },
    {
      "bufferView": 111,
      "componentType": 5126,
      "count": 3,
      "type": "SCALAR",
      "min": [
        0.0
      ],
      "max": [
        0.24
      ]
    },
    {
      "bufferView": 112,
      "componentType": 5126,
      "count": 3,
      "type": "VEC4"
    },
    {
      "bufferView": 113,
      "componentType": 5126,
      "count": 3,
      "type": "SCALAR",
      "min": [
        0.0
      ],
      "max": [
        0.24
      ]
    },
    {
      "bufferView": 114,
      "componentType": 5126,
      "count": 3,
      "type": "VEC4"
    },
    {
      "bufferView": 115,
      "componentType": 5126,
      "count": 3,
      "type": "SCALAR",
      "min": [
        0.0
      ],
      "max": [
        0.24
      ]
    },
    {
      "bufferView": 116,
      "componentType": 5126,
      "count": 3,
      "type": "VEC4"
    },
    {
      "bufferView": 117,
      "componentType": 5126,
      "count": 3,
      "type": "SCALAR",
      "min": [
        0.0
      ],
      "max": [
        0.24
      ]
    },
    {
      "bufferView": 118,
      "componentType": 5126,
      "count": 3,
      "type": "VEC4"
    },
    {
      "bufferView": 119,
      "componentType": 5126,
      "count": 3,
      "type": "SCALAR",
      "min": [
        0.0
      ],
      "max": [
        0.6
      ]
    },
    {
      "bufferView": 120,
      "componentType": 5126,
      "count": 3,
      "type": "VEC3"
    },
    {
      "bufferView": 121,
      "componentType": 5126,
      "count": 3,
      "type": "SCALAR",
      "min": [
        0.0
      ],
      "max": [
        0.6
      ]
    },
    {
      "bufferView": 122,
      "componentType": 5126,
      "count": 3,
      "type": "VEC4"
    },
    {
      "bufferView": 123,
      "componentType": 5126,
      "count": 3,
      "type": "SCALAR",
      "min": [
        0.0
      ],
      "max": [
        0.6
      ]
    },
    {
      "bufferView": 124,
      "componentType": 5126,
      "count": 3,
      "type": "VEC4"
    },
    {
      "bufferView": 125,
      "componentType": 5126,
      "count": 3,
      "type": "SCALAR",
      "min": [
        0.0
      ],
      "max": [
        0.6
      ]
    },
    {
      "bufferView": 126,
      "componentType": 5126,
      "count": 3,
      "type": "VEC4"
    },
    {
      "bufferView": 127,
      "componentType": 5126,
      "count": 3,
      "type": "SCALAR",
      "min": [
        0.0
      ],
      "max": [
        0.6
      ]
    },
    {
      "bufferView": 128,
      "componentType": 5126,
      "count": 3,
      "type": "VEC4"
    },
    {
      "bufferView": 129,
      "componentType": 5126,
      "count": 3,
      "type": "SCALAR",
      "min": [
        0.0
      ],
      "max": [
        1.0
      ]
    },
    {
      "bufferView": 130,
      "componentType": 5126,
      "count": 3,
      "type": "VEC3"
    },
    {
      "bufferView": 131,
      "componentType": 5126,
      "count": 3,
      "type": "SCALAR",
      "min": [
        0.0
      ],
      "max": [
        1.0
      ]
    },
    {
      "bufferView": 132,
      "componentType": 5126,
      "count": 3,
      "type": "VEC4"
    },
    {
      "bufferView": 133,
      "componentType": 5126,
      "count": 3,
      "type": "SCALAR",
      "min": [
        0.0
      ],
      "max": [
        1.0
      ]
    },
    {
      "bufferView": 134,
      "componentType": 5126,
      "count": 3,
      "type": "VEC4"
    },
    {
      "bufferView": 135,
      "componentType": 5126,
      "count": 3,
      "type": "SCALAR",
      "min": [
        0.0
      ],
      "max": [
        1.0
      ]
    },
    {
      "bufferView": 136,
      "componentType": 5126,
      "count": 3,
      "type": "VEC4"
    },
    {
      "bufferView": 137,
      "componentType": 5126,
      "count": 3,
      "type": "SCALAR",
      "min": [
        0.0
      ],
      "max": [
        1.0
      ]
    },
    {
      "bufferView": 138,
      "componentType": 5126,
      "count": 3,
      "type": "VEC4"
    },
    {
      "bufferView": 139,
      "componentType": 5126,
      "count": 3,
      "type": "SCALAR",
      "min": [
        0.0
      ],
      "max": [
        0.44
      ]
    },
    {
      "bufferView": 140,
      "componentType": 5126,
      "count": 3,
      "type": "VEC4"
    },
    {
      "bufferView": 141,
      "componentType": 5126,
      "count": 3,
      "type": "SCALAR",
      "min": [
        0.0
      ],
      "max": [
        0.44
      ]
    },
    {
      "bufferView": 142,
      "componentType": 5126,
      "count": 3,
      "type": "VEC4"
    },
    {
      "bufferView": 143,
      "componentType": 5126,
      "count": 3,
      "type": "SCALAR",
      "min": [
        0.0
      ],
      "max": [
        0.44
      ]
    },
    {
      "bufferView": 144,
      "componentType": 5126,
      "count": 3,
      "type": "VEC4"
    },
    {
      "bufferView": 145,
      "componentType": 5126,
      "count": 3,
      "type": "SCALAR",
      "min": [
        0.0
      ],
      "max": [
        0.44
      ]
    },
    {
      "bufferView": 146,
      "componentType": 5126,
      "count": 3,
      "type": "VEC4"
    },
    {
      "bufferView": 147,
      "componentType": 5126,
      "count": 3,
      "type": "SCALAR",
      "min": [
        0.0
      ],
      "max": [
        0.44
      ]
    },
    {
      "bufferView": 148,
      "componentType": 5126,
      "count": 3,
      "type": "VEC4"
    },
    {
      "bufferView": 149,
      "componentType": 5126,
      "count": 3,
      "type": "SCALAR",
      "min": [
        0.0
      ],
      "max": [
        0.64
      ]
    },
    {
      "bufferView": 150,
      "componentType": 5126,
      "count": 3,
      "type": "VEC4"
    },
    {
      "bufferView": 151,
      "componentType": 5126,
      "count": 3,
      "type": "SCALAR",
      "min": [
        0.0
      ],
      "max": [
        0.64
      ]
    },
    {
      "bufferView": 152,
      "componentType": 5126,
      "count": 3,
      "type": "VEC4"
    },
    {
      "bufferView": 153,
      "componentType": 5126,
      "count": 3,
      "type": "SCALAR",
      "min": [
        0.0
      ],
      "max": [
        0.64
      ]
    },
    {
      "bufferView": 154,
      "componentType": 5126,
      "count": 3,
      "type": "VEC4"
    },
    {
      "bufferView": 155,
      "componentType": 5126,
      "count": 3,
      "type": "SCALAR",
      "min": [
        0.0
      ],
      "max": [
        0.64
      ]
    },
    {
      "bufferView": 156,
      "componentType": 5126,
      "count": 3,
      "type": "VEC4"
    }
  ],
  "bufferViews": [
    {
      "buffer": 0,
      "byteOffset": 0,
      "byteLength": 10800,
      "target": 34962
    },
    {
      "buffer": 0,
      "byteOffset": 10800,
      "byteLength": 10800,
      "target": 34962
    },
    {
      "buffer": 0,
      "byteOffset": 21600,
      "byteLength": 10368,
      "target": 34963
    },
    {
      "buffer": 0,
      "byteOffset": 31968,
      "byteLength": 10800,
      "target": 34962
    },
    {
      "buffer": 0,
      "byteOffset": 42768,
      "byteLength": 10800,
      "target": 34962
    },
    {
      "buffer": 0,
      "byteOffset": 53568,
      "byteLength": 10368,
      "target": 34963
    },
    {
      "buffer": 0,
      "byteOffset": 63936,
      "byteLength": 3480,
      "target": 34962
    },
    {
      "buffer": 0,
      "byteOffset": 67416,
      "byteLength": 3480,
      "target": 34962
    },
    {
      "buffer": 0,
      "byteOffset": 70896,
      "byteLength": 2880,
      "target": 34963
    },
    {
      "buffer": 0,
      "byteOffset": 73776,
      "byteLength": 8208,
      "target": 34962
    },
    {
      "buffer": 0,
      "byteOffset": 81984,
      "byteLength": 8208,
      "target": 34962
    },
    {
      "buffer": 0,
      "byteOffset": 90192,
      "byteLength": 7776,
      "target": 34963
    },
    {
      "buffer": 0,
      "byteOffset": 97968,
      "byteLength": 8208,
      "target": 34962
    },
    {
      "buffer": 0,
      "byteOffset": 106176,
      "byteLength": 8208,
      "target": 34962
    },
    {
      "buffer": 0,
      "byteOffset": 114384,
      "byteLength": 7776,
      "target": 34963
    },
    {
      "buffer": 0,
      "byteOffset": 122160,
      "byteLength": 4032,
      "target": 34962
    },
    {
      "buffer": 0,
      "byteOffset": 126192,
      "byteLength": 4032,
      "target": 34962
    },
    {
      "buffer": 0,
      "byteOffset": 130224,
      "byteLength": 3744,
      "target": 34963
    },
    {
      "buffer": 0,
      "byteOffset": 133968,
      "byteLength": 4032,
      "target": 34962
    },
    {
      "buffer": 0,
      "byteOffset": 138000,
      "byteLength": 4032,
      "target": 34962
    },
    {
      "buffer": 0,
      "byteOffset": 142032,
      "byteLength": 3744,
      "target": 34963
    },
    {
      "buffer": 0,
      "byteOffset": 145776,
      "byteLength": 4032,
      "target": 34962
    },
    {
      "buffer": 0,
      "byteOffset": 149808,
      "byteLength": 4032,
      "target": 34962
    },
    {
      "buffer": 0,
      "byteOffset": 153840,
      "byteLength": 3744,
      "target": 34963
    },
    {
      "buffer": 0,
      "byteOffset": 157584,
      "byteLength": 10800,
      "target": 34962
    },
    {
      "buffer": 0,
      "byteOffset": 168384,
      "byteLength": 10800,
      "target": 34962
    },
    {
      "buffer": 0,
      "byteOffset": 179184,
      "byteLength": 10368,
      "target": 34963
    },
    {
      "buffer": 0,
      "byteOffset": 189552,
      "byteLength": 10800,
      "target": 34962
    },
    {
      "buffer": 0,
      "byteOffset": 200352,
      "byteLength": 10800,
      "target": 34962
    },
    {
      "buffer": 0,
      "byteOffset": 211152,
      "byteLength": 10368,
      "target": 34963
    },
    {
      "buffer": 0,
      "byteOffset": 221520,
      "byteLength": 10800,
      "target": 34962
    },
    {
      "buffer": 0,
      "byteOffset": 232320,
      "byteLength": 10800,
      "target": 34962
    },
    {
      "buffer": 0,
      "byteOffset": 243120,
      "byteLength": 10368,
      "target": 34963
    },
    {
      "buffer": 0,
      "byteOffset": 253488,
      "byteLength": 4032,
      "target": 34962
    },
    {
      "buffer": 0,
      "byteOffset": 257520,
      "byteLength": 4032,
      "target": 34962
    },
    {
      "buffer": 0,
      "byteOffset": 261552,
      "byteLength": 3744,
      "target": 34963
    },
    {
      "buffer": 0,
      "byteOffset": 265296,
      "byteLength": 4032,
      "target": 34962
    },
    {
      "buffer": 0,
      "byteOffset": 269328,
      "byteLength": 4032,
      "target": 34962
    },
    {
      "buffer": 0,
      "byteOffset": 273360,
      "byteLength": 3744,
      "target": 34963
    },
    {
      "buffer": 0,
      "byteOffset": 277104,
      "byteLength": 1152,
      "target": 34962
    },
    {
      "buffer": 0,
      "byteOffset": 278256,
      "byteLength": 1152,
      "target": 34962
    },
    {
      "buffer": 0,
      "byteOffset": 279408,
      "byteLength": 264,
      "target": 34963
    },
    {
      "buffer": 0,
      "byteOffset": 279672,
      "byteLength": 4320,
      "target": 34962
    },
    {
      "buffer": 0,
      "byteOffset": 283992,
      "byteLength": 4320,
      "target": 34962
    },
    {
      "buffer": 0,
      "byteOffset": 288312,
      "byteLength": 4320,
      "target": 34963
    },
    {
      "buffer": 0,
      "byteOffset": 292632,
      "byteLength": 10800,
      "target": 34962
    },
    {
      "buffer": 0,
      "byteOffset": 303432,
      "byteLength": 10800,
      "target": 34962
    },
    {
      "buffer": 0,
      "byteOffset": 314232,
      "byteLength": 10368,
      "target": 34963
    },
    {
      "buffer": 0,
      "byteOffset": 324600,
      "byteLength": 4032,
      "target": 34962
    },
    {
      "buffer": 0,
      "byteOffset": 328632,
      "byteLength": 4032,
      "target": 34962
    },
    {
      "buffer": 0,
      "byteOffset": 332664,
      "byteLength": 3744,
      "target": 34963
    },
    {
      "buffer": 0,
      "byteOffset": 336408,
      "byteLength": 4032,
      "target": 34962
    },
    {
      "buffer": 0,
      "byteOffset": 340440,
      "byteLength": 4032,
      "target": 34962
    },
    {
      "buffer": 0,
      "byteOffset": 344472,
      "byteLength": 3744,
      "target": 34963
    },
    {
      "buffer": 0,
      "byteOffset": 348216,
      "byteLength": 4032,
      "target": 34962
    },
    {
      "buffer": 0,
      "byteOffset": 352248,
      "byteLength": 4032,
      "target": 34962
    },
    {
      "buffer": 0,
      "byteOffset": 356280,
      "byteLength": 3744,
      "target": 34963
    },
    {
      "buffer": 0,
      "byteOffset": 360024,
      "byteLength": 4032,
      "target": 34962
    },
    {
      "buffer": 0,
      "byteOffset": 364056,
      "byteLength": 4032,
      "target": 34962
    },
    {
      "buffer": 0,
      "byteOffset": 368088,
      "byteLength": 3744,
      "target": 34963
    },
    {
      "buffer": 0,
      "byteOffset": 371832,
      "byteLength": 4032,
      "target": 34962
    },
    {
      "buffer": 0,
      "byteOffset": 375864,
      "byteLength": 4032,
      "target": 34962
    },
    {
      "buffer": 0,
      "byteOffset": 379896,
      "byteLength": 3744,
      "target": 34963
    },
    {
      "buffer": 0,
      "byteOffset": 383640,
      "byteLength": 2904,
      "target": 34962
    },
    {
      "buffer": 0,
      "byteOffset": 386544,
      "byteLength": 2904,
      "target": 34962
    },
    {
      "buffer": 0,
      "byteOffset": 389448,
      "byteLength": 2304,
      "target": 34963
    },
    {
      "buffer": 0,
      "byteOffset": 391752,
      "byteLength": 10800,
      "target": 34962
    },
    {
      "buffer": 0,
      "byteOffset": 402552,
      "byteLength": 10800,
      "target": 34962
    },
    {
      "buffer": 0,
      "byteOffset": 413352,
      "byteLength": 10368,
      "target": 34963
    },
    {
      "buffer": 0,
      "byteOffset": 423720,
      "byteLength": 12
    },
    {
      "buffer": 0,
      "byteOffset": 423732,
      "byteLength": 36
    },
    {
      "buffer": 0,
      "byteOffset": 423768,
      "byteLength": 12
    },
    {
      "buffer": 0,
      "byteOffset": 423780,
      "byteLength": 48
    },
    {
      "buffer": 0,
      "byteOffset": 423828,
      "byteLength": 12
    },
    {
      "buffer": 0,
      "byteOffset": 423840,
      "byteLength": 48
    },
    {
      "buffer": 0,
      "byteOffset": 423888,
      "byteLength": 12
    },
    {
      "buffer": 0,
      "byteOffset": 423900,
      "byteLength": 48
    },
    {
      "buffer": 0,
      "byteOffset": 423948,
      "byteLength": 12
    },
    {
      "buffer": 0,
      "byteOffset": 423960,
      "byteLength": 48
    },
    {
      "buffer": 0,
      "byteOffset": 424008,
      "byteLength": 12
    },
    {
      "buffer": 0,
      "byteOffset": 424020,
      "byteLength": 48
    },
    {
      "buffer": 0,
      "byteOffset": 424068,
      "byteLength": 12
    },
    {
      "buffer": 0,
      "byteOffset": 424080,
      "byteLength": 48
    },
    {
      "buffer": 0,
      "byteOffset": 424128,
      "byteLength": 12
    },
    {
      "buffer": 0,
      "byteOffset": 424140,
      "byteLength": 48
    },
    {
      "buffer": 0,
      "byteOffset": 424188,
      "byteLength": 12
    },
    {
      "buffer": 0,
      "byteOffset": 424200,
      "byteLength": 48
    },
    {
      "buffer": 0,
      "byteOffset": 424248,
      "byteLength": 12
    },
    {
      "buffer": 0,
      "byteOffset": 424260,
      "byteLength": 48
    },
    {
      "buffer": 0,
      "byteOffset": 424308,
      "byteLength": 12
    },
    {
      "buffer": 0,
      "byteOffset": 424320,
      "byteLength": 48
    },
    {
      "buffer": 0,
      "byteOffset": 424368,
      "byteLength": 12
    },
    {
      "buffer": 0,
      "byteOffset": 424380,
      "byteLength": 48
    },
    {
      "buffer": 0,
      "byteOffset": 424428,
      "byteLength": 12
    },
    {
      "buffer": 0,
      "byteOffset": 424440,
      "byteLength": 36
    },
    {
      "buffer": 0,
      "byteOffset": 424476,
      "byteLength": 12
    },
    {
      "buffer": 0,
      "byteOffset": 424488,
      "byteLength": 48
    },
    {
      "buffer": 0,
      "byteOffset": 424536,
      "byteLength": 12
    },
    {
      "buffer": 0,
      "byteOffset": 424548,
      "byteLength": 48
    },
    {
      "buffer": 0,
      "byteOffset": 424596,
      "byteLength": 12
    },
    {
      "buffer": 0,
      "byteOffset": 424608,
      "byteLength": 48
    },
    {
      "buffer": 0,
      "byteOffset": 424656,
      "byteLength": 12
    },
    {
      "buffer": 0,
      "byteOffset": 424668,
      "byteLength": 48
    },
    {
      "buffer": 0,
      "byteOffset": 424716,
      "byteLength": 12
    },
    {
      "buffer": 0,
      "byteOffset": 424728,
      "byteLength": 48
    },
    {
      "buffer": 0,
      "byteOffset": 424776,
      "byteLength": 12
    },
    {
      "buffer": 0,
      "byteOffset": 424788,
      "byteLength": 48
    },
    {
      "buffer": 0,
      "byteOffset": 424836,
      "byteLength": 12
    },
    {
      "buffer": 0,
      "byteOffset": 424848,
      "byteLength": 48
    },
    {
      "buffer": 0,
      "byteOffset": 424896,
      "byteLength": 12
    },
    {
      "buffer": 0,
      "byteOffset": 424908,
      "byteLength": 36
    },
    {
      "buffer": 0,
      "byteOffset": 424944,
      "byteLength": 12
    },
    {
      "buffer": 0,
      "byteOffset": 424956,
      "byteLength": 48
    },
    {
      "buffer": 0,
      "byteOffset": 425004,
      "byteLength": 12
    },
    {
      "buffer": 0,
      "byteOffset": 425016,
      "byteLength": 48
    },
    {
      "buffer": 0,
      "byteOffset": 425064,
      "byteLength": 12
    },
    {
      "buffer": 0,
      "byteOffset": 425076,
      "byteLength": 48
    },
    {
      "buffer": 0,
      "byteOffset": 425124,
      "byteLength": 12
    },
    {
      "buffer": 0,
      "byteOffset": 425136,
      "byteLength": 48
    },
    {
      "buffer": 0,
      "byteOffset": 425184,
      "byteLength": 12
    },
    {
      "buffer": 0,
      "byteOffset": 425196,
      "byteLength": 36
    },
    {
      "buffer": 0,
      "byteOffset": 425232,
      "byteLength": 12
    },
    {
      "buffer": 0,
      "byteOffset": 425244,
      "byteLength": 48
    },
    {
      "buffer": 0,
      "byteOffset": 425292,
      "byteLength": 12
    },
    {
      "buffer": 0,
      "byteOffset": 425304,
      "byteLength": 48
    },
    {
      "buffer": 0,
      "byteOffset": 425352,
      "byteLength": 12
    },
    {
      "buffer": 0,
      "byteOffset": 425364,
      "byteLength": 48
    },
    {
      "buffer": 0,
      "byteOffset": 425412,
      "byteLength": 12
    },
    {
      "buffer": 0,
      "byteOffset": 425424,
      "byteLength": 48
    },
    {
      "buffer": 0,
      "byteOffset": 425472,
      "byteLength": 12
    },
    {
      "buffer": 0,
      "byteOffset": 425484,
      "byteLength": 36
    },
    {
      "buffer": 0,
      "byteOffset": 425520,
      "byteLength": 12
    },
    {
      "buffer": 0,
      "byteOffset": 425532,
      "byteLength": 48
    },
    {
      "buffer": 0,
      "byteOffset": 425580,
      "byteLength": 12
    },
    {
      "buffer": 0,
      "byteOffset": 425592,
      "byteLength": 48
    },
    {
      "buffer": 0,
      "byteOffset": 425640,
      "byteLength": 12
    },
    {
      "buffer": 0,
      "byteOffset": 425652,
      "byteLength": 48
    },
    {
      "buffer": 0,
      "byteOffset": 425700,
      "byteLength": 12
    },
    {
      "buffer": 0,
      "byteOffset": 425712,
      "byteLength": 48
    },
    {
      "buffer": 0,
      "byteOffset": 425760,
      "byteLength": 12
    },
    {
      "buffer": 0,
      "byteOffset": 425772,
      "byteLength": 48
    },
    {
      "buffer": 0,
      "byteOffset": 425820,
      "byteLength": 12
    },
    {
      "buffer": 0,
      "byteOffset": 425832,
      "byteLength": 48
    },
    {
      "buffer": 0,
      "byteOffset": 425880,
      "byteLength": 12
    },
    {
      "buffer": 0,
      "byteOffset": 425892,
      "byteLength": 48
    },
    {
      "buffer": 0,
      "byteOffset": 425940,
      "byteLength": 12
    },
    {
      "buffer": 0,
      "byteOffset": 425952,
      "byteLength": 48
    },
    {
      "buffer": 0,
      "byteOffset": 426000,
      "byteLength": 12
    },
    {
      "buffer": 0,
      "byteOffset": 426012,
      "byteLength": 48
    },
    {
      "buffer": 0,
      "byteOffset": 426060,
      "byteLength": 12
    },
    {
      "buffer": 0,
      "byteOffset": 426072,
      "byteLength": 48
    },
    {
      "buffer": 0,
      "byteOffset": 426120,
      "byteLength": 12
    },
    {
      "buffer": 0,
      "byteOffset": 426132,
      "byteLength": 48
    },
    {
      "buffer": 0,
      "byteOffset": 426180,
      "byteLength": 12
    },
    {
      "buffer": 0,
      "byteOffset": 426192,
      "byteLength": 48
    },
    {
      "buffer": 0,
      "byteOffset": 426240,
      "byteLength": 12
    },
    {
      "buffer": 0,
      "byteOffset": 426252,
      "byteLength": 48
    }
  ],
  "buffers": [
    {
      "byteLength": 426300,
      "uri": "data:application/octet-stream;base64,"
    }
  ],
  "animations": [
    {
      "name": "Idle",
      "samplers": [
        {
          "input": 69,
          "output": 70,
          "interpolation": "LINEAR"
        },
        {
          "input": 71,
          "output": 72,
          "interpolation": "LINEAR"
        },
        {
          "input": 73,
          "output": 74,
          "interpolation": "LINEAR"
        },
        {
          "input": 75,
          "output": 76,
          "interpolation": "LINEAR"
        },
        {
          "input": 77,
          "output": 78,
          "interpolation": "LINEAR"
        },
        {
          "input": 79,
          "output": 80,
          "interpolation": "LINEAR"
        }
      ],
      "channels": [
        {
          "sampler": 0,
          "target": {
            "node": 0,
            "path": "translation"
          }
        },
        {
          "sampler": 1,
          "target": {
            "node": 1,
            "path": "rotation"
          }
        },
        {
          "sampler": 2,
          "target": {
            "node": 31,
            "path": "rotation"
          }
        },
        {
          "sampler": 3,
          "target": {
            "node": 38,
            "path": "rotation"
          }
        },
        {
          "sampler": 4,
          "target": {
            "node": 34,
            "path": "rotation"
          }
        },
        {
          "sampler": 5,
          "target": {
            "node": 41,
            "path": "rotation"
          }
        }
      ]
    },
    {
      "name": "Walk",
      "samplers": [
        {
          "input": 81,
          "output": 82,
          "interpolation": "LINEAR"
        },
        {
          "input": 83,
          "output": 84,
          "interpolation": "LINEAR"
        },
        {
          "input": 85,
          "output": 86,
          "interpolation": "LINEAR"
        },
        {
          "input": 87,
          "output": 88,
          "interpolation": "LINEAR"
        },
        {
          "input": 89,
          "output": 90,
          "interpolation": "LINEAR"
        },
        {
          "input": 91,
          "output": 92,
          "interpolation": "LINEAR"
        }
      ],
      "channels": [
        {
          "sampler": 0,
          "target": {
            "node": 36,
            "path": "rotation"
          }
        },
        {
          "sampler": 1,
          "target": {
            "node": 1,
            "path": "rotation"
          }
        },
        {
          "sampler": 2,
          "target": {
            "node": 31,
            "path": "rotation"
          }
        },
        {
          "sampler": 3,
          "target": {
            "node": 38,
            "path": "rotation"
          }
        },
        {
          "sampler": 4,
          "target": {
            "node": 32,
            "path": "rotation"
          }
        },
        {
          "sampler": 5,
          "target": {
            "node": 39,
            "path": "rotation"
          }
        }
      ]
    },
    {
      "name": "Attack",
      "samplers": [
        {
          "input": 93,
          "output": 94,
          "interpolation": "LINEAR"
        },
        {
          "input": 95,
          "output": 96,
          "interpolation": "LINEAR"
        },
        {
          "input": 97,
          "output": 98,
          "interpolation": "LINEAR"
        },
        {
          "input": 99,
          "output": 100,
          "interpolation": "LINEAR"
        },
        {
          "input": 101,
          "output": 102,
          "interpolation": "LINEAR"
        },
        {
          "input": 103,
          "output": 104,
          "interpolation": "LINEAR"
        },
        {
          "input": 105,
          "output": 106,
          "interpolation": "LINEAR"
        },
        {
          "input": 107,
          "output": 108,
          "interpolation": "LINEAR"
        }
      ],
      "channels": [
        {
          "sampler": 0,
          "target": {
            "node": 31,
            "path": "translation"
          }
        },
        {
          "sampler": 1,
          "target": {
            "node": 1,
            "path": "rotation"
          }
        },
        {
          "sampler": 2,
          "target": {
            "node": 31,
            "path": "rotation"
          }
        },
        {
          "sampler": 3,
          "target": {
            "node": 38,
            "path": "rotation"
          }
        },
        {
          "sampler": 4,
          "target": {
            "node": 32,
            "path": "rotation"
          }
        },
        {
          "sampler": 5,
          "target": {
            "node": 39,
            "path": "rotation"
          }
        },
        {
          "sampler": 6,
          "target": {
            "node": 29,
            "path": "rotation"
          }
        },
        {
          "sampler": 7,
          "target": {
            "node": 30,
            "path": "rotation"
          }
        }
      ]
    },
    {
      "name": "Hit",
      "samplers": [
        {
          "input": 109,
          "output": 110,
          "interpolation": "LINEAR"
        },
        {
          "input": 111,
          "output": 112,
          "interpolation": "LINEAR"
        },
        {
          "input": 113,
          "output": 114,
          "interpolation": "LINEAR"
        },
        {
          "input": 115,
          "output": 116,
          "interpolation": "LINEAR"
        },
        {
          "input": 117,
          "output": 118,
          "interpolation": "LINEAR"
        }
      ],
      "channels": [
        {
          "sampler": 0,
          "target": {
            "node": 0,
            "path": "translation"
          }
        },
        {
          "sampler": 1,
          "target": {
            "node": 1,
            "path": "rotation"
          }
        },
        {
          "sampler": 2,
          "target": {
            "node": 31,
            "path": "rotation"
          }
        },
        {
          "sampler": 3,
          "target": {
            "node": 38,
            "path": "rotation"
          }
        },
        {
          "sampler": 4,
          "target": {
            "node": 28,
            "path": "rotation"
          }
        }
      ]
    },
    {
      "name": "Feed",
      "samplers": [
        {
          "input": 119,
          "output": 120,
          "interpolation": "LINEAR"
        },
        {
          "input": 121,
          "output": 122,
          "interpolation": "LINEAR"
        },
        {
          "input": 123,
          "output": 124,
          "interpolation": "LINEAR"
        },
        {
          "input": 125,
          "output": 126,
          "interpolation": "LINEAR"
        },
        {
          "input": 127,
          "output": 128,
          "interpolation": "LINEAR"
        }
      ],
      "channels": [
        {
          "sampler": 0,
          "target": {
            "node": 0,
            "path": "translation"
          }
        },
        {
          "sampler": 1,
          "target": {
            "node": 1,
            "path": "rotation"
          }
        },
        {
          "sampler": 2,
          "target": {
            "node": 28,
            "path": "rotation"
          }
        },
        {
          "sampler": 3,
          "target": {
            "node": 34,
            "path": "rotation"
          }
        },
        {
          "sampler": 4,
          "target": {
            "node": 41,
            "path": "rotation"
          }
        }
      ]
    },
    {
      "name": "Nest",
      "samplers": [
        {
          "input": 129,
          "output": 130,
          "interpolation": "LINEAR"
        },
        {
          "input": 131,
          "output": 132,
          "interpolation": "LINEAR"
        },
        {
          "input": 133,
          "output": 134,
          "interpolation": "LINEAR"
        },
        {
          "input": 135,
          "output": 136,
          "interpolation": "LINEAR"
        },
        {
          "input": 137,
          "output": 138,
          "interpolation": "LINEAR"
        }
      ],
      "channels": [
        {
          "sampler": 0,
          "target": {
            "node": 0,
            "path": "translation"
          }
        },
        {
          "sampler": 1,
          "target": {
            "node": 1,
            "path": "rotation"
          }
        },
        {
          "sampler": 2,
          "target": {
            "node": 32,
            "path": "rotation"
          }
        },
        {
          "sampler": 3,
          "target": {
            "node": 39,
            "path": "rotation"
          }
        },
        {
          "sampler": 4,
          "target": {
            "node": 29,
            "path": "rotation"
          }
        }
      ]
    },
    {
      "name": "Retreat",
      "samplers": [
        {
          "input": 139,
          "output": 140,
          "interpolation": "LINEAR"
        },
        {
          "input": 141,
          "output": 142,
          "interpolation": "LINEAR"
        },
        {
          "input": 143,
          "output": 144,
          "interpolation": "LINEAR"
        },
        {
          "input": 145,
          "output": 146,
          "interpolation": "LINEAR"
        },
        {
          "input": 147,
          "output": 148,
          "interpolation": "LINEAR"
        }
      ],
      "channels": [
        {
          "sampler": 0,
          "target": {
            "node": 36,
            "path": "rotation"
          }
        },
        {
          "sampler": 1,
          "target": {
            "node": 1,
            "path": "rotation"
          }
        },
        {
          "sampler": 2,
          "target": {
            "node": 31,
            "path": "rotation"
          }
        },
        {
          "sampler": 3,
          "target": {
            "node": 38,
            "path": "rotation"
          }
        },
        {
          "sampler": 4,
          "target": {
            "node": 36,
            "path": "rotation"
          }
        }
      ]
    },
    {
      "name": "Death",
      "samplers": [
        {
          "input": 149,
          "output": 150,
          "interpolation": "LINEAR"
        },
        {
          "input": 151,
          "output": 152,
          "interpolation": "LINEAR"
        },
        {
          "input": 153,
          "output": 154,
          "interpolation": "LINEAR"
        },
        {
          "input": 155,
          "output": 156,
          "interpolation": "LINEAR"
        }
      ],
      "channels": [
        {
          "sampler": 0,
          "target": {
            "node": 0,
            "path": "rotation"
          }
        },
        {
          "sampler": 1,
          "target": {
            "node": 1,
            "path": "rotation"
          }
        },
        {
          "sampler": 2,
          "target": {
            "node": 28,
            "path": "rotation"
          }
        },
        {
          "sampler": 3,
          "target": {
            "node": 32,
            "path": "rotation"
          }
        }
      ]
    }
  ],
  "extras": {
    "ironwright_asset_id": "roofleaper.ambusher.v1",
    "required_nodes": [
      "RoofleaperModel",
      "Torso",
      "TorsoCore",
      "OrganicDorsalPlate",
      "RoofleaperFineVeinL",
      "RoofleaperFineVeinR",
      "RoofleaperWingFrameL",
      "RoofleaperWingFastenerR",
      "ProductionAssetMarker"
    ],
    "animation_clips": [
      "Idle",
      "Walk",
      "Attack",
      "Hit",
      "Feed",
      "Nest",
      "Retreat",
      "Death"
    ]
  }
}
