{
  "asset": {
    "version": "2.0",
    "generator": "Project Ironwright original Municipal Glasshouse asset builder"
  },
  "scene": 0,
  "scenes": [
    {
      "name": "Glasshouse",
      "nodes": [
        0
      ]
    }
  ],
  "nodes": [
    {
      "name": "GlasshouseModel",
      "children": [
        1,
        2,
        3,
        4,
        5,
        6,
        7,
        8,
        9,
        10,
        11,
        12,
        13,
        14,
        15,
        16,
        17,
        18,
        19,
        20,
        21,
        22,
        23,
        24,
        25,
        26,
        27,
        28,
        29,
        30,
        31,
        32,
        41,
        50,
        59,
        64,
        65,
        66,
        67,
        68,
        69,
        70,
        71
      ],
      "extras": {
        "ironwright_asset_id": "glasshouse.municipal.v1",
        "asset_quality": "authored_high_definition",
        "socket_contract": "greenhouse_frame, climate_louver, growth_beds, broken_skylight, service_door"
      }
    },
    {
      "name": "GlasshouseFloor",
      "translation": [
        0.0,
        0.08,
        0.0
      ],
      "mesh": 0,
      "extras": {
        "socket_type": "greenhouse_floor"
      }
    },
    {
      "name": "GlasshouseFrameBay0",
      "translation": [
        -8.0,
        3.3,
        -5.4
      ],
      "mesh": 1,
      "extras": {
        "socket_type": "greenhouse_frame"
      }
    },
    {
      "name": "GlasshouseFrameBay0Rear",
      "translation": [
        -8.0,
        3.3,
        5.4
      ],
      "mesh": 1,
      "extras": {
        "socket_type": "greenhouse_frame"
      }
    },
    {
      "name": "GlasshouseFrameBay1",
      "translation": [
        -4.0,
        3.3,
        -5.4
      ],
      "mesh": 1,
      "extras": {
        "socket_type": "greenhouse_frame"
      }
    },
    {
      "name": "GlasshouseFrameBay1Rear",
      "translation": [
        -4.0,
        3.3,
        5.4
      ],
      "mesh": 1,
      "extras": {
        "socket_type": "greenhouse_frame"
      }
    },
    {
      "name": "GlasshouseFrameBay2",
      "translation": [
        0.0,
        3.3,
        -5.4
      ],
      "mesh": 1,
      "extras": {
        "socket_type": "greenhouse_frame"
      }
    },
    {
      "name": "GlasshouseFrameBay2Rear",
      "translation": [
        0.0,
        3.3,
        5.4
      ],
      "mesh": 1,
      "extras": {
        "socket_type": "greenhouse_frame"
      }
    },
    {
      "name": "GlasshouseFrameBay3",
      "translation": [
        4.0,
        3.3,
        -5.4
      ],
      "mesh": 1,
      "extras": {
        "socket_type": "greenhouse_frame"
      }
    },
    {
      "name": "GlasshouseFrameBay3Rear",
      "translation": [
        4.0,
        3.3,
        5.4
      ],
      "mesh": 1,
      "extras": {
        "socket_type": "greenhouse_frame"
      }
    },
    {
      "name": "GlasshouseFrameBay4",
      "translation": [
        8.0,
        3.3,
        -5.4
      ],
      "mesh": 1,
      "extras": {
        "socket_type": "greenhouse_frame"
      }
    },
    {
      "name": "GlasshouseFrameBay4Rear",
      "translation": [
        8.0,
        3.3,
        5.4
      ],
      "mesh": 1,
      "extras": {
        "socket_type": "greenhouse_frame"
      }
    },
    {
      "name": "GlasshouseFrontBeam",
      "translation": [
        0.0,
        6.45,
        -5.4
      ],
      "mesh": 2,
      "rotation": [
        0.0,
        0.7071067811865476,
        0.0,
        0.7071067811865476
      ]
    },
    {
      "name": "GlasshouseRearBeam",
      "translation": [
        0.0,
        6.45,
        5.4
      ],
      "mesh": 2,
      "rotation": [
        0.0,
        0.7071067811865476,
        0.0,
        0.7071067811865476
      ]
    },
    {
      "name": "GlasshouseSideBeamL",
      "translation": [
        -8.0,
        6.45,
        0.0
      ],
      "mesh": 2,
      "rotation": [
        0.0,
        0.0,
        0.7071067811865476,
        0.7071067811865476
      ]
    },
    {
      "name": "GlasshouseSideBeamR",
      "translation": [
        8.0,
        6.45,
        0.0
      ],
      "mesh": 2,
      "rotation": [
        0.0,
        0.0,
        0.7071067811865476,
        0.7071067811865476
      ]
    },
    {
      "name": "GlasshouseRoofRib0",
      "translation": [
        -6.0,
        6.15,
        0.0
      ],
      "mesh": 15,
      "extras": {
        "surface": "roof_structural_rib"
      }
    },
    {
      "name": "GlasshouseRoofRib1",
      "translation": [
        -2.0,
        6.15,
        0.0
      ],
      "mesh": 15,
      "extras": {
        "surface": "roof_structural_rib"
      }
    },
    {
      "name": "GlasshouseRoofRib2",
      "translation": [
        2.0,
        6.15,
        0.0
      ],
      "mesh": 15,
      "extras": {
        "surface": "roof_structural_rib"
      }
    },
    {
      "name": "GlasshouseRoofRib3",
      "translation": [
        6.0,
        6.15,
        0.0
      ],
      "mesh": 15,
      "extras": {
        "surface": "roof_structural_rib"
      }
    },
    {
      "name": "GlasshouseGlassPanel0",
      "translation": [
        -6.0,
        3.0,
        -5.32
      ],
      "mesh": 3
    },
    {
      "name": "GlasshouseGlassPanel0Rear",
      "translation": [
        -6.0,
        3.0,
        5.32
      ],
      "mesh": 3,
      "rotation": [
        0.0,
        1.0,
        0.0,
        6.123233995736766e-17
      ]
    },
    {
      "name": "GlasshousePaneLatch0",
      "translation": [
        -6.0,
        3.0,
        -5.47
      ],
      "mesh": 16,
      "extras": {
        "surface": "glazing_latch"
      }
    },
    {
      "name": "GlasshouseGlassPanel1",
      "translation": [
        -2.0,
        3.0,
        -5.32
      ],
      "mesh": 3
    },
    {
      "name": "GlasshouseGlassPanel1Rear",
      "translation": [
        -2.0,
        3.0,
        5.32
      ],
      "mesh": 3,
      "rotation": [
        0.0,
        1.0,
        0.0,
        6.123233995736766e-17
      ]
    },
    {
      "name": "GlasshousePaneLatch1",
      "translation": [
        -2.0,
        3.0,
        -5.47
      ],
      "mesh": 16,
      "extras": {
        "surface": "glazing_latch"
      }
    },
    {
      "name": "GlasshouseGlassPanel2",
      "translation": [
        2.0,
        3.0,
        -5.32
      ],
      "mesh": 3
    },
    {
      "name": "GlasshouseGlassPanel2Rear",
      "translation": [
        2.0,
        3.0,
        5.32
      ],
      "mesh": 3,
      "rotation": [
        0.0,
        1.0,
        0.0,
        6.123233995736766e-17
      ]
    },
    {
      "name": "GlasshousePaneLatch2",
      "translation": [
        2.0,
        3.0,
        -5.47
      ],
      "mesh": 16,
      "extras": {
        "surface": "glazing_latch"
      }
    },
    {
      "name": "GlasshouseGlassPanel3",
      "translation": [
        6.0,
        3.0,
        -5.32
      ],
      "mesh": 3
    },
    {
      "name": "GlasshouseGlassPanel3Rear",
      "translation": [
        6.0,
        3.0,
        5.32
      ],
      "mesh": 3,
      "rotation": [
        0.0,
        1.0,
        0.0,
        6.123233995736766e-17
      ]
    },
    {
      "name": "GlasshousePaneLatch3",
      "translation": [
        6.0,
        3.0,
        -5.47
      ],
      "mesh": 16,
      "extras": {
        "surface": "glazing_latch"
      }
    },
    {
      "name": "GlasshouseGrowthBed0",
      "translation": [
        -4.5,
        0.25,
        1.8
      ],
      "mesh": 5,
      "extras": {
        "socket_type": "growth_bed"
      },
      "children": [
        33,
        34,
        35,
        36,
        37,
        38,
        39,
        40
      ]
    },
    {
      "name": "GlasshouseBedEdge0",
      "translation": [
        0.0,
        0.48,
        0.0
      ],
      "mesh": 17,
      "extras": {
        "surface": "bed_service_edge"
      }
    },
    {
      "name": "GlasshouseGrowthPulse0_0",
      "translation": [
        0.0,
        0.78,
        -0.3500000000000001
      ],
      "mesh": 6,
      "scale": [
        0.72,
        1.15,
        0.72
      ],
      "extras": {
        "socket_type": "growth_pulse"
      }
    },
    {
      "name": "GlasshouseGrowthPulse0_1",
      "translation": [
        0.0,
        0.96,
        0.1499999999999999
      ],
      "mesh": 6,
      "scale": [
        0.72,
        1.15,
        0.72
      ],
      "extras": {
        "socket_type": "growth_pulse"
      }
    },
    {
      "name": "GlasshouseGrowthPulse0_2",
      "translation": [
        0.0,
        0.78,
        0.6500000000000001
      ],
      "mesh": 6,
      "scale": [
        0.72,
        1.15,
        0.72
      ],
      "extras": {
        "socket_type": "growth_pulse"
      }
    },
    {
      "name": "GlasshouseGrowthTendril0_0",
      "translation": [
        -0.92,
        1.02,
        0.0
      ],
      "mesh": 18,
      "rotation": [
        0.0,
        0.0,
        -0.1395431146442365,
        0.9902159962126371
      ],
      "extras": {
        "surface": "growth_tendril"
      }
    },
    {
      "name": "GlasshouseGrowthTendril0_1",
      "translation": [
        0.88,
        1.02,
        0.0
      ],
      "mesh": 18,
      "rotation": [
        0.0,
        0.0,
        0.1395431146442365,
        0.9902159962126371
      ],
      "extras": {
        "surface": "growth_tendril"
      }
    },
    {
      "name": "GlasshouseBedLight0",
      "translation": [
        0.0,
        1.65,
        -0.1
      ],
      "mesh": 7,
      "extras": {
        "socket_type": "grow_light"
      }
    },
    {
      "name": "GlasshouseLightHousing0",
      "translation": [
        0.0,
        1.65,
        -0.1
      ],
      "mesh": 19,
      "extras": {
        "surface": "grow_light_housing"
      }
    },
    {
      "name": "GlasshouseGrowthBed1",
      "translation": [
        0.0,
        0.25,
        1.8
      ],
      "mesh": 5,
      "extras": {
        "socket_type": "growth_bed"
      },
      "children": [
        42,
        43,
        44,
        45,
        46,
        47,
        48,
        49
      ]
    },
    {
      "name": "GlasshouseBedEdge1",
      "translation": [
        0.0,
        0.48,
        0.0
      ],
      "mesh": 17,
      "extras": {
        "surface": "bed_service_edge"
      }
    },
    {
      "name": "GlasshouseGrowthPulse1_0",
      "translation": [
        0.0,
        0.78,
        -0.3500000000000001
      ],
      "mesh": 6,
      "scale": [
        0.72,
        1.15,
        0.72
      ],
      "extras": {
        "socket_type": "growth_pulse"
      }
    },
    {
      "name": "GlasshouseGrowthPulse1_1",
      "translation": [
        0.0,
        0.96,
        0.1499999999999999
      ],
      "mesh": 6,
      "scale": [
        0.72,
        1.15,
        0.72
      ],
      "extras": {
        "socket_type": "growth_pulse"
      }
    },
    {
      "name": "GlasshouseGrowthPulse1_2",
      "translation": [
        0.0,
        0.78,
        0.6500000000000001
      ],
      "mesh": 6,
      "scale": [
        0.72,
        1.15,
        0.72
      ],
      "extras": {
        "socket_type": "growth_pulse"
      }
    },
    {
      "name": "GlasshouseGrowthTendril1_0",
      "translation": [
        -0.92,
        1.02,
        0.0
      ],
      "mesh": 18,
      "rotation": [
        0.0,
        0.0,
        -0.1395431146442365,
        0.9902159962126371
      ],
      "extras": {
        "surface": "growth_tendril"
      }
    },
    {
      "name": "GlasshouseGrowthTendril1_1",
      "translation": [
        0.88,
        1.02,
        0.0
      ],
      "mesh": 18,
      "rotation": [
        0.0,
        0.0,
        0.1395431146442365,
        0.9902159962126371
      ],
      "extras": {
        "surface": "growth_tendril"
      }
    },
    {
      "name": "GlasshouseBedLight1",
      "translation": [
        0.0,
        1.65,
        -0.1
      ],
      "mesh": 7,
      "extras": {
        "socket_type": "grow_light"
      }
    },
    {
      "name": "GlasshouseLightHousing1",
      "translation": [
        0.0,
        1.65,
        -0.1
      ],
      "mesh": 19,
      "extras": {
        "surface": "grow_light_housing"
      }
    },
    {
      "name": "GlasshouseGrowthBed2",
      "translation": [
        4.5,
        0.25,
        1.8
      ],
      "mesh": 5,
      "extras": {
        "socket_type": "growth_bed"
      },
      "children": [
        51,
        52,
        53,
        54,
        55,
        56,
        57,
        58
      ]
    },
    {
      "name": "GlasshouseBedEdge2",
      "translation": [
        0.0,
        0.48,
        0.0
      ],
      "mesh": 17,
      "extras": {
        "surface": "bed_service_edge"
      }
    },
    {
      "name": "GlasshouseGrowthPulse2_0",
      "translation": [
        0.0,
        0.78,
        -0.3500000000000001
      ],
      "mesh": 6,
      "scale": [
        0.72,
        1.15,
        0.72
      ],
      "extras": {
        "socket_type": "growth_pulse"
      }
    },
    {
      "name": "GlasshouseGrowthPulse2_1",
      "translation": [
        0.0,
        0.96,
        0.1499999999999999
      ],
      "mesh": 6,
      "scale": [
        0.72,
        1.15,
        0.72
      ],
      "extras": {
        "socket_type": "growth_pulse"
      }
    },
    {
      "name": "GlasshouseGrowthPulse2_2",
      "translation": [
        0.0,
        0.78,
        0.6500000000000001
      ],
      "mesh": 6,
      "scale": [
        0.72,
        1.15,
        0.72
      ],
      "extras": {
        "socket_type": "growth_pulse"
      }
    },
    {
      "name": "GlasshouseGrowthTendril2_0",
      "translation": [
        -0.92,
        1.02,
        0.0
      ],
      "mesh": 18,
      "rotation": [
        0.0,
        0.0,
        -0.1395431146442365,
        0.9902159962126371
      ],
      "extras": {
        "surface": "growth_tendril"
      }
    },
    {
      "name": "GlasshouseGrowthTendril2_1",
      "translation": [
        0.88,
        1.02,
        0.0
      ],
      "mesh": 18,
      "rotation": [
        0.0,
        0.0,
        0.1395431146442365,
        0.9902159962126371
      ],
      "extras": {
        "surface": "growth_tendril"
      }
    },
    {
      "name": "GlasshouseBedLight2",
      "translation": [
        0.0,
        1.65,
        -0.1
      ],
      "mesh": 7,
      "extras": {
        "socket_type": "grow_light"
      }
    },
    {
      "name": "GlasshouseLightHousing2",
      "translation": [
        0.0,
        1.65,
        -0.1
      ],
      "mesh": 19,
      "extras": {
        "surface": "grow_light_housing"
      }
    },
    {
      "name": "GlasshouseClimateLouver",
      "translation": [
        -6.2,
        3.35,
        5.28
      ],
      "mesh": 8,
      "extras": {
        "socket_type": "climate_louver"
      },
      "children": [
        60,
        61,
        62,
        63
      ]
    },
    {
      "name": "GlasshouseClimateLouverSlat0",
      "translation": [
        0.0,
        -0.3,
        -0.1
      ],
      "mesh": 9,
      "rotation": [
        0.0,
        0.0,
        -0.02999550020249566,
        0.9995500337489875
      ]
    },
    {
      "name": "GlasshouseClimateLouverSlat1",
      "translation": [
        0.0,
        -0.09999999999999998,
        -0.1
      ],
      "mesh": 9
    },
    {
      "name": "GlasshouseClimateLouverSlat2",
      "translation": [
        0.0,
        0.10000000000000003,
        -0.1
      ],
      "mesh": 9,
      "rotation": [
        0.0,
        0.0,
        0.02999550020249566,
        0.9995500337489875
      ]
    },
    {
      "name": "GlasshouseClimateLouverSlat3",
      "translation": [
        0.0,
        0.3000000000000001,
        -0.1
      ],
      "mesh": 9,
      "rotation": [
        0.0,
        0.0,
        0.059964006479444595,
        0.9982005399352042
      ]
    },
    {
      "name": "GlasshouseClimateActuator",
      "translation": [
        -5.0,
        3.35,
        5.28
      ],
      "mesh": 20,
      "rotation": [
        0.0,
        0.0,
        0.7071067811865476,
        0.7071067811865476
      ],
      "extras": {
        "surface": "climate_actuator"
      }
    },
    {
      "name": "GlasshouseServiceDoor",
      "translation": [
        0.0,
        2.28,
        -5.72
      ],
      "mesh": 10,
      "extras": {
        "socket_type": "service_door"
      }
    },
    {
      "name": "GlasshouseServiceDoorTrim",
      "translation": [
        0.0,
        4.48,
        -5.88
      ],
      "mesh": 11,
      "extras": {
        "socket_type": "door_trim"
      }
    },
    {
      "name": "GlasshouseBrokenSkylight",
      "translation": [
        3.2,
        6.5,
        1.0
      ],
      "mesh": 12,
      "rotation": [
        0.08209733390432367,
        0.03500153535403474,
        -0.0629143973769547,
        0.9940204720685369
      ],
      "extras": {
        "socket_type": "broken_skylight"
      }
    },
    {
      "name": "GlasshouseCanopyPulse",
      "translation": [
        0.0,
        6.25,
        0.6
      ],
      "mesh": 7,
      "scale": [
        8.0,
        0.55,
        0.55
      ],
      "extras": {
        "socket_type": "canopy_signal"
      }
    },
    {
      "name": "GlasshouseClimateCable0",
      "translation": [
        -6.2,
        3.0,
        4.8
      ],
      "mesh": 13,
      "rotation": [
        0.0,
        0.0,
        0.7071067811865476,
        0.7071067811865476
      ],
      "extras": {
        "socket_type": "climate_cable"
      }
    },
    {
      "name": "GlasshouseClimateCable1",
      "translation": [
        6.2,
        3.0,
        4.8
      ],
      "mesh": 13,
      "rotation": [
        0.0,
        0.0,
        0.7071067811865476,
        0.7071067811865476
      ],
      "extras": {
        "socket_type": "climate_cable"
      }
    },
    {
      "name": "ProductionAssetMarker",
      "translation": [
        0.0,
        0.0,
        0.0
      ],
      "extras": {
        "asset_contract": "glasshouse.municipal.v1",
        "source": "original_procedural_mesh_builder"
      }
    }
  ],
  "meshes": [
    {
      "name": "GlasshouseFloor",
      "primitives": [
        {
          "attributes": {
            "POSITION": 0,
            "NORMAL": 1
          },
          "indices": 2,
          "material": 0
        }
      ]
    },
    {
      "name": "GlasshousePost",
      "primitives": [
        {
          "attributes": {
            "POSITION": 3,
            "NORMAL": 4
          },
          "indices": 5,
          "material": 0
        }
      ]
    },
    {
      "name": "GlasshouseBeam",
      "primitives": [
        {
          "attributes": {
            "POSITION": 6,
            "NORMAL": 7
          },
          "indices": 8,
          "material": 1
        }
      ]
    },
    {
      "name": "GlasshouseGlass",
      "primitives": [
        {
          "attributes": {
            "POSITION": 9,
            "NORMAL": 10
          },
          "indices": 11,
          "material": 2
        }
      ]
    },
    {
      "name": "GlasshouseRoofGlass",
      "primitives": [
        {
          "attributes": {
            "POSITION": 12,
            "NORMAL": 13
          },
          "indices": 14,
          "material": 2
        }
      ]
    },
    {
      "name": "GrowthBed",
      "primitives": [
        {
          "attributes": {
            "POSITION": 15,
            "NORMAL": 16
          },
          "indices": 17,
          "material": 5
        }
      ]
    },
    {
      "name": "GrowthCluster",
      "primitives": [
        {
          "attributes": {
            "POSITION": 18,
            "NORMAL": 19
          },
          "indices": 20,
          "material": 4
        }
      ]
    },
    {
      "name": "GrowthLight",
      "primitives": [
        {
          "attributes": {
            "POSITION": 21,
            "NORMAL": 22
          },
          "indices": 23,
          "material": 3
        }
      ]
    },
    {
      "name": "ClimateLouver",
      "primitives": [
        {
          "attributes": {
            "POSITION": 24,
            "NORMAL": 25
          },
          "indices": 26,
          "material": 0
        }
      ]
    },
    {
      "name": "ClimateLouverSlat",
      "primitives": [
        {
          "attributes": {
            "POSITION": 27,
            "NORMAL": 28
          },
          "indices": 29,
          "material": 3
        }
      ]
    },
    {
      "name": "GlasshouseServiceDoor",
      "primitives": [
        {
          "attributes": {
            "POSITION": 30,
            "NORMAL": 31
          },
          "indices": 32,
          "material": 0
        }
      ]
    },
    {
      "name": "GlasshouseDoorTrim",
      "primitives": [
        {
          "attributes": {
            "POSITION": 33,
            "NORMAL": 34
          },
          "indices": 35,
          "material": 6
        }
      ]
    },
    {
      "name": "BrokenSkylight",
      "primitives": [
        {
          "attributes": {
            "POSITION": 36,
            "NORMAL": 37
          },
          "indices": 38,
          "material": 2
        }
      ]
    },
    {
      "name": "ClimateCable",
      "primitives": [
        {
          "attributes": {
            "POSITION": 39,
            "NORMAL": 40
          },
          "indices": 41,
          "material": 6
        }
      ]
    },
    {
      "name": "GlasshouseMarker",
      "primitives": [
        {
          "attributes": {
            "POSITION": 42,
            "NORMAL": 43
          },
          "indices": 44,
          "material": 6
        }
      ]
    },
    {
      "name": "GlasshouseRoofRib",
      "primitives": [
        {
          "attributes": {
            "POSITION": 45,
            "NORMAL": 46
          },
          "indices": 47,
          "material": 1
        }
      ]
    },
    {
      "name": "GlasshousePaneLatch",
      "primitives": [
        {
          "attributes": {
            "POSITION": 48,
            "NORMAL": 49
          },
          "indices": 50,
          "material": 6
        }
      ]
    },
    {
      "name": "GlasshouseBedEdge",
      "primitives": [
        {
          "attributes": {
            "POSITION": 51,
            "NORMAL": 52
          },
          "indices": 53,
          "material": 0
        }
      ]
    },
    {
      "name": "GlasshouseGrowthTendril",
      "primitives": [
        {
          "attributes": {
            "POSITION": 54,
            "NORMAL": 55
          },
          "indices": 56,
          "material": 4
        }
      ]
    },
    {
      "name": "GlasshouseLightHousing",
      "primitives": [
        {
          "attributes": {
            "POSITION": 57,
            "NORMAL": 58
          },
          "indices": 59,
          "material": 0
        }
      ]
    },
    {
      "name": "GlasshouseClimateActuator",
      "primitives": [
        {
          "attributes": {
            "POSITION": 60,
            "NORMAL": 61
          },
          "indices": 62,
          "material": 6
        }
      ]
    }
  ],
  "materials": [
    {
      "name": "Glasshouse frame",
      "pbrMetallicRoughness": {
        "baseColorFactor": [
          0.08,
          0.16,
          0.17,
          1.0
        ],
        "metallicFactor": 0.72,
        "roughnessFactor": 0.42
      }
    },
    {
      "name": "Glasshouse oxidized trim",
      "pbrMetallicRoughness": {
        "baseColorFactor": [
          0.38,
          0.16,
          0.08,
          1.0
        ],
        "metallicFactor": 0.42,
        "roughnessFactor": 0.66
      }
    },
    {
      "name": "Glasshouse cold glass",
      "alphaMode": "BLEND",
      "doubleSided": true,
      "pbrMetallicRoughness": {
        "baseColorFactor": [
          0.1,
          0.27,
          0.28,
          0.3
        ],
        "metallicFactor": 0.08,
        "roughnessFactor": 0.28
      },
      "emissiveFactor": [
        0.01,
        0.07,
        0.07
      ]
    },
    {
      "name": "Glasshouse grow light",
      "pbrMetallicRoughness": {
        "baseColorFactor": [
          0.18,
          0.3,
          0.2,
          1.0
        ],
        "metallicFactor": 0.08,
        "roughnessFactor": 0.48
      },
      "emissiveFactor": [
        0.16,
        0.7,
        0.34
      ]
    },
    {
      "name": "Glasshouse organic growth",
      "pbrMetallicRoughness": {
        "baseColorFactor": [
          0.06,
          0.28,
          0.17,
          1.0
        ],
        "metallicFactor": 0.02,
        "roughnessFactor": 0.78
      },
      "emissiveFactor": [
        0.03,
        0.28,
        0.12
      ]
    },
    {
      "name": "Glasshouse soil",
      "pbrMetallicRoughness": {
        "baseColorFactor": [
          0.17,
          0.12,
          0.08,
          1.0
        ],
        "metallicFactor": 0.03,
        "roughnessFactor": 0.92
      }
    },
    {
      "name": "Glasshouse service amber",
      "pbrMetallicRoughness": {
        "baseColorFactor": [
          0.64,
          0.25,
          0.05,
          1.0
        ],
        "metallicFactor": 0.1,
        "roughnessFactor": 0.4
      },
      "emissiveFactor": [
        0.85,
        0.18,
        0.02
      ]
    }
  ],
  "accessors": [
    {
      "bufferView": 0,
      "componentType": 5126,
      "count": 24,
      "type": "VEC3",
      "min": [
        -9.0,
        -0.08,
        -7.0
      ],
      "max": [
        9.0,
        0.08,
        7.0
      ]
    },
    {
      "bufferView": 1,
      "componentType": 5126,
      "count": 24,
      "type": "VEC3"
    },
    {
      "bufferView": 2,
      "componentType": 5123,
      "count": 36,
      "type": "SCALAR",
      "normalized": false
    },
    {
      "bufferView": 3,
      "componentType": 5126,
      "count": 24,
      "type": "VEC3",
      "min": [
        -0.1,
        -3.3,
        -0.1
      ],
      "max": [
        0.1,
        3.3,
        0.1
      ]
    },
    {
      "bufferView": 4,
      "componentType": 5126,
      "count": 24,
      "type": "VEC3"
    },
    {
      "bufferView": 5,
      "componentType": 5123,
      "count": 36,
      "type": "SCALAR",
      "normalized": false
    },
    {
      "bufferView": 6,
      "componentType": 5126,
      "count": 24,
      "type": "VEC3",
      "min": [
        -0.11,
        -0.11,
        -6.1
      ],
      "max": [
        0.11,
        0.11,
        6.1
      ]
    },
    {
      "bufferView": 7,
      "componentType": 5126,
      "count": 24,
      "type": "VEC3"
    },
    {
      "bufferView": 8,
      "componentType": 5123,
      "count": 36,
      "type": "SCALAR",
      "normalized": false
    },
    {
      "bufferView": 9,
      "componentType": 5126,
      "count": 24,
      "type": "VEC3",
      "min": [
        -0.03,
        -2.45,
        -2.5
      ],
      "max": [
        0.03,
        2.45,
        2.5
      ]
    },
    {
      "bufferView": 10,
      "componentType": 5126,
      "count": 24,
      "type": "VEC3"
    },
    {
      "bufferView": 11,
      "componentType": 5123,
      "count": 36,
      "type": "SCALAR",
      "normalized": false
    },
    {
      "bufferView": 12,
      "componentType": 5126,
      "count": 24,
      "type": "VEC3",
      "min": [
        -2.5,
        -0.03,
        -2.9
      ],
      "max": [
        2.5,
        0.03,
        2.9
      ]
    },
    {
      "bufferView": 13,
      "componentType": 5126,
      "count": 24,
      "type": "VEC3"
    },
    {
      "bufferView": 14,
      "componentType": 5123,
      "count": 36,
      "type": "SCALAR",
      "normalized": false
    },
    {
      "bufferView": 15,
      "componentType": 5126,
      "count": 24,
      "type": "VEC3",
      "min": [
        -1.5,
        -0.15,
        -0.6
      ],
      "max": [
        1.5,
        0.15,
        0.6
      ]
    },
    {
      "bufferView": 16,
      "componentType": 5126,
      "count": 24,
      "type": "VEC3"
    },
    {
      "bufferView": 17,
      "componentType": 5123,
      "count": 36,
      "type": "SCALAR",
      "normalized": false
    },
    {
      "bufferView": 18,
      "componentType": 5126,
      "count": 532,
      "type": "VEC3",
      "min": [
        -0.62,
        -0.62,
        -0.62
      ],
      "max": [
        0.62,
        0.62,
        0.62
      ]
    },
    {
      "bufferView": 19,
      "componentType": 5126,
      "count": 532,
      "type": "VEC3"
    },
    {
      "bufferView": 20,
      "componentType": 5123,
      "count": 3024,
      "type": "SCALAR",
      "normalized": false
    },
    {
      "bufferView": 21,
      "componentType": 5126,
      "count": 408,
      "type": "VEC3",
      "min": [
        -0.15,
        -0.15,
        -0.15
      ],
      "max": [
        0.15,
        0.15,
        0.15
      ]
    },
    {
      "bufferView": 22,
      "componentType": 5126,
      "count": 408,
      "type": "VEC3"
    },
    {
      "bufferView": 23,
      "componentType": 5123,
      "count": 2304,
      "type": "SCALAR",
      "normalized": false
    },
    {
      "bufferView": 24,
      "componentType": 5126,
      "count": 24,
      "type": "VEC3",
      "min": [
        -1.3,
        -0.525,
        -0.08
      ],
      "max": [
        1.3,
        0.525,
        0.08
      ]
    },
    {
      "bufferView": 25,
      "componentType": 5126,
      "count": 24,
      "type": "VEC3"
    },
    {
      "bufferView": 26,
      "componentType": 5123,
      "count": 36,
      "type": "SCALAR",
      "normalized": false
    },
    {
      "bufferView": 27,
      "componentType": 5126,
      "count": 24,
      "type": "VEC3",
      "min": [
        -1.15,
        -0.04,
        -0.05
      ],
      "max": [
        1.15,
        0.04,
        0.05
      ]
    },
    {
      "bufferView": 28,
      "componentType": 5126,
      "count": 24,
      "type": "VEC3"
    },
    {
      "bufferView": 29,
      "componentType": 5123,
      "count": 36,
      "type": "SCALAR",
      "normalized": false
    },
    {
      "bufferView": 30,
      "componentType": 5126,
      "count": 24,
      "type": "VEC3",
      "min": [
        -1.1,
        -2.1,
        -0.09
      ],
      "max": [
        1.1,
        2.1,
        0.09
      ]
    },
    {
      "bufferView": 31,
      "componentType": 5126,
      "count": 24,
      "type": "VEC3"
    },
    {
      "bufferView": 32,
      "componentType": 5123,
      "count": 36,
      "type": "SCALAR",
      "normalized": false
    },
    {
      "bufferView": 33,
      "componentType": 5126,
      "count": 24,
      "type": "VEC3",
      "min": [
        -1.25,
        -0.07,
        -0.11
      ],
      "max": [
        1.25,
        0.07,
        0.11
      ]
    },
    {
      "bufferView": 34,
      "componentType": 5126,
      "count": 24,
      "type": "VEC3"
    },
    {
      "bufferView": 35,
      "componentType": 5123,
      "count": 36,
      "type": "SCALAR",
      "normalized": false
    },
    {
      "bufferView": 36,
      "componentType": 5126,
      "count": 24,
      "type": "VEC3",
      "min": [
        -1.45,
        -0.035,
        -1.0
      ],
      "max": [
        1.45,
        0.035,
        1.0
      ]
    },
    {
      "bufferView": 37,
      "componentType": 5126,
      "count": 24,
      "type": "VEC3"
    },
    {
      "bufferView": 38,
      "componentType": 5123,
      "count": 36,
      "type": "SCALAR",
      "normalized": false
    },
    {
      "bufferView": 39,
      "componentType": 5126,
      "count": 22,
      "type": "VEC3",
      "min": [
        -0.04,
        -2.5,
        -0.038042260651806145
      ],
      "max": [
        0.04,
        2.5,
        0.038042260651806145
      ]
    },
    {
      "bufferView": 40,
      "componentType": 5126,
      "count": 22,
      "type": "VEC3"
    },
    {
      "bufferView": 41,
      "componentType": 5123,
      "count": 120,
      "type": "SCALAR",
      "normalized": false
    },
    {
      "bufferView": 42,
      "componentType": 5126,
      "count": 24,
      "type": "VEC3",
      "min": [
        -0.35,
        -0.04,
        -0.35
      ],
      "max": [
        0.35,
        0.04,
        0.35
      ]
    },
    {
      "bufferView": 43,
      "componentType": 5126,
      "count": 24,
      "type": "VEC3"
    },
    {
      "bufferView": 44,
      "componentType": 5123,
      "count": 36,
      "type": "SCALAR",
      "normalized": false
    },
    {
      "bufferView": 45,
      "componentType": 5126,
      "count": 24,
      "type": "VEC3",
      "min": [
        -0.07,
        -0.07,
        -2.9
      ],
      "max": [
        0.07,
        0.07,
        2.9
      ]
    },
    {
      "bufferView": 46,
      "componentType": 5126,
      "count": 24,
      "type": "VEC3"
    },
    {
      "bufferView": 47,
      "componentType": 5123,
      "count": 36,
      "type": "SCALAR",
      "normalized": false
    },
    {
      "bufferView": 48,
      "componentType": 5126,
      "count": 24,
      "type": "VEC3",
      "min": [
        -0.08,
        -0.09,
        -0.05
      ],
      "max": [
        0.08,
        0.09,
        0.05
      ]
    },
    {
      "bufferView": 49,
      "componentType": 5126,
      "count": 24,
      "type": "VEC3"
    },
    {
      "bufferView": 50,
      "componentType": 5123,
      "count": 36,
      "type": "SCALAR",
      "normalized": false
    },
    {
      "bufferView": 51,
      "componentType": 5126,
      "count": 24,
      "type": "VEC3",
      "min": [
        -1.625,
        -0.08,
        -0.07
      ],
      "max": [
        1.625,
        0.08,
        0.07
      ]
    },
    {
      "bufferView": 52,
      "componentType": 5126,
      "count": 24,
      "type": "VEC3"
    },
    {
      "bufferView": 53,
      "componentType": 5123,
      "count": 36,
      "type": "SCALAR",
      "normalized": false
    },
    {
      "bufferView": 54,
      "componentType": 5126,
      "count": 30,
      "type": "VEC3",
      "min": [
        -0.045,
        -0.46,
        -0.043871756048182074
      ],
      "max": [
        0.045,
        0.46,
        0.04387175604818206
      ]
    },
    {
      "bufferView": 55,
      "componentType": 5126,
      "count": 30,
      "type": "VEC3"
    },
    {
      "bufferView": 56,
      "componentType": 5123,
      "count": 168,
      "type": "SCALAR",
      "normalized": false
    },
    {
      "bufferView": 57,
      "componentType": 5126,
      "count": 34,
      "type": "VEC3",
      "min": [
        -0.11,
        -0.08,
        -0.11
      ],
      "max": [
        0.11,
        0.08,
        0.11
      ]
    },
    {
      "bufferView": 58,
      "componentType": 5126,
      "count": 34,
      "type": "VEC3"
    },
    {
      "bufferView": 59,
      "componentType": 5123,
      "count": 192,
      "type": "SCALAR",
      "normalized": false
    },
    {
      "bufferView": 60,
      "componentType": 5126,
      "count": 30,
      "type": "VEC3",
      "min": [
        -0.08,
        -0.27,
        -0.07799423297454591
      ],
      "max": [
        0.08,
        0.27,
        0.07799423297454589
      ]
    },
    {
      "bufferView": 61,
      "componentType": 5126,
      "count": 30,
      "type": "VEC3"
    },
    {
      "bufferView": 62,
      "componentType": 5123,
      "count": 168,
      "type": "SCALAR",
      "normalized": false
    }
  ],
  "bufferViews": [
    {
      "buffer": 0,
      "byteOffset": 0,
      "byteLength": 288,
      "target": 34962
    },
    {
      "buffer": 0,
      "byteOffset": 288,
      "byteLength": 288,
      "target": 34962
    },
    {
      "buffer": 0,
      "byteOffset": 576,
      "byteLength": 72,
      "target": 34963
    },
    {
      "buffer": 0,
      "byteOffset": 648,
      "byteLength": 288,
      "target": 34962
    },
    {
      "buffer": 0,
      "byteOffset": 936,
      "byteLength": 288,
      "target": 34962
    },
    {
      "buffer": 0,
      "byteOffset": 1224,
      "byteLength": 72,
      "target": 34963
    },
    {
      "buffer": 0,
      "byteOffset": 1296,
      "byteLength": 288,
      "target": 34962
    },
    {
      "buffer": 0,
      "byteOffset": 1584,
      "byteLength": 288,
      "target": 34962
    },
    {
      "buffer": 0,
      "byteOffset": 1872,
      "byteLength": 72,
      "target": 34963
    },
    {
      "buffer": 0,
      "byteOffset": 1944,
      "byteLength": 288,
      "target": 34962
    },
    {
      "buffer": 0,
      "byteOffset": 2232,
      "byteLength": 288,
      "target": 34962
    },
    {
      "buffer": 0,
      "byteOffset": 2520,
      "byteLength": 72,
      "target": 34963
    },
    {
      "buffer": 0,
      "byteOffset": 2592,
      "byteLength": 288,
      "target": 34962
    },
    {
      "buffer": 0,
      "byteOffset": 2880,
      "byteLength": 288,
      "target": 34962
    },
    {
      "buffer": 0,
      "byteOffset": 3168,
      "byteLength": 72,
      "target": 34963
    },
    {
      "buffer": 0,
      "byteOffset": 3240,
      "byteLength": 288,
      "target": 34962
    },
    {
      "buffer": 0,
      "byteOffset": 3528,
      "byteLength": 288,
      "target": 34962
    },
    {
      "buffer": 0,
      "byteOffset": 3816,
      "byteLength": 72,
      "target": 34963
    },
    {
      "buffer": 0,
      "byteOffset": 3888,
      "byteLength": 6384,
      "target": 34962
    },
    {
      "buffer": 0,
      "byteOffset": 10272,
      "byteLength": 6384,
      "target": 34962
    },
    {
      "buffer": 0,
      "byteOffset": 16656,
      "byteLength": 6048,
      "target": 34963
    },
    {
      "buffer": 0,
      "byteOffset": 22704,
      "byteLength": 4896,
      "target": 34962
    },
    {
      "buffer": 0,
      "byteOffset": 27600,
      "byteLength": 4896,
      "target": 34962
    },
    {
      "buffer": 0,
      "byteOffset": 32496,
      "byteLength": 4608,
      "target": 34963
    },
    {
      "buffer": 0,
      "byteOffset": 37104,
      "byteLength": 288,
      "target": 34962
    },
    {
      "buffer": 0,
      "byteOffset": 37392,
      "byteLength": 288,
      "target": 34962
    },
    {
      "buffer": 0,
      "byteOffset": 37680,
      "byteLength": 72,
      "target": 34963
    },
    {
      "buffer": 0,
      "byteOffset": 37752,
      "byteLength": 288,
      "target": 34962
    },
    {
      "buffer": 0,
      "byteOffset": 38040,
      "byteLength": 288,
      "target": 34962
    },
    {
      "buffer": 0,
      "byteOffset": 38328,
      "byteLength": 72,
      "target": 34963
    },
    {
      "buffer": 0,
      "byteOffset": 38400,
      "byteLength": 288,
      "target": 34962
    },
    {
      "buffer": 0,
      "byteOffset": 38688,
      "byteLength": 288,
      "target": 34962
    },
    {
      "buffer": 0,
      "byteOffset": 38976,
      "byteLength": 72,
      "target": 34963
    },
    {
      "buffer": 0,
      "byteOffset": 39048,
      "byteLength": 288,
      "target": 34962
    },
    {
      "buffer": 0,
      "byteOffset": 39336,
      "byteLength": 288,
      "target": 34962
    },
    {
      "buffer": 0,
      "byteOffset": 39624,
      "byteLength": 72,
      "target": 34963
    },
    {
      "buffer": 0,
      "byteOffset": 39696,
      "byteLength": 288,
      "target": 34962
    },
    {
      "buffer": 0,
      "byteOffset": 39984,
      "byteLength": 288,
      "target": 34962
    },
    {
      "buffer": 0,
      "byteOffset": 40272,
      "byteLength": 72,
      "target": 34963
    },
    {
      "buffer": 0,
      "byteOffset": 40344,
      "byteLength": 264,
      "target": 34962
    },
    {
      "buffer": 0,
      "byteOffset": 40608,
      "byteLength": 264,
      "target": 34962
    },
    {
      "buffer": 0,
      "byteOffset": 40872,
      "byteLength": 240,
      "target": 34963
    },
    {
      "buffer": 0,
      "byteOffset": 41112,
      "byteLength": 288,
      "target": 34962
    },
    {
      "buffer": 0,
      "byteOffset": 41400,
      "byteLength": 288,
      "target": 34962
    },
    {
      "buffer": 0,
      "byteOffset": 41688,
      "byteLength": 72,
      "target": 34963
    },
    {
      "buffer": 0,
      "byteOffset": 41760,
      "byteLength": 288,
      "target": 34962
    },
    {
      "buffer": 0,
      "byteOffset": 42048,
      "byteLength": 288,
      "target": 34962
    },
    {
      "buffer": 0,
      "byteOffset": 42336,
      "byteLength": 72,
      "target": 34963
    },
    {
      "buffer": 0,
      "byteOffset": 42408,
      "byteLength": 288,
      "target": 34962
    },
    {
      "buffer": 0,
      "byteOffset": 42696,
      "byteLength": 288,
      "target": 34962
    },
    {
      "buffer": 0,
      "byteOffset": 42984,
      "byteLength": 72,
      "target": 34963
    },
    {
      "buffer": 0,
      "byteOffset": 43056,
      "byteLength": 288,
      "target": 34962
    },
    {
      "buffer": 0,
      "byteOffset": 43344,
      "byteLength": 288,
      "target": 34962
    },
    {
      "buffer": 0,
      "byteOffset": 43632,
      "byteLength": 72,
      "target": 34963
    },
    {
      "buffer": 0,
      "byteOffset": 43704,
      "byteLength": 360,
      "target": 34962
    },
    {
      "buffer": 0,
      "byteOffset": 44064,
      "byteLength": 360,
      "target": 34962
    },
    {
      "buffer": 0,
      "byteOffset": 44424,
      "byteLength": 336,
      "target": 34963
    },
    {
      "buffer": 0,
      "byteOffset": 44760,
      "byteLength": 408,
      "target": 34962
    },
    {
      "buffer": 0,
      "byteOffset": 45168,
      "byteLength": 408,
      "target": 34962
    },
    {
      "buffer": 0,
      "byteOffset": 45576,
      "byteLength": 384,
      "target": 34963
    },
    {
      "buffer": 0,
      "byteOffset": 45960,
      "byteLength": 360,
      "target": 34962
    },
    {
      "buffer": 0,
      "byteOffset": 46320,
      "byteLength": 360,
      "target": 34962
    },
    {
      "buffer": 0,
      "byteOffset": 46680,
      "byteLength": 336,
      "target": 34963
    }
  ],
  "buffers": [
    {
      "byteLength": 47016,
      "uri": "data:application/octet-stream;base64,"
    }
  ],
  "extras": {
    "ironwright_asset_id": "glasshouse.municipal.v1",
    "required_nodes": [
      "GlasshouseModel",
      "GlasshouseFrameBay0",
      "GlasshouseRoofRib0",
      "GlasshousePaneLatch0",
      "GlasshouseClimateLouver",
      "GlasshouseClimateActuator",
      "GlasshouseBrokenSkylight",
      "GlasshouseGrowthBed0",
      "GlasshouseBedEdge0",
      "GlasshouseGrowthTendril0_0",
      "GlasshouseLightHousing0",
      "GlasshouseServiceDoor",
      "ProductionAssetMarker"
    ]
  }
}
