{
  "asset": {
    "version": "2.0",
    "generator": "Project Ironwright original Riverworks asset builder"
  },
  "scene": 0,
  "scenes": [
    {
      "name": "Riverworks",
      "nodes": [
        0
      ]
    }
  ],
  "nodes": [
    {
      "name": "RiverworksModel",
      "children": [
        1,
        25,
        31,
        32,
        33,
        34,
        35,
        36,
        37,
        38,
        39,
        40,
        41,
        42,
        43,
        44,
        45,
        46,
        47
      ],
      "extras": {
        "ironwright_asset_id": "riverworks.landmark.v1",
        "asset_quality": "authored_high_definition",
        "socket_contract": "pump_housings, sluice_gate, impeller, maintenance_valve, water_signal, growth_markers"
      }
    },
    {
      "name": "RiverworksPumpCore",
      "translation": [
        0.0,
        0.0,
        0.0
      ],
      "extras": {
        "surface": "sealed_pump_housing"
      },
      "children": [
        2,
        3,
        4,
        5,
        6,
        7,
        8,
        9,
        10,
        11,
        12,
        13,
        14,
        15,
        16,
        17,
        18,
        19,
        20,
        21,
        22,
        23,
        24
      ]
    },
    {
      "name": "RiverworksPumpHousing",
      "translation": [
        0.0,
        1.55,
        0.0
      ],
      "mesh": 0,
      "scale": [
        1.0,
        1.0,
        0.94
      ],
      "extras": {
        "release_material_family": "metal"
      }
    },
    {
      "name": "RiverworksPumpHousingCap",
      "translation": [
        0.0,
        3.02,
        0.0
      ],
      "mesh": 1
    },
    {
      "name": "RiverworksPump",
      "translation": [
        0.0,
        1.65,
        -1.98
      ],
      "mesh": 2,
      "scale": [
        1.18,
        0.82,
        0.68
      ],
      "extras": {
        "socket_type": "pump_core"
      }
    },
    {
      "name": "RiverworksPumpPanel",
      "translation": [
        0.0,
        1.55,
        -2.05
      ],
      "mesh": 14,
      "extras": {
        "surface": "pump_service_panel"
      }
    },
    {
      "name": "RiverworksPumpBraceL",
      "translation": [
        -2.1,
        1.55,
        -2.02
      ],
      "mesh": 15,
      "extras": {
        "surface": "pump_brace"
      }
    },
    {
      "name": "RiverworksPumpBraceR",
      "translation": [
        2.1,
        1.55,
        -2.02
      ],
      "mesh": 15,
      "extras": {
        "surface": "pump_brace"
      }
    },
    {
      "name": "RiverworksPipe0",
      "translation": [
        -1.65,
        3.9,
        0.55
      ],
      "mesh": 3,
      "rotation": [
        0.7071067811865476,
        0.0,
        0.0,
        0.7071067811865476
      ],
      "extras": {
        "socket_type": "service_pipe"
      }
    },
    {
      "name": "RiverworksPipeCollar0",
      "translation": [
        -1.65,
        3.9,
        0.55
      ],
      "mesh": 4,
      "rotation": [
        0.7071067811865476,
        0.0,
        0.0,
        0.7071067811865476
      ]
    },
    {
      "name": "RiverworksPipe1",
      "translation": [
        0.0,
        3.9,
        0.55
      ],
      "mesh": 3,
      "rotation": [
        0.7071067811865476,
        0.0,
        0.0,
        0.7071067811865476
      ],
      "extras": {
        "socket_type": "service_pipe"
      }
    },
    {
      "name": "RiverworksPipeCollar1",
      "translation": [
        0.0,
        3.9,
        0.55
      ],
      "mesh": 4,
      "rotation": [
        0.7071067811865476,
        0.0,
        0.0,
        0.7071067811865476
      ]
    },
    {
      "name": "RiverworksPipe2",
      "translation": [
        1.65,
        3.9,
        0.55
      ],
      "mesh": 3,
      "rotation": [
        0.7071067811865476,
        0.0,
        0.0,
        0.7071067811865476
      ],
      "extras": {
        "socket_type": "service_pipe"
      }
    },
    {
      "name": "RiverworksPipeCollar2",
      "translation": [
        1.65,
        3.9,
        0.55
      ],
      "mesh": 4,
      "rotation": [
        0.7071067811865476,
        0.0,
        0.0,
        0.7071067811865476
      ]
    },
    {
      "name": "RiverworksRotor",
      "translation": [
        0.0,
        1.68,
        -2.67
      ],
      "mesh": 7,
      "rotation": [
        0.7071067811865476,
        0.0,
        0.0,
        0.7071067811865476
      ],
      "extras": {
        "socket_type": "water_impeller"
      }
    },
    {
      "name": "RiverworksRotorHub",
      "translation": [
        0.0,
        1.68,
        -2.67
      ],
      "mesh": 16,
      "rotation": [
        0.7071067811865476,
        0.0,
        0.0,
        0.7071067811865476
      ],
      "extras": {
        "surface": "impeller_hub"
      }
    },
    {
      "name": "RiverworksPumpVoluteRing",
      "translation": [
        0.0,
        1.68,
        -2.69
      ],
      "mesh": 8,
      "rotation": [
        0.7071067811865476,
        0.0,
        0.0,
        0.7071067811865476
      ],
      "extras": {
        "surface": "sealed_volute_service_ring"
      }
    },
    {
      "name": "RiverworksRotorBlade00",
      "translation": [
        0.0,
        1.68,
        -3.13
      ],
      "mesh": 9,
      "extras": {
        "surface": "impeller_blade"
      }
    },
    {
      "name": "RiverworksRotorBlade01",
      "translation": [
        0.39837168574084175,
        1.68,
        -2.9
      ],
      "mesh": 9,
      "rotation": [
        0.0,
        0.49999999999999994,
        0.0,
        0.8660254037844387
      ],
      "extras": {
        "surface": "impeller_blade"
      }
    },
    {
      "name": "RiverworksRotorBlade02",
      "translation": [
        0.3983716857408418,
        1.68,
        -2.44
      ],
      "mesh": 9,
      "rotation": [
        0.0,
        0.8660254037844386,
        0.0,
        0.5000000000000001
      ],
      "extras": {
        "surface": "impeller_blade"
      }
    },
    {
      "name": "RiverworksRotorBlade03",
      "translation": [
        5.633375276077825e-17,
        1.68,
        -2.21
      ],
      "mesh": 9,
      "rotation": [
        0.0,
        1.0,
        0.0,
        6.123233995736766e-17
      ],
      "extras": {
        "surface": "impeller_blade"
      }
    },
    {
      "name": "RiverworksRotorBlade04",
      "translation": [
        -0.3983716857408417,
        1.68,
        -2.4399999999999995
      ],
      "mesh": 9,
      "rotation": [
        -0.0,
        0.8660254037844387,
        -0.0,
        -0.4999999999999998
      ],
      "extras": {
        "surface": "impeller_blade"
      }
    },
    {
      "name": "RiverworksRotorBlade05",
      "translation": [
        -0.39837168574084175,
        1.68,
        -2.9
      ],
      "mesh": 9,
      "rotation": [
        -0.0,
        0.49999999999999994,
        -0.0,
        -0.8660254037844387
      ],
      "extras": {
        "surface": "impeller_blade"
      }
    },
    {
      "name": "RiverworksMaintenanceValve",
      "translation": [
        2.65,
        2.15,
        -0.65
      ],
      "mesh": 10,
      "rotation": [
        0.0,
        0.7071067811865476,
        0.0,
        0.7071067811865476
      ],
      "extras": {
        "socket_type": "maintenance_valve"
      }
    },
    {
      "name": "RiverworksValveHandle",
      "translation": [
        2.65,
        2.15,
        -0.65
      ],
      "mesh": 17,
      "rotation": [
        0.0,
        0.7071067811865476,
        0.0,
        0.7071067811865476
      ],
      "extras": {
        "surface": "maintenance_handle"
      }
    },
    {
      "name": "RiverworksSluiceGate",
      "translation": [
        0.0,
        1.0,
        5.8
      ],
      "mesh": 5,
      "extras": {
        "socket_type": "sluice_gate"
      },
      "children": [
        26,
        27,
        28,
        29,
        30
      ]
    },
    {
      "name": "RiverworksSluiceRib0",
      "translation": [
        -2.0,
        0.0,
        -0.17
      ],
      "mesh": 6
    },
    {
      "name": "RiverworksSluiceRib1",
      "translation": [
        0.0,
        0.0,
        -0.17
      ],
      "mesh": 6
    },
    {
      "name": "RiverworksSluiceRib2",
      "translation": [
        2.0,
        0.0,
        -0.17
      ],
      "mesh": 6
    },
    {
      "name": "RiverworksSluiceRail",
      "translation": [
        0.0,
        0.92,
        -0.17
      ],
      "mesh": 18,
      "extras": {
        "surface": "sluice_top_rail"
      }
    },
    {
      "name": "RiverworksSluiceLatch",
      "translation": [
        0.0,
        0.18,
        -0.38
      ],
      "mesh": 19,
      "extras": {
        "surface": "sluice_latch"
      }
    },
    {
      "name": "RiverworksSluiceSignalHousing",
      "translation": [
        0.0,
        4.32,
        5.8
      ],
      "mesh": 20,
      "rotation": [
        0.7071067811865476,
        0.0,
        0.0,
        0.7071067811865476
      ],
      "extras": {
        "surface": "flow_signal_housing"
      }
    },
    {
      "name": "RiverworksSluiceSignal",
      "translation": [
        0.0,
        4.32,
        5.8
      ],
      "mesh": 11,
      "extras": {
        "socket_type": "flow_signal"
      }
    },
    {
      "name": "RiverworksGrowth0",
      "translation": [
        -5.5,
        0.45,
        6.6
      ],
      "mesh": 12,
      "scale": [
        1.0,
        0.7,
        1.15
      ],
      "extras": {
        "socket_type": "ecology_growth"
      }
    },
    {
      "name": "RiverworksGrowthTendril0_0",
      "translation": [
        -5.7,
        0.8,
        6.6
      ],
      "mesh": 22,
      "rotation": [
        0.0,
        0.0,
        -0.10977830083717481,
        0.9939560979566968
      ],
      "extras": {
        "surface": "organic_tendril"
      }
    },
    {
      "name": "RiverworksGrowthTendril0_1",
      "translation": [
        -5.35,
        0.8,
        6.6
      ],
      "mesh": 22,
      "rotation": [
        0.0,
        0.0,
        0.0799146939691727,
        0.9968017063026194
      ],
      "extras": {
        "surface": "organic_tendril"
      }
    },
    {
      "name": "RiverworksGrowth1",
      "translation": [
        5.5,
        0.45,
        6.6
      ],
      "mesh": 12,
      "scale": [
        1.0,
        0.7,
        1.15
      ],
      "extras": {
        "socket_type": "ecology_growth"
      }
    },
    {
      "name": "RiverworksGrowthTendril1_0",
      "translation": [
        5.3,
        0.8,
        6.6
      ],
      "mesh": 22,
      "rotation": [
        0.0,
        0.0,
        -0.10977830083717481,
        0.9939560979566968
      ],
      "extras": {
        "surface": "organic_tendril"
      }
    },
    {
      "name": "RiverworksGrowthTendril1_1",
      "translation": [
        5.65,
        0.8,
        6.6
      ],
      "mesh": 22,
      "rotation": [
        0.0,
        0.0,
        0.0799146939691727,
        0.9968017063026194
      ],
      "extras": {
        "surface": "organic_tendril"
      }
    },
    {
      "name": "RiverworksGrowth2",
      "translation": [
        -5.5,
        0.45,
        -2.8
      ],
      "mesh": 12,
      "scale": [
        1.0,
        0.7,
        1.15
      ],
      "extras": {
        "socket_type": "ecology_growth"
      }
    },
    {
      "name": "RiverworksGrowthTendril2_0",
      "translation": [
        -5.7,
        0.8,
        -2.8
      ],
      "mesh": 22,
      "rotation": [
        0.0,
        0.0,
        -0.10977830083717481,
        0.9939560979566968
      ],
      "extras": {
        "surface": "organic_tendril"
      }
    },
    {
      "name": "RiverworksGrowthTendril2_1",
      "translation": [
        -5.35,
        0.8,
        -2.8
      ],
      "mesh": 22,
      "rotation": [
        0.0,
        0.0,
        0.0799146939691727,
        0.9968017063026194
      ],
      "extras": {
        "surface": "organic_tendril"
      }
    },
    {
      "name": "RiverworksGrowth3",
      "translation": [
        5.5,
        0.45,
        -2.8
      ],
      "mesh": 12,
      "scale": [
        1.0,
        0.7,
        1.15
      ],
      "extras": {
        "socket_type": "ecology_growth"
      }
    },
    {
      "name": "RiverworksGrowthTendril3_0",
      "translation": [
        5.3,
        0.8,
        -2.8
      ],
      "mesh": 22,
      "rotation": [
        0.0,
        0.0,
        -0.10977830083717481,
        0.9939560979566968
      ],
      "extras": {
        "surface": "organic_tendril"
      }
    },
    {
      "name": "RiverworksGrowthTendril3_1",
      "translation": [
        5.65,
        0.8,
        -2.8
      ],
      "mesh": 22,
      "rotation": [
        0.0,
        0.0,
        0.0799146939691727,
        0.9968017063026194
      ],
      "extras": {
        "surface": "organic_tendril"
      }
    },
    {
      "name": "RiverworksCable",
      "translation": [
        3.5,
        2.2,
        -0.25
      ],
      "mesh": 13,
      "rotation": [
        0.0,
        0.0,
        0.7071067811865476,
        0.7071067811865476
      ],
      "scale": [
        1.0,
        1.0,
        1.15
      ],
      "extras": {
        "socket_type": "maintenance_cable"
      }
    },
    {
      "name": "RiverworksCableClamp",
      "translation": [
        3.5,
        2.2,
        1.7
      ],
      "mesh": 21,
      "rotation": [
        0.0,
        0.7071067811865476,
        0.0,
        0.7071067811865476
      ],
      "extras": {
        "surface": "maintenance_cable_clamp"
      }
    },
    {
      "name": "ProductionAssetMarker",
      "translation": [
        0.0,
        0.0,
        0.0
      ],
      "extras": {
        "asset_contract": "riverworks.landmark.v1",
        "source": "original_shared_mesh_builder"
      }
    }
  ],
  "meshes": [
    {
      "name": "Housing",
      "primitives": [
        {
          "attributes": {
            "POSITION": 0,
            "NORMAL": 1,
            "TEXCOORD_0": 2,
            "TANGENT": 3
          },
          "indices": 4,
          "material": 0
        }
      ]
    },
    {
      "name": "HousingCap",
      "primitives": [
        {
          "attributes": {
            "POSITION": 5,
            "NORMAL": 6,
            "TEXCOORD_0": 7,
            "TANGENT": 8
          },
          "indices": 9,
          "material": 2
        }
      ]
    },
    {
      "name": "Pump",
      "primitives": [
        {
          "attributes": {
            "POSITION": 10,
            "NORMAL": 11,
            "TEXCOORD_0": 12,
            "TANGENT": 13
          },
          "indices": 14,
          "material": 0
        }
      ]
    },
    {
      "name": "Pipe",
      "primitives": [
        {
          "attributes": {
            "POSITION": 15,
            "NORMAL": 16,
            "TEXCOORD_0": 17,
            "TANGENT": 18
          },
          "indices": 19,
          "material": 1
        }
      ]
    },
    {
      "name": "PipeCollar",
      "primitives": [
        {
          "attributes": {
            "POSITION": 20,
            "NORMAL": 21,
            "TEXCOORD_0": 22,
            "TANGENT": 23
          },
          "indices": 24,
          "material": 2
        }
      ]
    },
    {
      "name": "Sluice",
      "primitives": [
        {
          "attributes": {
            "POSITION": 25,
            "NORMAL": 26,
            "TEXCOORD_0": 27,
            "TANGENT": 28
          },
          "indices": 29,
          "material": 0
        }
      ]
    },
    {
      "name": "SluiceRib",
      "primitives": [
        {
          "attributes": {
            "POSITION": 30,
            "NORMAL": 31,
            "TEXCOORD_0": 32,
            "TANGENT": 33
          },
          "indices": 34,
          "material": 1
        }
      ]
    },
    {
      "name": "Rotor",
      "primitives": [
        {
          "attributes": {
            "POSITION": 35,
            "NORMAL": 36,
            "TEXCOORD_0": 37,
            "TANGENT": 38
          },
          "indices": 39,
          "material": 3
        }
      ]
    },
    {
      "name": "PumpVoluteRing",
      "primitives": [
        {
          "attributes": {
            "POSITION": 40,
            "NORMAL": 41,
            "TEXCOORD_0": 42,
            "TANGENT": 43
          },
          "indices": 44,
          "material": 2
        }
      ]
    },
    {
      "name": "RotorBlade",
      "primitives": [
        {
          "attributes": {
            "POSITION": 45,
            "NORMAL": 46,
            "TEXCOORD_0": 47,
            "TANGENT": 48
          },
          "indices": 49,
          "material": 3
        }
      ]
    },
    {
      "name": "Valve",
      "primitives": [
        {
          "attributes": {
            "POSITION": 50,
            "NORMAL": 51,
            "TEXCOORD_0": 52,
            "TANGENT": 53
          },
          "indices": 54,
          "material": 4
        }
      ]
    },
    {
      "name": "Signal",
      "primitives": [
        {
          "attributes": {
            "POSITION": 55,
            "NORMAL": 56,
            "TEXCOORD_0": 57,
            "TANGENT": 58
          },
          "indices": 59,
          "material": 4
        }
      ]
    },
    {
      "name": "Growth",
      "primitives": [
        {
          "attributes": {
            "POSITION": 60,
            "NORMAL": 61,
            "TEXCOORD_0": 62,
            "TANGENT": 63
          },
          "indices": 64,
          "material": 5
        }
      ]
    },
    {
      "name": "Cable",
      "primitives": [
        {
          "attributes": {
            "POSITION": 65,
            "NORMAL": 66,
            "TEXCOORD_0": 67,
            "TANGENT": 68
          },
          "indices": 69,
          "material": 4
        }
      ]
    },
    {
      "name": "PumpPanel",
      "primitives": [
        {
          "attributes": {
            "POSITION": 70,
            "NORMAL": 71,
            "TEXCOORD_0": 72,
            "TANGENT": 73
          },
          "indices": 74,
          "material": 2
        }
      ]
    },
    {
      "name": "PumpBrace",
      "primitives": [
        {
          "attributes": {
            "POSITION": 75,
            "NORMAL": 76,
            "TEXCOORD_0": 77,
            "TANGENT": 78
          },
          "indices": 79,
          "material": 1
        }
      ]
    },
    {
      "name": "RotorHub",
      "primitives": [
        {
          "attributes": {
            "POSITION": 80,
            "NORMAL": 81,
            "TEXCOORD_0": 82,
            "TANGENT": 83
          },
          "indices": 84,
          "material": 4
        }
      ]
    },
    {
      "name": "ValveHandle",
      "primitives": [
        {
          "attributes": {
            "POSITION": 85,
            "NORMAL": 86,
            "TEXCOORD_0": 87,
            "TANGENT": 88
          },
          "indices": 89,
          "material": 1
        }
      ]
    },
    {
      "name": "SluiceRail",
      "primitives": [
        {
          "attributes": {
            "POSITION": 90,
            "NORMAL": 91,
            "TEXCOORD_0": 92,
            "TANGENT": 93
          },
          "indices": 94,
          "material": 1
        }
      ]
    },
    {
      "name": "SluiceLatch",
      "primitives": [
        {
          "attributes": {
            "POSITION": 95,
            "NORMAL": 96,
            "TEXCOORD_0": 97,
            "TANGENT": 98
          },
          "indices": 99,
          "material": 4
        }
      ]
    },
    {
      "name": "SignalHousing",
      "primitives": [
        {
          "attributes": {
            "POSITION": 100,
            "NORMAL": 101,
            "TEXCOORD_0": 102,
            "TANGENT": 103
          },
          "indices": 104,
          "material": 2
        }
      ]
    },
    {
      "name": "CableClamp",
      "primitives": [
        {
          "attributes": {
            "POSITION": 105,
            "NORMAL": 106,
            "TEXCOORD_0": 107,
            "TANGENT": 108
          },
          "indices": 109,
          "material": 4
        }
      ]
    },
    {
      "name": "GrowthTendril",
      "primitives": [
        {
          "attributes": {
            "POSITION": 110,
            "NORMAL": 111,
            "TEXCOORD_0": 112,
            "TANGENT": 113
          },
          "indices": 114,
          "material": 5
        }
      ]
    }
  ],
  "materials": [
    {
      "name": "Riverworks wet alloy",
      "pbrMetallicRoughness": {
        "baseColorFactor": [
          0.025,
          0.07,
          0.08,
          1.0
        ],
        "metallicFactor": 0.46,
        "roughnessFactor": 0.52
      }
    },
    {
      "name": "Riverworks oxidized iron",
      "pbrMetallicRoughness": {
        "baseColorFactor": [
          0.22,
          0.055,
          0.018,
          1.0
        ],
        "metallicFactor": 0.26,
        "roughnessFactor": 0.76
      }
    },
    {
      "name": "Riverworks ceramic",
      "pbrMetallicRoughness": {
        "baseColorFactor": [
          0.07,
          0.1,
          0.1,
          1.0
        ],
        "metallicFactor": 0.1,
        "roughnessFactor": 0.66
      }
    },
    {
      "name": "Riverworks cold water",
      "pbrMetallicRoughness": {
        "baseColorFactor": [
          0.012,
          0.1,
          0.14,
          1.0
        ],
        "metallicFactor": 0.1,
        "roughnessFactor": 0.32
      },
      "emissiveFactor": [
        0.0,
        0.08,
        0.12
      ]
    },
    {
      "name": "Riverworks maintenance amber",
      "pbrMetallicRoughness": {
        "baseColorFactor": [
          0.38,
          0.12,
          0.02,
          1.0
        ],
        "metallicFactor": 0.1,
        "roughnessFactor": 0.52
      },
      "emissiveFactor": [
        0.28,
        0.06,
        0.01
      ]
    },
    {
      "name": "Riverworks growth",
      "pbrMetallicRoughness": {
        "baseColorFactor": [
          0.025,
          0.13,
          0.07,
          1.0
        ],
        "metallicFactor": 0.02,
        "roughnessFactor": 0.84
      },
      "emissiveFactor": [
        0.01,
        0.08,
        0.03
      ]
    }
  ],
  "accessors": [
    {
      "bufferView": 0,
      "componentType": 5126,
      "count": 96,
      "type": "VEC3",
      "min": [
        -2.4,
        -1.4,
        -1.95
      ],
      "max": [
        2.4,
        1.4,
        1.95
      ]
    },
    {
      "bufferView": 1,
      "componentType": 5126,
      "count": 96,
      "type": "VEC3"
    },
    {
      "bufferView": 2,
      "componentType": 5126,
      "count": 96,
      "type": "VEC2"
    },
    {
      "bufferView": 3,
      "componentType": 5126,
      "count": 96,
      "type": "VEC4"
    },
    {
      "bufferView": 4,
      "componentType": 5123,
      "count": 132,
      "type": "SCALAR",
      "normalized": false
    },
    {
      "bufferView": 5,
      "componentType": 5126,
      "count": 96,
      "type": "VEC3",
      "min": [
        -2.6,
        -0.14,
        -2.15
      ],
      "max": [
        2.6,
        0.14,
        2.15
      ]
    },
    {
      "bufferView": 6,
      "componentType": 5126,
      "count": 96,
      "type": "VEC3"
    },
    {
      "bufferView": 7,
      "componentType": 5126,
      "count": 96,
      "type": "VEC2"
    },
    {
      "bufferView": 8,
      "componentType": 5126,
      "count": 96,
      "type": "VEC4"
    },
    {
      "bufferView": 9,
      "componentType": 5123,
      "count": 132,
      "type": "SCALAR",
      "normalized": false
    },
    {
      "bufferView": 10,
      "componentType": 5126,
      "count": 900,
      "type": "VEC3",
      "min": [
        -1.0,
        -1.0,
        -1.0
      ],
      "max": [
        1.0,
        1.0,
        1.0
      ]
    },
    {
      "bufferView": 11,
      "componentType": 5126,
      "count": 900,
      "type": "VEC3"
    },
    {
      "bufferView": 12,
      "componentType": 5126,
      "count": 900,
      "type": "VEC2"
    },
    {
      "bufferView": 13,
      "componentType": 5126,
      "count": 900,
      "type": "VEC4"
    },
    {
      "bufferView": 14,
      "componentType": 5123,
      "count": 5184,
      "type": "SCALAR",
      "normalized": false
    },
    {
      "bufferView": 15,
      "componentType": 5126,
      "count": 50,
      "type": "VEC3",
      "min": [
        -0.3,
        -2.5,
        -0.3
      ],
      "max": [
        0.3,
        2.5,
        0.3
      ]
    },
    {
      "bufferView": 16,
      "componentType": 5126,
      "count": 50,
      "type": "VEC3"
    },
    {
      "bufferView": 17,
      "componentType": 5126,
      "count": 50,
      "type": "VEC2"
    },
    {
      "bufferView": 18,
      "componentType": 5126,
      "count": 50,
      "type": "VEC4"
    },
    {
      "bufferView": 19,
      "componentType": 5123,
      "count": 288,
      "type": "SCALAR",
      "normalized": false
    },
    {
      "bufferView": 20,
      "componentType": 5126,
      "count": 50,
      "type": "VEC3",
      "min": [
        -0.48,
        -0.11,
        -0.48
      ],
      "max": [
        0.48,
        0.11,
        0.48
      ]
    },
    {
      "bufferView": 21,
      "componentType": 5126,
      "count": 50,
      "type": "VEC3"
    },
    {
      "bufferView": 22,
      "componentType": 5126,
      "count": 50,
      "type": "VEC2"
    },
    {
      "bufferView": 23,
      "componentType": 5126,
      "count": 50,
      "type": "VEC4"
    },
    {
      "bufferView": 24,
      "componentType": 5123,
      "count": 288,
      "type": "SCALAR",
      "normalized": false
    },
    {
      "bufferView": 25,
      "componentType": 5126,
      "count": 96,
      "type": "VEC3",
      "min": [
        -2.9,
        -0.9,
        -0.13
      ],
      "max": [
        2.9,
        0.9,
        0.13
      ]
    },
    {
      "bufferView": 26,
      "componentType": 5126,
      "count": 96,
      "type": "VEC3"
    },
    {
      "bufferView": 27,
      "componentType": 5126,
      "count": 96,
      "type": "VEC2"
    },
    {
      "bufferView": 28,
      "componentType": 5126,
      "count": 96,
      "type": "VEC4"
    },
    {
      "bufferView": 29,
      "componentType": 5123,
      "count": 132,
      "type": "SCALAR",
      "normalized": false
    },
    {
      "bufferView": 30,
      "componentType": 5126,
      "count": 96,
      "type": "VEC3",
      "min": [
        -0.08,
        -0.775,
        -0.19
      ],
      "max": [
        0.08,
        0.775,
        0.19
      ]
    },
    {
      "bufferView": 31,
      "componentType": 5126,
      "count": 96,
      "type": "VEC3"
    },
    {
      "bufferView": 32,
      "componentType": 5126,
      "count": 96,
      "type": "VEC2"
    },
    {
      "bufferView": 33,
      "componentType": 5126,
      "count": 96,
      "type": "VEC4"
    },
    {
      "bufferView": 34,
      "componentType": 5123,
      "count": 132,
      "type": "SCALAR",
      "normalized": false
    },
    {
      "bufferView": 35,
      "componentType": 5126,
      "count": 66,
      "type": "VEC3",
      "min": [
        -0.92,
        -0.09,
        -0.92
      ],
      "max": [
        0.92,
        0.09,
        0.92
      ]
    },
    {
      "bufferView": 36,
      "componentType": 5126,
      "count": 66,
      "type": "VEC3"
    },
    {
      "bufferView": 37,
      "componentType": 5126,
      "count": 66,
      "type": "VEC2"
    },
    {
      "bufferView": 38,
      "componentType": 5126,
      "count": 66,
      "type": "VEC4"
    },
    {
      "bufferView": 39,
      "componentType": 5123,
      "count": 384,
      "type": "SCALAR",
      "normalized": false
    },
    {
      "bufferView": 40,
      "componentType": 5126,
      "count": 480,
      "type": "VEC3",
      "min": [
        -1.2000000000000002,
        -0.11412678195541844,
        -1.2000000000000002
      ],
      "max": [
        1.2000000000000002,
        0.11412678195541844,
        1.2000000000000002
      ]
    },
    {
      "bufferView": 41,
      "componentType": 5126,
      "count": 480,
      "type": "VEC3"
    },
    {
      "bufferView": 42,
      "componentType": 5126,
      "count": 480,
      "type": "VEC2"
    },
    {
      "bufferView": 43,
      "componentType": 5126,
      "count": 480,
      "type": "VEC4"
    },
    {
      "bufferView": 44,
      "componentType": 5123,
      "count": 2880,
      "type": "SCALAR",
      "normalized": false
    },
    {
      "bufferView": 45,
      "componentType": 5126,
      "count": 96,
      "type": "VEC3",
      "min": [
        -0.11,
        -0.045,
        -0.32
      ],
      "max": [
        0.11,
        0.045,
        0.32
      ]
    },
    {
      "bufferView": 46,
      "componentType": 5126,
      "count": 96,
      "type": "VEC3"
    },
    {
      "bufferView": 47,
      "componentType": 5126,
      "count": 96,
      "type": "VEC2"
    },
    {
      "bufferView": 48,
      "componentType": 5126,
      "count": 96,
      "type": "VEC4"
    },
    {
      "bufferView": 49,
      "componentType": 5123,
      "count": 132,
      "type": "SCALAR",
      "normalized": false
    },
    {
      "bufferView": 50,
      "componentType": 5126,
      "count": 50,
      "type": "VEC3",
      "min": [
        -0.44,
        -0.08,
        -0.44
      ],
      "max": [
        0.44,
        0.08,
        0.44
      ]
    },
    {
      "bufferView": 51,
      "componentType": 5126,
      "count": 50,
      "type": "VEC3"
    },
    {
      "bufferView": 52,
      "componentType": 5126,
      "count": 50,
      "type": "VEC2"
    },
    {
      "bufferView": 53,
      "componentType": 5126,
      "count": 50,
      "type": "VEC4"
    },
    {
      "bufferView": 54,
      "componentType": 5123,
      "count": 288,
      "type": "SCALAR",
      "normalized": false
    },
    {
      "bufferView": 55,
      "componentType": 5126,
      "count": 532,
      "type": "VEC3",
      "min": [
        -0.2,
        -0.2,
        -0.2
      ],
      "max": [
        0.2,
        0.2,
        0.2
      ]
    },
    {
      "bufferView": 56,
      "componentType": 5126,
      "count": 532,
      "type": "VEC3"
    },
    {
      "bufferView": 57,
      "componentType": 5126,
      "count": 532,
      "type": "VEC2"
    },
    {
      "bufferView": 58,
      "componentType": 5126,
      "count": 532,
      "type": "VEC4"
    },
    {
      "bufferView": 59,
      "componentType": 5123,
      "count": 3024,
      "type": "SCALAR",
      "normalized": false
    },
    {
      "bufferView": 60,
      "componentType": 5126,
      "count": 532,
      "type": "VEC3",
      "min": [
        -0.42,
        -0.42,
        -0.42
      ],
      "max": [
        0.42,
        0.42,
        0.42
      ]
    },
    {
      "bufferView": 61,
      "componentType": 5126,
      "count": 532,
      "type": "VEC3"
    },
    {
      "bufferView": 62,
      "componentType": 5126,
      "count": 532,
      "type": "VEC2"
    },
    {
      "bufferView": 63,
      "componentType": 5126,
      "count": 532,
      "type": "VEC4"
    },
    {
      "bufferView": 64,
      "componentType": 5123,
      "count": 3024,
      "type": "SCALAR",
      "normalized": false
    },
    {
      "bufferView": 65,
      "componentType": 5126,
      "count": 50,
      "type": "VEC3",
      "min": [
        -0.07,
        -1.9,
        -0.07
      ],
      "max": [
        0.07,
        1.9,
        0.07
      ]
    },
    {
      "bufferView": 66,
      "componentType": 5126,
      "count": 50,
      "type": "VEC3"
    },
    {
      "bufferView": 67,
      "componentType": 5126,
      "count": 50,
      "type": "VEC2"
    },
    {
      "bufferView": 68,
      "componentType": 5126,
      "count": 50,
      "type": "VEC4"
    },
    {
      "bufferView": 69,
      "componentType": 5123,
      "count": 288,
      "type": "SCALAR",
      "normalized": false
    },
    {
      "bufferView": 70,
      "componentType": 5126,
      "count": 96,
      "type": "VEC3",
      "min": [
        -1.825,
        -0.06,
        -1.375
      ],
      "max": [
        1.825,
        0.06,
        1.375
      ]
    },
    {
      "bufferView": 71,
      "componentType": 5126,
      "count": 96,
      "type": "VEC3"
    },
    {
      "bufferView": 72,
      "componentType": 5126,
      "count": 96,
      "type": "VEC2"
    },
    {
      "bufferView": 73,
      "componentType": 5126,
      "count": 96,
      "type": "VEC4"
    },
    {
      "bufferView": 74,
      "componentType": 5123,
      "count": 132,
      "type": "SCALAR",
      "normalized": false
    },
    {
      "bufferView": 75,
      "componentType": 5126,
      "count": 96,
      "type": "VEC3",
      "min": [
        -0.06,
        -1.325,
        -0.06
      ],
      "max": [
        0.06,
        1.325,
        0.06
      ]
    },
    {
      "bufferView": 76,
      "componentType": 5126,
      "count": 96,
      "type": "VEC3"
    },
    {
      "bufferView": 77,
      "componentType": 5126,
      "count": 96,
      "type": "VEC2"
    },
    {
      "bufferView": 78,
      "componentType": 5126,
      "count": 96,
      "type": "VEC4"
    },
    {
      "bufferView": 79,
      "componentType": 5123,
      "count": 132,
      "type": "SCALAR",
      "normalized": false
    },
    {
      "bufferView": 80,
      "componentType": 5126,
      "count": 50,
      "type": "VEC3",
      "min": [
        -0.28,
        -0.12,
        -0.28
      ],
      "max": [
        0.28,
        0.12,
        0.28
      ]
    },
    {
      "bufferView": 81,
      "componentType": 5126,
      "count": 50,
      "type": "VEC3"
    },
    {
      "bufferView": 82,
      "componentType": 5126,
      "count": 50,
      "type": "VEC2"
    },
    {
      "bufferView": 83,
      "componentType": 5126,
      "count": 50,
      "type": "VEC4"
    },
    {
      "bufferView": 84,
      "componentType": 5123,
      "count": 288,
      "type": "SCALAR",
      "normalized": false
    },
    {
      "bufferView": 85,
      "componentType": 5126,
      "count": 50,
      "type": "VEC3",
      "min": [
        -0.56,
        -0.04,
        -0.56
      ],
      "max": [
        0.56,
        0.04,
        0.56
      ]
    },
    {
      "bufferView": 86,
      "componentType": 5126,
      "count": 50,
      "type": "VEC3"
    },
    {
      "bufferView": 87,
      "componentType": 5126,
      "count": 50,
      "type": "VEC2"
    },
    {
      "bufferView": 88,
      "componentType": 5126,
      "count": 50,
      "type": "VEC4"
    },
    {
      "bufferView": 89,
      "componentType": 5123,
      "count": 288,
      "type": "SCALAR",
      "normalized": false
    },
    {
      "bufferView": 90,
      "componentType": 5126,
      "count": 96,
      "type": "VEC3",
      "min": [
        -3.1,
        -0.07,
        -0.08
      ],
      "max": [
        3.1,
        0.07,
        0.08
      ]
    },
    {
      "bufferView": 91,
      "componentType": 5126,
      "count": 96,
      "type": "VEC3"
    },
    {
      "bufferView": 92,
      "componentType": 5126,
      "count": 96,
      "type": "VEC2"
    },
    {
      "bufferView": 93,
      "componentType": 5126,
      "count": 96,
      "type": "VEC4"
    },
    {
      "bufferView": 94,
      "componentType": 5123,
      "count": 132,
      "type": "SCALAR",
      "normalized": false
    },
    {
      "bufferView": 95,
      "componentType": 5126,
      "count": 96,
      "type": "VEC3",
      "min": [
        -0.12,
        -0.26,
        -0.09
      ],
      "max": [
        0.12,
        0.26,
        0.09
      ]
    },
    {
      "bufferView": 96,
      "componentType": 5126,
      "count": 96,
      "type": "VEC3"
    },
    {
      "bufferView": 97,
      "componentType": 5126,
      "count": 96,
      "type": "VEC2"
    },
    {
      "bufferView": 98,
      "componentType": 5126,
      "count": 96,
      "type": "VEC4"
    },
    {
      "bufferView": 99,
      "componentType": 5123,
      "count": 132,
      "type": "SCALAR",
      "normalized": false
    },
    {
      "bufferView": 100,
      "componentType": 5126,
      "count": 50,
      "type": "VEC3",
      "min": [
        -0.14,
        -0.08,
        -0.14
      ],
      "max": [
        0.14,
        0.08,
        0.14
      ]
    },
    {
      "bufferView": 101,
      "componentType": 5126,
      "count": 50,
      "type": "VEC3"
    },
    {
      "bufferView": 102,
      "componentType": 5126,
      "count": 50,
      "type": "VEC2"
    },
    {
      "bufferView": 103,
      "componentType": 5126,
      "count": 50,
      "type": "VEC4"
    },
    {
      "bufferView": 104,
      "componentType": 5123,
      "count": 288,
      "type": "SCALAR",
      "normalized": false
    },
    {
      "bufferView": 105,
      "componentType": 5126,
      "count": 96,
      "type": "VEC3",
      "min": [
        -0.12,
        -0.07,
        -0.12
      ],
      "max": [
        0.12,
        0.07,
        0.12
      ]
    },
    {
      "bufferView": 106,
      "componentType": 5126,
      "count": 96,
      "type": "VEC3"
    },
    {
      "bufferView": 107,
      "componentType": 5126,
      "count": 96,
      "type": "VEC2"
    },
    {
      "bufferView": 108,
      "componentType": 5126,
      "count": 96,
      "type": "VEC4"
    },
    {
      "bufferView": 109,
      "componentType": 5123,
      "count": 132,
      "type": "SCALAR",
      "normalized": false
    },
    {
      "bufferView": 110,
      "componentType": 5126,
      "count": 50,
      "type": "VEC3",
      "min": [
        -0.045,
        -0.39,
        -0.045
      ],
      "max": [
        0.045,
        0.39,
        0.045
      ]
    },
    {
      "bufferView": 111,
      "componentType": 5126,
      "count": 50,
      "type": "VEC3"
    },
    {
      "bufferView": 112,
      "componentType": 5126,
      "count": 50,
      "type": "VEC2"
    },
    {
      "bufferView": 113,
      "componentType": 5126,
      "count": 50,
      "type": "VEC4"
    },
    {
      "bufferView": 114,
      "componentType": 5123,
      "count": 288,
      "type": "SCALAR",
      "normalized": false
    }
  ],
  "bufferViews": [
    {
      "buffer": 0,
      "byteOffset": 0,
      "byteLength": 1152,
      "target": 34962
    },
    {
      "buffer": 0,
      "byteOffset": 1152,
      "byteLength": 1152,
      "target": 34962
    },
    {
      "buffer": 0,
      "byteOffset": 2304,
      "byteLength": 768,
      "target": 34962
    },
    {
      "buffer": 0,
      "byteOffset": 3072,
      "byteLength": 1536,
      "target": 34962
    },
    {
      "buffer": 0,
      "byteOffset": 4608,
      "byteLength": 264,
      "target": 34963
    },
    {
      "buffer": 0,
      "byteOffset": 4872,
      "byteLength": 1152,
      "target": 34962
    },
    {
      "buffer": 0,
      "byteOffset": 6024,
      "byteLength": 1152,
      "target": 34962
    },
    {
      "buffer": 0,
      "byteOffset": 7176,
      "byteLength": 768,
      "target": 34962
    },
    {
      "buffer": 0,
      "byteOffset": 7944,
      "byteLength": 1536,
      "target": 34962
    },
    {
      "buffer": 0,
      "byteOffset": 9480,
      "byteLength": 264,
      "target": 34963
    },
    {
      "buffer": 0,
      "byteOffset": 9744,
      "byteLength": 10800,
      "target": 34962
    },
    {
      "buffer": 0,
      "byteOffset": 20544,
      "byteLength": 10800,
      "target": 34962
    },
    {
      "buffer": 0,
      "byteOffset": 31344,
      "byteLength": 7200,
      "target": 34962
    },
    {
      "buffer": 0,
      "byteOffset": 38544,
      "byteLength": 14400,
      "target": 34962
    },
    {
      "buffer": 0,
      "byteOffset": 52944,
      "byteLength": 10368,
      "target": 34963
    },
    {
      "buffer": 0,
      "byteOffset": 63312,
      "byteLength": 600,
      "target": 34962
    },
    {
      "buffer": 0,
      "byteOffset": 63912,
      "byteLength": 600,
      "target": 34962
    },
    {
      "buffer": 0,
      "byteOffset": 64512,
      "byteLength": 400,
      "target": 34962
    },
    {
      "buffer": 0,
      "byteOffset": 64912,
      "byteLength": 800,
      "target": 34962
    },
    {
      "buffer": 0,
      "byteOffset": 65712,
      "byteLength": 576,
      "target": 34963
    },
    {
      "buffer": 0,
      "byteOffset": 66288,
      "byteLength": 600,
      "target": 34962
    },
    {
      "buffer": 0,
      "byteOffset": 66888,
      "byteLength": 600,
      "target": 34962
    },
    {
      "buffer": 0,
      "byteOffset": 67488,
      "byteLength": 400,
      "target": 34962
    },
    {
      "buffer": 0,
      "byteOffset": 67888,
      "byteLength": 800,
      "target": 34962
    },
    {
      "buffer": 0,
      "byteOffset": 68688,
      "byteLength": 576,
      "target": 34963
    },
    {
      "buffer": 0,
      "byteOffset": 69264,
      "byteLength": 1152,
      "target": 34962
    },
    {
      "buffer": 0,
      "byteOffset": 70416,
      "byteLength": 1152,
      "target": 34962
    },
    {
      "buffer": 0,
      "byteOffset": 71568,
      "byteLength": 768,
      "target": 34962
    },
    {
      "buffer": 0,
      "byteOffset": 72336,
      "byteLength": 1536,
      "target": 34962
    },
    {
      "buffer": 0,
      "byteOffset": 73872,
      "byteLength": 264,
      "target": 34963
    },
    {
      "buffer": 0,
      "byteOffset": 74136,
      "byteLength": 1152,
      "target": 34962
    },
    {
      "buffer": 0,
      "byteOffset": 75288,
      "byteLength": 1152,
      "target": 34962
    },
    {
      "buffer": 0,
      "byteOffset": 76440,
      "byteLength": 768,
      "target": 34962
    },
    {
      "buffer": 0,
      "byteOffset": 77208,
      "byteLength": 1536,
      "target": 34962
    },
    {
      "buffer": 0,
      "byteOffset": 78744,
      "byteLength": 264,
      "target": 34963
    },
    {
      "buffer": 0,
      "byteOffset": 79008,
      "byteLength": 792,
      "target": 34962
    },
    {
      "buffer": 0,
      "byteOffset": 79800,
      "byteLength": 792,
      "target": 34962
    },
    {
      "buffer": 0,
      "byteOffset": 80592,
      "byteLength": 528,
      "target": 34962
    },
    {
      "buffer": 0,
      "byteOffset": 81120,
      "byteLength": 1056,
      "target": 34962
    },
    {
      "buffer": 0,
      "byteOffset": 82176,
      "byteLength": 768,
      "target": 34963
    },
    {
      "buffer": 0,
      "byteOffset": 82944,
      "byteLength": 5760,
      "target": 34962
    },
    {
      "buffer": 0,
      "byteOffset": 88704,
      "byteLength": 5760,
      "target": 34962
    },
    {
      "buffer": 0,
      "byteOffset": 94464,
      "byteLength": 3840,
      "target": 34962
    },
    {
      "buffer": 0,
      "byteOffset": 98304,
      "byteLength": 7680,
      "target": 34962
    },
    {
      "buffer": 0,
      "byteOffset": 105984,
      "byteLength": 5760,
      "target": 34963
    },
    {
      "buffer": 0,
      "byteOffset": 111744,
      "byteLength": 1152,
      "target": 34962
    },
    {
      "buffer": 0,
      "byteOffset": 112896,
      "byteLength": 1152,
      "target": 34962
    },
    {
      "buffer": 0,
      "byteOffset": 114048,
      "byteLength": 768,
      "target": 34962
    },
    {
      "buffer": 0,
      "byteOffset": 114816,
      "byteLength": 1536,
      "target": 34962
    },
    {
      "buffer": 0,
      "byteOffset": 116352,
      "byteLength": 264,
      "target": 34963
    },
    {
      "buffer": 0,
      "byteOffset": 116616,
      "byteLength": 600,
      "target": 34962
    },
    {
      "buffer": 0,
      "byteOffset": 117216,
      "byteLength": 600,
      "target": 34962
    },
    {
      "buffer": 0,
      "byteOffset": 117816,
      "byteLength": 400,
      "target": 34962
    },
    {
      "buffer": 0,
      "byteOffset": 118216,
      "byteLength": 800,
      "target": 34962
    },
    {
      "buffer": 0,
      "byteOffset": 119016,
      "byteLength": 576,
      "target": 34963
    },
    {
      "buffer": 0,
      "byteOffset": 119592,
      "byteLength": 6384,
      "target": 34962
    },
    {
      "buffer": 0,
      "byteOffset": 125976,
      "byteLength": 6384,
      "target": 34962
    },
    {
      "buffer": 0,
      "byteOffset": 132360,
      "byteLength": 4256,
      "target": 34962
    },
    {
      "buffer": 0,
      "byteOffset": 136616,
      "byteLength": 8512,
      "target": 34962
    },
    {
      "buffer": 0,
      "byteOffset": 145128,
      "byteLength": 6048,
      "target": 34963
    },
    {
      "buffer": 0,
      "byteOffset": 151176,
      "byteLength": 6384,
      "target": 34962
    },
    {
      "buffer": 0,
      "byteOffset": 157560,
      "byteLength": 6384,
      "target": 34962
    },
    {
      "buffer": 0,
      "byteOffset": 163944,
      "byteLength": 4256,
      "target": 34962
    },
    {
      "buffer": 0,
      "byteOffset": 168200,
      "byteLength": 8512,
      "target": 34962
    },
    {
      "buffer": 0,
      "byteOffset": 176712,
      "byteLength": 6048,
      "target": 34963
    },
    {
      "buffer": 0,
      "byteOffset": 182760,
      "byteLength": 600,
      "target": 34962
    },
    {
      "buffer": 0,
      "byteOffset": 183360,
      "byteLength": 600,
      "target": 34962
    },
    {
      "buffer": 0,
      "byteOffset": 183960,
      "byteLength": 400,
      "target": 34962
    },
    {
      "buffer": 0,
      "byteOffset": 184360,
      "byteLength": 800,
      "target": 34962
    },
    {
      "buffer": 0,
      "byteOffset": 185160,
      "byteLength": 576,
      "target": 34963
    },
    {
      "buffer": 0,
      "byteOffset": 185736,
      "byteLength": 1152,
      "target": 34962
    },
    {
      "buffer": 0,
      "byteOffset": 186888,
      "byteLength": 1152,
      "target": 34962
    },
    {
      "buffer": 0,
      "byteOffset": 188040,
      "byteLength": 768,
      "target": 34962
    },
    {
      "buffer": 0,
      "byteOffset": 188808,
      "byteLength": 1536,
      "target": 34962
    },
    {
      "buffer": 0,
      "byteOffset": 190344,
      "byteLength": 264,
      "target": 34963
    },
    {
      "buffer": 0,
      "byteOffset": 190608,
      "byteLength": 1152,
      "target": 34962
    },
    {
      "buffer": 0,
      "byteOffset": 191760,
      "byteLength": 1152,
      "target": 34962
    },
    {
      "buffer": 0,
      "byteOffset": 192912,
      "byteLength": 768,
      "target": 34962
    },
    {
      "buffer": 0,
      "byteOffset": 193680,
      "byteLength": 1536,
      "target": 34962
    },
    {
      "buffer": 0,
      "byteOffset": 195216,
      "byteLength": 264,
      "target": 34963
    },
    {
      "buffer": 0,
      "byteOffset": 195480,
      "byteLength": 600,
      "target": 34962
    },
    {
      "buffer": 0,
      "byteOffset": 196080,
      "byteLength": 600,
      "target": 34962
    },
    {
      "buffer": 0,
      "byteOffset": 196680,
      "byteLength": 400,
      "target": 34962
    },
    {
      "buffer": 0,
      "byteOffset": 197080,
      "byteLength": 800,
      "target": 34962
    },
    {
      "buffer": 0,
      "byteOffset": 197880,
      "byteLength": 576,
      "target": 34963
    },
    {
      "buffer": 0,
      "byteOffset": 198456,
      "byteLength": 600,
      "target": 34962
    },
    {
      "buffer": 0,
      "byteOffset": 199056,
      "byteLength": 600,
      "target": 34962
    },
    {
      "buffer": 0,
      "byteOffset": 199656,
      "byteLength": 400,
      "target": 34962
    },
    {
      "buffer": 0,
      "byteOffset": 200056,
      "byteLength": 800,
      "target": 34962
    },
    {
      "buffer": 0,
      "byteOffset": 200856,
      "byteLength": 576,
      "target": 34963
    },
    {
      "buffer": 0,
      "byteOffset": 201432,
      "byteLength": 1152,
      "target": 34962
    },
    {
      "buffer": 0,
      "byteOffset": 202584,
      "byteLength": 1152,
      "target": 34962
    },
    {
      "buffer": 0,
      "byteOffset": 203736,
      "byteLength": 768,
      "target": 34962
    },
    {
      "buffer": 0,
      "byteOffset": 204504,
      "byteLength": 1536,
      "target": 34962
    },
    {
      "buffer": 0,
      "byteOffset": 206040,
      "byteLength": 264,
      "target": 34963
    },
    {
      "buffer": 0,
      "byteOffset": 206304,
      "byteLength": 1152,
      "target": 34962
    },
    {
      "buffer": 0,
      "byteOffset": 207456,
      "byteLength": 1152,
      "target": 34962
    },
    {
      "buffer": 0,
      "byteOffset": 208608,
      "byteLength": 768,
      "target": 34962
    },
    {
      "buffer": 0,
      "byteOffset": 209376,
      "byteLength": 1536,
      "target": 34962
    },
    {
      "buffer": 0,
      "byteOffset": 210912,
      "byteLength": 264,
      "target": 34963
    },
    {
      "buffer": 0,
      "byteOffset": 211176,
      "byteLength": 600,
      "target": 34962
    },
    {
      "buffer": 0,
      "byteOffset": 211776,
      "byteLength": 600,
      "target": 34962
    },
    {
      "buffer": 0,
      "byteOffset": 212376,
      "byteLength": 400,
      "target": 34962
    },
    {
      "buffer": 0,
      "byteOffset": 212776,
      "byteLength": 800,
      "target": 34962
    },
    {
      "buffer": 0,
      "byteOffset": 213576,
      "byteLength": 576,
      "target": 34963
    },
    {
      "buffer": 0,
      "byteOffset": 214152,
      "byteLength": 1152,
      "target": 34962
    },
    {
      "buffer": 0,
      "byteOffset": 215304,
      "byteLength": 1152,
      "target": 34962
    },
    {
      "buffer": 0,
      "byteOffset": 216456,
      "byteLength": 768,
      "target": 34962
    },
    {
      "buffer": 0,
      "byteOffset": 217224,
      "byteLength": 1536,
      "target": 34962
    },
    {
      "buffer": 0,
      "byteOffset": 218760,
      "byteLength": 264,
      "target": 34963
    },
    {
      "buffer": 0,
      "byteOffset": 219024,
      "byteLength": 600,
      "target": 34962
    },
    {
      "buffer": 0,
      "byteOffset": 219624,
      "byteLength": 600,
      "target": 34962
    },
    {
      "buffer": 0,
      "byteOffset": 220224,
      "byteLength": 400,
      "target": 34962
    },
    {
      "buffer": 0,
      "byteOffset": 220624,
      "byteLength": 800,
      "target": 34962
    },
    {
      "buffer": 0,
      "byteOffset": 221424,
      "byteLength": 576,
      "target": 34963
    }
  ],
  "buffers": [
    {
      "byteLength": 222000,
      "uri": "data:application/octet-stream;base64,"
    }
  ],
  "extras": {
    "ironwright_asset_id": "riverworks.landmark.v1",
    "required_nodes": [
      "RiverworksModel",
      "RiverworksPumpCore",
      "RiverworksPumpHousing",
      "RiverworksPumpPanel",
      "RiverworksRotor",
      "RiverworksRotorHub",
      "RiverworksPumpVoluteRing",
      "RiverworksRotorBlade00",
      "RiverworksRotorBlade03",
      "RiverworksMaintenanceValve",
      "RiverworksValveHandle",
      "RiverworksSluiceGate",
      "RiverworksSluiceRail",
      "RiverworksSluiceLatch",
      "RiverworksSluiceSignalHousing",
      "RiverworksSluiceSignal",
      "RiverworksCableClamp",
      "RiverworksGrowth0",
      "RiverworksGrowthTendril0_0",
      "ProductionAssetMarker"
    ]
  }
}
