{
  "asset": {
    "version": "2.0",
    "generator": "Project Ironwright original Pathfinder asset builder"
  },
  "scene": 0,
  "scenes": [
    {
      "name": "Pathfinder",
      "nodes": [
        0
      ]
    }
  ],
  "nodes": [
    {
      "name": "PathfinderModel",
      "children": [
        1,
        2,
        3,
        4,
        5,
        6,
        7,
        8,
        9,
        10,
        11,
        12,
        13,
        14,
        15,
        16,
        17,
        18,
        19,
        20,
        21,
        22,
        23,
        24,
        25,
        26,
        27,
        28,
        29,
        30,
        31,
        32,
        33,
        34
      ],
      "extras": {
        "ironwright_asset_id": "pathfinder.scout.v1",
        "asset_quality": "authored_high_definition",
        "socket_contract": "sensor, survey_mast, beacon"
      }
    },
    {
      "name": "Chassis",
      "translation": [
        0.0,
        0.8,
        0.0
      ],
      "mesh": 0,
      "extras": {
        "surface": "beveled_primary_body"
      }
    },
    {
      "name": "ChassisCore",
      "translation": [
        0.0,
        0.88,
        0.0
      ],
      "mesh": 1
    },
    {
      "name": "ArmorPlate",
      "translation": [
        0.0,
        1.1,
        -0.72
      ],
      "mesh": 2
    },
    {
      "name": "LowerChassis",
      "translation": [
        0.0,
        0.39,
        0.04
      ],
      "mesh": 2
    },
    {
      "name": "ChassisDetailPanel",
      "translation": [
        0.0,
        1.27,
        -0.7
      ],
      "mesh": 2
    },
    {
      "name": "ChassisCornerCap",
      "translation": [
        -0.52,
        0.8,
        -0.56
      ],
      "mesh": 3
    },
    {
      "name": "Leg",
      "translation": [
        -0.45,
        0.4,
        -0.38
      ],
      "mesh": 4,
      "rotation": [
        0.0,
        0.0,
        -0.11971220728891936,
        0.9928086358538663
      ]
    },
    {
      "name": "Foot",
      "translation": [
        -0.54,
        0.1,
        -0.38
      ],
      "mesh": 5
    },
    {
      "name": "ChassisCornerCap",
      "translation": [
        -0.52,
        0.8,
        0.56
      ],
      "mesh": 3
    },
    {
      "name": "Leg",
      "translation": [
        -0.45,
        0.4,
        0.38
      ],
      "mesh": 4,
      "rotation": [
        0.0,
        0.0,
        -0.11971220728891936,
        0.9928086358538663
      ]
    },
    {
      "name": "Foot",
      "translation": [
        -0.54,
        0.1,
        0.38
      ],
      "mesh": 5
    },
    {
      "name": "ScoutFin",
      "translation": [
        -0.72,
        1.0,
        0.1
      ],
      "mesh": 8,
      "rotation": [
        0.0,
        0.0,
        -0.0799146939691727,
        0.9968017063026194
      ]
    },
    {
      "name": "PathfinderCable",
      "translation": [
        -0.56,
        0.88,
        0.04
      ],
      "mesh": 16,
      "rotation": [
        0.0,
        0.0,
        -0.0799146939691727,
        0.9968017063026194
      ]
    },
    {
      "name": "ChassisCornerCap",
      "translation": [
        0.52,
        0.8,
        -0.56
      ],
      "mesh": 3
    },
    {
      "name": "Leg",
      "translation": [
        0.45,
        0.4,
        -0.38
      ],
      "mesh": 4,
      "rotation": [
        0.0,
        0.0,
        0.11971220728891936,
        0.9928086358538663
      ]
    },
    {
      "name": "Foot",
      "translation": [
        0.54,
        0.1,
        -0.38
      ],
      "mesh": 5
    },
    {
      "name": "ChassisCornerCap",
      "translation": [
        0.52,
        0.8,
        0.56
      ],
      "mesh": 3
    },
    {
      "name": "Leg",
      "translation": [
        0.45,
        0.4,
        0.38
      ],
      "mesh": 4,
      "rotation": [
        0.0,
        0.0,
        0.11971220728891936,
        0.9928086358538663
      ]
    },
    {
      "name": "Foot",
      "translation": [
        0.54,
        0.1,
        0.38
      ],
      "mesh": 5
    },
    {
      "name": "ScoutFin",
      "translation": [
        0.72,
        1.0,
        0.1
      ],
      "mesh": 8,
      "rotation": [
        0.0,
        0.0,
        0.0799146939691727,
        0.9968017063026194
      ]
    },
    {
      "name": "PathfinderCable",
      "translation": [
        0.56,
        0.88,
        0.04
      ],
      "mesh": 16,
      "rotation": [
        0.0,
        0.0,
        0.0799146939691727,
        0.9968017063026194
      ]
    },
    {
      "name": "OpticHousing",
      "translation": [
        0.0,
        1.06,
        -0.8
      ],
      "mesh": 6
    },
    {
      "name": "Sensor",
      "translation": [
        0.0,
        1.06,
        -0.9
      ],
      "mesh": 7,
      "extras": {
        "socket_type": "sensor"
      }
    },
    {
      "name": "OpticLens",
      "translation": [
        0.0,
        1.06,
        -0.95
      ],
      "mesh": 7,
      "extras": {
        "socket_type": "optic"
      }
    },
    {
      "name": "ScoutOptic",
      "translation": [
        -0.2,
        1.1,
        -0.94
      ],
      "mesh": 7,
      "extras": {
        "socket_type": "scout_optic"
      }
    },
    {
      "name": "ScoutOptic",
      "translation": [
        0.2,
        1.1,
        -0.94
      ],
      "mesh": 7,
      "extras": {
        "socket_type": "scout_optic"
      }
    },
    {
      "name": "PathfinderSensorPod",
      "translation": [
        0.0,
        1.38,
        -0.04
      ],
      "mesh": 14,
      "extras": {
        "socket_type": "survey_pod"
      }
    },
    {
      "name": "PathfinderSensorRail",
      "translation": [
        0.0,
        1.55,
        -0.13
      ],
      "mesh": 15
    },
    {
      "name": "Antenna",
      "translation": [
        0.0,
        1.92,
        0.12
      ],
      "mesh": 9,
      "extras": {
        "socket_type": "survey_mast"
      }
    },
    {
      "name": "PathfinderDish",
      "translation": [
        0.0,
        2.78,
        0.12
      ],
      "mesh": 10
    },
    {
      "name": "PathfinderDishHub",
      "translation": [
        0.0,
        2.78,
        -0.12
      ],
      "mesh": 11
    },
    {
      "name": "BeaconRing",
      "translation": [
        0.0,
        3.1,
        0.12
      ],
      "mesh": 12
    },
    {
      "name": "Beacon",
      "translation": [
        0.0,
        3.2,
        0.12
      ],
      "mesh": 13,
      "extras": {
        "socket_type": "beacon"
      }
    },
    {
      "name": "ProductionAssetMarker",
      "translation": [
        0.0,
        0.0,
        0.0
      ],
      "extras": {
        "asset_contract": "pathfinder.scout.v1",
        "source": "original_shared_mesh_builder"
      }
    }
  ],
  "meshes": [
    {
      "name": "Chassis",
      "primitives": [
        {
          "attributes": {
            "POSITION": 0,
            "NORMAL": 1
          },
          "indices": 2,
          "material": 0
        }
      ]
    },
    {
      "name": "Core",
      "primitives": [
        {
          "attributes": {
            "POSITION": 3,
            "NORMAL": 4
          },
          "indices": 5,
          "material": 2
        }
      ]
    },
    {
      "name": "Plate",
      "primitives": [
        {
          "attributes": {
            "POSITION": 6,
            "NORMAL": 7
          },
          "indices": 8,
          "material": 1
        }
      ]
    },
    {
      "name": "Corner",
      "primitives": [
        {
          "attributes": {
            "POSITION": 9,
            "NORMAL": 10
          },
          "indices": 11,
          "material": 1
        }
      ]
    },
    {
      "name": "Leg",
      "primitives": [
        {
          "attributes": {
            "POSITION": 12,
            "NORMAL": 13
          },
          "indices": 14,
          "material": 5
        }
      ]
    },
    {
      "name": "Foot",
      "primitives": [
        {
          "attributes": {
            "POSITION": 15,
            "NORMAL": 16
          },
          "indices": 17,
          "material": 2
        }
      ]
    },
    {
      "name": "OpticHousing",
      "primitives": [
        {
          "attributes": {
            "POSITION": 18,
            "NORMAL": 19
          },
          "indices": 20,
          "material": 0
        }
      ]
    },
    {
      "name": "Optic",
      "primitives": [
        {
          "attributes": {
            "POSITION": 21,
            "NORMAL": 22
          },
          "indices": 23,
          "material": 4
        }
      ]
    },
    {
      "name": "Fin",
      "primitives": [
        {
          "attributes": {
            "POSITION": 24,
            "NORMAL": 25
          },
          "indices": 26,
          "material": 1
        }
      ]
    },
    {
      "name": "Mast",
      "primitives": [
        {
          "attributes": {
            "POSITION": 27,
            "NORMAL": 28
          },
          "indices": 29,
          "material": 0
        }
      ]
    },
    {
      "name": "Dish",
      "primitives": [
        {
          "attributes": {
            "POSITION": 30,
            "NORMAL": 31
          },
          "indices": 32,
          "material": 1
        }
      ]
    },
    {
      "name": "DishHub",
      "primitives": [
        {
          "attributes": {
            "POSITION": 33,
            "NORMAL": 34
          },
          "indices": 35,
          "material": 4
        }
      ]
    },
    {
      "name": "BeaconRing",
      "primitives": [
        {
          "attributes": {
            "POSITION": 36,
            "NORMAL": 37
          },
          "indices": 38,
          "material": 2
        }
      ]
    },
    {
      "name": "Beacon",
      "primitives": [
        {
          "attributes": {
            "POSITION": 39,
            "NORMAL": 40
          },
          "indices": 41,
          "material": 3
        }
      ]
    },
    {
      "name": "SensorPod",
      "primitives": [
        {
          "attributes": {
            "POSITION": 42,
            "NORMAL": 43
          },
          "indices": 44,
          "material": 0
        }
      ]
    },
    {
      "name": "SensorRail",
      "primitives": [
        {
          "attributes": {
            "POSITION": 45,
            "NORMAL": 46
          },
          "indices": 47,
          "material": 3
        }
      ]
    },
    {
      "name": "Cable",
      "primitives": [
        {
          "attributes": {
            "POSITION": 48,
            "NORMAL": 49
          },
          "indices": 50,
          "material": 5
        }
      ]
    }
  ],
  "materials": [
    {
      "name": "Pathfinder charcoal chassis",
      "pbrMetallicRoughness": {
        "baseColorFactor": [
          0.04,
          0.07,
          0.065,
          1.0
        ],
        "metallicFactor": 0.76,
        "roughnessFactor": 0.42
      }
    },
    {
      "name": "Pathfinder survey steel",
      "pbrMetallicRoughness": {
        "baseColorFactor": [
          0.24,
          0.32,
          0.29,
          1.0
        ],
        "metallicFactor": 0.82,
        "roughnessFactor": 0.34
      }
    },
    {
      "name": "Pathfinder oxide trim",
      "pbrMetallicRoughness": {
        "baseColorFactor": [
          0.28,
          0.14,
          0.07,
          1.0
        ],
        "metallicFactor": 0.56,
        "roughnessFactor": 0.6
      }
    },
    {
      "name": "Pathfinder green signal",
      "pbrMetallicRoughness": {
        "baseColorFactor": [
          0.05,
          0.25,
          0.14,
          1.0
        ],
        "metallicFactor": 0.26,
        "roughnessFactor": 0.24
      },
      "emissiveFactor": [
        0.2,
        0.92,
        0.42
      ]
    },
    {
      "name": "Pathfinder cyan optics",
      "pbrMetallicRoughness": {
        "baseColorFactor": [
          0.025,
          0.2,
          0.22,
          1.0
        ],
        "metallicFactor": 0.3,
        "roughnessFactor": 0.22
      },
      "emissiveFactor": [
        0.1,
        0.82,
        0.9
      ]
    },
    {
      "name": "Pathfinder rubber",
      "pbrMetallicRoughness": {
        "baseColorFactor": [
          0.014,
          0.018,
          0.02,
          1.0
        ],
        "metallicFactor": 0.04,
        "roughnessFactor": 0.92
      }
    }
  ],
  "accessors": [
    {
      "bufferView": 0,
      "componentType": 5126,
      "count": 24,
      "type": "VEC3",
      "min": [
        -0.59,
        -0.29,
        -0.69
      ],
      "max": [
        0.59,
        0.29,
        0.69
      ]
    },
    {
      "bufferView": 1,
      "componentType": 5126,
      "count": 24,
      "type": "VEC3"
    },
    {
      "bufferView": 2,
      "componentType": 5123,
      "count": 36,
      "type": "SCALAR",
      "normalized": false
    },
    {
      "bufferView": 3,
      "componentType": 5126,
      "count": 24,
      "type": "VEC3",
      "min": [
        -0.47,
        -0.14,
        -0.55
      ],
      "max": [
        0.47,
        0.14,
        0.55
      ]
    },
    {
      "bufferView": 4,
      "componentType": 5126,
      "count": 24,
      "type": "VEC3"
    },
    {
      "bufferView": 5,
      "componentType": 5123,
      "count": 36,
      "type": "SCALAR",
      "normalized": false
    },
    {
      "bufferView": 6,
      "componentType": 5126,
      "count": 24,
      "type": "VEC3",
      "min": [
        -0.52,
        -0.075,
        -0.065
      ],
      "max": [
        0.52,
        0.075,
        0.065
      ]
    },
    {
      "bufferView": 7,
      "componentType": 5126,
      "count": 24,
      "type": "VEC3"
    },
    {
      "bufferView": 8,
      "componentType": 5123,
      "count": 36,
      "type": "SCALAR",
      "normalized": false
    },
    {
      "bufferView": 9,
      "componentType": 5126,
      "count": 22,
      "type": "VEC3",
      "min": [
        -0.1,
        -0.07,
        -0.09510565162951537
      ],
      "max": [
        0.1,
        0.07,
        0.09510565162951537
      ]
    },
    {
      "bufferView": 10,
      "componentType": 5126,
      "count": 22,
      "type": "VEC3"
    },
    {
      "bufferView": 11,
      "componentType": 5123,
      "count": 120,
      "type": "SCALAR",
      "normalized": false
    },
    {
      "bufferView": 12,
      "componentType": 5126,
      "count": 26,
      "type": "VEC3",
      "min": [
        -0.1,
        -0.34,
        -0.1
      ],
      "max": [
        0.1,
        0.34,
        0.1
      ]
    },
    {
      "bufferView": 13,
      "componentType": 5126,
      "count": 26,
      "type": "VEC3"
    },
    {
      "bufferView": 14,
      "componentType": 5123,
      "count": 144,
      "type": "SCALAR",
      "normalized": false
    },
    {
      "bufferView": 15,
      "componentType": 5126,
      "count": 24,
      "type": "VEC3",
      "min": [
        -0.125,
        -0.055,
        -0.18
      ],
      "max": [
        0.125,
        0.055,
        0.18
      ]
    },
    {
      "bufferView": 16,
      "componentType": 5126,
      "count": 24,
      "type": "VEC3"
    },
    {
      "bufferView": 17,
      "componentType": 5123,
      "count": 36,
      "type": "SCALAR",
      "normalized": false
    },
    {
      "bufferView": 18,
      "componentType": 5126,
      "count": 24,
      "type": "VEC3",
      "min": [
        -0.21,
        -0.11,
        -0.06
      ],
      "max": [
        0.21,
        0.11,
        0.06
      ]
    },
    {
      "bufferView": 19,
      "componentType": 5126,
      "count": 24,
      "type": "VEC3"
    },
    {
      "bufferView": 20,
      "componentType": 5123,
      "count": 36,
      "type": "SCALAR",
      "normalized": false
    },
    {
      "bufferView": 21,
      "componentType": 5126,
      "count": 144,
      "type": "VEC3",
      "min": [
        -0.08,
        -0.08,
        -0.08
      ],
      "max": [
        0.08,
        0.08,
        0.08
      ]
    },
    {
      "bufferView": 22,
      "componentType": 5126,
      "count": 144,
      "type": "VEC3"
    },
    {
      "bufferView": 23,
      "componentType": 5123,
      "count": 768,
      "type": "SCALAR",
      "normalized": false
    },
    {
      "bufferView": 24,
      "componentType": 5126,
      "count": 24,
      "type": "VEC3",
      "min": [
        -0.08,
        -0.17,
        -0.41
      ],
      "max": [
        0.08,
        0.17,
        0.41
      ]
    },
    {
      "bufferView": 25,
      "componentType": 5126,
      "count": 24,
      "type": "VEC3"
    },
    {
      "bufferView": 26,
      "componentType": 5123,
      "count": 36,
      "type": "SCALAR",
      "normalized": false
    },
    {
      "bufferView": 27,
      "componentType": 5126,
      "count": 26,
      "type": "VEC3",
      "min": [
        -0.055,
        -0.91,
        -0.055
      ],
      "max": [
        0.055,
        0.91,
        0.055
      ]
    },
    {
      "bufferView": 28,
      "componentType": 5126,
      "count": 26,
      "type": "VEC3"
    },
    {
      "bufferView": 29,
      "componentType": 5123,
      "count": 144,
      "type": "SCALAR",
      "normalized": false
    },
    {
      "bufferView": 30,
      "componentType": 5126,
      "count": 144,
      "type": "VEC3",
      "min": [
        -0.3,
        -0.3,
        -0.3
      ],
      "max": [
        0.3,
        0.3,
        0.3
      ]
    },
    {
      "bufferView": 31,
      "componentType": 5126,
      "count": 144,
      "type": "VEC3"
    },
    {
      "bufferView": 32,
      "componentType": 5123,
      "count": 768,
      "type": "SCALAR",
      "normalized": false
    },
    {
      "bufferView": 33,
      "componentType": 5126,
      "count": 26,
      "type": "VEC3",
      "min": [
        -0.1,
        -0.08,
        -0.1
      ],
      "max": [
        0.1,
        0.08,
        0.1
      ]
    },
    {
      "bufferView": 34,
      "componentType": 5126,
      "count": 26,
      "type": "VEC3"
    },
    {
      "bufferView": 35,
      "componentType": 5123,
      "count": 144,
      "type": "SCALAR",
      "normalized": false
    },
    {
      "bufferView": 36,
      "componentType": 5126,
      "count": 30,
      "type": "VEC3",
      "min": [
        -0.16,
        -0.04,
        -0.15598846594909183
      ],
      "max": [
        0.16,
        0.04,
        0.15598846594909177
      ]
    },
    {
      "bufferView": 37,
      "componentType": 5126,
      "count": 30,
      "type": "VEC3"
    },
    {
      "bufferView": 38,
      "componentType": 5123,
      "count": 168,
      "type": "SCALAR",
      "normalized": false
    },
    {
      "bufferView": 39,
      "componentType": 5126,
      "count": 144,
      "type": "VEC3",
      "min": [
        -0.11,
        -0.11,
        -0.11
      ],
      "max": [
        0.11,
        0.11,
        0.11
      ]
    },
    {
      "bufferView": 40,
      "componentType": 5126,
      "count": 144,
      "type": "VEC3"
    },
    {
      "bufferView": 41,
      "componentType": 5123,
      "count": 768,
      "type": "SCALAR",
      "normalized": false
    },
    {
      "bufferView": 42,
      "componentType": 5126,
      "count": 24,
      "type": "VEC3",
      "min": [
        -0.32,
        -0.125,
        -0.09
      ],
      "max": [
        0.32,
        0.125,
        0.09
      ]
    },
    {
      "bufferView": 43,
      "componentType": 5126,
      "count": 24,
      "type": "VEC3"
    },
    {
      "bufferView": 44,
      "componentType": 5123,
      "count": 36,
      "type": "SCALAR",
      "normalized": false
    },
    {
      "bufferView": 45,
      "componentType": 5126,
      "count": 24,
      "type": "VEC3",
      "min": [
        -0.36,
        -0.025,
        -0.03
      ],
      "max": [
        0.36,
        0.025,
        0.03
      ]
    },
    {
      "bufferView": 46,
      "componentType": 5126,
      "count": 24,
      "type": "VEC3"
    },
    {
      "bufferView": 47,
      "componentType": 5123,
      "count": 36,
      "type": "SCALAR",
      "normalized": false
    },
    {
      "bufferView": 48,
      "componentType": 5126,
      "count": 18,
      "type": "VEC3",
      "min": [
        -0.03,
        -0.35,
        -0.03
      ],
      "max": [
        0.03,
        0.35,
        0.03
      ]
    },
    {
      "bufferView": 49,
      "componentType": 5126,
      "count": 18,
      "type": "VEC3"
    },
    {
      "bufferView": 50,
      "componentType": 5123,
      "count": 96,
      "type": "SCALAR",
      "normalized": false
    },
    {
      "bufferView": 51,
      "componentType": 5126,
      "count": 3,
      "type": "SCALAR",
      "min": [
        0.0
      ],
      "max": [
        1.6
      ]
    },
    {
      "bufferView": 52,
      "componentType": 5126,
      "count": 3,
      "type": "VEC3"
    },
    {
      "bufferView": 53,
      "componentType": 5126,
      "count": 3,
      "type": "SCALAR",
      "min": [
        0.0
      ],
      "max": [
        0.44
      ]
    },
    {
      "bufferView": 54,
      "componentType": 5126,
      "count": 3,
      "type": "VEC4"
    },
    {
      "bufferView": 55,
      "componentType": 5126,
      "count": 3,
      "type": "SCALAR",
      "min": [
        0.0
      ],
      "max": [
        1.4
      ]
    },
    {
      "bufferView": 56,
      "componentType": 5126,
      "count": 3,
      "type": "VEC4"
    }
  ],
  "bufferViews": [
    {
      "buffer": 0,
      "byteOffset": 0,
      "byteLength": 288,
      "target": 34962
    },
    {
      "buffer": 0,
      "byteOffset": 288,
      "byteLength": 288,
      "target": 34962
    },
    {
      "buffer": 0,
      "byteOffset": 576,
      "byteLength": 72,
      "target": 34963
    },
    {
      "buffer": 0,
      "byteOffset": 648,
      "byteLength": 288,
      "target": 34962
    },
    {
      "buffer": 0,
      "byteOffset": 936,
      "byteLength": 288,
      "target": 34962
    },
    {
      "buffer": 0,
      "byteOffset": 1224,
      "byteLength": 72,
      "target": 34963
    },
    {
      "buffer": 0,
      "byteOffset": 1296,
      "byteLength": 288,
      "target": 34962
    },
    {
      "buffer": 0,
      "byteOffset": 1584,
      "byteLength": 288,
      "target": 34962
    },
    {
      "buffer": 0,
      "byteOffset": 1872,
      "byteLength": 72,
      "target": 34963
    },
    {
      "buffer": 0,
      "byteOffset": 1944,
      "byteLength": 264,
      "target": 34962
    },
    {
      "buffer": 0,
      "byteOffset": 2208,
      "byteLength": 264,
      "target": 34962
    },
    {
      "buffer": 0,
      "byteOffset": 2472,
      "byteLength": 240,
      "target": 34963
    },
    {
      "buffer": 0,
      "byteOffset": 2712,
      "byteLength": 312,
      "target": 34962
    },
    {
      "buffer": 0,
      "byteOffset": 3024,
      "byteLength": 312,
      "target": 34962
    },
    {
      "buffer": 0,
      "byteOffset": 3336,
      "byteLength": 288,
      "target": 34963
    },
    {
      "buffer": 0,
      "byteOffset": 3624,
      "byteLength": 288,
      "target": 34962
    },
    {
      "buffer": 0,
      "byteOffset": 3912,
      "byteLength": 288,
      "target": 34962
    },
    {
      "buffer": 0,
      "byteOffset": 4200,
      "byteLength": 72,
      "target": 34963
    },
    {
      "buffer": 0,
      "byteOffset": 4272,
      "byteLength": 288,
      "target": 34962
    },
    {
      "buffer": 0,
      "byteOffset": 4560,
      "byteLength": 288,
      "target": 34962
    },
    {
      "buffer": 0,
      "byteOffset": 4848,
      "byteLength": 72,
      "target": 34963
    },
    {
      "buffer": 0,
      "byteOffset": 4920,
      "byteLength": 1728,
      "target": 34962
    },
    {
      "buffer": 0,
      "byteOffset": 6648,
      "byteLength": 1728,
      "target": 34962
    },
    {
      "buffer": 0,
      "byteOffset": 8376,
      "byteLength": 1536,
      "target": 34963
    },
    {
      "buffer": 0,
      "byteOffset": 9912,
      "byteLength": 288,
      "target": 34962
    },
    {
      "buffer": 0,
      "byteOffset": 10200,
      "byteLength": 288,
      "target": 34962
    },
    {
      "buffer": 0,
      "byteOffset": 10488,
      "byteLength": 72,
      "target": 34963
    },
    {
      "buffer": 0,
      "byteOffset": 10560,
      "byteLength": 312,
      "target": 34962
    },
    {
      "buffer": 0,
      "byteOffset": 10872,
      "byteLength": 312,
      "target": 34962
    },
    {
      "buffer": 0,
      "byteOffset": 11184,
      "byteLength": 288,
      "target": 34963
    },
    {
      "buffer": 0,
      "byteOffset": 11472,
      "byteLength": 1728,
      "target": 34962
    },
    {
      "buffer": 0,
      "byteOffset": 13200,
      "byteLength": 1728,
      "target": 34962
    },
    {
      "buffer": 0,
      "byteOffset": 14928,
      "byteLength": 1536,
      "target": 34963
    },
    {
      "buffer": 0,
      "byteOffset": 16464,
      "byteLength": 312,
      "target": 34962
    },
    {
      "buffer": 0,
      "byteOffset": 16776,
      "byteLength": 312,
      "target": 34962
    },
    {
      "buffer": 0,
      "byteOffset": 17088,
      "byteLength": 288,
      "target": 34963
    },
    {
      "buffer": 0,
      "byteOffset": 17376,
      "byteLength": 360,
      "target": 34962
    },
    {
      "buffer": 0,
      "byteOffset": 17736,
      "byteLength": 360,
      "target": 34962
    },
    {
      "buffer": 0,
      "byteOffset": 18096,
      "byteLength": 336,
      "target": 34963
    },
    {
      "buffer": 0,
      "byteOffset": 18432,
      "byteLength": 1728,
      "target": 34962
    },
    {
      "buffer": 0,
      "byteOffset": 20160,
      "byteLength": 1728,
      "target": 34962
    },
    {
      "buffer": 0,
      "byteOffset": 21888,
      "byteLength": 1536,
      "target": 34963
    },
    {
      "buffer": 0,
      "byteOffset": 23424,
      "byteLength": 288,
      "target": 34962
    },
    {
      "buffer": 0,
      "byteOffset": 23712,
      "byteLength": 288,
      "target": 34962
    },
    {
      "buffer": 0,
      "byteOffset": 24000,
      "byteLength": 72,
      "target": 34963
    },
    {
      "buffer": 0,
      "byteOffset": 24072,
      "byteLength": 288,
      "target": 34962
    },
    {
      "buffer": 0,
      "byteOffset": 24360,
      "byteLength": 288,
      "target": 34962
    },
    {
      "buffer": 0,
      "byteOffset": 24648,
      "byteLength": 72,
      "target": 34963
    },
    {
      "buffer": 0,
      "byteOffset": 24720,
      "byteLength": 216,
      "target": 34962
    },
    {
      "buffer": 0,
      "byteOffset": 24936,
      "byteLength": 216,
      "target": 34962
    },
    {
      "buffer": 0,
      "byteOffset": 25152,
      "byteLength": 192,
      "target": 34963
    },
    {
      "buffer": 0,
      "byteOffset": 25344,
      "byteLength": 12
    },
    {
      "buffer": 0,
      "byteOffset": 25356,
      "byteLength": 36
    },
    {
      "buffer": 0,
      "byteOffset": 25392,
      "byteLength": 12
    },
    {
      "buffer": 0,
      "byteOffset": 25404,
      "byteLength": 48
    },
    {
      "buffer": 0,
      "byteOffset": 25452,
      "byteLength": 12
    },
    {
      "buffer": 0,
      "byteOffset": 25464,
      "byteLength": 48
    }
  ],
  "buffers": [
    {
      "byteLength": 25512,
      "uri": "data:application/octet-stream;base64,"
    }
  ],
  "animations": [
    {
      "name": "Idle",
      "samplers": [
        {
          "input": 51,
          "output": 52,
          "interpolation": "LINEAR"
        }
      ],
      "channels": [
        {
          "sampler": 0,
          "target": {
            "node": 0,
            "path": "translation"
          }
        }
      ]
    },
    {
      "name": "Walk",
      "samplers": [
        {
          "input": 53,
          "output": 54,
          "interpolation": "LINEAR"
        }
      ],
      "channels": [
        {
          "sampler": 0,
          "target": {
            "node": 18,
            "path": "rotation"
          }
        }
      ]
    },
    {
      "name": "Survey",
      "samplers": [
        {
          "input": 55,
          "output": 56,
          "interpolation": "LINEAR"
        }
      ],
      "channels": [
        {
          "sampler": 0,
          "target": {
            "node": 30,
            "path": "rotation"
          }
        }
      ]
    }
  ],
  "extras": {
    "ironwright_asset_id": "pathfinder.scout.v1",
    "required_nodes": [
      "PathfinderModel",
      "Sensor",
      "OpticLens",
      "ScoutFin",
      "BeaconRing",
      "ScoutOptic",
      "PathfinderSensorPod",
      "ProductionAssetMarker"
    ],
    "animation_clips": [
      "Idle",
      "Walk",
      "Survey"
    ]
  }
}
