{
  "asset": {
    "version": "2.0",
    "generator": "Project Ironwright original Flood Market asset builder"
  },
  "scene": 0,
  "scenes": [
    {
      "name": "FloodMarket",
      "nodes": [
        0
      ]
    }
  ],
  "nodes": [
    {
      "name": "FloodMarketModel",
      "children": [
        1,
        2,
        9,
        16,
        23,
        24,
        25,
        26,
        27,
        28,
        29,
        30,
        31,
        32,
        33,
        34,
        35,
        36,
        37,
        38,
        39,
        40,
        41,
        42,
        43,
        44,
        45,
        46,
        47,
        48,
        49,
        50,
        51,
        52,
        53,
        54,
        55,
        56,
        57,
        58
      ],
      "extras": {
        "ironwright_asset_id": "flood.market.v1",
        "asset_quality": "authored_high_definition",
        "socket_contract": "market_canopies, stalls, flood_channels, waterline_signals, service_crane, organic_growth"
      }
    },
    {
      "name": "FloodMarketFloor",
      "translation": [
        0.0,
        0.08,
        0.0
      ],
      "mesh": 0,
      "extras": {
        "socket_type": "market_floor"
      }
    },
    {
      "name": "FloodMarketCanopy0",
      "translation": [
        0.0,
        0.0,
        0.0
      ],
      "extras": {
        "socket_type": "market_canopy"
      },
      "children": [
        3,
        4,
        5,
        6,
        7,
        8
      ]
    },
    {
      "name": "FloodMarketCanopyRoof0",
      "translation": [
        -6.0,
        4.0,
        1.5
      ],
      "mesh": 3,
      "extras": {
        "socket_type": "market_canopy_roof"
      }
    },
    {
      "name": "FloodMarketCanopyRib0_0",
      "translation": [
        -8.0,
        4.08,
        1.5
      ],
      "mesh": 13,
      "extras": {
        "surface": "canopy_structural_rib"
      }
    },
    {
      "name": "FloodMarketCanopyRib0_1",
      "translation": [
        -6.0,
        4.08,
        1.5
      ],
      "mesh": 13,
      "extras": {
        "surface": "canopy_structural_rib"
      }
    },
    {
      "name": "FloodMarketCanopyRib0_2",
      "translation": [
        -4.0,
        4.08,
        1.5
      ],
      "mesh": 13,
      "extras": {
        "surface": "canopy_structural_rib"
      }
    },
    {
      "name": "FloodMarketCanopyPost0_L",
      "translation": [
        -8.7,
        1.8,
        1.5
      ],
      "mesh": 1
    },
    {
      "name": "FloodMarketCanopyPost0_R",
      "translation": [
        -3.3,
        1.8,
        1.5
      ],
      "mesh": 1
    },
    {
      "name": "FloodMarketCanopy1",
      "translation": [
        0.0,
        0.0,
        0.0
      ],
      "extras": {
        "socket_type": "market_canopy"
      },
      "children": [
        10,
        11,
        12,
        13,
        14,
        15
      ]
    },
    {
      "name": "FloodMarketCanopyRoof1",
      "translation": [
        0.0,
        4.0,
        1.5
      ],
      "mesh": 3,
      "extras": {
        "socket_type": "market_canopy_roof"
      }
    },
    {
      "name": "FloodMarketCanopyRib1_0",
      "translation": [
        -2.0,
        4.08,
        1.5
      ],
      "mesh": 13,
      "extras": {
        "surface": "canopy_structural_rib"
      }
    },
    {
      "name": "FloodMarketCanopyRib1_1",
      "translation": [
        0.0,
        4.08,
        1.5
      ],
      "mesh": 13,
      "extras": {
        "surface": "canopy_structural_rib"
      }
    },
    {
      "name": "FloodMarketCanopyRib1_2",
      "translation": [
        2.0,
        4.08,
        1.5
      ],
      "mesh": 13,
      "extras": {
        "surface": "canopy_structural_rib"
      }
    },
    {
      "name": "FloodMarketCanopyPost1_L",
      "translation": [
        -2.7,
        1.8,
        1.5
      ],
      "mesh": 1
    },
    {
      "name": "FloodMarketCanopyPost1_R",
      "translation": [
        2.7,
        1.8,
        1.5
      ],
      "mesh": 1
    },
    {
      "name": "FloodMarketCanopy2",
      "translation": [
        0.0,
        0.0,
        0.0
      ],
      "extras": {
        "socket_type": "market_canopy"
      },
      "children": [
        17,
        18,
        19,
        20,
        21,
        22
      ]
    },
    {
      "name": "FloodMarketCanopyRoof2",
      "translation": [
        6.0,
        4.0,
        1.5
      ],
      "mesh": 3,
      "extras": {
        "socket_type": "market_canopy_roof"
      }
    },
    {
      "name": "FloodMarketCanopyRib2_0",
      "translation": [
        4.0,
        4.08,
        1.5
      ],
      "mesh": 13,
      "extras": {
        "surface": "canopy_structural_rib"
      }
    },
    {
      "name": "FloodMarketCanopyRib2_1",
      "translation": [
        6.0,
        4.08,
        1.5
      ],
      "mesh": 13,
      "extras": {
        "surface": "canopy_structural_rib"
      }
    },
    {
      "name": "FloodMarketCanopyRib2_2",
      "translation": [
        8.0,
        4.08,
        1.5
      ],
      "mesh": 13,
      "extras": {
        "surface": "canopy_structural_rib"
      }
    },
    {
      "name": "FloodMarketCanopyPost2_L",
      "translation": [
        3.3,
        1.8,
        1.5
      ],
      "mesh": 1
    },
    {
      "name": "FloodMarketCanopyPost2_R",
      "translation": [
        8.7,
        1.8,
        1.5
      ],
      "mesh": 1
    },
    {
      "name": "FloodMarketStall0",
      "translation": [
        -6.0,
        0.36,
        1.2
      ],
      "mesh": 4,
      "extras": {
        "socket_type": "market_stall"
      }
    },
    {
      "name": "FloodMarketStallFrame0",
      "translation": [
        -6.0,
        0.58,
        1.2
      ],
      "mesh": 14,
      "extras": {
        "surface": "stall_service_frame"
      }
    },
    {
      "name": "FloodMarketWaterChannel0",
      "translation": [
        -6.0,
        0.23,
        8.8
      ],
      "mesh": 5,
      "extras": {
        "socket_type": "flood_channel"
      }
    },
    {
      "name": "FloodMarketWaterline0",
      "translation": [
        -6.0,
        0.31,
        8.0
      ],
      "mesh": 6,
      "extras": {
        "socket_type": "waterline_signal"
      }
    },
    {
      "name": "FloodMarketWaterFoam0_0",
      "translation": [
        -6.0,
        0.34,
        5.6
      ],
      "mesh": 15,
      "extras": {
        "surface": "water_foam_band"
      }
    },
    {
      "name": "FloodMarketWaterFoam0_1",
      "translation": [
        -6.0,
        0.34,
        -1.2
      ],
      "mesh": 15,
      "extras": {
        "surface": "water_foam_band"
      }
    },
    {
      "name": "FloodMarketGlowHousing0",
      "translation": [
        -6.0,
        3.55,
        1.5
      ],
      "mesh": 18,
      "extras": {
        "surface": "stall_light_housing"
      }
    },
    {
      "name": "FloodMarketGrowthLight0",
      "translation": [
        -6.0,
        3.55,
        1.5
      ],
      "mesh": 10,
      "extras": {
        "socket_type": "stall_light"
      }
    },
    {
      "name": "FloodMarketStall1",
      "translation": [
        0.0,
        0.36,
        1.2
      ],
      "mesh": 4,
      "extras": {
        "socket_type": "market_stall"
      }
    },
    {
      "name": "FloodMarketStallFrame1",
      "translation": [
        0.0,
        0.58,
        1.2
      ],
      "mesh": 14,
      "extras": {
        "surface": "stall_service_frame"
      }
    },
    {
      "name": "FloodMarketWaterChannel1",
      "translation": [
        0.0,
        0.23,
        8.8
      ],
      "mesh": 5,
      "extras": {
        "socket_type": "flood_channel"
      }
    },
    {
      "name": "FloodMarketWaterline1",
      "translation": [
        0.0,
        0.31,
        8.0
      ],
      "mesh": 6,
      "extras": {
        "socket_type": "waterline_signal"
      }
    },
    {
      "name": "FloodMarketWaterFoam1_0",
      "translation": [
        0.0,
        0.34,
        5.6
      ],
      "mesh": 15,
      "extras": {
        "surface": "water_foam_band"
      }
    },
    {
      "name": "FloodMarketWaterFoam1_1",
      "translation": [
        0.0,
        0.34,
        -1.2
      ],
      "mesh": 15,
      "extras": {
        "surface": "water_foam_band"
      }
    },
    {
      "name": "FloodMarketGlowHousing1",
      "translation": [
        0.0,
        3.55,
        1.5
      ],
      "mesh": 18,
      "extras": {
        "surface": "stall_light_housing"
      }
    },
    {
      "name": "FloodMarketGrowthLight1",
      "translation": [
        0.0,
        3.55,
        1.5
      ],
      "mesh": 10,
      "extras": {
        "socket_type": "stall_light"
      }
    },
    {
      "name": "FloodMarketStall2",
      "translation": [
        6.0,
        0.36,
        1.2
      ],
      "mesh": 4,
      "extras": {
        "socket_type": "market_stall"
      }
    },
    {
      "name": "FloodMarketStallFrame2",
      "translation": [
        6.0,
        0.58,
        1.2
      ],
      "mesh": 14,
      "extras": {
        "surface": "stall_service_frame"
      }
    },
    {
      "name": "FloodMarketWaterChannel2",
      "translation": [
        6.0,
        0.23,
        8.8
      ],
      "mesh": 5,
      "extras": {
        "socket_type": "flood_channel"
      }
    },
    {
      "name": "FloodMarketWaterline2",
      "translation": [
        6.0,
        0.31,
        8.0
      ],
      "mesh": 6,
      "extras": {
        "socket_type": "waterline_signal"
      }
    },
    {
      "name": "FloodMarketWaterFoam2_0",
      "translation": [
        6.0,
        0.34,
        5.6
      ],
      "mesh": 15,
      "extras": {
        "surface": "water_foam_band"
      }
    },
    {
      "name": "FloodMarketWaterFoam2_1",
      "translation": [
        6.0,
        0.34,
        -1.2
      ],
      "mesh": 15,
      "extras": {
        "surface": "water_foam_band"
      }
    },
    {
      "name": "FloodMarketGlowHousing2",
      "translation": [
        6.0,
        3.55,
        1.5
      ],
      "mesh": 18,
      "extras": {
        "surface": "stall_light_housing"
      }
    },
    {
      "name": "FloodMarketGrowthLight2",
      "translation": [
        6.0,
        3.55,
        1.5
      ],
      "mesh": 10,
      "extras": {
        "socket_type": "stall_light"
      }
    },
    {
      "name": "FloodMarketMarketSign",
      "translation": [
        0.0,
        3.2,
        1.08
      ],
      "mesh": 7,
      "rotation": [
        0.0,
        0.0,
        0.01499943750632809,
        0.9998875021093592
      ],
      "extras": {
        "socket_type": "market_sign"
      }
    },
    {
      "name": "FloodMarketServiceCrane",
      "translation": [
        -7.6,
        2.5,
        5.6
      ],
      "mesh": 8,
      "extras": {
        "socket_type": "service_crane"
      }
    },
    {
      "name": "FloodMarketCraneArm",
      "translation": [
        -4.4,
        4.8,
        5.6
      ],
      "mesh": 2,
      "rotation": [
        0.0,
        0.7071067811865476,
        0.0,
        0.7071067811865476
      ],
      "extras": {
        "socket_type": "crane_arm"
      }
    },
    {
      "name": "FloodMarketCraneWheel",
      "translation": [
        -6.0,
        2.6,
        5.6
      ],
      "mesh": 16,
      "rotation": [
        0.7071067811865476,
        0.0,
        0.0,
        0.7071067811865476
      ],
      "extras": {
        "surface": "crane_service_wheel"
      }
    },
    {
      "name": "FloodMarketServiceCable",
      "translation": [
        -5.8,
        3.7,
        5.6
      ],
      "mesh": 11,
      "rotation": [
        0.0,
        0.0,
        0.7071067811865476,
        0.7071067811865476
      ],
      "extras": {
        "socket_type": "service_cable"
      }
    },
    {
      "name": "FloodMarketOrganicGrowth0",
      "translation": [
        -7.2,
        0.52,
        5.1
      ],
      "mesh": 9,
      "scale": [
        1.0,
        0.8,
        1.15
      ],
      "extras": {
        "socket_type": "organic_growth"
      }
    },
    {
      "name": "FloodMarketOrganicTendril0_0",
      "translation": [
        -7.42,
        0.82,
        5.1
      ],
      "mesh": 17,
      "rotation": [
        0.0,
        0.0,
        -0.12963414261969486,
        0.9915618937147881
      ],
      "extras": {
        "surface": "organic_tendril"
      }
    },
    {
      "name": "FloodMarketOrganicTendril0_1",
      "translation": [
        -7.04,
        0.82,
        5.1
      ],
      "mesh": 17,
      "rotation": [
        0.0,
        0.0,
        0.07991469396917268,
        0.9968017063026194
      ],
      "extras": {
        "surface": "organic_tendril"
      }
    },
    {
      "name": "FloodMarketOrganicGrowth1",
      "translation": [
        6.8,
        0.52,
        -3.6
      ],
      "mesh": 9,
      "scale": [
        0.85,
        0.66,
        1.2
      ],
      "extras": {
        "socket_type": "organic_growth"
      }
    },
    {
      "name": "FloodMarketOrganicTendril1_0",
      "translation": [
        6.58,
        0.82,
        -3.6
      ],
      "mesh": 17,
      "rotation": [
        0.0,
        0.0,
        -0.12963414261969486,
        0.9915618937147881
      ],
      "extras": {
        "surface": "organic_tendril"
      }
    },
    {
      "name": "FloodMarketOrganicTendril1_1",
      "translation": [
        6.96,
        0.82,
        -3.6
      ],
      "mesh": 17,
      "rotation": [
        0.0,
        0.0,
        0.07991469396917268,
        0.9968017063026194
      ],
      "extras": {
        "surface": "organic_tendril"
      }
    },
    {
      "name": "ProductionAssetMarker",
      "translation": [
        0.0,
        0.0,
        0.0
      ],
      "extras": {
        "asset_contract": "flood.market.v1",
        "source": "original_procedural_mesh_builder"
      }
    }
  ],
  "meshes": [
    {
      "name": "MarketFloor",
      "primitives": [
        {
          "attributes": {
            "POSITION": 0,
            "NORMAL": 1
          },
          "indices": 2,
          "material": 0
        }
      ]
    },
    {
      "name": "MarketPost",
      "primitives": [
        {
          "attributes": {
            "POSITION": 3,
            "NORMAL": 4
          },
          "indices": 5,
          "material": 0
        }
      ]
    },
    {
      "name": "MarketBeam",
      "primitives": [
        {
          "attributes": {
            "POSITION": 6,
            "NORMAL": 7
          },
          "indices": 8,
          "material": 2
        }
      ]
    },
    {
      "name": "MarketCanopy",
      "primitives": [
        {
          "attributes": {
            "POSITION": 9,
            "NORMAL": 10
          },
          "indices": 11,
          "material": 1
        }
      ]
    },
    {
      "name": "MarketStall",
      "primitives": [
        {
          "attributes": {
            "POSITION": 12,
            "NORMAL": 13
          },
          "indices": 14,
          "material": 2
        }
      ]
    },
    {
      "name": "MarketWater",
      "primitives": [
        {
          "attributes": {
            "POSITION": 15,
            "NORMAL": 16
          },
          "indices": 17,
          "material": 3
        }
      ]
    },
    {
      "name": "MarketWaterline",
      "primitives": [
        {
          "attributes": {
            "POSITION": 18,
            "NORMAL": 19
          },
          "indices": 20,
          "material": 4
        }
      ]
    },
    {
      "name": "MarketSign",
      "primitives": [
        {
          "attributes": {
            "POSITION": 21,
            "NORMAL": 22
          },
          "indices": 23,
          "material": 5
        }
      ]
    },
    {
      "name": "MarketCrane",
      "primitives": [
        {
          "attributes": {
            "POSITION": 24,
            "NORMAL": 25
          },
          "indices": 26,
          "material": 0
        }
      ]
    },
    {
      "name": "MarketGrowth",
      "primitives": [
        {
          "attributes": {
            "POSITION": 27,
            "NORMAL": 28
          },
          "indices": 29,
          "material": 6
        }
      ]
    },
    {
      "name": "MarketGlow",
      "primitives": [
        {
          "attributes": {
            "POSITION": 30,
            "NORMAL": 31
          },
          "indices": 32,
          "material": 4
        }
      ]
    },
    {
      "name": "MarketCable",
      "primitives": [
        {
          "attributes": {
            "POSITION": 33,
            "NORMAL": 34
          },
          "indices": 35,
          "material": 2
        }
      ]
    },
    {
      "name": "MarketMarker",
      "primitives": [
        {
          "attributes": {
            "POSITION": 36,
            "NORMAL": 37
          },
          "indices": 38,
          "material": 2
        }
      ]
    },
    {
      "name": "MarketCanopyRib",
      "primitives": [
        {
          "attributes": {
            "POSITION": 39,
            "NORMAL": 40
          },
          "indices": 41,
          "material": 2
        }
      ]
    },
    {
      "name": "MarketStallFrame",
      "primitives": [
        {
          "attributes": {
            "POSITION": 42,
            "NORMAL": 43
          },
          "indices": 44,
          "material": 0
        }
      ]
    },
    {
      "name": "MarketWaterFoam",
      "primitives": [
        {
          "attributes": {
            "POSITION": 45,
            "NORMAL": 46
          },
          "indices": 47,
          "material": 4
        }
      ]
    },
    {
      "name": "MarketCraneWheel",
      "primitives": [
        {
          "attributes": {
            "POSITION": 48,
            "NORMAL": 49
          },
          "indices": 50,
          "material": 2
        }
      ]
    },
    {
      "name": "MarketGrowthTendril",
      "primitives": [
        {
          "attributes": {
            "POSITION": 51,
            "NORMAL": 52
          },
          "indices": 53,
          "material": 6
        }
      ]
    },
    {
      "name": "MarketGlowHousing",
      "primitives": [
        {
          "attributes": {
            "POSITION": 54,
            "NORMAL": 55
          },
          "indices": 56,
          "material": 0
        }
      ]
    }
  ],
  "materials": [
    {
      "name": "Market frame",
      "pbrMetallicRoughness": {
        "baseColorFactor": [
          0.08,
          0.14,
          0.16,
          1.0
        ],
        "metallicFactor": 0.7,
        "roughnessFactor": 0.46
      }
    },
    {
      "name": "Market canopy",
      "pbrMetallicRoughness": {
        "baseColorFactor": [
          0.34,
          0.12,
          0.1,
          1.0
        ],
        "metallicFactor": 0.08,
        "roughnessFactor": 0.76
      }
    },
    {
      "name": "Market oxidized trim",
      "pbrMetallicRoughness": {
        "baseColorFactor": [
          0.52,
          0.22,
          0.07,
          1.0
        ],
        "metallicFactor": 0.42,
        "roughnessFactor": 0.68
      },
      "emissiveFactor": [
        0.13,
        0.025,
        0.005
      ]
    },
    {
      "name": "Market dark water",
      "alphaMode": "BLEND",
      "doubleSided": true,
      "pbrMetallicRoughness": {
        "baseColorFactor": [
          0.04,
          0.22,
          0.25,
          0.6
        ],
        "metallicFactor": 0.22,
        "roughnessFactor": 0.18
      },
      "emissiveFactor": [
        0.01,
        0.12,
        0.13
      ]
    },
    {
      "name": "Market waterline",
      "pbrMetallicRoughness": {
        "baseColorFactor": [
          0.18,
          0.55,
          0.5,
          1.0
        ],
        "metallicFactor": 0.24,
        "roughnessFactor": 0.24
      },
      "emissiveFactor": [
        0.05,
        0.32,
        0.25
      ]
    },
    {
      "name": "Market sign",
      "pbrMetallicRoughness": {
        "baseColorFactor": [
          0.1,
          0.22,
          0.22,
          1.0
        ],
        "metallicFactor": 0.35,
        "roughnessFactor": 0.36
      },
      "emissiveFactor": [
        0.03,
        0.25,
        0.22
      ]
    },
    {
      "name": "Market organic growth",
      "pbrMetallicRoughness": {
        "baseColorFactor": [
          0.07,
          0.26,
          0.16,
          1.0
        ],
        "metallicFactor": 0.02,
        "roughnessFactor": 0.78
      },
      "emissiveFactor": [
        0.03,
        0.26,
        0.11
      ]
    }
  ],
  "accessors": [
    {
      "bufferView": 0,
      "componentType": 5126,
      "count": 24,
      "type": "VEC3",
      "min": [
        -9.0,
        -0.08,
        -7.0
      ],
      "max": [
        9.0,
        0.08,
        7.0
      ]
    },
    {
      "bufferView": 1,
      "componentType": 5126,
      "count": 24,
      "type": "VEC3"
    },
    {
      "bufferView": 2,
      "componentType": 5123,
      "count": 36,
      "type": "SCALAR",
      "normalized": false
    },
    {
      "bufferView": 3,
      "componentType": 5126,
      "count": 24,
      "type": "VEC3",
      "min": [
        -0.08,
        -1.6,
        -0.08
      ],
      "max": [
        0.08,
        1.6,
        0.08
      ]
    },
    {
      "bufferView": 4,
      "componentType": 5126,
      "count": 24,
      "type": "VEC3"
    },
    {
      "bufferView": 5,
      "componentType": 5123,
      "count": 36,
      "type": "SCALAR",
      "normalized": false
    },
    {
      "bufferView": 6,
      "componentType": 5126,
      "count": 24,
      "type": "VEC3",
      "min": [
        -0.09,
        -0.09,
        -3.1
      ],
      "max": [
        0.09,
        0.09,
        3.1
      ]
    },
    {
      "bufferView": 7,
      "componentType": 5126,
      "count": 24,
      "type": "VEC3"
    },
    {
      "bufferView": 8,
      "componentType": 5123,
      "count": 36,
      "type": "SCALAR",
      "normalized": false
    },
    {
      "bufferView": 9,
      "componentType": 5126,
      "count": 24,
      "type": "VEC3",
      "min": [
        -3.4,
        -0.08,
        -1.55
      ],
      "max": [
        3.4,
        0.08,
        1.55
      ]
    },
    {
      "bufferView": 10,
      "componentType": 5126,
      "count": 24,
      "type": "VEC3"
    },
    {
      "bufferView": 11,
      "componentType": 5123,
      "count": 36,
      "type": "SCALAR",
      "normalized": false
    },
    {
      "bufferView": 12,
      "componentType": 5126,
      "count": 24,
      "type": "VEC3",
      "min": [
        -1.9,
        -0.14,
        -0.7
      ],
      "max": [
        1.9,
        0.14,
        0.7
      ]
    },
    {
      "bufferView": 13,
      "componentType": 5126,
      "count": 24,
      "type": "VEC3"
    },
    {
      "bufferView": 14,
      "componentType": 5123,
      "count": 36,
      "type": "SCALAR",
      "normalized": false
    },
    {
      "bufferView": 15,
      "componentType": 5126,
      "count": 24,
      "type": "VEC3",
      "min": [
        -1.8,
        -0.02,
        -0.75
      ],
      "max": [
        1.8,
        0.02,
        0.75
      ]
    },
    {
      "bufferView": 16,
      "componentType": 5126,
      "count": 24,
      "type": "VEC3"
    },
    {
      "bufferView": 17,
      "componentType": 5123,
      "count": 36,
      "type": "SCALAR",
      "normalized": false
    },
    {
      "bufferView": 18,
      "componentType": 5126,
      "count": 24,
      "type": "VEC3",
      "min": [
        -1.5,
        -0.0175,
        -0.03
      ],
      "max": [
        1.5,
        0.0175,
        0.03
      ]
    },
    {
      "bufferView": 19,
      "componentType": 5126,
      "count": 24,
      "type": "VEC3"
    },
    {
      "bufferView": 20,
      "componentType": 5123,
      "count": 36,
      "type": "SCALAR",
      "normalized": false
    },
    {
      "bufferView": 21,
      "componentType": 5126,
      "count": 24,
      "type": "VEC3",
      "min": [
        -0.8,
        -0.36,
        -0.04
      ],
      "max": [
        0.8,
        0.36,
        0.04
      ]
    },
    {
      "bufferView": 22,
      "componentType": 5126,
      "count": 24,
      "type": "VEC3"
    },
    {
      "bufferView": 23,
      "componentType": 5123,
      "count": 36,
      "type": "SCALAR",
      "normalized": false
    },
    {
      "bufferView": 24,
      "componentType": 5126,
      "count": 38,
      "type": "VEC3",
      "min": [
        -0.08,
        -2.4,
        -0.07878462024097665
      ],
      "max": [
        0.08,
        2.4,
        0.07878462024097664
      ]
    },
    {
      "bufferView": 25,
      "componentType": 5126,
      "count": 38,
      "type": "VEC3"
    },
    {
      "bufferView": 26,
      "componentType": 5123,
      "count": 216,
      "type": "SCALAR",
      "normalized": false
    },
    {
      "bufferView": 27,
      "componentType": 5126,
      "count": 532,
      "type": "VEC3",
      "min": [
        -0.52,
        -0.52,
        -0.52
      ],
      "max": [
        0.52,
        0.52,
        0.52
      ]
    },
    {
      "bufferView": 28,
      "componentType": 5126,
      "count": 532,
      "type": "VEC3"
    },
    {
      "bufferView": 29,
      "componentType": 5123,
      "count": 3024,
      "type": "SCALAR",
      "normalized": false
    },
    {
      "bufferView": 30,
      "componentType": 5126,
      "count": 408,
      "type": "VEC3",
      "min": [
        -0.14,
        -0.14,
        -0.14
      ],
      "max": [
        0.14,
        0.14,
        0.14
      ]
    },
    {
      "bufferView": 31,
      "componentType": 5126,
      "count": 408,
      "type": "VEC3"
    },
    {
      "bufferView": 32,
      "componentType": 5123,
      "count": 2304,
      "type": "SCALAR",
      "normalized": false
    },
    {
      "bufferView": 33,
      "componentType": 5126,
      "count": 22,
      "type": "VEC3",
      "min": [
        -0.04,
        -2.1,
        -0.038042260651806145
      ],
      "max": [
        0.04,
        2.1,
        0.038042260651806145
      ]
    },
    {
      "bufferView": 34,
      "componentType": 5126,
      "count": 22,
      "type": "VEC3"
    },
    {
      "bufferView": 35,
      "componentType": 5123,
      "count": 120,
      "type": "SCALAR",
      "normalized": false
    },
    {
      "bufferView": 36,
      "componentType": 5126,
      "count": 24,
      "type": "VEC3",
      "min": [
        -0.35,
        -0.04,
        -0.35
      ],
      "max": [
        0.35,
        0.04,
        0.35
      ]
    },
    {
      "bufferView": 37,
      "componentType": 5126,
      "count": 24,
      "type": "VEC3"
    },
    {
      "bufferView": 38,
      "componentType": 5123,
      "count": 36,
      "type": "SCALAR",
      "normalized": false
    },
    {
      "bufferView": 39,
      "componentType": 5126,
      "count": 24,
      "type": "VEC3",
      "min": [
        -0.05,
        -0.06,
        -1.41
      ],
      "max": [
        0.05,
        0.06,
        1.41
      ]
    },
    {
      "bufferView": 40,
      "componentType": 5126,
      "count": 24,
      "type": "VEC3"
    },
    {
      "bufferView": 41,
      "componentType": 5123,
      "count": 36,
      "type": "SCALAR",
      "normalized": false
    },
    {
      "bufferView": 42,
      "componentType": 5126,
      "count": 24,
      "type": "VEC3",
      "min": [
        -1.95,
        -0.05,
        -0.775
      ],
      "max": [
        1.95,
        0.05,
        0.775
      ]
    },
    {
      "bufferView": 43,
      "componentType": 5126,
      "count": 24,
      "type": "VEC3"
    },
    {
      "bufferView": 44,
      "componentType": 5123,
      "count": 36,
      "type": "SCALAR",
      "normalized": false
    },
    {
      "bufferView": 45,
      "componentType": 5126,
      "count": 24,
      "type": "VEC3",
      "min": [
        -1.325,
        -0.0125,
        -0.05
      ],
      "max": [
        1.325,
        0.0125,
        0.05
      ]
    },
    {
      "bufferView": 46,
      "componentType": 5126,
      "count": 24,
      "type": "VEC3"
    },
    {
      "bufferView": 47,
      "componentType": 5123,
      "count": 36,
      "type": "SCALAR",
      "normalized": false
    },
    {
      "bufferView": 48,
      "componentType": 5126,
      "count": 42,
      "type": "VEC3",
      "min": [
        -0.26,
        -0.06,
        -0.26
      ],
      "max": [
        0.26,
        0.06,
        0.26
      ]
    },
    {
      "bufferView": 49,
      "componentType": 5126,
      "count": 42,
      "type": "VEC3"
    },
    {
      "bufferView": 50,
      "componentType": 5123,
      "count": 240,
      "type": "SCALAR",
      "normalized": false
    },
    {
      "bufferView": 51,
      "componentType": 5126,
      "count": 30,
      "type": "VEC3",
      "min": [
        -0.045,
        -0.39,
        -0.043871756048182074
      ],
      "max": [
        0.045,
        0.39,
        0.04387175604818206
      ]
    },
    {
      "bufferView": 52,
      "componentType": 5126,
      "count": 30,
      "type": "VEC3"
    },
    {
      "bufferView": 53,
      "componentType": 5123,
      "count": 168,
      "type": "SCALAR",
      "normalized": false
    },
    {
      "bufferView": 54,
      "componentType": 5126,
      "count": 34,
      "type": "VEC3",
      "min": [
        -0.11,
        -0.07,
        -0.11
      ],
      "max": [
        0.11,
        0.07,
        0.11
      ]
    },
    {
      "bufferView": 55,
      "componentType": 5126,
      "count": 34,
      "type": "VEC3"
    },
    {
      "bufferView": 56,
      "componentType": 5123,
      "count": 192,
      "type": "SCALAR",
      "normalized": false
    }
  ],
  "bufferViews": [
    {
      "buffer": 0,
      "byteOffset": 0,
      "byteLength": 288,
      "target": 34962
    },
    {
      "buffer": 0,
      "byteOffset": 288,
      "byteLength": 288,
      "target": 34962
    },
    {
      "buffer": 0,
      "byteOffset": 576,
      "byteLength": 72,
      "target": 34963
    },
    {
      "buffer": 0,
      "byteOffset": 648,
      "byteLength": 288,
      "target": 34962
    },
    {
      "buffer": 0,
      "byteOffset": 936,
      "byteLength": 288,
      "target": 34962
    },
    {
      "buffer": 0,
      "byteOffset": 1224,
      "byteLength": 72,
      "target": 34963
    },
    {
      "buffer": 0,
      "byteOffset": 1296,
      "byteLength": 288,
      "target": 34962
    },
    {
      "buffer": 0,
      "byteOffset": 1584,
      "byteLength": 288,
      "target": 34962
    },
    {
      "buffer": 0,
      "byteOffset": 1872,
      "byteLength": 72,
      "target": 34963
    },
    {
      "buffer": 0,
      "byteOffset": 1944,
      "byteLength": 288,
      "target": 34962
    },
    {
      "buffer": 0,
      "byteOffset": 2232,
      "byteLength": 288,
      "target": 34962
    },
    {
      "buffer": 0,
      "byteOffset": 2520,
      "byteLength": 72,
      "target": 34963
    },
    {
      "buffer": 0,
      "byteOffset": 2592,
      "byteLength": 288,
      "target": 34962
    },
    {
      "buffer": 0,
      "byteOffset": 2880,
      "byteLength": 288,
      "target": 34962
    },
    {
      "buffer": 0,
      "byteOffset": 3168,
      "byteLength": 72,
      "target": 34963
    },
    {
      "buffer": 0,
      "byteOffset": 3240,
      "byteLength": 288,
      "target": 34962
    },
    {
      "buffer": 0,
      "byteOffset": 3528,
      "byteLength": 288,
      "target": 34962
    },
    {
      "buffer": 0,
      "byteOffset": 3816,
      "byteLength": 72,
      "target": 34963
    },
    {
      "buffer": 0,
      "byteOffset": 3888,
      "byteLength": 288,
      "target": 34962
    },
    {
      "buffer": 0,
      "byteOffset": 4176,
      "byteLength": 288,
      "target": 34962
    },
    {
      "buffer": 0,
      "byteOffset": 4464,
      "byteLength": 72,
      "target": 34963
    },
    {
      "buffer": 0,
      "byteOffset": 4536,
      "byteLength": 288,
      "target": 34962
    },
    {
      "buffer": 0,
      "byteOffset": 4824,
      "byteLength": 288,
      "target": 34962
    },
    {
      "buffer": 0,
      "byteOffset": 5112,
      "byteLength": 72,
      "target": 34963
    },
    {
      "buffer": 0,
      "byteOffset": 5184,
      "byteLength": 456,
      "target": 34962
    },
    {
      "buffer": 0,
      "byteOffset": 5640,
      "byteLength": 456,
      "target": 34962
    },
    {
      "buffer": 0,
      "byteOffset": 6096,
      "byteLength": 432,
      "target": 34963
    },
    {
      "buffer": 0,
      "byteOffset": 6528,
      "byteLength": 6384,
      "target": 34962
    },
    {
      "buffer": 0,
      "byteOffset": 12912,
      "byteLength": 6384,
      "target": 34962
    },
    {
      "buffer": 0,
      "byteOffset": 19296,
      "byteLength": 6048,
      "target": 34963
    },
    {
      "buffer": 0,
      "byteOffset": 25344,
      "byteLength": 4896,
      "target": 34962
    },
    {
      "buffer": 0,
      "byteOffset": 30240,
      "byteLength": 4896,
      "target": 34962
    },
    {
      "buffer": 0,
      "byteOffset": 35136,
      "byteLength": 4608,
      "target": 34963
    },
    {
      "buffer": 0,
      "byteOffset": 39744,
      "byteLength": 264,
      "target": 34962
    },
    {
      "buffer": 0,
      "byteOffset": 40008,
      "byteLength": 264,
      "target": 34962
    },
    {
      "buffer": 0,
      "byteOffset": 40272,
      "byteLength": 240,
      "target": 34963
    },
    {
      "buffer": 0,
      "byteOffset": 40512,
      "byteLength": 288,
      "target": 34962
    },
    {
      "buffer": 0,
      "byteOffset": 40800,
      "byteLength": 288,
      "target": 34962
    },
    {
      "buffer": 0,
      "byteOffset": 41088,
      "byteLength": 72,
      "target": 34963
    },
    {
      "buffer": 0,
      "byteOffset": 41160,
      "byteLength": 288,
      "target": 34962
    },
    {
      "buffer": 0,
      "byteOffset": 41448,
      "byteLength": 288,
      "target": 34962
    },
    {
      "buffer": 0,
      "byteOffset": 41736,
      "byteLength": 72,
      "target": 34963
    },
    {
      "buffer": 0,
      "byteOffset": 41808,
      "byteLength": 288,
      "target": 34962
    },
    {
      "buffer": 0,
      "byteOffset": 42096,
      "byteLength": 288,
      "target": 34962
    },
    {
      "buffer": 0,
      "byteOffset": 42384,
      "byteLength": 72,
      "target": 34963
    },
    {
      "buffer": 0,
      "byteOffset": 42456,
      "byteLength": 288,
      "target": 34962
    },
    {
      "buffer": 0,
      "byteOffset": 42744,
      "byteLength": 288,
      "target": 34962
    },
    {
      "buffer": 0,
      "byteOffset": 43032,
      "byteLength": 72,
      "target": 34963
    },
    {
      "buffer": 0,
      "byteOffset": 43104,
      "byteLength": 504,
      "target": 34962
    },
    {
      "buffer": 0,
      "byteOffset": 43608,
      "byteLength": 504,
      "target": 34962
    },
    {
      "buffer": 0,
      "byteOffset": 44112,
      "byteLength": 480,
      "target": 34963
    },
    {
      "buffer": 0,
      "byteOffset": 44592,
      "byteLength": 360,
      "target": 34962
    },
    {
      "buffer": 0,
      "byteOffset": 44952,
      "byteLength": 360,
      "target": 34962
    },
    {
      "buffer": 0,
      "byteOffset": 45312,
      "byteLength": 336,
      "target": 34963
    },
    {
      "buffer": 0,
      "byteOffset": 45648,
      "byteLength": 408,
      "target": 34962
    },
    {
      "buffer": 0,
      "byteOffset": 46056,
      "byteLength": 408,
      "target": 34962
    },
    {
      "buffer": 0,
      "byteOffset": 46464,
      "byteLength": 384,
      "target": 34963
    }
  ],
  "buffers": [
    {
      "byteLength": 46848,
      "uri": "data:application/octet-stream;base64,"
    }
  ],
  "extras": {
    "ironwright_asset_id": "flood.market.v1",
    "required_nodes": [
      "FloodMarketModel",
      "FloodMarketCanopy0",
      "FloodMarketCanopyRib0_0",
      "FloodMarketStall0",
      "FloodMarketStallFrame0",
      "FloodMarketWaterChannel0",
      "FloodMarketWaterline0",
      "FloodMarketWaterFoam0_0",
      "FloodMarketServiceCrane",
      "FloodMarketCraneWheel",
      "FloodMarketOrganicGrowth0",
      "FloodMarketOrganicTendril0_0",
      "ProductionAssetMarker"
    ]
  }
}
