{
  "asset": {
    "version": "2.0",
    "generator": "Project Ironwright original North Ruins archive asset builder"
  },
  "scene": 0,
  "scenes": [
    {
      "name": "Archive",
      "nodes": [
        0
      ]
    }
  ],
  "nodes": [
    {
      "name": "ArchiveModel",
      "children": [
        1,
        2,
        3,
        4,
        5,
        6,
        7,
        8,
        9,
        10,
        14,
        18,
        19,
        20,
        21,
        22,
        23
      ],
      "extras": {
        "ironwright_asset_id": "archive.north_ruins.v1",
        "asset_quality": "authored_high_definition",
        "socket_contract": "civic_facade, vault_door, archive_stacks, roof_beacon, organic_creep"
      }
    },
    {
      "name": "ArchiveFloor",
      "translation": [
        0.0,
        0.08,
        0.0
      ],
      "mesh": 0,
      "extras": {
        "socket_type": "archive_floor"
      }
    },
    {
      "name": "ArchiveCivicFacade",
      "translation": [
        0.0,
        2.8,
        1.7
      ],
      "mesh": 1,
      "extras": {
        "socket_type": "civic_facade"
      }
    },
    {
      "name": "ArchiveBrickWingL",
      "translation": [
        -7.0,
        2.1,
        -2.5
      ],
      "mesh": 2
    },
    {
      "name": "ArchiveBrickWingR",
      "translation": [
        7.0,
        2.1,
        -2.5
      ],
      "mesh": 2,
      "rotation": [
        0.0,
        0.01999866669333308,
        0.0,
        0.9998000066665778
      ]
    },
    {
      "name": "ArchiveFacadeWindowL",
      "translation": [
        -3.2,
        3.0,
        1.46
      ],
      "mesh": 10,
      "extras": {
        "socket_type": "civic_window"
      }
    },
    {
      "name": "ArchiveFacadeWindowR",
      "translation": [
        3.2,
        3.0,
        1.46
      ],
      "mesh": 10,
      "extras": {
        "socket_type": "civic_window"
      }
    },
    {
      "name": "ArchiveVaultDoor",
      "translation": [
        0.0,
        2.15,
        1.42
      ],
      "mesh": 3,
      "rotation": [
        0.7071067811865476,
        0.0,
        0.0,
        0.7071067811865476
      ],
      "extras": {
        "socket_type": "vault_door"
      }
    },
    {
      "name": "ArchiveVaultDoorRing",
      "translation": [
        0.0,
        2.15,
        1.28
      ],
      "mesh": 4,
      "rotation": [
        0.7071067811865476,
        0.0,
        0.0,
        0.7071067811865476
      ],
      "extras": {
        "socket_type": "vault_door_ring"
      }
    },
    {
      "name": "ArchiveVaultSteps",
      "translation": [
        0.0,
        0.18,
        0.2
      ],
      "mesh": 5,
      "extras": {
        "socket_type": "vault_steps"
      }
    },
    {
      "name": "ArchiveStack0",
      "translation": [
        -4.9,
        1.35,
        -3.2
      ],
      "mesh": 6,
      "extras": {
        "socket_type": "archive_stack"
      },
      "children": [
        11,
        12,
        13
      ]
    },
    {
      "name": "ArchivePaperStack0_0",
      "translation": [
        0.0,
        -0.88,
        0.0
      ],
      "mesh": 7
    },
    {
      "name": "ArchivePaperStack0_1",
      "translation": [
        0.0,
        -0.16000000000000003,
        0.0
      ],
      "mesh": 7
    },
    {
      "name": "ArchivePaperStack0_2",
      "translation": [
        0.0,
        0.5599999999999999,
        0.0
      ],
      "mesh": 7
    },
    {
      "name": "ArchiveStack1",
      "translation": [
        4.9,
        1.35,
        -3.2
      ],
      "mesh": 6,
      "extras": {
        "socket_type": "archive_stack"
      },
      "children": [
        15,
        16,
        17
      ]
    },
    {
      "name": "ArchivePaperStack1_0",
      "translation": [
        0.0,
        -0.88,
        0.0
      ],
      "mesh": 7
    },
    {
      "name": "ArchivePaperStack1_1",
      "translation": [
        0.0,
        -0.16000000000000003,
        0.0
      ],
      "mesh": 7
    },
    {
      "name": "ArchivePaperStack1_2",
      "translation": [
        0.0,
        0.5599999999999999,
        0.0
      ],
      "mesh": 7
    },
    {
      "name": "ArchiveRoofBeacon",
      "translation": [
        0.0,
        5.8,
        2.4
      ],
      "mesh": 8,
      "extras": {
        "socket_type": "roof_beacon"
      }
    },
    {
      "name": "ArchiveRoofBeaconLight",
      "translation": [
        0.0,
        8.85,
        2.4
      ],
      "mesh": 9,
      "extras": {
        "socket_type": "beacon_light"
      }
    },
    {
      "name": "ArchiveBeaconCable",
      "translation": [
        0.0,
        4.0,
        2.4
      ],
      "mesh": 12,
      "rotation": [
        0.0,
        0.0,
        0.7071067811865476,
        0.7071067811865476
      ],
      "extras": {
        "socket_type": "beacon_cable"
      }
    },
    {
      "name": "ArchiveOrganicCreep0",
      "translation": [
        -7.0,
        0.46,
        4.8
      ],
      "mesh": 11,
      "scale": [
        1.2,
        0.72,
        1.0
      ],
      "extras": {
        "socket_type": "organic_creep"
      }
    },
    {
      "name": "ArchiveOrganicCreep1",
      "translation": [
        6.6,
        0.46,
        -4.8
      ],
      "mesh": 11,
      "scale": [
        0.9,
        0.64,
        1.25
      ],
      "extras": {
        "socket_type": "organic_creep"
      }
    },
    {
      "name": "ProductionAssetMarker",
      "translation": [
        0.0,
        0.0,
        0.0
      ],
      "extras": {
        "asset_contract": "archive.north_ruins.v1",
        "source": "original_procedural_mesh_builder"
      }
    }
  ],
  "meshes": [
    {
      "name": "ArchiveFloor",
      "primitives": [
        {
          "attributes": {
            "POSITION": 0,
            "NORMAL": 1
          },
          "indices": 2,
          "material": 0
        }
      ]
    },
    {
      "name": "ArchiveFacade",
      "primitives": [
        {
          "attributes": {
            "POSITION": 3,
            "NORMAL": 4
          },
          "indices": 5,
          "material": 0
        }
      ]
    },
    {
      "name": "ArchiveBrickWing",
      "primitives": [
        {
          "attributes": {
            "POSITION": 6,
            "NORMAL": 7
          },
          "indices": 8,
          "material": 1
        }
      ]
    },
    {
      "name": "ArchiveVaultDoor",
      "primitives": [
        {
          "attributes": {
            "POSITION": 9,
            "NORMAL": 10
          },
          "indices": 11,
          "material": 2
        }
      ]
    },
    {
      "name": "ArchiveVaultRing",
      "primitives": [
        {
          "attributes": {
            "POSITION": 12,
            "NORMAL": 13
          },
          "indices": 14,
          "material": 3
        }
      ]
    },
    {
      "name": "ArchiveStep",
      "primitives": [
        {
          "attributes": {
            "POSITION": 15,
            "NORMAL": 16
          },
          "indices": 17,
          "material": 0
        }
      ]
    },
    {
      "name": "ArchiveShelf",
      "primitives": [
        {
          "attributes": {
            "POSITION": 18,
            "NORMAL": 19
          },
          "indices": 20,
          "material": 2
        }
      ]
    },
    {
      "name": "ArchivePaperStack",
      "primitives": [
        {
          "attributes": {
            "POSITION": 21,
            "NORMAL": 22
          },
          "indices": 23,
          "material": 6
        }
      ]
    },
    {
      "name": "ArchiveBeaconMast",
      "primitives": [
        {
          "attributes": {
            "POSITION": 24,
            "NORMAL": 25
          },
          "indices": 26,
          "material": 2
        }
      ]
    },
    {
      "name": "ArchiveBeacon",
      "primitives": [
        {
          "attributes": {
            "POSITION": 27,
            "NORMAL": 28
          },
          "indices": 29,
          "material": 3
        }
      ]
    },
    {
      "name": "ArchiveWindow",
      "primitives": [
        {
          "attributes": {
            "POSITION": 30,
            "NORMAL": 31
          },
          "indices": 32,
          "material": 4
        }
      ]
    },
    {
      "name": "ArchiveOrganicCreep",
      "primitives": [
        {
          "attributes": {
            "POSITION": 33,
            "NORMAL": 34
          },
          "indices": 35,
          "material": 5
        }
      ]
    },
    {
      "name": "ArchiveCable",
      "primitives": [
        {
          "attributes": {
            "POSITION": 36,
            "NORMAL": 37
          },
          "indices": 38,
          "material": 3
        }
      ]
    },
    {
      "name": "ArchiveMarker",
      "primitives": [
        {
          "attributes": {
            "POSITION": 39,
            "NORMAL": 40
          },
          "indices": 41,
          "material": 3
        }
      ]
    }
  ],
  "materials": [
    {
      "name": "Archive pale stone",
      "pbrMetallicRoughness": {
        "baseColorFactor": [
          0.29,
          0.31,
          0.3,
          1.0
        ],
        "metallicFactor": 0.08,
        "roughnessFactor": 0.88
      }
    },
    {
      "name": "Archive civic brick",
      "pbrMetallicRoughness": {
        "baseColorFactor": [
          0.28,
          0.15,
          0.12,
          1.0
        ],
        "metallicFactor": 0.04,
        "roughnessFactor": 0.9
      }
    },
    {
      "name": "Archive iron",
      "pbrMetallicRoughness": {
        "baseColorFactor": [
          0.07,
          0.1,
          0.12,
          1.0
        ],
        "metallicFactor": 0.72,
        "roughnessFactor": 0.46
      }
    },
    {
      "name": "Archive amber",
      "pbrMetallicRoughness": {
        "baseColorFactor": [
          0.62,
          0.25,
          0.06,
          1.0
        ],
        "metallicFactor": 0.12,
        "roughnessFactor": 0.38
      },
      "emissiveFactor": [
        0.92,
        0.16,
        0.02
      ]
    },
    {
      "name": "Archive cold glass",
      "alphaMode": "BLEND",
      "doubleSided": true,
      "pbrMetallicRoughness": {
        "baseColorFactor": [
          0.16,
          0.3,
          0.34,
          0.44
        ],
        "metallicFactor": 0.08,
        "roughnessFactor": 0.28
      },
      "emissiveFactor": [
        0.02,
        0.08,
        0.1
      ]
    },
    {
      "name": "Archive organic creep",
      "pbrMetallicRoughness": {
        "baseColorFactor": [
          0.22,
          0.04,
          0.12,
          1.0
        ],
        "metallicFactor": 0.02,
        "roughnessFactor": 0.84
      },
      "emissiveFactor": [
        0.28,
        0.01,
        0.08
      ]
    },
    {
      "name": "Archive paper stacks",
      "pbrMetallicRoughness": {
        "baseColorFactor": [
          0.38,
          0.32,
          0.23,
          1.0
        ],
        "metallicFactor": 0.02,
        "roughnessFactor": 0.94
      }
    }
  ],
  "accessors": [
    {
      "bufferView": 0,
      "componentType": 5126,
      "count": 24,
      "type": "VEC3",
      "min": [
        -9.0,
        -0.08,
        -7.0
      ],
      "max": [
        9.0,
        0.08,
        7.0
      ]
    },
    {
      "bufferView": 1,
      "componentType": 5126,
      "count": 24,
      "type": "VEC3"
    },
    {
      "bufferView": 2,
      "componentType": 5123,
      "count": 36,
      "type": "SCALAR",
      "normalized": false
    },
    {
      "bufferView": 3,
      "componentType": 5126,
      "count": 24,
      "type": "VEC3",
      "min": [
        -6.0,
        -2.8,
        -0.21
      ],
      "max": [
        6.0,
        2.8,
        0.21
      ]
    },
    {
      "bufferView": 4,
      "componentType": 5126,
      "count": 24,
      "type": "VEC3"
    },
    {
      "bufferView": 5,
      "componentType": 5123,
      "count": 36,
      "type": "SCALAR",
      "normalized": false
    },
    {
      "bufferView": 6,
      "componentType": 5126,
      "count": 24,
      "type": "VEC3",
      "min": [
        -2.2,
        -2.1,
        -2.2
      ],
      "max": [
        2.2,
        2.1,
        2.2
      ]
    },
    {
      "bufferView": 7,
      "componentType": 5126,
      "count": 24,
      "type": "VEC3"
    },
    {
      "bufferView": 8,
      "componentType": 5123,
      "count": 36,
      "type": "SCALAR",
      "normalized": false
    },
    {
      "bufferView": 9,
      "componentType": 5126,
      "count": 50,
      "type": "VEC3",
      "min": [
        -1.65,
        -0.12,
        -1.65
      ],
      "max": [
        1.65,
        0.12,
        1.65
      ]
    },
    {
      "bufferView": 10,
      "componentType": 5126,
      "count": 50,
      "type": "VEC3"
    },
    {
      "bufferView": 11,
      "componentType": 5123,
      "count": 288,
      "type": "SCALAR",
      "normalized": false
    },
    {
      "bufferView": 12,
      "componentType": 5126,
      "count": 50,
      "type": "VEC3",
      "min": [
        -2.0,
        -0.08,
        -2.0
      ],
      "max": [
        2.0,
        0.08,
        2.0
      ]
    },
    {
      "bufferView": 13,
      "componentType": 5126,
      "count": 50,
      "type": "VEC3"
    },
    {
      "bufferView": 14,
      "componentType": 5123,
      "count": 288,
      "type": "SCALAR",
      "normalized": false
    },
    {
      "bufferView": 15,
      "componentType": 5126,
      "count": 24,
      "type": "VEC3",
      "min": [
        -2.2,
        -0.14,
        -0.5
      ],
      "max": [
        2.2,
        0.14,
        0.5
      ]
    },
    {
      "bufferView": 16,
      "componentType": 5126,
      "count": 24,
      "type": "VEC3"
    },
    {
      "bufferView": 17,
      "componentType": 5123,
      "count": 36,
      "type": "SCALAR",
      "normalized": false
    },
    {
      "bufferView": 18,
      "componentType": 5126,
      "count": 24,
      "type": "VEC3",
      "min": [
        -1.4,
        -1.25,
        -0.12
      ],
      "max": [
        1.4,
        1.25,
        0.12
      ]
    },
    {
      "bufferView": 19,
      "componentType": 5126,
      "count": 24,
      "type": "VEC3"
    },
    {
      "bufferView": 20,
      "componentType": 5123,
      "count": 36,
      "type": "SCALAR",
      "normalized": false
    },
    {
      "bufferView": 21,
      "componentType": 5126,
      "count": 24,
      "type": "VEC3",
      "min": [
        -0.95,
        -0.16,
        -0.425
      ],
      "max": [
        0.95,
        0.16,
        0.425
      ]
    },
    {
      "bufferView": 22,
      "componentType": 5126,
      "count": 24,
      "type": "VEC3"
    },
    {
      "bufferView": 23,
      "componentType": 5123,
      "count": 36,
      "type": "SCALAR",
      "normalized": false
    },
    {
      "bufferView": 24,
      "componentType": 5126,
      "count": 34,
      "type": "VEC3",
      "min": [
        -0.13,
        -3.0,
        -0.13
      ],
      "max": [
        0.13,
        3.0,
        0.13
      ]
    },
    {
      "bufferView": 25,
      "componentType": 5126,
      "count": 34,
      "type": "VEC3"
    },
    {
      "bufferView": 26,
      "componentType": 5123,
      "count": 192,
      "type": "SCALAR",
      "normalized": false
    },
    {
      "bufferView": 27,
      "componentType": 5126,
      "count": 300,
      "type": "VEC3",
      "min": [
        -0.26,
        -0.26,
        -0.26
      ],
      "max": [
        0.26,
        0.26,
        0.26
      ]
    },
    {
      "bufferView": 28,
      "componentType": 5126,
      "count": 300,
      "type": "VEC3"
    },
    {
      "bufferView": 29,
      "componentType": 5123,
      "count": 1680,
      "type": "SCALAR",
      "normalized": false
    },
    {
      "bufferView": 30,
      "componentType": 5126,
      "count": 24,
      "type": "VEC3",
      "min": [
        -1.2,
        -0.775,
        -0.04
      ],
      "max": [
        1.2,
        0.775,
        0.04
      ]
    },
    {
      "bufferView": 31,
      "componentType": 5126,
      "count": 24,
      "type": "VEC3"
    },
    {
      "bufferView": 32,
      "componentType": 5123,
      "count": 36,
      "type": "SCALAR",
      "normalized": false
    },
    {
      "bufferView": 33,
      "componentType": 5126,
      "count": 300,
      "type": "VEC3",
      "min": [
        -0.46,
        -0.46,
        -0.46
      ],
      "max": [
        0.46,
        0.46,
        0.46
      ]
    },
    {
      "bufferView": 34,
      "componentType": 5126,
      "count": 300,
      "type": "VEC3"
    },
    {
      "bufferView": 35,
      "componentType": 5123,
      "count": 1680,
      "type": "SCALAR",
      "normalized": false
    },
    {
      "bufferView": 36,
      "componentType": 5126,
      "count": 22,
      "type": "VEC3",
      "min": [
        -0.045,
        -2.4,
        -0.042797543233281915
      ],
      "max": [
        0.045,
        2.4,
        0.042797543233281915
      ]
    },
    {
      "bufferView": 37,
      "componentType": 5126,
      "count": 22,
      "type": "VEC3"
    },
    {
      "bufferView": 38,
      "componentType": 5123,
      "count": 120,
      "type": "SCALAR",
      "normalized": false
    },
    {
      "bufferView": 39,
      "componentType": 5126,
      "count": 24,
      "type": "VEC3",
      "min": [
        -0.35,
        -0.04,
        -0.35
      ],
      "max": [
        0.35,
        0.04,
        0.35
      ]
    },
    {
      "bufferView": 40,
      "componentType": 5126,
      "count": 24,
      "type": "VEC3"
    },
    {
      "bufferView": 41,
      "componentType": 5123,
      "count": 36,
      "type": "SCALAR",
      "normalized": false
    }
  ],
  "bufferViews": [
    {
      "buffer": 0,
      "byteOffset": 0,
      "byteLength": 288,
      "target": 34962
    },
    {
      "buffer": 0,
      "byteOffset": 288,
      "byteLength": 288,
      "target": 34962
    },
    {
      "buffer": 0,
      "byteOffset": 576,
      "byteLength": 72,
      "target": 34963
    },
    {
      "buffer": 0,
      "byteOffset": 648,
      "byteLength": 288,
      "target": 34962
    },
    {
      "buffer": 0,
      "byteOffset": 936,
      "byteLength": 288,
      "target": 34962
    },
    {
      "buffer": 0,
      "byteOffset": 1224,
      "byteLength": 72,
      "target": 34963
    },
    {
      "buffer": 0,
      "byteOffset": 1296,
      "byteLength": 288,
      "target": 34962
    },
    {
      "buffer": 0,
      "byteOffset": 1584,
      "byteLength": 288,
      "target": 34962
    },
    {
      "buffer": 0,
      "byteOffset": 1872,
      "byteLength": 72,
      "target": 34963
    },
    {
      "buffer": 0,
      "byteOffset": 1944,
      "byteLength": 600,
      "target": 34962
    },
    {
      "buffer": 0,
      "byteOffset": 2544,
      "byteLength": 600,
      "target": 34962
    },
    {
      "buffer": 0,
      "byteOffset": 3144,
      "byteLength": 576,
      "target": 34963
    },
    {
      "buffer": 0,
      "byteOffset": 3720,
      "byteLength": 600,
      "target": 34962
    },
    {
      "buffer": 0,
      "byteOffset": 4320,
      "byteLength": 600,
      "target": 34962
    },
    {
      "buffer": 0,
      "byteOffset": 4920,
      "byteLength": 576,
      "target": 34963
    },
    {
      "buffer": 0,
      "byteOffset": 5496,
      "byteLength": 288,
      "target": 34962
    },
    {
      "buffer": 0,
      "byteOffset": 5784,
      "byteLength": 288,
      "target": 34962
    },
    {
      "buffer": 0,
      "byteOffset": 6072,
      "byteLength": 72,
      "target": 34963
    },
    {
      "buffer": 0,
      "byteOffset": 6144,
      "byteLength": 288,
      "target": 34962
    },
    {
      "buffer": 0,
      "byteOffset": 6432,
      "byteLength": 288,
      "target": 34962
    },
    {
      "buffer": 0,
      "byteOffset": 6720,
      "byteLength": 72,
      "target": 34963
    },
    {
      "buffer": 0,
      "byteOffset": 6792,
      "byteLength": 288,
      "target": 34962
    },
    {
      "buffer": 0,
      "byteOffset": 7080,
      "byteLength": 288,
      "target": 34962
    },
    {
      "buffer": 0,
      "byteOffset": 7368,
      "byteLength": 72,
      "target": 34963
    },
    {
      "buffer": 0,
      "byteOffset": 7440,
      "byteLength": 408,
      "target": 34962
    },
    {
      "buffer": 0,
      "byteOffset": 7848,
      "byteLength": 408,
      "target": 34962
    },
    {
      "buffer": 0,
      "byteOffset": 8256,
      "byteLength": 384,
      "target": 34963
    },
    {
      "buffer": 0,
      "byteOffset": 8640,
      "byteLength": 3600,
      "target": 34962
    },
    {
      "buffer": 0,
      "byteOffset": 12240,
      "byteLength": 3600,
      "target": 34962
    },
    {
      "buffer": 0,
      "byteOffset": 15840,
      "byteLength": 3360,
      "target": 34963
    },
    {
      "buffer": 0,
      "byteOffset": 19200,
      "byteLength": 288,
      "target": 34962
    },
    {
      "buffer": 0,
      "byteOffset": 19488,
      "byteLength": 288,
      "target": 34962
    },
    {
      "buffer": 0,
      "byteOffset": 19776,
      "byteLength": 72,
      "target": 34963
    },
    {
      "buffer": 0,
      "byteOffset": 19848,
      "byteLength": 3600,
      "target": 34962
    },
    {
      "buffer": 0,
      "byteOffset": 23448,
      "byteLength": 3600,
      "target": 34962
    },
    {
      "buffer": 0,
      "byteOffset": 27048,
      "byteLength": 3360,
      "target": 34963
    },
    {
      "buffer": 0,
      "byteOffset": 30408,
      "byteLength": 264,
      "target": 34962
    },
    {
      "buffer": 0,
      "byteOffset": 30672,
      "byteLength": 264,
      "target": 34962
    },
    {
      "buffer": 0,
      "byteOffset": 30936,
      "byteLength": 240,
      "target": 34963
    },
    {
      "buffer": 0,
      "byteOffset": 31176,
      "byteLength": 288,
      "target": 34962
    },
    {
      "buffer": 0,
      "byteOffset": 31464,
      "byteLength": 288,
      "target": 34962
    },
    {
      "buffer": 0,
      "byteOffset": 31752,
      "byteLength": 72,
      "target": 34963
    }
  ],
  "buffers": [
    {
      "byteLength": 31824,
      "uri": "data:application/octet-stream;base64,"
    }
  ],
  "extras": {
    "ironwright_asset_id": "archive.north_ruins.v1",
    "required_nodes": [
      "ArchiveModel",
      "ArchiveCivicFacade",
      "ArchiveVaultDoor",
      "ArchiveRoofBeacon",
      "ArchiveStack0",
      "ArchiveOrganicCreep0",
      "ProductionAssetMarker"
    ]
  }
}
