{
  "asset": {
    "version": "2.0",
    "generator": "Project Ironwright original Miremaw asset builder"
  },
  "scene": 0,
  "scenes": [
    {
      "name": "Miremaw",
      "nodes": [
        0
      ]
    }
  ],
  "nodes": [
    {
      "name": "MiremawModel",
      "children": [
        1,
        27,
        28,
        29,
        30,
        31,
        32,
        33,
        34,
        35,
        36,
        37,
        38,
        39,
        40,
        41,
        42,
        43,
        44,
        45,
        46
      ],
      "extras": {
        "ironwright_asset_id": "miremaw.amphibious.v1",
        "asset_quality": "authored_high_definition",
        "socket_contract": "maw, gill_fan, water_fins, jaw_hooks"
      }
    },
    {
      "name": "Torso",
      "translation": [
        0.0,
        0.0,
        0.0
      ],
      "extras": {
        "surface": "layered_wet_chitin"
      },
      "children": [
        2,
        3,
        4,
        5,
        6,
        7,
        8,
        9,
        10,
        11,
        12,
        13,
        14,
        15,
        16,
        17,
        18,
        19,
        20,
        21,
        22,
        23,
        24,
        25,
        26
      ]
    },
    {
      "name": "TorsoCore",
      "translation": [
        0.0,
        0.92,
        0.08
      ],
      "mesh": 0,
      "scale": [
        1.45,
        0.76,
        1.34
      ],
      "extras": {
        "release_material_family": "chitin"
      }
    },
    {
      "name": "TorsoSegment0",
      "translation": [
        0.0,
        0.89,
        -0.62
      ],
      "mesh": 1,
      "scale": [
        1.28,
        0.66,
        1.1
      ]
    },
    {
      "name": "MiremawThoraxRib",
      "translation": [
        0.0,
        1.35,
        -0.62
      ],
      "mesh": 3,
      "rotation": [
        0.0,
        0.0,
        -0.01499943750632809,
        0.9998875021093592
      ],
      "scale": [
        1.0,
        1.0,
        0.84
      ]
    },
    {
      "name": "ThoraxFastener",
      "translation": [
        -0.56,
        1.18,
        -0.62
      ],
      "mesh": 11
    },
    {
      "name": "ThoraxFastener",
      "translation": [
        0.56,
        1.18,
        -0.62
      ],
      "mesh": 11
    },
    {
      "name": "MiremawTorsoSurfaceVein0L",
      "translation": [
        -0.31,
        1.19,
        -1.1600000000000001
      ],
      "mesh": 13,
      "rotation": [
        0.0,
        0.0,
        -0.03998933418663416,
        0.9992001066609779
      ],
      "scale": [
        1.0,
        1.0,
        0.72
      ],
      "extras": {
        "surface": "vascular_surface_detail"
      }
    },
    {
      "name": "MiremawTorsoSurfaceVein0R",
      "translation": [
        0.31,
        1.19,
        -1.1600000000000001
      ],
      "mesh": 13,
      "rotation": [
        0.0,
        0.0,
        0.03998933418663416,
        0.9992001066609779
      ],
      "scale": [
        1.0,
        1.0,
        0.72
      ],
      "extras": {
        "surface": "vascular_surface_detail"
      }
    },
    {
      "name": "TorsoSegment1",
      "translation": [
        0.0,
        0.866,
        -0.19
      ],
      "mesh": 1,
      "scale": [
        1.2550000000000001,
        0.66,
        1.08
      ]
    },
    {
      "name": "MiremawThoraxRib",
      "translation": [
        0.0,
        1.3050000000000002,
        -0.19
      ],
      "mesh": 3,
      "scale": [
        1.0,
        1.0,
        0.84
      ],
      "extras": {
        "surface": "layered_shell_break"
      }
    },
    {
      "name": "ThoraxFastener",
      "translation": [
        -0.56,
        1.18,
        -0.19
      ],
      "mesh": 11
    },
    {
      "name": "ThoraxFastener",
      "translation": [
        0.56,
        1.18,
        -0.19
      ],
      "mesh": 11
    },
    {
      "name": "MiremawTorsoSurfaceVein1L",
      "translation": [
        -0.31,
        1.19,
        -0.73
      ],
      "mesh": 13,
      "rotation": [
        0.0,
        0.0,
        -0.03998933418663416,
        0.9992001066609779
      ],
      "scale": [
        1.0,
        1.0,
        0.72
      ],
      "extras": {
        "surface": "vascular_surface_detail"
      }
    },
    {
      "name": "MiremawTorsoSurfaceVein1R",
      "translation": [
        0.31,
        1.19,
        -0.73
      ],
      "mesh": 13,
      "rotation": [
        0.0,
        0.0,
        0.03998933418663416,
        0.9992001066609779
      ],
      "scale": [
        1.0,
        1.0,
        0.72
      ],
      "extras": {
        "surface": "vascular_surface_detail"
      }
    },
    {
      "name": "TorsoSegment2",
      "translation": [
        0.0,
        0.842,
        0.24
      ],
      "mesh": 1,
      "scale": [
        1.23,
        0.66,
        1.06
      ]
    },
    {
      "name": "MiremawThoraxRib",
      "translation": [
        0.0,
        1.26,
        0.24
      ],
      "mesh": 3,
      "rotation": [
        0.0,
        0.0,
        0.01499943750632809,
        0.9998875021093592
      ],
      "scale": [
        1.0,
        1.0,
        0.84
      ]
    },
    {
      "name": "ThoraxFastener",
      "translation": [
        -0.56,
        1.18,
        0.24
      ],
      "mesh": 11
    },
    {
      "name": "ThoraxFastener",
      "translation": [
        0.56,
        1.18,
        0.24
      ],
      "mesh": 11
    },
    {
      "name": "MiremawTorsoSurfaceVein2L",
      "translation": [
        -0.31,
        1.19,
        -0.30000000000000004
      ],
      "mesh": 13,
      "rotation": [
        0.0,
        0.0,
        -0.03998933418663416,
        0.9992001066609779
      ],
      "scale": [
        1.0,
        1.0,
        0.72
      ],
      "extras": {
        "surface": "vascular_surface_detail"
      }
    },
    {
      "name": "MiremawTorsoSurfaceVein2R",
      "translation": [
        0.31,
        1.19,
        -0.30000000000000004
      ],
      "mesh": 13,
      "rotation": [
        0.0,
        0.0,
        0.03998933418663416,
        0.9992001066609779
      ],
      "scale": [
        1.0,
        1.0,
        0.72
      ],
      "extras": {
        "surface": "vascular_surface_detail"
      }
    },
    {
      "name": "TorsoSegment3",
      "translation": [
        0.0,
        0.8180000000000001,
        0.67
      ],
      "mesh": 1,
      "scale": [
        1.205,
        0.66,
        1.04
      ]
    },
    {
      "name": "MiremawThoraxRib",
      "translation": [
        0.0,
        1.215,
        0.67
      ],
      "mesh": 3,
      "rotation": [
        0.0,
        0.0,
        0.02999550020249566,
        0.9995500337489875
      ],
      "scale": [
        1.0,
        1.0,
        0.84
      ]
    },
    {
      "name": "ThoraxFastener",
      "translation": [
        -0.56,
        1.18,
        0.67
      ],
      "mesh": 11
    },
    {
      "name": "ThoraxFastener",
      "translation": [
        0.56,
        1.18,
        0.67
      ],
      "mesh": 11
    },
    {
      "name": "MiremawTorsoSurfaceVein3L",
      "translation": [
        -0.31,
        1.19,
        0.13
      ],
      "mesh": 13,
      "rotation": [
        0.0,
        0.0,
        -0.03998933418663416,
        0.9992001066609779
      ],
      "scale": [
        1.0,
        1.0,
        0.72
      ],
      "extras": {
        "surface": "vascular_surface_detail"
      }
    },
    {
      "name": "MiremawTorsoSurfaceVein3R",
      "translation": [
        0.31,
        1.19,
        0.13
      ],
      "mesh": 13,
      "rotation": [
        0.0,
        0.0,
        0.03998933418663416,
        0.9992001066609779
      ],
      "scale": [
        1.0,
        1.0,
        0.72
      ],
      "extras": {
        "surface": "vascular_surface_detail"
      }
    },
    {
      "name": "OrganicDorsalPlate",
      "translation": [
        -0.12,
        1.54,
        0.18
      ],
      "mesh": 3,
      "rotation": [
        0.0,
        0.0,
        -0.01999866669333308,
        0.9998000066665778
      ],
      "scale": [
        1.08,
        1.0,
        1.4
      ],
      "extras": {
        "surface": "beveled_layered_shell_break"
      }
    },
    {
      "name": "MiremawHead",
      "translation": [
        0.0,
        0.78,
        -1.18
      ],
      "mesh": 10,
      "scale": [
        1.3,
        0.8,
        1.2
      ],
      "extras": {
        "socket_type": "maw"
      }
    },
    {
      "name": "MiremawHeadRidge0",
      "translation": [
        -0.42,
        1.15,
        -1.5
      ],
      "mesh": 14,
      "rotation": [
        -0.005986411642675496,
        -0.09965377040044007,
        -0.059664436213805905,
        0.9932136950183025
      ],
      "scale": [
        0.62,
        1.0,
        0.72
      ],
      "extras": {
        "surface": "head_ridge"
      }
    },
    {
      "name": "MiremawHeadRidge1",
      "translation": [
        0.42,
        1.15,
        -1.5
      ],
      "mesh": 14,
      "rotation": [
        -0.005986411642675496,
        0.09965377040044007,
        0.059664436213805905,
        0.9932136950183025
      ],
      "scale": [
        0.62,
        1.0,
        0.72
      ],
      "extras": {
        "surface": "head_ridge"
      }
    },
    {
      "name": "MiremawGillFan",
      "translation": [
        0.0,
        1.25,
        0.35
      ],
      "mesh": 4,
      "rotation": [
        0.0,
        0.0,
        0.7071080798594735,
        0.7071054825112363
      ],
      "scale": [
        0.72,
        1.0,
        0.78
      ],
      "extras": {
        "socket_type": "gill_fan"
      }
    },
    {
      "name": "MiremawJawHookL",
      "translation": [
        -0.42,
        0.55,
        -1.62
      ],
      "mesh": 7,
      "rotation": [
        -0.35084848540003066,
        0.031661897006606786,
        -0.08411704871119953,
        0.9321089993592837
      ],
      "extras": {
        "socket_type": "jaw_hook"
      }
    },
    {
      "name": "MiremawJawPlateL",
      "translation": [
        -0.44,
        0.68,
        -1.42
      ],
      "mesh": 22,
      "rotation": [
        -0.178707416858027,
        0.010735330500918324,
        -0.058995209569107615,
        0.982073305352948
      ],
      "scale": [
        0.82,
        1.0,
        0.76
      ],
      "extras": {
        "surface": "jaw_plate"
      }
    },
    {
      "name": "MiremawWaterFinL",
      "translation": [
        -1.08,
        0.68,
        0.18
      ],
      "mesh": 4,
      "rotation": [
        -0.10432992965446337,
        -0.1347817068738144,
        -0.053320175472208006,
        0.9839238365636279
      ],
      "scale": [
        0.62,
        0.84,
        1.1
      ],
      "extras": {
        "socket_type": "water_fin"
      }
    },
    {
      "name": "MiremawGillSpineL",
      "translation": [
        -0.62,
        1.3,
        0.38
      ],
      "mesh": 19,
      "rotation": [
        -0.015318806019171368,
        -0.1386997297285093,
        -0.10870422952601363,
        0.9842312277298161
      ],
      "scale": [
        0.78,
        1.0,
        0.82
      ],
      "extras": {
        "surface": "gill_spine"
      }
    },
    {
      "name": "MiremawFinRayL",
      "translation": [
        -1.18,
        0.72,
        0.18
      ],
      "mesh": 18,
      "rotation": [
        -0.1379129560799039,
        -0.13039444474572304,
        -0.1546984959009408,
        0.9695595292145519
      ],
      "scale": [
        0.62,
        1.0,
        0.9
      ],
      "extras": {
        "surface": "water_fin_ray"
      }
    },
    {
      "name": "MiremawGillRidgeL",
      "translation": [
        -0.48,
        1.28,
        0.38
      ],
      "mesh": 14,
      "rotation": [
        -0.004389961158618644,
        -0.10969048990556599,
        -0.03974764256803323,
        0.9931610390946609
      ],
      "scale": [
        0.72,
        1.0,
        0.62
      ],
      "extras": {
        "surface": "gill_ridge"
      }
    },
    {
      "name": "MiremawEyeL",
      "translation": [
        -0.26,
        1.24,
        -1.62
      ],
      "mesh": 9,
      "extras": {
        "socket_type": "threat_eye"
      }
    },
    {
      "name": "MiremawJawHookR",
      "translation": [
        0.42,
        0.55,
        -1.62
      ],
      "mesh": 7,
      "rotation": [
        0.35084848540003066,
        0.031661897006606786,
        0.08411704871119953,
        0.9321089993592837
      ],
      "extras": {
        "socket_type": "jaw_hook"
      }
    },
    {
      "name": "MiremawJawPlateR",
      "translation": [
        0.44,
        0.68,
        -1.42
      ],
      "mesh": 22,
      "rotation": [
        0.178707416858027,
        0.010735330500918324,
        0.058995209569107615,
        0.982073305352948
      ],
      "scale": [
        0.82,
        1.0,
        0.76
      ],
      "extras": {
        "surface": "jaw_plate"
      }
    },
    {
      "name": "MiremawWaterFinR",
      "translation": [
        1.08,
        0.68,
        0.18
      ],
      "mesh": 4,
      "rotation": [
        0.09322521304053773,
        0.14268812979035944,
        0.025480330396904602,
        0.985038024663688
      ],
      "scale": [
        0.62,
        0.84,
        1.1
      ],
      "extras": {
        "socket_type": "water_fin"
      }
    },
    {
      "name": "MiremawGillSpineR",
      "translation": [
        0.62,
        1.3,
        0.38
      ],
      "mesh": 19,
      "rotation": [
        -0.015318806019171368,
        0.1386997297285093,
        0.10870422952601363,
        0.9842312277298161
      ],
      "scale": [
        0.78,
        1.0,
        0.82
      ],
      "extras": {
        "surface": "gill_spine"
      }
    },
    {
      "name": "MiremawFinRayR",
      "translation": [
        1.18,
        0.72,
        0.18
      ],
      "mesh": 18,
      "rotation": [
        0.09650675510724437,
        0.16342931467124644,
        0.11926942173350862,
        0.9745522614842733
      ],
      "scale": [
        0.62,
        1.0,
        0.9
      ],
      "extras": {
        "surface": "water_fin_ray"
      }
    },
    {
      "name": "MiremawGillRidgeR",
      "translation": [
        0.48,
        1.28,
        0.38
      ],
      "mesh": 14,
      "rotation": [
        -0.004389961158618644,
        0.10969048990556599,
        0.03974764256803323,
        0.9931610390946609
      ],
      "scale": [
        0.72,
        1.0,
        0.62
      ],
      "extras": {
        "surface": "gill_ridge"
      }
    },
    {
      "name": "MiremawEyeR",
      "translation": [
        0.26,
        1.24,
        -1.62
      ],
      "mesh": 9,
      "extras": {
        "socket_type": "threat_eye"
      }
    },
    {
      "name": "ProductionAssetMarker",
      "translation": [
        0.0,
        0.0,
        0.0
      ],
      "extras": {
        "asset_contract": "miremaw.amphibious.v1",
        "source": "original_shared_mesh_builder"
      }
    }
  ],
  "meshes": [
    {
      "name": "Core",
      "primitives": [
        {
          "attributes": {
            "POSITION": 0,
            "NORMAL": 1
          },
          "indices": 2,
          "material": 0
        }
      ]
    },
    {
      "name": "Segment",
      "primitives": [
        {
          "attributes": {
            "POSITION": 3,
            "NORMAL": 4
          },
          "indices": 5,
          "material": 1
        }
      ]
    },
    {
      "name": "Plate",
      "primitives": [
        {
          "attributes": {
            "POSITION": 6,
            "NORMAL": 7
          },
          "indices": 8,
          "material": 1
        }
      ]
    },
    {
      "name": "ShellPlate",
      "primitives": [
        {
          "attributes": {
            "POSITION": 9,
            "NORMAL": 10
          },
          "indices": 11,
          "material": 1
        }
      ]
    },
    {
      "name": "Membrane",
      "primitives": [
        {
          "attributes": {
            "POSITION": 12,
            "NORMAL": 13
          },
          "indices": 14,
          "material": 2
        }
      ]
    },
    {
      "name": "WingMembrane",
      "primitives": [
        {
          "attributes": {
            "POSITION": 15,
            "NORMAL": 16
          },
          "indices": 17,
          "material": 2
        }
      ]
    },
    {
      "name": "Bone",
      "primitives": [
        {
          "attributes": {
            "POSITION": 18,
            "NORMAL": 19
          },
          "indices": 20,
          "material": 3
        }
      ]
    },
    {
      "name": "LongBone",
      "primitives": [
        {
          "attributes": {
            "POSITION": 21,
            "NORMAL": 22
          },
          "indices": 23,
          "material": 3
        }
      ]
    },
    {
      "name": "Tendon",
      "primitives": [
        {
          "attributes": {
            "POSITION": 24,
            "NORMAL": 25
          },
          "indices": 26,
          "material": 5
        }
      ]
    },
    {
      "name": "Eye",
      "primitives": [
        {
          "attributes": {
            "POSITION": 27,
            "NORMAL": 28
          },
          "indices": 29,
          "material": 4
        }
      ]
    },
    {
      "name": "Soft",
      "primitives": [
        {
          "attributes": {
            "POSITION": 30,
            "NORMAL": 31
          },
          "indices": 32,
          "material": 2
        }
      ]
    },
    {
      "name": "Fastener",
      "primitives": [
        {
          "attributes": {
            "POSITION": 33,
            "NORMAL": 34
          },
          "indices": 35,
          "material": 3
        }
      ]
    },
    {
      "name": "FineVein",
      "primitives": [
        {
          "attributes": {
            "POSITION": 36,
            "NORMAL": 37
          },
          "indices": 38,
          "material": 3
        }
      ]
    },
    {
      "name": "SurfaceVein",
      "primitives": [
        {
          "attributes": {
            "POSITION": 39,
            "NORMAL": 40
          },
          "indices": 41,
          "material": 5
        }
      ]
    },
    {
      "name": "Ridge",
      "primitives": [
        {
          "attributes": {
            "POSITION": 42,
            "NORMAL": 43
          },
          "indices": 44,
          "material": 3
        }
      ]
    },
    {
      "name": "ResonatorRing",
      "primitives": [
        {
          "attributes": {
            "POSITION": 45,
            "NORMAL": 46
          },
          "indices": 47,
          "material": 3
        }
      ]
    },
    {
      "name": "RootKnuckle",
      "primitives": [
        {
          "attributes": {
            "POSITION": 48,
            "NORMAL": 49
          },
          "indices": 50,
          "material": 3
        }
      ]
    },
    {
      "name": "WingFrame",
      "primitives": [
        {
          "attributes": {
            "POSITION": 51,
            "NORMAL": 52
          },
          "indices": 53,
          "material": 3
        }
      ]
    },
    {
      "name": "MembraneRib",
      "primitives": [
        {
          "attributes": {
            "POSITION": 54,
            "NORMAL": 55
          },
          "indices": 56,
          "material": 3
        }
      ]
    },
    {
      "name": "GillSpine",
      "primitives": [
        {
          "attributes": {
            "POSITION": 57,
            "NORMAL": 58
          },
          "indices": 59,
          "material": 3
        }
      ]
    },
    {
      "name": "BellRib",
      "primitives": [
        {
          "attributes": {
            "POSITION": 60,
            "NORMAL": 61
          },
          "indices": 62,
          "material": 3
        }
      ]
    },
    {
      "name": "RootSpine",
      "primitives": [
        {
          "attributes": {
            "POSITION": 63,
            "NORMAL": 64
          },
          "indices": 65,
          "material": 3
        }
      ]
    },
    {
      "name": "PlateCap",
      "primitives": [
        {
          "attributes": {
            "POSITION": 66,
            "NORMAL": 67
          },
          "indices": 68,
          "material": 3
        }
      ]
    },
    {
      "name": "CrownFastener",
      "primitives": [
        {
          "attributes": {
            "POSITION": 69,
            "NORMAL": 70
          },
          "indices": 71,
          "material": 3
        }
      ]
    }
  ],
  "materials": [
    {
      "name": "Miremaw wet shell",
      "pbrMetallicRoughness": {
        "baseColorFactor": [
          0.035,
          0.065,
          0.045,
          1.0
        ],
        "metallicFactor": 0.18,
        "roughnessFactor": 0.32
      }
    },
    {
      "name": "Miremaw layered plate",
      "pbrMetallicRoughness": {
        "baseColorFactor": [
          0.22,
          0.28,
          0.18,
          1.0
        ],
        "metallicFactor": 0.14,
        "roughnessFactor": 0.42
      }
    },
    {
      "name": "Miremaw membrane",
      "pbrMetallicRoughness": {
        "baseColorFactor": [
          0.155,
          0.0434,
          0.027899999999999998,
          1.0
        ],
        "metallicFactor": 0.02,
        "roughnessFactor": 0.58
      }
    },
    {
      "name": "Miremaw bone",
      "pbrMetallicRoughness": {
        "baseColorFactor": [
          0.52,
          0.44,
          0.29,
          1.0
        ],
        "metallicFactor": 0.0,
        "roughnessFactor": 0.62
      }
    },
    {
      "name": "Miremaw threat light",
      "pbrMetallicRoughness": {
        "baseColorFactor": [
          0.82,
          0.32,
          0.05,
          1.0
        ],
        "metallicFactor": 0.0,
        "roughnessFactor": 0.22
      },
      "emissiveFactor": [
        1.0,
        0.18,
        0.04
      ]
    },
    {
      "name": "Miremaw tendon",
      "pbrMetallicRoughness": {
        "baseColorFactor": [
          0.28,
          0.12,
          0.075,
          1.0
        ],
        "metallicFactor": 0.0,
        "roughnessFactor": 0.55
      }
    }
  ],
  "accessors": [
    {
      "bufferView": 0,
      "componentType": 5126,
      "count": 900,
      "type": "VEC3",
      "min": [
        -0.62,
        -0.62,
        -0.62
      ],
      "max": [
        0.62,
        0.62,
        0.62
      ]
    },
    {
      "bufferView": 1,
      "componentType": 5126,
      "count": 900,
      "type": "VEC3"
    },
    {
      "bufferView": 2,
      "componentType": 5123,
      "count": 5184,
      "type": "SCALAR",
      "normalized": false
    },
    {
      "bufferView": 3,
      "componentType": 5126,
      "count": 900,
      "type": "VEC3",
      "min": [
        -0.48,
        -0.48,
        -0.48
      ],
      "max": [
        0.48,
        0.48,
        0.48
      ]
    },
    {
      "bufferView": 4,
      "componentType": 5126,
      "count": 900,
      "type": "VEC3"
    },
    {
      "bufferView": 5,
      "componentType": 5123,
      "count": 5184,
      "type": "SCALAR",
      "normalized": false
    },
    {
      "bufferView": 6,
      "componentType": 5126,
      "count": 290,
      "type": "VEC3",
      "min": [
        -0.76,
        -0.08,
        -0.14
      ],
      "max": [
        0.76,
        0.08,
        0.14
      ]
    },
    {
      "bufferView": 7,
      "componentType": 5126,
      "count": 290,
      "type": "VEC3"
    },
    {
      "bufferView": 8,
      "componentType": 5123,
      "count": 1440,
      "type": "SCALAR",
      "normalized": false
    },
    {
      "bufferView": 9,
      "componentType": 5126,
      "count": 802,
      "type": "VEC3",
      "min": [
        -0.44839999999999997,
        -0.16122784395093326,
        -0.192
      ],
      "max": [
        0.44839999999999997,
        0.16122784395093326,
        0.15
      ]
    },
    {
      "bufferView": 10,
      "componentType": 5126,
      "count": 802,
      "type": "VEC3"
    },
    {
      "bufferView": 11,
      "componentType": 5123,
      "count": 4320,
      "type": "SCALAR",
      "normalized": false
    },
    {
      "bufferView": 12,
      "componentType": 5126,
      "count": 1682,
      "type": "VEC3",
      "min": [
        -0.7875,
        -0.4489791428571428,
        -0.8856000000000002
      ],
      "max": [
        0.7875,
        0.4489791428571428,
        0.54
      ]
    },
    {
      "bufferView": 13,
      "componentType": 5126,
      "count": 1682,
      "type": "VEC3"
    },
    {
      "bufferView": 14,
      "componentType": 5123,
      "count": 9408,
      "type": "SCALAR",
      "normalized": false
    },
    {
      "bufferView": 15,
      "componentType": 5126,
      "count": 1458,
      "type": "VEC3",
      "min": [
        -0.7866000000000001,
        -0.2053875,
        -0.8249040000000002
      ],
      "max": [
        0.6135480000000001,
        0.2053875,
        0.6156000000000001
      ]
    },
    {
      "bufferView": 16,
      "componentType": 5126,
      "count": 1458,
      "type": "VEC3"
    },
    {
      "bufferView": 17,
      "componentType": 5123,
      "count": 8064,
      "type": "SCALAR",
      "normalized": false
    },
    {
      "bufferView": 18,
      "componentType": 5126,
      "count": 336,
      "type": "VEC3",
      "min": [
        -0.09,
        -0.42999999999999994,
        -0.09
      ],
      "max": [
        0.09,
        0.42999999999999994,
        0.09
      ]
    },
    {
      "bufferView": 19,
      "componentType": 5126,
      "count": 336,
      "type": "VEC3"
    },
    {
      "bufferView": 20,
      "componentType": 5123,
      "count": 1872,
      "type": "SCALAR",
      "normalized": false
    },
    {
      "bufferView": 21,
      "componentType": 5126,
      "count": 336,
      "type": "VEC3",
      "min": [
        -0.065,
        -0.675,
        -0.065
      ],
      "max": [
        0.065,
        0.675,
        0.065
      ]
    },
    {
      "bufferView": 22,
      "componentType": 5126,
      "count": 336,
      "type": "VEC3"
    },
    {
      "bufferView": 23,
      "componentType": 5123,
      "count": 1872,
      "type": "SCALAR",
      "normalized": false
    },
    {
      "bufferView": 24,
      "componentType": 5126,
      "count": 336,
      "type": "VEC3",
      "min": [
        -0.07,
        -0.575,
        -0.07
      ],
      "max": [
        0.07,
        0.575,
        0.07
      ]
    },
    {
      "bufferView": 25,
      "componentType": 5126,
      "count": 336,
      "type": "VEC3"
    },
    {
      "bufferView": 26,
      "componentType": 5123,
      "count": 1872,
      "type": "SCALAR",
      "normalized": false
    },
    {
      "bufferView": 27,
      "componentType": 5126,
      "count": 900,
      "type": "VEC3",
      "min": [
        -0.095,
        -0.095,
        -0.095
      ],
      "max": [
        0.095,
        0.095,
        0.095
      ]
    },
    {
      "bufferView": 28,
      "componentType": 5126,
      "count": 900,
      "type": "VEC3"
    },
    {
      "bufferView": 29,
      "componentType": 5123,
      "count": 5184,
      "type": "SCALAR",
      "normalized": false
    },
    {
      "bufferView": 30,
      "componentType": 5126,
      "count": 900,
      "type": "VEC3",
      "min": [
        -0.34,
        -0.34,
        -0.34
      ],
      "max": [
        0.34,
        0.34,
        0.34
      ]
    },
    {
      "bufferView": 31,
      "componentType": 5126,
      "count": 900,
      "type": "VEC3"
    },
    {
      "bufferView": 32,
      "componentType": 5123,
      "count": 5184,
      "type": "SCALAR",
      "normalized": false
    },
    {
      "bufferView": 33,
      "componentType": 5126,
      "count": 900,
      "type": "VEC3",
      "min": [
        -0.045,
        -0.045,
        -0.045
      ],
      "max": [
        0.045,
        0.045,
        0.045
      ]
    },
    {
      "bufferView": 34,
      "componentType": 5126,
      "count": 900,
      "type": "VEC3"
    },
    {
      "bufferView": 35,
      "componentType": 5123,
      "count": 5184,
      "type": "SCALAR",
      "normalized": false
    },
    {
      "bufferView": 36,
      "componentType": 5126,
      "count": 336,
      "type": "VEC3",
      "min": [
        -0.026,
        -0.61,
        -0.026
      ],
      "max": [
        0.026,
        0.61,
        0.026
      ]
    },
    {
      "bufferView": 37,
      "componentType": 5126,
      "count": 336,
      "type": "VEC3"
    },
    {
      "bufferView": 38,
      "componentType": 5123,
      "count": 1872,
      "type": "SCALAR",
      "normalized": false
    },
    {
      "bufferView": 39,
      "componentType": 5126,
      "count": 336,
      "type": "VEC3",
      "min": [
        -0.024,
        -0.44,
        -0.024
      ],
      "max": [
        0.024,
        0.44,
        0.024
      ]
    },
    {
      "bufferView": 40,
      "componentType": 5126,
      "count": 336,
      "type": "VEC3"
    },
    {
      "bufferView": 41,
      "componentType": 5123,
      "count": 1872,
      "type": "SCALAR",
      "normalized": false
    },
    {
      "bufferView": 42,
      "componentType": 5126,
      "count": 96,
      "type": "VEC3",
      "min": [
        -0.62,
        -0.035,
        -0.05
      ],
      "max": [
        0.62,
        0.035,
        0.05
      ]
    },
    {
      "bufferView": 43,
      "componentType": 5126,
      "count": 96,
      "type": "VEC3"
    },
    {
      "bufferView": 44,
      "componentType": 5123,
      "count": 132,
      "type": "SCALAR",
      "normalized": false
    },
    {
      "bufferView": 45,
      "componentType": 5126,
      "count": 360,
      "type": "VEC3",
      "min": [
        -0.225,
        -0.03328697807033038,
        -0.225
      ],
      "max": [
        0.225,
        0.03328697807033038,
        0.225
      ]
    },
    {
      "bufferView": 46,
      "componentType": 5126,
      "count": 360,
      "type": "VEC3"
    },
    {
      "bufferView": 47,
      "componentType": 5123,
      "count": 2160,
      "type": "SCALAR",
      "normalized": false
    },
    {
      "bufferView": 48,
      "componentType": 5126,
      "count": 900,
      "type": "VEC3",
      "min": [
        -0.14,
        -0.14,
        -0.14
      ],
      "max": [
        0.14,
        0.14,
        0.14
      ]
    },
    {
      "bufferView": 49,
      "componentType": 5126,
      "count": 900,
      "type": "VEC3"
    },
    {
      "bufferView": 50,
      "componentType": 5123,
      "count": 5184,
      "type": "SCALAR",
      "normalized": false
    },
    {
      "bufferView": 51,
      "componentType": 5126,
      "count": 336,
      "type": "VEC3",
      "min": [
        -0.045,
        -0.79,
        -0.045
      ],
      "max": [
        0.045,
        0.79,
        0.045
      ]
    },
    {
      "bufferView": 52,
      "componentType": 5126,
      "count": 336,
      "type": "VEC3"
    },
    {
      "bufferView": 53,
      "componentType": 5123,
      "count": 1872,
      "type": "SCALAR",
      "normalized": false
    },
    {
      "bufferView": 54,
      "componentType": 5126,
      "count": 336,
      "type": "VEC3",
      "min": [
        -0.03,
        -0.41000000000000003,
        -0.03
      ],
      "max": [
        0.03,
        0.41000000000000003,
        0.03
      ]
    },
    {
      "bufferView": 55,
      "componentType": 5126,
      "count": 336,
      "type": "VEC3"
    },
    {
      "bufferView": 56,
      "componentType": 5123,
      "count": 1872,
      "type": "SCALAR",
      "normalized": false
    },
    {
      "bufferView": 57,
      "componentType": 5126,
      "count": 336,
      "type": "VEC3",
      "min": [
        -0.045,
        -0.39,
        -0.045
      ],
      "max": [
        0.045,
        0.39,
        0.045
      ]
    },
    {
      "bufferView": 58,
      "componentType": 5126,
      "count": 336,
      "type": "VEC3"
    },
    {
      "bufferView": 59,
      "componentType": 5123,
      "count": 1872,
      "type": "SCALAR",
      "normalized": false
    },
    {
      "bufferView": 60,
      "componentType": 5126,
      "count": 336,
      "type": "VEC3",
      "min": [
        -0.04,
        -0.46,
        -0.04
      ],
      "max": [
        0.04,
        0.46,
        0.04
      ]
    },
    {
      "bufferView": 61,
      "componentType": 5126,
      "count": 336,
      "type": "VEC3"
    },
    {
      "bufferView": 62,
      "componentType": 5123,
      "count": 1872,
      "type": "SCALAR",
      "normalized": false
    },
    {
      "bufferView": 63,
      "componentType": 5126,
      "count": 336,
      "type": "VEC3",
      "min": [
        -0.055,
        -0.71,
        -0.055
      ],
      "max": [
        0.055,
        0.71,
        0.055
      ]
    },
    {
      "bufferView": 64,
      "componentType": 5126,
      "count": 336,
      "type": "VEC3"
    },
    {
      "bufferView": 65,
      "componentType": 5123,
      "count": 1872,
      "type": "SCALAR",
      "normalized": false
    },
    {
      "bufferView": 66,
      "componentType": 5126,
      "count": 242,
      "type": "VEC3",
      "min": [
        -0.22,
        -0.05,
        -0.09
      ],
      "max": [
        0.22,
        0.05,
        0.09
      ]
    },
    {
      "bufferView": 67,
      "componentType": 5126,
      "count": 242,
      "type": "VEC3"
    },
    {
      "bufferView": 68,
      "componentType": 5123,
      "count": 1152,
      "type": "SCALAR",
      "normalized": false
    },
    {
      "bufferView": 69,
      "componentType": 5126,
      "count": 900,
      "type": "VEC3",
      "min": [
        -0.06,
        -0.06,
        -0.06
      ],
      "max": [
        0.06,
        0.06,
        0.06
      ]
    },
    {
      "bufferView": 70,
      "componentType": 5126,
      "count": 900,
      "type": "VEC3"
    },
    {
      "bufferView": 71,
      "componentType": 5123,
      "count": 5184,
      "type": "SCALAR",
      "normalized": false
    },
    {
      "bufferView": 72,
      "componentType": 5126,
      "count": 3,
      "type": "SCALAR",
      "min": [
        0.0
      ],
      "max": [
        1.6
      ]
    },
    {
      "bufferView": 73,
      "componentType": 5126,
      "count": 3,
      "type": "VEC3"
    },
    {
      "bufferView": 74,
      "componentType": 5126,
      "count": 3,
      "type": "SCALAR",
      "min": [
        0.0
      ],
      "max": [
        1.6
      ]
    },
    {
      "bufferView": 75,
      "componentType": 5126,
      "count": 3,
      "type": "VEC4"
    },
    {
      "bufferView": 76,
      "componentType": 5126,
      "count": 3,
      "type": "SCALAR",
      "min": [
        0.0
      ],
      "max": [
        1.6
      ]
    },
    {
      "bufferView": 77,
      "componentType": 5126,
      "count": 3,
      "type": "VEC4"
    },
    {
      "bufferView": 78,
      "componentType": 5126,
      "count": 3,
      "type": "SCALAR",
      "min": [
        0.0
      ],
      "max": [
        1.6
      ]
    },
    {
      "bufferView": 79,
      "componentType": 5126,
      "count": 3,
      "type": "VEC4"
    },
    {
      "bufferView": 80,
      "componentType": 5126,
      "count": 3,
      "type": "SCALAR",
      "min": [
        0.0
      ],
      "max": [
        1.6
      ]
    },
    {
      "bufferView": 81,
      "componentType": 5126,
      "count": 3,
      "type": "VEC4"
    },
    {
      "bufferView": 82,
      "componentType": 5126,
      "count": 3,
      "type": "SCALAR",
      "min": [
        0.0
      ],
      "max": [
        0.44
      ]
    },
    {
      "bufferView": 83,
      "componentType": 5126,
      "count": 3,
      "type": "VEC4"
    },
    {
      "bufferView": 84,
      "componentType": 5126,
      "count": 3,
      "type": "SCALAR",
      "min": [
        0.0
      ],
      "max": [
        0.44
      ]
    },
    {
      "bufferView": 85,
      "componentType": 5126,
      "count": 3,
      "type": "VEC4"
    },
    {
      "bufferView": 86,
      "componentType": 5126,
      "count": 3,
      "type": "SCALAR",
      "min": [
        0.0
      ],
      "max": [
        0.44
      ]
    },
    {
      "bufferView": 87,
      "componentType": 5126,
      "count": 3,
      "type": "VEC4"
    },
    {
      "bufferView": 88,
      "componentType": 5126,
      "count": 3,
      "type": "SCALAR",
      "min": [
        0.0
      ],
      "max": [
        0.44
      ]
    },
    {
      "bufferView": 89,
      "componentType": 5126,
      "count": 3,
      "type": "VEC4"
    },
    {
      "bufferView": 90,
      "componentType": 5126,
      "count": 3,
      "type": "SCALAR",
      "min": [
        0.0
      ],
      "max": [
        0.48
      ]
    },
    {
      "bufferView": 91,
      "componentType": 5126,
      "count": 3,
      "type": "VEC3"
    },
    {
      "bufferView": 92,
      "componentType": 5126,
      "count": 3,
      "type": "SCALAR",
      "min": [
        0.0
      ],
      "max": [
        0.48
      ]
    },
    {
      "bufferView": 93,
      "componentType": 5126,
      "count": 3,
      "type": "VEC4"
    },
    {
      "bufferView": 94,
      "componentType": 5126,
      "count": 3,
      "type": "SCALAR",
      "min": [
        0.0
      ],
      "max": [
        0.48
      ]
    },
    {
      "bufferView": 95,
      "componentType": 5126,
      "count": 3,
      "type": "VEC4"
    },
    {
      "bufferView": 96,
      "componentType": 5126,
      "count": 3,
      "type": "SCALAR",
      "min": [
        0.0
      ],
      "max": [
        0.48
      ]
    },
    {
      "bufferView": 97,
      "componentType": 5126,
      "count": 3,
      "type": "VEC4"
    },
    {
      "bufferView": 98,
      "componentType": 5126,
      "count": 3,
      "type": "SCALAR",
      "min": [
        0.0
      ],
      "max": [
        0.48
      ]
    },
    {
      "bufferView": 99,
      "componentType": 5126,
      "count": 3,
      "type": "VEC4"
    },
    {
      "bufferView": 100,
      "componentType": 5126,
      "count": 3,
      "type": "SCALAR",
      "min": [
        0.0
      ],
      "max": [
        0.48
      ]
    },
    {
      "bufferView": 101,
      "componentType": 5126,
      "count": 3,
      "type": "VEC4"
    },
    {
      "bufferView": 102,
      "componentType": 5126,
      "count": 3,
      "type": "SCALAR",
      "min": [
        0.0
      ],
      "max": [
        0.24
      ]
    },
    {
      "bufferView": 103,
      "componentType": 5126,
      "count": 3,
      "type": "VEC3"
    },
    {
      "bufferView": 104,
      "componentType": 5126,
      "count": 3,
      "type": "SCALAR",
      "min": [
        0.0
      ],
      "max": [
        0.24
      ]
    },
    {
      "bufferView": 105,
      "componentType": 5126,
      "count": 3,
      "type": "VEC4"
    },
    {
      "bufferView": 106,
      "componentType": 5126,
      "count": 3,
      "type": "SCALAR",
      "min": [
        0.0
      ],
      "max": [
        0.6
      ]
    },
    {
      "bufferView": 107,
      "componentType": 5126,
      "count": 3,
      "type": "VEC3"
    },
    {
      "bufferView": 108,
      "componentType": 5126,
      "count": 3,
      "type": "SCALAR",
      "min": [
        0.0
      ],
      "max": [
        0.6
      ]
    },
    {
      "bufferView": 109,
      "componentType": 5126,
      "count": 3,
      "type": "VEC4"
    },
    {
      "bufferView": 110,
      "componentType": 5126,
      "count": 3,
      "type": "SCALAR",
      "min": [
        0.0
      ],
      "max": [
        0.6
      ]
    },
    {
      "bufferView": 111,
      "componentType": 5126,
      "count": 3,
      "type": "VEC4"
    },
    {
      "bufferView": 112,
      "componentType": 5126,
      "count": 3,
      "type": "SCALAR",
      "min": [
        0.0
      ],
      "max": [
        0.6
      ]
    },
    {
      "bufferView": 113,
      "componentType": 5126,
      "count": 3,
      "type": "VEC4"
    },
    {
      "bufferView": 114,
      "componentType": 5126,
      "count": 3,
      "type": "SCALAR",
      "min": [
        0.0
      ],
      "max": [
        0.6
      ]
    },
    {
      "bufferView": 115,
      "componentType": 5126,
      "count": 3,
      "type": "VEC4"
    },
    {
      "bufferView": 116,
      "componentType": 5126,
      "count": 3,
      "type": "SCALAR",
      "min": [
        0.0
      ],
      "max": [
        1.0
      ]
    },
    {
      "bufferView": 117,
      "componentType": 5126,
      "count": 3,
      "type": "VEC3"
    },
    {
      "bufferView": 118,
      "componentType": 5126,
      "count": 3,
      "type": "SCALAR",
      "min": [
        0.0
      ],
      "max": [
        1.0
      ]
    },
    {
      "bufferView": 119,
      "componentType": 5126,
      "count": 3,
      "type": "VEC4"
    },
    {
      "bufferView": 120,
      "componentType": 5126,
      "count": 3,
      "type": "SCALAR",
      "min": [
        0.0
      ],
      "max": [
        0.44
      ]
    },
    {
      "bufferView": 121,
      "componentType": 5126,
      "count": 3,
      "type": "VEC4"
    },
    {
      "bufferView": 122,
      "componentType": 5126,
      "count": 3,
      "type": "SCALAR",
      "min": [
        0.0
      ],
      "max": [
        0.44
      ]
    },
    {
      "bufferView": 123,
      "componentType": 5126,
      "count": 3,
      "type": "VEC4"
    },
    {
      "bufferView": 124,
      "componentType": 5126,
      "count": 3,
      "type": "SCALAR",
      "min": [
        0.0
      ],
      "max": [
        0.44
      ]
    },
    {
      "bufferView": 125,
      "componentType": 5126,
      "count": 3,
      "type": "VEC4"
    },
    {
      "bufferView": 126,
      "componentType": 5126,
      "count": 3,
      "type": "SCALAR",
      "min": [
        0.0
      ],
      "max": [
        0.44
      ]
    },
    {
      "bufferView": 127,
      "componentType": 5126,
      "count": 3,
      "type": "VEC4"
    },
    {
      "bufferView": 128,
      "componentType": 5126,
      "count": 3,
      "type": "SCALAR",
      "min": [
        0.0
      ],
      "max": [
        0.44
      ]
    },
    {
      "bufferView": 129,
      "componentType": 5126,
      "count": 3,
      "type": "VEC4"
    },
    {
      "bufferView": 130,
      "componentType": 5126,
      "count": 3,
      "type": "SCALAR",
      "min": [
        0.0
      ],
      "max": [
        0.64
      ]
    },
    {
      "bufferView": 131,
      "componentType": 5126,
      "count": 3,
      "type": "VEC4"
    },
    {
      "bufferView": 132,
      "componentType": 5126,
      "count": 3,
      "type": "SCALAR",
      "min": [
        0.0
      ],
      "max": [
        0.64
      ]
    },
    {
      "bufferView": 133,
      "componentType": 5126,
      "count": 3,
      "type": "VEC4"
    }
  ],
  "bufferViews": [
    {
      "buffer": 0,
      "byteOffset": 0,
      "byteLength": 10800,
      "target": 34962
    },
    {
      "buffer": 0,
      "byteOffset": 10800,
      "byteLength": 10800,
      "target": 34962
    },
    {
      "buffer": 0,
      "byteOffset": 21600,
      "byteLength": 10368,
      "target": 34963
    },
    {
      "buffer": 0,
      "byteOffset": 31968,
      "byteLength": 10800,
      "target": 34962
    },
    {
      "buffer": 0,
      "byteOffset": 42768,
      "byteLength": 10800,
      "target": 34962
    },
    {
      "buffer": 0,
      "byteOffset": 53568,
      "byteLength": 10368,
      "target": 34963
    },
    {
      "buffer": 0,
      "byteOffset": 63936,
      "byteLength": 3480,
      "target": 34962
    },
    {
      "buffer": 0,
      "byteOffset": 67416,
      "byteLength": 3480,
      "target": 34962
    },
    {
      "buffer": 0,
      "byteOffset": 70896,
      "byteLength": 2880,
      "target": 34963
    },
    {
      "buffer": 0,
      "byteOffset": 73776,
      "byteLength": 9624,
      "target": 34962
    },
    {
      "buffer": 0,
      "byteOffset": 83400,
      "byteLength": 9624,
      "target": 34962
    },
    {
      "buffer": 0,
      "byteOffset": 93024,
      "byteLength": 8640,
      "target": 34963
    },
    {
      "buffer": 0,
      "byteOffset": 101664,
      "byteLength": 20184,
      "target": 34962
    },
    {
      "buffer": 0,
      "byteOffset": 121848,
      "byteLength": 20184,
      "target": 34962
    },
    {
      "buffer": 0,
      "byteOffset": 142032,
      "byteLength": 18816,
      "target": 34963
    },
    {
      "buffer": 0,
      "byteOffset": 160848,
      "byteLength": 17496,
      "target": 34962
    },
    {
      "buffer": 0,
      "byteOffset": 178344,
      "byteLength": 17496,
      "target": 34962
    },
    {
      "buffer": 0,
      "byteOffset": 195840,
      "byteLength": 16128,
      "target": 34963
    },
    {
      "buffer": 0,
      "byteOffset": 211968,
      "byteLength": 4032,
      "target": 34962
    },
    {
      "buffer": 0,
      "byteOffset": 216000,
      "byteLength": 4032,
      "target": 34962
    },
    {
      "buffer": 0,
      "byteOffset": 220032,
      "byteLength": 3744,
      "target": 34963
    },
    {
      "buffer": 0,
      "byteOffset": 223776,
      "byteLength": 4032,
      "target": 34962
    },
    {
      "buffer": 0,
      "byteOffset": 227808,
      "byteLength": 4032,
      "target": 34962
    },
    {
      "buffer": 0,
      "byteOffset": 231840,
      "byteLength": 3744,
      "target": 34963
    },
    {
      "buffer": 0,
      "byteOffset": 235584,
      "byteLength": 4032,
      "target": 34962
    },
    {
      "buffer": 0,
      "byteOffset": 239616,
      "byteLength": 4032,
      "target": 34962
    },
    {
      "buffer": 0,
      "byteOffset": 243648,
      "byteLength": 3744,
      "target": 34963
    },
    {
      "buffer": 0,
      "byteOffset": 247392,
      "byteLength": 10800,
      "target": 34962
    },
    {
      "buffer": 0,
      "byteOffset": 258192,
      "byteLength": 10800,
      "target": 34962
    },
    {
      "buffer": 0,
      "byteOffset": 268992,
      "byteLength": 10368,
      "target": 34963
    },
    {
      "buffer": 0,
      "byteOffset": 279360,
      "byteLength": 10800,
      "target": 34962
    },
    {
      "buffer": 0,
      "byteOffset": 290160,
      "byteLength": 10800,
      "target": 34962
    },
    {
      "buffer": 0,
      "byteOffset": 300960,
      "byteLength": 10368,
      "target": 34963
    },
    {
      "buffer": 0,
      "byteOffset": 311328,
      "byteLength": 10800,
      "target": 34962
    },
    {
      "buffer": 0,
      "byteOffset": 322128,
      "byteLength": 10800,
      "target": 34962
    },
    {
      "buffer": 0,
      "byteOffset": 332928,
      "byteLength": 10368,
      "target": 34963
    },
    {
      "buffer": 0,
      "byteOffset": 343296,
      "byteLength": 4032,
      "target": 34962
    },
    {
      "buffer": 0,
      "byteOffset": 347328,
      "byteLength": 4032,
      "target": 34962
    },
    {
      "buffer": 0,
      "byteOffset": 351360,
      "byteLength": 3744,
      "target": 34963
    },
    {
      "buffer": 0,
      "byteOffset": 355104,
      "byteLength": 4032,
      "target": 34962
    },
    {
      "buffer": 0,
      "byteOffset": 359136,
      "byteLength": 4032,
      "target": 34962
    },
    {
      "buffer": 0,
      "byteOffset": 363168,
      "byteLength": 3744,
      "target": 34963
    },
    {
      "buffer": 0,
      "byteOffset": 366912,
      "byteLength": 1152,
      "target": 34962
    },
    {
      "buffer": 0,
      "byteOffset": 368064,
      "byteLength": 1152,
      "target": 34962
    },
    {
      "buffer": 0,
      "byteOffset": 369216,
      "byteLength": 264,
      "target": 34963
    },
    {
      "buffer": 0,
      "byteOffset": 369480,
      "byteLength": 4320,
      "target": 34962
    },
    {
      "buffer": 0,
      "byteOffset": 373800,
      "byteLength": 4320,
      "target": 34962
    },
    {
      "buffer": 0,
      "byteOffset": 378120,
      "byteLength": 4320,
      "target": 34963
    },
    {
      "buffer": 0,
      "byteOffset": 382440,
      "byteLength": 10800,
      "target": 34962
    },
    {
      "buffer": 0,
      "byteOffset": 393240,
      "byteLength": 10800,
      "target": 34962
    },
    {
      "buffer": 0,
      "byteOffset": 404040,
      "byteLength": 10368,
      "target": 34963
    },
    {
      "buffer": 0,
      "byteOffset": 414408,
      "byteLength": 4032,
      "target": 34962
    },
    {
      "buffer": 0,
      "byteOffset": 418440,
      "byteLength": 4032,
      "target": 34962
    },
    {
      "buffer": 0,
      "byteOffset": 422472,
      "byteLength": 3744,
      "target": 34963
    },
    {
      "buffer": 0,
      "byteOffset": 426216,
      "byteLength": 4032,
      "target": 34962
    },
    {
      "buffer": 0,
      "byteOffset": 430248,
      "byteLength": 4032,
      "target": 34962
    },
    {
      "buffer": 0,
      "byteOffset": 434280,
      "byteLength": 3744,
      "target": 34963
    },
    {
      "buffer": 0,
      "byteOffset": 438024,
      "byteLength": 4032,
      "target": 34962
    },
    {
      "buffer": 0,
      "byteOffset": 442056,
      "byteLength": 4032,
      "target": 34962
    },
    {
      "buffer": 0,
      "byteOffset": 446088,
      "byteLength": 3744,
      "target": 34963
    },
    {
      "buffer": 0,
      "byteOffset": 449832,
      "byteLength": 4032,
      "target": 34962
    },
    {
      "buffer": 0,
      "byteOffset": 453864,
      "byteLength": 4032,
      "target": 34962
    },
    {
      "buffer": 0,
      "byteOffset": 457896,
      "byteLength": 3744,
      "target": 34963
    },
    {
      "buffer": 0,
      "byteOffset": 461640,
      "byteLength": 4032,
      "target": 34962
    },
    {
      "buffer": 0,
      "byteOffset": 465672,
      "byteLength": 4032,
      "target": 34962
    },
    {
      "buffer": 0,
      "byteOffset": 469704,
      "byteLength": 3744,
      "target": 34963
    },
    {
      "buffer": 0,
      "byteOffset": 473448,
      "byteLength": 2904,
      "target": 34962
    },
    {
      "buffer": 0,
      "byteOffset": 476352,
      "byteLength": 2904,
      "target": 34962
    },
    {
      "buffer": 0,
      "byteOffset": 479256,
      "byteLength": 2304,
      "target": 34963
    },
    {
      "buffer": 0,
      "byteOffset": 481560,
      "byteLength": 10800,
      "target": 34962
    },
    {
      "buffer": 0,
      "byteOffset": 492360,
      "byteLength": 10800,
      "target": 34962
    },
    {
      "buffer": 0,
      "byteOffset": 503160,
      "byteLength": 10368,
      "target": 34963
    },
    {
      "buffer": 0,
      "byteOffset": 513528,
      "byteLength": 12
    },
    {
      "buffer": 0,
      "byteOffset": 513540,
      "byteLength": 36
    },
    {
      "buffer": 0,
      "byteOffset": 513576,
      "byteLength": 12
    },
    {
      "buffer": 0,
      "byteOffset": 513588,
      "byteLength": 48
    },
    {
      "buffer": 0,
      "byteOffset": 513636,
      "byteLength": 12
    },
    {
      "buffer": 0,
      "byteOffset": 513648,
      "byteLength": 48
    },
    {
      "buffer": 0,
      "byteOffset": 513696,
      "byteLength": 12
    },
    {
      "buffer": 0,
      "byteOffset": 513708,
      "byteLength": 48
    },
    {
      "buffer": 0,
      "byteOffset": 513756,
      "byteLength": 12
    },
    {
      "buffer": 0,
      "byteOffset": 513768,
      "byteLength": 48
    },
    {
      "buffer": 0,
      "byteOffset": 513816,
      "byteLength": 12
    },
    {
      "buffer": 0,
      "byteOffset": 513828,
      "byteLength": 48
    },
    {
      "buffer": 0,
      "byteOffset": 513876,
      "byteLength": 12
    },
    {
      "buffer": 0,
      "byteOffset": 513888,
      "byteLength": 48
    },
    {
      "buffer": 0,
      "byteOffset": 513936,
      "byteLength": 12
    },
    {
      "buffer": 0,
      "byteOffset": 513948,
      "byteLength": 48
    },
    {
      "buffer": 0,
      "byteOffset": 513996,
      "byteLength": 12
    },
    {
      "buffer": 0,
      "byteOffset": 514008,
      "byteLength": 48
    },
    {
      "buffer": 0,
      "byteOffset": 514056,
      "byteLength": 12
    },
    {
      "buffer": 0,
      "byteOffset": 514068,
      "byteLength": 36
    },
    {
      "buffer": 0,
      "byteOffset": 514104,
      "byteLength": 12
    },
    {
      "buffer": 0,
      "byteOffset": 514116,
      "byteLength": 48
    },
    {
      "buffer": 0,
      "byteOffset": 514164,
      "byteLength": 12
    },
    {
      "buffer": 0,
      "byteOffset": 514176,
      "byteLength": 48
    },
    {
      "buffer": 0,
      "byteOffset": 514224,
      "byteLength": 12
    },
    {
      "buffer": 0,
      "byteOffset": 514236,
      "byteLength": 48
    },
    {
      "buffer": 0,
      "byteOffset": 514284,
      "byteLength": 12
    },
    {
      "buffer": 0,
      "byteOffset": 514296,
      "byteLength": 48
    },
    {
      "buffer": 0,
      "byteOffset": 514344,
      "byteLength": 12
    },
    {
      "buffer": 0,
      "byteOffset": 514356,
      "byteLength": 48
    },
    {
      "buffer": 0,
      "byteOffset": 514404,
      "byteLength": 12
    },
    {
      "buffer": 0,
      "byteOffset": 514416,
      "byteLength": 36
    },
    {
      "buffer": 0,
      "byteOffset": 514452,
      "byteLength": 12
    },
    {
      "buffer": 0,
      "byteOffset": 514464,
      "byteLength": 48
    },
    {
      "buffer": 0,
      "byteOffset": 514512,
      "byteLength": 12
    },
    {
      "buffer": 0,
      "byteOffset": 514524,
      "byteLength": 36
    },
    {
      "buffer": 0,
      "byteOffset": 514560,
      "byteLength": 12
    },
    {
      "buffer": 0,
      "byteOffset": 514572,
      "byteLength": 48
    },
    {
      "buffer": 0,
      "byteOffset": 514620,
      "byteLength": 12
    },
    {
      "buffer": 0,
      "byteOffset": 514632,
      "byteLength": 48
    },
    {
      "buffer": 0,
      "byteOffset": 514680,
      "byteLength": 12
    },
    {
      "buffer": 0,
      "byteOffset": 514692,
      "byteLength": 48
    },
    {
      "buffer": 0,
      "byteOffset": 514740,
      "byteLength": 12
    },
    {
      "buffer": 0,
      "byteOffset": 514752,
      "byteLength": 48
    },
    {
      "buffer": 0,
      "byteOffset": 514800,
      "byteLength": 12
    },
    {
      "buffer": 0,
      "byteOffset": 514812,
      "byteLength": 36
    },
    {
      "buffer": 0,
      "byteOffset": 514848,
      "byteLength": 12
    },
    {
      "buffer": 0,
      "byteOffset": 514860,
      "byteLength": 48
    },
    {
      "buffer": 0,
      "byteOffset": 514908,
      "byteLength": 12
    },
    {
      "buffer": 0,
      "byteOffset": 514920,
      "byteLength": 48
    },
    {
      "buffer": 0,
      "byteOffset": 514968,
      "byteLength": 12
    },
    {
      "buffer": 0,
      "byteOffset": 514980,
      "byteLength": 48
    },
    {
      "buffer": 0,
      "byteOffset": 515028,
      "byteLength": 12
    },
    {
      "buffer": 0,
      "byteOffset": 515040,
      "byteLength": 48
    },
    {
      "buffer": 0,
      "byteOffset": 515088,
      "byteLength": 12
    },
    {
      "buffer": 0,
      "byteOffset": 515100,
      "byteLength": 48
    },
    {
      "buffer": 0,
      "byteOffset": 515148,
      "byteLength": 12
    },
    {
      "buffer": 0,
      "byteOffset": 515160,
      "byteLength": 48
    },
    {
      "buffer": 0,
      "byteOffset": 515208,
      "byteLength": 12
    },
    {
      "buffer": 0,
      "byteOffset": 515220,
      "byteLength": 48
    },
    {
      "buffer": 0,
      "byteOffset": 515268,
      "byteLength": 12
    },
    {
      "buffer": 0,
      "byteOffset": 515280,
      "byteLength": 48
    }
  ],
  "buffers": [
    {
      "byteLength": 515328,
      "uri": "data:application/octet-stream;base64,"
    }
  ],
  "animations": [
    {
      "name": "Idle",
      "samplers": [
        {
          "input": 72,
          "output": 73,
          "interpolation": "LINEAR"
        },
        {
          "input": 74,
          "output": 75,
          "interpolation": "LINEAR"
        },
        {
          "input": 76,
          "output": 77,
          "interpolation": "LINEAR"
        },
        {
          "input": 78,
          "output": 79,
          "interpolation": "LINEAR"
        },
        {
          "input": 80,
          "output": 81,
          "interpolation": "LINEAR"
        }
      ],
      "channels": [
        {
          "sampler": 0,
          "target": {
            "node": 0,
            "path": "translation"
          }
        },
        {
          "sampler": 1,
          "target": {
            "node": 1,
            "path": "rotation"
          }
        },
        {
          "sampler": 2,
          "target": {
            "node": 31,
            "path": "rotation"
          }
        },
        {
          "sampler": 3,
          "target": {
            "node": 37,
            "path": "rotation"
          }
        },
        {
          "sampler": 4,
          "target": {
            "node": 44,
            "path": "rotation"
          }
        }
      ]
    },
    {
      "name": "Walk",
      "samplers": [
        {
          "input": 82,
          "output": 83,
          "interpolation": "LINEAR"
        },
        {
          "input": 84,
          "output": 85,
          "interpolation": "LINEAR"
        },
        {
          "input": 86,
          "output": 87,
          "interpolation": "LINEAR"
        },
        {
          "input": 88,
          "output": 89,
          "interpolation": "LINEAR"
        }
      ],
      "channels": [
        {
          "sampler": 0,
          "target": {
            "node": 34,
            "path": "rotation"
          }
        },
        {
          "sampler": 1,
          "target": {
            "node": 1,
            "path": "rotation"
          }
        },
        {
          "sampler": 2,
          "target": {
            "node": 34,
            "path": "rotation"
          }
        },
        {
          "sampler": 3,
          "target": {
            "node": 41,
            "path": "rotation"
          }
        }
      ]
    },
    {
      "name": "Attack",
      "samplers": [
        {
          "input": 90,
          "output": 91,
          "interpolation": "LINEAR"
        },
        {
          "input": 92,
          "output": 93,
          "interpolation": "LINEAR"
        },
        {
          "input": 94,
          "output": 95,
          "interpolation": "LINEAR"
        },
        {
          "input": 96,
          "output": 97,
          "interpolation": "LINEAR"
        },
        {
          "input": 98,
          "output": 99,
          "interpolation": "LINEAR"
        },
        {
          "input": 100,
          "output": 101,
          "interpolation": "LINEAR"
        }
      ],
      "channels": [
        {
          "sampler": 0,
          "target": {
            "node": 32,
            "path": "translation"
          }
        },
        {
          "sampler": 1,
          "target": {
            "node": 1,
            "path": "rotation"
          }
        },
        {
          "sampler": 2,
          "target": {
            "node": 32,
            "path": "rotation"
          }
        },
        {
          "sampler": 3,
          "target": {
            "node": 39,
            "path": "rotation"
          }
        },
        {
          "sampler": 4,
          "target": {
            "node": 33,
            "path": "rotation"
          }
        },
        {
          "sampler": 5,
          "target": {
            "node": 40,
            "path": "rotation"
          }
        }
      ]
    },
    {
      "name": "Hit",
      "samplers": [
        {
          "input": 102,
          "output": 103,
          "interpolation": "LINEAR"
        },
        {
          "input": 104,
          "output": 105,
          "interpolation": "LINEAR"
        }
      ],
      "channels": [
        {
          "sampler": 0,
          "target": {
            "node": 0,
            "path": "translation"
          }
        },
        {
          "sampler": 1,
          "target": {
            "node": 1,
            "path": "rotation"
          }
        }
      ]
    },
    {
      "name": "Feed",
      "samplers": [
        {
          "input": 106,
          "output": 107,
          "interpolation": "LINEAR"
        },
        {
          "input": 108,
          "output": 109,
          "interpolation": "LINEAR"
        },
        {
          "input": 110,
          "output": 111,
          "interpolation": "LINEAR"
        },
        {
          "input": 112,
          "output": 113,
          "interpolation": "LINEAR"
        },
        {
          "input": 114,
          "output": 115,
          "interpolation": "LINEAR"
        }
      ],
      "channels": [
        {
          "sampler": 0,
          "target": {
            "node": 0,
            "path": "translation"
          }
        },
        {
          "sampler": 1,
          "target": {
            "node": 1,
            "path": "rotation"
          }
        },
        {
          "sampler": 2,
          "target": {
            "node": 32,
            "path": "rotation"
          }
        },
        {
          "sampler": 3,
          "target": {
            "node": 39,
            "path": "rotation"
          }
        },
        {
          "sampler": 4,
          "target": {
            "node": 31,
            "path": "rotation"
          }
        }
      ]
    },
    {
      "name": "Nest",
      "samplers": [
        {
          "input": 116,
          "output": 117,
          "interpolation": "LINEAR"
        },
        {
          "input": 118,
          "output": 119,
          "interpolation": "LINEAR"
        }
      ],
      "channels": [
        {
          "sampler": 0,
          "target": {
            "node": 0,
            "path": "translation"
          }
        },
        {
          "sampler": 1,
          "target": {
            "node": 1,
            "path": "rotation"
          }
        }
      ]
    },
    {
      "name": "Retreat",
      "samplers": [
        {
          "input": 120,
          "output": 121,
          "interpolation": "LINEAR"
        },
        {
          "input": 122,
          "output": 123,
          "interpolation": "LINEAR"
        },
        {
          "input": 124,
          "output": 125,
          "interpolation": "LINEAR"
        },
        {
          "input": 126,
          "output": 127,
          "interpolation": "LINEAR"
        },
        {
          "input": 128,
          "output": 129,
          "interpolation": "LINEAR"
        }
      ],
      "channels": [
        {
          "sampler": 0,
          "target": {
            "node": 34,
            "path": "rotation"
          }
        },
        {
          "sampler": 1,
          "target": {
            "node": 1,
            "path": "rotation"
          }
        },
        {
          "sampler": 2,
          "target": {
            "node": 34,
            "path": "rotation"
          }
        },
        {
          "sampler": 3,
          "target": {
            "node": 41,
            "path": "rotation"
          }
        },
        {
          "sampler": 4,
          "target": {
            "node": 31,
            "path": "rotation"
          }
        }
      ]
    },
    {
      "name": "Death",
      "samplers": [
        {
          "input": 130,
          "output": 131,
          "interpolation": "LINEAR"
        },
        {
          "input": 132,
          "output": 133,
          "interpolation": "LINEAR"
        }
      ],
      "channels": [
        {
          "sampler": 0,
          "target": {
            "node": 0,
            "path": "rotation"
          }
        },
        {
          "sampler": 1,
          "target": {
            "node": 1,
            "path": "rotation"
          }
        }
      ]
    }
  ],
  "extras": {
    "ironwright_asset_id": "miremaw.amphibious.v1",
    "required_nodes": [
      "MiremawModel",
      "Torso",
      "TorsoCore",
      "OrganicDorsalPlate",
      "MiremawGillRidgeL",
      "MiremawGillRidgeR",
      "MiremawJawPlateL",
      "MiremawGillSpineR",
      "ProductionAssetMarker"
    ],
    "animation_clips": [
      "Idle",
      "Walk",
      "Attack",
      "Hit",
      "Feed",
      "Nest",
      "Retreat",
      "Death"
    ]
  }
}
