{
  "asset": {
    "version": "2.0",
    "generator": "Project Ironwright original Veilstalker asset builder"
  },
  "scene": 0,
  "scenes": [
    {
      "name": "Veilstalker",
      "nodes": [
        0
      ]
    }
  ],
  "nodes": [
    {
      "name": "VeilstalkerModel",
      "children": [
        1,
        19,
        20,
        21,
        22,
        23,
        24,
        25,
        26,
        27,
        28,
        29,
        30,
        31,
        32,
        33,
        34,
        35,
        36,
        37,
        38,
        39,
        40,
        41,
        42
      ],
      "extras": {
        "ironwright_asset_id": "veilstalker.predator.v1",
        "asset_quality": "authored_high_definition",
        "socket_contract": "sensory_cowl, veil_membranes, tendrils, attack_hooks"
      }
    },
    {
      "name": "Torso",
      "translation": [
        0.0,
        0.0,
        0.0
      ],
      "extras": {
        "surface": "layered_wet_chitin"
      },
      "children": [
        2,
        3,
        4,
        5,
        6,
        7,
        8,
        9,
        10,
        11,
        12,
        13,
        14,
        15,
        16,
        17,
        18
      ]
    },
    {
      "name": "TorsoCore",
      "translation": [
        0.0,
        0.92,
        -0.12
      ],
      "mesh": 0,
      "extras": {
        "release_material_family": "chitin"
      }
    },
    {
      "name": "TorsoSegment0",
      "translation": [
        0.0,
        0.91,
        -0.72
      ],
      "mesh": 1
    },
    {
      "name": "VeilstalkerThoraxDorsalRib",
      "translation": [
        0.0,
        1.42,
        -0.72
      ],
      "mesh": 2
    },
    {
      "name": "ThoraxFastener",
      "translation": [
        -0.58,
        1.28,
        -0.7999999999999999
      ],
      "mesh": 13
    },
    {
      "name": "ThoraxFastener",
      "translation": [
        0.58,
        1.28,
        -0.7999999999999999
      ],
      "mesh": 13
    },
    {
      "name": "TorsoSegment1",
      "translation": [
        0.0,
        0.895,
        -0.27999999999999997
      ],
      "mesh": 1
    },
    {
      "name": "VeilstalkerThoraxDorsalRib",
      "translation": [
        0.0,
        1.375,
        -0.27999999999999997
      ],
      "mesh": 2
    },
    {
      "name": "ThoraxFastener",
      "translation": [
        -0.58,
        1.26,
        -0.36
      ],
      "mesh": 13
    },
    {
      "name": "ThoraxFastener",
      "translation": [
        0.58,
        1.26,
        -0.36
      ],
      "mesh": 13
    },
    {
      "name": "TorsoSegment2",
      "translation": [
        0.0,
        0.88,
        0.16000000000000003
      ],
      "mesh": 1
    },
    {
      "name": "VeilstalkerThoraxDorsalRib",
      "translation": [
        0.0,
        1.3299999999999998,
        0.16000000000000003
      ],
      "mesh": 2
    },
    {
      "name": "ThoraxFastener",
      "translation": [
        -0.58,
        1.24,
        0.08000000000000003
      ],
      "mesh": 13
    },
    {
      "name": "ThoraxFastener",
      "translation": [
        0.58,
        1.24,
        0.08000000000000003
      ],
      "mesh": 13
    },
    {
      "name": "TorsoSegment3",
      "translation": [
        0.0,
        0.865,
        0.6000000000000001
      ],
      "mesh": 1
    },
    {
      "name": "VeilstalkerThoraxDorsalRib",
      "translation": [
        0.0,
        1.285,
        0.6000000000000001
      ],
      "mesh": 2
    },
    {
      "name": "ThoraxFastener",
      "translation": [
        -0.58,
        1.22,
        0.5200000000000001
      ],
      "mesh": 13
    },
    {
      "name": "ThoraxFastener",
      "translation": [
        0.58,
        1.22,
        0.5200000000000001
      ],
      "mesh": 13
    },
    {
      "name": "VeilstalkerAbdomen",
      "translation": [
        -0.22,
        1.06,
        0.84
      ],
      "mesh": 3
    },
    {
      "name": "VeilstalkerCowl",
      "translation": [
        0.0,
        1.38,
        -1.02
      ],
      "mesh": 4,
      "extras": {
        "socket_type": "sensory_cowl"
      }
    },
    {
      "name": "VeilstalkerEye",
      "translation": [
        -0.27,
        1.48,
        -1.37
      ],
      "mesh": 5,
      "extras": {
        "socket_type": "threat_eye"
      }
    },
    {
      "name": "VeilstalkerVeil",
      "translation": [
        -0.98,
        1.08,
        -0.16
      ],
      "mesh": 8,
      "rotation": [
        -0.002198304677056975,
        -0.0399288655641146,
        -0.05492830307044269,
        0.9976891974323022
      ],
      "extras": {
        "socket_type": "attack_membrane"
      }
    },
    {
      "name": "VeilstalkerForelimb",
      "translation": [
        -0.78,
        0.72,
        -0.62
      ],
      "mesh": 9,
      "rotation": [
        0.0,
        0.0,
        -0.16918234906699603,
        0.9855847669095608
      ]
    },
    {
      "name": "VeilstalkerHook",
      "translation": [
        -0.93,
        0.22,
        -1.02
      ],
      "mesh": 10,
      "rotation": [
        0.284523655049831,
        -0.028547587629978638,
        -0.09566476007333043,
        0.9534566474872918
      ],
      "extras": {
        "socket_type": "attack_hook"
      }
    },
    {
      "name": "VeilstalkerEye",
      "translation": [
        0.27,
        1.48,
        -1.37
      ],
      "mesh": 5,
      "extras": {
        "socket_type": "threat_eye"
      }
    },
    {
      "name": "VeilstalkerVeil",
      "translation": [
        0.98,
        1.08,
        -0.16
      ],
      "mesh": 8,
      "rotation": [
        -0.002198304677056975,
        0.0399288655641146,
        0.05492830307044269,
        0.9976891974323022
      ],
      "extras": {
        "socket_type": "attack_membrane"
      }
    },
    {
      "name": "VeilstalkerForelimb",
      "translation": [
        0.78,
        0.72,
        -0.62
      ],
      "mesh": 9,
      "rotation": [
        0.0,
        0.0,
        0.16918234906699603,
        0.9855847669095608
      ]
    },
    {
      "name": "VeilstalkerHook",
      "translation": [
        0.93,
        0.22,
        -1.02
      ],
      "mesh": 10,
      "rotation": [
        0.284523655049831,
        0.028547587629978638,
        0.09566476007333043,
        0.9534566474872918
      ],
      "extras": {
        "socket_type": "attack_hook"
      }
    },
    {
      "name": "VeilstalkerDorsalPlate",
      "translation": [
        0.0,
        1.58,
        -0.68
      ],
      "mesh": 6,
      "rotation": [
        0.0,
        0.0,
        -0.01499943750632809,
        0.9998875021093592
      ]
    },
    {
      "name": "VeilstalkerDorsalSpine",
      "translation": [
        0.0,
        1.78,
        -0.64
      ],
      "mesh": 7,
      "rotation": [
        0.0,
        0.0,
        -0.0799146939691727,
        0.9968017063026194
      ]
    },
    {
      "name": "VeilstalkerDorsalPlate",
      "translation": [
        0.0,
        1.53,
        -0.24000000000000005
      ],
      "mesh": 6
    },
    {
      "name": "VeilstalkerDorsalSpine",
      "translation": [
        0.0,
        1.75,
        -0.20000000000000004
      ],
      "mesh": 7
    },
    {
      "name": "VeilstalkerDorsalPlate",
      "translation": [
        0.0,
        1.48,
        0.19999999999999996
      ],
      "mesh": 6,
      "rotation": [
        0.0,
        0.0,
        0.01499943750632809,
        0.9998875021093592
      ]
    },
    {
      "name": "VeilstalkerDorsalSpine",
      "translation": [
        0.0,
        1.72,
        0.23999999999999996
      ],
      "mesh": 7,
      "rotation": [
        0.0,
        0.0,
        0.0799146939691727,
        0.9968017063026194
      ]
    },
    {
      "name": "OrganicDorsalPlate",
      "translation": [
        0.0,
        1.5,
        0.2
      ],
      "mesh": 6,
      "rotation": [
        0.0,
        0.0,
        -0.01499943750632809,
        0.9998875021093592
      ],
      "extras": {
        "surface": "layered_shell_break"
      }
    },
    {
      "name": "VeilstalkerTendril",
      "translation": [
        -0.16,
        1.12,
        -1.52
      ],
      "mesh": 11,
      "rotation": [
        0.2704479140024763,
        -0.024406244732779192,
        -0.08650138047443509,
        0.9585300058974523
      ],
      "extras": {
        "socket_type": "sensory_tendril"
      }
    },
    {
      "name": "VeilstalkerTendril",
      "translation": [
        0.24,
        1.12,
        -1.57
      ],
      "mesh": 11,
      "rotation": [
        0.2704479140024763,
        0.024406244732779192,
        0.08650138047443509,
        0.9585300058974523
      ],
      "extras": {
        "socket_type": "sensory_tendril"
      }
    },
    {
      "name": "VeilstalkerTendril",
      "translation": [
        -0.32,
        1.12,
        -1.62
      ],
      "mesh": 11,
      "rotation": [
        0.2704479140024763,
        -0.024406244732779192,
        -0.08650138047443509,
        0.9585300058974523
      ],
      "extras": {
        "socket_type": "sensory_tendril"
      }
    },
    {
      "name": "VeilstalkerTail",
      "translation": [
        -0.22,
        0.98,
        0.72
      ],
      "mesh": 12
    },
    {
      "name": "VeilstalkerTail",
      "translation": [
        -0.14,
        0.9199999999999999,
        1.1
      ],
      "mesh": 12
    },
    {
      "name": "VeilstalkerTail",
      "translation": [
        -0.06,
        0.86,
        1.48
      ],
      "mesh": 12
    },
    {
      "name": "ProductionAssetMarker",
      "translation": [
        0.0,
        0.0,
        0.0
      ],
      "extras": {
        "asset_contract": "veilstalker.predator.v1",
        "source": "original_shared_mesh_builder"
      }
    }
  ],
  "meshes": [
    {
      "name": "ThoraxCore",
      "primitives": [
        {
          "attributes": {
            "POSITION": 0,
            "NORMAL": 1
          },
          "indices": 2,
          "material": 0
        }
      ]
    },
    {
      "name": "ThoraxSegment",
      "primitives": [
        {
          "attributes": {
            "POSITION": 3,
            "NORMAL": 4
          },
          "indices": 5,
          "material": 1
        }
      ]
    },
    {
      "name": "ThoraxRib",
      "primitives": [
        {
          "attributes": {
            "POSITION": 6,
            "NORMAL": 7
          },
          "indices": 8,
          "material": 1
        }
      ]
    },
    {
      "name": "Abdomen",
      "primitives": [
        {
          "attributes": {
            "POSITION": 9,
            "NORMAL": 10
          },
          "indices": 11,
          "material": 2
        }
      ]
    },
    {
      "name": "Cowl",
      "primitives": [
        {
          "attributes": {
            "POSITION": 12,
            "NORMAL": 13
          },
          "indices": 14,
          "material": 1
        }
      ]
    },
    {
      "name": "ThreatEye",
      "primitives": [
        {
          "attributes": {
            "POSITION": 15,
            "NORMAL": 16
          },
          "indices": 17,
          "material": 5
        }
      ]
    },
    {
      "name": "DorsalPlate",
      "primitives": [
        {
          "attributes": {
            "POSITION": 18,
            "NORMAL": 19
          },
          "indices": 20,
          "material": 1
        }
      ]
    },
    {
      "name": "DorsalSpine",
      "primitives": [
        {
          "attributes": {
            "POSITION": 21,
            "NORMAL": 22
          },
          "indices": 23,
          "material": 3
        }
      ]
    },
    {
      "name": "VeilMembrane",
      "primitives": [
        {
          "attributes": {
            "POSITION": 24,
            "NORMAL": 25
          },
          "indices": 26,
          "material": 4
        }
      ]
    },
    {
      "name": "Forelimb",
      "primitives": [
        {
          "attributes": {
            "POSITION": 27,
            "NORMAL": 28
          },
          "indices": 29,
          "material": 6
        }
      ]
    },
    {
      "name": "Hook",
      "primitives": [
        {
          "attributes": {
            "POSITION": 30,
            "NORMAL": 31
          },
          "indices": 32,
          "material": 3
        }
      ]
    },
    {
      "name": "Tendril",
      "primitives": [
        {
          "attributes": {
            "POSITION": 33,
            "NORMAL": 34
          },
          "indices": 35,
          "material": 6
        }
      ]
    },
    {
      "name": "Tail",
      "primitives": [
        {
          "attributes": {
            "POSITION": 36,
            "NORMAL": 37
          },
          "indices": 38,
          "material": 2
        }
      ]
    },
    {
      "name": "ShellFastener",
      "primitives": [
        {
          "attributes": {
            "POSITION": 39,
            "NORMAL": 40
          },
          "indices": 41,
          "material": 5
        }
      ]
    }
  ],
  "materials": [
    {
      "name": "Veilstalker wet chitin",
      "pbrMetallicRoughness": {
        "baseColorFactor": [
          0.055,
          0.035,
          0.045,
          1.0
        ],
        "metallicFactor": 0.22,
        "roughnessFactor": 0.28
      }
    },
    {
      "name": "Veilstalker shell ridge",
      "pbrMetallicRoughness": {
        "baseColorFactor": [
          0.16,
          0.08,
          0.1,
          1.0
        ],
        "metallicFactor": 0.12,
        "roughnessFactor": 0.42
      }
    },
    {
      "name": "Veilstalker deep flesh",
      "pbrMetallicRoughness": {
        "baseColorFactor": [
          0.1,
          0.025,
          0.035,
          1.0
        ],
        "metallicFactor": 0.0,
        "roughnessFactor": 0.72
      }
    },
    {
      "name": "Veilstalker bone hooks",
      "pbrMetallicRoughness": {
        "baseColorFactor": [
          0.38,
          0.29,
          0.23,
          1.0
        ],
        "metallicFactor": 0.0,
        "roughnessFactor": 0.62
      }
    },
    {
      "name": "Veilstalker membrane",
      "pbrMetallicRoughness": {
        "baseColorFactor": [
          0.22,
          0.018,
          0.065,
          0.82
        ],
        "metallicFactor": 0.0,
        "roughnessFactor": 0.5
      },
      "alphaMode": "BLEND",
      "emissiveFactor": [
        0.16,
        0.01,
        0.025
      ]
    },
    {
      "name": "Veilstalker threat eyes",
      "pbrMetallicRoughness": {
        "baseColorFactor": [
          0.24,
          0.018,
          0.008,
          1.0
        ],
        "metallicFactor": 0.0,
        "roughnessFactor": 0.3
      },
      "emissiveFactor": [
        1.0,
        0.05,
        0.012
      ]
    },
    {
      "name": "Veilstalker tendon",
      "pbrMetallicRoughness": {
        "baseColorFactor": [
          0.28,
          0.06,
          0.08,
          1.0
        ],
        "metallicFactor": 0.0,
        "roughnessFactor": 0.55
      }
    }
  ],
  "accessors": [
    {
      "bufferView": 0,
      "componentType": 5126,
      "count": 312,
      "type": "VEC3",
      "min": [
        -0.62,
        -0.62,
        -0.62
      ],
      "max": [
        0.62,
        0.62,
        0.62
      ]
    },
    {
      "bufferView": 1,
      "componentType": 5126,
      "count": 312,
      "type": "VEC3"
    },
    {
      "bufferView": 2,
      "componentType": 5123,
      "count": 1728,
      "type": "SCALAR",
      "normalized": false
    },
    {
      "bufferView": 3,
      "componentType": 5126,
      "count": 220,
      "type": "VEC3",
      "min": [
        -0.5,
        -0.5,
        -0.5
      ],
      "max": [
        0.5,
        0.5,
        0.5
      ]
    },
    {
      "bufferView": 4,
      "componentType": 5126,
      "count": 220,
      "type": "VEC3"
    },
    {
      "bufferView": 5,
      "componentType": 5123,
      "count": 1200,
      "type": "SCALAR",
      "normalized": false
    },
    {
      "bufferView": 6,
      "componentType": 5126,
      "count": 24,
      "type": "VEC3",
      "min": [
        -0.69,
        -0.065,
        -0.09
      ],
      "max": [
        0.69,
        0.065,
        0.09
      ]
    },
    {
      "bufferView": 7,
      "componentType": 5126,
      "count": 24,
      "type": "VEC3"
    },
    {
      "bufferView": 8,
      "componentType": 5123,
      "count": 36,
      "type": "SCALAR",
      "normalized": false
    },
    {
      "bufferView": 9,
      "componentType": 5126,
      "count": 220,
      "type": "VEC3",
      "min": [
        -0.48,
        -0.48,
        -0.48
      ],
      "max": [
        0.48,
        0.48,
        0.48
      ]
    },
    {
      "bufferView": 10,
      "componentType": 5126,
      "count": 220,
      "type": "VEC3"
    },
    {
      "bufferView": 11,
      "componentType": 5123,
      "count": 1200,
      "type": "SCALAR",
      "normalized": false
    },
    {
      "bufferView": 12,
      "componentType": 5126,
      "count": 312,
      "type": "VEC3",
      "min": [
        -0.48,
        -0.48,
        -0.48
      ],
      "max": [
        0.48,
        0.48,
        0.48
      ]
    },
    {
      "bufferView": 13,
      "componentType": 5126,
      "count": 312,
      "type": "VEC3"
    },
    {
      "bufferView": 14,
      "componentType": 5123,
      "count": 1728,
      "type": "SCALAR",
      "normalized": false
    },
    {
      "bufferView": 15,
      "componentType": 5126,
      "count": 126,
      "type": "VEC3",
      "min": [
        -0.09,
        -0.09,
        -0.08774351209636412
      ],
      "max": [
        0.09,
        0.09,
        0.08774351209636412
      ]
    },
    {
      "bufferView": 16,
      "componentType": 5126,
      "count": 126,
      "type": "VEC3"
    },
    {
      "bufferView": 17,
      "componentType": 5123,
      "count": 672,
      "type": "SCALAR",
      "normalized": false
    },
    {
      "bufferView": 18,
      "componentType": 5126,
      "count": 24,
      "type": "VEC3",
      "min": [
        -0.625,
        -0.08,
        -0.23
      ],
      "max": [
        0.625,
        0.08,
        0.23
      ]
    },
    {
      "bufferView": 19,
      "componentType": 5126,
      "count": 24,
      "type": "VEC3"
    },
    {
      "bufferView": 20,
      "componentType": 5123,
      "count": 36,
      "type": "SCALAR",
      "normalized": false
    },
    {
      "bufferView": 21,
      "componentType": 5126,
      "count": 26,
      "type": "VEC3",
      "min": [
        -0.09,
        -0.29,
        -0.09
      ],
      "max": [
        0.09,
        0.29,
        0.09
      ]
    },
    {
      "bufferView": 22,
      "componentType": 5126,
      "count": 26,
      "type": "VEC3"
    },
    {
      "bufferView": 23,
      "componentType": 5123,
      "count": 144,
      "type": "SCALAR",
      "normalized": false
    },
    {
      "bufferView": 24,
      "componentType": 5126,
      "count": 198,
      "type": "VEC3",
      "min": [
        -0.34,
        -0.34,
        -0.3348346360241508
      ],
      "max": [
        0.34,
        0.34,
        0.33483463602415076
      ]
    },
    {
      "bufferView": 25,
      "componentType": 5126,
      "count": 198,
      "type": "VEC3"
    },
    {
      "bufferView": 26,
      "componentType": 5123,
      "count": 1080,
      "type": "SCALAR",
      "normalized": false
    },
    {
      "bufferView": 27,
      "componentType": 5126,
      "count": 26,
      "type": "VEC3",
      "min": [
        -0.075,
        -0.675,
        -0.075
      ],
      "max": [
        0.075,
        0.675,
        0.075
      ]
    },
    {
      "bufferView": 28,
      "componentType": 5126,
      "count": 26,
      "type": "VEC3"
    },
    {
      "bufferView": 29,
      "componentType": 5123,
      "count": 144,
      "type": "SCALAR",
      "normalized": false
    },
    {
      "bufferView": 30,
      "componentType": 5126,
      "count": 26,
      "type": "VEC3",
      "min": [
        -0.06,
        -0.45,
        -0.06
      ],
      "max": [
        0.06,
        0.45,
        0.06
      ]
    },
    {
      "bufferView": 31,
      "componentType": 5126,
      "count": 26,
      "type": "VEC3"
    },
    {
      "bufferView": 32,
      "componentType": 5123,
      "count": 144,
      "type": "SCALAR",
      "normalized": false
    },
    {
      "bufferView": 33,
      "componentType": 5126,
      "count": 22,
      "type": "VEC3",
      "min": [
        -0.035,
        -0.4,
        -0.03328697807033038
      ],
      "max": [
        0.035,
        0.4,
        0.03328697807033038
      ]
    },
    {
      "bufferView": 34,
      "componentType": 5126,
      "count": 22,
      "type": "VEC3"
    },
    {
      "bufferView": 35,
      "componentType": 5123,
      "count": 120,
      "type": "SCALAR",
      "normalized": false
    },
    {
      "bufferView": 36,
      "componentType": 5126,
      "count": 144,
      "type": "VEC3",
      "min": [
        -0.19,
        -0.19,
        -0.19
      ],
      "max": [
        0.19,
        0.19,
        0.19
      ]
    },
    {
      "bufferView": 37,
      "componentType": 5126,
      "count": 144,
      "type": "VEC3"
    },
    {
      "bufferView": 38,
      "componentType": 5123,
      "count": 768,
      "type": "SCALAR",
      "normalized": false
    },
    {
      "bufferView": 39,
      "componentType": 5126,
      "count": 70,
      "type": "VEC3",
      "min": [
        -0.045,
        -0.045,
        -0.042797543233281915
      ],
      "max": [
        0.045,
        0.045,
        0.042797543233281915
      ]
    },
    {
      "bufferView": 40,
      "componentType": 5126,
      "count": 70,
      "type": "VEC3"
    },
    {
      "bufferView": 41,
      "componentType": 5123,
      "count": 360,
      "type": "SCALAR",
      "normalized": false
    },
    {
      "bufferView": 42,
      "componentType": 5126,
      "count": 3,
      "type": "SCALAR",
      "min": [
        0.0
      ],
      "max": [
        1.6
      ]
    },
    {
      "bufferView": 43,
      "componentType": 5126,
      "count": 3,
      "type": "VEC3"
    },
    {
      "bufferView": 44,
      "componentType": 5126,
      "count": 3,
      "type": "SCALAR",
      "min": [
        0.0
      ],
      "max": [
        0.44
      ]
    },
    {
      "bufferView": 45,
      "componentType": 5126,
      "count": 3,
      "type": "VEC4"
    },
    {
      "bufferView": 46,
      "componentType": 5126,
      "count": 3,
      "type": "SCALAR",
      "min": [
        0.0
      ],
      "max": [
        0.68
      ]
    },
    {
      "bufferView": 47,
      "componentType": 5126,
      "count": 3,
      "type": "VEC4"
    }
  ],
  "bufferViews": [
    {
      "buffer": 0,
      "byteOffset": 0,
      "byteLength": 3744,
      "target": 34962
    },
    {
      "buffer": 0,
      "byteOffset": 3744,
      "byteLength": 3744,
      "target": 34962
    },
    {
      "buffer": 0,
      "byteOffset": 7488,
      "byteLength": 3456,
      "target": 34963
    },
    {
      "buffer": 0,
      "byteOffset": 10944,
      "byteLength": 2640,
      "target": 34962
    },
    {
      "buffer": 0,
      "byteOffset": 13584,
      "byteLength": 2640,
      "target": 34962
    },
    {
      "buffer": 0,
      "byteOffset": 16224,
      "byteLength": 2400,
      "target": 34963
    },
    {
      "buffer": 0,
      "byteOffset": 18624,
      "byteLength": 288,
      "target": 34962
    },
    {
      "buffer": 0,
      "byteOffset": 18912,
      "byteLength": 288,
      "target": 34962
    },
    {
      "buffer": 0,
      "byteOffset": 19200,
      "byteLength": 72,
      "target": 34963
    },
    {
      "buffer": 0,
      "byteOffset": 19272,
      "byteLength": 2640,
      "target": 34962
    },
    {
      "buffer": 0,
      "byteOffset": 21912,
      "byteLength": 2640,
      "target": 34962
    },
    {
      "buffer": 0,
      "byteOffset": 24552,
      "byteLength": 2400,
      "target": 34963
    },
    {
      "buffer": 0,
      "byteOffset": 26952,
      "byteLength": 3744,
      "target": 34962
    },
    {
      "buffer": 0,
      "byteOffset": 30696,
      "byteLength": 3744,
      "target": 34962
    },
    {
      "buffer": 0,
      "byteOffset": 34440,
      "byteLength": 3456,
      "target": 34963
    },
    {
      "buffer": 0,
      "byteOffset": 37896,
      "byteLength": 1512,
      "target": 34962
    },
    {
      "buffer": 0,
      "byteOffset": 39408,
      "byteLength": 1512,
      "target": 34962
    },
    {
      "buffer": 0,
      "byteOffset": 40920,
      "byteLength": 1344,
      "target": 34963
    },
    {
      "buffer": 0,
      "byteOffset": 42264,
      "byteLength": 288,
      "target": 34962
    },
    {
      "buffer": 0,
      "byteOffset": 42552,
      "byteLength": 288,
      "target": 34962
    },
    {
      "buffer": 0,
      "byteOffset": 42840,
      "byteLength": 72,
      "target": 34963
    },
    {
      "buffer": 0,
      "byteOffset": 42912,
      "byteLength": 312,
      "target": 34962
    },
    {
      "buffer": 0,
      "byteOffset": 43224,
      "byteLength": 312,
      "target": 34962
    },
    {
      "buffer": 0,
      "byteOffset": 43536,
      "byteLength": 288,
      "target": 34963
    },
    {
      "buffer": 0,
      "byteOffset": 43824,
      "byteLength": 2376,
      "target": 34962
    },
    {
      "buffer": 0,
      "byteOffset": 46200,
      "byteLength": 2376,
      "target": 34962
    },
    {
      "buffer": 0,
      "byteOffset": 48576,
      "byteLength": 2160,
      "target": 34963
    },
    {
      "buffer": 0,
      "byteOffset": 50736,
      "byteLength": 312,
      "target": 34962
    },
    {
      "buffer": 0,
      "byteOffset": 51048,
      "byteLength": 312,
      "target": 34962
    },
    {
      "buffer": 0,
      "byteOffset": 51360,
      "byteLength": 288,
      "target": 34963
    },
    {
      "buffer": 0,
      "byteOffset": 51648,
      "byteLength": 312,
      "target": 34962
    },
    {
      "buffer": 0,
      "byteOffset": 51960,
      "byteLength": 312,
      "target": 34962
    },
    {
      "buffer": 0,
      "byteOffset": 52272,
      "byteLength": 288,
      "target": 34963
    },
    {
      "buffer": 0,
      "byteOffset": 52560,
      "byteLength": 264,
      "target": 34962
    },
    {
      "buffer": 0,
      "byteOffset": 52824,
      "byteLength": 264,
      "target": 34962
    },
    {
      "buffer": 0,
      "byteOffset": 53088,
      "byteLength": 240,
      "target": 34963
    },
    {
      "buffer": 0,
      "byteOffset": 53328,
      "byteLength": 1728,
      "target": 34962
    },
    {
      "buffer": 0,
      "byteOffset": 55056,
      "byteLength": 1728,
      "target": 34962
    },
    {
      "buffer": 0,
      "byteOffset": 56784,
      "byteLength": 1536,
      "target": 34963
    },
    {
      "buffer": 0,
      "byteOffset": 58320,
      "byteLength": 840,
      "target": 34962
    },
    {
      "buffer": 0,
      "byteOffset": 59160,
      "byteLength": 840,
      "target": 34962
    },
    {
      "buffer": 0,
      "byteOffset": 60000,
      "byteLength": 720,
      "target": 34963
    },
    {
      "buffer": 0,
      "byteOffset": 60720,
      "byteLength": 12
    },
    {
      "buffer": 0,
      "byteOffset": 60732,
      "byteLength": 36
    },
    {
      "buffer": 0,
      "byteOffset": 60768,
      "byteLength": 12
    },
    {
      "buffer": 0,
      "byteOffset": 60780,
      "byteLength": 48
    },
    {
      "buffer": 0,
      "byteOffset": 60828,
      "byteLength": 12
    },
    {
      "buffer": 0,
      "byteOffset": 60840,
      "byteLength": 48
    }
  ],
  "buffers": [
    {
      "byteLength": 60888,
      "uri": "data:application/octet-stream;base64,"
    }
  ],
  "animations": [
    {
      "name": "Idle",
      "samplers": [
        {
          "input": 42,
          "output": 43,
          "interpolation": "LINEAR"
        }
      ],
      "channels": [
        {
          "sampler": 0,
          "target": {
            "node": 0,
            "path": "translation"
          }
        }
      ]
    },
    {
      "name": "Walk",
      "samplers": [
        {
          "input": 44,
          "output": 45,
          "interpolation": "LINEAR"
        }
      ],
      "channels": [
        {
          "sampler": 0,
          "target": {
            "node": 3,
            "path": "rotation"
          }
        }
      ]
    },
    {
      "name": "Attack",
      "samplers": [
        {
          "input": 46,
          "output": 47,
          "interpolation": "LINEAR"
        }
      ],
      "channels": [
        {
          "sampler": 0,
          "target": {
            "node": 26,
            "path": "rotation"
          }
        }
      ]
    }
  ],
  "extras": {
    "ironwright_asset_id": "veilstalker.predator.v1",
    "required_nodes": [
      "VeilstalkerModel",
      "Torso",
      "TorsoCore",
      "VeilstalkerCowl",
      "VeilstalkerVeil",
      "VeilstalkerTendril",
      "VeilstalkerThoraxDorsalRib",
      "ProductionAssetMarker"
    ],
    "animation_clips": [
      "Idle",
      "Walk",
      "Attack"
    ]
  }
}
