{
  "asset": {
    "version": "2.0",
    "generator": "Project Ironwright original Heartforge threshold asset builder"
  },
  "scene": 0,
  "scenes": [
    {
      "name": "AuthoredHeartforgeThreshold",
      "nodes": [
        115
      ]
    }
  ],
  "nodes": [
    {
      "name": "ThresholdFootL",
      "mesh": 1,
      "translation": [
        -3.9,
        0.14,
        0.0
      ],
      "extras": {
        "presentation_role": "threshold_foundation"
      }
    },
    {
      "name": "LeftThresholdFootToe",
      "mesh": 2,
      "translation": [
        -4.26,
        0.18,
        0.0
      ]
    },
    {
      "name": "LeftThresholdRootShoe00",
      "mesh": 24,
      "translation": [
        -4.38,
        0.2,
        -0.44
      ],
      "rotation": [
        0.0,
        -0.059964006479444595,
        0.0,
        0.9982005399352042
      ]
    },
    {
      "name": "LeftThresholdRootShoe01",
      "mesh": 24,
      "translation": [
        -4.38,
        0.2,
        0.44
      ],
      "rotation": [
        0.0,
        -0.0948571686345573,
        0.0,
        0.9954908927552453
      ]
    },
    {
      "name": "LeftThresholdFoot",
      "children": [
        0,
        1,
        2,
        3
      ],
      "extras": {
        "assembly_side": "left"
      }
    },
    {
      "name": "ThresholdPillarL",
      "mesh": 0,
      "translation": [
        -3.9,
        1.59,
        0.0
      ],
      "extras": {
        "presentation_role": "clear_opening_edge"
      }
    },
    {
      "name": "LeftPillarOuterShield",
      "mesh": 3,
      "translation": [
        -4.17,
        1.72,
        0.0
      ],
      "rotation": [
        0.0,
        0.0,
        -0.012499674481709789,
        0.9999218760172474
      ]
    },
    {
      "name": "LeftPillarCopperSpine",
      "mesh": 4,
      "translation": [
        -4.295,
        1.67,
        0.0
      ],
      "rotation": [
        0.0,
        0.0,
        -0.008999878500492074,
        0.9999595002733742
      ]
    },
    {
      "name": "LeftPillarRib00",
      "mesh": 5,
      "translation": [
        -4.23,
        0.68,
        0.0
      ],
      "rotation": [
        0.0,
        0.0,
        -0.009999833334166664,
        0.9999500004166653
      ]
    },
    {
      "name": "LeftPillarRib01",
      "mesh": 5,
      "translation": [
        -4.23,
        1.1600000000000001,
        0.0
      ],
      "rotation": [
        0.0,
        0.0,
        0.007499929687697754,
        0.9999718751318357
      ]
    },
    {
      "name": "LeftPillarRib02",
      "mesh": 5,
      "translation": [
        -4.23,
        1.6400000000000001,
        0.0
      ],
      "rotation": [
        0.0,
        0.0,
        -0.009999833334166664,
        0.9999500004166653
      ]
    },
    {
      "name": "LeftPillarRib03",
      "mesh": 5,
      "translation": [
        -4.23,
        2.12,
        0.0
      ],
      "rotation": [
        0.0,
        0.0,
        0.007499929687697754,
        0.9999718751318357
      ]
    },
    {
      "name": "LeftPillarRib04",
      "mesh": 5,
      "translation": [
        -4.23,
        2.6,
        0.0
      ],
      "rotation": [
        0.0,
        0.0,
        -0.009999833334166664,
        0.9999500004166653
      ]
    },
    {
      "name": "LeftPillarBolt00",
      "mesh": 26,
      "translation": [
        -3.9,
        0.42,
        -0.315
      ],
      "rotation": [
        0.7071067811865476,
        0.0,
        0.0,
        0.7071067811865476
      ]
    },
    {
      "name": "LeftPillarBolt01",
      "mesh": 26,
      "translation": [
        -3.9,
        1.06,
        -0.315
      ],
      "rotation": [
        0.7071067811865476,
        0.0,
        0.0,
        0.7071067811865476
      ]
    },
    {
      "name": "LeftPillarBolt02",
      "mesh": 26,
      "translation": [
        -3.9,
        1.7,
        -0.315
      ],
      "rotation": [
        0.7071067811865476,
        0.0,
        0.0,
        0.7071067811865476
      ]
    },
    {
      "name": "LeftPillarBolt03",
      "mesh": 26,
      "translation": [
        -3.9,
        2.34,
        -0.315
      ],
      "rotation": [
        0.7071067811865476,
        0.0,
        0.0,
        0.7071067811865476
      ]
    },
    {
      "name": "LeftPillarBolt04",
      "mesh": 26,
      "translation": [
        -3.9,
        2.82,
        -0.315
      ],
      "rotation": [
        0.7071067811865476,
        0.0,
        0.0,
        0.7071067811865476
      ]
    },
    {
      "name": "LeftPillar",
      "children": [
        5,
        6,
        7,
        8,
        9,
        10,
        11,
        12,
        13,
        14,
        15,
        16,
        17
      ],
      "extras": {
        "assembly_side": "left"
      }
    },
    {
      "name": "ThresholdFootR",
      "mesh": 1,
      "translation": [
        3.9,
        0.14,
        0.0
      ],
      "extras": {
        "presentation_role": "threshold_foundation"
      }
    },
    {
      "name": "RightThresholdFootToe",
      "mesh": 2,
      "translation": [
        4.26,
        0.18,
        0.0
      ]
    },
    {
      "name": "RightThresholdRootShoe00",
      "mesh": 24,
      "translation": [
        4.38,
        0.2,
        -0.44
      ],
      "rotation": [
        0.0,
        0.059964006479444595,
        0.0,
        0.9982005399352042
      ]
    },
    {
      "name": "RightThresholdRootShoe01",
      "mesh": 24,
      "translation": [
        4.38,
        0.2,
        0.44
      ],
      "rotation": [
        0.0,
        0.0948571686345573,
        0.0,
        0.9954908927552453
      ]
    },
    {
      "name": "RightThresholdFoot",
      "children": [
        19,
        20,
        21,
        22
      ],
      "extras": {
        "assembly_side": "right"
      }
    },
    {
      "name": "ThresholdPillarR",
      "mesh": 0,
      "translation": [
        3.9,
        1.59,
        0.0
      ],
      "extras": {
        "presentation_role": "clear_opening_edge"
      }
    },
    {
      "name": "RightPillarOuterShield",
      "mesh": 3,
      "translation": [
        4.17,
        1.72,
        0.0
      ],
      "rotation": [
        0.0,
        0.0,
        0.012499674481709789,
        0.9999218760172474
      ]
    },
    {
      "name": "RightPillarCopperSpine",
      "mesh": 4,
      "translation": [
        4.295,
        1.67,
        0.0
      ],
      "rotation": [
        0.0,
        0.0,
        0.008999878500492074,
        0.9999595002733742
      ]
    },
    {
      "name": "RightPillarRib00",
      "mesh": 5,
      "translation": [
        4.23,
        0.68,
        0.0
      ],
      "rotation": [
        0.0,
        0.0,
        0.009999833334166664,
        0.9999500004166653
      ]
    },
    {
      "name": "RightPillarRib01",
      "mesh": 5,
      "translation": [
        4.23,
        1.1600000000000001,
        0.0
      ],
      "rotation": [
        0.0,
        0.0,
        -0.007499929687697754,
        0.9999718751318357
      ]
    },
    {
      "name": "RightPillarRib02",
      "mesh": 5,
      "translation": [
        4.23,
        1.6400000000000001,
        0.0
      ],
      "rotation": [
        0.0,
        0.0,
        0.009999833334166664,
        0.9999500004166653
      ]
    },
    {
      "name": "RightPillarRib03",
      "mesh": 5,
      "translation": [
        4.23,
        2.12,
        0.0
      ],
      "rotation": [
        0.0,
        0.0,
        -0.007499929687697754,
        0.9999718751318357
      ]
    },
    {
      "name": "RightPillarRib04",
      "mesh": 5,
      "translation": [
        4.23,
        2.6,
        0.0
      ],
      "rotation": [
        0.0,
        0.0,
        0.009999833334166664,
        0.9999500004166653
      ]
    },
    {
      "name": "RightPillarBolt00",
      "mesh": 26,
      "translation": [
        3.9,
        0.42,
        -0.315
      ],
      "rotation": [
        0.7071067811865476,
        0.0,
        0.0,
        0.7071067811865476
      ]
    },
    {
      "name": "RightPillarBolt01",
      "mesh": 26,
      "translation": [
        3.9,
        1.06,
        -0.315
      ],
      "rotation": [
        0.7071067811865476,
        0.0,
        0.0,
        0.7071067811865476
      ]
    },
    {
      "name": "RightPillarBolt02",
      "mesh": 26,
      "translation": [
        3.9,
        1.7,
        -0.315
      ],
      "rotation": [
        0.7071067811865476,
        0.0,
        0.0,
        0.7071067811865476
      ]
    },
    {
      "name": "RightPillarBolt03",
      "mesh": 26,
      "translation": [
        3.9,
        2.34,
        -0.315
      ],
      "rotation": [
        0.7071067811865476,
        0.0,
        0.0,
        0.7071067811865476
      ]
    },
    {
      "name": "RightPillarBolt04",
      "mesh": 26,
      "translation": [
        3.9,
        2.82,
        -0.315
      ],
      "rotation": [
        0.7071067811865476,
        0.0,
        0.0,
        0.7071067811865476
      ]
    },
    {
      "name": "RightPillar",
      "children": [
        24,
        25,
        26,
        27,
        28,
        29,
        30,
        31,
        32,
        33,
        34,
        35,
        36
      ],
      "extras": {
        "assembly_side": "right"
      }
    },
    {
      "name": "ThresholdCrownBeamLeft",
      "mesh": 9,
      "translation": [
        -2.72,
        3.56,
        0.0
      ],
      "rotation": [
        0.0,
        0.0,
        -0.0799146939691727,
        0.9968017063026194
      ]
    },
    {
      "name": "ThresholdCrownBeamRight",
      "mesh": 9,
      "translation": [
        2.72,
        3.56,
        0.0
      ],
      "rotation": [
        0.0,
        0.0,
        0.0799146939691727,
        0.9968017063026194
      ]
    },
    {
      "name": "ThresholdCrownBeamInnerLeft",
      "mesh": 9,
      "translation": [
        -0.96,
        3.84,
        0.0
      ],
      "rotation": [
        0.0,
        0.0,
        -0.059964006479444595,
        0.9982005399352042
      ]
    },
    {
      "name": "ThresholdCrownBeamInnerRight",
      "mesh": 9,
      "translation": [
        0.96,
        3.84,
        0.0
      ],
      "rotation": [
        0.0,
        0.0,
        0.059964006479444595,
        0.9982005399352042
      ]
    },
    {
      "name": "ThresholdCrownKeystone",
      "mesh": 10,
      "translation": [
        0.0,
        3.98,
        0.0
      ],
      "extras": {
        "presentation_role": "refuge_civic_keystone"
      }
    },
    {
      "name": "ThresholdCrownFin00",
      "mesh": 11,
      "translation": [
        -0.72,
        4.54,
        0.0
      ],
      "rotation": [
        0.0,
        0.0,
        -0.05497227502706773,
        0.9984878812375985
      ]
    },
    {
      "name": "ThresholdCrownFin01",
      "mesh": 11,
      "translation": [
        -0.36,
        4.4799999999999995,
        0.0
      ],
      "rotation": [
        0.0,
        0.0,
        -0.027496533985227948,
        0.9996218988291519
      ]
    },
    {
      "name": "ThresholdCrownFin02",
      "mesh": 11,
      "translation": [
        0.0,
        4.42,
        0.0
      ],
      "rotation": [
        0.0,
        0.0,
        0.0,
        1.0
      ]
    },
    {
      "name": "ThresholdCrownFin03",
      "mesh": 11,
      "translation": [
        0.3600000000000001,
        4.4799999999999995,
        0.0
      ],
      "rotation": [
        0.0,
        0.0,
        0.027496533985227948,
        0.9996218988291519
      ]
    },
    {
      "name": "ThresholdCrownFin04",
      "mesh": 11,
      "translation": [
        0.72,
        4.54,
        0.0
      ],
      "rotation": [
        0.0,
        0.0,
        0.05497227502706773,
        0.9984878812375985
      ]
    },
    {
      "name": "ThresholdCrown",
      "children": [
        38,
        39,
        40,
        41,
        42,
        43,
        44,
        45,
        46,
        47
      ],
      "extras": {
        "presentation_role": "layered_industrial_organic_silhouette"
      }
    },
    {
      "name": "ThresholdLintelCase",
      "mesh": 7,
      "translation": [
        0.0,
        0.21,
        0.0
      ]
    },
    {
      "name": "RouteThresholdAmberBand",
      "mesh": 8,
      "translation": [
        0.0,
        0.13,
        -0.47
      ],
      "extras": {
        "presentation_signal": "amber_route"
      }
    },
    {
      "name": "ThresholdLintel",
      "mesh": 6,
      "translation": [
        0.0,
        3.18,
        0.0
      ],
      "children": [
        49,
        50
      ],
      "extras": {
        "presentation_role": "clear_opening_header"
      }
    },
    {
      "name": "ThresholdStructure",
      "children": [
        4,
        23,
        18,
        37,
        51,
        48
      ],
      "extras": {
        "clear_opening_width_m": 7.38,
        "clear_opening_height_m": 3.03
      }
    },
    {
      "name": "LeftServicePanelShell",
      "mesh": 12,
      "translation": [
        -4.35,
        1.74,
        -0.04
      ]
    },
    {
      "name": "LeftServicePanelFace",
      "mesh": 13,
      "translation": [
        -4.35,
        1.74,
        -0.115
      ]
    },
    {
      "name": "LeftServiceLouver00",
      "mesh": 14,
      "translation": [
        -4.35,
        1.56,
        -0.155
      ]
    },
    {
      "name": "LeftServiceLouver01",
      "mesh": 14,
      "translation": [
        -4.35,
        1.6800000000000002,
        -0.155
      ]
    },
    {
      "name": "LeftServiceLouver02",
      "mesh": 14,
      "translation": [
        -4.35,
        1.8,
        -0.155
      ]
    },
    {
      "name": "LeftServiceLouver03",
      "mesh": 14,
      "translation": [
        -4.35,
        1.92,
        -0.155
      ]
    },
    {
      "name": "LeftServicePanel",
      "children": [
        53,
        54,
        55,
        56,
        57,
        58
      ],
      "extras": {
        "presentation_role": "service_diagnostic",
        "assembly_side": "left"
      }
    },
    {
      "name": "RightServicePanelShell",
      "mesh": 12,
      "translation": [
        4.35,
        1.74,
        -0.04
      ]
    },
    {
      "name": "RightServicePanelFace",
      "mesh": 13,
      "translation": [
        4.35,
        1.74,
        -0.115
      ]
    },
    {
      "name": "RightServiceLouver00",
      "mesh": 14,
      "translation": [
        4.35,
        1.56,
        -0.155
      ]
    },
    {
      "name": "RightServiceLouver01",
      "mesh": 14,
      "translation": [
        4.35,
        1.6800000000000002,
        -0.155
      ]
    },
    {
      "name": "RightServiceLouver02",
      "mesh": 14,
      "translation": [
        4.35,
        1.8,
        -0.155
      ]
    },
    {
      "name": "RightServiceLouver03",
      "mesh": 14,
      "translation": [
        4.35,
        1.92,
        -0.155
      ]
    },
    {
      "name": "RightServicePanel",
      "children": [
        60,
        61,
        62,
        63,
        64,
        65
      ],
      "extras": {
        "presentation_role": "service_diagnostic",
        "assembly_side": "right"
      }
    },
    {
      "name": "ThresholdPanelSignalTrace00",
      "mesh": 16,
      "translation": [
        -0.58,
        0.0,
        -0.065
      ]
    },
    {
      "name": "ThresholdPanelSignalTrace01",
      "mesh": 16,
      "translation": [
        0.0,
        0.0,
        -0.065
      ]
    },
    {
      "name": "ThresholdPanelSignalTrace02",
      "mesh": 16,
      "translation": [
        0.58,
        0.0,
        -0.065
      ]
    },
    {
      "name": "ThresholdServicePanel",
      "mesh": 15,
      "translation": [
        0.0,
        3.18,
        -0.34
      ],
      "children": [
        67,
        68,
        69
      ],
      "extras": {
        "presentation_role": "threshold_service_hierarchy"
      }
    },
    {
      "name": "ThresholdServiceLayer",
      "children": [
        70,
        59,
        66
      ],
      "extras": {
        "presentation_only": true
      }
    },
    {
      "name": "ThresholdLampHousing00",
      "mesh": 17,
      "translation": [
        -3.0,
        3.18,
        -0.41
      ],
      "rotation": [
        0.7071067811865476,
        0.0,
        0.0,
        0.7071067811865476
      ]
    },
    {
      "name": "ThresholdLamp00",
      "mesh": 18,
      "translation": [
        -3.0,
        3.18,
        -0.54
      ],
      "extras": {
        "presentation_signal": "amber_route"
      }
    },
    {
      "name": "LeftRouteLamp",
      "children": [
        72,
        73
      ],
      "extras": {
        "presentation_role": "route_lamp"
      }
    },
    {
      "name": "ThresholdLampHousing01",
      "mesh": 17,
      "translation": [
        0.0,
        3.18,
        -0.41
      ],
      "rotation": [
        0.7071067811865476,
        0.0,
        0.0,
        0.7071067811865476
      ]
    },
    {
      "name": "ThresholdLamp01",
      "mesh": 18,
      "translation": [
        0.0,
        3.18,
        -0.54
      ],
      "extras": {
        "presentation_signal": "amber_route"
      }
    },
    {
      "name": "ThresholdCenterLamp",
      "children": [
        75,
        76
      ],
      "extras": {
        "presentation_role": "route_lamp"
      }
    },
    {
      "name": "ThresholdLampHousing02",
      "mesh": 17,
      "translation": [
        3.0,
        3.18,
        -0.41
      ],
      "rotation": [
        0.7071067811865476,
        0.0,
        0.0,
        0.7071067811865476
      ]
    },
    {
      "name": "ThresholdLamp02",
      "mesh": 18,
      "translation": [
        3.0,
        3.18,
        -0.54
      ],
      "extras": {
        "presentation_signal": "amber_route"
      }
    },
    {
      "name": "RightRouteLamp",
      "children": [
        78,
        79
      ],
      "extras": {
        "presentation_role": "route_lamp"
      }
    },
    {
      "name": "LeftRouteSensorHousing",
      "mesh": 19,
      "translation": [
        -4.17,
        2.58,
        -0.43
      ]
    },
    {
      "name": "LeftRouteSensorLens",
      "mesh": 20,
      "translation": [
        -4.17,
        2.58,
        -0.58
      ],
      "extras": {
        "presentation_signal": "service_cyan"
      }
    },
    {
      "name": "LeftRouteSensor",
      "children": [
        81,
        82
      ],
      "extras": {
        "presentation_role": "route_sensor",
        "assembly_side": "left"
      }
    },
    {
      "name": "RightRouteSensorHousing",
      "mesh": 19,
      "translation": [
        4.17,
        2.58,
        -0.43
      ]
    },
    {
      "name": "RightRouteSensorLens",
      "mesh": 20,
      "translation": [
        4.17,
        2.58,
        -0.58
      ],
      "extras": {
        "presentation_signal": "service_cyan"
      }
    },
    {
      "name": "RightRouteSensor",
      "children": [
        84,
        85
      ],
      "extras": {
        "presentation_role": "route_sensor",
        "assembly_side": "right"
      }
    },
    {
      "name": "ThresholdRouteMarkerLeft",
      "mesh": 21,
      "translation": [
        -0.46,
        3.53,
        -0.47
      ],
      "rotation": [
        0.0,
        0.0,
        -0.23770262642713458,
        0.9713379748520296
      ]
    },
    {
      "name": "ThresholdRouteMarkerRight",
      "mesh": 21,
      "translation": [
        0.46,
        3.53,
        -0.47
      ],
      "rotation": [
        0.0,
        0.0,
        0.23770262642713458,
        0.9713379748520296
      ]
    },
    {
      "name": "ThresholdRouteMarker",
      "children": [
        87,
        88
      ],
      "extras": {
        "presentation_signal": "amber_route"
      }
    },
    {
      "name": "ThresholdSignalLayer",
      "children": [
        74,
        77,
        80,
        83,
        86,
        89
      ],
      "extras": {
        "presentation_only": true
      }
    },
    {
      "name": "LeftThresholdRootConduit00",
      "mesh": 22,
      "translation": [
        -4.58,
        0.6699999999999999,
        0.34
      ],
      "rotation": [
        0.0,
        0.0,
        0.10048865911035186,
        0.9949382038047406
      ],
      "scale": [
        1.0,
        1.000199980003999,
        1.0
      ],
      "extras": {
        "presentation_role": "machine_grown_conduit"
      }
    },
    {
      "name": "LeftThresholdRootKnuckle00",
      "mesh": 25,
      "translation": [
        -4.68,
        1.16,
        0.34
      ]
    },
    {
      "name": "LeftThresholdRootConduit01",
      "mesh": 22,
      "translation": [
        -4.605,
        1.6549999999999998,
        0.34
      ],
      "rotation": [
        0.0,
        0.0,
        -0.07511489790725046,
        0.9971748854199965
      ],
      "scale": [
        1.0,
        1.001299156096718,
        1.0
      ],
      "extras": {
        "presentation_role": "machine_grown_conduit"
      }
    },
    {
      "name": "LeftThresholdRootKnuckle01",
      "mesh": 25,
      "translation": [
        -4.53,
        2.15,
        0.34
      ]
    },
    {
      "name": "LeftThresholdRootConduit02",
      "mesh": 22,
      "translation": [
        -4.595000000000001,
        2.645,
        0.34
      ],
      "rotation": [
        0.0,
        0.0,
        0.0652366859017557,
        0.997869818569815
      ],
      "scale": [
        1.0,
        0.9984988733093294,
        1.0
      ],
      "extras": {
        "presentation_role": "machine_grown_conduit"
      }
    },
    {
      "name": "LeftThresholdRootKnuckle02",
      "mesh": 25,
      "translation": [
        -4.66,
        3.14,
        0.34
      ]
    },
    {
      "name": "LeftThresholdRootAssembly",
      "children": [
        91,
        92,
        93,
        94,
        95,
        96
      ],
      "extras": {
        "presentation_role": "layered_industrial_organic_silhouette",
        "assembly_side": "left"
      }
    },
    {
      "name": "LeftThresholdConduitPipe",
      "mesh": 22,
      "translation": [
        -4.02,
        1.14,
        0.43
      ]
    },
    {
      "name": "LeftThresholdConduitClampLow",
      "mesh": 23,
      "translation": [
        -4.02,
        0.72,
        0.43
      ]
    },
    {
      "name": "LeftThresholdConduitClampHigh",
      "mesh": 23,
      "translation": [
        -4.02,
        1.56,
        0.43
      ]
    },
    {
      "name": "LeftThresholdConduit",
      "children": [
        98,
        99,
        100
      ],
      "extras": {
        "presentation_role": "service_conduit",
        "assembly_side": "left"
      }
    },
    {
      "name": "RightThresholdRootConduit00",
      "mesh": 22,
      "translation": [
        4.58,
        0.6699999999999999,
        0.34
      ],
      "rotation": [
        0.0,
        0.0,
        -0.10048865911035186,
        0.9949382038047406
      ],
      "scale": [
        1.0,
        1.000199980003999,
        1.0
      ],
      "extras": {
        "presentation_role": "machine_grown_conduit"
      }
    },
    {
      "name": "RightThresholdRootKnuckle00",
      "mesh": 25,
      "translation": [
        4.68,
        1.16,
        0.34
      ]
    },
    {
      "name": "RightThresholdRootConduit01",
      "mesh": 22,
      "translation": [
        4.605,
        1.6549999999999998,
        0.34
      ],
      "rotation": [
        0.0,
        0.0,
        0.07511489790725046,
        0.9971748854199965
      ],
      "scale": [
        1.0,
        1.001299156096718,
        1.0
      ],
      "extras": {
        "presentation_role": "machine_grown_conduit"
      }
    },
    {
      "name": "RightThresholdRootKnuckle01",
      "mesh": 25,
      "translation": [
        4.53,
        2.15,
        0.34
      ]
    },
    {
      "name": "RightThresholdRootConduit02",
      "mesh": 22,
      "translation": [
        4.595000000000001,
        2.645,
        0.34
      ],
      "rotation": [
        0.0,
        0.0,
        -0.0652366859017557,
        0.997869818569815
      ],
      "scale": [
        1.0,
        0.9984988733093294,
        1.0
      ],
      "extras": {
        "presentation_role": "machine_grown_conduit"
      }
    },
    {
      "name": "RightThresholdRootKnuckle02",
      "mesh": 25,
      "translation": [
        4.66,
        3.14,
        0.34
      ]
    },
    {
      "name": "RightThresholdRootAssembly",
      "children": [
        102,
        103,
        104,
        105,
        106,
        107
      ],
      "extras": {
        "presentation_role": "layered_industrial_organic_silhouette",
        "assembly_side": "right"
      }
    },
    {
      "name": "RightThresholdConduitPipe",
      "mesh": 22,
      "translation": [
        4.02,
        1.14,
        0.43
      ]
    },
    {
      "name": "RightThresholdConduitClampLow",
      "mesh": 23,
      "translation": [
        4.02,
        0.72,
        0.43
      ]
    },
    {
      "name": "RightThresholdConduitClampHigh",
      "mesh": 23,
      "translation": [
        4.02,
        1.56,
        0.43
      ]
    },
    {
      "name": "RightThresholdConduit",
      "children": [
        109,
        110,
        111
      ],
      "extras": {
        "presentation_role": "service_conduit",
        "assembly_side": "right"
      }
    },
    {
      "name": "ThresholdOrganicMachineLayer",
      "children": [
        97,
        101,
        108,
        112
      ],
      "extras": {
        "presentation_only": true,
        "silhouette_language": "layered_industrial_organic"
      }
    },
    {
      "name": "ProductionAssetMarker",
      "extras": {
        "asset_id": "heartforge.threshold.v1",
        "presentation_only": true,
        "collision": false,
        "gameplay_state": "none"
      }
    },
    {
      "name": "AuthoredHeartforgeThreshold",
      "children": [
        52,
        71,
        90,
        113,
        114
      ],
      "extras": {
        "ironwright_asset_id": "heartforge.threshold.v1",
        "asset_quality": "authored_high_definition",
        "presentation_only": true,
        "collision": false,
        "gameplay_state": "none",
        "manufactured_surface_profile": "textured_chamfered_high_definition",
        "material_contract": "textured_metallic_roughness_pbr",
        "clear_opening_width_m": 7.38,
        "clear_opening_inner_edges_x": [
          -3.69,
          3.69
        ],
        "clear_opening_height_m": 3.03,
        "world_placement_hint": [
          0.0,
          0.0,
          -5.8
        ]
      }
    }
  ],
  "meshes": [
    {
      "name": "Threshold main pillar",
      "primitives": [
        {
          "attributes": {
            "POSITION": 0,
            "NORMAL": 1,
            "TEXCOORD_0": 2,
            "TANGENT": 3
          },
          "indices": 4,
          "material": 1
        }
      ]
    },
    {
      "name": "Threshold foundation foot",
      "primitives": [
        {
          "attributes": {
            "POSITION": 5,
            "NORMAL": 6,
            "TEXCOORD_0": 7,
            "TANGENT": 8
          },
          "indices": 9,
          "material": 0
        }
      ]
    },
    {
      "name": "Threshold foundation toe",
      "primitives": [
        {
          "attributes": {
            "POSITION": 10,
            "NORMAL": 11,
            "TEXCOORD_0": 12,
            "TANGENT": 13
          },
          "indices": 14,
          "material": 3
        }
      ]
    },
    {
      "name": "Threshold outer shield",
      "primitives": [
        {
          "attributes": {
            "POSITION": 15,
            "NORMAL": 16,
            "TEXCOORD_0": 17,
            "TANGENT": 18
          },
          "indices": 19,
          "material": 3
        }
      ]
    },
    {
      "name": "Threshold copper spine",
      "primitives": [
        {
          "attributes": {
            "POSITION": 20,
            "NORMAL": 21,
            "TEXCOORD_0": 22,
            "TANGENT": 23
          },
          "indices": 24,
          "material": 2
        }
      ]
    },
    {
      "name": "Threshold manufactured rib",
      "primitives": [
        {
          "attributes": {
            "POSITION": 25,
            "NORMAL": 26,
            "TEXCOORD_0": 27,
            "TANGENT": 28
          },
          "indices": 29,
          "material": 2
        }
      ]
    },
    {
      "name": "Threshold load lintel",
      "primitives": [
        {
          "attributes": {
            "POSITION": 30,
            "NORMAL": 31,
            "TEXCOORD_0": 32,
            "TANGENT": 33
          },
          "indices": 34,
          "material": 1
        }
      ]
    },
    {
      "name": "Threshold layered lintel case",
      "primitives": [
        {
          "attributes": {
            "POSITION": 35,
            "NORMAL": 36,
            "TEXCOORD_0": 37,
            "TANGENT": 38
          },
          "indices": 39,
          "material": 3
        }
      ]
    },
    {
      "name": "Threshold amber route band",
      "primitives": [
        {
          "attributes": {
            "POSITION": 40,
            "NORMAL": 41,
            "TEXCOORD_0": 42,
            "TANGENT": 43
          },
          "indices": 44,
          "material": 4
        }
      ]
    },
    {
      "name": "Threshold crown beam",
      "primitives": [
        {
          "attributes": {
            "POSITION": 45,
            "NORMAL": 46,
            "TEXCOORD_0": 47,
            "TANGENT": 48
          },
          "indices": 49,
          "material": 1
        }
      ]
    },
    {
      "name": "Threshold crown plate",
      "primitives": [
        {
          "attributes": {
            "POSITION": 50,
            "NORMAL": 51,
            "TEXCOORD_0": 52,
            "TANGENT": 53
          },
          "indices": 54,
          "material": 2
        }
      ]
    },
    {
      "name": "Threshold crown thermal fin",
      "primitives": [
        {
          "attributes": {
            "POSITION": 55,
            "NORMAL": 56,
            "TEXCOORD_0": 57,
            "TANGENT": 58
          },
          "indices": 59,
          "material": 3
        }
      ]
    },
    {
      "name": "Threshold service panel",
      "primitives": [
        {
          "attributes": {
            "POSITION": 60,
            "NORMAL": 61,
            "TEXCOORD_0": 62,
            "TANGENT": 63
          },
          "indices": 64,
          "material": 0
        }
      ]
    },
    {
      "name": "Threshold service face",
      "primitives": [
        {
          "attributes": {
            "POSITION": 65,
            "NORMAL": 66,
            "TEXCOORD_0": 67,
            "TANGENT": 68
          },
          "indices": 69,
          "material": 5
        }
      ]
    },
    {
      "name": "Threshold service louver",
      "primitives": [
        {
          "attributes": {
            "POSITION": 70,
            "NORMAL": 71,
            "TEXCOORD_0": 72,
            "TANGENT": 73
          },
          "indices": 74,
          "material": 2
        }
      ]
    },
    {
      "name": "Threshold lintel service panel",
      "primitives": [
        {
          "attributes": {
            "POSITION": 75,
            "NORMAL": 76,
            "TEXCOORD_0": 77,
            "TANGENT": 78
          },
          "indices": 79,
          "material": 0
        }
      ]
    },
    {
      "name": "Threshold panel signal trace",
      "primitives": [
        {
          "attributes": {
            "POSITION": 80,
            "NORMAL": 81,
            "TEXCOORD_0": 82,
            "TANGENT": 83
          },
          "indices": 84,
          "material": 5
        }
      ]
    },
    {
      "name": "Threshold route lamp housing",
      "primitives": [
        {
          "attributes": {
            "POSITION": 85,
            "NORMAL": 86,
            "TEXCOORD_0": 87,
            "TANGENT": 88
          },
          "indices": 89,
          "material": 0
        }
      ]
    },
    {
      "name": "Threshold route lamp lens",
      "primitives": [
        {
          "attributes": {
            "POSITION": 90,
            "NORMAL": 91,
            "TEXCOORD_0": 92,
            "TANGENT": 93
          },
          "indices": 94,
          "material": 4
        }
      ]
    },
    {
      "name": "Threshold route sensor housing",
      "primitives": [
        {
          "attributes": {
            "POSITION": 95,
            "NORMAL": 96,
            "TEXCOORD_0": 97,
            "TANGENT": 98
          },
          "indices": 99,
          "material": 0
        }
      ]
    },
    {
      "name": "Threshold route sensor lens",
      "primitives": [
        {
          "attributes": {
            "POSITION": 100,
            "NORMAL": 101,
            "TEXCOORD_0": 102,
            "TANGENT": 103
          },
          "indices": 104,
          "material": 5
        }
      ]
    },
    {
      "name": "Threshold route marker",
      "primitives": [
        {
          "attributes": {
            "POSITION": 105,
            "NORMAL": 106,
            "TEXCOORD_0": 107,
            "TANGENT": 108
          },
          "indices": 109,
          "material": 4
        }
      ]
    },
    {
      "name": "Threshold machine-grown conduit",
      "primitives": [
        {
          "attributes": {
            "POSITION": 110,
            "NORMAL": 111,
            "TEXCOORD_0": 112,
            "TANGENT": 113
          },
          "indices": 114,
          "material": 2
        }
      ]
    },
    {
      "name": "Threshold conduit clamp",
      "primitives": [
        {
          "attributes": {
            "POSITION": 115,
            "NORMAL": 116,
            "TEXCOORD_0": 117,
            "TANGENT": 118
          },
          "indices": 119,
          "material": 3
        }
      ]
    },
    {
      "name": "Threshold machine root shoe",
      "primitives": [
        {
          "attributes": {
            "POSITION": 120,
            "NORMAL": 121,
            "TEXCOORD_0": 122,
            "TANGENT": 123
          },
          "indices": 124,
          "material": 0
        }
      ]
    },
    {
      "name": "Threshold machine root knuckle",
      "primitives": [
        {
          "attributes": {
            "POSITION": 125,
            "NORMAL": 126,
            "TEXCOORD_0": 127,
            "TANGENT": 128
          },
          "indices": 129,
          "material": 2
        }
      ]
    },
    {
      "name": "Threshold exposed fastener",
      "primitives": [
        {
          "attributes": {
            "POSITION": 130,
            "NORMAL": 131,
            "TEXCOORD_0": 132,
            "TANGENT": 133
          },
          "indices": 134,
          "material": 3
        }
      ]
    }
  ],
  "materials": [
    {
      "name": "Threshold foundation iron",
      "pbrMetallicRoughness": {
        "baseColorFactor": [
          0.032,
          0.041,
          0.043,
          1.0
        ],
        "baseColorTexture": {
          "index": 0
        },
        "metallicFactor": 0.78,
        "roughnessFactor": 0.58,
        "metallicRoughnessTexture": {
          "index": 2
        }
      },
      "normalTexture": {
        "index": 1,
        "scale": 0.72
      },
      "occlusionTexture": {
        "index": 2,
        "strength": 0.82
      }
    },
    {
      "name": "Threshold forged shell",
      "pbrMetallicRoughness": {
        "baseColorFactor": [
          0.13,
          0.17,
          0.18,
          1.0
        ],
        "baseColorTexture": {
          "index": 0
        },
        "metallicFactor": 0.82,
        "roughnessFactor": 0.42,
        "metallicRoughnessTexture": {
          "index": 2
        }
      },
      "normalTexture": {
        "index": 1,
        "scale": 0.72
      },
      "occlusionTexture": {
        "index": 2,
        "strength": 0.82
      }
    },
    {
      "name": "Threshold warm copper",
      "pbrMetallicRoughness": {
        "baseColorFactor": [
          0.42,
          0.205,
          0.09,
          1.0
        ],
        "baseColorTexture": {
          "index": 0
        },
        "metallicFactor": 0.64,
        "roughnessFactor": 0.53,
        "metallicRoughnessTexture": {
          "index": 2
        }
      },
      "normalTexture": {
        "index": 1,
        "scale": 0.72
      },
      "occlusionTexture": {
        "index": 2,
        "strength": 0.82
      }
    },
    {
      "name": "Threshold weathered plate",
      "pbrMetallicRoughness": {
        "baseColorFactor": [
          0.25,
          0.3,
          0.31,
          1.0
        ],
        "baseColorTexture": {
          "index": 0
        },
        "metallicFactor": 0.72,
        "roughnessFactor": 0.46,
        "metallicRoughnessTexture": {
          "index": 2
        }
      },
      "normalTexture": {
        "index": 1,
        "scale": 0.72
      },
      "occlusionTexture": {
        "index": 2,
        "strength": 0.82
      }
    },
    {
      "name": "Threshold route amber",
      "pbrMetallicRoughness": {
        "baseColorFactor": [
          0.48,
          0.22,
          0.055,
          1.0
        ],
        "baseColorTexture": {
          "index": 0
        },
        "metallicFactor": 0.26,
        "roughnessFactor": 0.28,
        "metallicRoughnessTexture": {
          "index": 2
        }
      },
      "normalTexture": {
        "index": 1,
        "scale": 0.72
      },
      "occlusionTexture": {
        "index": 2,
        "strength": 0.82
      },
      "emissiveFactor": [
        0.58,
        0.16,
        0.018
      ],
      "emissiveTexture": {
        "index": 3
      }
    },
    {
      "name": "Threshold service cyan",
      "pbrMetallicRoughness": {
        "baseColorFactor": [
          0.03,
          0.28,
          0.31,
          1.0
        ],
        "baseColorTexture": {
          "index": 0
        },
        "metallicFactor": 0.28,
        "roughnessFactor": 0.23,
        "metallicRoughnessTexture": {
          "index": 2
        }
      },
      "normalTexture": {
        "index": 1,
        "scale": 0.72
      },
      "occlusionTexture": {
        "index": 2,
        "strength": 0.82
      },
      "emissiveFactor": [
        0.025,
        0.37,
        0.42
      ],
      "emissiveTexture": {
        "index": 3
      }
    }
  ],
  "samplers": [
    {
      "name": "Threshold repeating PBR sampler",
      "magFilter": 9729,
      "minFilter": 9987,
      "wrapS": 10497,
      "wrapT": 10497
    }
  ],
  "images": [
    {
      "name": "Threshold base color",
      "uri": "heartforge_threshold_base_color.png"
    },
    {
      "name": "Threshold tangent-space normal",
      "uri": "heartforge_threshold_normal.png"
    },
    {
      "name": "Threshold occlusion roughness metallic",
      "uri": "heartforge_threshold_orm.png"
    },
    {
      "name": "Threshold emissive mask",
      "uri": "heartforge_threshold_emissive.png"
    }
  ],
  "textures": [
    {
      "name": "Threshold base color",
      "sampler": 0,
      "source": 0
    },
    {
      "name": "Threshold tangent-space normal",
      "sampler": 0,
      "source": 1
    },
    {
      "name": "Threshold occlusion roughness metallic",
      "sampler": 0,
      "source": 2
    },
    {
      "name": "Threshold emissive mask",
      "sampler": 0,
      "source": 3
    }
  ],
  "accessors": [
    {
      "bufferView": 0,
      "componentType": 5126,
      "count": 96,
      "type": "VEC3",
      "min": [
        -0.21,
        -1.59,
        -0.29
      ],
      "max": [
        0.21,
        1.59,
        0.29
      ]
    },
    {
      "bufferView": 1,
      "componentType": 5126,
      "count": 96,
      "type": "VEC3"
    },
    {
      "bufferView": 2,
      "componentType": 5126,
      "count": 96,
      "type": "VEC2"
    },
    {
      "bufferView": 3,
      "componentType": 5126,
      "count": 96,
      "type": "VEC4"
    },
    {
      "bufferView": 4,
      "componentType": 5123,
      "count": 132,
      "type": "SCALAR",
      "normalized": false
    },
    {
      "bufferView": 5,
      "componentType": 5126,
      "count": 96,
      "type": "VEC3",
      "min": [
        -0.59,
        -0.09,
        -0.54
      ],
      "max": [
        0.59,
        0.09,
        0.54
      ]
    },
    {
      "bufferView": 6,
      "componentType": 5126,
      "count": 96,
      "type": "VEC3"
    },
    {
      "bufferView": 7,
      "componentType": 5126,
      "count": 96,
      "type": "VEC2"
    },
    {
      "bufferView": 8,
      "componentType": 5126,
      "count": 96,
      "type": "VEC4"
    },
    {
      "bufferView": 9,
      "componentType": 5123,
      "count": 132,
      "type": "SCALAR",
      "normalized": false
    },
    {
      "bufferView": 10,
      "componentType": 5126,
      "count": 96,
      "type": "VEC3",
      "min": [
        -0.24,
        -0.08,
        -0.67
      ],
      "max": [
        0.24,
        0.08,
        0.67
      ]
    },
    {
      "bufferView": 11,
      "componentType": 5126,
      "count": 96,
      "type": "VEC3"
    },
    {
      "bufferView": 12,
      "componentType": 5126,
      "count": 96,
      "type": "VEC2"
    },
    {
      "bufferView": 13,
      "componentType": 5126,
      "count": 96,
      "type": "VEC4"
    },
    {
      "bufferView": 14,
      "componentType": 5123,
      "count": 132,
      "type": "SCALAR",
      "normalized": false
    },
    {
      "bufferView": 15,
      "componentType": 5126,
      "count": 96,
      "type": "VEC3",
      "min": [
        -0.1,
        -1.11,
        -0.44
      ],
      "max": [
        0.1,
        1.11,
        0.44
      ]
    },
    {
      "bufferView": 16,
      "componentType": 5126,
      "count": 96,
      "type": "VEC3"
    },
    {
      "bufferView": 17,
      "componentType": 5126,
      "count": 96,
      "type": "VEC2"
    },
    {
      "bufferView": 18,
      "componentType": 5126,
      "count": 96,
      "type": "VEC4"
    },
    {
      "bufferView": 19,
      "componentType": 5123,
      "count": 132,
      "type": "SCALAR",
      "normalized": false
    },
    {
      "bufferView": 20,
      "componentType": 5126,
      "count": 96,
      "type": "VEC3",
      "min": [
        -0.055,
        -1.27,
        -0.38
      ],
      "max": [
        0.055,
        1.27,
        0.38
      ]
    },
    {
      "bufferView": 21,
      "componentType": 5126,
      "count": 96,
      "type": "VEC3"
    },
    {
      "bufferView": 22,
      "componentType": 5126,
      "count": 96,
      "type": "VEC2"
    },
    {
      "bufferView": 23,
      "componentType": 5126,
      "count": 96,
      "type": "VEC4"
    },
    {
      "bufferView": 24,
      "componentType": 5123,
      "count": 132,
      "type": "SCALAR",
      "normalized": false
    },
    {
      "bufferView": 25,
      "componentType": 5126,
      "count": 96,
      "type": "VEC3",
      "min": [
        -0.08,
        -0.08,
        -0.47
      ],
      "max": [
        0.08,
        0.08,
        0.47
      ]
    },
    {
      "bufferView": 26,
      "componentType": 5126,
      "count": 96,
      "type": "VEC3"
    },
    {
      "bufferView": 27,
      "componentType": 5126,
      "count": 96,
      "type": "VEC2"
    },
    {
      "bufferView": 28,
      "componentType": 5126,
      "count": 96,
      "type": "VEC4"
    },
    {
      "bufferView": 29,
      "componentType": 5123,
      "count": 132,
      "type": "SCALAR",
      "normalized": false
    },
    {
      "bufferView": 30,
      "componentType": 5126,
      "count": 96,
      "type": "VEC3",
      "min": [
        -4.06,
        -0.15,
        -0.31
      ],
      "max": [
        4.06,
        0.15,
        0.31
      ]
    },
    {
      "bufferView": 31,
      "componentType": 5126,
      "count": 96,
      "type": "VEC3"
    },
    {
      "bufferView": 32,
      "componentType": 5126,
      "count": 96,
      "type": "VEC2"
    },
    {
      "bufferView": 33,
      "componentType": 5126,
      "count": 96,
      "type": "VEC4"
    },
    {
      "bufferView": 34,
      "componentType": 5123,
      "count": 132,
      "type": "SCALAR",
      "normalized": false
    },
    {
      "bufferView": 35,
      "componentType": 5126,
      "count": 96,
      "type": "VEC3",
      "min": [
        -3.86,
        -0.09,
        -0.43
      ],
      "max": [
        3.86,
        0.09,
        0.43
      ]
    },
    {
      "bufferView": 36,
      "componentType": 5126,
      "count": 96,
      "type": "VEC3"
    },
    {
      "bufferView": 37,
      "componentType": 5126,
      "count": 96,
      "type": "VEC2"
    },
    {
      "bufferView": 38,
      "componentType": 5126,
      "count": 96,
      "type": "VEC4"
    },
    {
      "bufferView": 39,
      "componentType": 5123,
      "count": 132,
      "type": "SCALAR",
      "normalized": false
    },
    {
      "bufferView": 40,
      "componentType": 5126,
      "count": 96,
      "type": "VEC3",
      "min": [
        -1.675,
        -0.08,
        -0.04
      ],
      "max": [
        1.675,
        0.08,
        0.04
      ]
    },
    {
      "bufferView": 41,
      "componentType": 5126,
      "count": 96,
      "type": "VEC3"
    },
    {
      "bufferView": 42,
      "componentType": 5126,
      "count": 96,
      "type": "VEC2"
    },
    {
      "bufferView": 43,
      "componentType": 5126,
      "count": 96,
      "type": "VEC4"
    },
    {
      "bufferView": 44,
      "componentType": 5123,
      "count": 132,
      "type": "SCALAR",
      "normalized": false
    },
    {
      "bufferView": 45,
      "componentType": 5126,
      "count": 96,
      "type": "VEC3",
      "min": [
        -1.275,
        -0.12,
        -0.33
      ],
      "max": [
        1.275,
        0.12,
        0.33
      ]
    },
    {
      "bufferView": 46,
      "componentType": 5126,
      "count": 96,
      "type": "VEC3"
    },
    {
      "bufferView": 47,
      "componentType": 5126,
      "count": 96,
      "type": "VEC2"
    },
    {
      "bufferView": 48,
      "componentType": 5126,
      "count": 96,
      "type": "VEC4"
    },
    {
      "bufferView": 49,
      "componentType": 5123,
      "count": 132,
      "type": "SCALAR",
      "normalized": false
    },
    {
      "bufferView": 50,
      "componentType": 5126,
      "count": 96,
      "type": "VEC3",
      "min": [
        -0.56,
        -0.17,
        -0.39
      ],
      "max": [
        0.56,
        0.17,
        0.39
      ]
    },
    {
      "bufferView": 51,
      "componentType": 5126,
      "count": 96,
      "type": "VEC3"
    },
    {
      "bufferView": 52,
      "componentType": 5126,
      "count": 96,
      "type": "VEC2"
    },
    {
      "bufferView": 53,
      "componentType": 5126,
      "count": 96,
      "type": "VEC4"
    },
    {
      "bufferView": 54,
      "componentType": 5123,
      "count": 132,
      "type": "SCALAR",
      "normalized": false
    },
    {
      "bufferView": 55,
      "componentType": 5126,
      "count": 96,
      "type": "VEC3",
      "min": [
        -0.065,
        -0.31,
        -0.24
      ],
      "max": [
        0.065,
        0.31,
        0.24
      ]
    },
    {
      "bufferView": 56,
      "componentType": 5126,
      "count": 96,
      "type": "VEC3"
    },
    {
      "bufferView": 57,
      "componentType": 5126,
      "count": 96,
      "type": "VEC2"
    },
    {
      "bufferView": 58,
      "componentType": 5126,
      "count": 96,
      "type": "VEC4"
    },
    {
      "bufferView": 59,
      "componentType": 5123,
      "count": 132,
      "type": "SCALAR",
      "normalized": false
    },
    {
      "bufferView": 60,
      "componentType": 5126,
      "count": 96,
      "type": "VEC3",
      "min": [
        -0.17,
        -0.37,
        -0.06
      ],
      "max": [
        0.17,
        0.37,
        0.06
      ]
    },
    {
      "bufferView": 61,
      "componentType": 5126,
      "count": 96,
      "type": "VEC3"
    },
    {
      "bufferView": 62,
      "componentType": 5126,
      "count": 96,
      "type": "VEC2"
    },
    {
      "bufferView": 63,
      "componentType": 5126,
      "count": 96,
      "type": "VEC4"
    },
    {
      "bufferView": 64,
      "componentType": 5123,
      "count": 132,
      "type": "SCALAR",
      "normalized": false
    },
    {
      "bufferView": 65,
      "componentType": 5126,
      "count": 96,
      "type": "VEC3",
      "min": [
        -0.0275,
        -0.24,
        -0.13
      ],
      "max": [
        0.0275,
        0.24,
        0.13
      ]
    },
    {
      "bufferView": 66,
      "componentType": 5126,
      "count": 96,
      "type": "VEC3"
    },
    {
      "bufferView": 67,
      "componentType": 5126,
      "count": 96,
      "type": "VEC2"
    },
    {
      "bufferView": 68,
      "componentType": 5126,
      "count": 96,
      "type": "VEC4"
    },
    {
      "bufferView": 69,
      "componentType": 5123,
      "count": 132,
      "type": "SCALAR",
      "normalized": false
    },
    {
      "bufferView": 70,
      "componentType": 5126,
      "count": 96,
      "type": "VEC3",
      "min": [
        -0.03,
        -0.05,
        -0.115
      ],
      "max": [
        0.03,
        0.05,
        0.115
      ]
    },
    {
      "bufferView": 71,
      "componentType": 5126,
      "count": 96,
      "type": "VEC3"
    },
    {
      "bufferView": 72,
      "componentType": 5126,
      "count": 96,
      "type": "VEC2"
    },
    {
      "bufferView": 73,
      "componentType": 5126,
      "count": 96,
      "type": "VEC4"
    },
    {
      "bufferView": 74,
      "componentType": 5123,
      "count": 132,
      "type": "SCALAR",
      "normalized": false
    },
    {
      "bufferView": 75,
      "componentType": 5126,
      "count": 96,
      "type": "VEC3",
      "min": [
        -1.04,
        -0.12,
        -0.05
      ],
      "max": [
        1.04,
        0.12,
        0.05
      ]
    },
    {
      "bufferView": 76,
      "componentType": 5126,
      "count": 96,
      "type": "VEC3"
    },
    {
      "bufferView": 77,
      "componentType": 5126,
      "count": 96,
      "type": "VEC2"
    },
    {
      "bufferView": 78,
      "componentType": 5126,
      "count": 96,
      "type": "VEC4"
    },
    {
      "bufferView": 79,
      "componentType": 5123,
      "count": 132,
      "type": "SCALAR",
      "normalized": false
    },
    {
      "bufferView": 80,
      "componentType": 5126,
      "count": 96,
      "type": "VEC3",
      "min": [
        -0.23,
        -0.0275,
        -0.0125
      ],
      "max": [
        0.23,
        0.0275,
        0.0125
      ]
    },
    {
      "bufferView": 81,
      "componentType": 5126,
      "count": 96,
      "type": "VEC3"
    },
    {
      "bufferView": 82,
      "componentType": 5126,
      "count": 96,
      "type": "VEC2"
    },
    {
      "bufferView": 83,
      "componentType": 5126,
      "count": 96,
      "type": "VEC4"
    },
    {
      "bufferView": 84,
      "componentType": 5123,
      "count": 132,
      "type": "SCALAR",
      "normalized": false
    },
    {
      "bufferView": 85,
      "componentType": 5126,
      "count": 58,
      "type": "VEC3",
      "min": [
        -0.09,
        -0.1,
        -0.09
      ],
      "max": [
        0.09,
        0.1,
        0.09
      ]
    },
    {
      "bufferView": 86,
      "componentType": 5126,
      "count": 58,
      "type": "VEC3"
    },
    {
      "bufferView": 87,
      "componentType": 5126,
      "count": 58,
      "type": "VEC2"
    },
    {
      "bufferView": 88,
      "componentType": 5126,
      "count": 58,
      "type": "VEC4"
    },
    {
      "bufferView": 89,
      "componentType": 5123,
      "count": 336,
      "type": "SCALAR",
      "normalized": false
    },
    {
      "bufferView": 90,
      "componentType": 5126,
      "count": 532,
      "type": "VEC3",
      "min": [
        -0.088,
        -0.088,
        -0.088
      ],
      "max": [
        0.088,
        0.088,
        0.088
      ]
    },
    {
      "bufferView": 91,
      "componentType": 5126,
      "count": 532,
      "type": "VEC3"
    },
    {
      "bufferView": 92,
      "componentType": 5126,
      "count": 532,
      "type": "VEC2"
    },
    {
      "bufferView": 93,
      "componentType": 5126,
      "count": 532,
      "type": "VEC4"
    },
    {
      "bufferView": 94,
      "componentType": 5123,
      "count": 3024,
      "type": "SCALAR",
      "normalized": false
    },
    {
      "bufferView": 95,
      "componentType": 5126,
      "count": 96,
      "type": "VEC3",
      "min": [
        -0.17,
        -0.17,
        -0.12
      ],
      "max": [
        0.17,
        0.17,
        0.12
      ]
    },
    {
      "bufferView": 96,
      "componentType": 5126,
      "count": 96,
      "type": "VEC3"
    },
    {
      "bufferView": 97,
      "componentType": 5126,
      "count": 96,
      "type": "VEC2"
    },
    {
      "bufferView": 98,
      "componentType": 5126,
      "count": 96,
      "type": "VEC4"
    },
    {
      "bufferView": 99,
      "componentType": 5123,
      "count": 132,
      "type": "SCALAR",
      "normalized": false
    },
    {
      "bufferView": 100,
      "componentType": 5126,
      "count": 532,
      "type": "VEC3",
      "min": [
        -0.082,
        -0.082,
        -0.082
      ],
      "max": [
        0.082,
        0.082,
        0.082
      ]
    },
    {
      "bufferView": 101,
      "componentType": 5126,
      "count": 532,
      "type": "VEC3"
    },
    {
      "bufferView": 102,
      "componentType": 5126,
      "count": 532,
      "type": "VEC2"
    },
    {
      "bufferView": 103,
      "componentType": 5126,
      "count": 532,
      "type": "VEC4"
    },
    {
      "bufferView": 104,
      "componentType": 5123,
      "count": 3024,
      "type": "SCALAR",
      "normalized": false
    },
    {
      "bufferView": 105,
      "componentType": 5126,
      "count": 96,
      "type": "VEC3",
      "min": [
        -0.38,
        -0.06,
        -0.045
      ],
      "max": [
        0.38,
        0.06,
        0.045
      ]
    },
    {
      "bufferView": 106,
      "componentType": 5126,
      "count": 96,
      "type": "VEC3"
    },
    {
      "bufferView": 107,
      "componentType": 5126,
      "count": 96,
      "type": "VEC2"
    },
    {
      "bufferView": 108,
      "componentType": 5126,
      "count": 96,
      "type": "VEC4"
    },
    {
      "bufferView": 109,
      "componentType": 5123,
      "count": 132,
      "type": "SCALAR",
      "normalized": false
    },
    {
      "bufferView": 110,
      "componentType": 5126,
      "count": 58,
      "type": "VEC3",
      "min": [
        -0.07,
        -0.5,
        -0.07
      ],
      "max": [
        0.07,
        0.5,
        0.07
      ]
    },
    {
      "bufferView": 111,
      "componentType": 5126,
      "count": 58,
      "type": "VEC3"
    },
    {
      "bufferView": 112,
      "componentType": 5126,
      "count": 58,
      "type": "VEC2"
    },
    {
      "bufferView": 113,
      "componentType": 5126,
      "count": 58,
      "type": "VEC4"
    },
    {
      "bufferView": 114,
      "componentType": 5123,
      "count": 336,
      "type": "SCALAR",
      "normalized": false
    },
    {
      "bufferView": 115,
      "componentType": 5126,
      "count": 58,
      "type": "VEC3",
      "min": [
        -0.105,
        -0.06,
        -0.105
      ],
      "max": [
        0.105,
        0.06,
        0.105
      ]
    },
    {
      "bufferView": 116,
      "componentType": 5126,
      "count": 58,
      "type": "VEC3"
    },
    {
      "bufferView": 117,
      "componentType": 5126,
      "count": 58,
      "type": "VEC2"
    },
    {
      "bufferView": 118,
      "componentType": 5126,
      "count": 58,
      "type": "VEC4"
    },
    {
      "bufferView": 119,
      "componentType": 5123,
      "count": 336,
      "type": "SCALAR",
      "normalized": false
    },
    {
      "bufferView": 120,
      "componentType": 5126,
      "count": 684,
      "type": "VEC3",
      "min": [
        -0.42,
        -0.17,
        -0.54
      ],
      "max": [
        0.42,
        0.17,
        0.54
      ]
    },
    {
      "bufferView": 121,
      "componentType": 5126,
      "count": 684,
      "type": "VEC3"
    },
    {
      "bufferView": 122,
      "componentType": 5126,
      "count": 684,
      "type": "VEC2"
    },
    {
      "bufferView": 123,
      "componentType": 5126,
      "count": 684,
      "type": "VEC4"
    },
    {
      "bufferView": 124,
      "componentType": 5123,
      "count": 3888,
      "type": "SCALAR",
      "normalized": false
    },
    {
      "bufferView": 125,
      "componentType": 5126,
      "count": 476,
      "type": "VEC3",
      "min": [
        -0.115,
        -0.115,
        -0.115
      ],
      "max": [
        0.115,
        0.115,
        0.115
      ]
    },
    {
      "bufferView": 126,
      "componentType": 5126,
      "count": 476,
      "type": "VEC3"
    },
    {
      "bufferView": 127,
      "componentType": 5126,
      "count": 476,
      "type": "VEC2"
    },
    {
      "bufferView": 128,
      "componentType": 5126,
      "count": 476,
      "type": "VEC4"
    },
    {
      "bufferView": 129,
      "componentType": 5123,
      "count": 2688,
      "type": "SCALAR",
      "normalized": false
    },
    {
      "bufferView": 130,
      "componentType": 5126,
      "count": 50,
      "type": "VEC3",
      "min": [
        -0.052,
        -0.0225,
        -0.052
      ],
      "max": [
        0.052,
        0.0225,
        0.052
      ]
    },
    {
      "bufferView": 131,
      "componentType": 5126,
      "count": 50,
      "type": "VEC3"
    },
    {
      "bufferView": 132,
      "componentType": 5126,
      "count": 50,
      "type": "VEC2"
    },
    {
      "bufferView": 133,
      "componentType": 5126,
      "count": 50,
      "type": "VEC4"
    },
    {
      "bufferView": 134,
      "componentType": 5123,
      "count": 288,
      "type": "SCALAR",
      "normalized": false
    }
  ],
  "bufferViews": [
    {
      "buffer": 0,
      "byteOffset": 0,
      "byteLength": 1152,
      "target": 34962
    },
    {
      "buffer": 0,
      "byteOffset": 1152,
      "byteLength": 1152,
      "target": 34962
    },
    {
      "buffer": 0,
      "byteOffset": 2304,
      "byteLength": 768,
      "target": 34962
    },
    {
      "buffer": 0,
      "byteOffset": 3072,
      "byteLength": 1536,
      "target": 34962
    },
    {
      "buffer": 0,
      "byteOffset": 4608,
      "byteLength": 264,
      "target": 34963
    },
    {
      "buffer": 0,
      "byteOffset": 4872,
      "byteLength": 1152,
      "target": 34962
    },
    {
      "buffer": 0,
      "byteOffset": 6024,
      "byteLength": 1152,
      "target": 34962
    },
    {
      "buffer": 0,
      "byteOffset": 7176,
      "byteLength": 768,
      "target": 34962
    },
    {
      "buffer": 0,
      "byteOffset": 7944,
      "byteLength": 1536,
      "target": 34962
    },
    {
      "buffer": 0,
      "byteOffset": 9480,
      "byteLength": 264,
      "target": 34963
    },
    {
      "buffer": 0,
      "byteOffset": 9744,
      "byteLength": 1152,
      "target": 34962
    },
    {
      "buffer": 0,
      "byteOffset": 10896,
      "byteLength": 1152,
      "target": 34962
    },
    {
      "buffer": 0,
      "byteOffset": 12048,
      "byteLength": 768,
      "target": 34962
    },
    {
      "buffer": 0,
      "byteOffset": 12816,
      "byteLength": 1536,
      "target": 34962
    },
    {
      "buffer": 0,
      "byteOffset": 14352,
      "byteLength": 264,
      "target": 34963
    },
    {
      "buffer": 0,
      "byteOffset": 14616,
      "byteLength": 1152,
      "target": 34962
    },
    {
      "buffer": 0,
      "byteOffset": 15768,
      "byteLength": 1152,
      "target": 34962
    },
    {
      "buffer": 0,
      "byteOffset": 16920,
      "byteLength": 768,
      "target": 34962
    },
    {
      "buffer": 0,
      "byteOffset": 17688,
      "byteLength": 1536,
      "target": 34962
    },
    {
      "buffer": 0,
      "byteOffset": 19224,
      "byteLength": 264,
      "target": 34963
    },
    {
      "buffer": 0,
      "byteOffset": 19488,
      "byteLength": 1152,
      "target": 34962
    },
    {
      "buffer": 0,
      "byteOffset": 20640,
      "byteLength": 1152,
      "target": 34962
    },
    {
      "buffer": 0,
      "byteOffset": 21792,
      "byteLength": 768,
      "target": 34962
    },
    {
      "buffer": 0,
      "byteOffset": 22560,
      "byteLength": 1536,
      "target": 34962
    },
    {
      "buffer": 0,
      "byteOffset": 24096,
      "byteLength": 264,
      "target": 34963
    },
    {
      "buffer": 0,
      "byteOffset": 24360,
      "byteLength": 1152,
      "target": 34962
    },
    {
      "buffer": 0,
      "byteOffset": 25512,
      "byteLength": 1152,
      "target": 34962
    },
    {
      "buffer": 0,
      "byteOffset": 26664,
      "byteLength": 768,
      "target": 34962
    },
    {
      "buffer": 0,
      "byteOffset": 27432,
      "byteLength": 1536,
      "target": 34962
    },
    {
      "buffer": 0,
      "byteOffset": 28968,
      "byteLength": 264,
      "target": 34963
    },
    {
      "buffer": 0,
      "byteOffset": 29232,
      "byteLength": 1152,
      "target": 34962
    },
    {
      "buffer": 0,
      "byteOffset": 30384,
      "byteLength": 1152,
      "target": 34962
    },
    {
      "buffer": 0,
      "byteOffset": 31536,
      "byteLength": 768,
      "target": 34962
    },
    {
      "buffer": 0,
      "byteOffset": 32304,
      "byteLength": 1536,
      "target": 34962
    },
    {
      "buffer": 0,
      "byteOffset": 33840,
      "byteLength": 264,
      "target": 34963
    },
    {
      "buffer": 0,
      "byteOffset": 34104,
      "byteLength": 1152,
      "target": 34962
    },
    {
      "buffer": 0,
      "byteOffset": 35256,
      "byteLength": 1152,
      "target": 34962
    },
    {
      "buffer": 0,
      "byteOffset": 36408,
      "byteLength": 768,
      "target": 34962
    },
    {
      "buffer": 0,
      "byteOffset": 37176,
      "byteLength": 1536,
      "target": 34962
    },
    {
      "buffer": 0,
      "byteOffset": 38712,
      "byteLength": 264,
      "target": 34963
    },
    {
      "buffer": 0,
      "byteOffset": 38976,
      "byteLength": 1152,
      "target": 34962
    },
    {
      "buffer": 0,
      "byteOffset": 40128,
      "byteLength": 1152,
      "target": 34962
    },
    {
      "buffer": 0,
      "byteOffset": 41280,
      "byteLength": 768,
      "target": 34962
    },
    {
      "buffer": 0,
      "byteOffset": 42048,
      "byteLength": 1536,
      "target": 34962
    },
    {
      "buffer": 0,
      "byteOffset": 43584,
      "byteLength": 264,
      "target": 34963
    },
    {
      "buffer": 0,
      "byteOffset": 43848,
      "byteLength": 1152,
      "target": 34962
    },
    {
      "buffer": 0,
      "byteOffset": 45000,
      "byteLength": 1152,
      "target": 34962
    },
    {
      "buffer": 0,
      "byteOffset": 46152,
      "byteLength": 768,
      "target": 34962
    },
    {
      "buffer": 0,
      "byteOffset": 46920,
      "byteLength": 1536,
      "target": 34962
    },
    {
      "buffer": 0,
      "byteOffset": 48456,
      "byteLength": 264,
      "target": 34963
    },
    {
      "buffer": 0,
      "byteOffset": 48720,
      "byteLength": 1152,
      "target": 34962
    },
    {
      "buffer": 0,
      "byteOffset": 49872,
      "byteLength": 1152,
      "target": 34962
    },
    {
      "buffer": 0,
      "byteOffset": 51024,
      "byteLength": 768,
      "target": 34962
    },
    {
      "buffer": 0,
      "byteOffset": 51792,
      "byteLength": 1536,
      "target": 34962
    },
    {
      "buffer": 0,
      "byteOffset": 53328,
      "byteLength": 264,
      "target": 34963
    },
    {
      "buffer": 0,
      "byteOffset": 53592,
      "byteLength": 1152,
      "target": 34962
    },
    {
      "buffer": 0,
      "byteOffset": 54744,
      "byteLength": 1152,
      "target": 34962
    },
    {
      "buffer": 0,
      "byteOffset": 55896,
      "byteLength": 768,
      "target": 34962
    },
    {
      "buffer": 0,
      "byteOffset": 56664,
      "byteLength": 1536,
      "target": 34962
    },
    {
      "buffer": 0,
      "byteOffset": 58200,
      "byteLength": 264,
      "target": 34963
    },
    {
      "buffer": 0,
      "byteOffset": 58464,
      "byteLength": 1152,
      "target": 34962
    },
    {
      "buffer": 0,
      "byteOffset": 59616,
      "byteLength": 1152,
      "target": 34962
    },
    {
      "buffer": 0,
      "byteOffset": 60768,
      "byteLength": 768,
      "target": 34962
    },
    {
      "buffer": 0,
      "byteOffset": 61536,
      "byteLength": 1536,
      "target": 34962
    },
    {
      "buffer": 0,
      "byteOffset": 63072,
      "byteLength": 264,
      "target": 34963
    },
    {
      "buffer": 0,
      "byteOffset": 63336,
      "byteLength": 1152,
      "target": 34962
    },
    {
      "buffer": 0,
      "byteOffset": 64488,
      "byteLength": 1152,
      "target": 34962
    },
    {
      "buffer": 0,
      "byteOffset": 65640,
      "byteLength": 768,
      "target": 34962
    },
    {
      "buffer": 0,
      "byteOffset": 66408,
      "byteLength": 1536,
      "target": 34962
    },
    {
      "buffer": 0,
      "byteOffset": 67944,
      "byteLength": 264,
      "target": 34963
    },
    {
      "buffer": 0,
      "byteOffset": 68208,
      "byteLength": 1152,
      "target": 34962
    },
    {
      "buffer": 0,
      "byteOffset": 69360,
      "byteLength": 1152,
      "target": 34962
    },
    {
      "buffer": 0,
      "byteOffset": 70512,
      "byteLength": 768,
      "target": 34962
    },
    {
      "buffer": 0,
      "byteOffset": 71280,
      "byteLength": 1536,
      "target": 34962
    },
    {
      "buffer": 0,
      "byteOffset": 72816,
      "byteLength": 264,
      "target": 34963
    },
    {
      "buffer": 0,
      "byteOffset": 73080,
      "byteLength": 1152,
      "target": 34962
    },
    {
      "buffer": 0,
      "byteOffset": 74232,
      "byteLength": 1152,
      "target": 34962
    },
    {
      "buffer": 0,
      "byteOffset": 75384,
      "byteLength": 768,
      "target": 34962
    },
    {
      "buffer": 0,
      "byteOffset": 76152,
      "byteLength": 1536,
      "target": 34962
    },
    {
      "buffer": 0,
      "byteOffset": 77688,
      "byteLength": 264,
      "target": 34963
    },
    {
      "buffer": 0,
      "byteOffset": 77952,
      "byteLength": 1152,
      "target": 34962
    },
    {
      "buffer": 0,
      "byteOffset": 79104,
      "byteLength": 1152,
      "target": 34962
    },
    {
      "buffer": 0,
      "byteOffset": 80256,
      "byteLength": 768,
      "target": 34962
    },
    {
      "buffer": 0,
      "byteOffset": 81024,
      "byteLength": 1536,
      "target": 34962
    },
    {
      "buffer": 0,
      "byteOffset": 82560,
      "byteLength": 264,
      "target": 34963
    },
    {
      "buffer": 0,
      "byteOffset": 82824,
      "byteLength": 696,
      "target": 34962
    },
    {
      "buffer": 0,
      "byteOffset": 83520,
      "byteLength": 696,
      "target": 34962
    },
    {
      "buffer": 0,
      "byteOffset": 84216,
      "byteLength": 464,
      "target": 34962
    },
    {
      "buffer": 0,
      "byteOffset": 84680,
      "byteLength": 928,
      "target": 34962
    },
    {
      "buffer": 0,
      "byteOffset": 85608,
      "byteLength": 672,
      "target": 34963
    },
    {
      "buffer": 0,
      "byteOffset": 86280,
      "byteLength": 6384,
      "target": 34962
    },
    {
      "buffer": 0,
      "byteOffset": 92664,
      "byteLength": 6384,
      "target": 34962
    },
    {
      "buffer": 0,
      "byteOffset": 99048,
      "byteLength": 4256,
      "target": 34962
    },
    {
      "buffer": 0,
      "byteOffset": 103304,
      "byteLength": 8512,
      "target": 34962
    },
    {
      "buffer": 0,
      "byteOffset": 111816,
      "byteLength": 6048,
      "target": 34963
    },
    {
      "buffer": 0,
      "byteOffset": 117864,
      "byteLength": 1152,
      "target": 34962
    },
    {
      "buffer": 0,
      "byteOffset": 119016,
      "byteLength": 1152,
      "target": 34962
    },
    {
      "buffer": 0,
      "byteOffset": 120168,
      "byteLength": 768,
      "target": 34962
    },
    {
      "buffer": 0,
      "byteOffset": 120936,
      "byteLength": 1536,
      "target": 34962
    },
    {
      "buffer": 0,
      "byteOffset": 122472,
      "byteLength": 264,
      "target": 34963
    },
    {
      "buffer": 0,
      "byteOffset": 122736,
      "byteLength": 6384,
      "target": 34962
    },
    {
      "buffer": 0,
      "byteOffset": 129120,
      "byteLength": 6384,
      "target": 34962
    },
    {
      "buffer": 0,
      "byteOffset": 135504,
      "byteLength": 4256,
      "target": 34962
    },
    {
      "buffer": 0,
      "byteOffset": 139760,
      "byteLength": 8512,
      "target": 34962
    },
    {
      "buffer": 0,
      "byteOffset": 148272,
      "byteLength": 6048,
      "target": 34963
    },
    {
      "buffer": 0,
      "byteOffset": 154320,
      "byteLength": 1152,
      "target": 34962
    },
    {
      "buffer": 0,
      "byteOffset": 155472,
      "byteLength": 1152,
      "target": 34962
    },
    {
      "buffer": 0,
      "byteOffset": 156624,
      "byteLength": 768,
      "target": 34962
    },
    {
      "buffer": 0,
      "byteOffset": 157392,
      "byteLength": 1536,
      "target": 34962
    },
    {
      "buffer": 0,
      "byteOffset": 158928,
      "byteLength": 264,
      "target": 34963
    },
    {
      "buffer": 0,
      "byteOffset": 159192,
      "byteLength": 696,
      "target": 34962
    },
    {
      "buffer": 0,
      "byteOffset": 159888,
      "byteLength": 696,
      "target": 34962
    },
    {
      "buffer": 0,
      "byteOffset": 160584,
      "byteLength": 464,
      "target": 34962
    },
    {
      "buffer": 0,
      "byteOffset": 161048,
      "byteLength": 928,
      "target": 34962
    },
    {
      "buffer": 0,
      "byteOffset": 161976,
      "byteLength": 672,
      "target": 34963
    },
    {
      "buffer": 0,
      "byteOffset": 162648,
      "byteLength": 696,
      "target": 34962
    },
    {
      "buffer": 0,
      "byteOffset": 163344,
      "byteLength": 696,
      "target": 34962
    },
    {
      "buffer": 0,
      "byteOffset": 164040,
      "byteLength": 464,
      "target": 34962
    },
    {
      "buffer": 0,
      "byteOffset": 164504,
      "byteLength": 928,
      "target": 34962
    },
    {
      "buffer": 0,
      "byteOffset": 165432,
      "byteLength": 672,
      "target": 34963
    },
    {
      "buffer": 0,
      "byteOffset": 166104,
      "byteLength": 8208,
      "target": 34962
    },
    {
      "buffer": 0,
      "byteOffset": 174312,
      "byteLength": 8208,
      "target": 34962
    },
    {
      "buffer": 0,
      "byteOffset": 182520,
      "byteLength": 5472,
      "target": 34962
    },
    {
      "buffer": 0,
      "byteOffset": 187992,
      "byteLength": 10944,
      "target": 34962
    },
    {
      "buffer": 0,
      "byteOffset": 198936,
      "byteLength": 7776,
      "target": 34963
    },
    {
      "buffer": 0,
      "byteOffset": 206712,
      "byteLength": 5712,
      "target": 34962
    },
    {
      "buffer": 0,
      "byteOffset": 212424,
      "byteLength": 5712,
      "target": 34962
    },
    {
      "buffer": 0,
      "byteOffset": 218136,
      "byteLength": 3808,
      "target": 34962
    },
    {
      "buffer": 0,
      "byteOffset": 221944,
      "byteLength": 7616,
      "target": 34962
    },
    {
      "buffer": 0,
      "byteOffset": 229560,
      "byteLength": 5376,
      "target": 34963
    },
    {
      "buffer": 0,
      "byteOffset": 234936,
      "byteLength": 600,
      "target": 34962
    },
    {
      "buffer": 0,
      "byteOffset": 235536,
      "byteLength": 600,
      "target": 34962
    },
    {
      "buffer": 0,
      "byteOffset": 236136,
      "byteLength": 400,
      "target": 34962
    },
    {
      "buffer": 0,
      "byteOffset": 236536,
      "byteLength": 800,
      "target": 34962
    },
    {
      "buffer": 0,
      "byteOffset": 237336,
      "byteLength": 576,
      "target": 34963
    }
  ],
  "buffers": [
    {
      "byteLength": 237912,
      "uri": "data:application/octet-stream;base64,"
    }
  ],
  "extras": {
    "ironwright_asset_id": "heartforge.threshold.v1",
    "root_name": "AuthoredHeartforgeThreshold",
    "required_nodes": [
      "AuthoredHeartforgeThreshold",
      "ThresholdStructure",
      "LeftPillar",
      "RightPillar",
      "ThresholdPillarL",
      "ThresholdPillarR",
      "LeftThresholdFoot",
      "RightThresholdFoot",
      "ThresholdFootL",
      "ThresholdFootR",
      "ThresholdLintel",
      "ThresholdCrown",
      "RouteThresholdAmberBand",
      "ThresholdServiceLayer",
      "ThresholdServicePanel",
      "LeftServicePanel",
      "RightServicePanel",
      "ThresholdSignalLayer",
      "LeftRouteLamp",
      "RightRouteLamp",
      "ThresholdLamp00",
      "ThresholdLamp01",
      "ThresholdLamp02",
      "LeftRouteSensor",
      "RightRouteSensor",
      "ThresholdRouteMarker",
      "ThresholdOrganicMachineLayer",
      "ProductionAssetMarker"
    ],
    "authored_detail_nodes": [
      "LeftPillarOuterShield",
      "RightPillarOuterShield",
      "LeftPillarCopperSpine",
      "RightPillarCopperSpine",
      "LeftServicePanel",
      "RightServicePanel",
      "LeftRouteLamp",
      "RightRouteLamp",
      "ThresholdCenterLamp",
      "LeftRouteSensor",
      "RightRouteSensor",
      "ThresholdCrown",
      "ThresholdCrownKeystone",
      "RouteThresholdAmberBand",
      "ThresholdRouteMarker",
      "LeftThresholdRootAssembly",
      "RightThresholdRootAssembly",
      "LeftThresholdConduit",
      "RightThresholdConduit"
    ],
    "material_contract": "textured_metallic_roughness_pbr",
    "texture_resolution": 1024,
    "presentation_only": true,
    "collision": false,
    "gameplay_state": "none",
    "clear_opening": {
      "width_m": 7.38,
      "height_m": 3.03,
      "inner_edges_x": [
        -3.69,
        3.69
      ]
    },
    "world_placement_hint": [
      0.0,
      0.0,
      -5.8
    ],
    "animation_clips": []
  }
}
