{
  "asset": {
    "version": "2.0",
    "generator": "Project Ironwright original Warden asset builder"
  },
  "scene": 0,
  "scenes": [
    {
      "name": "Warden",
      "nodes": [
        0
      ]
    }
  ],
  "nodes": [
    {
      "name": "WardenModel",
      "children": [
        1,
        2,
        3,
        4,
        5,
        6,
        7,
        8,
        9,
        10,
        11,
        12,
        13,
        14,
        15,
        16,
        17,
        18,
        19,
        20,
        21,
        22,
        23,
        24,
        25,
        26,
        27,
        28,
        29,
        30,
        31,
        32,
        33,
        34,
        35,
        36,
        37,
        38,
        39,
        40,
        41,
        42,
        43,
        44,
        45,
        46,
        47
      ],
      "extras": {
        "ironwright_asset_id": "warden.guardian.v1",
        "asset_quality": "authored_high_definition",
        "socket_contract": "weapon_muzzle, sensor, recoil_ring"
      }
    },
    {
      "name": "Chassis",
      "translation": [
        0.0,
        0.87,
        0.0
      ],
      "mesh": 0,
      "extras": {
        "surface": "beveled_primary_body"
      }
    },
    {
      "name": "ChassisCore",
      "translation": [
        0.0,
        0.93,
        0.0
      ],
      "mesh": 1
    },
    {
      "name": "ArmorPlate",
      "translation": [
        0.0,
        1.25,
        -0.86
      ],
      "mesh": 2,
      "rotation": [
        0.01499943750632809,
        0.0,
        0.0,
        0.9998875021093592
      ]
    },
    {
      "name": "LowerChassis",
      "translation": [
        0.0,
        0.46,
        0.05
      ],
      "mesh": 2
    },
    {
      "name": "ChassisDetailPanel",
      "translation": [
        0.0,
        1.4,
        -0.86
      ],
      "mesh": 2
    },
    {
      "name": "WardenSidePlate",
      "translation": [
        -0.96,
        0.91,
        0.04
      ],
      "mesh": 3,
      "rotation": [
        0.0,
        0.0,
        -0.03998933418663416,
        0.9992001066609779
      ]
    },
    {
      "name": "ChassisCornerCap",
      "translation": [
        -0.8,
        0.88,
        -0.72
      ],
      "mesh": 4
    },
    {
      "name": "Leg",
      "translation": [
        -0.61,
        0.45,
        -0.5
      ],
      "mesh": 5,
      "rotation": [
        0.0,
        0.0,
        -0.10977830083717481,
        0.9939560979566968
      ]
    },
    {
      "name": "Foot",
      "translation": [
        -0.72,
        0.12,
        -0.5
      ],
      "mesh": 6
    },
    {
      "name": "ChassisCornerCap",
      "translation": [
        -0.8,
        0.88,
        0.72
      ],
      "mesh": 4
    },
    {
      "name": "Leg",
      "translation": [
        -0.61,
        0.45,
        0.5
      ],
      "mesh": 5,
      "rotation": [
        0.0,
        0.0,
        -0.10977830083717481,
        0.9939560979566968
      ]
    },
    {
      "name": "Foot",
      "translation": [
        -0.72,
        0.12,
        0.5
      ],
      "mesh": 6
    },
    {
      "name": "WardenFastener",
      "translation": [
        -0.83,
        1.16,
        -0.86
      ],
      "mesh": 18,
      "rotation": [
        0.7071067811865476,
        0.0,
        0.0,
        0.7071067811865476
      ]
    },
    {
      "name": "WardenSidePlate",
      "translation": [
        0.96,
        0.91,
        0.04
      ],
      "mesh": 3,
      "rotation": [
        0.0,
        0.0,
        0.03998933418663416,
        0.9992001066609779
      ]
    },
    {
      "name": "ChassisCornerCap",
      "translation": [
        0.8,
        0.88,
        -0.72
      ],
      "mesh": 4
    },
    {
      "name": "Leg",
      "translation": [
        0.61,
        0.45,
        -0.5
      ],
      "mesh": 5,
      "rotation": [
        0.0,
        0.0,
        0.10977830083717481,
        0.9939560979566968
      ]
    },
    {
      "name": "Foot",
      "translation": [
        0.72,
        0.12,
        -0.5
      ],
      "mesh": 6
    },
    {
      "name": "ChassisCornerCap",
      "translation": [
        0.8,
        0.88,
        0.72
      ],
      "mesh": 4
    },
    {
      "name": "Leg",
      "translation": [
        0.61,
        0.45,
        0.5
      ],
      "mesh": 5,
      "rotation": [
        0.0,
        0.0,
        0.10977830083717481,
        0.9939560979566968
      ]
    },
    {
      "name": "Foot",
      "translation": [
        0.72,
        0.12,
        0.5
      ],
      "mesh": 6
    },
    {
      "name": "WardenFastener",
      "translation": [
        0.83,
        1.16,
        -0.86
      ],
      "mesh": 18,
      "rotation": [
        0.7071067811865476,
        0.0,
        0.0,
        0.7071067811865476
      ]
    },
    {
      "name": "OpticHousing",
      "translation": [
        0.0,
        1.18,
        -0.96
      ],
      "mesh": 7
    },
    {
      "name": "Sensor",
      "translation": [
        0.0,
        1.18,
        -1.07
      ],
      "mesh": 8,
      "extras": {
        "socket_type": "sensor"
      }
    },
    {
      "name": "OpticLens",
      "translation": [
        0.0,
        1.18,
        -1.13
      ],
      "mesh": 8,
      "extras": {
        "socket_type": "optic"
      }
    },
    {
      "name": "WardenBreech",
      "translation": [
        0.0,
        1.48,
        -0.58
      ],
      "mesh": 9
    },
    {
      "name": "WardenAutocannon",
      "translation": [
        0.0,
        1.48,
        -1.18
      ],
      "mesh": 10,
      "rotation": [
        0.7071067811865476,
        0.0,
        0.0,
        0.7071067811865476
      ],
      "extras": {
        "socket_type": "weapon_mount"
      }
    },
    {
      "name": "Weapon",
      "translation": [
        0.0,
        1.48,
        -1.36
      ],
      "mesh": 10,
      "rotation": [
        0.7071067811865476,
        0.0,
        0.0,
        0.7071067811865476
      ]
    },
    {
      "name": "WeaponBarrel",
      "translation": [
        0.0,
        1.48,
        -1.62
      ],
      "mesh": 10,
      "rotation": [
        0.7071067811865476,
        0.0,
        0.0,
        0.7071067811865476
      ]
    },
    {
      "name": "WeaponMuzzle",
      "translation": [
        0.0,
        1.48,
        -2.18
      ],
      "mesh": 11,
      "rotation": [
        0.7071067811865476,
        0.0,
        0.0,
        0.7071067811865476
      ],
      "extras": {
        "socket_type": "weapon_muzzle"
      }
    },
    {
      "name": "WardenRecoilRing",
      "translation": [
        -0.24,
        1.48,
        -1.9
      ],
      "mesh": 12,
      "rotation": [
        0.7071067811865476,
        0.0,
        0.0,
        0.7071067811865476
      ],
      "extras": {
        "socket_type": "recoil_ring"
      }
    },
    {
      "name": "WardenRecoilRing",
      "translation": [
        0.24,
        1.48,
        -1.9
      ],
      "mesh": 12,
      "rotation": [
        0.7071067811865476,
        0.0,
        0.0,
        0.7071067811865476
      ],
      "extras": {
        "socket_type": "recoil_ring"
      }
    },
    {
      "name": "WardenCounterweight",
      "translation": [
        0.0,
        0.55,
        0.82
      ],
      "mesh": 15,
      "rotation": [
        0.0,
        0.0,
        -0.01999866669333308,
        0.9998000066665778
      ]
    },
    {
      "name": "WardenHeatExchanger",
      "translation": [
        -0.5,
        1.42,
        -0.92
      ],
      "mesh": 13
    },
    {
      "name": "WardenAmmunitionPanel",
      "translation": [
        0.5,
        1.38,
        -0.9
      ],
      "mesh": 13
    },
    {
      "name": "WardenHeatLouver",
      "translation": [
        -0.5,
        1.3,
        -1.02
      ],
      "mesh": 14
    },
    {
      "name": "WardenHeatLouver",
      "translation": [
        -0.5,
        1.3900000000000001,
        -1.02
      ],
      "mesh": 14
    },
    {
      "name": "WardenHeatLouver",
      "translation": [
        -0.5,
        1.48,
        -1.02
      ],
      "mesh": 14
    },
    {
      "name": "WardenHeatLouver",
      "translation": [
        -0.5,
        1.57,
        -1.02
      ],
      "mesh": 14
    },
    {
      "name": "WardenLamp",
      "translation": [
        -0.34,
        1.4,
        -1.02
      ],
      "mesh": 17,
      "extras": {
        "socket_type": "status_light"
      }
    },
    {
      "name": "WardenHeatLouver",
      "translation": [
        0.5,
        1.3,
        -1.02
      ],
      "mesh": 14
    },
    {
      "name": "WardenHeatLouver",
      "translation": [
        0.5,
        1.3900000000000001,
        -1.02
      ],
      "mesh": 14
    },
    {
      "name": "WardenHeatLouver",
      "translation": [
        0.5,
        1.48,
        -1.02
      ],
      "mesh": 14
    },
    {
      "name": "WardenHeatLouver",
      "translation": [
        0.5,
        1.57,
        -1.02
      ],
      "mesh": 14
    },
    {
      "name": "WardenLamp",
      "translation": [
        0.34,
        1.4,
        -1.02
      ],
      "mesh": 17,
      "extras": {
        "socket_type": "status_light"
      }
    },
    {
      "name": "WardenSensorMast",
      "translation": [
        0.0,
        1.84,
        0.18
      ],
      "mesh": 16,
      "extras": {
        "socket_type": "sensor_mast"
      }
    },
    {
      "name": "WardenSensorBeacon",
      "translation": [
        0.0,
        2.22,
        0.18
      ],
      "mesh": 17
    },
    {
      "name": "ProductionAssetMarker",
      "translation": [
        0.0,
        0.0,
        0.0
      ],
      "extras": {
        "asset_contract": "warden.guardian.v1",
        "source": "original_shared_mesh_builder"
      }
    }
  ],
  "meshes": [
    {
      "name": "Chassis",
      "primitives": [
        {
          "attributes": {
            "POSITION": 0,
            "NORMAL": 1
          },
          "indices": 2,
          "material": 0
        }
      ]
    },
    {
      "name": "Core",
      "primitives": [
        {
          "attributes": {
            "POSITION": 3,
            "NORMAL": 4
          },
          "indices": 5,
          "material": 2
        }
      ]
    },
    {
      "name": "Plate",
      "primitives": [
        {
          "attributes": {
            "POSITION": 6,
            "NORMAL": 7
          },
          "indices": 8,
          "material": 1
        }
      ]
    },
    {
      "name": "SidePlate",
      "primitives": [
        {
          "attributes": {
            "POSITION": 9,
            "NORMAL": 10
          },
          "indices": 11,
          "material": 1
        }
      ]
    },
    {
      "name": "Corner",
      "primitives": [
        {
          "attributes": {
            "POSITION": 12,
            "NORMAL": 13
          },
          "indices": 14,
          "material": 2
        }
      ]
    },
    {
      "name": "Leg",
      "primitives": [
        {
          "attributes": {
            "POSITION": 15,
            "NORMAL": 16
          },
          "indices": 17,
          "material": 5
        }
      ]
    },
    {
      "name": "Foot",
      "primitives": [
        {
          "attributes": {
            "POSITION": 18,
            "NORMAL": 19
          },
          "indices": 20,
          "material": 2
        }
      ]
    },
    {
      "name": "OpticHousing",
      "primitives": [
        {
          "attributes": {
            "POSITION": 21,
            "NORMAL": 22
          },
          "indices": 23,
          "material": 0
        }
      ]
    },
    {
      "name": "Optic",
      "primitives": [
        {
          "attributes": {
            "POSITION": 24,
            "NORMAL": 25
          },
          "indices": 26,
          "material": 3
        }
      ]
    },
    {
      "name": "Breech",
      "primitives": [
        {
          "attributes": {
            "POSITION": 27,
            "NORMAL": 28
          },
          "indices": 29,
          "material": 2
        }
      ]
    },
    {
      "name": "Cannon",
      "primitives": [
        {
          "attributes": {
            "POSITION": 30,
            "NORMAL": 31
          },
          "indices": 32,
          "material": 0
        }
      ]
    },
    {
      "name": "Muzzle",
      "primitives": [
        {
          "attributes": {
            "POSITION": 33,
            "NORMAL": 34
          },
          "indices": 35,
          "material": 3
        }
      ]
    },
    {
      "name": "RecoilRing",
      "primitives": [
        {
          "attributes": {
            "POSITION": 36,
            "NORMAL": 37
          },
          "indices": 38,
          "material": 4
        }
      ]
    },
    {
      "name": "HeatPanel",
      "primitives": [
        {
          "attributes": {
            "POSITION": 39,
            "NORMAL": 40
          },
          "indices": 41,
          "material": 0
        }
      ]
    },
    {
      "name": "Louver",
      "primitives": [
        {
          "attributes": {
            "POSITION": 42,
            "NORMAL": 43
          },
          "indices": 44,
          "material": 1
        }
      ]
    },
    {
      "name": "Counterweight",
      "primitives": [
        {
          "attributes": {
            "POSITION": 45,
            "NORMAL": 46
          },
          "indices": 47,
          "material": 0
        }
      ]
    },
    {
      "name": "Antenna",
      "primitives": [
        {
          "attributes": {
            "POSITION": 48,
            "NORMAL": 49
          },
          "indices": 50,
          "material": 5
        }
      ]
    },
    {
      "name": "Beacon",
      "primitives": [
        {
          "attributes": {
            "POSITION": 51,
            "NORMAL": 52
          },
          "indices": 53,
          "material": 4
        }
      ]
    },
    {
      "name": "Fastener",
      "primitives": [
        {
          "attributes": {
            "POSITION": 54,
            "NORMAL": 55
          },
          "indices": 56,
          "material": 3
        }
      ]
    }
  ],
  "materials": [
    {
      "name": "Warden charcoal chassis",
      "pbrMetallicRoughness": {
        "baseColorFactor": [
          0.04,
          0.055,
          0.06,
          1.0
        ],
        "metallicFactor": 0.84,
        "roughnessFactor": 0.4
      }
    },
    {
      "name": "Warden field steel",
      "pbrMetallicRoughness": {
        "baseColorFactor": [
          0.25,
          0.3,
          0.3,
          1.0
        ],
        "metallicFactor": 0.86,
        "roughnessFactor": 0.32
      }
    },
    {
      "name": "Warden oxide armour",
      "pbrMetallicRoughness": {
        "baseColorFactor": [
          0.3,
          0.12,
          0.06,
          1.0
        ],
        "metallicFactor": 0.62,
        "roughnessFactor": 0.55
      }
    },
    {
      "name": "Warden warm optic",
      "pbrMetallicRoughness": {
        "baseColorFactor": [
          0.45,
          0.2,
          0.04,
          1.0
        ],
        "metallicFactor": 0.28,
        "roughnessFactor": 0.3
      },
      "emissiveFactor": [
        1.0,
        0.34,
        0.05
      ]
    },
    {
      "name": "Warden cyan status",
      "pbrMetallicRoughness": {
        "baseColorFactor": [
          0.025,
          0.18,
          0.2,
          1.0
        ],
        "metallicFactor": 0.35,
        "roughnessFactor": 0.22
      },
      "emissiveFactor": [
        0.1,
        0.85,
        0.9
      ]
    },
    {
      "name": "Warden rubber",
      "pbrMetallicRoughness": {
        "baseColorFactor": [
          0.014,
          0.018,
          0.02,
          1.0
        ],
        "metallicFactor": 0.04,
        "roughnessFactor": 0.92
      }
    }
  ],
  "accessors": [
    {
      "bufferView": 0,
      "componentType": 5126,
      "count": 24,
      "type": "VEC3",
      "min": [
        -0.9,
        -0.43,
        -0.88
      ],
      "max": [
        0.9,
        0.43,
        0.88
      ]
    },
    {
      "bufferView": 1,
      "componentType": 5126,
      "count": 24,
      "type": "VEC3"
    },
    {
      "bufferView": 2,
      "componentType": 5123,
      "count": 36,
      "type": "SCALAR",
      "normalized": false
    },
    {
      "bufferView": 3,
      "componentType": 5126,
      "count": 24,
      "type": "VEC3",
      "min": [
        -0.74,
        -0.22,
        -0.71
      ],
      "max": [
        0.74,
        0.22,
        0.71
      ]
    },
    {
      "bufferView": 4,
      "componentType": 5126,
      "count": 24,
      "type": "VEC3"
    },
    {
      "bufferView": 5,
      "componentType": 5123,
      "count": 36,
      "type": "SCALAR",
      "normalized": false
    },
    {
      "bufferView": 6,
      "componentType": 5126,
      "count": 24,
      "type": "VEC3",
      "min": [
        -0.775,
        -0.1,
        -0.08
      ],
      "max": [
        0.775,
        0.1,
        0.08
      ]
    },
    {
      "bufferView": 7,
      "componentType": 5126,
      "count": 24,
      "type": "VEC3"
    },
    {
      "bufferView": 8,
      "componentType": 5123,
      "count": 36,
      "type": "SCALAR",
      "normalized": false
    },
    {
      "bufferView": 9,
      "componentType": 5126,
      "count": 24,
      "type": "VEC3",
      "min": [
        -0.11,
        -0.36,
        -0.67
      ],
      "max": [
        0.11,
        0.36,
        0.67
      ]
    },
    {
      "bufferView": 10,
      "componentType": 5126,
      "count": 24,
      "type": "VEC3"
    },
    {
      "bufferView": 11,
      "componentType": 5123,
      "count": 36,
      "type": "SCALAR",
      "normalized": false
    },
    {
      "bufferView": 12,
      "componentType": 5126,
      "count": 22,
      "type": "VEC3",
      "min": [
        -0.13,
        -0.09,
        -0.12363734711836998
      ],
      "max": [
        0.13,
        0.09,
        0.12363734711836998
      ]
    },
    {
      "bufferView": 13,
      "componentType": 5126,
      "count": 22,
      "type": "VEC3"
    },
    {
      "bufferView": 14,
      "componentType": 5123,
      "count": 120,
      "type": "SCALAR",
      "normalized": false
    },
    {
      "bufferView": 15,
      "componentType": 5126,
      "count": 26,
      "type": "VEC3",
      "min": [
        -0.13,
        -0.37,
        -0.13
      ],
      "max": [
        0.13,
        0.37,
        0.13
      ]
    },
    {
      "bufferView": 16,
      "componentType": 5126,
      "count": 26,
      "type": "VEC3"
    },
    {
      "bufferView": 17,
      "componentType": 5123,
      "count": 144,
      "type": "SCALAR",
      "normalized": false
    },
    {
      "bufferView": 18,
      "componentType": 5126,
      "count": 24,
      "type": "VEC3",
      "min": [
        -0.15,
        -0.065,
        -0.22
      ],
      "max": [
        0.15,
        0.065,
        0.22
      ]
    },
    {
      "bufferView": 19,
      "componentType": 5126,
      "count": 24,
      "type": "VEC3"
    },
    {
      "bufferView": 20,
      "componentType": 5123,
      "count": 36,
      "type": "SCALAR",
      "normalized": false
    },
    {
      "bufferView": 21,
      "componentType": 5126,
      "count": 24,
      "type": "VEC3",
      "min": [
        -0.29,
        -0.15,
        -0.07
      ],
      "max": [
        0.29,
        0.15,
        0.07
      ]
    },
    {
      "bufferView": 22,
      "componentType": 5126,
      "count": 24,
      "type": "VEC3"
    },
    {
      "bufferView": 23,
      "componentType": 5123,
      "count": 36,
      "type": "SCALAR",
      "normalized": false
    },
    {
      "bufferView": 24,
      "componentType": 5126,
      "count": 144,
      "type": "VEC3",
      "min": [
        -0.095,
        -0.095,
        -0.095
      ],
      "max": [
        0.095,
        0.095,
        0.095
      ]
    },
    {
      "bufferView": 25,
      "componentType": 5126,
      "count": 144,
      "type": "VEC3"
    },
    {
      "bufferView": 26,
      "componentType": 5123,
      "count": 768,
      "type": "SCALAR",
      "normalized": false
    },
    {
      "bufferView": 27,
      "componentType": 5126,
      "count": 24,
      "type": "VEC3",
      "min": [
        -0.33,
        -0.21,
        -0.31
      ],
      "max": [
        0.33,
        0.21,
        0.31
      ]
    },
    {
      "bufferView": 28,
      "componentType": 5126,
      "count": 24,
      "type": "VEC3"
    },
    {
      "bufferView": 29,
      "componentType": 5123,
      "count": 36,
      "type": "SCALAR",
      "normalized": false
    },
    {
      "bufferView": 30,
      "componentType": 5126,
      "count": 34,
      "type": "VEC3",
      "min": [
        -0.14,
        -0.76,
        -0.14
      ],
      "max": [
        0.14,
        0.76,
        0.14
      ]
    },
    {
      "bufferView": 31,
      "componentType": 5126,
      "count": 34,
      "type": "VEC3"
    },
    {
      "bufferView": 32,
      "componentType": 5123,
      "count": 192,
      "type": "SCALAR",
      "normalized": false
    },
    {
      "bufferView": 33,
      "componentType": 5126,
      "count": 34,
      "type": "VEC3",
      "min": [
        -0.18,
        -0.075,
        -0.18
      ],
      "max": [
        0.18,
        0.075,
        0.18
      ]
    },
    {
      "bufferView": 34,
      "componentType": 5126,
      "count": 34,
      "type": "VEC3"
    },
    {
      "bufferView": 35,
      "componentType": 5123,
      "count": 192,
      "type": "SCALAR",
      "normalized": false
    },
    {
      "bufferView": 36,
      "componentType": 5126,
      "count": 34,
      "type": "VEC3",
      "min": [
        -0.18,
        -0.045,
        -0.18
      ],
      "max": [
        0.18,
        0.045,
        0.18
      ]
    },
    {
      "bufferView": 37,
      "componentType": 5126,
      "count": 34,
      "type": "VEC3"
    },
    {
      "bufferView": 38,
      "componentType": 5123,
      "count": 192,
      "type": "SCALAR",
      "normalized": false
    },
    {
      "bufferView": 39,
      "componentType": 5126,
      "count": 24,
      "type": "VEC3",
      "min": [
        -0.46,
        -0.12,
        -0.08
      ],
      "max": [
        0.46,
        0.12,
        0.08
      ]
    },
    {
      "bufferView": 40,
      "componentType": 5126,
      "count": 24,
      "type": "VEC3"
    },
    {
      "bufferView": 41,
      "componentType": 5123,
      "count": 36,
      "type": "SCALAR",
      "normalized": false
    },
    {
      "bufferView": 42,
      "componentType": 5126,
      "count": 24,
      "type": "VEC3",
      "min": [
        -0.35,
        -0.0225,
        -0.04
      ],
      "max": [
        0.35,
        0.0225,
        0.04
      ]
    },
    {
      "bufferView": 43,
      "componentType": 5126,
      "count": 24,
      "type": "VEC3"
    },
    {
      "bufferView": 44,
      "componentType": 5123,
      "count": 36,
      "type": "SCALAR",
      "normalized": false
    },
    {
      "bufferView": 45,
      "componentType": 5126,
      "count": 24,
      "type": "VEC3",
      "min": [
        -0.84,
        -0.08,
        -0.25
      ],
      "max": [
        0.84,
        0.08,
        0.25
      ]
    },
    {
      "bufferView": 46,
      "componentType": 5126,
      "count": 24,
      "type": "VEC3"
    },
    {
      "bufferView": 47,
      "componentType": 5123,
      "count": 36,
      "type": "SCALAR",
      "normalized": false
    },
    {
      "bufferView": 48,
      "componentType": 5126,
      "count": 22,
      "type": "VEC3",
      "min": [
        -0.045,
        -0.36,
        -0.042797543233281915
      ],
      "max": [
        0.045,
        0.36,
        0.042797543233281915
      ]
    },
    {
      "bufferView": 49,
      "componentType": 5126,
      "count": 22,
      "type": "VEC3"
    },
    {
      "bufferView": 50,
      "componentType": 5123,
      "count": 120,
      "type": "SCALAR",
      "normalized": false
    },
    {
      "bufferView": 51,
      "componentType": 5126,
      "count": 144,
      "type": "VEC3",
      "min": [
        -0.1,
        -0.1,
        -0.1
      ],
      "max": [
        0.1,
        0.1,
        0.1
      ]
    },
    {
      "bufferView": 52,
      "componentType": 5126,
      "count": 144,
      "type": "VEC3"
    },
    {
      "bufferView": 53,
      "componentType": 5123,
      "count": 768,
      "type": "SCALAR",
      "normalized": false
    },
    {
      "bufferView": 54,
      "componentType": 5126,
      "count": 22,
      "type": "VEC3",
      "min": [
        -0.045,
        -0.0225,
        -0.042797543233281915
      ],
      "max": [
        0.045,
        0.0225,
        0.042797543233281915
      ]
    },
    {
      "bufferView": 55,
      "componentType": 5126,
      "count": 22,
      "type": "VEC3"
    },
    {
      "bufferView": 56,
      "componentType": 5123,
      "count": 120,
      "type": "SCALAR",
      "normalized": false
    },
    {
      "bufferView": 57,
      "componentType": 5126,
      "count": 3,
      "type": "SCALAR",
      "min": [
        0.0
      ],
      "max": [
        1.6
      ]
    },
    {
      "bufferView": 58,
      "componentType": 5126,
      "count": 3,
      "type": "VEC3"
    },
    {
      "bufferView": 59,
      "componentType": 5126,
      "count": 3,
      "type": "SCALAR",
      "min": [
        0.0
      ],
      "max": [
        0.44
      ]
    },
    {
      "bufferView": 60,
      "componentType": 5126,
      "count": 3,
      "type": "VEC4"
    },
    {
      "bufferView": 61,
      "componentType": 5126,
      "count": 3,
      "type": "SCALAR",
      "min": [
        0.0
      ],
      "max": [
        0.18
      ]
    },
    {
      "bufferView": 62,
      "componentType": 5126,
      "count": 3,
      "type": "VEC3"
    }
  ],
  "bufferViews": [
    {
      "buffer": 0,
      "byteOffset": 0,
      "byteLength": 288,
      "target": 34962
    },
    {
      "buffer": 0,
      "byteOffset": 288,
      "byteLength": 288,
      "target": 34962
    },
    {
      "buffer": 0,
      "byteOffset": 576,
      "byteLength": 72,
      "target": 34963
    },
    {
      "buffer": 0,
      "byteOffset": 648,
      "byteLength": 288,
      "target": 34962
    },
    {
      "buffer": 0,
      "byteOffset": 936,
      "byteLength": 288,
      "target": 34962
    },
    {
      "buffer": 0,
      "byteOffset": 1224,
      "byteLength": 72,
      "target": 34963
    },
    {
      "buffer": 0,
      "byteOffset": 1296,
      "byteLength": 288,
      "target": 34962
    },
    {
      "buffer": 0,
      "byteOffset": 1584,
      "byteLength": 288,
      "target": 34962
    },
    {
      "buffer": 0,
      "byteOffset": 1872,
      "byteLength": 72,
      "target": 34963
    },
    {
      "buffer": 0,
      "byteOffset": 1944,
      "byteLength": 288,
      "target": 34962
    },
    {
      "buffer": 0,
      "byteOffset": 2232,
      "byteLength": 288,
      "target": 34962
    },
    {
      "buffer": 0,
      "byteOffset": 2520,
      "byteLength": 72,
      "target": 34963
    },
    {
      "buffer": 0,
      "byteOffset": 2592,
      "byteLength": 264,
      "target": 34962
    },
    {
      "buffer": 0,
      "byteOffset": 2856,
      "byteLength": 264,
      "target": 34962
    },
    {
      "buffer": 0,
      "byteOffset": 3120,
      "byteLength": 240,
      "target": 34963
    },
    {
      "buffer": 0,
      "byteOffset": 3360,
      "byteLength": 312,
      "target": 34962
    },
    {
      "buffer": 0,
      "byteOffset": 3672,
      "byteLength": 312,
      "target": 34962
    },
    {
      "buffer": 0,
      "byteOffset": 3984,
      "byteLength": 288,
      "target": 34963
    },
    {
      "buffer": 0,
      "byteOffset": 4272,
      "byteLength": 288,
      "target": 34962
    },
    {
      "buffer": 0,
      "byteOffset": 4560,
      "byteLength": 288,
      "target": 34962
    },
    {
      "buffer": 0,
      "byteOffset": 4848,
      "byteLength": 72,
      "target": 34963
    },
    {
      "buffer": 0,
      "byteOffset": 4920,
      "byteLength": 288,
      "target": 34962
    },
    {
      "buffer": 0,
      "byteOffset": 5208,
      "byteLength": 288,
      "target": 34962
    },
    {
      "buffer": 0,
      "byteOffset": 5496,
      "byteLength": 72,
      "target": 34963
    },
    {
      "buffer": 0,
      "byteOffset": 5568,
      "byteLength": 1728,
      "target": 34962
    },
    {
      "buffer": 0,
      "byteOffset": 7296,
      "byteLength": 1728,
      "target": 34962
    },
    {
      "buffer": 0,
      "byteOffset": 9024,
      "byteLength": 1536,
      "target": 34963
    },
    {
      "buffer": 0,
      "byteOffset": 10560,
      "byteLength": 288,
      "target": 34962
    },
    {
      "buffer": 0,
      "byteOffset": 10848,
      "byteLength": 288,
      "target": 34962
    },
    {
      "buffer": 0,
      "byteOffset": 11136,
      "byteLength": 72,
      "target": 34963
    },
    {
      "buffer": 0,
      "byteOffset": 11208,
      "byteLength": 408,
      "target": 34962
    },
    {
      "buffer": 0,
      "byteOffset": 11616,
      "byteLength": 408,
      "target": 34962
    },
    {
      "buffer": 0,
      "byteOffset": 12024,
      "byteLength": 384,
      "target": 34963
    },
    {
      "buffer": 0,
      "byteOffset": 12408,
      "byteLength": 408,
      "target": 34962
    },
    {
      "buffer": 0,
      "byteOffset": 12816,
      "byteLength": 408,
      "target": 34962
    },
    {
      "buffer": 0,
      "byteOffset": 13224,
      "byteLength": 384,
      "target": 34963
    },
    {
      "buffer": 0,
      "byteOffset": 13608,
      "byteLength": 408,
      "target": 34962
    },
    {
      "buffer": 0,
      "byteOffset": 14016,
      "byteLength": 408,
      "target": 34962
    },
    {
      "buffer": 0,
      "byteOffset": 14424,
      "byteLength": 384,
      "target": 34963
    },
    {
      "buffer": 0,
      "byteOffset": 14808,
      "byteLength": 288,
      "target": 34962
    },
    {
      "buffer": 0,
      "byteOffset": 15096,
      "byteLength": 288,
      "target": 34962
    },
    {
      "buffer": 0,
      "byteOffset": 15384,
      "byteLength": 72,
      "target": 34963
    },
    {
      "buffer": 0,
      "byteOffset": 15456,
      "byteLength": 288,
      "target": 34962
    },
    {
      "buffer": 0,
      "byteOffset": 15744,
      "byteLength": 288,
      "target": 34962
    },
    {
      "buffer": 0,
      "byteOffset": 16032,
      "byteLength": 72,
      "target": 34963
    },
    {
      "buffer": 0,
      "byteOffset": 16104,
      "byteLength": 288,
      "target": 34962
    },
    {
      "buffer": 0,
      "byteOffset": 16392,
      "byteLength": 288,
      "target": 34962
    },
    {
      "buffer": 0,
      "byteOffset": 16680,
      "byteLength": 72,
      "target": 34963
    },
    {
      "buffer": 0,
      "byteOffset": 16752,
      "byteLength": 264,
      "target": 34962
    },
    {
      "buffer": 0,
      "byteOffset": 17016,
      "byteLength": 264,
      "target": 34962
    },
    {
      "buffer": 0,
      "byteOffset": 17280,
      "byteLength": 240,
      "target": 34963
    },
    {
      "buffer": 0,
      "byteOffset": 17520,
      "byteLength": 1728,
      "target": 34962
    },
    {
      "buffer": 0,
      "byteOffset": 19248,
      "byteLength": 1728,
      "target": 34962
    },
    {
      "buffer": 0,
      "byteOffset": 20976,
      "byteLength": 1536,
      "target": 34963
    },
    {
      "buffer": 0,
      "byteOffset": 22512,
      "byteLength": 264,
      "target": 34962
    },
    {
      "buffer": 0,
      "byteOffset": 22776,
      "byteLength": 264,
      "target": 34962
    },
    {
      "buffer": 0,
      "byteOffset": 23040,
      "byteLength": 240,
      "target": 34963
    },
    {
      "buffer": 0,
      "byteOffset": 23280,
      "byteLength": 12
    },
    {
      "buffer": 0,
      "byteOffset": 23292,
      "byteLength": 36
    },
    {
      "buffer": 0,
      "byteOffset": 23328,
      "byteLength": 12
    },
    {
      "buffer": 0,
      "byteOffset": 23340,
      "byteLength": 48
    },
    {
      "buffer": 0,
      "byteOffset": 23388,
      "byteLength": 12
    },
    {
      "buffer": 0,
      "byteOffset": 23400,
      "byteLength": 36
    }
  ],
  "buffers": [
    {
      "byteLength": 23436,
      "uri": "data:application/octet-stream;base64,"
    }
  ],
  "animations": [
    {
      "name": "Idle",
      "samplers": [
        {
          "input": 57,
          "output": 58,
          "interpolation": "LINEAR"
        }
      ],
      "channels": [
        {
          "sampler": 0,
          "target": {
            "node": 0,
            "path": "translation"
          }
        }
      ]
    },
    {
      "name": "Walk",
      "samplers": [
        {
          "input": 59,
          "output": 60,
          "interpolation": "LINEAR"
        }
      ],
      "channels": [
        {
          "sampler": 0,
          "target": {
            "node": 19,
            "path": "rotation"
          }
        }
      ]
    },
    {
      "name": "Fire",
      "samplers": [
        {
          "input": 61,
          "output": 62,
          "interpolation": "LINEAR"
        }
      ],
      "channels": [
        {
          "sampler": 0,
          "target": {
            "node": 26,
            "path": "translation"
          }
        }
      ]
    }
  ],
  "extras": {
    "ironwright_asset_id": "warden.guardian.v1",
    "required_nodes": [
      "WardenModel",
      "Sensor",
      "OpticLens",
      "WardenAutocannon",
      "WeaponMuzzle",
      "WardenHeatExchanger",
      "ProductionAssetMarker"
    ],
    "animation_clips": [
      "Idle",
      "Walk",
      "Fire"
    ]
  }
}
