{
  "asset": {
    "version": "2.0",
    "generator": "Project Ironwright original Signal Relay asset builder"
  },
  "scene": 0,
  "scenes": [
    {
      "name": "Signal Relay",
      "nodes": [
        0
      ]
    }
  ],
  "nodes": [
    {
      "name": "RelayModel",
      "children": [
        1,
        3,
        4,
        5,
        6,
        7,
        8,
        9,
        10,
        11,
        12,
        13,
        14,
        15,
        16,
        17,
        18,
        19,
        20,
        21,
        22,
        23,
        24,
        25,
        26,
        27,
        28,
        29,
        30,
        31,
        32,
        33,
        34,
        35,
        36,
        37,
        38,
        39,
        40
      ],
      "extras": {
        "ironwright_asset_id": "relay.signal.v1",
        "asset_quality": "authored_high_definition",
        "manufactured_surface_profile": "chamfered_high_definition",
        "socket_contract": "sensor, signal_mast, directional_dish, signal_beacon"
      }
    },
    {
      "name": "Chassis",
      "translation": [
        0.0,
        0.82,
        0.0
      ],
      "mesh": 0,
      "extras": {
        "surface": "beveled_primary_body"
      },
      "children": [
        2
      ]
    },
    {
      "name": "ChassisCore",
      "translation": [
        0.0,
        0.1,
        0.0
      ],
      "mesh": 1
    },
    {
      "name": "RelayServiceFace",
      "translation": [
        0.0,
        1.15,
        -0.74
      ],
      "mesh": 2,
      "extras": {
        "socket_type": "service_face"
      }
    },
    {
      "name": "RelayHeatSink",
      "translation": [
        0.0,
        0.92,
        0.74
      ],
      "mesh": 3,
      "extras": {
        "socket_type": "heat_sink"
      }
    },
    {
      "name": "RelayCornerCap",
      "translation": [
        -0.48,
        0.82,
        -0.56
      ],
      "mesh": 4
    },
    {
      "name": "RelayCornerCap",
      "translation": [
        -0.48,
        0.82,
        0.56
      ],
      "mesh": 4
    },
    {
      "name": "RelayLegLeft",
      "translation": [
        -0.43,
        0.43,
        0.0
      ],
      "mesh": 5
    },
    {
      "name": "RelayFootLeft",
      "translation": [
        -0.5,
        0.12,
        -0.04
      ],
      "mesh": 6
    },
    {
      "name": "RelayBraceLeft",
      "translation": [
        -0.53,
        1.17,
        0.12
      ],
      "mesh": 15,
      "rotation": [
        0.0,
        0.0,
        -0.1395431146442365,
        0.9902159962126371
      ]
    },
    {
      "name": "RelaySignalPanelLeft",
      "translation": [
        -0.69,
        1.0,
        0.0
      ],
      "mesh": 16,
      "rotation": [
        0.0,
        0.0,
        -0.09983341664682815,
        0.9950041652780258
      ],
      "extras": {
        "socket_type": "signal_panel"
      }
    },
    {
      "name": "RelayCornerCap",
      "translation": [
        0.48,
        0.82,
        -0.56
      ],
      "mesh": 4
    },
    {
      "name": "RelayCornerCap",
      "translation": [
        0.48,
        0.82,
        0.56
      ],
      "mesh": 4
    },
    {
      "name": "RelayLegRight",
      "translation": [
        0.43,
        0.43,
        0.0
      ],
      "mesh": 5
    },
    {
      "name": "RelayFootRight",
      "translation": [
        0.5,
        0.12,
        -0.04
      ],
      "mesh": 6
    },
    {
      "name": "RelayBraceRight",
      "translation": [
        0.53,
        1.17,
        0.12
      ],
      "mesh": 15,
      "rotation": [
        0.0,
        0.0,
        0.1395431146442365,
        0.9902159962126371
      ]
    },
    {
      "name": "RelaySignalPanelRight",
      "translation": [
        0.69,
        1.0,
        0.0
      ],
      "mesh": 16,
      "rotation": [
        0.0,
        0.0,
        0.09983341664682815,
        0.9950041652780258
      ],
      "extras": {
        "socket_type": "signal_panel"
      }
    },
    {
      "name": "OpticHousing",
      "translation": [
        0.0,
        1.36,
        -0.82
      ],
      "mesh": 7
    },
    {
      "name": "Sensor",
      "translation": [
        0.0,
        1.36,
        -0.93
      ],
      "mesh": 8,
      "extras": {
        "socket_type": "sensor"
      }
    },
    {
      "name": "OpticLens",
      "translation": [
        0.0,
        1.36,
        -0.98
      ],
      "mesh": 8,
      "extras": {
        "socket_type": "optic"
      }
    },
    {
      "name": "RelayMast",
      "translation": [
        0.0,
        1.68,
        0.08
      ],
      "mesh": 9,
      "extras": {
        "socket_type": "signal_mast"
      }
    },
    {
      "name": "RelayMastFoot",
      "translation": [
        0.0,
        1.28,
        0.08
      ],
      "mesh": 11,
      "extras": {
        "surface": "mast_root_service_collar"
      }
    },
    {
      "name": "RelayMastFootFastenerLeft",
      "translation": [
        -0.14,
        1.34,
        -0.04
      ],
      "mesh": 17,
      "rotation": [
        0.7071067811865476,
        0.0,
        0.0,
        0.7071067811865476
      ],
      "extras": {
        "surface": "mast_root_fastener"
      }
    },
    {
      "name": "RelayMastFootFastenerRight",
      "translation": [
        0.14,
        1.34,
        -0.04
      ],
      "mesh": 17,
      "rotation": [
        0.7071067811865476,
        0.0,
        0.0,
        0.7071067811865476
      ],
      "extras": {
        "surface": "mast_root_fastener"
      }
    },
    {
      "name": "RelayMastCollar",
      "translation": [
        0.0,
        1.58,
        0.08
      ],
      "mesh": 10
    },
    {
      "name": "RelayMastBraceLeft",
      "translation": [
        -0.16,
        1.75,
        0.08
      ],
      "mesh": 18,
      "rotation": [
        0.0,
        0.0,
        -0.16918234906699603,
        0.9855847669095608
      ]
    },
    {
      "name": "RelayMastBraceRight",
      "translation": [
        0.16,
        1.75,
        0.08
      ],
      "mesh": 18,
      "rotation": [
        0.0,
        0.0,
        0.16918234906699603,
        0.9855847669095608
      ]
    },
    {
      "name": "RelayDirectionalDish",
      "translation": [
        0.0,
        2.12,
        0.0
      ],
      "mesh": 12,
      "rotation": [
        0.27154693695611287,
        0.0,
        0.0,
        0.962425197628238
      ],
      "extras": {
        "socket_type": "directional_dish"
      }
    },
    {
      "name": "RelayDishRim",
      "translation": [
        0.0,
        2.19,
        0.02
      ],
      "mesh": 13,
      "rotation": [
        0.27154693695611287,
        0.0,
        0.0,
        0.962425197628238
      ]
    },
    {
      "name": "RelayDishHub",
      "translation": [
        0.0,
        2.12,
        -0.12
      ],
      "mesh": 19,
      "rotation": [
        0.27154693695611287,
        0.0,
        0.0,
        0.962425197628238
      ]
    },
    {
      "name": "RelayBeacon",
      "translation": [
        0.0,
        2.3,
        -0.04
      ],
      "mesh": 14,
      "extras": {
        "socket_type": "signal_beacon"
      }
    },
    {
      "name": "RelayBeaconCap",
      "translation": [
        0.0,
        2.34,
        -0.04
      ],
      "mesh": 22
    },
    {
      "name": "RelayDishRibLeft",
      "translation": [
        -0.18,
        2.38,
        0.0
      ],
      "mesh": 15,
      "rotation": [
        0.0,
        0.0,
        -0.09983341664682815,
        0.9950041652780258
      ]
    },
    {
      "name": "RelayDishRibRight",
      "translation": [
        0.18,
        2.38,
        0.0
      ],
      "mesh": 15,
      "rotation": [
        0.0,
        0.0,
        0.09983341664682815,
        0.9950041652780258
      ]
    },
    {
      "name": "RelayDishRibFront",
      "translation": [
        0.0,
        2.38,
        -0.18
      ],
      "mesh": 15,
      "rotation": [
        0.09983341664682815,
        0.0,
        0.0,
        0.9950041652780258
      ]
    },
    {
      "name": "RelayDishRibRear",
      "translation": [
        0.0,
        2.38,
        0.18
      ],
      "mesh": 15,
      "rotation": [
        -0.09983341664682815,
        0.0,
        0.0,
        0.9950041652780258
      ]
    },
    {
      "name": "RelayFastenerLeft",
      "translation": [
        -0.39,
        1.19,
        -0.79
      ],
      "mesh": 17,
      "rotation": [
        0.7071067811865476,
        0.0,
        0.0,
        0.7071067811865476
      ]
    },
    {
      "name": "RelayFastenerRight",
      "translation": [
        0.39,
        1.19,
        -0.79
      ],
      "mesh": 17,
      "rotation": [
        0.7071067811865476,
        0.0,
        0.0,
        0.7071067811865476
      ]
    },
    {
      "name": "RelayServiceLatch",
      "translation": [
        0.0,
        1.18,
        -0.8
      ],
      "mesh": 21
    },
    {
      "name": "RelaySignalCable",
      "translation": [
        0.0,
        1.42,
        0.74
      ],
      "mesh": 20,
      "rotation": [
        0.0,
        0.0,
        0.059964006479444595,
        0.9982005399352042
      ]
    },
    {
      "name": "ProductionAssetMarker",
      "translation": [
        0.0,
        0.0,
        0.0
      ],
      "extras": {
        "asset_contract": "relay.signal.v1",
        "source": "original_shared_mesh_builder"
      }
    }
  ],
  "meshes": [
    {
      "name": "Chassis",
      "primitives": [
        {
          "attributes": {
            "POSITION": 0,
            "NORMAL": 1,
            "TEXCOORD_0": 2,
            "TANGENT": 3
          },
          "indices": 4,
          "material": 0
        }
      ]
    },
    {
      "name": "Core",
      "primitives": [
        {
          "attributes": {
            "POSITION": 5,
            "NORMAL": 6,
            "TEXCOORD_0": 7,
            "TANGENT": 8
          },
          "indices": 9,
          "material": 2
        }
      ]
    },
    {
      "name": "Face",
      "primitives": [
        {
          "attributes": {
            "POSITION": 10,
            "NORMAL": 11,
            "TEXCOORD_0": 12,
            "TANGENT": 13
          },
          "indices": 14,
          "material": 1
        }
      ]
    },
    {
      "name": "HeatSink",
      "primitives": [
        {
          "attributes": {
            "POSITION": 15,
            "NORMAL": 16,
            "TEXCOORD_0": 17,
            "TANGENT": 18
          },
          "indices": 19,
          "material": 1
        }
      ]
    },
    {
      "name": "Corner",
      "primitives": [
        {
          "attributes": {
            "POSITION": 20,
            "NORMAL": 21,
            "TEXCOORD_0": 22,
            "TANGENT": 23
          },
          "indices": 24,
          "material": 1
        }
      ]
    },
    {
      "name": "Leg",
      "primitives": [
        {
          "attributes": {
            "POSITION": 25,
            "NORMAL": 26,
            "TEXCOORD_0": 27,
            "TANGENT": 28
          },
          "indices": 29,
          "material": 4
        }
      ]
    },
    {
      "name": "Foot",
      "primitives": [
        {
          "attributes": {
            "POSITION": 30,
            "NORMAL": 31,
            "TEXCOORD_0": 32,
            "TANGENT": 33
          },
          "indices": 34,
          "material": 1
        }
      ]
    },
    {
      "name": "OpticHousing",
      "primitives": [
        {
          "attributes": {
            "POSITION": 35,
            "NORMAL": 36,
            "TEXCOORD_0": 37,
            "TANGENT": 38
          },
          "indices": 39,
          "material": 0
        }
      ]
    },
    {
      "name": "Optic",
      "primitives": [
        {
          "attributes": {
            "POSITION": 40,
            "NORMAL": 41,
            "TEXCOORD_0": 42,
            "TANGENT": 43
          },
          "indices": 44,
          "material": 3
        }
      ]
    },
    {
      "name": "Mast",
      "primitives": [
        {
          "attributes": {
            "POSITION": 45,
            "NORMAL": 46,
            "TEXCOORD_0": 47,
            "TANGENT": 48
          },
          "indices": 49,
          "material": 4
        }
      ]
    },
    {
      "name": "Collar",
      "primitives": [
        {
          "attributes": {
            "POSITION": 50,
            "NORMAL": 51,
            "TEXCOORD_0": 52,
            "TANGENT": 53
          },
          "indices": 54,
          "material": 2
        }
      ]
    },
    {
      "name": "MastFoot",
      "primitives": [
        {
          "attributes": {
            "POSITION": 55,
            "NORMAL": 56,
            "TEXCOORD_0": 57,
            "TANGENT": 58
          },
          "indices": 59,
          "material": 1
        }
      ]
    },
    {
      "name": "Dish",
      "primitives": [
        {
          "attributes": {
            "POSITION": 60,
            "NORMAL": 61,
            "TEXCOORD_0": 62,
            "TANGENT": 63
          },
          "indices": 64,
          "material": 1
        }
      ]
    },
    {
      "name": "DishRim",
      "primitives": [
        {
          "attributes": {
            "POSITION": 65,
            "NORMAL": 66,
            "TEXCOORD_0": 67,
            "TANGENT": 68
          },
          "indices": 69,
          "material": 3
        }
      ]
    },
    {
      "name": "Beacon",
      "primitives": [
        {
          "attributes": {
            "POSITION": 70,
            "NORMAL": 71,
            "TEXCOORD_0": 72,
            "TANGENT": 73
          },
          "indices": 74,
          "material": 3
        }
      ]
    },
    {
      "name": "Brace",
      "primitives": [
        {
          "attributes": {
            "POSITION": 75,
            "NORMAL": 76,
            "TEXCOORD_0": 77,
            "TANGENT": 78
          },
          "indices": 79,
          "material": 0
        }
      ]
    },
    {
      "name": "Panel",
      "primitives": [
        {
          "attributes": {
            "POSITION": 80,
            "NORMAL": 81,
            "TEXCOORD_0": 82,
            "TANGENT": 83
          },
          "indices": 84,
          "material": 3
        }
      ]
    },
    {
      "name": "Fastener",
      "primitives": [
        {
          "attributes": {
            "POSITION": 85,
            "NORMAL": 86,
            "TEXCOORD_0": 87,
            "TANGENT": 88
          },
          "indices": 89,
          "material": 2
        }
      ]
    },
    {
      "name": "MastBraceDetail",
      "primitives": [
        {
          "attributes": {
            "POSITION": 90,
            "NORMAL": 91,
            "TEXCOORD_0": 92,
            "TANGENT": 93
          },
          "indices": 94,
          "material": 4
        }
      ]
    },
    {
      "name": "DishHub",
      "primitives": [
        {
          "attributes": {
            "POSITION": 95,
            "NORMAL": 96,
            "TEXCOORD_0": 97,
            "TANGENT": 98
          },
          "indices": 99,
          "material": 2
        }
      ]
    },
    {
      "name": "SignalCable",
      "primitives": [
        {
          "attributes": {
            "POSITION": 100,
            "NORMAL": 101,
            "TEXCOORD_0": 102,
            "TANGENT": 103
          },
          "indices": 104,
          "material": 4
        }
      ]
    },
    {
      "name": "ServiceLatch",
      "primitives": [
        {
          "attributes": {
            "POSITION": 105,
            "NORMAL": 106,
            "TEXCOORD_0": 107,
            "TANGENT": 108
          },
          "indices": 109,
          "material": 1
        }
      ]
    },
    {
      "name": "BeaconCap",
      "primitives": [
        {
          "attributes": {
            "POSITION": 110,
            "NORMAL": 111,
            "TEXCOORD_0": 112,
            "TANGENT": 113
          },
          "indices": 114,
          "material": 3
        }
      ]
    }
  ],
  "materials": [
    {
      "name": "Relay charcoal chassis",
      "pbrMetallicRoughness": {
        "baseColorFactor": [
          0.055,
          0.09,
          0.1,
          1.0
        ],
        "metallicFactor": 0.82,
        "roughnessFactor": 0.34
      }
    },
    {
      "name": "Relay weathered ceramic",
      "pbrMetallicRoughness": {
        "baseColorFactor": [
          0.34,
          0.42,
          0.42,
          1.0
        ],
        "metallicFactor": 0.7,
        "roughnessFactor": 0.38
      }
    },
    {
      "name": "Relay amber spine",
      "pbrMetallicRoughness": {
        "baseColorFactor": [
          0.42,
          0.17,
          0.045,
          1.0
        ],
        "metallicFactor": 0.42,
        "roughnessFactor": 0.42
      },
      "emissiveFactor": [
        0.42,
        0.08,
        0.015
      ]
    },
    {
      "name": "Relay cyan signal",
      "pbrMetallicRoughness": {
        "baseColorFactor": [
          0.025,
          0.24,
          0.27,
          1.0
        ],
        "metallicFactor": 0.3,
        "roughnessFactor": 0.22
      },
      "emissiveFactor": [
        0.1,
        0.9,
        0.95
      ]
    },
    {
      "name": "Relay rubber cable",
      "pbrMetallicRoughness": {
        "baseColorFactor": [
          0.012,
          0.018,
          0.02,
          1.0
        ],
        "metallicFactor": 0.04,
        "roughnessFactor": 0.9
      }
    }
  ],
  "accessors": [
    {
      "bufferView": 0,
      "componentType": 5126,
      "count": 684,
      "type": "VEC3",
      "min": [
        -0.61,
        -0.34,
        -0.71
      ],
      "max": [
        0.61,
        0.34,
        0.71
      ]
    },
    {
      "bufferView": 1,
      "componentType": 5126,
      "count": 684,
      "type": "VEC3"
    },
    {
      "bufferView": 2,
      "componentType": 5126,
      "count": 684,
      "type": "VEC2"
    },
    {
      "bufferView": 3,
      "componentType": 5126,
      "count": 684,
      "type": "VEC4"
    },
    {
      "bufferView": 4,
      "componentType": 5123,
      "count": 3888,
      "type": "SCALAR",
      "normalized": false
    },
    {
      "bufferView": 5,
      "componentType": 5126,
      "count": 684,
      "type": "VEC3",
      "min": [
        -0.45,
        -0.14,
        -0.54
      ],
      "max": [
        0.45,
        0.14,
        0.54
      ]
    },
    {
      "bufferView": 6,
      "componentType": 5126,
      "count": 684,
      "type": "VEC3"
    },
    {
      "bufferView": 7,
      "componentType": 5126,
      "count": 684,
      "type": "VEC2"
    },
    {
      "bufferView": 8,
      "componentType": 5126,
      "count": 684,
      "type": "VEC4"
    },
    {
      "bufferView": 9,
      "componentType": 5123,
      "count": 3888,
      "type": "SCALAR",
      "normalized": false
    },
    {
      "bufferView": 10,
      "componentType": 5126,
      "count": 96,
      "type": "VEC3",
      "min": [
        -0.38,
        -0.14,
        -0.04
      ],
      "max": [
        0.38,
        0.14,
        0.04
      ]
    },
    {
      "bufferView": 11,
      "componentType": 5126,
      "count": 96,
      "type": "VEC3"
    },
    {
      "bufferView": 12,
      "componentType": 5126,
      "count": 96,
      "type": "VEC2"
    },
    {
      "bufferView": 13,
      "componentType": 5126,
      "count": 96,
      "type": "VEC4"
    },
    {
      "bufferView": 14,
      "componentType": 5123,
      "count": 132,
      "type": "SCALAR",
      "normalized": false
    },
    {
      "bufferView": 15,
      "componentType": 5126,
      "count": 96,
      "type": "VEC3",
      "min": [
        -0.4,
        -0.15,
        -0.07
      ],
      "max": [
        0.4,
        0.15,
        0.07
      ]
    },
    {
      "bufferView": 16,
      "componentType": 5126,
      "count": 96,
      "type": "VEC3"
    },
    {
      "bufferView": 17,
      "componentType": 5126,
      "count": 96,
      "type": "VEC2"
    },
    {
      "bufferView": 18,
      "componentType": 5126,
      "count": 96,
      "type": "VEC4"
    },
    {
      "bufferView": 19,
      "componentType": 5123,
      "count": 132,
      "type": "SCALAR",
      "normalized": false
    },
    {
      "bufferView": 20,
      "componentType": 5126,
      "count": 50,
      "type": "VEC3",
      "min": [
        -0.1,
        -0.07,
        -0.1
      ],
      "max": [
        0.1,
        0.07,
        0.1
      ]
    },
    {
      "bufferView": 21,
      "componentType": 5126,
      "count": 50,
      "type": "VEC3"
    },
    {
      "bufferView": 22,
      "componentType": 5126,
      "count": 50,
      "type": "VEC2"
    },
    {
      "bufferView": 23,
      "componentType": 5126,
      "count": 50,
      "type": "VEC4"
    },
    {
      "bufferView": 24,
      "componentType": 5123,
      "count": 288,
      "type": "SCALAR",
      "normalized": false
    },
    {
      "bufferView": 25,
      "componentType": 5126,
      "count": 50,
      "type": "VEC3",
      "min": [
        -0.095,
        -0.29,
        -0.095
      ],
      "max": [
        0.095,
        0.29,
        0.095
      ]
    },
    {
      "bufferView": 26,
      "componentType": 5126,
      "count": 50,
      "type": "VEC3"
    },
    {
      "bufferView": 27,
      "componentType": 5126,
      "count": 50,
      "type": "VEC2"
    },
    {
      "bufferView": 28,
      "componentType": 5126,
      "count": 50,
      "type": "VEC4"
    },
    {
      "bufferView": 29,
      "componentType": 5123,
      "count": 288,
      "type": "SCALAR",
      "normalized": false
    },
    {
      "bufferView": 30,
      "componentType": 5126,
      "count": 96,
      "type": "VEC3",
      "min": [
        -0.125,
        -0.06,
        -0.21
      ],
      "max": [
        0.125,
        0.06,
        0.21
      ]
    },
    {
      "bufferView": 31,
      "componentType": 5126,
      "count": 96,
      "type": "VEC3"
    },
    {
      "bufferView": 32,
      "componentType": 5126,
      "count": 96,
      "type": "VEC2"
    },
    {
      "bufferView": 33,
      "componentType": 5126,
      "count": 96,
      "type": "VEC4"
    },
    {
      "bufferView": 34,
      "componentType": 5123,
      "count": 132,
      "type": "SCALAR",
      "normalized": false
    },
    {
      "bufferView": 35,
      "componentType": 5126,
      "count": 96,
      "type": "VEC3",
      "min": [
        -0.19,
        -0.1,
        -0.06
      ],
      "max": [
        0.19,
        0.1,
        0.06
      ]
    },
    {
      "bufferView": 36,
      "componentType": 5126,
      "count": 96,
      "type": "VEC3"
    },
    {
      "bufferView": 37,
      "componentType": 5126,
      "count": 96,
      "type": "VEC2"
    },
    {
      "bufferView": 38,
      "componentType": 5126,
      "count": 96,
      "type": "VEC4"
    },
    {
      "bufferView": 39,
      "componentType": 5123,
      "count": 132,
      "type": "SCALAR",
      "normalized": false
    },
    {
      "bufferView": 40,
      "componentType": 5126,
      "count": 408,
      "type": "VEC3",
      "min": [
        -0.085,
        -0.085,
        -0.085
      ],
      "max": [
        0.085,
        0.085,
        0.085
      ]
    },
    {
      "bufferView": 41,
      "componentType": 5126,
      "count": 408,
      "type": "VEC3"
    },
    {
      "bufferView": 42,
      "componentType": 5126,
      "count": 408,
      "type": "VEC2"
    },
    {
      "bufferView": 43,
      "componentType": 5126,
      "count": 408,
      "type": "VEC4"
    },
    {
      "bufferView": 44,
      "componentType": 5123,
      "count": 2304,
      "type": "SCALAR",
      "normalized": false
    },
    {
      "bufferView": 45,
      "componentType": 5126,
      "count": 50,
      "type": "VEC3",
      "min": [
        -0.07,
        -0.59,
        -0.07
      ],
      "max": [
        0.07,
        0.59,
        0.07
      ]
    },
    {
      "bufferView": 46,
      "componentType": 5126,
      "count": 50,
      "type": "VEC3"
    },
    {
      "bufferView": 47,
      "componentType": 5126,
      "count": 50,
      "type": "VEC2"
    },
    {
      "bufferView": 48,
      "componentType": 5126,
      "count": 50,
      "type": "VEC4"
    },
    {
      "bufferView": 49,
      "componentType": 5123,
      "count": 288,
      "type": "SCALAR",
      "normalized": false
    },
    {
      "bufferView": 50,
      "componentType": 5126,
      "count": 50,
      "type": "VEC3",
      "min": [
        -0.115,
        -0.04,
        -0.115
      ],
      "max": [
        0.115,
        0.04,
        0.115
      ]
    },
    {
      "bufferView": 51,
      "componentType": 5126,
      "count": 50,
      "type": "VEC3"
    },
    {
      "bufferView": 52,
      "componentType": 5126,
      "count": 50,
      "type": "VEC2"
    },
    {
      "bufferView": 53,
      "componentType": 5126,
      "count": 50,
      "type": "VEC4"
    },
    {
      "bufferView": 54,
      "componentType": 5123,
      "count": 288,
      "type": "SCALAR",
      "normalized": false
    },
    {
      "bufferView": 55,
      "componentType": 5126,
      "count": 50,
      "type": "VEC3",
      "min": [
        -0.22,
        -0.05,
        -0.22
      ],
      "max": [
        0.22,
        0.05,
        0.22
      ]
    },
    {
      "bufferView": 56,
      "componentType": 5126,
      "count": 50,
      "type": "VEC3"
    },
    {
      "bufferView": 57,
      "componentType": 5126,
      "count": 50,
      "type": "VEC2"
    },
    {
      "bufferView": 58,
      "componentType": 5126,
      "count": 50,
      "type": "VEC4"
    },
    {
      "bufferView": 59,
      "componentType": 5123,
      "count": 288,
      "type": "SCALAR",
      "normalized": false
    },
    {
      "bufferView": 60,
      "componentType": 5126,
      "count": 217,
      "type": "VEC3",
      "min": [
        -0.4,
        -0.09,
        -0.4
      ],
      "max": [
        0.4,
        0.09,
        0.4
      ]
    },
    {
      "bufferView": 61,
      "componentType": 5126,
      "count": 217,
      "type": "VEC3"
    },
    {
      "bufferView": 62,
      "componentType": 5126,
      "count": 217,
      "type": "VEC2"
    },
    {
      "bufferView": 63,
      "componentType": 5126,
      "count": 217,
      "type": "VEC4"
    },
    {
      "bufferView": 64,
      "componentType": 5123,
      "count": 1188,
      "type": "SCALAR",
      "normalized": false
    },
    {
      "bufferView": 65,
      "componentType": 5126,
      "count": 50,
      "type": "VEC3",
      "min": [
        -0.39,
        -0.02,
        -0.39
      ],
      "max": [
        0.39,
        0.02,
        0.39
      ]
    },
    {
      "bufferView": 66,
      "componentType": 5126,
      "count": 50,
      "type": "VEC3"
    },
    {
      "bufferView": 67,
      "componentType": 5126,
      "count": 50,
      "type": "VEC2"
    },
    {
      "bufferView": 68,
      "componentType": 5126,
      "count": 50,
      "type": "VEC4"
    },
    {
      "bufferView": 69,
      "componentType": 5123,
      "count": 288,
      "type": "SCALAR",
      "normalized": false
    },
    {
      "bufferView": 70,
      "componentType": 5126,
      "count": 408,
      "type": "VEC3",
      "min": [
        -0.095,
        -0.095,
        -0.095
      ],
      "max": [
        0.095,
        0.095,
        0.095
      ]
    },
    {
      "bufferView": 71,
      "componentType": 5126,
      "count": 408,
      "type": "VEC3"
    },
    {
      "bufferView": 72,
      "componentType": 5126,
      "count": 408,
      "type": "VEC2"
    },
    {
      "bufferView": 73,
      "componentType": 5126,
      "count": 408,
      "type": "VEC4"
    },
    {
      "bufferView": 74,
      "componentType": 5123,
      "count": 2304,
      "type": "SCALAR",
      "normalized": false
    },
    {
      "bufferView": 75,
      "componentType": 5126,
      "count": 96,
      "type": "VEC3",
      "min": [
        -0.04,
        -0.06,
        -0.29
      ],
      "max": [
        0.04,
        0.06,
        0.29
      ]
    },
    {
      "bufferView": 76,
      "componentType": 5126,
      "count": 96,
      "type": "VEC3"
    },
    {
      "bufferView": 77,
      "componentType": 5126,
      "count": 96,
      "type": "VEC2"
    },
    {
      "bufferView": 78,
      "componentType": 5126,
      "count": 96,
      "type": "VEC4"
    },
    {
      "bufferView": 79,
      "componentType": 5123,
      "count": 132,
      "type": "SCALAR",
      "normalized": false
    },
    {
      "bufferView": 80,
      "componentType": 5126,
      "count": 96,
      "type": "VEC3",
      "min": [
        -0.12,
        -0.15,
        -0.04
      ],
      "max": [
        0.12,
        0.15,
        0.04
      ]
    },
    {
      "bufferView": 81,
      "componentType": 5126,
      "count": 96,
      "type": "VEC3"
    },
    {
      "bufferView": 82,
      "componentType": 5126,
      "count": 96,
      "type": "VEC2"
    },
    {
      "bufferView": 83,
      "componentType": 5126,
      "count": 96,
      "type": "VEC4"
    },
    {
      "bufferView": 84,
      "componentType": 5123,
      "count": 132,
      "type": "SCALAR",
      "normalized": false
    },
    {
      "bufferView": 85,
      "componentType": 5126,
      "count": 50,
      "type": "VEC3",
      "min": [
        -0.04,
        -0.02,
        -0.04
      ],
      "max": [
        0.04,
        0.02,
        0.04
      ]
    },
    {
      "bufferView": 86,
      "componentType": 5126,
      "count": 50,
      "type": "VEC3"
    },
    {
      "bufferView": 87,
      "componentType": 5126,
      "count": 50,
      "type": "VEC2"
    },
    {
      "bufferView": 88,
      "componentType": 5126,
      "count": 50,
      "type": "VEC4"
    },
    {
      "bufferView": 89,
      "componentType": 5123,
      "count": 288,
      "type": "SCALAR",
      "normalized": false
    },
    {
      "bufferView": 90,
      "componentType": 5126,
      "count": 96,
      "type": "VEC3",
      "min": [
        -0.05,
        -0.07,
        -0.36
      ],
      "max": [
        0.05,
        0.07,
        0.36
      ]
    },
    {
      "bufferView": 91,
      "componentType": 5126,
      "count": 96,
      "type": "VEC3"
    },
    {
      "bufferView": 92,
      "componentType": 5126,
      "count": 96,
      "type": "VEC2"
    },
    {
      "bufferView": 93,
      "componentType": 5126,
      "count": 96,
      "type": "VEC4"
    },
    {
      "bufferView": 94,
      "componentType": 5123,
      "count": 132,
      "type": "SCALAR",
      "normalized": false
    },
    {
      "bufferView": 95,
      "componentType": 5126,
      "count": 50,
      "type": "VEC3",
      "min": [
        -0.14,
        -0.065,
        -0.14
      ],
      "max": [
        0.14,
        0.065,
        0.14
      ]
    },
    {
      "bufferView": 96,
      "componentType": 5126,
      "count": 50,
      "type": "VEC3"
    },
    {
      "bufferView": 97,
      "componentType": 5126,
      "count": 50,
      "type": "VEC2"
    },
    {
      "bufferView": 98,
      "componentType": 5126,
      "count": 50,
      "type": "VEC4"
    },
    {
      "bufferView": 99,
      "componentType": 5123,
      "count": 288,
      "type": "SCALAR",
      "normalized": false
    },
    {
      "bufferView": 100,
      "componentType": 5126,
      "count": 50,
      "type": "VEC3",
      "min": [
        -0.035,
        -0.36,
        -0.035
      ],
      "max": [
        0.035,
        0.36,
        0.035
      ]
    },
    {
      "bufferView": 101,
      "componentType": 5126,
      "count": 50,
      "type": "VEC3"
    },
    {
      "bufferView": 102,
      "componentType": 5126,
      "count": 50,
      "type": "VEC2"
    },
    {
      "bufferView": 103,
      "componentType": 5126,
      "count": 50,
      "type": "VEC4"
    },
    {
      "bufferView": 104,
      "componentType": 5123,
      "count": 288,
      "type": "SCALAR",
      "normalized": false
    },
    {
      "bufferView": 105,
      "componentType": 5126,
      "count": 96,
      "type": "VEC3",
      "min": [
        -0.07,
        -0.04,
        -0.03
      ],
      "max": [
        0.07,
        0.04,
        0.03
      ]
    },
    {
      "bufferView": 106,
      "componentType": 5126,
      "count": 96,
      "type": "VEC3"
    },
    {
      "bufferView": 107,
      "componentType": 5126,
      "count": 96,
      "type": "VEC2"
    },
    {
      "bufferView": 108,
      "componentType": 5126,
      "count": 96,
      "type": "VEC4"
    },
    {
      "bufferView": 109,
      "componentType": 5123,
      "count": 132,
      "type": "SCALAR",
      "normalized": false
    },
    {
      "bufferView": 110,
      "componentType": 5126,
      "count": 672,
      "type": "VEC3",
      "min": [
        -0.12,
        -0.12,
        -0.12
      ],
      "max": [
        0.12,
        0.12,
        0.12
      ]
    },
    {
      "bufferView": 111,
      "componentType": 5126,
      "count": 672,
      "type": "VEC3"
    },
    {
      "bufferView": 112,
      "componentType": 5126,
      "count": 672,
      "type": "VEC2"
    },
    {
      "bufferView": 113,
      "componentType": 5126,
      "count": 672,
      "type": "VEC4"
    },
    {
      "bufferView": 114,
      "componentType": 5123,
      "count": 3840,
      "type": "SCALAR",
      "normalized": false
    },
    {
      "bufferView": 115,
      "componentType": 5126,
      "count": 3,
      "type": "SCALAR",
      "min": [
        0.0
      ],
      "max": [
        1.6
      ]
    },
    {
      "bufferView": 116,
      "componentType": 5126,
      "count": 3,
      "type": "VEC3"
    },
    {
      "bufferView": 117,
      "componentType": 5126,
      "count": 3,
      "type": "SCALAR",
      "min": [
        0.0
      ],
      "max": [
        1.6
      ]
    },
    {
      "bufferView": 118,
      "componentType": 5126,
      "count": 3,
      "type": "VEC4"
    },
    {
      "bufferView": 119,
      "componentType": 5126,
      "count": 3,
      "type": "SCALAR",
      "min": [
        0.0
      ],
      "max": [
        1.6
      ]
    },
    {
      "bufferView": 120,
      "componentType": 5126,
      "count": 3,
      "type": "VEC4"
    },
    {
      "bufferView": 121,
      "componentType": 5126,
      "count": 3,
      "type": "SCALAR",
      "min": [
        0.0
      ],
      "max": [
        1.6
      ]
    },
    {
      "bufferView": 122,
      "componentType": 5126,
      "count": 3,
      "type": "VEC4"
    },
    {
      "bufferView": 123,
      "componentType": 5126,
      "count": 3,
      "type": "SCALAR",
      "min": [
        0.0
      ],
      "max": [
        1.6
      ]
    },
    {
      "bufferView": 124,
      "componentType": 5126,
      "count": 3,
      "type": "VEC3"
    },
    {
      "bufferView": 125,
      "componentType": 5126,
      "count": 3,
      "type": "SCALAR",
      "min": [
        0.0
      ],
      "max": [
        1.6
      ]
    },
    {
      "bufferView": 126,
      "componentType": 5126,
      "count": 3,
      "type": "VEC4"
    },
    {
      "bufferView": 127,
      "componentType": 5126,
      "count": 3,
      "type": "SCALAR",
      "min": [
        0.0
      ],
      "max": [
        0.44
      ]
    },
    {
      "bufferView": 128,
      "componentType": 5126,
      "count": 3,
      "type": "VEC4"
    },
    {
      "bufferView": 129,
      "componentType": 5126,
      "count": 3,
      "type": "SCALAR",
      "min": [
        0.0
      ],
      "max": [
        0.44
      ]
    },
    {
      "bufferView": 130,
      "componentType": 5126,
      "count": 3,
      "type": "VEC4"
    },
    {
      "bufferView": 131,
      "componentType": 5126,
      "count": 3,
      "type": "SCALAR",
      "min": [
        0.0
      ],
      "max": [
        0.44
      ]
    },
    {
      "bufferView": 132,
      "componentType": 5126,
      "count": 3,
      "type": "VEC4"
    },
    {
      "bufferView": 133,
      "componentType": 5126,
      "count": 3,
      "type": "SCALAR",
      "min": [
        0.0
      ],
      "max": [
        0.44
      ]
    },
    {
      "bufferView": 134,
      "componentType": 5126,
      "count": 3,
      "type": "VEC4"
    },
    {
      "bufferView": 135,
      "componentType": 5126,
      "count": 3,
      "type": "SCALAR",
      "min": [
        0.0
      ],
      "max": [
        0.44
      ]
    },
    {
      "bufferView": 136,
      "componentType": 5126,
      "count": 3,
      "type": "VEC4"
    },
    {
      "bufferView": 137,
      "componentType": 5126,
      "count": 3,
      "type": "SCALAR",
      "min": [
        0.0
      ],
      "max": [
        0.44
      ]
    },
    {
      "bufferView": 138,
      "componentType": 5126,
      "count": 3,
      "type": "VEC4"
    },
    {
      "bufferView": 139,
      "componentType": 5126,
      "count": 3,
      "type": "SCALAR",
      "min": [
        0.0
      ],
      "max": [
        1.0
      ]
    },
    {
      "bufferView": 140,
      "componentType": 5126,
      "count": 3,
      "type": "VEC4"
    },
    {
      "bufferView": 141,
      "componentType": 5126,
      "count": 3,
      "type": "SCALAR",
      "min": [
        0.0
      ],
      "max": [
        1.0
      ]
    },
    {
      "bufferView": 142,
      "componentType": 5126,
      "count": 3,
      "type": "VEC4"
    },
    {
      "bufferView": 143,
      "componentType": 5126,
      "count": 3,
      "type": "SCALAR",
      "min": [
        0.0
      ],
      "max": [
        1.0
      ]
    },
    {
      "bufferView": 144,
      "componentType": 5126,
      "count": 3,
      "type": "VEC4"
    },
    {
      "bufferView": 145,
      "componentType": 5126,
      "count": 3,
      "type": "SCALAR",
      "min": [
        0.0
      ],
      "max": [
        1.0
      ]
    },
    {
      "bufferView": 146,
      "componentType": 5126,
      "count": 3,
      "type": "VEC4"
    },
    {
      "bufferView": 147,
      "componentType": 5126,
      "count": 3,
      "type": "SCALAR",
      "min": [
        0.0
      ],
      "max": [
        1.0
      ]
    },
    {
      "bufferView": 148,
      "componentType": 5126,
      "count": 3,
      "type": "VEC4"
    },
    {
      "bufferView": 149,
      "componentType": 5126,
      "count": 3,
      "type": "SCALAR",
      "min": [
        0.0
      ],
      "max": [
        0.18
      ]
    },
    {
      "bufferView": 150,
      "componentType": 5126,
      "count": 3,
      "type": "VEC4"
    },
    {
      "bufferView": 151,
      "componentType": 5126,
      "count": 3,
      "type": "SCALAR",
      "min": [
        0.0
      ],
      "max": [
        0.18
      ]
    },
    {
      "bufferView": 152,
      "componentType": 5126,
      "count": 3,
      "type": "VEC3"
    },
    {
      "bufferView": 153,
      "componentType": 5126,
      "count": 3,
      "type": "SCALAR",
      "min": [
        0.0
      ],
      "max": [
        0.18
      ]
    },
    {
      "bufferView": 154,
      "componentType": 5126,
      "count": 3,
      "type": "VEC4"
    },
    {
      "bufferView": 155,
      "componentType": 5126,
      "count": 3,
      "type": "SCALAR",
      "min": [
        0.0
      ],
      "max": [
        0.18
      ]
    },
    {
      "bufferView": 156,
      "componentType": 5126,
      "count": 3,
      "type": "VEC4"
    },
    {
      "bufferView": 157,
      "componentType": 5126,
      "count": 3,
      "type": "SCALAR",
      "min": [
        0.0
      ],
      "max": [
        0.24
      ]
    },
    {
      "bufferView": 158,
      "componentType": 5126,
      "count": 3,
      "type": "VEC3"
    },
    {
      "bufferView": 159,
      "componentType": 5126,
      "count": 3,
      "type": "SCALAR",
      "min": [
        0.0
      ],
      "max": [
        0.24
      ]
    },
    {
      "bufferView": 160,
      "componentType": 5126,
      "count": 3,
      "type": "VEC4"
    },
    {
      "bufferView": 161,
      "componentType": 5126,
      "count": 3,
      "type": "SCALAR",
      "min": [
        0.0
      ],
      "max": [
        0.24
      ]
    },
    {
      "bufferView": 162,
      "componentType": 5126,
      "count": 3,
      "type": "VEC4"
    },
    {
      "bufferView": 163,
      "componentType": 5126,
      "count": 3,
      "type": "SCALAR",
      "min": [
        0.0
      ],
      "max": [
        0.24
      ]
    },
    {
      "bufferView": 164,
      "componentType": 5126,
      "count": 3,
      "type": "VEC4"
    },
    {
      "bufferView": 165,
      "componentType": 5126,
      "count": 3,
      "type": "SCALAR",
      "min": [
        0.0
      ],
      "max": [
        0.24
      ]
    },
    {
      "bufferView": 166,
      "componentType": 5126,
      "count": 3,
      "type": "VEC4"
    },
    {
      "bufferView": 167,
      "componentType": 5126,
      "count": 3,
      "type": "SCALAR",
      "min": [
        0.0
      ],
      "max": [
        0.56
      ]
    },
    {
      "bufferView": 168,
      "componentType": 5126,
      "count": 3,
      "type": "VEC4"
    },
    {
      "bufferView": 169,
      "componentType": 5126,
      "count": 3,
      "type": "SCALAR",
      "min": [
        0.0
      ],
      "max": [
        0.56
      ]
    },
    {
      "bufferView": 170,
      "componentType": 5126,
      "count": 3,
      "type": "VEC4"
    },
    {
      "bufferView": 171,
      "componentType": 5126,
      "count": 3,
      "type": "SCALAR",
      "min": [
        0.0
      ],
      "max": [
        0.56
      ]
    },
    {
      "bufferView": 172,
      "componentType": 5126,
      "count": 3,
      "type": "VEC4"
    },
    {
      "bufferView": 173,
      "componentType": 5126,
      "count": 3,
      "type": "SCALAR",
      "min": [
        0.0
      ],
      "max": [
        0.56
      ]
    },
    {
      "bufferView": 174,
      "componentType": 5126,
      "count": 3,
      "type": "VEC4"
    },
    {
      "bufferView": 175,
      "componentType": 5126,
      "count": 3,
      "type": "SCALAR",
      "min": [
        0.0
      ],
      "max": [
        0.56
      ]
    },
    {
      "bufferView": 176,
      "componentType": 5126,
      "count": 3,
      "type": "VEC4"
    },
    {
      "bufferView": 177,
      "componentType": 5126,
      "count": 3,
      "type": "SCALAR",
      "min": [
        0.0
      ],
      "max": [
        0.42
      ]
    },
    {
      "bufferView": 178,
      "componentType": 5126,
      "count": 3,
      "type": "VEC3"
    },
    {
      "bufferView": 179,
      "componentType": 5126,
      "count": 3,
      "type": "SCALAR",
      "min": [
        0.0
      ],
      "max": [
        0.42
      ]
    },
    {
      "bufferView": 180,
      "componentType": 5126,
      "count": 3,
      "type": "VEC4"
    },
    {
      "bufferView": 181,
      "componentType": 5126,
      "count": 3,
      "type": "SCALAR",
      "min": [
        0.0
      ],
      "max": [
        0.42
      ]
    },
    {
      "bufferView": 182,
      "componentType": 5126,
      "count": 3,
      "type": "VEC4"
    },
    {
      "bufferView": 183,
      "componentType": 5126,
      "count": 3,
      "type": "SCALAR",
      "min": [
        0.0
      ],
      "max": [
        0.42
      ]
    },
    {
      "bufferView": 184,
      "componentType": 5126,
      "count": 3,
      "type": "VEC3"
    }
  ],
  "bufferViews": [
    {
      "buffer": 0,
      "byteOffset": 0,
      "byteLength": 8208,
      "target": 34962
    },
    {
      "buffer": 0,
      "byteOffset": 8208,
      "byteLength": 8208,
      "target": 34962
    },
    {
      "buffer": 0,
      "byteOffset": 16416,
      "byteLength": 5472,
      "target": 34962
    },
    {
      "buffer": 0,
      "byteOffset": 21888,
      "byteLength": 10944,
      "target": 34962
    },
    {
      "buffer": 0,
      "byteOffset": 32832,
      "byteLength": 7776,
      "target": 34963
    },
    {
      "buffer": 0,
      "byteOffset": 40608,
      "byteLength": 8208,
      "target": 34962
    },
    {
      "buffer": 0,
      "byteOffset": 48816,
      "byteLength": 8208,
      "target": 34962
    },
    {
      "buffer": 0,
      "byteOffset": 57024,
      "byteLength": 5472,
      "target": 34962
    },
    {
      "buffer": 0,
      "byteOffset": 62496,
      "byteLength": 10944,
      "target": 34962
    },
    {
      "buffer": 0,
      "byteOffset": 73440,
      "byteLength": 7776,
      "target": 34963
    },
    {
      "buffer": 0,
      "byteOffset": 81216,
      "byteLength": 1152,
      "target": 34962
    },
    {
      "buffer": 0,
      "byteOffset": 82368,
      "byteLength": 1152,
      "target": 34962
    },
    {
      "buffer": 0,
      "byteOffset": 83520,
      "byteLength": 768,
      "target": 34962
    },
    {
      "buffer": 0,
      "byteOffset": 84288,
      "byteLength": 1536,
      "target": 34962
    },
    {
      "buffer": 0,
      "byteOffset": 85824,
      "byteLength": 264,
      "target": 34963
    },
    {
      "buffer": 0,
      "byteOffset": 86088,
      "byteLength": 1152,
      "target": 34962
    },
    {
      "buffer": 0,
      "byteOffset": 87240,
      "byteLength": 1152,
      "target": 34962
    },
    {
      "buffer": 0,
      "byteOffset": 88392,
      "byteLength": 768,
      "target": 34962
    },
    {
      "buffer": 0,
      "byteOffset": 89160,
      "byteLength": 1536,
      "target": 34962
    },
    {
      "buffer": 0,
      "byteOffset": 90696,
      "byteLength": 264,
      "target": 34963
    },
    {
      "buffer": 0,
      "byteOffset": 90960,
      "byteLength": 600,
      "target": 34962
    },
    {
      "buffer": 0,
      "byteOffset": 91560,
      "byteLength": 600,
      "target": 34962
    },
    {
      "buffer": 0,
      "byteOffset": 92160,
      "byteLength": 400,
      "target": 34962
    },
    {
      "buffer": 0,
      "byteOffset": 92560,
      "byteLength": 800,
      "target": 34962
    },
    {
      "buffer": 0,
      "byteOffset": 93360,
      "byteLength": 576,
      "target": 34963
    },
    {
      "buffer": 0,
      "byteOffset": 93936,
      "byteLength": 600,
      "target": 34962
    },
    {
      "buffer": 0,
      "byteOffset": 94536,
      "byteLength": 600,
      "target": 34962
    },
    {
      "buffer": 0,
      "byteOffset": 95136,
      "byteLength": 400,
      "target": 34962
    },
    {
      "buffer": 0,
      "byteOffset": 95536,
      "byteLength": 800,
      "target": 34962
    },
    {
      "buffer": 0,
      "byteOffset": 96336,
      "byteLength": 576,
      "target": 34963
    },
    {
      "buffer": 0,
      "byteOffset": 96912,
      "byteLength": 1152,
      "target": 34962
    },
    {
      "buffer": 0,
      "byteOffset": 98064,
      "byteLength": 1152,
      "target": 34962
    },
    {
      "buffer": 0,
      "byteOffset": 99216,
      "byteLength": 768,
      "target": 34962
    },
    {
      "buffer": 0,
      "byteOffset": 99984,
      "byteLength": 1536,
      "target": 34962
    },
    {
      "buffer": 0,
      "byteOffset": 101520,
      "byteLength": 264,
      "target": 34963
    },
    {
      "buffer": 0,
      "byteOffset": 101784,
      "byteLength": 1152,
      "target": 34962
    },
    {
      "buffer": 0,
      "byteOffset": 102936,
      "byteLength": 1152,
      "target": 34962
    },
    {
      "buffer": 0,
      "byteOffset": 104088,
      "byteLength": 768,
      "target": 34962
    },
    {
      "buffer": 0,
      "byteOffset": 104856,
      "byteLength": 1536,
      "target": 34962
    },
    {
      "buffer": 0,
      "byteOffset": 106392,
      "byteLength": 264,
      "target": 34963
    },
    {
      "buffer": 0,
      "byteOffset": 106656,
      "byteLength": 4896,
      "target": 34962
    },
    {
      "buffer": 0,
      "byteOffset": 111552,
      "byteLength": 4896,
      "target": 34962
    },
    {
      "buffer": 0,
      "byteOffset": 116448,
      "byteLength": 3264,
      "target": 34962
    },
    {
      "buffer": 0,
      "byteOffset": 119712,
      "byteLength": 6528,
      "target": 34962
    },
    {
      "buffer": 0,
      "byteOffset": 126240,
      "byteLength": 4608,
      "target": 34963
    },
    {
      "buffer": 0,
      "byteOffset": 130848,
      "byteLength": 600,
      "target": 34962
    },
    {
      "buffer": 0,
      "byteOffset": 131448,
      "byteLength": 600,
      "target": 34962
    },
    {
      "buffer": 0,
      "byteOffset": 132048,
      "byteLength": 400,
      "target": 34962
    },
    {
      "buffer": 0,
      "byteOffset": 132448,
      "byteLength": 800,
      "target": 34962
    },
    {
      "buffer": 0,
      "byteOffset": 133248,
      "byteLength": 576,
      "target": 34963
    },
    {
      "buffer": 0,
      "byteOffset": 133824,
      "byteLength": 600,
      "target": 34962
    },
    {
      "buffer": 0,
      "byteOffset": 134424,
      "byteLength": 600,
      "target": 34962
    },
    {
      "buffer": 0,
      "byteOffset": 135024,
      "byteLength": 400,
      "target": 34962
    },
    {
      "buffer": 0,
      "byteOffset": 135424,
      "byteLength": 800,
      "target": 34962
    },
    {
      "buffer": 0,
      "byteOffset": 136224,
      "byteLength": 576,
      "target": 34963
    },
    {
      "buffer": 0,
      "byteOffset": 136800,
      "byteLength": 600,
      "target": 34962
    },
    {
      "buffer": 0,
      "byteOffset": 137400,
      "byteLength": 600,
      "target": 34962
    },
    {
      "buffer": 0,
      "byteOffset": 138000,
      "byteLength": 400,
      "target": 34962
    },
    {
      "buffer": 0,
      "byteOffset": 138400,
      "byteLength": 800,
      "target": 34962
    },
    {
      "buffer": 0,
      "byteOffset": 139200,
      "byteLength": 576,
      "target": 34963
    },
    {
      "buffer": 0,
      "byteOffset": 139776,
      "byteLength": 2604,
      "target": 34962
    },
    {
      "buffer": 0,
      "byteOffset": 142380,
      "byteLength": 2604,
      "target": 34962
    },
    {
      "buffer": 0,
      "byteOffset": 144984,
      "byteLength": 1736,
      "target": 34962
    },
    {
      "buffer": 0,
      "byteOffset": 146720,
      "byteLength": 3472,
      "target": 34962
    },
    {
      "buffer": 0,
      "byteOffset": 150192,
      "byteLength": 2376,
      "target": 34963
    },
    {
      "buffer": 0,
      "byteOffset": 152568,
      "byteLength": 600,
      "target": 34962
    },
    {
      "buffer": 0,
      "byteOffset": 153168,
      "byteLength": 600,
      "target": 34962
    },
    {
      "buffer": 0,
      "byteOffset": 153768,
      "byteLength": 400,
      "target": 34962
    },
    {
      "buffer": 0,
      "byteOffset": 154168,
      "byteLength": 800,
      "target": 34962
    },
    {
      "buffer": 0,
      "byteOffset": 154968,
      "byteLength": 576,
      "target": 34963
    },
    {
      "buffer": 0,
      "byteOffset": 155544,
      "byteLength": 4896,
      "target": 34962
    },
    {
      "buffer": 0,
      "byteOffset": 160440,
      "byteLength": 4896,
      "target": 34962
    },
    {
      "buffer": 0,
      "byteOffset": 165336,
      "byteLength": 3264,
      "target": 34962
    },
    {
      "buffer": 0,
      "byteOffset": 168600,
      "byteLength": 6528,
      "target": 34962
    },
    {
      "buffer": 0,
      "byteOffset": 175128,
      "byteLength": 4608,
      "target": 34963
    },
    {
      "buffer": 0,
      "byteOffset": 179736,
      "byteLength": 1152,
      "target": 34962
    },
    {
      "buffer": 0,
      "byteOffset": 180888,
      "byteLength": 1152,
      "target": 34962
    },
    {
      "buffer": 0,
      "byteOffset": 182040,
      "byteLength": 768,
      "target": 34962
    },
    {
      "buffer": 0,
      "byteOffset": 182808,
      "byteLength": 1536,
      "target": 34962
    },
    {
      "buffer": 0,
      "byteOffset": 184344,
      "byteLength": 264,
      "target": 34963
    },
    {
      "buffer": 0,
      "byteOffset": 184608,
      "byteLength": 1152,
      "target": 34962
    },
    {
      "buffer": 0,
      "byteOffset": 185760,
      "byteLength": 1152,
      "target": 34962
    },
    {
      "buffer": 0,
      "byteOffset": 186912,
      "byteLength": 768,
      "target": 34962
    },
    {
      "buffer": 0,
      "byteOffset": 187680,
      "byteLength": 1536,
      "target": 34962
    },
    {
      "buffer": 0,
      "byteOffset": 189216,
      "byteLength": 264,
      "target": 34963
    },
    {
      "buffer": 0,
      "byteOffset": 189480,
      "byteLength": 600,
      "target": 34962
    },
    {
      "buffer": 0,
      "byteOffset": 190080,
      "byteLength": 600,
      "target": 34962
    },
    {
      "buffer": 0,
      "byteOffset": 190680,
      "byteLength": 400,
      "target": 34962
    },
    {
      "buffer": 0,
      "byteOffset": 191080,
      "byteLength": 800,
      "target": 34962
    },
    {
      "buffer": 0,
      "byteOffset": 191880,
      "byteLength": 576,
      "target": 34963
    },
    {
      "buffer": 0,
      "byteOffset": 192456,
      "byteLength": 1152,
      "target": 34962
    },
    {
      "buffer": 0,
      "byteOffset": 193608,
      "byteLength": 1152,
      "target": 34962
    },
    {
      "buffer": 0,
      "byteOffset": 194760,
      "byteLength": 768,
      "target": 34962
    },
    {
      "buffer": 0,
      "byteOffset": 195528,
      "byteLength": 1536,
      "target": 34962
    },
    {
      "buffer": 0,
      "byteOffset": 197064,
      "byteLength": 264,
      "target": 34963
    },
    {
      "buffer": 0,
      "byteOffset": 197328,
      "byteLength": 600,
      "target": 34962
    },
    {
      "buffer": 0,
      "byteOffset": 197928,
      "byteLength": 600,
      "target": 34962
    },
    {
      "buffer": 0,
      "byteOffset": 198528,
      "byteLength": 400,
      "target": 34962
    },
    {
      "buffer": 0,
      "byteOffset": 198928,
      "byteLength": 800,
      "target": 34962
    },
    {
      "buffer": 0,
      "byteOffset": 199728,
      "byteLength": 576,
      "target": 34963
    },
    {
      "buffer": 0,
      "byteOffset": 200304,
      "byteLength": 600,
      "target": 34962
    },
    {
      "buffer": 0,
      "byteOffset": 200904,
      "byteLength": 600,
      "target": 34962
    },
    {
      "buffer": 0,
      "byteOffset": 201504,
      "byteLength": 400,
      "target": 34962
    },
    {
      "buffer": 0,
      "byteOffset": 201904,
      "byteLength": 800,
      "target": 34962
    },
    {
      "buffer": 0,
      "byteOffset": 202704,
      "byteLength": 576,
      "target": 34963
    },
    {
      "buffer": 0,
      "byteOffset": 203280,
      "byteLength": 1152,
      "target": 34962
    },
    {
      "buffer": 0,
      "byteOffset": 204432,
      "byteLength": 1152,
      "target": 34962
    },
    {
      "buffer": 0,
      "byteOffset": 205584,
      "byteLength": 768,
      "target": 34962
    },
    {
      "buffer": 0,
      "byteOffset": 206352,
      "byteLength": 1536,
      "target": 34962
    },
    {
      "buffer": 0,
      "byteOffset": 207888,
      "byteLength": 264,
      "target": 34963
    },
    {
      "buffer": 0,
      "byteOffset": 208152,
      "byteLength": 8064,
      "target": 34962
    },
    {
      "buffer": 0,
      "byteOffset": 216216,
      "byteLength": 8064,
      "target": 34962
    },
    {
      "buffer": 0,
      "byteOffset": 224280,
      "byteLength": 5376,
      "target": 34962
    },
    {
      "buffer": 0,
      "byteOffset": 229656,
      "byteLength": 10752,
      "target": 34962
    },
    {
      "buffer": 0,
      "byteOffset": 240408,
      "byteLength": 7680,
      "target": 34963
    },
    {
      "buffer": 0,
      "byteOffset": 248088,
      "byteLength": 12
    },
    {
      "buffer": 0,
      "byteOffset": 248100,
      "byteLength": 36
    },
    {
      "buffer": 0,
      "byteOffset": 248136,
      "byteLength": 12
    },
    {
      "buffer": 0,
      "byteOffset": 248148,
      "byteLength": 48
    },
    {
      "buffer": 0,
      "byteOffset": 248196,
      "byteLength": 12
    },
    {
      "buffer": 0,
      "byteOffset": 248208,
      "byteLength": 48
    },
    {
      "buffer": 0,
      "byteOffset": 248256,
      "byteLength": 12
    },
    {
      "buffer": 0,
      "byteOffset": 248268,
      "byteLength": 48
    },
    {
      "buffer": 0,
      "byteOffset": 248316,
      "byteLength": 12
    },
    {
      "buffer": 0,
      "byteOffset": 248328,
      "byteLength": 36
    },
    {
      "buffer": 0,
      "byteOffset": 248364,
      "byteLength": 12
    },
    {
      "buffer": 0,
      "byteOffset": 248376,
      "byteLength": 48
    },
    {
      "buffer": 0,
      "byteOffset": 248424,
      "byteLength": 12
    },
    {
      "buffer": 0,
      "byteOffset": 248436,
      "byteLength": 48
    },
    {
      "buffer": 0,
      "byteOffset": 248484,
      "byteLength": 12
    },
    {
      "buffer": 0,
      "byteOffset": 248496,
      "byteLength": 48
    },
    {
      "buffer": 0,
      "byteOffset": 248544,
      "byteLength": 12
    },
    {
      "buffer": 0,
      "byteOffset": 248556,
      "byteLength": 48
    },
    {
      "buffer": 0,
      "byteOffset": 248604,
      "byteLength": 12
    },
    {
      "buffer": 0,
      "byteOffset": 248616,
      "byteLength": 48
    },
    {
      "buffer": 0,
      "byteOffset": 248664,
      "byteLength": 12
    },
    {
      "buffer": 0,
      "byteOffset": 248676,
      "byteLength": 48
    },
    {
      "buffer": 0,
      "byteOffset": 248724,
      "byteLength": 12
    },
    {
      "buffer": 0,
      "byteOffset": 248736,
      "byteLength": 48
    },
    {
      "buffer": 0,
      "byteOffset": 248784,
      "byteLength": 12
    },
    {
      "buffer": 0,
      "byteOffset": 248796,
      "byteLength": 48
    },
    {
      "buffer": 0,
      "byteOffset": 248844,
      "byteLength": 12
    },
    {
      "buffer": 0,
      "byteOffset": 248856,
      "byteLength": 48
    },
    {
      "buffer": 0,
      "byteOffset": 248904,
      "byteLength": 12
    },
    {
      "buffer": 0,
      "byteOffset": 248916,
      "byteLength": 48
    },
    {
      "buffer": 0,
      "byteOffset": 248964,
      "byteLength": 12
    },
    {
      "buffer": 0,
      "byteOffset": 248976,
      "byteLength": 48
    },
    {
      "buffer": 0,
      "byteOffset": 249024,
      "byteLength": 12
    },
    {
      "buffer": 0,
      "byteOffset": 249036,
      "byteLength": 48
    },
    {
      "buffer": 0,
      "byteOffset": 249084,
      "byteLength": 12
    },
    {
      "buffer": 0,
      "byteOffset": 249096,
      "byteLength": 48
    },
    {
      "buffer": 0,
      "byteOffset": 249144,
      "byteLength": 12
    },
    {
      "buffer": 0,
      "byteOffset": 249156,
      "byteLength": 36
    },
    {
      "buffer": 0,
      "byteOffset": 249192,
      "byteLength": 12
    },
    {
      "buffer": 0,
      "byteOffset": 249204,
      "byteLength": 48
    },
    {
      "buffer": 0,
      "byteOffset": 249252,
      "byteLength": 12
    },
    {
      "buffer": 0,
      "byteOffset": 249264,
      "byteLength": 48
    },
    {
      "buffer": 0,
      "byteOffset": 249312,
      "byteLength": 12
    },
    {
      "buffer": 0,
      "byteOffset": 249324,
      "byteLength": 36
    },
    {
      "buffer": 0,
      "byteOffset": 249360,
      "byteLength": 12
    },
    {
      "buffer": 0,
      "byteOffset": 249372,
      "byteLength": 48
    },
    {
      "buffer": 0,
      "byteOffset": 249420,
      "byteLength": 12
    },
    {
      "buffer": 0,
      "byteOffset": 249432,
      "byteLength": 48
    },
    {
      "buffer": 0,
      "byteOffset": 249480,
      "byteLength": 12
    },
    {
      "buffer": 0,
      "byteOffset": 249492,
      "byteLength": 48
    },
    {
      "buffer": 0,
      "byteOffset": 249540,
      "byteLength": 12
    },
    {
      "buffer": 0,
      "byteOffset": 249552,
      "byteLength": 48
    },
    {
      "buffer": 0,
      "byteOffset": 249600,
      "byteLength": 12
    },
    {
      "buffer": 0,
      "byteOffset": 249612,
      "byteLength": 48
    },
    {
      "buffer": 0,
      "byteOffset": 249660,
      "byteLength": 12
    },
    {
      "buffer": 0,
      "byteOffset": 249672,
      "byteLength": 48
    },
    {
      "buffer": 0,
      "byteOffset": 249720,
      "byteLength": 12
    },
    {
      "buffer": 0,
      "byteOffset": 249732,
      "byteLength": 48
    },
    {
      "buffer": 0,
      "byteOffset": 249780,
      "byteLength": 12
    },
    {
      "buffer": 0,
      "byteOffset": 249792,
      "byteLength": 48
    },
    {
      "buffer": 0,
      "byteOffset": 249840,
      "byteLength": 12
    },
    {
      "buffer": 0,
      "byteOffset": 249852,
      "byteLength": 48
    },
    {
      "buffer": 0,
      "byteOffset": 249900,
      "byteLength": 12
    },
    {
      "buffer": 0,
      "byteOffset": 249912,
      "byteLength": 36
    },
    {
      "buffer": 0,
      "byteOffset": 249948,
      "byteLength": 12
    },
    {
      "buffer": 0,
      "byteOffset": 249960,
      "byteLength": 48
    },
    {
      "buffer": 0,
      "byteOffset": 250008,
      "byteLength": 12
    },
    {
      "buffer": 0,
      "byteOffset": 250020,
      "byteLength": 48
    },
    {
      "buffer": 0,
      "byteOffset": 250068,
      "byteLength": 12
    },
    {
      "buffer": 0,
      "byteOffset": 250080,
      "byteLength": 36
    }
  ],
  "buffers": [
    {
      "byteLength": 250116,
      "uri": "data:application/octet-stream;base64,"
    }
  ],
  "animations": [
    {
      "name": "Idle",
      "samplers": [
        {
          "input": 115,
          "output": 116,
          "interpolation": "LINEAR"
        },
        {
          "input": 117,
          "output": 118,
          "interpolation": "LINEAR"
        },
        {
          "input": 119,
          "output": 120,
          "interpolation": "LINEAR"
        },
        {
          "input": 121,
          "output": 122,
          "interpolation": "LINEAR"
        },
        {
          "input": 123,
          "output": 124,
          "interpolation": "LINEAR"
        },
        {
          "input": 125,
          "output": 126,
          "interpolation": "LINEAR"
        }
      ],
      "channels": [
        {
          "sampler": 0,
          "target": {
            "node": 0,
            "path": "translation"
          }
        },
        {
          "sampler": 1,
          "target": {
            "node": 30,
            "path": "rotation"
          }
        },
        {
          "sampler": 2,
          "target": {
            "node": 27,
            "path": "rotation"
          }
        },
        {
          "sampler": 3,
          "target": {
            "node": 24,
            "path": "rotation"
          }
        },
        {
          "sampler": 4,
          "target": {
            "node": 4,
            "path": "translation"
          }
        },
        {
          "sampler": 5,
          "target": {
            "node": 3,
            "path": "rotation"
          }
        }
      ]
    },
    {
      "name": "Walk",
      "samplers": [
        {
          "input": 127,
          "output": 128,
          "interpolation": "LINEAR"
        },
        {
          "input": 129,
          "output": 130,
          "interpolation": "LINEAR"
        },
        {
          "input": 131,
          "output": 132,
          "interpolation": "LINEAR"
        },
        {
          "input": 133,
          "output": 134,
          "interpolation": "LINEAR"
        },
        {
          "input": 135,
          "output": 136,
          "interpolation": "LINEAR"
        },
        {
          "input": 137,
          "output": 138,
          "interpolation": "LINEAR"
        }
      ],
      "channels": [
        {
          "sampler": 0,
          "target": {
            "node": 7,
            "path": "rotation"
          }
        },
        {
          "sampler": 1,
          "target": {
            "node": 13,
            "path": "rotation"
          }
        },
        {
          "sampler": 2,
          "target": {
            "node": 0,
            "path": "rotation"
          }
        },
        {
          "sampler": 3,
          "target": {
            "node": 25,
            "path": "rotation"
          }
        },
        {
          "sampler": 4,
          "target": {
            "node": 26,
            "path": "rotation"
          }
        },
        {
          "sampler": 5,
          "target": {
            "node": 20,
            "path": "rotation"
          }
        }
      ]
    },
    {
      "name": "Work",
      "samplers": [
        {
          "input": 139,
          "output": 140,
          "interpolation": "LINEAR"
        },
        {
          "input": 141,
          "output": 142,
          "interpolation": "LINEAR"
        },
        {
          "input": 143,
          "output": 144,
          "interpolation": "LINEAR"
        },
        {
          "input": 145,
          "output": 146,
          "interpolation": "LINEAR"
        },
        {
          "input": 147,
          "output": 148,
          "interpolation": "LINEAR"
        }
      ],
      "channels": [
        {
          "sampler": 0,
          "target": {
            "node": 27,
            "path": "rotation"
          }
        },
        {
          "sampler": 1,
          "target": {
            "node": 30,
            "path": "rotation"
          }
        },
        {
          "sampler": 2,
          "target": {
            "node": 28,
            "path": "rotation"
          }
        },
        {
          "sampler": 3,
          "target": {
            "node": 29,
            "path": "rotation"
          }
        },
        {
          "sampler": 4,
          "target": {
            "node": 39,
            "path": "rotation"
          }
        }
      ]
    },
    {
      "name": "Fire",
      "samplers": [
        {
          "input": 149,
          "output": 150,
          "interpolation": "LINEAR"
        },
        {
          "input": 151,
          "output": 152,
          "interpolation": "LINEAR"
        },
        {
          "input": 153,
          "output": 154,
          "interpolation": "LINEAR"
        },
        {
          "input": 155,
          "output": 156,
          "interpolation": "LINEAR"
        }
      ],
      "channels": [
        {
          "sampler": 0,
          "target": {
            "node": 30,
            "path": "rotation"
          }
        },
        {
          "sampler": 1,
          "target": {
            "node": 0,
            "path": "translation"
          }
        },
        {
          "sampler": 2,
          "target": {
            "node": 29,
            "path": "rotation"
          }
        },
        {
          "sampler": 3,
          "target": {
            "node": 28,
            "path": "rotation"
          }
        }
      ]
    },
    {
      "name": "Hit",
      "samplers": [
        {
          "input": 157,
          "output": 158,
          "interpolation": "LINEAR"
        },
        {
          "input": 159,
          "output": 160,
          "interpolation": "LINEAR"
        },
        {
          "input": 161,
          "output": 162,
          "interpolation": "LINEAR"
        },
        {
          "input": 163,
          "output": 164,
          "interpolation": "LINEAR"
        },
        {
          "input": 165,
          "output": 166,
          "interpolation": "LINEAR"
        }
      ],
      "channels": [
        {
          "sampler": 0,
          "target": {
            "node": 0,
            "path": "translation"
          }
        },
        {
          "sampler": 1,
          "target": {
            "node": 27,
            "path": "rotation"
          }
        },
        {
          "sampler": 2,
          "target": {
            "node": 3,
            "path": "rotation"
          }
        },
        {
          "sampler": 3,
          "target": {
            "node": 24,
            "path": "rotation"
          }
        },
        {
          "sampler": 4,
          "target": {
            "node": 28,
            "path": "rotation"
          }
        }
      ]
    },
    {
      "name": "Retreat",
      "samplers": [
        {
          "input": 167,
          "output": 168,
          "interpolation": "LINEAR"
        },
        {
          "input": 169,
          "output": 170,
          "interpolation": "LINEAR"
        },
        {
          "input": 171,
          "output": 172,
          "interpolation": "LINEAR"
        },
        {
          "input": 173,
          "output": 174,
          "interpolation": "LINEAR"
        },
        {
          "input": 175,
          "output": 176,
          "interpolation": "LINEAR"
        }
      ],
      "channels": [
        {
          "sampler": 0,
          "target": {
            "node": 0,
            "path": "rotation"
          }
        },
        {
          "sampler": 1,
          "target": {
            "node": 30,
            "path": "rotation"
          }
        },
        {
          "sampler": 2,
          "target": {
            "node": 25,
            "path": "rotation"
          }
        },
        {
          "sampler": 3,
          "target": {
            "node": 26,
            "path": "rotation"
          }
        },
        {
          "sampler": 4,
          "target": {
            "node": 24,
            "path": "rotation"
          }
        }
      ]
    },
    {
      "name": "Death",
      "samplers": [
        {
          "input": 177,
          "output": 178,
          "interpolation": "LINEAR"
        },
        {
          "input": 179,
          "output": 180,
          "interpolation": "LINEAR"
        },
        {
          "input": 181,
          "output": 182,
          "interpolation": "LINEAR"
        },
        {
          "input": 183,
          "output": 184,
          "interpolation": "LINEAR"
        }
      ],
      "channels": [
        {
          "sampler": 0,
          "target": {
            "node": 0,
            "path": "translation"
          }
        },
        {
          "sampler": 1,
          "target": {
            "node": 0,
            "path": "rotation"
          }
        },
        {
          "sampler": 2,
          "target": {
            "node": 27,
            "path": "rotation"
          }
        },
        {
          "sampler": 3,
          "target": {
            "node": 31,
            "path": "translation"
          }
        }
      ]
    }
  ],
  "extras": {
    "ironwright_asset_id": "relay.signal.v1",
    "manufactured_surface_profile": "chamfered_high_definition",
    "required_nodes": [
      "RelayModel",
      "Sensor",
      "OpticLens",
      "RelayMast",
      "RelayMastFoot",
      "RelayDirectionalDish",
      "RelayBeacon",
      "ProductionAssetMarker"
    ],
    "animation_clips": [
      "Idle",
      "Walk",
      "Work",
      "Fire",
      "Hit",
      "Retreat",
      "Death"
    ]
  }
}
