{
  "asset": {
    "version": "2.0",
    "generator": "Project Ironwright original East Tenements asset builder"
  },
  "scene": 0,
  "scenes": [
    {
      "name": "Tenement",
      "nodes": [
        0
      ]
    }
  ],
  "nodes": [
    {
      "name": "TenementModel",
      "children": [
        1,
        2,
        3,
        4,
        5,
        6,
        7,
        8,
        9,
        10,
        11,
        12,
        13,
        14,
        15,
        16,
        17,
        18,
        19,
        20,
        21,
        22,
        23,
        24,
        25,
        26,
        27,
        28,
        29,
        30,
        31,
        32,
        33,
        34,
        35,
        36,
        37,
        38,
        39,
        40,
        41,
        42,
        43,
        44,
        45,
        46,
        47,
        48,
        49,
        50,
        51,
        52,
        53,
        54,
        55,
        56,
        57,
        58,
        59,
        60,
        61,
        62,
        63,
        64,
        65,
        66,
        67,
        68,
        69,
        70,
        71,
        72,
        73,
        74,
        75,
        76,
        77,
        78,
        79,
        80,
        81,
        82,
        83,
        84,
        85,
        86,
        87,
        88,
        89,
        90,
        91,
        92,
        93,
        94,
        95,
        96,
        97,
        98,
        99,
        100,
        101,
        102,
        103,
        104,
        105,
        106,
        107,
        108,
        109,
        110,
        111,
        112,
        113,
        114,
        119,
        124,
        129,
        131,
        132,
        133,
        134,
        135,
        136,
        137,
        138,
        139,
        140,
        141,
        142,
        143,
        144,
        145,
        146,
        147,
        148,
        149,
        150,
        151,
        152,
        153,
        154,
        155,
        156
      ],
      "extras": {
        "ironwright_asset_id": "tenement.east_blocks.v1",
        "asset_quality": "authored_high_definition",
        "socket_contract": "residential_blocks, balconies, fire_escape, roof_tank, windows, cloth, organic_creep"
      }
    },
    {
      "name": "TenementFloor",
      "translation": [
        0.0,
        0.08,
        0.0
      ],
      "mesh": 0,
      "extras": {
        "socket_type": "residential_floor"
      }
    },
    {
      "name": "TenementBlockL",
      "translation": [
        -5.0,
        4.5,
        0.0
      ],
      "mesh": 1,
      "extras": {
        "socket_type": "residential_block"
      }
    },
    {
      "name": "TenementBlockR",
      "translation": [
        5.0,
        4.5,
        2.4
      ],
      "mesh": 1,
      "rotation": [
        0.0,
        -0.01499943750632809,
        0.0,
        0.9998875021093592
      ],
      "extras": {
        "socket_type": "residential_block"
      }
    },
    {
      "name": "TenementFacadeBandL0",
      "translation": [
        -5.0,
        0.62,
        2.58
      ],
      "mesh": 3,
      "extras": {
        "surface": "facade_floor_band"
      }
    },
    {
      "name": "TenementFacadeBandL1",
      "translation": [
        -5.0,
        2.87,
        2.58
      ],
      "mesh": 3,
      "extras": {
        "surface": "facade_floor_band"
      }
    },
    {
      "name": "TenementFacadeBandL2",
      "translation": [
        -5.0,
        5.12,
        2.58
      ],
      "mesh": 3,
      "extras": {
        "surface": "facade_floor_band"
      }
    },
    {
      "name": "TenementFacadeBandL3",
      "translation": [
        -5.0,
        7.37,
        2.58
      ],
      "mesh": 3,
      "extras": {
        "surface": "facade_floor_band"
      }
    },
    {
      "name": "TenementFacadePillarL",
      "translation": [
        -5.0,
        4.5,
        2.6
      ],
      "mesh": 4,
      "extras": {
        "surface": "facade_vertical_spine"
      }
    },
    {
      "name": "TenementFacadeBandR0",
      "translation": [
        5.0,
        0.62,
        4.98
      ],
      "mesh": 3,
      "extras": {
        "surface": "facade_floor_band"
      }
    },
    {
      "name": "TenementFacadeBandR1",
      "translation": [
        5.0,
        2.87,
        4.98
      ],
      "mesh": 3,
      "extras": {
        "surface": "facade_floor_band"
      }
    },
    {
      "name": "TenementFacadeBandR2",
      "translation": [
        5.0,
        5.12,
        4.98
      ],
      "mesh": 3,
      "extras": {
        "surface": "facade_floor_band"
      }
    },
    {
      "name": "TenementFacadeBandR3",
      "translation": [
        5.0,
        7.37,
        4.98
      ],
      "mesh": 3,
      "extras": {
        "surface": "facade_floor_band"
      }
    },
    {
      "name": "TenementFacadePillarR",
      "translation": [
        5.0,
        4.5,
        5.0
      ],
      "mesh": 4,
      "extras": {
        "surface": "facade_vertical_spine"
      }
    },
    {
      "name": "TenementWindow0_0",
      "translation": [
        -7.0,
        1.65,
        -2.42
      ],
      "mesh": 5,
      "extras": {
        "socket_type": "residential_window"
      }
    },
    {
      "name": "TenementWindow0_1",
      "translation": [
        -7.0,
        3.9,
        -2.42
      ],
      "mesh": 5,
      "extras": {
        "socket_type": "residential_window"
      }
    },
    {
      "name": "TenementWindow0_2",
      "translation": [
        -7.0,
        6.15,
        -2.42
      ],
      "mesh": 5,
      "extras": {
        "socket_type": "residential_window"
      }
    },
    {
      "name": "TenementWindow1_0",
      "translation": [
        -3.0,
        1.65,
        -2.42
      ],
      "mesh": 5,
      "extras": {
        "socket_type": "residential_window"
      }
    },
    {
      "name": "TenementWindow1_1",
      "translation": [
        -3.0,
        3.9,
        -2.42
      ],
      "mesh": 5,
      "extras": {
        "socket_type": "residential_window"
      }
    },
    {
      "name": "TenementWindow1_2",
      "translation": [
        -3.0,
        6.15,
        -2.42
      ],
      "mesh": 5,
      "extras": {
        "socket_type": "residential_window"
      }
    },
    {
      "name": "TenementWindow2_0",
      "translation": [
        3.0,
        1.65,
        -2.42
      ],
      "mesh": 5,
      "extras": {
        "socket_type": "residential_window"
      }
    },
    {
      "name": "TenementWindow2_1",
      "translation": [
        3.0,
        3.9,
        -2.42
      ],
      "mesh": 5,
      "extras": {
        "socket_type": "residential_window"
      }
    },
    {
      "name": "TenementWindow2_2",
      "translation": [
        3.0,
        6.15,
        -2.42
      ],
      "mesh": 5,
      "extras": {
        "socket_type": "residential_window"
      }
    },
    {
      "name": "TenementWindow3_0",
      "translation": [
        7.0,
        1.65,
        -2.42
      ],
      "mesh": 5,
      "extras": {
        "socket_type": "residential_window"
      }
    },
    {
      "name": "TenementWindow3_1",
      "translation": [
        7.0,
        3.9,
        -2.42
      ],
      "mesh": 5,
      "extras": {
        "socket_type": "residential_window"
      }
    },
    {
      "name": "TenementWindow3_2",
      "translation": [
        7.0,
        6.15,
        -2.42
      ],
      "mesh": 5,
      "extras": {
        "socket_type": "residential_window"
      }
    },
    {
      "name": "TenementFrontWindowRevealL0_0",
      "translation": [
        -6.8,
        1.65,
        2.42
      ],
      "mesh": 20,
      "extras": {
        "surface": "window_reveal"
      }
    },
    {
      "name": "TenementFrontWindowL0_0",
      "translation": [
        -6.8,
        1.65,
        2.5
      ],
      "mesh": 5,
      "extras": {
        "socket_type": "approach_window"
      }
    },
    {
      "name": "TenementFrontWindowJambL0_0",
      "translation": [
        -7.3999999999999995,
        1.65,
        2.58
      ],
      "mesh": 21,
      "extras": {
        "surface": "window_jamb"
      }
    },
    {
      "name": "TenementFrontWindowJambL0_0R",
      "translation": [
        -6.2,
        1.65,
        2.58
      ],
      "mesh": 21,
      "extras": {
        "surface": "window_jamb"
      }
    },
    {
      "name": "TenementFrontWindowMullionL0_0",
      "translation": [
        -6.8,
        1.65,
        2.6
      ],
      "mesh": 22,
      "extras": {
        "surface": "window_mullion"
      }
    },
    {
      "name": "TenementFrontWindowRevealL0_1",
      "translation": [
        -6.8,
        3.9,
        2.42
      ],
      "mesh": 20,
      "extras": {
        "surface": "window_reveal"
      }
    },
    {
      "name": "TenementFrontWindowL0_1",
      "translation": [
        -6.8,
        3.9,
        2.5
      ],
      "mesh": 5,
      "extras": {
        "socket_type": "approach_window"
      }
    },
    {
      "name": "TenementFrontWindowJambL0_1",
      "translation": [
        -7.3999999999999995,
        3.9,
        2.58
      ],
      "mesh": 21,
      "extras": {
        "surface": "window_jamb"
      }
    },
    {
      "name": "TenementFrontWindowJambL0_1R",
      "translation": [
        -6.2,
        3.9,
        2.58
      ],
      "mesh": 21,
      "extras": {
        "surface": "window_jamb"
      }
    },
    {
      "name": "TenementFrontWindowMullionL0_1",
      "translation": [
        -6.8,
        3.9,
        2.6
      ],
      "mesh": 22,
      "extras": {
        "surface": "window_mullion"
      }
    },
    {
      "name": "TenementFrontWindowRevealL0_2",
      "translation": [
        -6.8,
        6.15,
        2.42
      ],
      "mesh": 20,
      "extras": {
        "surface": "window_reveal"
      }
    },
    {
      "name": "TenementFrontWindowL0_2",
      "translation": [
        -6.8,
        6.15,
        2.5
      ],
      "mesh": 5,
      "extras": {
        "socket_type": "approach_window"
      }
    },
    {
      "name": "TenementFrontWindowJambL0_2",
      "translation": [
        -7.3999999999999995,
        6.15,
        2.58
      ],
      "mesh": 21,
      "extras": {
        "surface": "window_jamb"
      }
    },
    {
      "name": "TenementFrontWindowJambL0_2R",
      "translation": [
        -6.2,
        6.15,
        2.58
      ],
      "mesh": 21,
      "extras": {
        "surface": "window_jamb"
      }
    },
    {
      "name": "TenementFrontWindowMullionL0_2",
      "translation": [
        -6.8,
        6.15,
        2.6
      ],
      "mesh": 22,
      "extras": {
        "surface": "window_mullion"
      }
    },
    {
      "name": "TenementFrontWindowRevealL1_0",
      "translation": [
        -3.2,
        1.65,
        2.42
      ],
      "mesh": 20,
      "extras": {
        "surface": "window_reveal"
      }
    },
    {
      "name": "TenementFrontWindowL1_0",
      "translation": [
        -3.2,
        1.65,
        2.5
      ],
      "mesh": 5,
      "extras": {
        "socket_type": "approach_window"
      }
    },
    {
      "name": "TenementFrontWindowJambL1_0",
      "translation": [
        -3.8000000000000003,
        1.65,
        2.58
      ],
      "mesh": 21,
      "extras": {
        "surface": "window_jamb"
      }
    },
    {
      "name": "TenementFrontWindowJambL1_0R",
      "translation": [
        -2.6,
        1.65,
        2.58
      ],
      "mesh": 21,
      "extras": {
        "surface": "window_jamb"
      }
    },
    {
      "name": "TenementFrontWindowMullionL1_0",
      "translation": [
        -3.2,
        1.65,
        2.6
      ],
      "mesh": 22,
      "extras": {
        "surface": "window_mullion"
      }
    },
    {
      "name": "TenementFrontWindowRevealL1_1",
      "translation": [
        -3.2,
        3.9,
        2.42
      ],
      "mesh": 20,
      "extras": {
        "surface": "window_reveal"
      }
    },
    {
      "name": "TenementFrontWindowL1_1",
      "translation": [
        -3.2,
        3.9,
        2.5
      ],
      "mesh": 5,
      "extras": {
        "socket_type": "approach_window"
      }
    },
    {
      "name": "TenementFrontWindowJambL1_1",
      "translation": [
        -3.8000000000000003,
        3.9,
        2.58
      ],
      "mesh": 21,
      "extras": {
        "surface": "window_jamb"
      }
    },
    {
      "name": "TenementFrontWindowJambL1_1R",
      "translation": [
        -2.6,
        3.9,
        2.58
      ],
      "mesh": 21,
      "extras": {
        "surface": "window_jamb"
      }
    },
    {
      "name": "TenementFrontWindowMullionL1_1",
      "translation": [
        -3.2,
        3.9,
        2.6
      ],
      "mesh": 22,
      "extras": {
        "surface": "window_mullion"
      }
    },
    {
      "name": "TenementFrontWindowRevealL1_2",
      "translation": [
        -3.2,
        6.15,
        2.42
      ],
      "mesh": 20,
      "extras": {
        "surface": "window_reveal"
      }
    },
    {
      "name": "TenementFrontWindowL1_2",
      "translation": [
        -3.2,
        6.15,
        2.5
      ],
      "mesh": 5,
      "extras": {
        "socket_type": "approach_window"
      }
    },
    {
      "name": "TenementFrontWindowJambL1_2",
      "translation": [
        -3.8000000000000003,
        6.15,
        2.58
      ],
      "mesh": 21,
      "extras": {
        "surface": "window_jamb"
      }
    },
    {
      "name": "TenementFrontWindowJambL1_2R",
      "translation": [
        -2.6,
        6.15,
        2.58
      ],
      "mesh": 21,
      "extras": {
        "surface": "window_jamb"
      }
    },
    {
      "name": "TenementFrontWindowMullionL1_2",
      "translation": [
        -3.2,
        6.15,
        2.6
      ],
      "mesh": 22,
      "extras": {
        "surface": "window_mullion"
      }
    },
    {
      "name": "TenementFrontWindowRevealR0_0",
      "translation": [
        3.2,
        1.65,
        4.82
      ],
      "mesh": 20,
      "extras": {
        "surface": "window_reveal"
      }
    },
    {
      "name": "TenementFrontWindowR0_0",
      "translation": [
        3.2,
        1.65,
        4.9
      ],
      "mesh": 5,
      "extras": {
        "socket_type": "approach_window"
      }
    },
    {
      "name": "TenementFrontWindowJambR0_0",
      "translation": [
        2.6,
        1.65,
        4.98
      ],
      "mesh": 21,
      "extras": {
        "surface": "window_jamb"
      }
    },
    {
      "name": "TenementFrontWindowJambR0_0R",
      "translation": [
        3.8000000000000003,
        1.65,
        4.98
      ],
      "mesh": 21,
      "extras": {
        "surface": "window_jamb"
      }
    },
    {
      "name": "TenementFrontWindowMullionR0_0",
      "translation": [
        3.2,
        1.65,
        5.0
      ],
      "mesh": 22,
      "extras": {
        "surface": "window_mullion"
      }
    },
    {
      "name": "TenementFrontWindowRevealR0_1",
      "translation": [
        3.2,
        3.9,
        4.82
      ],
      "mesh": 20,
      "extras": {
        "surface": "window_reveal"
      }
    },
    {
      "name": "TenementFrontWindowR0_1",
      "translation": [
        3.2,
        3.9,
        4.9
      ],
      "mesh": 5,
      "extras": {
        "socket_type": "approach_window"
      }
    },
    {
      "name": "TenementFrontWindowJambR0_1",
      "translation": [
        2.6,
        3.9,
        4.98
      ],
      "mesh": 21,
      "extras": {
        "surface": "window_jamb"
      }
    },
    {
      "name": "TenementFrontWindowJambR0_1R",
      "translation": [
        3.8000000000000003,
        3.9,
        4.98
      ],
      "mesh": 21,
      "extras": {
        "surface": "window_jamb"
      }
    },
    {
      "name": "TenementFrontWindowMullionR0_1",
      "translation": [
        3.2,
        3.9,
        5.0
      ],
      "mesh": 22,
      "extras": {
        "surface": "window_mullion"
      }
    },
    {
      "name": "TenementFrontWindowRevealR0_2",
      "translation": [
        3.2,
        6.15,
        4.82
      ],
      "mesh": 20,
      "extras": {
        "surface": "window_reveal"
      }
    },
    {
      "name": "TenementFrontWindowR0_2",
      "translation": [
        3.2,
        6.15,
        4.9
      ],
      "mesh": 5,
      "extras": {
        "socket_type": "approach_window"
      }
    },
    {
      "name": "TenementFrontWindowJambR0_2",
      "translation": [
        2.6,
        6.15,
        4.98
      ],
      "mesh": 21,
      "extras": {
        "surface": "window_jamb"
      }
    },
    {
      "name": "TenementFrontWindowJambR0_2R",
      "translation": [
        3.8000000000000003,
        6.15,
        4.98
      ],
      "mesh": 21,
      "extras": {
        "surface": "window_jamb"
      }
    },
    {
      "name": "TenementFrontWindowMullionR0_2",
      "translation": [
        3.2,
        6.15,
        5.0
      ],
      "mesh": 22,
      "extras": {
        "surface": "window_mullion"
      }
    },
    {
      "name": "TenementFrontWindowRevealR1_0",
      "translation": [
        6.8,
        1.65,
        4.82
      ],
      "mesh": 20,
      "extras": {
        "surface": "window_reveal"
      }
    },
    {
      "name": "TenementFrontWindowR1_0",
      "translation": [
        6.8,
        1.65,
        4.9
      ],
      "mesh": 5,
      "extras": {
        "socket_type": "approach_window"
      }
    },
    {
      "name": "TenementFrontWindowJambR1_0",
      "translation": [
        6.2,
        1.65,
        4.98
      ],
      "mesh": 21,
      "extras": {
        "surface": "window_jamb"
      }
    },
    {
      "name": "TenementFrontWindowJambR1_0R",
      "translation": [
        7.3999999999999995,
        1.65,
        4.98
      ],
      "mesh": 21,
      "extras": {
        "surface": "window_jamb"
      }
    },
    {
      "name": "TenementFrontWindowMullionR1_0",
      "translation": [
        6.8,
        1.65,
        5.0
      ],
      "mesh": 22,
      "extras": {
        "surface": "window_mullion"
      }
    },
    {
      "name": "TenementFrontWindowRevealR1_1",
      "translation": [
        6.8,
        3.9,
        4.82
      ],
      "mesh": 20,
      "extras": {
        "surface": "window_reveal"
      }
    },
    {
      "name": "TenementFrontWindowR1_1",
      "translation": [
        6.8,
        3.9,
        4.9
      ],
      "mesh": 5,
      "extras": {
        "socket_type": "approach_window"
      }
    },
    {
      "name": "TenementFrontWindowJambR1_1",
      "translation": [
        6.2,
        3.9,
        4.98
      ],
      "mesh": 21,
      "extras": {
        "surface": "window_jamb"
      }
    },
    {
      "name": "TenementFrontWindowJambR1_1R",
      "translation": [
        7.3999999999999995,
        3.9,
        4.98
      ],
      "mesh": 21,
      "extras": {
        "surface": "window_jamb"
      }
    },
    {
      "name": "TenementFrontWindowMullionR1_1",
      "translation": [
        6.8,
        3.9,
        5.0
      ],
      "mesh": 22,
      "extras": {
        "surface": "window_mullion"
      }
    },
    {
      "name": "TenementFrontWindowRevealR1_2",
      "translation": [
        6.8,
        6.15,
        4.82
      ],
      "mesh": 20,
      "extras": {
        "surface": "window_reveal"
      }
    },
    {
      "name": "TenementFrontWindowR1_2",
      "translation": [
        6.8,
        6.15,
        4.9
      ],
      "mesh": 5,
      "extras": {
        "socket_type": "approach_window"
      }
    },
    {
      "name": "TenementFrontWindowJambR1_2",
      "translation": [
        6.2,
        6.15,
        4.98
      ],
      "mesh": 21,
      "extras": {
        "surface": "window_jamb"
      }
    },
    {
      "name": "TenementFrontWindowJambR1_2R",
      "translation": [
        7.3999999999999995,
        6.15,
        4.98
      ],
      "mesh": 21,
      "extras": {
        "surface": "window_jamb"
      }
    },
    {
      "name": "TenementFrontWindowMullionR1_2",
      "translation": [
        6.8,
        6.15,
        5.0
      ],
      "mesh": 22,
      "extras": {
        "surface": "window_mullion"
      }
    },
    {
      "name": "TenementFrontWindowLintelL0_0",
      "translation": [
        -6.8,
        2.33,
        2.58
      ],
      "mesh": 18,
      "extras": {
        "surface": "window_lintel"
      }
    },
    {
      "name": "TenementFrontWindowSillL0_0",
      "translation": [
        -6.8,
        0.9699999999999999,
        2.58
      ],
      "mesh": 19,
      "extras": {
        "surface": "window_sill"
      }
    },
    {
      "name": "TenementFrontWindowLintelL0_1",
      "translation": [
        -6.8,
        4.58,
        2.58
      ],
      "mesh": 18,
      "extras": {
        "surface": "window_lintel"
      }
    },
    {
      "name": "TenementFrontWindowSillL0_1",
      "translation": [
        -6.8,
        3.2199999999999998,
        2.58
      ],
      "mesh": 19,
      "extras": {
        "surface": "window_sill"
      }
    },
    {
      "name": "TenementFrontWindowLintelL0_2",
      "translation": [
        -6.8,
        6.83,
        2.58
      ],
      "mesh": 18,
      "extras": {
        "surface": "window_lintel"
      }
    },
    {
      "name": "TenementFrontWindowSillL0_2",
      "translation": [
        -6.8,
        5.470000000000001,
        2.58
      ],
      "mesh": 19,
      "extras": {
        "surface": "window_sill"
      }
    },
    {
      "name": "TenementFrontWindowLintelL1_0",
      "translation": [
        -3.2,
        2.33,
        2.58
      ],
      "mesh": 18,
      "extras": {
        "surface": "window_lintel"
      }
    },
    {
      "name": "TenementFrontWindowSillL1_0",
      "translation": [
        -3.2,
        0.9699999999999999,
        2.58
      ],
      "mesh": 19,
      "extras": {
        "surface": "window_sill"
      }
    },
    {
      "name": "TenementFrontWindowLintelL1_1",
      "translation": [
        -3.2,
        4.58,
        2.58
      ],
      "mesh": 18,
      "extras": {
        "surface": "window_lintel"
      }
    },
    {
      "name": "TenementFrontWindowSillL1_1",
      "translation": [
        -3.2,
        3.2199999999999998,
        2.58
      ],
      "mesh": 19,
      "extras": {
        "surface": "window_sill"
      }
    },
    {
      "name": "TenementFrontWindowLintelL1_2",
      "translation": [
        -3.2,
        6.83,
        2.58
      ],
      "mesh": 18,
      "extras": {
        "surface": "window_lintel"
      }
    },
    {
      "name": "TenementFrontWindowSillL1_2",
      "translation": [
        -3.2,
        5.470000000000001,
        2.58
      ],
      "mesh": 19,
      "extras": {
        "surface": "window_sill"
      }
    },
    {
      "name": "TenementFrontWindowLintelR0_0",
      "translation": [
        3.2,
        2.33,
        4.98
      ],
      "mesh": 18,
      "extras": {
        "surface": "window_lintel"
      }
    },
    {
      "name": "TenementFrontWindowSillR0_0",
      "translation": [
        3.2,
        0.9699999999999999,
        4.98
      ],
      "mesh": 19,
      "extras": {
        "surface": "window_sill"
      }
    },
    {
      "name": "TenementFrontWindowLintelR0_1",
      "translation": [
        3.2,
        4.58,
        4.98
      ],
      "mesh": 18,
      "extras": {
        "surface": "window_lintel"
      }
    },
    {
      "name": "TenementFrontWindowSillR0_1",
      "translation": [
        3.2,
        3.2199999999999998,
        4.98
      ],
      "mesh": 19,
      "extras": {
        "surface": "window_sill"
      }
    },
    {
      "name": "TenementFrontWindowLintelR0_2",
      "translation": [
        3.2,
        6.83,
        4.98
      ],
      "mesh": 18,
      "extras": {
        "surface": "window_lintel"
      }
    },
    {
      "name": "TenementFrontWindowSillR0_2",
      "translation": [
        3.2,
        5.470000000000001,
        4.98
      ],
      "mesh": 19,
      "extras": {
        "surface": "window_sill"
      }
    },
    {
      "name": "TenementFrontWindowLintelR1_0",
      "translation": [
        6.8,
        2.33,
        4.98
      ],
      "mesh": 18,
      "extras": {
        "surface": "window_lintel"
      }
    },
    {
      "name": "TenementFrontWindowSillR1_0",
      "translation": [
        6.8,
        0.9699999999999999,
        4.98
      ],
      "mesh": 19,
      "extras": {
        "surface": "window_sill"
      }
    },
    {
      "name": "TenementFrontWindowLintelR1_1",
      "translation": [
        6.8,
        4.58,
        4.98
      ],
      "mesh": 18,
      "extras": {
        "surface": "window_lintel"
      }
    },
    {
      "name": "TenementFrontWindowSillR1_1",
      "translation": [
        6.8,
        3.2199999999999998,
        4.98
      ],
      "mesh": 19,
      "extras": {
        "surface": "window_sill"
      }
    },
    {
      "name": "TenementFrontWindowLintelR1_2",
      "translation": [
        6.8,
        6.83,
        4.98
      ],
      "mesh": 18,
      "extras": {
        "surface": "window_lintel"
      }
    },
    {
      "name": "TenementFrontWindowSillR1_2",
      "translation": [
        6.8,
        5.470000000000001,
        4.98
      ],
      "mesh": 19,
      "extras": {
        "surface": "window_sill"
      }
    },
    {
      "name": "TenementBlockLEdgeL",
      "translation": [
        -8.15,
        4.5,
        0.0
      ],
      "mesh": 2,
      "extras": {
        "socket_type": "facade_edge"
      }
    },
    {
      "name": "TenementBlockLEdgeR",
      "translation": [
        -1.85,
        4.5,
        0.0
      ],
      "mesh": 2,
      "extras": {
        "socket_type": "facade_edge"
      }
    },
    {
      "name": "TenementBlockREdgeL",
      "translation": [
        1.85,
        4.5,
        2.4
      ],
      "mesh": 2,
      "extras": {
        "socket_type": "facade_edge"
      }
    },
    {
      "name": "TenementBlockREdgeR",
      "translation": [
        8.15,
        4.5,
        2.4
      ],
      "mesh": 2,
      "extras": {
        "socket_type": "facade_edge"
      }
    },
    {
      "name": "TenementBalcony0",
      "translation": [
        -0.1,
        1.25,
        -1.0
      ],
      "mesh": 6,
      "extras": {
        "socket_type": "balcony"
      },
      "children": [
        115,
        116,
        117,
        118
      ]
    },
    {
      "name": "TenementBalconyRail0_L",
      "translation": [
        -1.35,
        0.85,
        0.0
      ],
      "mesh": 7,
      "rotation": [
        0.7071067811865476,
        0.0,
        0.0,
        0.7071067811865476
      ]
    },
    {
      "name": "TenementBalconyBrace0_L",
      "translation": [
        -0.92,
        -0.32,
        0.42
      ],
      "mesh": 23,
      "rotation": [
        0.0,
        0.0,
        -0.11971220728891936,
        0.9928086358538663
      ],
      "extras": {
        "surface": "balcony_brace"
      }
    },
    {
      "name": "TenementBalconyRail0_R",
      "translation": [
        1.35,
        0.85,
        0.0
      ],
      "mesh": 7,
      "rotation": [
        0.7071067811865476,
        0.0,
        0.0,
        0.7071067811865476
      ]
    },
    {
      "name": "TenementBalconyBrace0_R",
      "translation": [
        0.92,
        -0.32,
        0.42
      ],
      "mesh": 23,
      "rotation": [
        0.0,
        0.0,
        0.11971220728891936,
        0.9928086358538663
      ],
      "extras": {
        "surface": "balcony_brace"
      }
    },
    {
      "name": "TenementBalcony1",
      "translation": [
        -0.1,
        3.5,
        2.0
      ],
      "mesh": 6,
      "extras": {
        "socket_type": "balcony"
      },
      "children": [
        120,
        121,
        122,
        123
      ]
    },
    {
      "name": "TenementBalconyRail1_L",
      "translation": [
        -1.35,
        0.85,
        0.0
      ],
      "mesh": 7,
      "rotation": [
        0.7071067811865476,
        0.0,
        0.0,
        0.7071067811865476
      ]
    },
    {
      "name": "TenementBalconyBrace1_L",
      "translation": [
        -0.92,
        -0.32,
        0.42
      ],
      "mesh": 23,
      "rotation": [
        0.0,
        0.0,
        -0.11971220728891936,
        0.9928086358538663
      ],
      "extras": {
        "surface": "balcony_brace"
      }
    },
    {
      "name": "TenementBalconyRail1_R",
      "translation": [
        1.35,
        0.85,
        0.0
      ],
      "mesh": 7,
      "rotation": [
        0.7071067811865476,
        0.0,
        0.0,
        0.7071067811865476
      ]
    },
    {
      "name": "TenementBalconyBrace1_R",
      "translation": [
        0.92,
        -0.32,
        0.42
      ],
      "mesh": 23,
      "rotation": [
        0.0,
        0.0,
        0.11971220728891936,
        0.9928086358538663
      ],
      "extras": {
        "surface": "balcony_brace"
      }
    },
    {
      "name": "TenementBalcony2",
      "translation": [
        -0.1,
        5.75,
        5.0
      ],
      "mesh": 6,
      "extras": {
        "socket_type": "balcony"
      },
      "children": [
        125,
        126,
        127,
        128
      ]
    },
    {
      "name": "TenementBalconyRail2_L",
      "translation": [
        -1.35,
        0.85,
        0.0
      ],
      "mesh": 7,
      "rotation": [
        0.7071067811865476,
        0.0,
        0.0,
        0.7071067811865476
      ]
    },
    {
      "name": "TenementBalconyBrace2_L",
      "translation": [
        -0.92,
        -0.32,
        0.42
      ],
      "mesh": 23,
      "rotation": [
        0.0,
        0.0,
        -0.11971220728891936,
        0.9928086358538663
      ],
      "extras": {
        "surface": "balcony_brace"
      }
    },
    {
      "name": "TenementBalconyRail2_R",
      "translation": [
        1.35,
        0.85,
        0.0
      ],
      "mesh": 7,
      "rotation": [
        0.7071067811865476,
        0.0,
        0.0,
        0.7071067811865476
      ]
    },
    {
      "name": "TenementBalconyBrace2_R",
      "translation": [
        0.92,
        -0.32,
        0.42
      ],
      "mesh": 23,
      "rotation": [
        0.0,
        0.0,
        0.11971220728891936,
        0.9928086358538663
      ],
      "extras": {
        "surface": "balcony_brace"
      }
    },
    {
      "name": "TenementFireEscapeLadder",
      "translation": [
        -8.3,
        4.4,
        3.2
      ],
      "mesh": 8,
      "extras": {
        "socket_type": "fire_escape"
      },
      "children": [
        130
      ]
    },
    {
      "name": "TenementFireEscapeRail",
      "translation": [
        0.0,
        0.0,
        1.5
      ],
      "mesh": 7,
      "rotation": [
        0.7071067811865476,
        0.0,
        0.0,
        0.7071067811865476
      ]
    },
    {
      "name": "TenementRoofWaterTank",
      "translation": [
        5.8,
        10.4,
        2.6
      ],
      "mesh": 9,
      "extras": {
        "socket_type": "roof_water_tank"
      }
    },
    {
      "name": "TenementRoofWaterTankCap",
      "translation": [
        5.8,
        11.55,
        2.6
      ],
      "mesh": 10
    },
    {
      "name": "TenementTankValve",
      "translation": [
        5.8,
        10.4,
        1.35
      ],
      "mesh": 25,
      "rotation": [
        0.7071067811865476,
        0.0,
        0.0,
        0.7071067811865476
      ],
      "extras": {
        "surface": "tank_service_valve"
      }
    },
    {
      "name": "TenementLeftRoofServiceHousing",
      "translation": [
        -5.25,
        9.3,
        0.55
      ],
      "mesh": 28,
      "extras": {
        "socket_type": "roof_maintenance_housing"
      }
    },
    {
      "name": "TenementLeftRoofVent",
      "translation": [
        -5.25,
        9.82,
        0.55
      ],
      "mesh": 29,
      "extras": {
        "surface": "roof_vent_stack"
      }
    },
    {
      "name": "TenementLeftRoofVentCap",
      "translation": [
        -5.25,
        10.15,
        0.55
      ],
      "mesh": 30
    },
    {
      "name": "TenementLeftRoofPipe",
      "translation": [
        -4.2,
        9.66,
        0.72
      ],
      "mesh": 31,
      "rotation": [
        0.0,
        0.0,
        0.7071067811865476,
        0.7071067811865476
      ],
      "extras": {
        "surface": "roof_service_pipe"
      }
    },
    {
      "name": "TenementHangingCloth0",
      "translation": [
        -4.2,
        2.35,
        3.9
      ],
      "mesh": 11,
      "rotation": [
        -0.0005998700108495156,
        -0.019989667968255832,
        -0.029989501302422495,
        0.9993501304058158
      ],
      "scale": [
        1.0,
        1.0,
        1.0
      ],
      "extras": {
        "socket_type": "hanging_cloth",
        "material_variation": 0
      }
    },
    {
      "name": "TenementLaundryLine0",
      "translation": [
        -4.2,
        3.0300000000000002,
        3.9
      ],
      "mesh": 24,
      "rotation": [
        0.0,
        0.0,
        0.7071067811865476,
        0.7071067811865476
      ],
      "extras": {
        "surface": "laundry_line"
      }
    },
    {
      "name": "TenementHangingCloth1",
      "translation": [
        0.8,
        4.55,
        6.0
      ],
      "mesh": 12,
      "scale": [
        1.0,
        1.06,
        1.0
      ],
      "extras": {
        "socket_type": "hanging_cloth",
        "material_variation": 1
      }
    },
    {
      "name": "TenementLaundryLine1",
      "translation": [
        0.8,
        5.2299999999999995,
        6.0
      ],
      "mesh": 24,
      "rotation": [
        0.0,
        0.0,
        0.7071067811865476,
        0.7071067811865476
      ],
      "extras": {
        "surface": "laundry_line"
      }
    },
    {
      "name": "TenementHangingCloth2",
      "translation": [
        5.1,
        1.4,
        -2.9
      ],
      "mesh": 13,
      "rotation": [
        -0.0005998700108495156,
        0.019989667968255832,
        0.029989501302422495,
        0.9993501304058158
      ],
      "scale": [
        1.0,
        1.0,
        1.0
      ],
      "extras": {
        "socket_type": "hanging_cloth",
        "material_variation": 2
      }
    },
    {
      "name": "TenementLaundryLine2",
      "translation": [
        5.1,
        2.08,
        -2.9
      ],
      "mesh": 24,
      "rotation": [
        0.0,
        0.0,
        0.7071067811865476,
        0.7071067811865476
      ],
      "extras": {
        "surface": "laundry_line"
      }
    },
    {
      "name": "TenementServiceCable",
      "translation": [
        7.4,
        7.0,
        2.8
      ],
      "mesh": 16,
      "rotation": [
        0.0,
        0.0,
        0.7071067811865476,
        0.7071067811865476
      ],
      "extras": {
        "socket_type": "service_cable"
      }
    },
    {
      "name": "TenementWindowLight",
      "translation": [
        -3.0,
        5.25,
        -2.5
      ],
      "mesh": 15,
      "extras": {
        "socket_type": "window_light"
      }
    },
    {
      "name": "TenementFrontWindowLightL",
      "translation": [
        -3.0,
        5.25,
        2.5
      ],
      "mesh": 15,
      "extras": {
        "socket_type": "approach_window_light"
      }
    },
    {
      "name": "TenementFrontWindowLightR",
      "translation": [
        6.8,
        5.25,
        4.9
      ],
      "mesh": 15,
      "extras": {
        "socket_type": "approach_window_light"
      }
    },
    {
      "name": "TenementLightHousingL",
      "translation": [
        -3.0,
        5.25,
        2.58
      ],
      "mesh": 27,
      "extras": {
        "surface": "window_light_housing"
      }
    },
    {
      "name": "TenementLightHousingR",
      "translation": [
        6.8,
        5.25,
        4.98
      ],
      "mesh": 27,
      "extras": {
        "surface": "window_light_housing"
      }
    },
    {
      "name": "TenementOrganicCreep0",
      "translation": [
        -7.2,
        0.5,
        5.2
      ],
      "mesh": 14,
      "scale": [
        1.1,
        0.8,
        1.0
      ],
      "extras": {
        "socket_type": "organic_creep"
      }
    },
    {
      "name": "TenementOrganicTendril0_0",
      "translation": [
        -7.42,
        0.82,
        5.2
      ],
      "mesh": 26,
      "rotation": [
        0.0,
        0.0,
        -0.11971220728891936,
        0.9928086358538663
      ],
      "extras": {
        "surface": "organic_tendril"
      }
    },
    {
      "name": "TenementOrganicTendril0_1",
      "translation": [
        -7.04,
        0.82,
        5.2
      ],
      "mesh": 26,
      "rotation": [
        0.0,
        0.0,
        0.11971220728891936,
        0.9928086358538663
      ],
      "extras": {
        "surface": "organic_tendril"
      }
    },
    {
      "name": "TenementOrganicCreep1",
      "translation": [
        6.8,
        0.5,
        -3.9
      ],
      "mesh": 14,
      "scale": [
        0.82,
        0.65,
        1.25
      ],
      "extras": {
        "socket_type": "organic_creep"
      }
    },
    {
      "name": "TenementOrganicTendril1_0",
      "translation": [
        6.58,
        0.82,
        -3.9
      ],
      "mesh": 26,
      "rotation": [
        0.0,
        0.0,
        -0.11971220728891936,
        0.9928086358538663
      ],
      "extras": {
        "surface": "organic_tendril"
      }
    },
    {
      "name": "TenementOrganicTendril1_1",
      "translation": [
        6.96,
        0.82,
        -3.9
      ],
      "mesh": 26,
      "rotation": [
        0.0,
        0.0,
        0.11971220728891936,
        0.9928086358538663
      ],
      "extras": {
        "surface": "organic_tendril"
      }
    },
    {
      "name": "ProductionAssetMarker",
      "translation": [
        0.0,
        0.0,
        0.0
      ],
      "extras": {
        "asset_contract": "tenement.east_blocks.v1",
        "source": "original_procedural_mesh_builder"
      }
    }
  ],
  "meshes": [
    {
      "name": "TenementFloor",
      "primitives": [
        {
          "attributes": {
            "POSITION": 0,
            "NORMAL": 1,
            "TEXCOORD_0": 2,
            "TANGENT": 3
          },
          "indices": 4,
          "material": 1
        }
      ]
    },
    {
      "name": "TenementBlock",
      "primitives": [
        {
          "attributes": {
            "POSITION": 5,
            "NORMAL": 6,
            "TEXCOORD_0": 7,
            "TANGENT": 8
          },
          "indices": 9,
          "material": 0
        }
      ]
    },
    {
      "name": "TenementBlockEdge",
      "primitives": [
        {
          "attributes": {
            "POSITION": 10,
            "NORMAL": 11,
            "TEXCOORD_0": 12,
            "TANGENT": 13
          },
          "indices": 14,
          "material": 1
        }
      ]
    },
    {
      "name": "TenementFacadeBand",
      "primitives": [
        {
          "attributes": {
            "POSITION": 15,
            "NORMAL": 16,
            "TEXCOORD_0": 17,
            "TANGENT": 18
          },
          "indices": 19,
          "material": 2
        }
      ]
    },
    {
      "name": "TenementFacadePillar",
      "primitives": [
        {
          "attributes": {
            "POSITION": 20,
            "NORMAL": 21,
            "TEXCOORD_0": 22,
            "TANGENT": 23
          },
          "indices": 24,
          "material": 1
        }
      ]
    },
    {
      "name": "TenementWindow",
      "primitives": [
        {
          "attributes": {
            "POSITION": 25,
            "NORMAL": 26,
            "TEXCOORD_0": 27,
            "TANGENT": 28
          },
          "indices": 29,
          "material": 4
        }
      ]
    },
    {
      "name": "TenementBalcony",
      "primitives": [
        {
          "attributes": {
            "POSITION": 30,
            "NORMAL": 31,
            "TEXCOORD_0": 32,
            "TANGENT": 33
          },
          "indices": 34,
          "material": 2
        }
      ]
    },
    {
      "name": "TenementRail",
      "primitives": [
        {
          "attributes": {
            "POSITION": 35,
            "NORMAL": 36,
            "TEXCOORD_0": 37,
            "TANGENT": 38
          },
          "indices": 39,
          "material": 3
        }
      ]
    },
    {
      "name": "TenementLadder",
      "primitives": [
        {
          "attributes": {
            "POSITION": 40,
            "NORMAL": 41,
            "TEXCOORD_0": 42,
            "TANGENT": 43
          },
          "indices": 44,
          "material": 2
        }
      ]
    },
    {
      "name": "TenementWaterTank",
      "primitives": [
        {
          "attributes": {
            "POSITION": 45,
            "NORMAL": 46,
            "TEXCOORD_0": 47,
            "TANGENT": 48
          },
          "indices": 49,
          "material": 9
        }
      ]
    },
    {
      "name": "TenementTankCap",
      "primitives": [
        {
          "attributes": {
            "POSITION": 50,
            "NORMAL": 51,
            "TEXCOORD_0": 52,
            "TANGENT": 53
          },
          "indices": 54,
          "material": 3
        }
      ]
    },
    {
      "name": "TenementCloth",
      "primitives": [
        {
          "attributes": {
            "POSITION": 55,
            "NORMAL": 56,
            "TEXCOORD_0": 57,
            "TANGENT": 58
          },
          "indices": 59,
          "material": 5
        }
      ]
    },
    {
      "name": "TenementClothTeal",
      "primitives": [
        {
          "attributes": {
            "POSITION": 60,
            "NORMAL": 61,
            "TEXCOORD_0": 62,
            "TANGENT": 63
          },
          "indices": 64,
          "material": 6
        }
      ]
    },
    {
      "name": "TenementClothCream",
      "primitives": [
        {
          "attributes": {
            "POSITION": 65,
            "NORMAL": 66,
            "TEXCOORD_0": 67,
            "TANGENT": 68
          },
          "indices": 69,
          "material": 7
        }
      ]
    },
    {
      "name": "TenementOrganicCreep",
      "primitives": [
        {
          "attributes": {
            "POSITION": 70,
            "NORMAL": 71,
            "TEXCOORD_0": 72,
            "TANGENT": 73
          },
          "indices": 74,
          "material": 8
        }
      ]
    },
    {
      "name": "TenementWindowLight",
      "primitives": [
        {
          "attributes": {
            "POSITION": 75,
            "NORMAL": 76,
            "TEXCOORD_0": 77,
            "TANGENT": 78
          },
          "indices": 79,
          "material": 3
        }
      ]
    },
    {
      "name": "TenementCable",
      "primitives": [
        {
          "attributes": {
            "POSITION": 80,
            "NORMAL": 81,
            "TEXCOORD_0": 82,
            "TANGENT": 83
          },
          "indices": 84,
          "material": 3
        }
      ]
    },
    {
      "name": "TenementMarker",
      "primitives": [
        {
          "attributes": {
            "POSITION": 85,
            "NORMAL": 86,
            "TEXCOORD_0": 87,
            "TANGENT": 88
          },
          "indices": 89,
          "material": 3
        }
      ]
    },
    {
      "name": "TenementWindowLintel",
      "primitives": [
        {
          "attributes": {
            "POSITION": 90,
            "NORMAL": 91,
            "TEXCOORD_0": 92,
            "TANGENT": 93
          },
          "indices": 94,
          "material": 2
        }
      ]
    },
    {
      "name": "TenementWindowSill",
      "primitives": [
        {
          "attributes": {
            "POSITION": 95,
            "NORMAL": 96,
            "TEXCOORD_0": 97,
            "TANGENT": 98
          },
          "indices": 99,
          "material": 3
        }
      ]
    },
    {
      "name": "TenementWindowReveal",
      "primitives": [
        {
          "attributes": {
            "POSITION": 100,
            "NORMAL": 101,
            "TEXCOORD_0": 102,
            "TANGENT": 103
          },
          "indices": 104,
          "material": 1
        }
      ]
    },
    {
      "name": "TenementWindowJamb",
      "primitives": [
        {
          "attributes": {
            "POSITION": 105,
            "NORMAL": 106,
            "TEXCOORD_0": 107,
            "TANGENT": 108
          },
          "indices": 109,
          "material": 1
        }
      ]
    },
    {
      "name": "TenementWindowMullion",
      "primitives": [
        {
          "attributes": {
            "POSITION": 110,
            "NORMAL": 111,
            "TEXCOORD_0": 112,
            "TANGENT": 113
          },
          "indices": 114,
          "material": 2
        }
      ]
    },
    {
      "name": "TenementBalconyBrace",
      "primitives": [
        {
          "attributes": {
            "POSITION": 115,
            "NORMAL": 116,
            "TEXCOORD_0": 117,
            "TANGENT": 118
          },
          "indices": 119,
          "material": 3
        }
      ]
    },
    {
      "name": "TenementLaundryLine",
      "primitives": [
        {
          "attributes": {
            "POSITION": 120,
            "NORMAL": 121,
            "TEXCOORD_0": 122,
            "TANGENT": 123
          },
          "indices": 124,
          "material": 2
        }
      ]
    },
    {
      "name": "TenementTankValve",
      "primitives": [
        {
          "attributes": {
            "POSITION": 125,
            "NORMAL": 126,
            "TEXCOORD_0": 127,
            "TANGENT": 128
          },
          "indices": 129,
          "material": 3
        }
      ]
    },
    {
      "name": "TenementCreepTendril",
      "primitives": [
        {
          "attributes": {
            "POSITION": 130,
            "NORMAL": 131,
            "TEXCOORD_0": 132,
            "TANGENT": 133
          },
          "indices": 134,
          "material": 8
        }
      ]
    },
    {
      "name": "TenementLightHousing",
      "primitives": [
        {
          "attributes": {
            "POSITION": 135,
            "NORMAL": 136,
            "TEXCOORD_0": 137,
            "TANGENT": 138
          },
          "indices": 139,
          "material": 2
        }
      ]
    },
    {
      "name": "TenementRoofServiceHousing",
      "primitives": [
        {
          "attributes": {
            "POSITION": 140,
            "NORMAL": 141,
            "TEXCOORD_0": 142,
            "TANGENT": 143
          },
          "indices": 144,
          "material": 1
        }
      ]
    },
    {
      "name": "TenementRoofVent",
      "primitives": [
        {
          "attributes": {
            "POSITION": 145,
            "NORMAL": 146,
            "TEXCOORD_0": 147,
            "TANGENT": 148
          },
          "indices": 149,
          "material": 2
        }
      ]
    },
    {
      "name": "TenementRoofVentCap",
      "primitives": [
        {
          "attributes": {
            "POSITION": 150,
            "NORMAL": 151,
            "TEXCOORD_0": 152,
            "TANGENT": 153
          },
          "indices": 154,
          "material": 3
        }
      ]
    },
    {
      "name": "TenementRoofPipe",
      "primitives": [
        {
          "attributes": {
            "POSITION": 155,
            "NORMAL": 156,
            "TEXCOORD_0": 157,
            "TANGENT": 158
          },
          "indices": 159,
          "material": 3
        }
      ]
    }
  ],
  "materials": [
    {
      "name": "Tenement brick",
      "pbrMetallicRoughness": {
        "baseColorFactor": [
          0.11,
          0.038,
          0.032,
          1.0
        ],
        "metallicFactor": 0.03,
        "roughnessFactor": 0.92
      }
    },
    {
      "name": "Tenement concrete",
      "pbrMetallicRoughness": {
        "baseColorFactor": [
          0.075,
          0.1,
          0.11,
          1.0
        ],
        "metallicFactor": 0.05,
        "roughnessFactor": 0.88
      }
    },
    {
      "name": "Tenement iron",
      "pbrMetallicRoughness": {
        "baseColorFactor": [
          0.06,
          0.09,
          0.11,
          1.0
        ],
        "metallicFactor": 0.72,
        "roughnessFactor": 0.44
      }
    },
    {
      "name": "Tenement rust",
      "pbrMetallicRoughness": {
        "baseColorFactor": [
          0.52,
          0.2,
          0.07,
          1.0
        ],
        "metallicFactor": 0.38,
        "roughnessFactor": 0.68
      },
      "emissiveFactor": [
        0.12,
        0.02,
        0.005
      ]
    },
    {
      "name": "Tenement window",
      "pbrMetallicRoughness": {
        "baseColorFactor": [
          0.025,
          0.13,
          0.18,
          1.0
        ],
        "metallicFactor": 0.1,
        "roughnessFactor": 0.26
      },
      "emissiveFactor": [
        0.015,
        0.1,
        0.15
      ]
    },
    {
      "name": "Tenement cloth faded brick",
      "pbrMetallicRoughness": {
        "baseColorFactor": [
          0.18,
          0.15,
          0.13,
          1.0
        ],
        "metallicFactor": 0.0,
        "roughnessFactor": 0.94
      }
    },
    {
      "name": "Tenement cloth washed teal",
      "pbrMetallicRoughness": {
        "baseColorFactor": [
          0.08,
          0.2,
          0.22,
          1.0
        ],
        "metallicFactor": 0.0,
        "roughnessFactor": 0.94
      }
    },
    {
      "name": "Tenement cloth sun-bleached",
      "pbrMetallicRoughness": {
        "baseColorFactor": [
          0.34,
          0.28,
          0.2,
          1.0
        ],
        "metallicFactor": 0.0,
        "roughnessFactor": 0.95
      }
    },
    {
      "name": "Tenement organic",
      "pbrMetallicRoughness": {
        "baseColorFactor": [
          0.2,
          0.035,
          0.13,
          1.0
        ],
        "metallicFactor": 0.01,
        "roughnessFactor": 0.86
      },
      "emissiveFactor": [
        0.28,
        0.01,
        0.08
      ]
    },
    {
      "name": "Tenement tank",
      "pbrMetallicRoughness": {
        "baseColorFactor": [
          0.08,
          0.13,
          0.14,
          1.0
        ],
        "metallicFactor": 0.22,
        "roughnessFactor": 0.62
      }
    }
  ],
  "accessors": [
    {
      "bufferView": 0,
      "componentType": 5126,
      "count": 96,
      "type": "VEC3",
      "min": [
        -9.0,
        -0.08,
        -7.0
      ],
      "max": [
        9.0,
        0.08,
        7.0
      ]
    },
    {
      "bufferView": 1,
      "componentType": 5126,
      "count": 96,
      "type": "VEC3"
    },
    {
      "bufferView": 2,
      "componentType": 5126,
      "count": 96,
      "type": "VEC2"
    },
    {
      "bufferView": 3,
      "componentType": 5126,
      "count": 96,
      "type": "VEC4"
    },
    {
      "bufferView": 4,
      "componentType": 5123,
      "count": 132,
      "type": "SCALAR",
      "normalized": false
    },
    {
      "bufferView": 5,
      "componentType": 5126,
      "count": 96,
      "type": "VEC3",
      "min": [
        -3.0,
        -4.5,
        -2.35
      ],
      "max": [
        3.0,
        4.5,
        2.35
      ]
    },
    {
      "bufferView": 6,
      "componentType": 5126,
      "count": 96,
      "type": "VEC3"
    },
    {
      "bufferView": 7,
      "componentType": 5126,
      "count": 96,
      "type": "VEC2"
    },
    {
      "bufferView": 8,
      "componentType": 5126,
      "count": 96,
      "type": "VEC4"
    },
    {
      "bufferView": 9,
      "componentType": 5123,
      "count": 132,
      "type": "SCALAR",
      "normalized": false
    },
    {
      "bufferView": 10,
      "componentType": 5126,
      "count": 96,
      "type": "VEC3",
      "min": [
        -0.14,
        -4.5,
        -2.45
      ],
      "max": [
        0.14,
        4.5,
        2.45
      ]
    },
    {
      "bufferView": 11,
      "componentType": 5126,
      "count": 96,
      "type": "VEC3"
    },
    {
      "bufferView": 12,
      "componentType": 5126,
      "count": 96,
      "type": "VEC2"
    },
    {
      "bufferView": 13,
      "componentType": 5126,
      "count": 96,
      "type": "VEC4"
    },
    {
      "bufferView": 14,
      "componentType": 5123,
      "count": 132,
      "type": "SCALAR",
      "normalized": false
    },
    {
      "bufferView": 15,
      "componentType": 5126,
      "count": 96,
      "type": "VEC3",
      "min": [
        -2.775,
        -0.07,
        -0.09
      ],
      "max": [
        2.775,
        0.07,
        0.09
      ]
    },
    {
      "bufferView": 16,
      "componentType": 5126,
      "count": 96,
      "type": "VEC3"
    },
    {
      "bufferView": 17,
      "componentType": 5126,
      "count": 96,
      "type": "VEC2"
    },
    {
      "bufferView": 18,
      "componentType": 5126,
      "count": 96,
      "type": "VEC4"
    },
    {
      "bufferView": 19,
      "componentType": 5123,
      "count": 132,
      "type": "SCALAR",
      "normalized": false
    },
    {
      "bufferView": 20,
      "componentType": 5126,
      "count": 96,
      "type": "VEC3",
      "min": [
        -0.09,
        -4.225,
        -0.1
      ],
      "max": [
        0.09,
        4.225,
        0.1
      ]
    },
    {
      "bufferView": 21,
      "componentType": 5126,
      "count": 96,
      "type": "VEC3"
    },
    {
      "bufferView": 22,
      "componentType": 5126,
      "count": 96,
      "type": "VEC2"
    },
    {
      "bufferView": 23,
      "componentType": 5126,
      "count": 96,
      "type": "VEC4"
    },
    {
      "bufferView": 24,
      "componentType": 5123,
      "count": 132,
      "type": "SCALAR",
      "normalized": false
    },
    {
      "bufferView": 25,
      "componentType": 5126,
      "count": 96,
      "type": "VEC3",
      "min": [
        -0.525,
        -0.625,
        -0.04
      ],
      "max": [
        0.525,
        0.625,
        0.04
      ]
    },
    {
      "bufferView": 26,
      "componentType": 5126,
      "count": 96,
      "type": "VEC3"
    },
    {
      "bufferView": 27,
      "componentType": 5126,
      "count": 96,
      "type": "VEC2"
    },
    {
      "bufferView": 28,
      "componentType": 5126,
      "count": 96,
      "type": "VEC4"
    },
    {
      "bufferView": 29,
      "componentType": 5123,
      "count": 132,
      "type": "SCALAR",
      "normalized": false
    },
    {
      "bufferView": 30,
      "componentType": 5126,
      "count": 96,
      "type": "VEC3",
      "min": [
        -1.5,
        -0.1,
        -0.675
      ],
      "max": [
        1.5,
        0.1,
        0.675
      ]
    },
    {
      "bufferView": 31,
      "componentType": 5126,
      "count": 96,
      "type": "VEC3"
    },
    {
      "bufferView": 32,
      "componentType": 5126,
      "count": 96,
      "type": "VEC2"
    },
    {
      "bufferView": 33,
      "componentType": 5126,
      "count": 96,
      "type": "VEC4"
    },
    {
      "bufferView": 34,
      "componentType": 5123,
      "count": 132,
      "type": "SCALAR",
      "normalized": false
    },
    {
      "bufferView": 35,
      "componentType": 5126,
      "count": 50,
      "type": "VEC3",
      "min": [
        -0.07,
        -1.5,
        -0.07
      ],
      "max": [
        0.07,
        1.5,
        0.07
      ]
    },
    {
      "bufferView": 36,
      "componentType": 5126,
      "count": 50,
      "type": "VEC3"
    },
    {
      "bufferView": 37,
      "componentType": 5126,
      "count": 50,
      "type": "VEC2"
    },
    {
      "bufferView": 38,
      "componentType": 5126,
      "count": 50,
      "type": "VEC4"
    },
    {
      "bufferView": 39,
      "componentType": 5123,
      "count": 288,
      "type": "SCALAR",
      "normalized": false
    },
    {
      "bufferView": 40,
      "componentType": 5126,
      "count": 50,
      "type": "VEC3",
      "min": [
        -0.08,
        -4.4,
        -0.08
      ],
      "max": [
        0.08,
        4.4,
        0.08
      ]
    },
    {
      "bufferView": 41,
      "componentType": 5126,
      "count": 50,
      "type": "VEC3"
    },
    {
      "bufferView": 42,
      "componentType": 5126,
      "count": 50,
      "type": "VEC2"
    },
    {
      "bufferView": 43,
      "componentType": 5126,
      "count": 50,
      "type": "VEC4"
    },
    {
      "bufferView": 44,
      "componentType": 5123,
      "count": 288,
      "type": "SCALAR",
      "normalized": false
    },
    {
      "bufferView": 45,
      "componentType": 5126,
      "count": 50,
      "type": "VEC3",
      "min": [
        -1.15,
        -1.1,
        -1.15
      ],
      "max": [
        1.15,
        1.1,
        1.15
      ]
    },
    {
      "bufferView": 46,
      "componentType": 5126,
      "count": 50,
      "type": "VEC3"
    },
    {
      "bufferView": 47,
      "componentType": 5126,
      "count": 50,
      "type": "VEC2"
    },
    {
      "bufferView": 48,
      "componentType": 5126,
      "count": 50,
      "type": "VEC4"
    },
    {
      "bufferView": 49,
      "componentType": 5123,
      "count": 288,
      "type": "SCALAR",
      "normalized": false
    },
    {
      "bufferView": 50,
      "componentType": 5126,
      "count": 50,
      "type": "VEC3",
      "min": [
        -1.28,
        -0.08,
        -1.28
      ],
      "max": [
        1.28,
        0.08,
        1.28
      ]
    },
    {
      "bufferView": 51,
      "componentType": 5126,
      "count": 50,
      "type": "VEC3"
    },
    {
      "bufferView": 52,
      "componentType": 5126,
      "count": 50,
      "type": "VEC2"
    },
    {
      "bufferView": 53,
      "componentType": 5126,
      "count": 50,
      "type": "VEC4"
    },
    {
      "bufferView": 54,
      "componentType": 5123,
      "count": 288,
      "type": "SCALAR",
      "normalized": false
    },
    {
      "bufferView": 55,
      "componentType": 5126,
      "count": 96,
      "type": "VEC3",
      "min": [
        -0.675,
        -0.575,
        -0.03
      ],
      "max": [
        0.675,
        0.575,
        0.03
      ]
    },
    {
      "bufferView": 56,
      "componentType": 5126,
      "count": 96,
      "type": "VEC3"
    },
    {
      "bufferView": 57,
      "componentType": 5126,
      "count": 96,
      "type": "VEC2"
    },
    {
      "bufferView": 58,
      "componentType": 5126,
      "count": 96,
      "type": "VEC4"
    },
    {
      "bufferView": 59,
      "componentType": 5123,
      "count": 132,
      "type": "SCALAR",
      "normalized": false
    },
    {
      "bufferView": 60,
      "componentType": 5126,
      "count": 96,
      "type": "VEC3",
      "min": [
        -0.61,
        -0.64,
        -0.03
      ],
      "max": [
        0.61,
        0.64,
        0.03
      ]
    },
    {
      "bufferView": 61,
      "componentType": 5126,
      "count": 96,
      "type": "VEC3"
    },
    {
      "bufferView": 62,
      "componentType": 5126,
      "count": 96,
      "type": "VEC2"
    },
    {
      "bufferView": 63,
      "componentType": 5126,
      "count": 96,
      "type": "VEC4"
    },
    {
      "bufferView": 64,
      "componentType": 5123,
      "count": 132,
      "type": "SCALAR",
      "normalized": false
    },
    {
      "bufferView": 65,
      "componentType": 5126,
      "count": 96,
      "type": "VEC3",
      "min": [
        -0.71,
        -0.525,
        -0.03
      ],
      "max": [
        0.71,
        0.525,
        0.03
      ]
    },
    {
      "bufferView": 66,
      "componentType": 5126,
      "count": 96,
      "type": "VEC3"
    },
    {
      "bufferView": 67,
      "componentType": 5126,
      "count": 96,
      "type": "VEC2"
    },
    {
      "bufferView": 68,
      "componentType": 5126,
      "count": 96,
      "type": "VEC4"
    },
    {
      "bufferView": 69,
      "componentType": 5123,
      "count": 132,
      "type": "SCALAR",
      "normalized": false
    },
    {
      "bufferView": 70,
      "componentType": 5126,
      "count": 532,
      "type": "VEC3",
      "min": [
        -0.52,
        -0.52,
        -0.52
      ],
      "max": [
        0.52,
        0.52,
        0.52
      ]
    },
    {
      "bufferView": 71,
      "componentType": 5126,
      "count": 532,
      "type": "VEC3"
    },
    {
      "bufferView": 72,
      "componentType": 5126,
      "count": 532,
      "type": "VEC2"
    },
    {
      "bufferView": 73,
      "componentType": 5126,
      "count": 532,
      "type": "VEC4"
    },
    {
      "bufferView": 74,
      "componentType": 5123,
      "count": 3024,
      "type": "SCALAR",
      "normalized": false
    },
    {
      "bufferView": 75,
      "componentType": 5126,
      "count": 408,
      "type": "VEC3",
      "min": [
        -0.13,
        -0.13,
        -0.13
      ],
      "max": [
        0.13,
        0.13,
        0.13
      ]
    },
    {
      "bufferView": 76,
      "componentType": 5126,
      "count": 408,
      "type": "VEC3"
    },
    {
      "bufferView": 77,
      "componentType": 5126,
      "count": 408,
      "type": "VEC2"
    },
    {
      "bufferView": 78,
      "componentType": 5126,
      "count": 408,
      "type": "VEC4"
    },
    {
      "bufferView": 79,
      "componentType": 5123,
      "count": 2304,
      "type": "SCALAR",
      "normalized": false
    },
    {
      "bufferView": 80,
      "componentType": 5126,
      "count": 50,
      "type": "VEC3",
      "min": [
        -0.045,
        -2.6,
        -0.045
      ],
      "max": [
        0.045,
        2.6,
        0.045
      ]
    },
    {
      "bufferView": 81,
      "componentType": 5126,
      "count": 50,
      "type": "VEC3"
    },
    {
      "bufferView": 82,
      "componentType": 5126,
      "count": 50,
      "type": "VEC2"
    },
    {
      "bufferView": 83,
      "componentType": 5126,
      "count": 50,
      "type": "VEC4"
    },
    {
      "bufferView": 84,
      "componentType": 5123,
      "count": 288,
      "type": "SCALAR",
      "normalized": false
    },
    {
      "bufferView": 85,
      "componentType": 5126,
      "count": 96,
      "type": "VEC3",
      "min": [
        -0.35,
        -0.04,
        -0.35
      ],
      "max": [
        0.35,
        0.04,
        0.35
      ]
    },
    {
      "bufferView": 86,
      "componentType": 5126,
      "count": 96,
      "type": "VEC3"
    },
    {
      "bufferView": 87,
      "componentType": 5126,
      "count": 96,
      "type": "VEC2"
    },
    {
      "bufferView": 88,
      "componentType": 5126,
      "count": 96,
      "type": "VEC4"
    },
    {
      "bufferView": 89,
      "componentType": 5123,
      "count": 132,
      "type": "SCALAR",
      "normalized": false
    },
    {
      "bufferView": 90,
      "componentType": 5126,
      "count": 96,
      "type": "VEC3",
      "min": [
        -0.61,
        -0.05,
        -0.07
      ],
      "max": [
        0.61,
        0.05,
        0.07
      ]
    },
    {
      "bufferView": 91,
      "componentType": 5126,
      "count": 96,
      "type": "VEC3"
    },
    {
      "bufferView": 92,
      "componentType": 5126,
      "count": 96,
      "type": "VEC2"
    },
    {
      "bufferView": 93,
      "componentType": 5126,
      "count": 96,
      "type": "VEC4"
    },
    {
      "bufferView": 94,
      "componentType": 5123,
      "count": 132,
      "type": "SCALAR",
      "normalized": false
    },
    {
      "bufferView": 95,
      "componentType": 5126,
      "count": 96,
      "type": "VEC3",
      "min": [
        -0.64,
        -0.05,
        -0.09
      ],
      "max": [
        0.64,
        0.05,
        0.09
      ]
    },
    {
      "bufferView": 96,
      "componentType": 5126,
      "count": 96,
      "type": "VEC3"
    },
    {
      "bufferView": 97,
      "componentType": 5126,
      "count": 96,
      "type": "VEC2"
    },
    {
      "bufferView": 98,
      "componentType": 5126,
      "count": 96,
      "type": "VEC4"
    },
    {
      "bufferView": 99,
      "componentType": 5123,
      "count": 132,
      "type": "SCALAR",
      "normalized": false
    },
    {
      "bufferView": 100,
      "componentType": 5126,
      "count": 96,
      "type": "VEC3",
      "min": [
        -0.69,
        -0.76,
        -0.04
      ],
      "max": [
        0.69,
        0.76,
        0.04
      ]
    },
    {
      "bufferView": 101,
      "componentType": 5126,
      "count": 96,
      "type": "VEC3"
    },
    {
      "bufferView": 102,
      "componentType": 5126,
      "count": 96,
      "type": "VEC2"
    },
    {
      "bufferView": 103,
      "componentType": 5126,
      "count": 96,
      "type": "VEC4"
    },
    {
      "bufferView": 104,
      "componentType": 5123,
      "count": 132,
      "type": "SCALAR",
      "normalized": false
    },
    {
      "bufferView": 105,
      "componentType": 5126,
      "count": 96,
      "type": "VEC3",
      "min": [
        -0.06,
        -0.69,
        -0.08
      ],
      "max": [
        0.06,
        0.69,
        0.08
      ]
    },
    {
      "bufferView": 106,
      "componentType": 5126,
      "count": 96,
      "type": "VEC3"
    },
    {
      "bufferView": 107,
      "componentType": 5126,
      "count": 96,
      "type": "VEC2"
    },
    {
      "bufferView": 108,
      "componentType": 5126,
      "count": 96,
      "type": "VEC4"
    },
    {
      "bufferView": 109,
      "componentType": 5123,
      "count": 132,
      "type": "SCALAR",
      "normalized": false
    },
    {
      "bufferView": 110,
      "componentType": 5126,
      "count": 96,
      "type": "VEC3",
      "min": [
        -0.04,
        -0.58,
        -0.06
      ],
      "max": [
        0.04,
        0.58,
        0.06
      ]
    },
    {
      "bufferView": 111,
      "componentType": 5126,
      "count": 96,
      "type": "VEC3"
    },
    {
      "bufferView": 112,
      "componentType": 5126,
      "count": 96,
      "type": "VEC2"
    },
    {
      "bufferView": 113,
      "componentType": 5126,
      "count": 96,
      "type": "VEC4"
    },
    {
      "bufferView": 114,
      "componentType": 5123,
      "count": 132,
      "type": "SCALAR",
      "normalized": false
    },
    {
      "bufferView": 115,
      "componentType": 5126,
      "count": 96,
      "type": "VEC3",
      "min": [
        -0.07,
        -0.525,
        -0.07
      ],
      "max": [
        0.07,
        0.525,
        0.07
      ]
    },
    {
      "bufferView": 116,
      "componentType": 5126,
      "count": 96,
      "type": "VEC3"
    },
    {
      "bufferView": 117,
      "componentType": 5126,
      "count": 96,
      "type": "VEC2"
    },
    {
      "bufferView": 118,
      "componentType": 5126,
      "count": 96,
      "type": "VEC4"
    },
    {
      "bufferView": 119,
      "componentType": 5123,
      "count": 132,
      "type": "SCALAR",
      "normalized": false
    },
    {
      "bufferView": 120,
      "componentType": 5126,
      "count": 50,
      "type": "VEC3",
      "min": [
        -0.03,
        -1.2,
        -0.03
      ],
      "max": [
        0.03,
        1.2,
        0.03
      ]
    },
    {
      "bufferView": 121,
      "componentType": 5126,
      "count": 50,
      "type": "VEC3"
    },
    {
      "bufferView": 122,
      "componentType": 5126,
      "count": 50,
      "type": "VEC2"
    },
    {
      "bufferView": 123,
      "componentType": 5126,
      "count": 50,
      "type": "VEC4"
    },
    {
      "bufferView": 124,
      "componentType": 5123,
      "count": 288,
      "type": "SCALAR",
      "normalized": false
    },
    {
      "bufferView": 125,
      "componentType": 5126,
      "count": 50,
      "type": "VEC3",
      "min": [
        -0.12,
        -0.09,
        -0.12
      ],
      "max": [
        0.12,
        0.09,
        0.12
      ]
    },
    {
      "bufferView": 126,
      "componentType": 5126,
      "count": 50,
      "type": "VEC3"
    },
    {
      "bufferView": 127,
      "componentType": 5126,
      "count": 50,
      "type": "VEC2"
    },
    {
      "bufferView": 128,
      "componentType": 5126,
      "count": 50,
      "type": "VEC4"
    },
    {
      "bufferView": 129,
      "componentType": 5123,
      "count": 288,
      "type": "SCALAR",
      "normalized": false
    },
    {
      "bufferView": 130,
      "componentType": 5126,
      "count": 50,
      "type": "VEC3",
      "min": [
        -0.045,
        -0.39,
        -0.045
      ],
      "max": [
        0.045,
        0.39,
        0.045
      ]
    },
    {
      "bufferView": 131,
      "componentType": 5126,
      "count": 50,
      "type": "VEC3"
    },
    {
      "bufferView": 132,
      "componentType": 5126,
      "count": 50,
      "type": "VEC2"
    },
    {
      "bufferView": 133,
      "componentType": 5126,
      "count": 50,
      "type": "VEC4"
    },
    {
      "bufferView": 134,
      "componentType": 5123,
      "count": 288,
      "type": "SCALAR",
      "normalized": false
    },
    {
      "bufferView": 135,
      "componentType": 5126,
      "count": 50,
      "type": "VEC3",
      "min": [
        -0.1,
        -0.07,
        -0.1
      ],
      "max": [
        0.1,
        0.07,
        0.1
      ]
    },
    {
      "bufferView": 136,
      "componentType": 5126,
      "count": 50,
      "type": "VEC3"
    },
    {
      "bufferView": 137,
      "componentType": 5126,
      "count": 50,
      "type": "VEC2"
    },
    {
      "bufferView": 138,
      "componentType": 5126,
      "count": 50,
      "type": "VEC4"
    },
    {
      "bufferView": 139,
      "componentType": 5123,
      "count": 288,
      "type": "SCALAR",
      "normalized": false
    },
    {
      "bufferView": 140,
      "componentType": 5126,
      "count": 96,
      "type": "VEC3",
      "min": [
        -0.9,
        -0.24,
        -0.6
      ],
      "max": [
        0.9,
        0.24,
        0.6
      ]
    },
    {
      "bufferView": 141,
      "componentType": 5126,
      "count": 96,
      "type": "VEC3"
    },
    {
      "bufferView": 142,
      "componentType": 5126,
      "count": 96,
      "type": "VEC2"
    },
    {
      "bufferView": 143,
      "componentType": 5126,
      "count": 96,
      "type": "VEC4"
    },
    {
      "bufferView": 144,
      "componentType": 5123,
      "count": 132,
      "type": "SCALAR",
      "normalized": false
    },
    {
      "bufferView": 145,
      "componentType": 5126,
      "count": 50,
      "type": "VEC3",
      "min": [
        -0.4,
        -0.29,
        -0.4
      ],
      "max": [
        0.4,
        0.29,
        0.4
      ]
    },
    {
      "bufferView": 146,
      "componentType": 5126,
      "count": 50,
      "type": "VEC3"
    },
    {
      "bufferView": 147,
      "componentType": 5126,
      "count": 50,
      "type": "VEC2"
    },
    {
      "bufferView": 148,
      "componentType": 5126,
      "count": 50,
      "type": "VEC4"
    },
    {
      "bufferView": 149,
      "componentType": 5123,
      "count": 288,
      "type": "SCALAR",
      "normalized": false
    },
    {
      "bufferView": 150,
      "componentType": 5126,
      "count": 50,
      "type": "VEC3",
      "min": [
        -0.49,
        -0.05,
        -0.49
      ],
      "max": [
        0.49,
        0.05,
        0.49
      ]
    },
    {
      "bufferView": 151,
      "componentType": 5126,
      "count": 50,
      "type": "VEC3"
    },
    {
      "bufferView": 152,
      "componentType": 5126,
      "count": 50,
      "type": "VEC2"
    },
    {
      "bufferView": 153,
      "componentType": 5126,
      "count": 50,
      "type": "VEC4"
    },
    {
      "bufferView": 154,
      "componentType": 5123,
      "count": 288,
      "type": "SCALAR",
      "normalized": false
    },
    {
      "bufferView": 155,
      "componentType": 5126,
      "count": 50,
      "type": "VEC3",
      "min": [
        -0.085,
        -0.675,
        -0.085
      ],
      "max": [
        0.085,
        0.675,
        0.085
      ]
    },
    {
      "bufferView": 156,
      "componentType": 5126,
      "count": 50,
      "type": "VEC3"
    },
    {
      "bufferView": 157,
      "componentType": 5126,
      "count": 50,
      "type": "VEC2"
    },
    {
      "bufferView": 158,
      "componentType": 5126,
      "count": 50,
      "type": "VEC4"
    },
    {
      "bufferView": 159,
      "componentType": 5123,
      "count": 288,
      "type": "SCALAR",
      "normalized": false
    }
  ],
  "bufferViews": [
    {
      "buffer": 0,
      "byteOffset": 0,
      "byteLength": 1152,
      "target": 34962
    },
    {
      "buffer": 0,
      "byteOffset": 1152,
      "byteLength": 1152,
      "target": 34962
    },
    {
      "buffer": 0,
      "byteOffset": 2304,
      "byteLength": 768,
      "target": 34962
    },
    {
      "buffer": 0,
      "byteOffset": 3072,
      "byteLength": 1536,
      "target": 34962
    },
    {
      "buffer": 0,
      "byteOffset": 4608,
      "byteLength": 264,
      "target": 34963
    },
    {
      "buffer": 0,
      "byteOffset": 4872,
      "byteLength": 1152,
      "target": 34962
    },
    {
      "buffer": 0,
      "byteOffset": 6024,
      "byteLength": 1152,
      "target": 34962
    },
    {
      "buffer": 0,
      "byteOffset": 7176,
      "byteLength": 768,
      "target": 34962
    },
    {
      "buffer": 0,
      "byteOffset": 7944,
      "byteLength": 1536,
      "target": 34962
    },
    {
      "buffer": 0,
      "byteOffset": 9480,
      "byteLength": 264,
      "target": 34963
    },
    {
      "buffer": 0,
      "byteOffset": 9744,
      "byteLength": 1152,
      "target": 34962
    },
    {
      "buffer": 0,
      "byteOffset": 10896,
      "byteLength": 1152,
      "target": 34962
    },
    {
      "buffer": 0,
      "byteOffset": 12048,
      "byteLength": 768,
      "target": 34962
    },
    {
      "buffer": 0,
      "byteOffset": 12816,
      "byteLength": 1536,
      "target": 34962
    },
    {
      "buffer": 0,
      "byteOffset": 14352,
      "byteLength": 264,
      "target": 34963
    },
    {
      "buffer": 0,
      "byteOffset": 14616,
      "byteLength": 1152,
      "target": 34962
    },
    {
      "buffer": 0,
      "byteOffset": 15768,
      "byteLength": 1152,
      "target": 34962
    },
    {
      "buffer": 0,
      "byteOffset": 16920,
      "byteLength": 768,
      "target": 34962
    },
    {
      "buffer": 0,
      "byteOffset": 17688,
      "byteLength": 1536,
      "target": 34962
    },
    {
      "buffer": 0,
      "byteOffset": 19224,
      "byteLength": 264,
      "target": 34963
    },
    {
      "buffer": 0,
      "byteOffset": 19488,
      "byteLength": 1152,
      "target": 34962
    },
    {
      "buffer": 0,
      "byteOffset": 20640,
      "byteLength": 1152,
      "target": 34962
    },
    {
      "buffer": 0,
      "byteOffset": 21792,
      "byteLength": 768,
      "target": 34962
    },
    {
      "buffer": 0,
      "byteOffset": 22560,
      "byteLength": 1536,
      "target": 34962
    },
    {
      "buffer": 0,
      "byteOffset": 24096,
      "byteLength": 264,
      "target": 34963
    },
    {
      "buffer": 0,
      "byteOffset": 24360,
      "byteLength": 1152,
      "target": 34962
    },
    {
      "buffer": 0,
      "byteOffset": 25512,
      "byteLength": 1152,
      "target": 34962
    },
    {
      "buffer": 0,
      "byteOffset": 26664,
      "byteLength": 768,
      "target": 34962
    },
    {
      "buffer": 0,
      "byteOffset": 27432,
      "byteLength": 1536,
      "target": 34962
    },
    {
      "buffer": 0,
      "byteOffset": 28968,
      "byteLength": 264,
      "target": 34963
    },
    {
      "buffer": 0,
      "byteOffset": 29232,
      "byteLength": 1152,
      "target": 34962
    },
    {
      "buffer": 0,
      "byteOffset": 30384,
      "byteLength": 1152,
      "target": 34962
    },
    {
      "buffer": 0,
      "byteOffset": 31536,
      "byteLength": 768,
      "target": 34962
    },
    {
      "buffer": 0,
      "byteOffset": 32304,
      "byteLength": 1536,
      "target": 34962
    },
    {
      "buffer": 0,
      "byteOffset": 33840,
      "byteLength": 264,
      "target": 34963
    },
    {
      "buffer": 0,
      "byteOffset": 34104,
      "byteLength": 600,
      "target": 34962
    },
    {
      "buffer": 0,
      "byteOffset": 34704,
      "byteLength": 600,
      "target": 34962
    },
    {
      "buffer": 0,
      "byteOffset": 35304,
      "byteLength": 400,
      "target": 34962
    },
    {
      "buffer": 0,
      "byteOffset": 35704,
      "byteLength": 800,
      "target": 34962
    },
    {
      "buffer": 0,
      "byteOffset": 36504,
      "byteLength": 576,
      "target": 34963
    },
    {
      "buffer": 0,
      "byteOffset": 37080,
      "byteLength": 600,
      "target": 34962
    },
    {
      "buffer": 0,
      "byteOffset": 37680,
      "byteLength": 600,
      "target": 34962
    },
    {
      "buffer": 0,
      "byteOffset": 38280,
      "byteLength": 400,
      "target": 34962
    },
    {
      "buffer": 0,
      "byteOffset": 38680,
      "byteLength": 800,
      "target": 34962
    },
    {
      "buffer": 0,
      "byteOffset": 39480,
      "byteLength": 576,
      "target": 34963
    },
    {
      "buffer": 0,
      "byteOffset": 40056,
      "byteLength": 600,
      "target": 34962
    },
    {
      "buffer": 0,
      "byteOffset": 40656,
      "byteLength": 600,
      "target": 34962
    },
    {
      "buffer": 0,
      "byteOffset": 41256,
      "byteLength": 400,
      "target": 34962
    },
    {
      "buffer": 0,
      "byteOffset": 41656,
      "byteLength": 800,
      "target": 34962
    },
    {
      "buffer": 0,
      "byteOffset": 42456,
      "byteLength": 576,
      "target": 34963
    },
    {
      "buffer": 0,
      "byteOffset": 43032,
      "byteLength": 600,
      "target": 34962
    },
    {
      "buffer": 0,
      "byteOffset": 43632,
      "byteLength": 600,
      "target": 34962
    },
    {
      "buffer": 0,
      "byteOffset": 44232,
      "byteLength": 400,
      "target": 34962
    },
    {
      "buffer": 0,
      "byteOffset": 44632,
      "byteLength": 800,
      "target": 34962
    },
    {
      "buffer": 0,
      "byteOffset": 45432,
      "byteLength": 576,
      "target": 34963
    },
    {
      "buffer": 0,
      "byteOffset": 46008,
      "byteLength": 1152,
      "target": 34962
    },
    {
      "buffer": 0,
      "byteOffset": 47160,
      "byteLength": 1152,
      "target": 34962
    },
    {
      "buffer": 0,
      "byteOffset": 48312,
      "byteLength": 768,
      "target": 34962
    },
    {
      "buffer": 0,
      "byteOffset": 49080,
      "byteLength": 1536,
      "target": 34962
    },
    {
      "buffer": 0,
      "byteOffset": 50616,
      "byteLength": 264,
      "target": 34963
    },
    {
      "buffer": 0,
      "byteOffset": 50880,
      "byteLength": 1152,
      "target": 34962
    },
    {
      "buffer": 0,
      "byteOffset": 52032,
      "byteLength": 1152,
      "target": 34962
    },
    {
      "buffer": 0,
      "byteOffset": 53184,
      "byteLength": 768,
      "target": 34962
    },
    {
      "buffer": 0,
      "byteOffset": 53952,
      "byteLength": 1536,
      "target": 34962
    },
    {
      "buffer": 0,
      "byteOffset": 55488,
      "byteLength": 264,
      "target": 34963
    },
    {
      "buffer": 0,
      "byteOffset": 55752,
      "byteLength": 1152,
      "target": 34962
    },
    {
      "buffer": 0,
      "byteOffset": 56904,
      "byteLength": 1152,
      "target": 34962
    },
    {
      "buffer": 0,
      "byteOffset": 58056,
      "byteLength": 768,
      "target": 34962
    },
    {
      "buffer": 0,
      "byteOffset": 58824,
      "byteLength": 1536,
      "target": 34962
    },
    {
      "buffer": 0,
      "byteOffset": 60360,
      "byteLength": 264,
      "target": 34963
    },
    {
      "buffer": 0,
      "byteOffset": 60624,
      "byteLength": 6384,
      "target": 34962
    },
    {
      "buffer": 0,
      "byteOffset": 67008,
      "byteLength": 6384,
      "target": 34962
    },
    {
      "buffer": 0,
      "byteOffset": 73392,
      "byteLength": 4256,
      "target": 34962
    },
    {
      "buffer": 0,
      "byteOffset": 77648,
      "byteLength": 8512,
      "target": 34962
    },
    {
      "buffer": 0,
      "byteOffset": 86160,
      "byteLength": 6048,
      "target": 34963
    },
    {
      "buffer": 0,
      "byteOffset": 92208,
      "byteLength": 4896,
      "target": 34962
    },
    {
      "buffer": 0,
      "byteOffset": 97104,
      "byteLength": 4896,
      "target": 34962
    },
    {
      "buffer": 0,
      "byteOffset": 102000,
      "byteLength": 3264,
      "target": 34962
    },
    {
      "buffer": 0,
      "byteOffset": 105264,
      "byteLength": 6528,
      "target": 34962
    },
    {
      "buffer": 0,
      "byteOffset": 111792,
      "byteLength": 4608,
      "target": 34963
    },
    {
      "buffer": 0,
      "byteOffset": 116400,
      "byteLength": 600,
      "target": 34962
    },
    {
      "buffer": 0,
      "byteOffset": 117000,
      "byteLength": 600,
      "target": 34962
    },
    {
      "buffer": 0,
      "byteOffset": 117600,
      "byteLength": 400,
      "target": 34962
    },
    {
      "buffer": 0,
      "byteOffset": 118000,
      "byteLength": 800,
      "target": 34962
    },
    {
      "buffer": 0,
      "byteOffset": 118800,
      "byteLength": 576,
      "target": 34963
    },
    {
      "buffer": 0,
      "byteOffset": 119376,
      "byteLength": 1152,
      "target": 34962
    },
    {
      "buffer": 0,
      "byteOffset": 120528,
      "byteLength": 1152,
      "target": 34962
    },
    {
      "buffer": 0,
      "byteOffset": 121680,
      "byteLength": 768,
      "target": 34962
    },
    {
      "buffer": 0,
      "byteOffset": 122448,
      "byteLength": 1536,
      "target": 34962
    },
    {
      "buffer": 0,
      "byteOffset": 123984,
      "byteLength": 264,
      "target": 34963
    },
    {
      "buffer": 0,
      "byteOffset": 124248,
      "byteLength": 1152,
      "target": 34962
    },
    {
      "buffer": 0,
      "byteOffset": 125400,
      "byteLength": 1152,
      "target": 34962
    },
    {
      "buffer": 0,
      "byteOffset": 126552,
      "byteLength": 768,
      "target": 34962
    },
    {
      "buffer": 0,
      "byteOffset": 127320,
      "byteLength": 1536,
      "target": 34962
    },
    {
      "buffer": 0,
      "byteOffset": 128856,
      "byteLength": 264,
      "target": 34963
    },
    {
      "buffer": 0,
      "byteOffset": 129120,
      "byteLength": 1152,
      "target": 34962
    },
    {
      "buffer": 0,
      "byteOffset": 130272,
      "byteLength": 1152,
      "target": 34962
    },
    {
      "buffer": 0,
      "byteOffset": 131424,
      "byteLength": 768,
      "target": 34962
    },
    {
      "buffer": 0,
      "byteOffset": 132192,
      "byteLength": 1536,
      "target": 34962
    },
    {
      "buffer": 0,
      "byteOffset": 133728,
      "byteLength": 264,
      "target": 34963
    },
    {
      "buffer": 0,
      "byteOffset": 133992,
      "byteLength": 1152,
      "target": 34962
    },
    {
      "buffer": 0,
      "byteOffset": 135144,
      "byteLength": 1152,
      "target": 34962
    },
    {
      "buffer": 0,
      "byteOffset": 136296,
      "byteLength": 768,
      "target": 34962
    },
    {
      "buffer": 0,
      "byteOffset": 137064,
      "byteLength": 1536,
      "target": 34962
    },
    {
      "buffer": 0,
      "byteOffset": 138600,
      "byteLength": 264,
      "target": 34963
    },
    {
      "buffer": 0,
      "byteOffset": 138864,
      "byteLength": 1152,
      "target": 34962
    },
    {
      "buffer": 0,
      "byteOffset": 140016,
      "byteLength": 1152,
      "target": 34962
    },
    {
      "buffer": 0,
      "byteOffset": 141168,
      "byteLength": 768,
      "target": 34962
    },
    {
      "buffer": 0,
      "byteOffset": 141936,
      "byteLength": 1536,
      "target": 34962
    },
    {
      "buffer": 0,
      "byteOffset": 143472,
      "byteLength": 264,
      "target": 34963
    },
    {
      "buffer": 0,
      "byteOffset": 143736,
      "byteLength": 1152,
      "target": 34962
    },
    {
      "buffer": 0,
      "byteOffset": 144888,
      "byteLength": 1152,
      "target": 34962
    },
    {
      "buffer": 0,
      "byteOffset": 146040,
      "byteLength": 768,
      "target": 34962
    },
    {
      "buffer": 0,
      "byteOffset": 146808,
      "byteLength": 1536,
      "target": 34962
    },
    {
      "buffer": 0,
      "byteOffset": 148344,
      "byteLength": 264,
      "target": 34963
    },
    {
      "buffer": 0,
      "byteOffset": 148608,
      "byteLength": 1152,
      "target": 34962
    },
    {
      "buffer": 0,
      "byteOffset": 149760,
      "byteLength": 1152,
      "target": 34962
    },
    {
      "buffer": 0,
      "byteOffset": 150912,
      "byteLength": 768,
      "target": 34962
    },
    {
      "buffer": 0,
      "byteOffset": 151680,
      "byteLength": 1536,
      "target": 34962
    },
    {
      "buffer": 0,
      "byteOffset": 153216,
      "byteLength": 264,
      "target": 34963
    },
    {
      "buffer": 0,
      "byteOffset": 153480,
      "byteLength": 600,
      "target": 34962
    },
    {
      "buffer": 0,
      "byteOffset": 154080,
      "byteLength": 600,
      "target": 34962
    },
    {
      "buffer": 0,
      "byteOffset": 154680,
      "byteLength": 400,
      "target": 34962
    },
    {
      "buffer": 0,
      "byteOffset": 155080,
      "byteLength": 800,
      "target": 34962
    },
    {
      "buffer": 0,
      "byteOffset": 155880,
      "byteLength": 576,
      "target": 34963
    },
    {
      "buffer": 0,
      "byteOffset": 156456,
      "byteLength": 600,
      "target": 34962
    },
    {
      "buffer": 0,
      "byteOffset": 157056,
      "byteLength": 600,
      "target": 34962
    },
    {
      "buffer": 0,
      "byteOffset": 157656,
      "byteLength": 400,
      "target": 34962
    },
    {
      "buffer": 0,
      "byteOffset": 158056,
      "byteLength": 800,
      "target": 34962
    },
    {
      "buffer": 0,
      "byteOffset": 158856,
      "byteLength": 576,
      "target": 34963
    },
    {
      "buffer": 0,
      "byteOffset": 159432,
      "byteLength": 600,
      "target": 34962
    },
    {
      "buffer": 0,
      "byteOffset": 160032,
      "byteLength": 600,
      "target": 34962
    },
    {
      "buffer": 0,
      "byteOffset": 160632,
      "byteLength": 400,
      "target": 34962
    },
    {
      "buffer": 0,
      "byteOffset": 161032,
      "byteLength": 800,
      "target": 34962
    },
    {
      "buffer": 0,
      "byteOffset": 161832,
      "byteLength": 576,
      "target": 34963
    },
    {
      "buffer": 0,
      "byteOffset": 162408,
      "byteLength": 600,
      "target": 34962
    },
    {
      "buffer": 0,
      "byteOffset": 163008,
      "byteLength": 600,
      "target": 34962
    },
    {
      "buffer": 0,
      "byteOffset": 163608,
      "byteLength": 400,
      "target": 34962
    },
    {
      "buffer": 0,
      "byteOffset": 164008,
      "byteLength": 800,
      "target": 34962
    },
    {
      "buffer": 0,
      "byteOffset": 164808,
      "byteLength": 576,
      "target": 34963
    },
    {
      "buffer": 0,
      "byteOffset": 165384,
      "byteLength": 1152,
      "target": 34962
    },
    {
      "buffer": 0,
      "byteOffset": 166536,
      "byteLength": 1152,
      "target": 34962
    },
    {
      "buffer": 0,
      "byteOffset": 167688,
      "byteLength": 768,
      "target": 34962
    },
    {
      "buffer": 0,
      "byteOffset": 168456,
      "byteLength": 1536,
      "target": 34962
    },
    {
      "buffer": 0,
      "byteOffset": 169992,
      "byteLength": 264,
      "target": 34963
    },
    {
      "buffer": 0,
      "byteOffset": 170256,
      "byteLength": 600,
      "target": 34962
    },
    {
      "buffer": 0,
      "byteOffset": 170856,
      "byteLength": 600,
      "target": 34962
    },
    {
      "buffer": 0,
      "byteOffset": 171456,
      "byteLength": 400,
      "target": 34962
    },
    {
      "buffer": 0,
      "byteOffset": 171856,
      "byteLength": 800,
      "target": 34962
    },
    {
      "buffer": 0,
      "byteOffset": 172656,
      "byteLength": 576,
      "target": 34963
    },
    {
      "buffer": 0,
      "byteOffset": 173232,
      "byteLength": 600,
      "target": 34962
    },
    {
      "buffer": 0,
      "byteOffset": 173832,
      "byteLength": 600,
      "target": 34962
    },
    {
      "buffer": 0,
      "byteOffset": 174432,
      "byteLength": 400,
      "target": 34962
    },
    {
      "buffer": 0,
      "byteOffset": 174832,
      "byteLength": 800,
      "target": 34962
    },
    {
      "buffer": 0,
      "byteOffset": 175632,
      "byteLength": 576,
      "target": 34963
    },
    {
      "buffer": 0,
      "byteOffset": 176208,
      "byteLength": 600,
      "target": 34962
    },
    {
      "buffer": 0,
      "byteOffset": 176808,
      "byteLength": 600,
      "target": 34962
    },
    {
      "buffer": 0,
      "byteOffset": 177408,
      "byteLength": 400,
      "target": 34962
    },
    {
      "buffer": 0,
      "byteOffset": 177808,
      "byteLength": 800,
      "target": 34962
    },
    {
      "buffer": 0,
      "byteOffset": 178608,
      "byteLength": 576,
      "target": 34963
    }
  ],
  "buffers": [
    {
      "byteLength": 179184,
      "uri": "data:application/octet-stream;base64,"
    }
  ],
  "extras": {
    "ironwright_asset_id": "tenement.east_blocks.v1",
    "required_nodes": [
      "TenementModel",
      "TenementBlockL",
      "TenementFrontWindowL0_0",
      "TenementFrontWindowRevealL0_0",
      "TenementFrontWindowJambL0_0",
      "TenementFrontWindowMullionL0_0",
      "TenementFrontWindowLintelL0_0",
      "TenementFrontWindowSillL0_0",
      "TenementBlockLEdgeL",
      "TenementFacadeBandL0",
      "TenementFacadePillarL",
      "TenementBalcony0",
      "TenementBalconyBrace0_L",
      "TenementFireEscapeLadder",
      "TenementRoofWaterTank",
      "TenementTankValve",
      "TenementLeftRoofServiceHousing",
      "TenementLeftRoofVent",
      "TenementLeftRoofVentCap",
      "TenementLeftRoofPipe",
      "TenementLaundryLine0",
      "TenementLightHousingL",
      "TenementOrganicCreep0",
      "TenementOrganicTendril0_0",
      "ProductionAssetMarker"
    ]
  }
}
