{
  "asset": {
    "version": "2.0",
    "generator": "Project Ironwright original Scrapper asset builder"
  },
  "scene": 0,
  "scenes": [
    {
      "name": "Scrapper",
      "nodes": [
        0
      ]
    }
  ],
  "nodes": [
    {
      "name": "ScrapperModel",
      "children": [
        1,
        3,
        4,
        5,
        6,
        7,
        8,
        9,
        10,
        11,
        12,
        13,
        14,
        15,
        16,
        17,
        18,
        19,
        20,
        21,
        22,
        23,
        24,
        25,
        26,
        27,
        28,
        29,
        30,
        31,
        32,
        33,
        34,
        35,
        36,
        37,
        38,
        39,
        40,
        41,
        42,
        43,
        44,
        45,
        46,
        47,
        48,
        49,
        50,
        51,
        52
      ],
      "extras": {
        "ironwright_asset_id": "scrapper.salvager.v1",
        "asset_quality": "authored_high_definition",
        "socket_contract": "sensor, salvage_tool, cargo_mount"
      }
    },
    {
      "name": "Chassis",
      "translation": [
        0.0,
        0.82,
        0.0
      ],
      "mesh": 0,
      "extras": {
        "surface": "beveled_primary_body"
      },
      "children": [
        2
      ]
    },
    {
      "name": "ChassisCore",
      "translation": [
        0.0,
        0.08,
        0.0
      ],
      "mesh": 1
    },
    {
      "name": "ArmorPlate",
      "translation": [
        0.0,
        1.16,
        -0.78
      ],
      "mesh": 2
    },
    {
      "name": "LowerChassis",
      "translation": [
        0.0,
        0.4,
        0.04
      ],
      "mesh": 2
    },
    {
      "name": "ChassisDetailPanel",
      "translation": [
        0.0,
        1.32,
        -0.76
      ],
      "mesh": 2
    },
    {
      "name": "ChassisCornerCap",
      "translation": [
        -0.56,
        0.83,
        -0.61
      ],
      "mesh": 3
    },
    {
      "name": "Leg",
      "translation": [
        -0.48,
        0.42,
        -0.42
      ],
      "mesh": 4,
      "rotation": [
        0.0,
        0.0,
        -0.09983341664682815,
        0.9950041652780258
      ]
    },
    {
      "name": "Foot",
      "translation": [
        -0.58,
        0.12,
        -0.42
      ],
      "mesh": 5
    },
    {
      "name": "ChassisCornerCap",
      "translation": [
        -0.56,
        0.83,
        0.61
      ],
      "mesh": 3
    },
    {
      "name": "Leg",
      "translation": [
        -0.48,
        0.42,
        0.42
      ],
      "mesh": 4,
      "rotation": [
        0.0,
        0.0,
        -0.09983341664682815,
        0.9950041652780258
      ]
    },
    {
      "name": "Foot",
      "translation": [
        -0.58,
        0.12,
        0.42
      ],
      "mesh": 5
    },
    {
      "name": "ChassisCornerCap",
      "translation": [
        0.56,
        0.83,
        -0.61
      ],
      "mesh": 3
    },
    {
      "name": "Leg",
      "translation": [
        0.48,
        0.42,
        -0.42
      ],
      "mesh": 4,
      "rotation": [
        0.0,
        0.0,
        0.09983341664682815,
        0.9950041652780258
      ]
    },
    {
      "name": "Foot",
      "translation": [
        0.58,
        0.12,
        -0.42
      ],
      "mesh": 5
    },
    {
      "name": "ChassisCornerCap",
      "translation": [
        0.56,
        0.83,
        0.61
      ],
      "mesh": 3
    },
    {
      "name": "Leg",
      "translation": [
        0.48,
        0.42,
        0.42
      ],
      "mesh": 4,
      "rotation": [
        0.0,
        0.0,
        0.09983341664682815,
        0.9950041652780258
      ]
    },
    {
      "name": "Foot",
      "translation": [
        0.58,
        0.12,
        0.42
      ],
      "mesh": 5
    },
    {
      "name": "OpticHousing",
      "translation": [
        0.0,
        1.08,
        -0.85
      ],
      "mesh": 6
    },
    {
      "name": "Sensor",
      "translation": [
        0.0,
        1.08,
        -0.94
      ],
      "mesh": 7,
      "extras": {
        "socket_type": "sensor"
      }
    },
    {
      "name": "OpticLens",
      "translation": [
        0.0,
        1.08,
        -1.0
      ],
      "mesh": 7,
      "extras": {
        "socket_type": "optic"
      }
    },
    {
      "name": "CargoBin",
      "translation": [
        0.0,
        1.45,
        0.25
      ],
      "mesh": 8,
      "extras": {
        "socket_type": "cargo_mount"
      }
    },
    {
      "name": "CargoLip",
      "translation": [
        0.0,
        1.78,
        0.25
      ],
      "mesh": 9
    },
    {
      "name": "ScrapperHopperRim",
      "translation": [
        0.0,
        1.84,
        0.25
      ],
      "mesh": 19
    },
    {
      "name": "ScrapperHopperLatch",
      "translation": [
        0.0,
        1.86,
        -0.24
      ],
      "mesh": 20,
      "rotation": [
        0.7071067811865476,
        0.0,
        0.0,
        0.7071067811865476
      ]
    },
    {
      "name": "CargoStrap",
      "translation": [
        0.0,
        1.47,
        0.25
      ],
      "mesh": 10
    },
    {
      "name": "DeepScrapHopper",
      "translation": [
        0.0,
        1.45,
        0.38
      ],
      "mesh": 8
    },
    {
      "name": "ScrapperHopperSideRail",
      "translation": [
        -0.72,
        1.58,
        0.3
      ],
      "mesh": 25,
      "rotation": [
        0.0,
        0.0,
        -0.04997916927067833,
        0.9987502603949663
      ]
    },
    {
      "name": "ScrapperHopperSideRail",
      "translation": [
        0.72,
        1.58,
        0.3
      ],
      "mesh": 25,
      "rotation": [
        0.0,
        0.0,
        0.04997916927067833,
        0.9987502603949663
      ]
    },
    {
      "name": "ScrapperIntakeDeck",
      "translation": [
        0.0,
        1.34,
        -0.86
      ],
      "mesh": 26,
      "rotation": [
        0.7071067811865476,
        0.0,
        0.0,
        0.7071067811865476
      ]
    },
    {
      "name": "DismantlerJoint",
      "translation": [
        -0.7,
        0.96,
        -0.34
      ],
      "mesh": 12
    },
    {
      "name": "ScrapperDismantlerCollarLeft",
      "translation": [
        -0.7,
        0.96,
        -0.34
      ],
      "mesh": 21,
      "extras": {
        "socket_type": "salvage_tool_collar"
      }
    },
    {
      "name": "Dismantler",
      "translation": [
        -0.7,
        0.96,
        -0.38
      ],
      "mesh": 11,
      "rotation": [
        0.0,
        0.0,
        -0.5012130046737978,
        0.8653239416229412
      ],
      "extras": {
        "socket_type": "salvage_tool"
      }
    },
    {
      "name": "DismantlerTool",
      "translation": [
        -1.12,
        0.61,
        -0.48
      ],
      "mesh": 13,
      "rotation": [
        0.0,
        0.0,
        -0.06994284733753277,
        0.9975510002532796
      ]
    },
    {
      "name": "ScrapMagnet",
      "translation": [
        -1.12,
        0.62,
        -0.72
      ],
      "mesh": 16,
      "rotation": [
        0.7071067811865476,
        0.0,
        0.0,
        0.7071067811865476
      ]
    },
    {
      "name": "ScrapperMagnetCoilLeft",
      "translation": [
        -1.12,
        0.62,
        -0.82
      ],
      "mesh": 23,
      "rotation": [
        0.7071067811865476,
        0.0,
        0.0,
        0.7071067811865476
      ]
    },
    {
      "name": "ScrapManipulatorCable",
      "translation": [
        -0.65,
        0.92,
        -0.04
      ],
      "mesh": 18,
      "rotation": [
        0.0,
        0.0,
        -0.09983341664682815,
        0.9950041652780258
      ]
    },
    {
      "name": "ScrapperFastener",
      "translation": [
        -0.45,
        1.2,
        -0.8
      ],
      "mesh": 17,
      "rotation": [
        0.7071067811865476,
        0.0,
        0.0,
        0.7071067811865476
      ]
    },
    {
      "name": "DismantlerJoint",
      "translation": [
        0.7,
        0.96,
        -0.34
      ],
      "mesh": 12
    },
    {
      "name": "ScrapperDismantlerCollarRight",
      "translation": [
        0.7,
        0.96,
        -0.34
      ],
      "mesh": 21,
      "extras": {
        "socket_type": "salvage_tool_collar"
      }
    },
    {
      "name": "Dismantler",
      "translation": [
        0.7,
        0.96,
        -0.38
      ],
      "mesh": 11,
      "rotation": [
        0.0,
        0.0,
        0.5012130046737978,
        0.8653239416229412
      ],
      "extras": {
        "socket_type": "salvage_tool"
      }
    },
    {
      "name": "DismantlerTool",
      "translation": [
        1.12,
        0.61,
        -0.48
      ],
      "mesh": 13,
      "rotation": [
        0.0,
        0.0,
        0.06994284733753277,
        0.9975510002532796
      ]
    },
    {
      "name": "ScrapMagnet",
      "translation": [
        1.12,
        0.62,
        -0.72
      ],
      "mesh": 16,
      "rotation": [
        0.7071067811865476,
        0.0,
        0.0,
        0.7071067811865476
      ]
    },
    {
      "name": "ScrapperMagnetCoilRight",
      "translation": [
        1.12,
        0.62,
        -0.82
      ],
      "mesh": 23,
      "rotation": [
        0.7071067811865476,
        0.0,
        0.0,
        0.7071067811865476
      ]
    },
    {
      "name": "ScrapManipulatorCable",
      "translation": [
        0.65,
        0.92,
        -0.04
      ],
      "mesh": 18,
      "rotation": [
        0.0,
        0.0,
        0.09983341664682815,
        0.9950041652780258
      ]
    },
    {
      "name": "ScrapperFastener",
      "translation": [
        0.45,
        1.2,
        -0.8
      ],
      "mesh": 17,
      "rotation": [
        0.7071067811865476,
        0.0,
        0.0,
        0.7071067811865476
      ]
    },
    {
      "name": "CuttingHead",
      "translation": [
        0.0,
        1.13,
        -0.92
      ],
      "mesh": 14,
      "rotation": [
        0.7071067811865476,
        0.0,
        0.0,
        0.7071067811865476
      ]
    },
    {
      "name": "ScrapperCuttingGuard",
      "translation": [
        0.0,
        1.13,
        -1.1
      ],
      "mesh": 22,
      "rotation": [
        0.7071067811865476,
        0.0,
        0.0,
        0.7071067811865476
      ]
    },
    {
      "name": "SalvageDrum",
      "translation": [
        0.0,
        1.36,
        0.25
      ],
      "mesh": 15,
      "rotation": [
        0.7071067811865476,
        0.0,
        0.0,
        0.7071067811865476
      ],
      "extras": {
        "socket_type": "salvage_drum"
      }
    },
    {
      "name": "ScrapperIntake",
      "translation": [
        0.0,
        1.43,
        -0.82
      ],
      "mesh": 2
    },
    {
      "name": "ScrapperIntakeToothLeft",
      "translation": [
        -0.22,
        1.43,
        -0.93
      ],
      "mesh": 24,
      "rotation": [
        0.0,
        0.0,
        -0.059964006479444595,
        0.9982005399352042
      ]
    },
    {
      "name": "ScrapperIntakeToothRight",
      "translation": [
        0.22,
        1.43,
        -0.93
      ],
      "mesh": 24,
      "rotation": [
        0.0,
        0.0,
        0.059964006479444595,
        0.9982005399352042
      ]
    },
    {
      "name": "ProductionAssetMarker",
      "translation": [
        0.0,
        0.0,
        0.0
      ],
      "extras": {
        "asset_contract": "scrapper.salvager.v1",
        "source": "original_shared_mesh_builder"
      }
    }
  ],
  "meshes": [
    {
      "name": "Chassis",
      "primitives": [
        {
          "attributes": {
            "POSITION": 0,
            "NORMAL": 1
          },
          "indices": 2,
          "material": 0
        }
      ]
    },
    {
      "name": "Core",
      "primitives": [
        {
          "attributes": {
            "POSITION": 3,
            "NORMAL": 4
          },
          "indices": 5,
          "material": 2
        }
      ]
    },
    {
      "name": "Plate",
      "primitives": [
        {
          "attributes": {
            "POSITION": 6,
            "NORMAL": 7
          },
          "indices": 8,
          "material": 1
        }
      ]
    },
    {
      "name": "Corner",
      "primitives": [
        {
          "attributes": {
            "POSITION": 9,
            "NORMAL": 10
          },
          "indices": 11,
          "material": 1
        }
      ]
    },
    {
      "name": "Leg",
      "primitives": [
        {
          "attributes": {
            "POSITION": 12,
            "NORMAL": 13
          },
          "indices": 14,
          "material": 5
        }
      ]
    },
    {
      "name": "Foot",
      "primitives": [
        {
          "attributes": {
            "POSITION": 15,
            "NORMAL": 16
          },
          "indices": 17,
          "material": 2
        }
      ]
    },
    {
      "name": "OpticHousing",
      "primitives": [
        {
          "attributes": {
            "POSITION": 18,
            "NORMAL": 19
          },
          "indices": 20,
          "material": 0
        }
      ]
    },
    {
      "name": "Optic",
      "primitives": [
        {
          "attributes": {
            "POSITION": 21,
            "NORMAL": 22
          },
          "indices": 23,
          "material": 3
        }
      ]
    },
    {
      "name": "Cargo",
      "primitives": [
        {
          "attributes": {
            "POSITION": 24,
            "NORMAL": 25
          },
          "indices": 26,
          "material": 0
        }
      ]
    },
    {
      "name": "CargoLip",
      "primitives": [
        {
          "attributes": {
            "POSITION": 27,
            "NORMAL": 28
          },
          "indices": 29,
          "material": 2
        }
      ]
    },
    {
      "name": "Strap",
      "primitives": [
        {
          "attributes": {
            "POSITION": 30,
            "NORMAL": 31
          },
          "indices": 32,
          "material": 2
        }
      ]
    },
    {
      "name": "Arm",
      "primitives": [
        {
          "attributes": {
            "POSITION": 33,
            "NORMAL": 34
          },
          "indices": 35,
          "material": 2
        }
      ]
    },
    {
      "name": "Joint",
      "primitives": [
        {
          "attributes": {
            "POSITION": 36,
            "NORMAL": 37
          },
          "indices": 38,
          "material": 0
        }
      ]
    },
    {
      "name": "Claw",
      "primitives": [
        {
          "attributes": {
            "POSITION": 39,
            "NORMAL": 40
          },
          "indices": 41,
          "material": 1
        }
      ]
    },
    {
      "name": "CutHead",
      "primitives": [
        {
          "attributes": {
            "POSITION": 42,
            "NORMAL": 43
          },
          "indices": 44,
          "material": 0
        }
      ]
    },
    {
      "name": "Drum",
      "primitives": [
        {
          "attributes": {
            "POSITION": 45,
            "NORMAL": 46
          },
          "indices": 47,
          "material": 2
        }
      ]
    },
    {
      "name": "Magnet",
      "primitives": [
        {
          "attributes": {
            "POSITION": 48,
            "NORMAL": 49
          },
          "indices": 50,
          "material": 3
        }
      ]
    },
    {
      "name": "Fastener",
      "primitives": [
        {
          "attributes": {
            "POSITION": 51,
            "NORMAL": 52
          },
          "indices": 53,
          "material": 4
        }
      ]
    },
    {
      "name": "Cable",
      "primitives": [
        {
          "attributes": {
            "POSITION": 54,
            "NORMAL": 55
          },
          "indices": 56,
          "material": 5
        }
      ]
    },
    {
      "name": "HopperRim",
      "primitives": [
        {
          "attributes": {
            "POSITION": 57,
            "NORMAL": 58
          },
          "indices": 59,
          "material": 1
        }
      ]
    },
    {
      "name": "HopperLatch",
      "primitives": [
        {
          "attributes": {
            "POSITION": 60,
            "NORMAL": 61
          },
          "indices": 62,
          "material": 4
        }
      ]
    },
    {
      "name": "DismantlerCollar",
      "primitives": [
        {
          "attributes": {
            "POSITION": 63,
            "NORMAL": 64
          },
          "indices": 65,
          "material": 3
        }
      ]
    },
    {
      "name": "CuttingGuard",
      "primitives": [
        {
          "attributes": {
            "POSITION": 66,
            "NORMAL": 67
          },
          "indices": 68,
          "material": 1
        }
      ]
    },
    {
      "name": "MagnetCoil",
      "primitives": [
        {
          "attributes": {
            "POSITION": 69,
            "NORMAL": 70
          },
          "indices": 71,
          "material": 3
        }
      ]
    },
    {
      "name": "IntakeTooth",
      "primitives": [
        {
          "attributes": {
            "POSITION": 72,
            "NORMAL": 73
          },
          "indices": 74,
          "material": 4
        }
      ]
    },
    {
      "name": "HopperSideRail",
      "primitives": [
        {
          "attributes": {
            "POSITION": 75,
            "NORMAL": 76
          },
          "indices": 77,
          "material": 1
        }
      ]
    },
    {
      "name": "IntakeDeck",
      "primitives": [
        {
          "attributes": {
            "POSITION": 78,
            "NORMAL": 79
          },
          "indices": 80,
          "material": 1
        }
      ]
    }
  ],
  "materials": [
    {
      "name": "Scrapper charcoal chassis",
      "pbrMetallicRoughness": {
        "baseColorFactor": [
          0.045,
          0.06,
          0.065,
          1.0
        ],
        "metallicFactor": 0.78,
        "roughnessFactor": 0.44
      }
    },
    {
      "name": "Scrapper worn steel",
      "pbrMetallicRoughness": {
        "baseColorFactor": [
          0.23,
          0.28,
          0.28,
          1.0
        ],
        "metallicFactor": 0.82,
        "roughnessFactor": 0.4
      }
    },
    {
      "name": "Scrapper oxide bins",
      "pbrMetallicRoughness": {
        "baseColorFactor": [
          0.3,
          0.13,
          0.065,
          1.0
        ],
        "metallicFactor": 0.58,
        "roughnessFactor": 0.6
      }
    },
    {
      "name": "Scrapper cyan status",
      "pbrMetallicRoughness": {
        "baseColorFactor": [
          0.03,
          0.2,
          0.22,
          1.0
        ],
        "metallicFactor": 0.3,
        "roughnessFactor": 0.24
      },
      "emissiveFactor": [
        0.1,
        0.85,
        0.9
      ]
    },
    {
      "name": "Scrapper warm work light",
      "pbrMetallicRoughness": {
        "baseColorFactor": [
          0.42,
          0.17,
          0.04,
          1.0
        ],
        "metallicFactor": 0.26,
        "roughnessFactor": 0.36
      },
      "emissiveFactor": [
        1.0,
        0.3,
        0.04
      ]
    },
    {
      "name": "Scrapper rubber",
      "pbrMetallicRoughness": {
        "baseColorFactor": [
          0.014,
          0.018,
          0.02,
          1.0
        ],
        "metallicFactor": 0.04,
        "roughnessFactor": 0.92
      }
    }
  ],
  "accessors": [
    {
      "bufferView": 0,
      "componentType": 5126,
      "count": 684,
      "type": "VEC3",
      "min": [
        -0.64,
        -0.32,
        -0.75
      ],
      "max": [
        0.64,
        0.32,
        0.75
      ]
    },
    {
      "bufferView": 1,
      "componentType": 5126,
      "count": 684,
      "type": "VEC3"
    },
    {
      "bufferView": 2,
      "componentType": 5123,
      "count": 3888,
      "type": "SCALAR",
      "normalized": false
    },
    {
      "bufferView": 3,
      "componentType": 5126,
      "count": 684,
      "type": "VEC3",
      "min": [
        -0.52,
        -0.15,
        -0.61
      ],
      "max": [
        0.52,
        0.15,
        0.61
      ]
    },
    {
      "bufferView": 4,
      "componentType": 5126,
      "count": 684,
      "type": "VEC3"
    },
    {
      "bufferView": 5,
      "componentType": 5123,
      "count": 3888,
      "type": "SCALAR",
      "normalized": false
    },
    {
      "bufferView": 6,
      "componentType": 5126,
      "count": 544,
      "type": "VEC3",
      "min": [
        -0.58,
        -0.08,
        -0.07
      ],
      "max": [
        0.58,
        0.08,
        0.07
      ]
    },
    {
      "bufferView": 7,
      "componentType": 5126,
      "count": 544,
      "type": "VEC3"
    },
    {
      "bufferView": 8,
      "componentType": 5123,
      "count": 3072,
      "type": "SCALAR",
      "normalized": false
    },
    {
      "bufferView": 9,
      "componentType": 5126,
      "count": 50,
      "type": "VEC3",
      "min": [
        -0.11,
        -0.075,
        -0.11
      ],
      "max": [
        0.11,
        0.075,
        0.11
      ]
    },
    {
      "bufferView": 10,
      "componentType": 5126,
      "count": 50,
      "type": "VEC3"
    },
    {
      "bufferView": 11,
      "componentType": 5123,
      "count": 288,
      "type": "SCALAR",
      "normalized": false
    },
    {
      "bufferView": 12,
      "componentType": 5126,
      "count": 50,
      "type": "VEC3",
      "min": [
        -0.105,
        -0.35,
        -0.105
      ],
      "max": [
        0.105,
        0.35,
        0.105
      ]
    },
    {
      "bufferView": 13,
      "componentType": 5126,
      "count": 50,
      "type": "VEC3"
    },
    {
      "bufferView": 14,
      "componentType": 5123,
      "count": 288,
      "type": "SCALAR",
      "normalized": false
    },
    {
      "bufferView": 15,
      "componentType": 5126,
      "count": 96,
      "type": "VEC3",
      "min": [
        -0.13,
        -0.06,
        -0.19
      ],
      "max": [
        0.13,
        0.06,
        0.19
      ]
    },
    {
      "bufferView": 16,
      "componentType": 5126,
      "count": 96,
      "type": "VEC3"
    },
    {
      "bufferView": 17,
      "componentType": 5123,
      "count": 132,
      "type": "SCALAR",
      "normalized": false
    },
    {
      "bufferView": 18,
      "componentType": 5126,
      "count": 96,
      "type": "VEC3",
      "min": [
        -0.22,
        -0.12,
        -0.06
      ],
      "max": [
        0.22,
        0.12,
        0.06
      ]
    },
    {
      "bufferView": 19,
      "componentType": 5126,
      "count": 96,
      "type": "VEC3"
    },
    {
      "bufferView": 20,
      "componentType": 5123,
      "count": 132,
      "type": "SCALAR",
      "normalized": false
    },
    {
      "bufferView": 21,
      "componentType": 5126,
      "count": 408,
      "type": "VEC3",
      "min": [
        -0.08,
        -0.08,
        -0.08
      ],
      "max": [
        0.08,
        0.08,
        0.08
      ]
    },
    {
      "bufferView": 22,
      "componentType": 5126,
      "count": 408,
      "type": "VEC3"
    },
    {
      "bufferView": 23,
      "componentType": 5123,
      "count": 2304,
      "type": "SCALAR",
      "normalized": false
    },
    {
      "bufferView": 24,
      "componentType": 5126,
      "count": 96,
      "type": "VEC3",
      "min": [
        -0.5,
        -0.29,
        -0.43
      ],
      "max": [
        0.5,
        0.29,
        0.43
      ]
    },
    {
      "bufferView": 25,
      "componentType": 5126,
      "count": 96,
      "type": "VEC3"
    },
    {
      "bufferView": 26,
      "componentType": 5123,
      "count": 132,
      "type": "SCALAR",
      "normalized": false
    },
    {
      "bufferView": 27,
      "componentType": 5126,
      "count": 96,
      "type": "VEC3",
      "min": [
        -0.56,
        -0.04,
        -0.46
      ],
      "max": [
        0.56,
        0.04,
        0.46
      ]
    },
    {
      "bufferView": 28,
      "componentType": 5126,
      "count": 96,
      "type": "VEC3"
    },
    {
      "bufferView": 29,
      "componentType": 5123,
      "count": 132,
      "type": "SCALAR",
      "normalized": false
    },
    {
      "bufferView": 30,
      "componentType": 5126,
      "count": 96,
      "type": "VEC3",
      "min": [
        -0.06,
        -0.24,
        -0.46
      ],
      "max": [
        0.06,
        0.24,
        0.46
      ]
    },
    {
      "bufferView": 31,
      "componentType": 5126,
      "count": 96,
      "type": "VEC3"
    },
    {
      "bufferView": 32,
      "componentType": 5123,
      "count": 132,
      "type": "SCALAR",
      "normalized": false
    },
    {
      "bufferView": 33,
      "componentType": 5126,
      "count": 50,
      "type": "VEC3",
      "min": [
        -0.09,
        -0.6,
        -0.09
      ],
      "max": [
        0.09,
        0.6,
        0.09
      ]
    },
    {
      "bufferView": 34,
      "componentType": 5126,
      "count": 50,
      "type": "VEC3"
    },
    {
      "bufferView": 35,
      "componentType": 5123,
      "count": 288,
      "type": "SCALAR",
      "normalized": false
    },
    {
      "bufferView": 36,
      "componentType": 5126,
      "count": 408,
      "type": "VEC3",
      "min": [
        -0.14,
        -0.14,
        -0.14
      ],
      "max": [
        0.14,
        0.14,
        0.14
      ]
    },
    {
      "bufferView": 37,
      "componentType": 5126,
      "count": 408,
      "type": "VEC3"
    },
    {
      "bufferView": 38,
      "componentType": 5123,
      "count": 2304,
      "type": "SCALAR",
      "normalized": false
    },
    {
      "bufferView": 39,
      "componentType": 5126,
      "count": 96,
      "type": "VEC3",
      "min": [
        -0.16,
        -0.09,
        -0.24
      ],
      "max": [
        0.16,
        0.09,
        0.24
      ]
    },
    {
      "bufferView": 40,
      "componentType": 5126,
      "count": 96,
      "type": "VEC3"
    },
    {
      "bufferView": 41,
      "componentType": 5123,
      "count": 132,
      "type": "SCALAR",
      "normalized": false
    },
    {
      "bufferView": 42,
      "componentType": 5126,
      "count": 50,
      "type": "VEC3",
      "min": [
        -0.18,
        -0.16,
        -0.18
      ],
      "max": [
        0.18,
        0.16,
        0.18
      ]
    },
    {
      "bufferView": 43,
      "componentType": 5126,
      "count": 50,
      "type": "VEC3"
    },
    {
      "bufferView": 44,
      "componentType": 5123,
      "count": 288,
      "type": "SCALAR",
      "normalized": false
    },
    {
      "bufferView": 45,
      "componentType": 5126,
      "count": 50,
      "type": "VEC3",
      "min": [
        -0.13,
        -0.11,
        -0.13
      ],
      "max": [
        0.13,
        0.11,
        0.13
      ]
    },
    {
      "bufferView": 46,
      "componentType": 5126,
      "count": 50,
      "type": "VEC3"
    },
    {
      "bufferView": 47,
      "componentType": 5123,
      "count": 288,
      "type": "SCALAR",
      "normalized": false
    },
    {
      "bufferView": 48,
      "componentType": 5126,
      "count": 50,
      "type": "VEC3",
      "min": [
        -0.12,
        -0.08,
        -0.12
      ],
      "max": [
        0.12,
        0.08,
        0.12
      ]
    },
    {
      "bufferView": 49,
      "componentType": 5126,
      "count": 50,
      "type": "VEC3"
    },
    {
      "bufferView": 50,
      "componentType": 5123,
      "count": 288,
      "type": "SCALAR",
      "normalized": false
    },
    {
      "bufferView": 51,
      "componentType": 5126,
      "count": 50,
      "type": "VEC3",
      "min": [
        -0.04,
        -0.02,
        -0.04
      ],
      "max": [
        0.04,
        0.02,
        0.04
      ]
    },
    {
      "bufferView": 52,
      "componentType": 5126,
      "count": 50,
      "type": "VEC3"
    },
    {
      "bufferView": 53,
      "componentType": 5123,
      "count": 288,
      "type": "SCALAR",
      "normalized": false
    },
    {
      "bufferView": 54,
      "componentType": 5126,
      "count": 50,
      "type": "VEC3",
      "min": [
        -0.03,
        -0.35,
        -0.03
      ],
      "max": [
        0.03,
        0.35,
        0.03
      ]
    },
    {
      "bufferView": 55,
      "componentType": 5126,
      "count": 50,
      "type": "VEC3"
    },
    {
      "bufferView": 56,
      "componentType": 5123,
      "count": 288,
      "type": "SCALAR",
      "normalized": false
    },
    {
      "bufferView": 57,
      "componentType": 5126,
      "count": 96,
      "type": "VEC3",
      "min": [
        -0.59,
        -0.04,
        -0.49
      ],
      "max": [
        0.59,
        0.04,
        0.49
      ]
    },
    {
      "bufferView": 58,
      "componentType": 5126,
      "count": 96,
      "type": "VEC3"
    },
    {
      "bufferView": 59,
      "componentType": 5123,
      "count": 132,
      "type": "SCALAR",
      "normalized": false
    },
    {
      "bufferView": 60,
      "componentType": 5126,
      "count": 50,
      "type": "VEC3",
      "min": [
        -0.06,
        -0.06,
        -0.06
      ],
      "max": [
        0.06,
        0.06,
        0.06
      ]
    },
    {
      "bufferView": 61,
      "componentType": 5126,
      "count": 50,
      "type": "VEC3"
    },
    {
      "bufferView": 62,
      "componentType": 5123,
      "count": 288,
      "type": "SCALAR",
      "normalized": false
    },
    {
      "bufferView": 63,
      "componentType": 5126,
      "count": 50,
      "type": "VEC3",
      "min": [
        -0.12,
        -0.04,
        -0.12
      ],
      "max": [
        0.12,
        0.04,
        0.12
      ]
    },
    {
      "bufferView": 64,
      "componentType": 5126,
      "count": 50,
      "type": "VEC3"
    },
    {
      "bufferView": 65,
      "componentType": 5123,
      "count": 288,
      "type": "SCALAR",
      "normalized": false
    },
    {
      "bufferView": 66,
      "componentType": 5126,
      "count": 96,
      "type": "VEC3",
      "min": [
        -0.23,
        -0.05,
        -0.07
      ],
      "max": [
        0.23,
        0.05,
        0.07
      ]
    },
    {
      "bufferView": 67,
      "componentType": 5126,
      "count": 96,
      "type": "VEC3"
    },
    {
      "bufferView": 68,
      "componentType": 5123,
      "count": 132,
      "type": "SCALAR",
      "normalized": false
    },
    {
      "bufferView": 69,
      "componentType": 5126,
      "count": 50,
      "type": "VEC3",
      "min": [
        -0.15,
        -0.03,
        -0.15
      ],
      "max": [
        0.15,
        0.03,
        0.15
      ]
    },
    {
      "bufferView": 70,
      "componentType": 5126,
      "count": 50,
      "type": "VEC3"
    },
    {
      "bufferView": 71,
      "componentType": 5123,
      "count": 288,
      "type": "SCALAR",
      "normalized": false
    },
    {
      "bufferView": 72,
      "componentType": 5126,
      "count": 96,
      "type": "VEC3",
      "min": [
        -0.04,
        -0.06,
        -0.09
      ],
      "max": [
        0.04,
        0.06,
        0.09
      ]
    },
    {
      "bufferView": 73,
      "componentType": 5126,
      "count": 96,
      "type": "VEC3"
    },
    {
      "bufferView": 74,
      "componentType": 5123,
      "count": 132,
      "type": "SCALAR",
      "normalized": false
    },
    {
      "bufferView": 75,
      "componentType": 5126,
      "count": 96,
      "type": "VEC3",
      "min": [
        -0.06,
        -0.21,
        -0.43
      ],
      "max": [
        0.06,
        0.21,
        0.43
      ]
    },
    {
      "bufferView": 76,
      "componentType": 5126,
      "count": 96,
      "type": "VEC3"
    },
    {
      "bufferView": 77,
      "componentType": 5123,
      "count": 132,
      "type": "SCALAR",
      "normalized": false
    },
    {
      "bufferView": 78,
      "componentType": 5126,
      "count": 96,
      "type": "VEC3",
      "min": [
        -0.36,
        -0.06,
        -0.14
      ],
      "max": [
        0.36,
        0.06,
        0.14
      ]
    },
    {
      "bufferView": 79,
      "componentType": 5126,
      "count": 96,
      "type": "VEC3"
    },
    {
      "bufferView": 80,
      "componentType": 5123,
      "count": 132,
      "type": "SCALAR",
      "normalized": false
    },
    {
      "bufferView": 81,
      "componentType": 5126,
      "count": 3,
      "type": "SCALAR",
      "min": [
        0.0
      ],
      "max": [
        1.6
      ]
    },
    {
      "bufferView": 82,
      "componentType": 5126,
      "count": 3,
      "type": "VEC3"
    },
    {
      "bufferView": 83,
      "componentType": 5126,
      "count": 3,
      "type": "SCALAR",
      "min": [
        0.0
      ],
      "max": [
        1.6
      ]
    },
    {
      "bufferView": 84,
      "componentType": 5126,
      "count": 3,
      "type": "VEC4"
    },
    {
      "bufferView": 85,
      "componentType": 5126,
      "count": 3,
      "type": "SCALAR",
      "min": [
        0.0
      ],
      "max": [
        1.6
      ]
    },
    {
      "bufferView": 86,
      "componentType": 5126,
      "count": 3,
      "type": "VEC4"
    },
    {
      "bufferView": 87,
      "componentType": 5126,
      "count": 3,
      "type": "SCALAR",
      "min": [
        0.0
      ],
      "max": [
        1.6
      ]
    },
    {
      "bufferView": 88,
      "componentType": 5126,
      "count": 3,
      "type": "VEC4"
    },
    {
      "bufferView": 89,
      "componentType": 5126,
      "count": 3,
      "type": "SCALAR",
      "min": [
        0.0
      ],
      "max": [
        1.6
      ]
    },
    {
      "bufferView": 90,
      "componentType": 5126,
      "count": 3,
      "type": "VEC4"
    },
    {
      "bufferView": 91,
      "componentType": 5126,
      "count": 3,
      "type": "SCALAR",
      "min": [
        0.0
      ],
      "max": [
        1.6
      ]
    },
    {
      "bufferView": 92,
      "componentType": 5126,
      "count": 3,
      "type": "VEC4"
    },
    {
      "bufferView": 93,
      "componentType": 5126,
      "count": 3,
      "type": "SCALAR",
      "min": [
        0.0
      ],
      "max": [
        0.44
      ]
    },
    {
      "bufferView": 94,
      "componentType": 5126,
      "count": 3,
      "type": "VEC4"
    },
    {
      "bufferView": 95,
      "componentType": 5126,
      "count": 3,
      "type": "SCALAR",
      "min": [
        0.0
      ],
      "max": [
        0.44
      ]
    },
    {
      "bufferView": 96,
      "componentType": 5126,
      "count": 3,
      "type": "VEC4"
    },
    {
      "bufferView": 97,
      "componentType": 5126,
      "count": 3,
      "type": "SCALAR",
      "min": [
        0.0
      ],
      "max": [
        0.44
      ]
    },
    {
      "bufferView": 98,
      "componentType": 5126,
      "count": 3,
      "type": "VEC4"
    },
    {
      "bufferView": 99,
      "componentType": 5126,
      "count": 3,
      "type": "SCALAR",
      "min": [
        0.0
      ],
      "max": [
        0.44
      ]
    },
    {
      "bufferView": 100,
      "componentType": 5126,
      "count": 3,
      "type": "VEC4"
    },
    {
      "bufferView": 101,
      "componentType": 5126,
      "count": 3,
      "type": "SCALAR",
      "min": [
        0.0
      ],
      "max": [
        0.44
      ]
    },
    {
      "bufferView": 102,
      "componentType": 5126,
      "count": 3,
      "type": "VEC4"
    },
    {
      "bufferView": 103,
      "componentType": 5126,
      "count": 3,
      "type": "SCALAR",
      "min": [
        0.0
      ],
      "max": [
        0.44
      ]
    },
    {
      "bufferView": 104,
      "componentType": 5126,
      "count": 3,
      "type": "VEC4"
    },
    {
      "bufferView": 105,
      "componentType": 5126,
      "count": 3,
      "type": "SCALAR",
      "min": [
        0.0
      ],
      "max": [
        0.44
      ]
    },
    {
      "bufferView": 106,
      "componentType": 5126,
      "count": 3,
      "type": "VEC4"
    },
    {
      "bufferView": 107,
      "componentType": 5126,
      "count": 3,
      "type": "SCALAR",
      "min": [
        0.0
      ],
      "max": [
        1.0
      ]
    },
    {
      "bufferView": 108,
      "componentType": 5126,
      "count": 3,
      "type": "VEC4"
    },
    {
      "bufferView": 109,
      "componentType": 5126,
      "count": 3,
      "type": "SCALAR",
      "min": [
        0.0
      ],
      "max": [
        1.0
      ]
    },
    {
      "bufferView": 110,
      "componentType": 5126,
      "count": 3,
      "type": "VEC4"
    },
    {
      "bufferView": 111,
      "componentType": 5126,
      "count": 3,
      "type": "SCALAR",
      "min": [
        0.0
      ],
      "max": [
        1.0
      ]
    },
    {
      "bufferView": 112,
      "componentType": 5126,
      "count": 3,
      "type": "VEC4"
    },
    {
      "bufferView": 113,
      "componentType": 5126,
      "count": 3,
      "type": "SCALAR",
      "min": [
        0.0
      ],
      "max": [
        1.0
      ]
    },
    {
      "bufferView": 114,
      "componentType": 5126,
      "count": 3,
      "type": "VEC4"
    },
    {
      "bufferView": 115,
      "componentType": 5126,
      "count": 3,
      "type": "SCALAR",
      "min": [
        0.0
      ],
      "max": [
        1.0
      ]
    },
    {
      "bufferView": 116,
      "componentType": 5126,
      "count": 3,
      "type": "VEC4"
    },
    {
      "bufferView": 117,
      "componentType": 5126,
      "count": 3,
      "type": "SCALAR",
      "min": [
        0.0
      ],
      "max": [
        1.0
      ]
    },
    {
      "bufferView": 118,
      "componentType": 5126,
      "count": 3,
      "type": "VEC4"
    },
    {
      "bufferView": 119,
      "componentType": 5126,
      "count": 3,
      "type": "SCALAR",
      "min": [
        0.0
      ],
      "max": [
        1.0
      ]
    },
    {
      "bufferView": 120,
      "componentType": 5126,
      "count": 3,
      "type": "VEC4"
    },
    {
      "bufferView": 121,
      "componentType": 5126,
      "count": 3,
      "type": "SCALAR",
      "min": [
        0.0
      ],
      "max": [
        0.24
      ]
    },
    {
      "bufferView": 122,
      "componentType": 5126,
      "count": 3,
      "type": "VEC3"
    },
    {
      "bufferView": 123,
      "componentType": 5126,
      "count": 3,
      "type": "SCALAR",
      "min": [
        0.0
      ],
      "max": [
        0.24
      ]
    },
    {
      "bufferView": 124,
      "componentType": 5126,
      "count": 3,
      "type": "VEC4"
    },
    {
      "bufferView": 125,
      "componentType": 5126,
      "count": 3,
      "type": "SCALAR",
      "min": [
        0.0
      ],
      "max": [
        0.24
      ]
    },
    {
      "bufferView": 126,
      "componentType": 5126,
      "count": 3,
      "type": "VEC4"
    },
    {
      "bufferView": 127,
      "componentType": 5126,
      "count": 3,
      "type": "SCALAR",
      "min": [
        0.0
      ],
      "max": [
        0.24
      ]
    },
    {
      "bufferView": 128,
      "componentType": 5126,
      "count": 3,
      "type": "VEC4"
    },
    {
      "bufferView": 129,
      "componentType": 5126,
      "count": 3,
      "type": "SCALAR",
      "min": [
        0.0
      ],
      "max": [
        0.24
      ]
    },
    {
      "bufferView": 130,
      "componentType": 5126,
      "count": 3,
      "type": "VEC4"
    },
    {
      "bufferView": 131,
      "componentType": 5126,
      "count": 3,
      "type": "SCALAR",
      "min": [
        0.0
      ],
      "max": [
        0.56
      ]
    },
    {
      "bufferView": 132,
      "componentType": 5126,
      "count": 3,
      "type": "VEC4"
    },
    {
      "bufferView": 133,
      "componentType": 5126,
      "count": 3,
      "type": "SCALAR",
      "min": [
        0.0
      ],
      "max": [
        0.56
      ]
    },
    {
      "bufferView": 134,
      "componentType": 5126,
      "count": 3,
      "type": "VEC4"
    },
    {
      "bufferView": 135,
      "componentType": 5126,
      "count": 3,
      "type": "SCALAR",
      "min": [
        0.0
      ],
      "max": [
        0.56
      ]
    },
    {
      "bufferView": 136,
      "componentType": 5126,
      "count": 3,
      "type": "VEC4"
    },
    {
      "bufferView": 137,
      "componentType": 5126,
      "count": 3,
      "type": "SCALAR",
      "min": [
        0.0
      ],
      "max": [
        0.56
      ]
    },
    {
      "bufferView": 138,
      "componentType": 5126,
      "count": 3,
      "type": "VEC4"
    },
    {
      "bufferView": 139,
      "componentType": 5126,
      "count": 3,
      "type": "SCALAR",
      "min": [
        0.0
      ],
      "max": [
        0.56
      ]
    },
    {
      "bufferView": 140,
      "componentType": 5126,
      "count": 3,
      "type": "VEC4"
    },
    {
      "bufferView": 141,
      "componentType": 5126,
      "count": 3,
      "type": "SCALAR",
      "min": [
        0.0
      ],
      "max": [
        0.42
      ]
    },
    {
      "bufferView": 142,
      "componentType": 5126,
      "count": 3,
      "type": "VEC3"
    },
    {
      "bufferView": 143,
      "componentType": 5126,
      "count": 3,
      "type": "SCALAR",
      "min": [
        0.0
      ],
      "max": [
        0.42
      ]
    },
    {
      "bufferView": 144,
      "componentType": 5126,
      "count": 3,
      "type": "VEC4"
    },
    {
      "bufferView": 145,
      "componentType": 5126,
      "count": 3,
      "type": "SCALAR",
      "min": [
        0.0
      ],
      "max": [
        0.42
      ]
    },
    {
      "bufferView": 146,
      "componentType": 5126,
      "count": 3,
      "type": "VEC4"
    },
    {
      "bufferView": 147,
      "componentType": 5126,
      "count": 3,
      "type": "SCALAR",
      "min": [
        0.0
      ],
      "max": [
        0.42
      ]
    },
    {
      "bufferView": 148,
      "componentType": 5126,
      "count": 3,
      "type": "VEC4"
    }
  ],
  "bufferViews": [
    {
      "buffer": 0,
      "byteOffset": 0,
      "byteLength": 8208,
      "target": 34962
    },
    {
      "buffer": 0,
      "byteOffset": 8208,
      "byteLength": 8208,
      "target": 34962
    },
    {
      "buffer": 0,
      "byteOffset": 16416,
      "byteLength": 7776,
      "target": 34963
    },
    {
      "buffer": 0,
      "byteOffset": 24192,
      "byteLength": 8208,
      "target": 34962
    },
    {
      "buffer": 0,
      "byteOffset": 32400,
      "byteLength": 8208,
      "target": 34962
    },
    {
      "buffer": 0,
      "byteOffset": 40608,
      "byteLength": 7776,
      "target": 34963
    },
    {
      "buffer": 0,
      "byteOffset": 48384,
      "byteLength": 6528,
      "target": 34962
    },
    {
      "buffer": 0,
      "byteOffset": 54912,
      "byteLength": 6528,
      "target": 34962
    },
    {
      "buffer": 0,
      "byteOffset": 61440,
      "byteLength": 6144,
      "target": 34963
    },
    {
      "buffer": 0,
      "byteOffset": 67584,
      "byteLength": 600,
      "target": 34962
    },
    {
      "buffer": 0,
      "byteOffset": 68184,
      "byteLength": 600,
      "target": 34962
    },
    {
      "buffer": 0,
      "byteOffset": 68784,
      "byteLength": 576,
      "target": 34963
    },
    {
      "buffer": 0,
      "byteOffset": 69360,
      "byteLength": 600,
      "target": 34962
    },
    {
      "buffer": 0,
      "byteOffset": 69960,
      "byteLength": 600,
      "target": 34962
    },
    {
      "buffer": 0,
      "byteOffset": 70560,
      "byteLength": 576,
      "target": 34963
    },
    {
      "buffer": 0,
      "byteOffset": 71136,
      "byteLength": 1152,
      "target": 34962
    },
    {
      "buffer": 0,
      "byteOffset": 72288,
      "byteLength": 1152,
      "target": 34962
    },
    {
      "buffer": 0,
      "byteOffset": 73440,
      "byteLength": 264,
      "target": 34963
    },
    {
      "buffer": 0,
      "byteOffset": 73704,
      "byteLength": 1152,
      "target": 34962
    },
    {
      "buffer": 0,
      "byteOffset": 74856,
      "byteLength": 1152,
      "target": 34962
    },
    {
      "buffer": 0,
      "byteOffset": 76008,
      "byteLength": 264,
      "target": 34963
    },
    {
      "buffer": 0,
      "byteOffset": 76272,
      "byteLength": 4896,
      "target": 34962
    },
    {
      "buffer": 0,
      "byteOffset": 81168,
      "byteLength": 4896,
      "target": 34962
    },
    {
      "buffer": 0,
      "byteOffset": 86064,
      "byteLength": 4608,
      "target": 34963
    },
    {
      "buffer": 0,
      "byteOffset": 90672,
      "byteLength": 1152,
      "target": 34962
    },
    {
      "buffer": 0,
      "byteOffset": 91824,
      "byteLength": 1152,
      "target": 34962
    },
    {
      "buffer": 0,
      "byteOffset": 92976,
      "byteLength": 264,
      "target": 34963
    },
    {
      "buffer": 0,
      "byteOffset": 93240,
      "byteLength": 1152,
      "target": 34962
    },
    {
      "buffer": 0,
      "byteOffset": 94392,
      "byteLength": 1152,
      "target": 34962
    },
    {
      "buffer": 0,
      "byteOffset": 95544,
      "byteLength": 264,
      "target": 34963
    },
    {
      "buffer": 0,
      "byteOffset": 95808,
      "byteLength": 1152,
      "target": 34962
    },
    {
      "buffer": 0,
      "byteOffset": 96960,
      "byteLength": 1152,
      "target": 34962
    },
    {
      "buffer": 0,
      "byteOffset": 98112,
      "byteLength": 264,
      "target": 34963
    },
    {
      "buffer": 0,
      "byteOffset": 98376,
      "byteLength": 600,
      "target": 34962
    },
    {
      "buffer": 0,
      "byteOffset": 98976,
      "byteLength": 600,
      "target": 34962
    },
    {
      "buffer": 0,
      "byteOffset": 99576,
      "byteLength": 576,
      "target": 34963
    },
    {
      "buffer": 0,
      "byteOffset": 100152,
      "byteLength": 4896,
      "target": 34962
    },
    {
      "buffer": 0,
      "byteOffset": 105048,
      "byteLength": 4896,
      "target": 34962
    },
    {
      "buffer": 0,
      "byteOffset": 109944,
      "byteLength": 4608,
      "target": 34963
    },
    {
      "buffer": 0,
      "byteOffset": 114552,
      "byteLength": 1152,
      "target": 34962
    },
    {
      "buffer": 0,
      "byteOffset": 115704,
      "byteLength": 1152,
      "target": 34962
    },
    {
      "buffer": 0,
      "byteOffset": 116856,
      "byteLength": 264,
      "target": 34963
    },
    {
      "buffer": 0,
      "byteOffset": 117120,
      "byteLength": 600,
      "target": 34962
    },
    {
      "buffer": 0,
      "byteOffset": 117720,
      "byteLength": 600,
      "target": 34962
    },
    {
      "buffer": 0,
      "byteOffset": 118320,
      "byteLength": 576,
      "target": 34963
    },
    {
      "buffer": 0,
      "byteOffset": 118896,
      "byteLength": 600,
      "target": 34962
    },
    {
      "buffer": 0,
      "byteOffset": 119496,
      "byteLength": 600,
      "target": 34962
    },
    {
      "buffer": 0,
      "byteOffset": 120096,
      "byteLength": 576,
      "target": 34963
    },
    {
      "buffer": 0,
      "byteOffset": 120672,
      "byteLength": 600,
      "target": 34962
    },
    {
      "buffer": 0,
      "byteOffset": 121272,
      "byteLength": 600,
      "target": 34962
    },
    {
      "buffer": 0,
      "byteOffset": 121872,
      "byteLength": 576,
      "target": 34963
    },
    {
      "buffer": 0,
      "byteOffset": 122448,
      "byteLength": 600,
      "target": 34962
    },
    {
      "buffer": 0,
      "byteOffset": 123048,
      "byteLength": 600,
      "target": 34962
    },
    {
      "buffer": 0,
      "byteOffset": 123648,
      "byteLength": 576,
      "target": 34963
    },
    {
      "buffer": 0,
      "byteOffset": 124224,
      "byteLength": 600,
      "target": 34962
    },
    {
      "buffer": 0,
      "byteOffset": 124824,
      "byteLength": 600,
      "target": 34962
    },
    {
      "buffer": 0,
      "byteOffset": 125424,
      "byteLength": 576,
      "target": 34963
    },
    {
      "buffer": 0,
      "byteOffset": 126000,
      "byteLength": 1152,
      "target": 34962
    },
    {
      "buffer": 0,
      "byteOffset": 127152,
      "byteLength": 1152,
      "target": 34962
    },
    {
      "buffer": 0,
      "byteOffset": 128304,
      "byteLength": 264,
      "target": 34963
    },
    {
      "buffer": 0,
      "byteOffset": 128568,
      "byteLength": 600,
      "target": 34962
    },
    {
      "buffer": 0,
      "byteOffset": 129168,
      "byteLength": 600,
      "target": 34962
    },
    {
      "buffer": 0,
      "byteOffset": 129768,
      "byteLength": 576,
      "target": 34963
    },
    {
      "buffer": 0,
      "byteOffset": 130344,
      "byteLength": 600,
      "target": 34962
    },
    {
      "buffer": 0,
      "byteOffset": 130944,
      "byteLength": 600,
      "target": 34962
    },
    {
      "buffer": 0,
      "byteOffset": 131544,
      "byteLength": 576,
      "target": 34963
    },
    {
      "buffer": 0,
      "byteOffset": 132120,
      "byteLength": 1152,
      "target": 34962
    },
    {
      "buffer": 0,
      "byteOffset": 133272,
      "byteLength": 1152,
      "target": 34962
    },
    {
      "buffer": 0,
      "byteOffset": 134424,
      "byteLength": 264,
      "target": 34963
    },
    {
      "buffer": 0,
      "byteOffset": 134688,
      "byteLength": 600,
      "target": 34962
    },
    {
      "buffer": 0,
      "byteOffset": 135288,
      "byteLength": 600,
      "target": 34962
    },
    {
      "buffer": 0,
      "byteOffset": 135888,
      "byteLength": 576,
      "target": 34963
    },
    {
      "buffer": 0,
      "byteOffset": 136464,
      "byteLength": 1152,
      "target": 34962
    },
    {
      "buffer": 0,
      "byteOffset": 137616,
      "byteLength": 1152,
      "target": 34962
    },
    {
      "buffer": 0,
      "byteOffset": 138768,
      "byteLength": 264,
      "target": 34963
    },
    {
      "buffer": 0,
      "byteOffset": 139032,
      "byteLength": 1152,
      "target": 34962
    },
    {
      "buffer": 0,
      "byteOffset": 140184,
      "byteLength": 1152,
      "target": 34962
    },
    {
      "buffer": 0,
      "byteOffset": 141336,
      "byteLength": 264,
      "target": 34963
    },
    {
      "buffer": 0,
      "byteOffset": 141600,
      "byteLength": 1152,
      "target": 34962
    },
    {
      "buffer": 0,
      "byteOffset": 142752,
      "byteLength": 1152,
      "target": 34962
    },
    {
      "buffer": 0,
      "byteOffset": 143904,
      "byteLength": 264,
      "target": 34963
    },
    {
      "buffer": 0,
      "byteOffset": 144168,
      "byteLength": 12
    },
    {
      "buffer": 0,
      "byteOffset": 144180,
      "byteLength": 36
    },
    {
      "buffer": 0,
      "byteOffset": 144216,
      "byteLength": 12
    },
    {
      "buffer": 0,
      "byteOffset": 144228,
      "byteLength": 48
    },
    {
      "buffer": 0,
      "byteOffset": 144276,
      "byteLength": 12
    },
    {
      "buffer": 0,
      "byteOffset": 144288,
      "byteLength": 48
    },
    {
      "buffer": 0,
      "byteOffset": 144336,
      "byteLength": 12
    },
    {
      "buffer": 0,
      "byteOffset": 144348,
      "byteLength": 48
    },
    {
      "buffer": 0,
      "byteOffset": 144396,
      "byteLength": 12
    },
    {
      "buffer": 0,
      "byteOffset": 144408,
      "byteLength": 48
    },
    {
      "buffer": 0,
      "byteOffset": 144456,
      "byteLength": 12
    },
    {
      "buffer": 0,
      "byteOffset": 144468,
      "byteLength": 48
    },
    {
      "buffer": 0,
      "byteOffset": 144516,
      "byteLength": 12
    },
    {
      "buffer": 0,
      "byteOffset": 144528,
      "byteLength": 48
    },
    {
      "buffer": 0,
      "byteOffset": 144576,
      "byteLength": 12
    },
    {
      "buffer": 0,
      "byteOffset": 144588,
      "byteLength": 48
    },
    {
      "buffer": 0,
      "byteOffset": 144636,
      "byteLength": 12
    },
    {
      "buffer": 0,
      "byteOffset": 144648,
      "byteLength": 48
    },
    {
      "buffer": 0,
      "byteOffset": 144696,
      "byteLength": 12
    },
    {
      "buffer": 0,
      "byteOffset": 144708,
      "byteLength": 48
    },
    {
      "buffer": 0,
      "byteOffset": 144756,
      "byteLength": 12
    },
    {
      "buffer": 0,
      "byteOffset": 144768,
      "byteLength": 48
    },
    {
      "buffer": 0,
      "byteOffset": 144816,
      "byteLength": 12
    },
    {
      "buffer": 0,
      "byteOffset": 144828,
      "byteLength": 48
    },
    {
      "buffer": 0,
      "byteOffset": 144876,
      "byteLength": 12
    },
    {
      "buffer": 0,
      "byteOffset": 144888,
      "byteLength": 48
    },
    {
      "buffer": 0,
      "byteOffset": 144936,
      "byteLength": 12
    },
    {
      "buffer": 0,
      "byteOffset": 144948,
      "byteLength": 48
    },
    {
      "buffer": 0,
      "byteOffset": 144996,
      "byteLength": 12
    },
    {
      "buffer": 0,
      "byteOffset": 145008,
      "byteLength": 48
    },
    {
      "buffer": 0,
      "byteOffset": 145056,
      "byteLength": 12
    },
    {
      "buffer": 0,
      "byteOffset": 145068,
      "byteLength": 48
    },
    {
      "buffer": 0,
      "byteOffset": 145116,
      "byteLength": 12
    },
    {
      "buffer": 0,
      "byteOffset": 145128,
      "byteLength": 48
    },
    {
      "buffer": 0,
      "byteOffset": 145176,
      "byteLength": 12
    },
    {
      "buffer": 0,
      "byteOffset": 145188,
      "byteLength": 48
    },
    {
      "buffer": 0,
      "byteOffset": 145236,
      "byteLength": 12
    },
    {
      "buffer": 0,
      "byteOffset": 145248,
      "byteLength": 48
    },
    {
      "buffer": 0,
      "byteOffset": 145296,
      "byteLength": 12
    },
    {
      "buffer": 0,
      "byteOffset": 145308,
      "byteLength": 48
    },
    {
      "buffer": 0,
      "byteOffset": 145356,
      "byteLength": 12
    },
    {
      "buffer": 0,
      "byteOffset": 145368,
      "byteLength": 36
    },
    {
      "buffer": 0,
      "byteOffset": 145404,
      "byteLength": 12
    },
    {
      "buffer": 0,
      "byteOffset": 145416,
      "byteLength": 48
    },
    {
      "buffer": 0,
      "byteOffset": 145464,
      "byteLength": 12
    },
    {
      "buffer": 0,
      "byteOffset": 145476,
      "byteLength": 48
    },
    {
      "buffer": 0,
      "byteOffset": 145524,
      "byteLength": 12
    },
    {
      "buffer": 0,
      "byteOffset": 145536,
      "byteLength": 48
    },
    {
      "buffer": 0,
      "byteOffset": 145584,
      "byteLength": 12
    },
    {
      "buffer": 0,
      "byteOffset": 145596,
      "byteLength": 48
    },
    {
      "buffer": 0,
      "byteOffset": 145644,
      "byteLength": 12
    },
    {
      "buffer": 0,
      "byteOffset": 145656,
      "byteLength": 48
    },
    {
      "buffer": 0,
      "byteOffset": 145704,
      "byteLength": 12
    },
    {
      "buffer": 0,
      "byteOffset": 145716,
      "byteLength": 48
    },
    {
      "buffer": 0,
      "byteOffset": 145764,
      "byteLength": 12
    },
    {
      "buffer": 0,
      "byteOffset": 145776,
      "byteLength": 48
    },
    {
      "buffer": 0,
      "byteOffset": 145824,
      "byteLength": 12
    },
    {
      "buffer": 0,
      "byteOffset": 145836,
      "byteLength": 48
    },
    {
      "buffer": 0,
      "byteOffset": 145884,
      "byteLength": 12
    },
    {
      "buffer": 0,
      "byteOffset": 145896,
      "byteLength": 48
    },
    {
      "buffer": 0,
      "byteOffset": 145944,
      "byteLength": 12
    },
    {
      "buffer": 0,
      "byteOffset": 145956,
      "byteLength": 36
    },
    {
      "buffer": 0,
      "byteOffset": 145992,
      "byteLength": 12
    },
    {
      "buffer": 0,
      "byteOffset": 146004,
      "byteLength": 48
    },
    {
      "buffer": 0,
      "byteOffset": 146052,
      "byteLength": 12
    },
    {
      "buffer": 0,
      "byteOffset": 146064,
      "byteLength": 48
    },
    {
      "buffer": 0,
      "byteOffset": 146112,
      "byteLength": 12
    },
    {
      "buffer": 0,
      "byteOffset": 146124,
      "byteLength": 48
    }
  ],
  "buffers": [
    {
      "byteLength": 146172,
      "uri": "data:application/octet-stream;base64,"
    }
  ],
  "animations": [
    {
      "name": "Idle",
      "samplers": [
        {
          "input": 81,
          "output": 82,
          "interpolation": "LINEAR"
        },
        {
          "input": 83,
          "output": 84,
          "interpolation": "LINEAR"
        },
        {
          "input": 85,
          "output": 86,
          "interpolation": "LINEAR"
        },
        {
          "input": 87,
          "output": 88,
          "interpolation": "LINEAR"
        },
        {
          "input": 89,
          "output": 90,
          "interpolation": "LINEAR"
        },
        {
          "input": 91,
          "output": 92,
          "interpolation": "LINEAR"
        }
      ],
      "channels": [
        {
          "sampler": 0,
          "target": {
            "node": 0,
            "path": "translation"
          }
        },
        {
          "sampler": 1,
          "target": {
            "node": 19,
            "path": "rotation"
          }
        },
        {
          "sampler": 2,
          "target": {
            "node": 25,
            "path": "rotation"
          }
        },
        {
          "sampler": 3,
          "target": {
            "node": 24,
            "path": "rotation"
          }
        },
        {
          "sampler": 4,
          "target": {
            "node": 35,
            "path": "rotation"
          }
        },
        {
          "sampler": 5,
          "target": {
            "node": 43,
            "path": "rotation"
          }
        }
      ]
    },
    {
      "name": "Walk",
      "samplers": [
        {
          "input": 93,
          "output": 94,
          "interpolation": "LINEAR"
        },
        {
          "input": 95,
          "output": 96,
          "interpolation": "LINEAR"
        },
        {
          "input": 97,
          "output": 98,
          "interpolation": "LINEAR"
        },
        {
          "input": 99,
          "output": 100,
          "interpolation": "LINEAR"
        },
        {
          "input": 101,
          "output": 102,
          "interpolation": "LINEAR"
        },
        {
          "input": 103,
          "output": 104,
          "interpolation": "LINEAR"
        },
        {
          "input": 105,
          "output": 106,
          "interpolation": "LINEAR"
        }
      ],
      "channels": [
        {
          "sampler": 0,
          "target": {
            "node": 16,
            "path": "rotation"
          }
        },
        {
          "sampler": 1,
          "target": {
            "node": 1,
            "path": "rotation"
          }
        },
        {
          "sampler": 2,
          "target": {
            "node": 21,
            "path": "rotation"
          }
        },
        {
          "sampler": 3,
          "target": {
            "node": 50,
            "path": "rotation"
          }
        },
        {
          "sampler": 4,
          "target": {
            "node": 51,
            "path": "rotation"
          }
        },
        {
          "sampler": 5,
          "target": {
            "node": 35,
            "path": "rotation"
          }
        },
        {
          "sampler": 6,
          "target": {
            "node": 43,
            "path": "rotation"
          }
        }
      ]
    },
    {
      "name": "Work",
      "samplers": [
        {
          "input": 107,
          "output": 108,
          "interpolation": "LINEAR"
        },
        {
          "input": 109,
          "output": 110,
          "interpolation": "LINEAR"
        },
        {
          "input": 111,
          "output": 112,
          "interpolation": "LINEAR"
        },
        {
          "input": 113,
          "output": 114,
          "interpolation": "LINEAR"
        },
        {
          "input": 115,
          "output": 116,
          "interpolation": "LINEAR"
        },
        {
          "input": 117,
          "output": 118,
          "interpolation": "LINEAR"
        },
        {
          "input": 119,
          "output": 120,
          "interpolation": "LINEAR"
        }
      ],
      "channels": [
        {
          "sampler": 0,
          "target": {
            "node": 40,
            "path": "rotation"
          }
        },
        {
          "sampler": 1,
          "target": {
            "node": 49,
            "path": "rotation"
          }
        },
        {
          "sampler": 2,
          "target": {
            "node": 25,
            "path": "rotation"
          }
        },
        {
          "sampler": 3,
          "target": {
            "node": 41,
            "path": "rotation"
          }
        },
        {
          "sampler": 4,
          "target": {
            "node": 35,
            "path": "rotation"
          }
        },
        {
          "sampler": 5,
          "target": {
            "node": 43,
            "path": "rotation"
          }
        },
        {
          "sampler": 6,
          "target": {
            "node": 48,
            "path": "rotation"
          }
        }
      ]
    },
    {
      "name": "Hit",
      "samplers": [
        {
          "input": 121,
          "output": 122,
          "interpolation": "LINEAR"
        },
        {
          "input": 123,
          "output": 124,
          "interpolation": "LINEAR"
        },
        {
          "input": 125,
          "output": 126,
          "interpolation": "LINEAR"
        },
        {
          "input": 127,
          "output": 128,
          "interpolation": "LINEAR"
        },
        {
          "input": 129,
          "output": 130,
          "interpolation": "LINEAR"
        }
      ],
      "channels": [
        {
          "sampler": 0,
          "target": {
            "node": 0,
            "path": "translation"
          }
        },
        {
          "sampler": 1,
          "target": {
            "node": 19,
            "path": "rotation"
          }
        },
        {
          "sampler": 2,
          "target": {
            "node": 47,
            "path": "rotation"
          }
        },
        {
          "sampler": 3,
          "target": {
            "node": 31,
            "path": "rotation"
          }
        },
        {
          "sampler": 4,
          "target": {
            "node": 39,
            "path": "rotation"
          }
        }
      ]
    },
    {
      "name": "Retreat",
      "samplers": [
        {
          "input": 131,
          "output": 132,
          "interpolation": "LINEAR"
        },
        {
          "input": 133,
          "output": 134,
          "interpolation": "LINEAR"
        },
        {
          "input": 135,
          "output": 136,
          "interpolation": "LINEAR"
        },
        {
          "input": 137,
          "output": 138,
          "interpolation": "LINEAR"
        },
        {
          "input": 139,
          "output": 140,
          "interpolation": "LINEAR"
        }
      ],
      "channels": [
        {
          "sampler": 0,
          "target": {
            "node": 0,
            "path": "rotation"
          }
        },
        {
          "sampler": 1,
          "target": {
            "node": 19,
            "path": "rotation"
          }
        },
        {
          "sampler": 2,
          "target": {
            "node": 35,
            "path": "rotation"
          }
        },
        {
          "sampler": 3,
          "target": {
            "node": 43,
            "path": "rotation"
          }
        },
        {
          "sampler": 4,
          "target": {
            "node": 24,
            "path": "rotation"
          }
        }
      ]
    },
    {
      "name": "Death",
      "samplers": [
        {
          "input": 141,
          "output": 142,
          "interpolation": "LINEAR"
        },
        {
          "input": 143,
          "output": 144,
          "interpolation": "LINEAR"
        },
        {
          "input": 145,
          "output": 146,
          "interpolation": "LINEAR"
        },
        {
          "input": 147,
          "output": 148,
          "interpolation": "LINEAR"
        }
      ],
      "channels": [
        {
          "sampler": 0,
          "target": {
            "node": 0,
            "path": "translation"
          }
        },
        {
          "sampler": 1,
          "target": {
            "node": 0,
            "path": "rotation"
          }
        },
        {
          "sampler": 2,
          "target": {
            "node": 48,
            "path": "rotation"
          }
        },
        {
          "sampler": 3,
          "target": {
            "node": 24,
            "path": "rotation"
          }
        }
      ]
    }
  ],
  "extras": {
    "ironwright_asset_id": "scrapper.salvager.v1",
    "required_nodes": [
      "ScrapperModel",
      "Sensor",
      "OpticLens",
      "CargoBin",
      "DismantlerTool",
      "SalvageDrum",
      "ScrapperIntake",
      "ScrapperHopperRim",
      "ScrapperDismantlerCollarLeft",
      "ScrapperMagnetCoilRight",
      "ScrapperCuttingGuard",
      "ProductionAssetMarker"
    ],
    "animation_clips": [
      "Idle",
      "Walk",
      "Work",
      "Hit",
      "Retreat",
      "Death"
    ]
  }
}
