{
  "asset": {
    "version": "2.0",
    "generator": "Project Ironwright original Skitterling asset builder"
  },
  "scene": 0,
  "scenes": [
    {
      "name": "Skitterling",
      "nodes": [
        0
      ]
    }
  ],
  "nodes": [
    {
      "name": "SkitterlingModel",
      "children": [
        1,
        23,
        24,
        25,
        26,
        27,
        28,
        29,
        30,
        31,
        32,
        33,
        34,
        35,
        36,
        37,
        38,
        39,
        40,
        41,
        42,
        43,
        44,
        45,
        46,
        47,
        48,
        49,
        50,
        51,
        52,
        53,
        54,
        55,
        56
      ],
      "extras": {
        "ironwright_asset_id": "skitterling.scavenger.v1",
        "asset_quality": "authored_high_definition",
        "socket_contract": "carapace, antennae, mandibles, sensory_fan, scavenger_eyes"
      }
    },
    {
      "name": "Torso",
      "translation": [
        0.0,
        0.0,
        0.0
      ],
      "extras": {
        "surface": "layered_scavenger_carapace"
      },
      "children": [
        2,
        3,
        4,
        5,
        6,
        7,
        8,
        9,
        10,
        11,
        12,
        13,
        14,
        15,
        16,
        17,
        18,
        19,
        20,
        21,
        22
      ]
    },
    {
      "name": "TorsoCore",
      "translation": [
        0.0,
        0.44,
        0.18
      ],
      "mesh": 0,
      "scale": [
        1.28,
        0.8,
        1.48
      ],
      "extras": {
        "release_material_family": "chitin"
      }
    },
    {
      "name": "TorsoSegment0",
      "translation": [
        0.0,
        0.47,
        -0.46
      ],
      "mesh": 1,
      "scale": [
        1.08,
        0.72,
        1.05
      ]
    },
    {
      "name": "SkitterlingCarapace0",
      "translation": [
        0.0,
        0.78,
        -0.46
      ],
      "mesh": 2,
      "rotation": [
        0.0,
        0.0,
        0.01999866669333308,
        0.9998000066665778
      ],
      "scale": [
        1.0,
        1.0,
        1.0
      ],
      "extras": {
        "surface": "shell_ridge"
      }
    },
    {
      "name": "SkitterlingCarapaceCap0",
      "translation": [
        0.0,
        0.87,
        -0.48000000000000004
      ],
      "mesh": 10,
      "rotation": [
        0.0,
        0.0,
        0.01999866669333308,
        0.9998000066665778
      ],
      "scale": [
        0.82,
        1.0,
        0.82
      ],
      "extras": {
        "surface": "shell_cap"
      }
    },
    {
      "name": "SkitterlingFastenerL0",
      "translation": [
        -0.32,
        0.68,
        -0.46
      ],
      "mesh": 9
    },
    {
      "name": "SkitterlingFastenerR0",
      "translation": [
        0.32,
        0.68,
        -0.46
      ],
      "mesh": 9
    },
    {
      "name": "TorsoSegment1",
      "translation": [
        0.0,
        0.47,
        -0.12
      ],
      "mesh": 1,
      "scale": [
        1.04,
        0.72,
        1.02
      ]
    },
    {
      "name": "SkitterlingCarapace1",
      "translation": [
        0.0,
        0.78,
        -0.12
      ],
      "mesh": 2,
      "rotation": [
        0.0,
        0.0,
        0.01999866669333308,
        0.9998000066665778
      ],
      "scale": [
        0.9299999999999999,
        1.0,
        1.0
      ],
      "extras": {
        "surface": "shell_ridge"
      }
    },
    {
      "name": "SkitterlingCarapaceCap1",
      "translation": [
        0.0,
        0.87,
        -0.13999999999999999
      ],
      "mesh": 10,
      "rotation": [
        0.0,
        0.0,
        0.01999866669333308,
        0.9998000066665778
      ],
      "scale": [
        0.7799999999999999,
        1.0,
        0.82
      ],
      "extras": {
        "surface": "shell_cap"
      }
    },
    {
      "name": "SkitterlingFastenerL1",
      "translation": [
        -0.32,
        0.68,
        -0.12
      ],
      "mesh": 9
    },
    {
      "name": "SkitterlingFastenerR1",
      "translation": [
        0.32,
        0.68,
        -0.12
      ],
      "mesh": 9
    },
    {
      "name": "TorsoSegment2",
      "translation": [
        0.0,
        0.47,
        0.22000000000000003
      ],
      "mesh": 1,
      "scale": [
        1.0,
        0.72,
        0.99
      ]
    },
    {
      "name": "SkitterlingCarapace2",
      "translation": [
        0.0,
        0.78,
        0.22000000000000003
      ],
      "mesh": 2,
      "rotation": [
        0.0,
        0.0,
        0.01999866669333308,
        0.9998000066665778
      ],
      "scale": [
        0.86,
        1.0,
        1.0
      ],
      "extras": {
        "surface": "shell_ridge"
      }
    },
    {
      "name": "SkitterlingCarapaceCap2",
      "translation": [
        0.0,
        0.87,
        0.20000000000000004
      ],
      "mesh": 10,
      "rotation": [
        0.0,
        0.0,
        0.01999866669333308,
        0.9998000066665778
      ],
      "scale": [
        0.74,
        1.0,
        0.82
      ],
      "extras": {
        "surface": "shell_cap"
      }
    },
    {
      "name": "SkitterlingFastenerL2",
      "translation": [
        -0.32,
        0.68,
        0.22000000000000003
      ],
      "mesh": 9
    },
    {
      "name": "SkitterlingFastenerR2",
      "translation": [
        0.32,
        0.68,
        0.22000000000000003
      ],
      "mesh": 9
    },
    {
      "name": "TorsoSegment3",
      "translation": [
        0.0,
        0.47,
        0.56
      ],
      "mesh": 1,
      "scale": [
        0.9600000000000001,
        0.72,
        0.9600000000000001
      ]
    },
    {
      "name": "SkitterlingCarapace3",
      "translation": [
        0.0,
        0.78,
        0.56
      ],
      "mesh": 2,
      "rotation": [
        0.0,
        0.0,
        0.01999866669333308,
        0.9998000066665778
      ],
      "scale": [
        0.79,
        1.0,
        1.0
      ],
      "extras": {
        "surface": "shell_ridge"
      }
    },
    {
      "name": "SkitterlingCarapaceCap3",
      "translation": [
        0.0,
        0.87,
        0.54
      ],
      "mesh": 10,
      "rotation": [
        0.0,
        0.0,
        0.01999866669333308,
        0.9998000066665778
      ],
      "scale": [
        0.7,
        1.0,
        0.82
      ],
      "extras": {
        "surface": "shell_cap"
      }
    },
    {
      "name": "SkitterlingFastenerL3",
      "translation": [
        -0.32,
        0.68,
        0.56
      ],
      "mesh": 9
    },
    {
      "name": "SkitterlingFastenerR3",
      "translation": [
        0.32,
        0.68,
        0.56
      ],
      "mesh": 9
    },
    {
      "name": "OrganicDorsalPlate",
      "translation": [
        -0.1,
        0.92,
        0.18
      ],
      "mesh": 2,
      "scale": [
        1.1,
        0.9,
        1.2
      ],
      "extras": {
        "surface": "layered_shell_break"
      }
    },
    {
      "name": "SkitterlingEyeL",
      "translation": [
        -0.16,
        0.8,
        -0.92
      ],
      "mesh": 5,
      "extras": {
        "socket_type": "scavenger_eye"
      }
    },
    {
      "name": "SkitterlingAntennaL",
      "translation": [
        -0.2,
        0.74,
        -0.82
      ],
      "mesh": 3,
      "rotation": [
        0.2752371634707313,
        -0.024838444755617948,
        -0.08637826849423069,
        0.9571657903616524
      ],
      "extras": {
        "socket_type": "antenna"
      }
    },
    {
      "name": "SkitterlingAntennaJointL",
      "translation": [
        -0.2,
        0.76,
        -0.84
      ],
      "mesh": 9,
      "extras": {
        "surface": "antenna_socket"
      }
    },
    {
      "name": "SkitterlingMandibleL",
      "translation": [
        -0.18,
        0.42,
        -1.02
      ],
      "mesh": 4,
      "rotation": [
        0.38706473599387153,
        -0.042749683933472955,
        -0.10111251088903599,
        0.9154941915792242
      ],
      "extras": {
        "socket_type": "mandible"
      }
    },
    {
      "name": "SkitterlingMandiblePlateL",
      "translation": [
        -0.2,
        0.5,
        -1.0
      ],
      "mesh": 10,
      "rotation": [
        0.38706473599387153,
        -0.042749683933472955,
        -0.10111251088903599,
        0.9154941915792242
      ],
      "scale": [
        0.58,
        1.0,
        0.7
      ],
      "extras": {
        "surface": "mandible_plate"
      }
    },
    {
      "name": "SkitterlingEyeR",
      "translation": [
        0.16,
        0.8,
        -0.92
      ],
      "mesh": 5,
      "extras": {
        "socket_type": "scavenger_eye"
      }
    },
    {
      "name": "SkitterlingAntennaR",
      "translation": [
        0.2,
        0.74,
        -0.82
      ],
      "mesh": 3,
      "rotation": [
        0.2752371634707313,
        0.024838444755617948,
        0.08637826849423069,
        0.9571657903616524
      ],
      "extras": {
        "socket_type": "antenna"
      }
    },
    {
      "name": "SkitterlingAntennaJointR",
      "translation": [
        0.2,
        0.76,
        -0.84
      ],
      "mesh": 9,
      "extras": {
        "surface": "antenna_socket"
      }
    },
    {
      "name": "SkitterlingMandibleR",
      "translation": [
        0.18,
        0.42,
        -1.02
      ],
      "mesh": 4,
      "rotation": [
        0.38706473599387153,
        0.042749683933472955,
        0.10111251088903599,
        0.9154941915792242
      ],
      "extras": {
        "socket_type": "mandible"
      }
    },
    {
      "name": "SkitterlingMandiblePlateR",
      "translation": [
        0.2,
        0.5,
        -1.0
      ],
      "mesh": 10,
      "rotation": [
        0.38706473599387153,
        0.042749683933472955,
        0.10111251088903599,
        0.9154941915792242
      ],
      "scale": [
        0.58,
        1.0,
        0.7
      ],
      "extras": {
        "surface": "mandible_plate"
      }
    },
    {
      "name": "SkitterlingSensoryFan0",
      "translation": [
        -0.06,
        0.92,
        0.24
      ],
      "mesh": 8,
      "rotation": [
        -0.006582746742702769,
        -0.059601589898158835,
        -0.10958075916883718,
        0.9921675136522635
      ],
      "scale": [
        1.0,
        1.0,
        1.0
      ],
      "extras": {
        "surface": "sensory_membrane"
      }
    },
    {
      "name": "SkitterlingSensoryRib0",
      "translation": [
        -0.14,
        0.95,
        0.24
      ],
      "mesh": 11,
      "rotation": [
        -0.009866714412668072,
        -0.08933533205086405,
        -0.10933399874419715,
        0.9899332922539097
      ],
      "extras": {
        "surface": "sensory_rib"
      }
    },
    {
      "name": "SkitterlingSensoryFan1",
      "translation": [
        0.12,
        0.92,
        0.4
      ],
      "mesh": 8,
      "rotation": [
        -0.008960909143923003,
        0.05929067532404425,
        0.1491692245220553,
        0.9869918238680713
      ],
      "scale": [
        1.0,
        1.1400000000000001,
        1.0
      ],
      "extras": {
        "surface": "sensory_membrane"
      }
    },
    {
      "name": "SkitterlingSensoryRib1",
      "translation": [
        0.2,
        0.95,
        0.4
      ],
      "mesh": 11,
      "rotation": [
        -0.013431282541587278,
        0.08886930997384498,
        0.1488333164532896,
        0.9847692573936169
      ],
      "extras": {
        "surface": "sensory_rib"
      }
    },
    {
      "name": "SkitterlingSensoryFan2",
      "translation": [
        -0.18,
        0.92,
        0.56
      ],
      "mesh": 8,
      "rotation": [
        -0.011324736002071626,
        -0.05888490831741403,
        -0.18851905093710888,
        0.9802371577127165
      ],
      "scale": [
        1.0,
        1.28,
        1.0
      ],
      "extras": {
        "surface": "sensory_membrane"
      }
    },
    {
      "name": "SkitterlingSensoryRib2",
      "translation": [
        -0.26,
        0.95,
        0.56
      ],
      "mesh": 11,
      "rotation": [
        -0.016974363483627408,
        -0.08826111595864278,
        -0.18809453260547093,
        0.9780298017943984
      ],
      "extras": {
        "surface": "sensory_rib"
      }
    },
    {
      "name": "SkitterlingLegL0",
      "translation": [
        -0.38,
        0.28,
        -0.4
      ],
      "mesh": 6,
      "rotation": [
        0.0,
        0.0,
        -0.3801884151231614,
        0.924909059857313
      ]
    },
    {
      "name": "SkitterlingClawL0",
      "translation": [
        -0.62,
        0.08,
        -0.42000000000000004
      ],
      "mesh": 7,
      "rotation": [
        0.0,
        0.0,
        -0.16918234906699603,
        0.9855847669095608
      ]
    },
    {
      "name": "SkitterlingLegL1",
      "translation": [
        -0.4,
        0.28,
        -0.12
      ],
      "mesh": 6,
      "rotation": [
        0.0,
        0.0,
        -0.3801884151231614,
        0.924909059857313
      ]
    },
    {
      "name": "SkitterlingClawL1",
      "translation": [
        -0.62,
        0.08,
        -0.13999999999999999
      ],
      "mesh": 7,
      "rotation": [
        0.0,
        0.0,
        -0.16918234906699603,
        0.9855847669095608
      ]
    },
    {
      "name": "SkitterlingLegL2",
      "translation": [
        -0.42,
        0.28,
        0.16000000000000003
      ],
      "mesh": 6,
      "rotation": [
        0.0,
        0.0,
        -0.3801884151231614,
        0.924909059857313
      ]
    },
    {
      "name": "SkitterlingClawL2",
      "translation": [
        -0.62,
        0.08,
        0.14000000000000004
      ],
      "mesh": 7,
      "rotation": [
        0.0,
        0.0,
        -0.16918234906699603,
        0.9855847669095608
      ]
    },
    {
      "name": "SkitterlingLegL3",
      "translation": [
        -0.44,
        0.28,
        0.44000000000000006
      ],
      "mesh": 6,
      "rotation": [
        0.0,
        0.0,
        -0.3801884151231614,
        0.924909059857313
      ]
    },
    {
      "name": "SkitterlingClawL3",
      "translation": [
        -0.62,
        0.08,
        0.42000000000000004
      ],
      "mesh": 7,
      "rotation": [
        0.0,
        0.0,
        -0.16918234906699603,
        0.9855847669095608
      ]
    },
    {
      "name": "SkitterlingLegR0",
      "translation": [
        0.38,
        0.28,
        -0.4
      ],
      "mesh": 6,
      "rotation": [
        0.0,
        0.0,
        0.3801884151231614,
        0.924909059857313
      ]
    },
    {
      "name": "SkitterlingClawR0",
      "translation": [
        0.62,
        0.08,
        -0.42000000000000004
      ],
      "mesh": 7,
      "rotation": [
        0.0,
        0.0,
        0.16918234906699603,
        0.9855847669095608
      ]
    },
    {
      "name": "SkitterlingLegR1",
      "translation": [
        0.4,
        0.28,
        -0.12
      ],
      "mesh": 6,
      "rotation": [
        0.0,
        0.0,
        0.3801884151231614,
        0.924909059857313
      ]
    },
    {
      "name": "SkitterlingClawR1",
      "translation": [
        0.62,
        0.08,
        -0.13999999999999999
      ],
      "mesh": 7,
      "rotation": [
        0.0,
        0.0,
        0.16918234906699603,
        0.9855847669095608
      ]
    },
    {
      "name": "SkitterlingLegR2",
      "translation": [
        0.42,
        0.28,
        0.16000000000000003
      ],
      "mesh": 6,
      "rotation": [
        0.0,
        0.0,
        0.3801884151231614,
        0.924909059857313
      ]
    },
    {
      "name": "SkitterlingClawR2",
      "translation": [
        0.62,
        0.08,
        0.14000000000000004
      ],
      "mesh": 7,
      "rotation": [
        0.0,
        0.0,
        0.16918234906699603,
        0.9855847669095608
      ]
    },
    {
      "name": "SkitterlingLegR3",
      "translation": [
        0.44,
        0.28,
        0.44000000000000006
      ],
      "mesh": 6,
      "rotation": [
        0.0,
        0.0,
        0.3801884151231614,
        0.924909059857313
      ]
    },
    {
      "name": "SkitterlingClawR3",
      "translation": [
        0.62,
        0.08,
        0.42000000000000004
      ],
      "mesh": 7,
      "rotation": [
        0.0,
        0.0,
        0.16918234906699603,
        0.9855847669095608
      ]
    },
    {
      "name": "ProductionAssetMarker",
      "translation": [
        0.0,
        0.0,
        0.0
      ],
      "extras": {
        "asset_contract": "skitterling.scavenger.v1",
        "source": "original_shared_mesh_builder"
      }
    }
  ],
  "meshes": [
    {
      "name": "Core",
      "primitives": [
        {
          "attributes": {
            "POSITION": 0,
            "NORMAL": 1
          },
          "indices": 2,
          "material": 0
        }
      ]
    },
    {
      "name": "Segment",
      "primitives": [
        {
          "attributes": {
            "POSITION": 3,
            "NORMAL": 4
          },
          "indices": 5,
          "material": 1
        }
      ]
    },
    {
      "name": "Ridge",
      "primitives": [
        {
          "attributes": {
            "POSITION": 6,
            "NORMAL": 7
          },
          "indices": 8,
          "material": 1
        }
      ]
    },
    {
      "name": "Antenna",
      "primitives": [
        {
          "attributes": {
            "POSITION": 9,
            "NORMAL": 10
          },
          "indices": 11,
          "material": 2
        }
      ]
    },
    {
      "name": "Mandible",
      "primitives": [
        {
          "attributes": {
            "POSITION": 12,
            "NORMAL": 13
          },
          "indices": 14,
          "material": 3
        }
      ]
    },
    {
      "name": "Eye",
      "primitives": [
        {
          "attributes": {
            "POSITION": 15,
            "NORMAL": 16
          },
          "indices": 17,
          "material": 4
        }
      ]
    },
    {
      "name": "Leg",
      "primitives": [
        {
          "attributes": {
            "POSITION": 18,
            "NORMAL": 19
          },
          "indices": 20,
          "material": 2
        }
      ]
    },
    {
      "name": "Claw",
      "primitives": [
        {
          "attributes": {
            "POSITION": 21,
            "NORMAL": 22
          },
          "indices": 23,
          "material": 3
        }
      ]
    },
    {
      "name": "Fan",
      "primitives": [
        {
          "attributes": {
            "POSITION": 24,
            "NORMAL": 25
          },
          "indices": 26,
          "material": 5
        }
      ]
    },
    {
      "name": "Fastener",
      "primitives": [
        {
          "attributes": {
            "POSITION": 27,
            "NORMAL": 28
          },
          "indices": 29,
          "material": 3
        }
      ]
    },
    {
      "name": "CarapaceCap",
      "primitives": [
        {
          "attributes": {
            "POSITION": 30,
            "NORMAL": 31
          },
          "indices": 32,
          "material": 1
        }
      ]
    },
    {
      "name": "SensoryRib",
      "primitives": [
        {
          "attributes": {
            "POSITION": 33,
            "NORMAL": 34
          },
          "indices": 35,
          "material": 3
        }
      ]
    }
  ],
  "materials": [
    {
      "name": "Skitterling wet carapace",
      "pbrMetallicRoughness": {
        "baseColorFactor": [
          0.055,
          0.07,
          0.072,
          1.0
        ],
        "metallicFactor": 0.24,
        "roughnessFactor": 0.3
      }
    },
    {
      "name": "Skitterling shell ridge",
      "pbrMetallicRoughness": {
        "baseColorFactor": [
          0.2,
          0.22,
          0.19,
          1.0
        ],
        "metallicFactor": 0.14,
        "roughnessFactor": 0.4
      }
    },
    {
      "name": "Skitterling tendon",
      "pbrMetallicRoughness": {
        "baseColorFactor": [
          0.27,
          0.065,
          0.08,
          1.0
        ],
        "metallicFactor": 0.0,
        "roughnessFactor": 0.52
      }
    },
    {
      "name": "Skitterling bone",
      "pbrMetallicRoughness": {
        "baseColorFactor": [
          0.5,
          0.41,
          0.28,
          1.0
        ],
        "metallicFactor": 0.0,
        "roughnessFactor": 0.58
      }
    },
    {
      "name": "Skitterling scavenger eye",
      "pbrMetallicRoughness": {
        "baseColorFactor": [
          0.42,
          0.16,
          0.02,
          1.0
        ],
        "metallicFactor": 0.0,
        "roughnessFactor": 0.2
      },
      "emissiveFactor": [
        1.0,
        0.13,
        0.015
      ]
    },
    {
      "name": "Skitterling membrane",
      "pbrMetallicRoughness": {
        "baseColorFactor": [
          0.14,
          0.025,
          0.06,
          0.82
        ],
        "metallicFactor": 0.0,
        "roughnessFactor": 0.38
      },
      "emissiveFactor": [
        0.035,
        0.001,
        0.01
      ]
    }
  ],
  "accessors": [
    {
      "bufferView": 0,
      "componentType": 5126,
      "count": 672,
      "type": "VEC3",
      "min": [
        -0.38,
        -0.38,
        -0.38
      ],
      "max": [
        0.38,
        0.38,
        0.38
      ]
    },
    {
      "bufferView": 1,
      "componentType": 5126,
      "count": 672,
      "type": "VEC3"
    },
    {
      "bufferView": 2,
      "componentType": 5123,
      "count": 3840,
      "type": "SCALAR",
      "normalized": false
    },
    {
      "bufferView": 3,
      "componentType": 5126,
      "count": 532,
      "type": "VEC3",
      "min": [
        -0.3,
        -0.3,
        -0.3
      ],
      "max": [
        0.3,
        0.3,
        0.3
      ]
    },
    {
      "bufferView": 4,
      "componentType": 5126,
      "count": 532,
      "type": "VEC3"
    },
    {
      "bufferView": 5,
      "componentType": 5123,
      "count": 3024,
      "type": "SCALAR",
      "normalized": false
    },
    {
      "bufferView": 6,
      "componentType": 5126,
      "count": 24,
      "type": "VEC3",
      "min": [
        -0.36,
        -0.06,
        -0.09
      ],
      "max": [
        0.36,
        0.06,
        0.09
      ]
    },
    {
      "bufferView": 7,
      "componentType": 5126,
      "count": 24,
      "type": "VEC3"
    },
    {
      "bufferView": 8,
      "componentType": 5123,
      "count": 36,
      "type": "SCALAR",
      "normalized": false
    },
    {
      "bufferView": 9,
      "componentType": 5126,
      "count": 34,
      "type": "VEC3",
      "min": [
        -0.035,
        -0.36,
        -0.035
      ],
      "max": [
        0.035,
        0.36,
        0.035
      ]
    },
    {
      "bufferView": 10,
      "componentType": 5126,
      "count": 34,
      "type": "VEC3"
    },
    {
      "bufferView": 11,
      "componentType": 5123,
      "count": 192,
      "type": "SCALAR",
      "normalized": false
    },
    {
      "bufferView": 12,
      "componentType": 5126,
      "count": 34,
      "type": "VEC3",
      "min": [
        -0.045,
        -0.28,
        -0.045
      ],
      "max": [
        0.045,
        0.28,
        0.045
      ]
    },
    {
      "bufferView": 13,
      "componentType": 5126,
      "count": 34,
      "type": "VEC3"
    },
    {
      "bufferView": 14,
      "componentType": 5123,
      "count": 192,
      "type": "SCALAR",
      "normalized": false
    },
    {
      "bufferView": 15,
      "componentType": 5126,
      "count": 330,
      "type": "VEC3",
      "min": [
        -0.065,
        -0.065,
        -0.06433839372226063
      ],
      "max": [
        0.065,
        0.065,
        0.06433839372226063
      ]
    },
    {
      "bufferView": 16,
      "componentType": 5126,
      "count": 330,
      "type": "VEC3"
    },
    {
      "bufferView": 17,
      "componentType": 5123,
      "count": 1848,
      "type": "SCALAR",
      "normalized": false
    },
    {
      "bufferView": 18,
      "componentType": 5126,
      "count": 34,
      "type": "VEC3",
      "min": [
        -0.06,
        -0.39,
        -0.06
      ],
      "max": [
        0.06,
        0.39,
        0.06
      ]
    },
    {
      "bufferView": 19,
      "componentType": 5126,
      "count": 34,
      "type": "VEC3"
    },
    {
      "bufferView": 20,
      "componentType": 5123,
      "count": 192,
      "type": "SCALAR",
      "normalized": false
    },
    {
      "bufferView": 21,
      "componentType": 5126,
      "count": 34,
      "type": "VEC3",
      "min": [
        -0.04,
        -0.21,
        -0.04
      ],
      "max": [
        0.04,
        0.21,
        0.04
      ]
    },
    {
      "bufferView": 22,
      "componentType": 5126,
      "count": 34,
      "type": "VEC3"
    },
    {
      "bufferView": 23,
      "componentType": 5123,
      "count": 192,
      "type": "SCALAR",
      "normalized": false
    },
    {
      "bufferView": 24,
      "componentType": 5126,
      "count": 24,
      "type": "VEC3",
      "min": [
        -0.04,
        -0.21,
        -0.17
      ],
      "max": [
        0.04,
        0.21,
        0.17
      ]
    },
    {
      "bufferView": 25,
      "componentType": 5126,
      "count": 24,
      "type": "VEC3"
    },
    {
      "bufferView": 26,
      "componentType": 5123,
      "count": 36,
      "type": "SCALAR",
      "normalized": false
    },
    {
      "bufferView": 27,
      "componentType": 5126,
      "count": 176,
      "type": "VEC3",
      "min": [
        -0.03,
        -0.03,
        -0.03
      ],
      "max": [
        0.03,
        0.03,
        0.03
      ]
    },
    {
      "bufferView": 28,
      "componentType": 5126,
      "count": 176,
      "type": "VEC3"
    },
    {
      "bufferView": 29,
      "componentType": 5123,
      "count": 960,
      "type": "SCALAR",
      "normalized": false
    },
    {
      "bufferView": 30,
      "componentType": 5126,
      "count": 24,
      "type": "VEC3",
      "min": [
        -0.21,
        -0.04,
        -0.07
      ],
      "max": [
        0.21,
        0.04,
        0.07
      ]
    },
    {
      "bufferView": 31,
      "componentType": 5126,
      "count": 24,
      "type": "VEC3"
    },
    {
      "bufferView": 32,
      "componentType": 5123,
      "count": 36,
      "type": "SCALAR",
      "normalized": false
    },
    {
      "bufferView": 33,
      "componentType": 5126,
      "count": 30,
      "type": "VEC3",
      "min": [
        -0.022,
        -0.23,
        -0.021448414068000122
      ],
      "max": [
        0.022,
        0.23,
        0.02144841406800012
      ]
    },
    {
      "bufferView": 34,
      "componentType": 5126,
      "count": 30,
      "type": "VEC3"
    },
    {
      "bufferView": 35,
      "componentType": 5123,
      "count": 168,
      "type": "SCALAR",
      "normalized": false
    },
    {
      "bufferView": 36,
      "componentType": 5126,
      "count": 3,
      "type": "SCALAR",
      "min": [
        0.0
      ],
      "max": [
        1.4
      ]
    },
    {
      "bufferView": 37,
      "componentType": 5126,
      "count": 3,
      "type": "VEC3"
    },
    {
      "bufferView": 38,
      "componentType": 5126,
      "count": 3,
      "type": "SCALAR",
      "min": [
        0.0
      ],
      "max": [
        0.36
      ]
    },
    {
      "bufferView": 39,
      "componentType": 5126,
      "count": 3,
      "type": "VEC4"
    },
    {
      "bufferView": 40,
      "componentType": 5126,
      "count": 3,
      "type": "SCALAR",
      "min": [
        0.0
      ],
      "max": [
        0.4
      ]
    },
    {
      "bufferView": 41,
      "componentType": 5126,
      "count": 3,
      "type": "VEC3"
    }
  ],
  "bufferViews": [
    {
      "buffer": 0,
      "byteOffset": 0,
      "byteLength": 8064,
      "target": 34962
    },
    {
      "buffer": 0,
      "byteOffset": 8064,
      "byteLength": 8064,
      "target": 34962
    },
    {
      "buffer": 0,
      "byteOffset": 16128,
      "byteLength": 7680,
      "target": 34963
    },
    {
      "buffer": 0,
      "byteOffset": 23808,
      "byteLength": 6384,
      "target": 34962
    },
    {
      "buffer": 0,
      "byteOffset": 30192,
      "byteLength": 6384,
      "target": 34962
    },
    {
      "buffer": 0,
      "byteOffset": 36576,
      "byteLength": 6048,
      "target": 34963
    },
    {
      "buffer": 0,
      "byteOffset": 42624,
      "byteLength": 288,
      "target": 34962
    },
    {
      "buffer": 0,
      "byteOffset": 42912,
      "byteLength": 288,
      "target": 34962
    },
    {
      "buffer": 0,
      "byteOffset": 43200,
      "byteLength": 72,
      "target": 34963
    },
    {
      "buffer": 0,
      "byteOffset": 43272,
      "byteLength": 408,
      "target": 34962
    },
    {
      "buffer": 0,
      "byteOffset": 43680,
      "byteLength": 408,
      "target": 34962
    },
    {
      "buffer": 0,
      "byteOffset": 44088,
      "byteLength": 384,
      "target": 34963
    },
    {
      "buffer": 0,
      "byteOffset": 44472,
      "byteLength": 408,
      "target": 34962
    },
    {
      "buffer": 0,
      "byteOffset": 44880,
      "byteLength": 408,
      "target": 34962
    },
    {
      "buffer": 0,
      "byteOffset": 45288,
      "byteLength": 384,
      "target": 34963
    },
    {
      "buffer": 0,
      "byteOffset": 45672,
      "byteLength": 3960,
      "target": 34962
    },
    {
      "buffer": 0,
      "byteOffset": 49632,
      "byteLength": 3960,
      "target": 34962
    },
    {
      "buffer": 0,
      "byteOffset": 53592,
      "byteLength": 3696,
      "target": 34963
    },
    {
      "buffer": 0,
      "byteOffset": 57288,
      "byteLength": 408,
      "target": 34962
    },
    {
      "buffer": 0,
      "byteOffset": 57696,
      "byteLength": 408,
      "target": 34962
    },
    {
      "buffer": 0,
      "byteOffset": 58104,
      "byteLength": 384,
      "target": 34963
    },
    {
      "buffer": 0,
      "byteOffset": 58488,
      "byteLength": 408,
      "target": 34962
    },
    {
      "buffer": 0,
      "byteOffset": 58896,
      "byteLength": 408,
      "target": 34962
    },
    {
      "buffer": 0,
      "byteOffset": 59304,
      "byteLength": 384,
      "target": 34963
    },
    {
      "buffer": 0,
      "byteOffset": 59688,
      "byteLength": 288,
      "target": 34962
    },
    {
      "buffer": 0,
      "byteOffset": 59976,
      "byteLength": 288,
      "target": 34962
    },
    {
      "buffer": 0,
      "byteOffset": 60264,
      "byteLength": 72,
      "target": 34963
    },
    {
      "buffer": 0,
      "byteOffset": 60336,
      "byteLength": 2112,
      "target": 34962
    },
    {
      "buffer": 0,
      "byteOffset": 62448,
      "byteLength": 2112,
      "target": 34962
    },
    {
      "buffer": 0,
      "byteOffset": 64560,
      "byteLength": 1920,
      "target": 34963
    },
    {
      "buffer": 0,
      "byteOffset": 66480,
      "byteLength": 288,
      "target": 34962
    },
    {
      "buffer": 0,
      "byteOffset": 66768,
      "byteLength": 288,
      "target": 34962
    },
    {
      "buffer": 0,
      "byteOffset": 67056,
      "byteLength": 72,
      "target": 34963
    },
    {
      "buffer": 0,
      "byteOffset": 67128,
      "byteLength": 360,
      "target": 34962
    },
    {
      "buffer": 0,
      "byteOffset": 67488,
      "byteLength": 360,
      "target": 34962
    },
    {
      "buffer": 0,
      "byteOffset": 67848,
      "byteLength": 336,
      "target": 34963
    },
    {
      "buffer": 0,
      "byteOffset": 68184,
      "byteLength": 12
    },
    {
      "buffer": 0,
      "byteOffset": 68196,
      "byteLength": 36
    },
    {
      "buffer": 0,
      "byteOffset": 68232,
      "byteLength": 12
    },
    {
      "buffer": 0,
      "byteOffset": 68244,
      "byteLength": 48
    },
    {
      "buffer": 0,
      "byteOffset": 68292,
      "byteLength": 12
    },
    {
      "buffer": 0,
      "byteOffset": 68304,
      "byteLength": 36
    }
  ],
  "buffers": [
    {
      "byteLength": 68340,
      "uri": "data:application/octet-stream;base64,"
    }
  ],
  "animations": [
    {
      "name": "Idle",
      "samplers": [
        {
          "input": 36,
          "output": 37,
          "interpolation": "LINEAR"
        }
      ],
      "channels": [
        {
          "sampler": 0,
          "target": {
            "node": 0,
            "path": "translation"
          }
        }
      ]
    },
    {
      "name": "Walk",
      "samplers": [
        {
          "input": 38,
          "output": 39,
          "interpolation": "LINEAR"
        }
      ],
      "channels": [
        {
          "sampler": 0,
          "target": {
            "node": 40,
            "path": "rotation"
          }
        }
      ]
    },
    {
      "name": "Attack",
      "samplers": [
        {
          "input": 40,
          "output": 41,
          "interpolation": "LINEAR"
        }
      ],
      "channels": [
        {
          "sampler": 0,
          "target": {
            "node": 27,
            "path": "translation"
          }
        }
      ]
    }
  ],
  "extras": {
    "ironwright_asset_id": "skitterling.scavenger.v1",
    "required_nodes": [
      "SkitterlingModel",
      "Torso",
      "TorsoCore",
      "OrganicDorsalPlate",
      "SkitterlingCarapace0",
      "SkitterlingCarapaceCap0",
      "SkitterlingAntennaL",
      "SkitterlingAntennaJointL",
      "SkitterlingMandibleL",
      "SkitterlingMandiblePlateL",
      "SkitterlingSensoryFan0",
      "ProductionAssetMarker"
    ],
    "animation_clips": [
      "Idle",
      "Walk",
      "Attack"
    ]
  }
}
