{
  "asset": {
    "version": "2.0",
    "generator": "Project Ironwright original Burrower asset builder"
  },
  "scene": 0,
  "scenes": [
    {
      "name": "Burrower",
      "nodes": [
        0
      ]
    }
  ],
  "nodes": [
    {
      "name": "BurrowerModel",
      "children": [
        1,
        19,
        20,
        27,
        29,
        30,
        31,
        32,
        33,
        34,
        35,
        36,
        37,
        38,
        39,
        40,
        41,
        42,
        43,
        44,
        45,
        46,
        47,
        48,
        49
      ],
      "extras": {
        "ironwright_asset_id": "burrower.drill.v1",
        "asset_quality": "authored_high_definition",
        "socket_contract": "drill, bore_tip, drill_rings, lamps, fins"
      }
    },
    {
      "name": "Torso",
      "translation": [
        0.0,
        0.0,
        0.0
      ],
      "extras": {
        "surface": "layered_burrow_shell"
      },
      "children": [
        2,
        3,
        4,
        5,
        6,
        7,
        8,
        9,
        10,
        11,
        12,
        13,
        14,
        15,
        16,
        17,
        18
      ]
    },
    {
      "name": "TorsoCore",
      "translation": [
        0.0,
        0.72,
        0.26
      ],
      "mesh": 0,
      "scale": [
        1.42,
        0.72,
        1.7
      ],
      "extras": {
        "release_material_family": "chitin"
      }
    },
    {
      "name": "TorsoSegment0",
      "translation": [
        0.0,
        0.74,
        -0.62
      ],
      "mesh": 1,
      "scale": [
        1.24,
        0.72,
        1.32
      ]
    },
    {
      "name": "BurrowerThoraxRib0",
      "translation": [
        0.0,
        1.16,
        -0.62
      ],
      "mesh": 6,
      "rotation": [
        0.0,
        0.0,
        0.03998933418663416,
        0.9992001066609779
      ],
      "scale": [
        5.0,
        0.64,
        1.1
      ]
    },
    {
      "name": "BurrowerFastenerL0",
      "translation": [
        -0.56,
        1.04,
        -0.62
      ],
      "mesh": 11
    },
    {
      "name": "BurrowerFastenerR0",
      "translation": [
        0.56,
        1.04,
        -0.62
      ],
      "mesh": 11
    },
    {
      "name": "TorsoSegment1",
      "translation": [
        0.0,
        0.74,
        -0.07999999999999996
      ],
      "mesh": 1,
      "scale": [
        1.18,
        0.72,
        1.28
      ]
    },
    {
      "name": "BurrowerThoraxRib1",
      "translation": [
        0.0,
        1.16,
        -0.07999999999999996
      ],
      "mesh": 6,
      "rotation": [
        0.0,
        0.0,
        0.03998933418663416,
        0.9992001066609779
      ],
      "scale": [
        5.0,
        0.64,
        1.1
      ]
    },
    {
      "name": "BurrowerFastenerL1",
      "translation": [
        -0.56,
        1.04,
        -0.07999999999999996
      ],
      "mesh": 11
    },
    {
      "name": "BurrowerFastenerR1",
      "translation": [
        0.56,
        1.04,
        -0.07999999999999996
      ],
      "mesh": 11
    },
    {
      "name": "TorsoSegment2",
      "translation": [
        0.0,
        0.74,
        0.4600000000000001
      ],
      "mesh": 1,
      "scale": [
        1.12,
        0.72,
        1.24
      ]
    },
    {
      "name": "BurrowerThoraxRib2",
      "translation": [
        0.0,
        1.16,
        0.4600000000000001
      ],
      "mesh": 6,
      "rotation": [
        0.0,
        0.0,
        0.03998933418663416,
        0.9992001066609779
      ],
      "scale": [
        5.0,
        0.64,
        1.1
      ]
    },
    {
      "name": "BurrowerFastenerL2",
      "translation": [
        -0.56,
        1.04,
        0.4600000000000001
      ],
      "mesh": 11
    },
    {
      "name": "BurrowerFastenerR2",
      "translation": [
        0.56,
        1.04,
        0.4600000000000001
      ],
      "mesh": 11
    },
    {
      "name": "TorsoSegment3",
      "translation": [
        0.0,
        0.74,
        1.0
      ],
      "mesh": 1,
      "scale": [
        1.06,
        0.72,
        1.2000000000000002
      ]
    },
    {
      "name": "BurrowerThoraxRib3",
      "translation": [
        0.0,
        1.16,
        1.0
      ],
      "mesh": 6,
      "rotation": [
        0.0,
        0.0,
        0.03998933418663416,
        0.9992001066609779
      ],
      "scale": [
        5.0,
        0.64,
        1.1
      ]
    },
    {
      "name": "BurrowerFastenerL3",
      "translation": [
        -0.56,
        1.04,
        1.0
      ],
      "mesh": 11
    },
    {
      "name": "BurrowerFastenerR3",
      "translation": [
        0.56,
        1.04,
        1.0
      ],
      "mesh": 11
    },
    {
      "name": "OrganicDorsalPlate",
      "translation": [
        0.0,
        1.36,
        0.2
      ],
      "mesh": 6,
      "scale": [
        6.0,
        0.78,
        1.5
      ],
      "extras": {
        "surface": "layered_shell_break"
      }
    },
    {
      "name": "BurrowerDrillAssembly",
      "translation": [
        0.0,
        0.82,
        -1.4
      ],
      "extras": {
        "socket_type": "drill_assembly"
      },
      "children": [
        21,
        22,
        23,
        24,
        25,
        26,
        28
      ]
    },
    {
      "name": "BurrowerDrillRing0",
      "translation": [
        0.0,
        0.0,
        0.0
      ],
      "mesh": 3,
      "scale": [
        1.0,
        1.0,
        1.0
      ]
    },
    {
      "name": "BurrowerDrillRing1",
      "translation": [
        0.0,
        0.0,
        -0.2
      ],
      "mesh": 3,
      "scale": [
        0.88,
        1.0,
        0.88
      ]
    },
    {
      "name": "BurrowerDrillRing2",
      "translation": [
        0.0,
        0.0,
        -0.4
      ],
      "mesh": 3,
      "scale": [
        0.76,
        1.0,
        0.76
      ]
    },
    {
      "name": "BurrowerDrill",
      "translation": [
        0.0,
        0.0,
        -0.45
      ],
      "mesh": 2,
      "rotation": [
        0.7071080798594735,
        0.0,
        0.0,
        0.7071054825112363
      ],
      "scale": [
        1.0,
        1.0,
        1.25
      ],
      "extras": {
        "socket_type": "drill"
      }
    },
    {
      "name": "BurrowerTip",
      "translation": [
        0.0,
        0.0,
        -0.84
      ],
      "mesh": 4,
      "scale": [
        1.0,
        0.7,
        1.3
      ],
      "extras": {
        "socket_type": "bore_tip"
      }
    },
    {
      "name": "BurrowerLampL",
      "translation": [
        -0.22,
        0.17,
        -0.78
      ],
      "mesh": 7,
      "extras": {
        "socket_type": "bore_lamp"
      }
    },
    {
      "name": "BurrowerJawL",
      "translation": [
        -0.25,
        0.18,
        -1.02
      ],
      "mesh": 5,
      "rotation": [
        0.3697341568134297,
        -0.029641995800040392,
        -0.0742139501520901,
        0.9256944933255656
      ],
      "extras": {
        "socket_type": "jaw"
      }
    },
    {
      "name": "BurrowerLampR",
      "translation": [
        0.22,
        0.17,
        -0.78
      ],
      "mesh": 7,
      "extras": {
        "socket_type": "bore_lamp"
      }
    },
    {
      "name": "BurrowerJawR",
      "translation": [
        0.25,
        0.18,
        -1.02
      ],
      "mesh": 5,
      "rotation": [
        0.3697341568134297,
        0.029641995800040392,
        0.0742139501520901,
        0.9256944933255656
      ],
      "extras": {
        "socket_type": "jaw"
      }
    },
    {
      "name": "BurrowSpine0",
      "translation": [
        -0.82,
        1.45,
        0.34
      ],
      "mesh": 10,
      "rotation": [
        0.0,
        0.0,
        -0.10977830083717481,
        0.9939560979566968
      ],
      "extras": {
        "surface": "bone_ridge"
      }
    },
    {
      "name": "BurrowSpine1",
      "translation": [
        -0.41,
        1.45,
        0.34
      ],
      "mesh": 10,
      "rotation": [
        0.0,
        0.0,
        -0.0649542388347826,
        0.9978882436713011
      ],
      "extras": {
        "surface": "bone_ridge"
      }
    },
    {
      "name": "BurrowSpine2",
      "translation": [
        0.0,
        1.45,
        0.34
      ],
      "mesh": 10,
      "rotation": [
        0.0,
        0.0,
        -0.019998666693333084,
        0.9998000066665778
      ],
      "extras": {
        "surface": "bone_ridge"
      }
    },
    {
      "name": "BurrowSpine3",
      "translation": [
        0.41000000000000003,
        1.45,
        0.34
      ],
      "mesh": 10,
      "rotation": [
        0.0,
        0.0,
        0.02499739591471234,
        0.9996875162757026
      ],
      "extras": {
        "surface": "bone_ridge"
      }
    },
    {
      "name": "BurrowSpine4",
      "translation": [
        0.82,
        1.45,
        0.34
      ],
      "mesh": 10,
      "rotation": [
        0.0,
        0.0,
        0.06994284733753275,
        0.9975510002532796
      ],
      "extras": {
        "surface": "bone_ridge"
      }
    },
    {
      "name": "BurrowerLegL0",
      "translation": [
        -0.62,
        0.32,
        -0.48
      ],
      "mesh": 8,
      "rotation": [
        0.0,
        0.0,
        -0.35227423327508994,
        0.9358968236779348
      ]
    },
    {
      "name": "BurrowerTalonL0",
      "translation": [
        -0.92,
        0.1,
        -0.52
      ],
      "mesh": 9,
      "rotation": [
        0.0,
        0.0,
        -0.17902957342582418,
        0.9838436927881214
      ]
    },
    {
      "name": "BurrowerLegL1",
      "translation": [
        -0.67,
        0.32,
        0.06000000000000005
      ],
      "mesh": 8,
      "rotation": [
        0.0,
        0.0,
        -0.35227423327508994,
        0.9358968236779348
      ]
    },
    {
      "name": "BurrowerTalonL1",
      "translation": [
        -0.92,
        0.1,
        0.020000000000000052
      ],
      "mesh": 9,
      "rotation": [
        0.0,
        0.0,
        -0.17902957342582418,
        0.9838436927881214
      ]
    },
    {
      "name": "BurrowerLegL2",
      "translation": [
        -0.72,
        0.32,
        0.6000000000000001
      ],
      "mesh": 8,
      "rotation": [
        0.0,
        0.0,
        -0.35227423327508994,
        0.9358968236779348
      ]
    },
    {
      "name": "BurrowerTalonL2",
      "translation": [
        -0.92,
        0.1,
        0.56
      ],
      "mesh": 9,
      "rotation": [
        0.0,
        0.0,
        -0.17902957342582418,
        0.9838436927881214
      ]
    },
    {
      "name": "BurrowerFinL",
      "translation": [
        -1.0,
        1.08,
        0.2
      ],
      "mesh": 6,
      "rotation": [
        -0.005389477906472614,
        -0.08971681633804743,
        -0.059721316135551775,
        0.994160555842515
      ],
      "scale": [
        0.35,
        1.1,
        0.8
      ],
      "extras": {
        "surface": "side_fan"
      }
    },
    {
      "name": "BurrowerLegR0",
      "translation": [
        0.62,
        0.32,
        -0.48
      ],
      "mesh": 8,
      "rotation": [
        0.0,
        0.0,
        0.35227423327508994,
        0.9358968236779348
      ]
    },
    {
      "name": "BurrowerTalonR0",
      "translation": [
        0.92,
        0.1,
        -0.52
      ],
      "mesh": 9,
      "rotation": [
        0.0,
        0.0,
        0.17902957342582418,
        0.9838436927881214
      ]
    },
    {
      "name": "BurrowerLegR1",
      "translation": [
        0.67,
        0.32,
        0.06000000000000005
      ],
      "mesh": 8,
      "rotation": [
        0.0,
        0.0,
        0.35227423327508994,
        0.9358968236779348
      ]
    },
    {
      "name": "BurrowerTalonR1",
      "translation": [
        0.92,
        0.1,
        0.020000000000000052
      ],
      "mesh": 9,
      "rotation": [
        0.0,
        0.0,
        0.17902957342582418,
        0.9838436927881214
      ]
    },
    {
      "name": "BurrowerLegR2",
      "translation": [
        0.72,
        0.32,
        0.6000000000000001
      ],
      "mesh": 8,
      "rotation": [
        0.0,
        0.0,
        0.35227423327508994,
        0.9358968236779348
      ]
    },
    {
      "name": "BurrowerTalonR2",
      "translation": [
        0.92,
        0.1,
        0.56
      ],
      "mesh": 9,
      "rotation": [
        0.0,
        0.0,
        0.17902957342582418,
        0.9838436927881214
      ]
    },
    {
      "name": "BurrowerFinR",
      "translation": [
        1.0,
        1.08,
        0.2
      ],
      "mesh": 6,
      "rotation": [
        -0.005389477906472614,
        0.08971681633804743,
        0.059721316135551775,
        0.994160555842515
      ],
      "scale": [
        0.35,
        1.1,
        0.8
      ],
      "extras": {
        "surface": "side_fan"
      }
    },
    {
      "name": "ProductionAssetMarker",
      "translation": [
        0.0,
        0.0,
        0.0
      ],
      "extras": {
        "asset_contract": "burrower.drill.v1",
        "source": "original_shared_mesh_builder"
      }
    }
  ],
  "meshes": [
    {
      "name": "Core",
      "primitives": [
        {
          "attributes": {
            "POSITION": 0,
            "NORMAL": 1
          },
          "indices": 2,
          "material": 0
        }
      ]
    },
    {
      "name": "Segment",
      "primitives": [
        {
          "attributes": {
            "POSITION": 3,
            "NORMAL": 4
          },
          "indices": 5,
          "material": 1
        }
      ]
    },
    {
      "name": "Drill",
      "primitives": [
        {
          "attributes": {
            "POSITION": 6,
            "NORMAL": 7
          },
          "indices": 8,
          "material": 3
        }
      ]
    },
    {
      "name": "Ring",
      "primitives": [
        {
          "attributes": {
            "POSITION": 9,
            "NORMAL": 10
          },
          "indices": 11,
          "material": 1
        }
      ]
    },
    {
      "name": "Tip",
      "primitives": [
        {
          "attributes": {
            "POSITION": 12,
            "NORMAL": 13
          },
          "indices": 14,
          "material": 0
        }
      ]
    },
    {
      "name": "Jaw",
      "primitives": [
        {
          "attributes": {
            "POSITION": 15,
            "NORMAL": 16
          },
          "indices": 17,
          "material": 3
        }
      ]
    },
    {
      "name": "Fin",
      "primitives": [
        {
          "attributes": {
            "POSITION": 18,
            "NORMAL": 19
          },
          "indices": 20,
          "material": 1
        }
      ]
    },
    {
      "name": "Eye",
      "primitives": [
        {
          "attributes": {
            "POSITION": 21,
            "NORMAL": 22
          },
          "indices": 23,
          "material": 4
        }
      ]
    },
    {
      "name": "Leg",
      "primitives": [
        {
          "attributes": {
            "POSITION": 24,
            "NORMAL": 25
          },
          "indices": 26,
          "material": 5
        }
      ]
    },
    {
      "name": "Talon",
      "primitives": [
        {
          "attributes": {
            "POSITION": 27,
            "NORMAL": 28
          },
          "indices": 29,
          "material": 3
        }
      ]
    },
    {
      "name": "Spine",
      "primitives": [
        {
          "attributes": {
            "POSITION": 30,
            "NORMAL": 31
          },
          "indices": 32,
          "material": 3
        }
      ]
    },
    {
      "name": "Fastener",
      "primitives": [
        {
          "attributes": {
            "POSITION": 33,
            "NORMAL": 34
          },
          "indices": 35,
          "material": 3
        }
      ]
    }
  ],
  "materials": [
    {
      "name": "Burrower wet shell",
      "pbrMetallicRoughness": {
        "baseColorFactor": [
          0.045,
          0.06,
          0.064,
          1.0
        ],
        "metallicFactor": 0.22,
        "roughnessFactor": 0.3
      }
    },
    {
      "name": "Burrower layered plate",
      "pbrMetallicRoughness": {
        "baseColorFactor": [
          0.19,
          0.21,
          0.19,
          1.0
        ],
        "metallicFactor": 0.16,
        "roughnessFactor": 0.43
      }
    },
    {
      "name": "Burrower flesh",
      "pbrMetallicRoughness": {
        "baseColorFactor": [
          0.12,
          0.035,
          0.035,
          1.0
        ],
        "metallicFactor": 0.0,
        "roughnessFactor": 0.72
      }
    },
    {
      "name": "Burrower bone",
      "pbrMetallicRoughness": {
        "baseColorFactor": [
          0.48,
          0.4,
          0.27,
          1.0
        ],
        "metallicFactor": 0.0,
        "roughnessFactor": 0.6
      }
    },
    {
      "name": "Burrower bore lamp",
      "pbrMetallicRoughness": {
        "baseColorFactor": [
          0.56,
          0.16,
          0.025,
          1.0
        ],
        "metallicFactor": 0.0,
        "roughnessFactor": 0.2
      },
      "emissiveFactor": [
        1.0,
        0.12,
        0.01
      ]
    },
    {
      "name": "Burrower tendon",
      "pbrMetallicRoughness": {
        "baseColorFactor": [
          0.3,
          0.08,
          0.075,
          1.0
        ],
        "metallicFactor": 0.0,
        "roughnessFactor": 0.53
      }
    }
  ],
  "accessors": [
    {
      "bufferView": 0,
      "componentType": 5126,
      "count": 442,
      "type": "VEC3",
      "min": [
        -0.62,
        -0.62,
        -0.6154795019407935
      ],
      "max": [
        0.62,
        0.62,
        0.6154795019407935
      ]
    },
    {
      "bufferView": 1,
      "componentType": 5126,
      "count": 442,
      "type": "VEC3"
    },
    {
      "bufferView": 2,
      "componentType": 5123,
      "count": 2496,
      "type": "SCALAR",
      "normalized": false
    },
    {
      "bufferView": 3,
      "componentType": 5126,
      "count": 360,
      "type": "VEC3",
      "min": [
        -0.48,
        -0.48,
        -0.48
      ],
      "max": [
        0.48,
        0.48,
        0.48
      ]
    },
    {
      "bufferView": 4,
      "componentType": 5126,
      "count": 360,
      "type": "VEC3"
    },
    {
      "bufferView": 5,
      "componentType": 5123,
      "count": 2016,
      "type": "SCALAR",
      "normalized": false
    },
    {
      "bufferView": 6,
      "componentType": 5126,
      "count": 34,
      "type": "VEC3",
      "min": [
        -0.25,
        -0.35,
        -0.25
      ],
      "max": [
        0.25,
        0.35,
        0.25
      ]
    },
    {
      "bufferView": 7,
      "componentType": 5126,
      "count": 34,
      "type": "VEC3"
    },
    {
      "bufferView": 8,
      "componentType": 5123,
      "count": 192,
      "type": "SCALAR",
      "normalized": false
    },
    {
      "bufferView": 9,
      "componentType": 5126,
      "count": 34,
      "type": "VEC3",
      "min": [
        -0.3,
        -0.07,
        -0.3
      ],
      "max": [
        0.3,
        0.07,
        0.3
      ]
    },
    {
      "bufferView": 10,
      "componentType": 5126,
      "count": 34,
      "type": "VEC3"
    },
    {
      "bufferView": 11,
      "componentType": 5123,
      "count": 192,
      "type": "SCALAR",
      "normalized": false
    },
    {
      "bufferView": 12,
      "componentType": 5126,
      "count": 234,
      "type": "VEC3",
      "min": [
        -0.2,
        -0.2,
        -0.19696155060244164
      ],
      "max": [
        0.2,
        0.2,
        0.1969615506024416
      ]
    },
    {
      "bufferView": 13,
      "componentType": 5126,
      "count": 234,
      "type": "VEC3"
    },
    {
      "bufferView": 14,
      "componentType": 5123,
      "count": 1296,
      "type": "SCALAR",
      "normalized": false
    },
    {
      "bufferView": 15,
      "componentType": 5126,
      "count": 26,
      "type": "VEC3",
      "min": [
        -0.065,
        -0.31,
        -0.065
      ],
      "max": [
        0.065,
        0.31,
        0.065
      ]
    },
    {
      "bufferView": 16,
      "componentType": 5126,
      "count": 26,
      "type": "VEC3"
    },
    {
      "bufferView": 17,
      "componentType": 5123,
      "count": 144,
      "type": "SCALAR",
      "normalized": false
    },
    {
      "bufferView": 18,
      "componentType": 5126,
      "count": 24,
      "type": "VEC3",
      "min": [
        -0.06,
        -0.35,
        -0.29
      ],
      "max": [
        0.06,
        0.35,
        0.29
      ]
    },
    {
      "bufferView": 19,
      "componentType": 5126,
      "count": 24,
      "type": "VEC3"
    },
    {
      "bufferView": 20,
      "componentType": 5123,
      "count": 36,
      "type": "SCALAR",
      "normalized": false
    },
    {
      "bufferView": 21,
      "componentType": 5126,
      "count": 176,
      "type": "VEC3",
      "min": [
        -0.08,
        -0.08,
        -0.08
      ],
      "max": [
        0.08,
        0.08,
        0.08
      ]
    },
    {
      "bufferView": 22,
      "componentType": 5126,
      "count": 176,
      "type": "VEC3"
    },
    {
      "bufferView": 23,
      "componentType": 5123,
      "count": 960,
      "type": "SCALAR",
      "normalized": false
    },
    {
      "bufferView": 24,
      "componentType": 5126,
      "count": 26,
      "type": "VEC3",
      "min": [
        -0.08,
        -0.575,
        -0.08
      ],
      "max": [
        0.08,
        0.575,
        0.08
      ]
    },
    {
      "bufferView": 25,
      "componentType": 5126,
      "count": 26,
      "type": "VEC3"
    },
    {
      "bufferView": 26,
      "componentType": 5123,
      "count": 144,
      "type": "SCALAR",
      "normalized": false
    },
    {
      "bufferView": 27,
      "componentType": 5126,
      "count": 26,
      "type": "VEC3",
      "min": [
        -0.05,
        -0.29,
        -0.05
      ],
      "max": [
        0.05,
        0.29,
        0.05
      ]
    },
    {
      "bufferView": 28,
      "componentType": 5126,
      "count": 26,
      "type": "VEC3"
    },
    {
      "bufferView": 29,
      "componentType": 5123,
      "count": 144,
      "type": "SCALAR",
      "normalized": false
    },
    {
      "bufferView": 30,
      "componentType": 5126,
      "count": 26,
      "type": "VEC3",
      "min": [
        -0.09,
        -0.46,
        -0.09
      ],
      "max": [
        0.09,
        0.46,
        0.09
      ]
    },
    {
      "bufferView": 31,
      "componentType": 5126,
      "count": 26,
      "type": "VEC3"
    },
    {
      "bufferView": 32,
      "componentType": 5123,
      "count": 144,
      "type": "SCALAR",
      "normalized": false
    },
    {
      "bufferView": 33,
      "componentType": 5126,
      "count": 108,
      "type": "VEC3",
      "min": [
        -0.04,
        -0.04,
        -0.04
      ],
      "max": [
        0.04,
        0.04,
        0.04
      ]
    },
    {
      "bufferView": 34,
      "componentType": 5126,
      "count": 108,
      "type": "VEC3"
    },
    {
      "bufferView": 35,
      "componentType": 5123,
      "count": 576,
      "type": "SCALAR",
      "normalized": false
    },
    {
      "bufferView": 36,
      "componentType": 5126,
      "count": 3,
      "type": "SCALAR",
      "min": [
        0.0
      ],
      "max": [
        1.6
      ]
    },
    {
      "bufferView": 37,
      "componentType": 5126,
      "count": 3,
      "type": "VEC3"
    },
    {
      "bufferView": 38,
      "componentType": 5126,
      "count": 3,
      "type": "SCALAR",
      "min": [
        0.0
      ],
      "max": [
        0.48
      ]
    },
    {
      "bufferView": 39,
      "componentType": 5126,
      "count": 3,
      "type": "VEC4"
    },
    {
      "bufferView": 40,
      "componentType": 5126,
      "count": 3,
      "type": "SCALAR",
      "min": [
        0.0
      ],
      "max": [
        0.44
      ]
    },
    {
      "bufferView": 41,
      "componentType": 5126,
      "count": 3,
      "type": "VEC3"
    }
  ],
  "bufferViews": [
    {
      "buffer": 0,
      "byteOffset": 0,
      "byteLength": 5304,
      "target": 34962
    },
    {
      "buffer": 0,
      "byteOffset": 5304,
      "byteLength": 5304,
      "target": 34962
    },
    {
      "buffer": 0,
      "byteOffset": 10608,
      "byteLength": 4992,
      "target": 34963
    },
    {
      "buffer": 0,
      "byteOffset": 15600,
      "byteLength": 4320,
      "target": 34962
    },
    {
      "buffer": 0,
      "byteOffset": 19920,
      "byteLength": 4320,
      "target": 34962
    },
    {
      "buffer": 0,
      "byteOffset": 24240,
      "byteLength": 4032,
      "target": 34963
    },
    {
      "buffer": 0,
      "byteOffset": 28272,
      "byteLength": 408,
      "target": 34962
    },
    {
      "buffer": 0,
      "byteOffset": 28680,
      "byteLength": 408,
      "target": 34962
    },
    {
      "buffer": 0,
      "byteOffset": 29088,
      "byteLength": 384,
      "target": 34963
    },
    {
      "buffer": 0,
      "byteOffset": 29472,
      "byteLength": 408,
      "target": 34962
    },
    {
      "buffer": 0,
      "byteOffset": 29880,
      "byteLength": 408,
      "target": 34962
    },
    {
      "buffer": 0,
      "byteOffset": 30288,
      "byteLength": 384,
      "target": 34963
    },
    {
      "buffer": 0,
      "byteOffset": 30672,
      "byteLength": 2808,
      "target": 34962
    },
    {
      "buffer": 0,
      "byteOffset": 33480,
      "byteLength": 2808,
      "target": 34962
    },
    {
      "buffer": 0,
      "byteOffset": 36288,
      "byteLength": 2592,
      "target": 34963
    },
    {
      "buffer": 0,
      "byteOffset": 38880,
      "byteLength": 312,
      "target": 34962
    },
    {
      "buffer": 0,
      "byteOffset": 39192,
      "byteLength": 312,
      "target": 34962
    },
    {
      "buffer": 0,
      "byteOffset": 39504,
      "byteLength": 288,
      "target": 34963
    },
    {
      "buffer": 0,
      "byteOffset": 39792,
      "byteLength": 288,
      "target": 34962
    },
    {
      "buffer": 0,
      "byteOffset": 40080,
      "byteLength": 288,
      "target": 34962
    },
    {
      "buffer": 0,
      "byteOffset": 40368,
      "byteLength": 72,
      "target": 34963
    },
    {
      "buffer": 0,
      "byteOffset": 40440,
      "byteLength": 2112,
      "target": 34962
    },
    {
      "buffer": 0,
      "byteOffset": 42552,
      "byteLength": 2112,
      "target": 34962
    },
    {
      "buffer": 0,
      "byteOffset": 44664,
      "byteLength": 1920,
      "target": 34963
    },
    {
      "buffer": 0,
      "byteOffset": 46584,
      "byteLength": 312,
      "target": 34962
    },
    {
      "buffer": 0,
      "byteOffset": 46896,
      "byteLength": 312,
      "target": 34962
    },
    {
      "buffer": 0,
      "byteOffset": 47208,
      "byteLength": 288,
      "target": 34963
    },
    {
      "buffer": 0,
      "byteOffset": 47496,
      "byteLength": 312,
      "target": 34962
    },
    {
      "buffer": 0,
      "byteOffset": 47808,
      "byteLength": 312,
      "target": 34962
    },
    {
      "buffer": 0,
      "byteOffset": 48120,
      "byteLength": 288,
      "target": 34963
    },
    {
      "buffer": 0,
      "byteOffset": 48408,
      "byteLength": 312,
      "target": 34962
    },
    {
      "buffer": 0,
      "byteOffset": 48720,
      "byteLength": 312,
      "target": 34962
    },
    {
      "buffer": 0,
      "byteOffset": 49032,
      "byteLength": 288,
      "target": 34963
    },
    {
      "buffer": 0,
      "byteOffset": 49320,
      "byteLength": 1296,
      "target": 34962
    },
    {
      "buffer": 0,
      "byteOffset": 50616,
      "byteLength": 1296,
      "target": 34962
    },
    {
      "buffer": 0,
      "byteOffset": 51912,
      "byteLength": 1152,
      "target": 34963
    },
    {
      "buffer": 0,
      "byteOffset": 53064,
      "byteLength": 12
    },
    {
      "buffer": 0,
      "byteOffset": 53076,
      "byteLength": 36
    },
    {
      "buffer": 0,
      "byteOffset": 53112,
      "byteLength": 12
    },
    {
      "buffer": 0,
      "byteOffset": 53124,
      "byteLength": 48
    },
    {
      "buffer": 0,
      "byteOffset": 53172,
      "byteLength": 12
    },
    {
      "buffer": 0,
      "byteOffset": 53184,
      "byteLength": 36
    }
  ],
  "buffers": [
    {
      "byteLength": 53220,
      "uri": "data:application/octet-stream;base64,"
    }
  ],
  "animations": [
    {
      "name": "Idle",
      "samplers": [
        {
          "input": 36,
          "output": 37,
          "interpolation": "LINEAR"
        }
      ],
      "channels": [
        {
          "sampler": 0,
          "target": {
            "node": 0,
            "path": "translation"
          }
        }
      ]
    },
    {
      "name": "Walk",
      "samplers": [
        {
          "input": 38,
          "output": 39,
          "interpolation": "LINEAR"
        }
      ],
      "channels": [
        {
          "sampler": 0,
          "target": {
            "node": 35,
            "path": "rotation"
          }
        }
      ]
    },
    {
      "name": "Attack",
      "samplers": [
        {
          "input": 40,
          "output": 41,
          "interpolation": "LINEAR"
        }
      ],
      "channels": [
        {
          "sampler": 0,
          "target": {
            "node": 20,
            "path": "translation"
          }
        }
      ]
    }
  ],
  "extras": {
    "ironwright_asset_id": "burrower.drill.v1",
    "required_nodes": [
      "BurrowerModel",
      "Torso",
      "TorsoCore",
      "OrganicDorsalPlate",
      "BurrowerDrill",
      "BurrowerTip",
      "BurrowerDrillRing0",
      "BurrowerLampL",
      "ProductionAssetMarker"
    ],
    "animation_clips": [
      "Idle",
      "Walk",
      "Attack"
    ]
  }
}
