{
  "asset": {
    "version": "2.0",
    "generator": "Project Ironwright original Buried Laboratories asset builder"
  },
  "scene": 0,
  "scenes": [
    {
      "name": "BuriedLabs",
      "nodes": [
        0
      ]
    }
  ],
  "nodes": [
    {
      "name": "BuriedLabsModel",
      "children": [
        1,
        2,
        3,
        4,
        5,
        6,
        7,
        8,
        9,
        10,
        11,
        12,
        13,
        14,
        30,
        46,
        62,
        63,
        64,
        65,
        66,
        67,
        68,
        69,
        70,
        71,
        72,
        73,
        74,
        75,
        76,
        77,
        78,
        79,
        80,
        81,
        82,
        83,
        84,
        85,
        86,
        87,
        88,
        89,
        90,
        91,
        92,
        93,
        94,
        95,
        96,
        97,
        98,
        99,
        100,
        101,
        102,
        103,
        104,
        105,
        106,
        107
      ],
      "extras": {
        "ironwright_asset_id": "buried.labs.v1",
        "asset_quality": "authored_high_definition",
        "manufactured_surface_profile": "chamfered_high_definition",
        "socket_contract": "containment_vessels, transfer_rail, sealed_door, warning_panel, organic_contamination"
      }
    },
    {
      "name": "BuriedLabsContainmentHall",
      "translation": [
        0.0,
        0.09,
        0.0
      ],
      "mesh": 0,
      "extras": {
        "socket_type": "containment_hall"
      }
    },
    {
      "name": "BuriedLabsWall",
      "translation": [
        -8.0,
        2.7,
        0.0
      ],
      "mesh": 1
    },
    {
      "name": "BuriedLabsWall",
      "translation": [
        8.0,
        2.7,
        0.0
      ],
      "mesh": 1
    },
    {
      "name": "BuriedLabsFrame0",
      "translation": [
        -6.8,
        2.8,
        -4.35
      ],
      "mesh": 2
    },
    {
      "name": "BuriedLabsFrame0Top",
      "translation": [
        -6.8,
        5.55,
        -4.35
      ],
      "mesh": 2,
      "rotation": [
        0.0,
        0.0,
        0.7071067811865476,
        0.7071067811865476
      ]
    },
    {
      "name": "BuriedLabsFrame1",
      "translation": [
        -3.4,
        2.8,
        -4.35
      ],
      "mesh": 2
    },
    {
      "name": "BuriedLabsFrame1Top",
      "translation": [
        -3.4,
        5.55,
        -4.35
      ],
      "mesh": 2,
      "rotation": [
        0.0,
        0.0,
        0.7071067811865476,
        0.7071067811865476
      ]
    },
    {
      "name": "BuriedLabsFrame2",
      "translation": [
        0.0,
        2.8,
        -4.35
      ],
      "mesh": 2
    },
    {
      "name": "BuriedLabsFrame2Top",
      "translation": [
        0.0,
        5.55,
        -4.35
      ],
      "mesh": 2,
      "rotation": [
        0.0,
        0.0,
        0.7071067811865476,
        0.7071067811865476
      ]
    },
    {
      "name": "BuriedLabsFrame3",
      "translation": [
        3.4,
        2.8,
        -4.35
      ],
      "mesh": 2
    },
    {
      "name": "BuriedLabsFrame3Top",
      "translation": [
        3.4,
        5.55,
        -4.35
      ],
      "mesh": 2,
      "rotation": [
        0.0,
        0.0,
        0.7071067811865476,
        0.7071067811865476
      ]
    },
    {
      "name": "BuriedLabsFrame4",
      "translation": [
        6.8,
        2.8,
        -4.35
      ],
      "mesh": 2
    },
    {
      "name": "BuriedLabsFrame4Top",
      "translation": [
        6.8,
        5.55,
        -4.35
      ],
      "mesh": 2,
      "rotation": [
        0.0,
        0.0,
        0.7071067811865476,
        0.7071067811865476
      ]
    },
    {
      "name": "BuriedLabsVessel0",
      "translation": [
        -4.6,
        0.0,
        2.35
      ],
      "extras": {
        "socket_type": "containment_vessel"
      },
      "children": [
        15,
        16,
        17,
        18,
        19,
        20,
        21,
        22,
        23,
        24,
        25,
        26,
        27,
        28,
        29
      ]
    },
    {
      "name": "BuriedLabsVesselBody0",
      "translation": [
        0.0,
        2.25,
        0.0
      ],
      "mesh": 3
    },
    {
      "name": "BuriedLabsVesselCap0",
      "translation": [
        0.0,
        4.38,
        0.0
      ],
      "mesh": 4
    },
    {
      "name": "BuriedLabsVesselCollarTop0",
      "translation": [
        0.0,
        4.03,
        0.0
      ],
      "mesh": 5,
      "extras": {
        "surface": "containment_service_collar"
      }
    },
    {
      "name": "BuriedLabsVesselCollarBottom0",
      "translation": [
        0.0,
        0.38,
        0.0
      ],
      "mesh": 5,
      "extras": {
        "surface": "containment_service_collar"
      }
    },
    {
      "name": "BuriedLabsVesselBaseRing0",
      "translation": [
        0.0,
        0.22,
        0.0
      ],
      "mesh": 6,
      "extras": {
        "surface": "containment_base_ring"
      }
    },
    {
      "name": "BuriedLabsVesselNeck0",
      "translation": [
        0.0,
        4.58,
        0.0
      ],
      "mesh": 7,
      "extras": {
        "surface": "containment_service_neck"
      }
    },
    {
      "name": "BuriedLabsVesselCore0",
      "translation": [
        0.0,
        2.28,
        0.0
      ],
      "mesh": 8,
      "extras": {
        "socket_type": "containment_core"
      }
    },
    {
      "name": "BuriedLabsVesselViewport0",
      "translation": [
        0.0,
        2.3,
        1.18
      ],
      "mesh": 19,
      "extras": {
        "surface": "containment_observation_viewport"
      }
    },
    {
      "name": "BuriedLabsVesselViewportRing0",
      "translation": [
        0.0,
        2.3,
        1.27
      ],
      "mesh": 20,
      "rotation": [
        0.7071067811865476,
        0.0,
        0.0,
        0.7071067811865476
      ],
      "extras": {
        "surface": "containment_observation_service_ring"
      }
    },
    {
      "name": "BuriedLabsVesselLight0",
      "translation": [
        0.0,
        4.72,
        0.0
      ],
      "mesh": 9,
      "extras": {
        "socket_type": "containment_light"
      }
    },
    {
      "name": "BuriedLabsVesselPort0",
      "translation": [
        0.0,
        4.84,
        0.0
      ],
      "mesh": 18,
      "rotation": [
        0.7071067811865476,
        0.0,
        0.0,
        0.7071067811865476
      ],
      "extras": {
        "surface": "containment_service_port"
      }
    },
    {
      "name": "BuriedLabsVesselClampL0",
      "translation": [
        -1.22,
        2.1,
        0.0
      ],
      "mesh": 21,
      "rotation": [
        0.0,
        0.0,
        -0.06994284733753277,
        0.9975510002532796
      ],
      "extras": {
        "surface": "containment_clamp"
      }
    },
    {
      "name": "BuriedLabsVesselClampR0",
      "translation": [
        1.22,
        2.1,
        0.0
      ],
      "mesh": 21,
      "rotation": [
        0.0,
        0.0,
        0.06994284733753277,
        0.9975510002532796
      ],
      "extras": {
        "surface": "containment_clamp"
      }
    },
    {
      "name": "BuriedLabsBraceL0",
      "translation": [
        -1.22,
        2.1,
        0.0
      ],
      "mesh": 17,
      "rotation": [
        0.0,
        0.0,
        -0.06994284733753277,
        0.9975510002532796
      ]
    },
    {
      "name": "BuriedLabsBraceR0",
      "translation": [
        1.22,
        2.1,
        0.0
      ],
      "mesh": 17,
      "rotation": [
        0.0,
        0.0,
        0.06994284733753277,
        0.9975510002532796
      ]
    },
    {
      "name": "BuriedLabsVessel1",
      "translation": [
        0.0,
        0.0,
        2.35
      ],
      "extras": {
        "socket_type": "containment_vessel"
      },
      "children": [
        31,
        32,
        33,
        34,
        35,
        36,
        37,
        38,
        39,
        40,
        41,
        42,
        43,
        44,
        45
      ]
    },
    {
      "name": "BuriedLabsVesselBody1",
      "translation": [
        0.0,
        2.25,
        0.0
      ],
      "mesh": 3
    },
    {
      "name": "BuriedLabsVesselCap1",
      "translation": [
        0.0,
        4.38,
        0.0
      ],
      "mesh": 4
    },
    {
      "name": "BuriedLabsVesselCollarTop1",
      "translation": [
        0.0,
        4.03,
        0.0
      ],
      "mesh": 5,
      "extras": {
        "surface": "containment_service_collar"
      }
    },
    {
      "name": "BuriedLabsVesselCollarBottom1",
      "translation": [
        0.0,
        0.38,
        0.0
      ],
      "mesh": 5,
      "extras": {
        "surface": "containment_service_collar"
      }
    },
    {
      "name": "BuriedLabsVesselBaseRing1",
      "translation": [
        0.0,
        0.22,
        0.0
      ],
      "mesh": 6,
      "extras": {
        "surface": "containment_base_ring"
      }
    },
    {
      "name": "BuriedLabsVesselNeck1",
      "translation": [
        0.0,
        4.58,
        0.0
      ],
      "mesh": 7,
      "extras": {
        "surface": "containment_service_neck"
      }
    },
    {
      "name": "BuriedLabsVesselCore1",
      "translation": [
        0.0,
        2.28,
        0.0
      ],
      "mesh": 8,
      "extras": {
        "socket_type": "containment_core"
      }
    },
    {
      "name": "BuriedLabsVesselViewport1",
      "translation": [
        0.0,
        2.3,
        1.18
      ],
      "mesh": 19,
      "extras": {
        "surface": "containment_observation_viewport"
      }
    },
    {
      "name": "BuriedLabsVesselViewportRing1",
      "translation": [
        0.0,
        2.3,
        1.27
      ],
      "mesh": 20,
      "rotation": [
        0.7071067811865476,
        0.0,
        0.0,
        0.7071067811865476
      ],
      "extras": {
        "surface": "containment_observation_service_ring"
      }
    },
    {
      "name": "BuriedLabsVesselLight1",
      "translation": [
        0.0,
        4.72,
        0.0
      ],
      "mesh": 9,
      "extras": {
        "socket_type": "containment_light"
      }
    },
    {
      "name": "BuriedLabsVesselPort1",
      "translation": [
        0.0,
        4.84,
        0.0
      ],
      "mesh": 18,
      "rotation": [
        0.7071067811865476,
        0.0,
        0.0,
        0.7071067811865476
      ],
      "extras": {
        "surface": "containment_service_port"
      }
    },
    {
      "name": "BuriedLabsVesselClampL1",
      "translation": [
        -1.22,
        2.1,
        0.0
      ],
      "mesh": 21,
      "rotation": [
        0.0,
        0.0,
        -0.06994284733753277,
        0.9975510002532796
      ],
      "extras": {
        "surface": "containment_clamp"
      }
    },
    {
      "name": "BuriedLabsVesselClampR1",
      "translation": [
        1.22,
        2.1,
        0.0
      ],
      "mesh": 21,
      "rotation": [
        0.0,
        0.0,
        0.06994284733753277,
        0.9975510002532796
      ],
      "extras": {
        "surface": "containment_clamp"
      }
    },
    {
      "name": "BuriedLabsBraceL1",
      "translation": [
        -1.22,
        2.1,
        0.0
      ],
      "mesh": 17,
      "rotation": [
        0.0,
        0.0,
        -0.06994284733753277,
        0.9975510002532796
      ]
    },
    {
      "name": "BuriedLabsBraceR1",
      "translation": [
        1.22,
        2.1,
        0.0
      ],
      "mesh": 17,
      "rotation": [
        0.0,
        0.0,
        0.06994284733753277,
        0.9975510002532796
      ]
    },
    {
      "name": "BuriedLabsVessel2",
      "translation": [
        4.6,
        0.0,
        2.35
      ],
      "extras": {
        "socket_type": "containment_vessel"
      },
      "children": [
        47,
        48,
        49,
        50,
        51,
        52,
        53,
        54,
        55,
        56,
        57,
        58,
        59,
        60,
        61
      ]
    },
    {
      "name": "BuriedLabsVesselBody2",
      "translation": [
        0.0,
        2.25,
        0.0
      ],
      "mesh": 3
    },
    {
      "name": "BuriedLabsVesselCap2",
      "translation": [
        0.0,
        4.38,
        0.0
      ],
      "mesh": 4
    },
    {
      "name": "BuriedLabsVesselCollarTop2",
      "translation": [
        0.0,
        4.03,
        0.0
      ],
      "mesh": 5,
      "extras": {
        "surface": "containment_service_collar"
      }
    },
    {
      "name": "BuriedLabsVesselCollarBottom2",
      "translation": [
        0.0,
        0.38,
        0.0
      ],
      "mesh": 5,
      "extras": {
        "surface": "containment_service_collar"
      }
    },
    {
      "name": "BuriedLabsVesselBaseRing2",
      "translation": [
        0.0,
        0.22,
        0.0
      ],
      "mesh": 6,
      "extras": {
        "surface": "containment_base_ring"
      }
    },
    {
      "name": "BuriedLabsVesselNeck2",
      "translation": [
        0.0,
        4.58,
        0.0
      ],
      "mesh": 7,
      "extras": {
        "surface": "containment_service_neck"
      }
    },
    {
      "name": "BuriedLabsVesselCore2",
      "translation": [
        0.0,
        2.28,
        0.0
      ],
      "mesh": 8,
      "extras": {
        "socket_type": "containment_core"
      }
    },
    {
      "name": "BuriedLabsVesselViewport2",
      "translation": [
        0.0,
        2.3,
        1.18
      ],
      "mesh": 19,
      "extras": {
        "surface": "containment_observation_viewport"
      }
    },
    {
      "name": "BuriedLabsVesselViewportRing2",
      "translation": [
        0.0,
        2.3,
        1.27
      ],
      "mesh": 20,
      "rotation": [
        0.7071067811865476,
        0.0,
        0.0,
        0.7071067811865476
      ],
      "extras": {
        "surface": "containment_observation_service_ring"
      }
    },
    {
      "name": "BuriedLabsVesselLight2",
      "translation": [
        0.0,
        4.72,
        0.0
      ],
      "mesh": 9,
      "extras": {
        "socket_type": "containment_light"
      }
    },
    {
      "name": "BuriedLabsVesselPort2",
      "translation": [
        0.0,
        4.84,
        0.0
      ],
      "mesh": 18,
      "rotation": [
        0.7071067811865476,
        0.0,
        0.0,
        0.7071067811865476
      ],
      "extras": {
        "surface": "containment_service_port"
      }
    },
    {
      "name": "BuriedLabsVesselClampL2",
      "translation": [
        -1.22,
        2.1,
        0.0
      ],
      "mesh": 21,
      "rotation": [
        0.0,
        0.0,
        -0.06994284733753277,
        0.9975510002532796
      ],
      "extras": {
        "surface": "containment_clamp"
      }
    },
    {
      "name": "BuriedLabsVesselClampR2",
      "translation": [
        1.22,
        2.1,
        0.0
      ],
      "mesh": 21,
      "rotation": [
        0.0,
        0.0,
        0.06994284733753277,
        0.9975510002532796
      ],
      "extras": {
        "surface": "containment_clamp"
      }
    },
    {
      "name": "BuriedLabsBraceL2",
      "translation": [
        -1.22,
        2.1,
        0.0
      ],
      "mesh": 17,
      "rotation": [
        0.0,
        0.0,
        -0.06994284733753277,
        0.9975510002532796
      ]
    },
    {
      "name": "BuriedLabsBraceR2",
      "translation": [
        1.22,
        2.1,
        0.0
      ],
      "mesh": 17,
      "rotation": [
        0.0,
        0.0,
        0.06994284733753277,
        0.9975510002532796
      ]
    },
    {
      "name": "BuriedLabsTransferRail",
      "translation": [
        0.0,
        5.65,
        1.0
      ],
      "mesh": 10,
      "extras": {
        "socket_type": "transfer_rail"
      }
    },
    {
      "name": "BuriedLabsTransferCradle",
      "translation": [
        0.0,
        5.3,
        1.0
      ],
      "mesh": 11,
      "extras": {
        "socket_type": "transfer_cradle"
      }
    },
    {
      "name": "BuriedLabsTransferCarriage",
      "translation": [
        0.0,
        5.36,
        1.0
      ],
      "mesh": 22,
      "extras": {
        "surface": "transfer_carriage"
      }
    },
    {
      "name": "BuriedLabsTransferRailStopL",
      "translation": [
        -6.8,
        5.82,
        1.0
      ],
      "mesh": 23,
      "rotation": [
        0.7071067811865476,
        0.0,
        0.0,
        0.7071067811865476
      ],
      "extras": {
        "surface": "transfer_rail_stop"
      }
    },
    {
      "name": "BuriedLabsTransferRailStopR",
      "translation": [
        6.8,
        5.82,
        1.0
      ],
      "mesh": 23,
      "rotation": [
        0.7071067811865476,
        0.0,
        0.0,
        0.7071067811865476
      ],
      "extras": {
        "surface": "transfer_rail_stop"
      }
    },
    {
      "name": "BuriedLabsTransferLight",
      "translation": [
        0.0,
        5.92,
        1.0
      ],
      "mesh": 9,
      "extras": {
        "socket_type": "transfer_signal"
      }
    },
    {
      "name": "BuriedLabsContainmentDoor",
      "translation": [
        0.0,
        2.28,
        -6.05
      ],
      "mesh": 12,
      "extras": {
        "socket_type": "sealed_door"
      }
    },
    {
      "name": "BuriedLabsContainmentDoorTrim",
      "translation": [
        0.0,
        4.48,
        -6.22
      ],
      "mesh": 13,
      "extras": {
        "socket_type": "door_warning"
      }
    },
    {
      "name": "BuriedLabsContainmentDoorJambL",
      "translation": [
        -1.78,
        2.28,
        -6.18
      ],
      "mesh": 24,
      "extras": {
        "surface": "sealed_door_jamb"
      }
    },
    {
      "name": "BuriedLabsContainmentDoorJambR",
      "translation": [
        1.78,
        2.28,
        -6.18
      ],
      "mesh": 24,
      "extras": {
        "surface": "sealed_door_jamb"
      }
    },
    {
      "name": "BuriedLabsContainmentDoorLintel",
      "translation": [
        0.0,
        4.58,
        -6.18
      ],
      "mesh": 25,
      "extras": {
        "surface": "sealed_door_lintel"
      }
    },
    {
      "name": "BuriedLabsWarningPanel",
      "translation": [
        -4.8,
        2.35,
        -6.24
      ],
      "mesh": 14,
      "extras": {
        "socket_type": "warning_panel"
      }
    },
    {
      "name": "BuriedLabsWarningPanelFrame",
      "translation": [
        -4.8,
        2.35,
        -6.29
      ],
      "mesh": 26,
      "extras": {
        "surface": "warning_panel_frame"
      }
    },
    {
      "name": "BuriedLabsCable0",
      "translation": [
        -4.6,
        4.85,
        2.35
      ],
      "mesh": 15,
      "rotation": [
        0.0,
        0.0,
        0.7071067811865476,
        0.7071067811865476
      ],
      "extras": {
        "socket_type": "service_cable"
      }
    },
    {
      "name": "BuriedLabsCable1",
      "translation": [
        4.6,
        4.85,
        2.35
      ],
      "mesh": 15,
      "rotation": [
        0.0,
        0.0,
        0.7071067811865476,
        0.7071067811865476
      ],
      "extras": {
        "socket_type": "service_cable"
      }
    },
    {
      "name": "BuriedLabsCableClamp0",
      "translation": [
        -4.6,
        4.85,
        4.95
      ],
      "mesh": 27,
      "rotation": [
        0.0,
        0.7071067811865476,
        0.0,
        0.7071067811865476
      ],
      "extras": {
        "surface": "service_cable_clamp"
      }
    },
    {
      "name": "BuriedLabsCableClamp1",
      "translation": [
        4.6,
        4.85,
        4.95
      ],
      "mesh": 27,
      "rotation": [
        0.0,
        0.7071067811865476,
        0.0,
        0.7071067811865476
      ],
      "extras": {
        "surface": "service_cable_clamp"
      }
    },
    {
      "name": "BuriedLabsOrganicSeep0",
      "translation": [
        -7.0,
        0.52,
        4.8
      ],
      "mesh": 16,
      "scale": [
        1.25,
        0.75,
        1.0
      ],
      "extras": {
        "socket_type": "organic_contamination"
      }
    },
    {
      "name": "BuriedLabsOrganicTendril0_0",
      "translation": [
        -7.22,
        0.86,
        4.8
      ],
      "mesh": 28,
      "rotation": [
        0.0,
        0.0,
        -0.11971220728891936,
        0.9928086358538663
      ],
      "extras": {
        "surface": "organic_tendril"
      }
    },
    {
      "name": "BuriedLabsOrganicTendril0_1",
      "translation": [
        -6.84,
        0.86,
        4.8
      ],
      "mesh": 28,
      "rotation": [
        0.0,
        0.0,
        0.07991469396917271,
        0.9968017063026193
      ],
      "extras": {
        "surface": "organic_tendril"
      }
    },
    {
      "name": "BuriedLabsOrganicSeep1",
      "translation": [
        6.7,
        0.52,
        -4.6
      ],
      "mesh": 16,
      "scale": [
        0.85,
        0.62,
        1.35
      ],
      "extras": {
        "socket_type": "organic_contamination"
      }
    },
    {
      "name": "BuriedLabsOrganicTendril1_0",
      "translation": [
        6.48,
        0.86,
        -4.6
      ],
      "mesh": 28,
      "rotation": [
        0.0,
        0.0,
        -0.11971220728891936,
        0.9928086358538663
      ],
      "extras": {
        "surface": "organic_tendril"
      }
    },
    {
      "name": "BuriedLabsOrganicTendril1_1",
      "translation": [
        6.86,
        0.86,
        -4.6
      ],
      "mesh": 28,
      "rotation": [
        0.0,
        0.0,
        0.07991469396917271,
        0.9968017063026193
      ],
      "extras": {
        "surface": "organic_tendril"
      }
    },
    {
      "name": "BuriedLabsExtractionPylonL",
      "translation": [
        -6.2,
        3.3,
        -3.8
      ],
      "mesh": 29,
      "extras": {
        "socket_type": "extraction_gantry"
      }
    },
    {
      "name": "BuriedLabsExtractionBraceL",
      "translation": [
        -6.2,
        3.15,
        -3.48
      ],
      "mesh": 31,
      "rotation": [
        0.0,
        0.0,
        0.09983341664682815,
        0.9950041652780258
      ],
      "extras": {
        "surface": "extraction_gantry_brace"
      }
    },
    {
      "name": "BuriedLabsExtractionPylonR",
      "translation": [
        6.2,
        3.3,
        -3.8
      ],
      "mesh": 29,
      "extras": {
        "socket_type": "extraction_gantry"
      }
    },
    {
      "name": "BuriedLabsExtractionBraceR",
      "translation": [
        6.2,
        3.15,
        -3.48
      ],
      "mesh": 31,
      "rotation": [
        0.0,
        0.0,
        -0.09983341664682815,
        0.9950041652780258
      ],
      "extras": {
        "surface": "extraction_gantry_brace"
      }
    },
    {
      "name": "BuriedLabsExtractionBeam",
      "translation": [
        0.0,
        6.45,
        -3.8
      ],
      "mesh": 30,
      "extras": {
        "socket_type": "extraction_gantry"
      }
    },
    {
      "name": "BuriedLabsExtractionBeaconL",
      "translation": [
        -5.2,
        6.76,
        -3.8
      ],
      "mesh": 32,
      "extras": {
        "socket_type": "extraction_signal"
      }
    },
    {
      "name": "BuriedLabsExtractionBeaconR",
      "translation": [
        5.2,
        6.76,
        -3.8
      ],
      "mesh": 32,
      "extras": {
        "socket_type": "extraction_signal"
      }
    },
    {
      "name": "BuriedLabsExtractionMastCap",
      "translation": [
        0.0,
        6.72,
        -3.8
      ],
      "mesh": 42,
      "extras": {
        "surface": "extraction_mast_cap"
      }
    },
    {
      "name": "BuriedLabsExtractionCradle",
      "translation": [
        0.0,
        5.3,
        -2.92
      ],
      "mesh": 37,
      "extras": {
        "socket_type": "genome_prism_cradle"
      }
    },
    {
      "name": "BuriedLabsExtractionClampL",
      "translation": [
        -0.94,
        5.48,
        -2.92
      ],
      "mesh": 38,
      "rotation": [
        0.0,
        0.0,
        -0.03998933418663416,
        0.9992001066609779
      ],
      "extras": {
        "surface": "genome_prism_clamp"
      }
    },
    {
      "name": "BuriedLabsExtractionClampR",
      "translation": [
        0.94,
        5.48,
        -2.92
      ],
      "mesh": 38,
      "rotation": [
        0.0,
        0.0,
        0.03998933418663416,
        0.9992001066609779
      ],
      "extras": {
        "surface": "genome_prism_clamp"
      }
    },
    {
      "name": "BuriedLabsGenomePrismHousing",
      "translation": [
        0.0,
        4.45,
        -3.02
      ],
      "mesh": 33,
      "extras": {
        "socket_type": "genome_prism"
      }
    },
    {
      "name": "BuriedLabsGenomePrism",
      "translation": [
        0.0,
        4.55,
        -3.02
      ],
      "mesh": 34,
      "extras": {
        "socket_type": "genome_prism"
      }
    },
    {
      "name": "BuriedLabsGenomePrismRing",
      "translation": [
        0.0,
        4.55,
        -3.22
      ],
      "mesh": 35,
      "rotation": [
        0.7071067811865476,
        0.0,
        0.0,
        0.7071067811865476
      ],
      "extras": {
        "surface": "genome_prism_signal_ring"
      }
    },
    {
      "name": "BuriedLabsGenomePrismShard0",
      "translation": [
        0.4,
        4.55,
        -3.24
      ],
      "mesh": 36,
      "extras": {
        "surface": "genome_prism_shard"
      }
    },
    {
      "name": "BuriedLabsGenomePrismShard1",
      "translation": [
        2.4492935982947065e-17,
        4.95,
        -3.24
      ],
      "mesh": 36,
      "rotation": [
        0.0,
        0.0,
        0.7071067811865476,
        0.7071067811865476
      ],
      "extras": {
        "surface": "genome_prism_shard"
      }
    },
    {
      "name": "BuriedLabsGenomePrismShard2",
      "translation": [
        -0.4,
        4.55,
        -3.24
      ],
      "mesh": 36,
      "rotation": [
        0.0,
        0.0,
        1.0,
        6.123233995736766e-17
      ],
      "extras": {
        "surface": "genome_prism_shard"
      }
    },
    {
      "name": "BuriedLabsGenomePrismShard3",
      "translation": [
        -7.347880794884119e-17,
        4.1499999999999995,
        -3.24
      ],
      "mesh": 36,
      "rotation": [
        -0.0,
        0.0,
        0.7071067811865476,
        -0.7071067811865475
      ],
      "extras": {
        "surface": "genome_prism_shard"
      }
    },
    {
      "name": "BuriedLabsExtractionServicePanel",
      "translation": [
        0.0,
        2.48,
        -6.36
      ],
      "mesh": 39,
      "extras": {
        "socket_type": "extraction_service"
      }
    },
    {
      "name": "BuriedLabsExtractionServicePanelFrame",
      "translation": [
        0.0,
        2.48,
        -6.43
      ],
      "mesh": 40,
      "extras": {
        "surface": "extraction_service_frame"
      }
    },
    {
      "name": "BuriedLabsExtractionCableL",
      "translation": [
        -1.45,
        4.75,
        -3.02
      ],
      "mesh": 41,
      "rotation": [
        0.0,
        0.0,
        0.7071067811865476,
        0.7071067811865476
      ],
      "extras": {
        "surface": "extraction_cable"
      }
    },
    {
      "name": "BuriedLabsExtractionCableR",
      "translation": [
        1.45,
        4.75,
        -3.02
      ],
      "mesh": 41,
      "rotation": [
        0.0,
        0.0,
        0.7071067811865476,
        0.7071067811865476
      ],
      "extras": {
        "surface": "extraction_cable"
      }
    },
    {
      "name": "ProductionAssetMarker",
      "translation": [
        0.0,
        0.0,
        0.0
      ],
      "extras": {
        "asset_contract": "buried.labs.v1",
        "source": "original_procedural_mesh_builder"
      }
    }
  ],
  "meshes": [
    {
      "name": "LaboratoryFloor",
      "primitives": [
        {
          "attributes": {
            "POSITION": 0,
            "NORMAL": 1,
            "TEXCOORD_0": 2,
            "TANGENT": 3
          },
          "indices": 4,
          "material": 5
        }
      ]
    },
    {
      "name": "ContainmentWall",
      "primitives": [
        {
          "attributes": {
            "POSITION": 5,
            "NORMAL": 6,
            "TEXCOORD_0": 7,
            "TANGENT": 8
          },
          "indices": 9,
          "material": 0
        }
      ]
    },
    {
      "name": "LaboratoryFrame",
      "primitives": [
        {
          "attributes": {
            "POSITION": 10,
            "NORMAL": 11,
            "TEXCOORD_0": 12,
            "TANGENT": 13
          },
          "indices": 14,
          "material": 1
        }
      ]
    },
    {
      "name": "ContainmentVessel",
      "primitives": [
        {
          "attributes": {
            "POSITION": 15,
            "NORMAL": 16,
            "TEXCOORD_0": 17,
            "TANGENT": 18
          },
          "indices": 19,
          "material": 2
        }
      ]
    },
    {
      "name": "ContainmentVesselCap",
      "primitives": [
        {
          "attributes": {
            "POSITION": 20,
            "NORMAL": 21,
            "TEXCOORD_0": 22,
            "TANGENT": 23
          },
          "indices": 24,
          "material": 1
        }
      ]
    },
    {
      "name": "ContainmentVesselServiceCollar",
      "primitives": [
        {
          "attributes": {
            "POSITION": 25,
            "NORMAL": 26,
            "TEXCOORD_0": 27,
            "TANGENT": 28
          },
          "indices": 29,
          "material": 1
        }
      ]
    },
    {
      "name": "ContainmentVesselBaseRing",
      "primitives": [
        {
          "attributes": {
            "POSITION": 30,
            "NORMAL": 31,
            "TEXCOORD_0": 32,
            "TANGENT": 33
          },
          "indices": 34,
          "material": 4
        }
      ]
    },
    {
      "name": "ContainmentVesselNeck",
      "primitives": [
        {
          "attributes": {
            "POSITION": 35,
            "NORMAL": 36,
            "TEXCOORD_0": 37,
            "TANGENT": 38
          },
          "indices": 39,
          "material": 1
        }
      ]
    },
    {
      "name": "ContainmentCore",
      "primitives": [
        {
          "attributes": {
            "POSITION": 40,
            "NORMAL": 41,
            "TEXCOORD_0": 42,
            "TANGENT": 43
          },
          "indices": 44,
          "material": 3
        }
      ]
    },
    {
      "name": "ContainmentLight",
      "primitives": [
        {
          "attributes": {
            "POSITION": 45,
            "NORMAL": 46,
            "TEXCOORD_0": 47,
            "TANGENT": 48
          },
          "indices": 49,
          "material": 3
        }
      ]
    },
    {
      "name": "TransferRail",
      "primitives": [
        {
          "attributes": {
            "POSITION": 50,
            "NORMAL": 51,
            "TEXCOORD_0": 52,
            "TANGENT": 53
          },
          "indices": 54,
          "material": 1
        }
      ]
    },
    {
      "name": "TransferCradle",
      "primitives": [
        {
          "attributes": {
            "POSITION": 55,
            "NORMAL": 56,
            "TEXCOORD_0": 57,
            "TANGENT": 58
          },
          "indices": 59,
          "material": 4
        }
      ]
    },
    {
      "name": "ContainmentDoor",
      "primitives": [
        {
          "attributes": {
            "POSITION": 60,
            "NORMAL": 61,
            "TEXCOORD_0": 62,
            "TANGENT": 63
          },
          "indices": 64,
          "material": 1
        }
      ]
    },
    {
      "name": "ContainmentDoorTrim",
      "primitives": [
        {
          "attributes": {
            "POSITION": 65,
            "NORMAL": 66,
            "TEXCOORD_0": 67,
            "TANGENT": 68
          },
          "indices": 69,
          "material": 4
        }
      ]
    },
    {
      "name": "SpecimenPanel",
      "primitives": [
        {
          "attributes": {
            "POSITION": 70,
            "NORMAL": 71,
            "TEXCOORD_0": 72,
            "TANGENT": 73
          },
          "indices": 74,
          "material": 4
        }
      ]
    },
    {
      "name": "LaboratoryCable",
      "primitives": [
        {
          "attributes": {
            "POSITION": 75,
            "NORMAL": 76,
            "TEXCOORD_0": 77,
            "TANGENT": 78
          },
          "indices": 79,
          "material": 4
        }
      ]
    },
    {
      "name": "OrganicSeep",
      "primitives": [
        {
          "attributes": {
            "POSITION": 80,
            "NORMAL": 81,
            "TEXCOORD_0": 82,
            "TANGENT": 83
          },
          "indices": 84,
          "material": 6
        }
      ]
    },
    {
      "name": "ContainmentBrace",
      "primitives": [
        {
          "attributes": {
            "POSITION": 85,
            "NORMAL": 86,
            "TEXCOORD_0": 87,
            "TANGENT": 88
          },
          "indices": 89,
          "material": 1
        }
      ]
    },
    {
      "name": "ContainmentVesselPort",
      "primitives": [
        {
          "attributes": {
            "POSITION": 90,
            "NORMAL": 91,
            "TEXCOORD_0": 92,
            "TANGENT": 93
          },
          "indices": 94,
          "material": 4
        }
      ]
    },
    {
      "name": "ContainmentVesselViewport",
      "primitives": [
        {
          "attributes": {
            "POSITION": 95,
            "NORMAL": 96,
            "TEXCOORD_0": 97,
            "TANGENT": 98
          },
          "indices": 99,
          "material": 3
        }
      ]
    },
    {
      "name": "ContainmentVesselViewportRing",
      "primitives": [
        {
          "attributes": {
            "POSITION": 100,
            "NORMAL": 101,
            "TEXCOORD_0": 102,
            "TANGENT": 103
          },
          "indices": 104,
          "material": 4
        }
      ]
    },
    {
      "name": "ContainmentVesselClamp",
      "primitives": [
        {
          "attributes": {
            "POSITION": 105,
            "NORMAL": 106,
            "TEXCOORD_0": 107,
            "TANGENT": 108
          },
          "indices": 109,
          "material": 1
        }
      ]
    },
    {
      "name": "TransferCarriage",
      "primitives": [
        {
          "attributes": {
            "POSITION": 110,
            "NORMAL": 111,
            "TEXCOORD_0": 112,
            "TANGENT": 113
          },
          "indices": 114,
          "material": 4
        }
      ]
    },
    {
      "name": "TransferRailStop",
      "primitives": [
        {
          "attributes": {
            "POSITION": 115,
            "NORMAL": 116,
            "TEXCOORD_0": 117,
            "TANGENT": 118
          },
          "indices": 119,
          "material": 4
        }
      ]
    },
    {
      "name": "ContainmentDoorJamb",
      "primitives": [
        {
          "attributes": {
            "POSITION": 120,
            "NORMAL": 121,
            "TEXCOORD_0": 122,
            "TANGENT": 123
          },
          "indices": 124,
          "material": 1
        }
      ]
    },
    {
      "name": "ContainmentDoorLintel",
      "primitives": [
        {
          "attributes": {
            "POSITION": 125,
            "NORMAL": 126,
            "TEXCOORD_0": 127,
            "TANGENT": 128
          },
          "indices": 129,
          "material": 1
        }
      ]
    },
    {
      "name": "SpecimenPanelFrame",
      "primitives": [
        {
          "attributes": {
            "POSITION": 130,
            "NORMAL": 131,
            "TEXCOORD_0": 132,
            "TANGENT": 133
          },
          "indices": 134,
          "material": 1
        }
      ]
    },
    {
      "name": "LaboratoryCableClamp",
      "primitives": [
        {
          "attributes": {
            "POSITION": 135,
            "NORMAL": 136,
            "TEXCOORD_0": 137,
            "TANGENT": 138
          },
          "indices": 139,
          "material": 4
        }
      ]
    },
    {
      "name": "OrganicSeepTendril",
      "primitives": [
        {
          "attributes": {
            "POSITION": 140,
            "NORMAL": 141,
            "TEXCOORD_0": 142,
            "TANGENT": 143
          },
          "indices": 144,
          "material": 6
        }
      ]
    },
    {
      "name": "GenomeExtractionPylon",
      "primitives": [
        {
          "attributes": {
            "POSITION": 145,
            "NORMAL": 146,
            "TEXCOORD_0": 147,
            "TANGENT": 148
          },
          "indices": 149,
          "material": 7
        }
      ]
    },
    {
      "name": "GenomeExtractionBeam",
      "primitives": [
        {
          "attributes": {
            "POSITION": 150,
            "NORMAL": 151,
            "TEXCOORD_0": 152,
            "TANGENT": 153
          },
          "indices": 154,
          "material": 7
        }
      ]
    },
    {
      "name": "GenomeExtractionBrace",
      "primitives": [
        {
          "attributes": {
            "POSITION": 155,
            "NORMAL": 156,
            "TEXCOORD_0": 157,
            "TANGENT": 158
          },
          "indices": 159,
          "material": 1
        }
      ]
    },
    {
      "name": "GenomeExtractionBeacon",
      "primitives": [
        {
          "attributes": {
            "POSITION": 160,
            "NORMAL": 161,
            "TEXCOORD_0": 162,
            "TANGENT": 163
          },
          "indices": 164,
          "material": 8
        }
      ]
    },
    {
      "name": "GenomePrismHousing",
      "primitives": [
        {
          "attributes": {
            "POSITION": 165,
            "NORMAL": 166,
            "TEXCOORD_0": 167,
            "TANGENT": 168
          },
          "indices": 169,
          "material": 7
        }
      ]
    },
    {
      "name": "GenomePrism",
      "primitives": [
        {
          "attributes": {
            "POSITION": 170,
            "NORMAL": 171,
            "TEXCOORD_0": 172,
            "TANGENT": 173
          },
          "indices": 174,
          "material": 8
        }
      ]
    },
    {
      "name": "GenomePrismRing",
      "primitives": [
        {
          "attributes": {
            "POSITION": 175,
            "NORMAL": 176,
            "TEXCOORD_0": 177,
            "TANGENT": 178
          },
          "indices": 179,
          "material": 8
        }
      ]
    },
    {
      "name": "GenomePrismShard",
      "primitives": [
        {
          "attributes": {
            "POSITION": 180,
            "NORMAL": 181,
            "TEXCOORD_0": 182,
            "TANGENT": 183
          },
          "indices": 184,
          "material": 8
        }
      ]
    },
    {
      "name": "GenomeExtractionCradle",
      "primitives": [
        {
          "attributes": {
            "POSITION": 185,
            "NORMAL": 186,
            "TEXCOORD_0": 187,
            "TANGENT": 188
          },
          "indices": 189,
          "material": 7
        }
      ]
    },
    {
      "name": "GenomeExtractionClamp",
      "primitives": [
        {
          "attributes": {
            "POSITION": 190,
            "NORMAL": 191,
            "TEXCOORD_0": 192,
            "TANGENT": 193
          },
          "indices": 194,
          "material": 4
        }
      ]
    },
    {
      "name": "GenomeExtractionPanel",
      "primitives": [
        {
          "attributes": {
            "POSITION": 195,
            "NORMAL": 196,
            "TEXCOORD_0": 197,
            "TANGENT": 198
          },
          "indices": 199,
          "material": 8
        }
      ]
    },
    {
      "name": "GenomeExtractionPanelFrame",
      "primitives": [
        {
          "attributes": {
            "POSITION": 200,
            "NORMAL": 201,
            "TEXCOORD_0": 202,
            "TANGENT": 203
          },
          "indices": 204,
          "material": 1
        }
      ]
    },
    {
      "name": "GenomeExtractionCable",
      "primitives": [
        {
          "attributes": {
            "POSITION": 205,
            "NORMAL": 206,
            "TEXCOORD_0": 207,
            "TANGENT": 208
          },
          "indices": 209,
          "material": 4
        }
      ]
    },
    {
      "name": "GenomeExtractionMastCap",
      "primitives": [
        {
          "attributes": {
            "POSITION": 210,
            "NORMAL": 211,
            "TEXCOORD_0": 212,
            "TANGENT": 213
          },
          "indices": 214,
          "material": 8
        }
      ]
    }
  ],
  "materials": [
    {
      "name": "Laboratory ceramic",
      "pbrMetallicRoughness": {
        "baseColorFactor": [
          0.05,
          0.08,
          0.09,
          1.0
        ],
        "metallicFactor": 0.08,
        "roughnessFactor": 0.9
      }
    },
    {
      "name": "Laboratory frame",
      "pbrMetallicRoughness": {
        "baseColorFactor": [
          0.018,
          0.045,
          0.06,
          1.0
        ],
        "metallicFactor": 0.46,
        "roughnessFactor": 0.58
      }
    },
    {
      "name": "Containment glass",
      "pbrMetallicRoughness": {
        "baseColorFactor": [
          0.012,
          0.11,
          0.16,
          1.0
        ],
        "metallicFactor": 0.08,
        "roughnessFactor": 0.34
      },
      "emissiveFactor": [
        0.0,
        0.1,
        0.16
      ]
    },
    {
      "name": "Containment core",
      "pbrMetallicRoughness": {
        "baseColorFactor": [
          0.1,
          0.015,
          0.18,
          1.0
        ],
        "metallicFactor": 0.1,
        "roughnessFactor": 0.42
      },
      "emissiveFactor": [
        0.14,
        0.02,
        0.3
      ]
    },
    {
      "name": "Laboratory warning",
      "pbrMetallicRoughness": {
        "baseColorFactor": [
          0.42,
          0.09,
          0.018,
          1.0
        ],
        "metallicFactor": 0.08,
        "roughnessFactor": 0.52
      },
      "emissiveFactor": [
        0.3,
        0.04,
        0.006
      ]
    },
    {
      "name": "Laboratory floor",
      "pbrMetallicRoughness": {
        "baseColorFactor": [
          0.025,
          0.06,
          0.075,
          1.0
        ],
        "metallicFactor": 0.28,
        "roughnessFactor": 0.88
      }
    },
    {
      "name": "Organic contamination",
      "pbrMetallicRoughness": {
        "baseColorFactor": [
          0.1,
          0.012,
          0.05,
          1.0
        ],
        "metallicFactor": 0.01,
        "roughnessFactor": 0.92
      },
      "emissiveFactor": [
        0.1,
        0.0,
        0.025
      ]
    },
    {
      "name": "Genome prism housing",
      "pbrMetallicRoughness": {
        "baseColorFactor": [
          0.035,
          0.11,
          0.15,
          1.0
        ],
        "metallicFactor": 0.78,
        "roughnessFactor": 0.34
      }
    },
    {
      "name": "Genome prism signal",
      "pbrMetallicRoughness": {
        "baseColorFactor": [
          0.04,
          0.12,
          0.28,
          1.0
        ],
        "metallicFactor": 0.08,
        "roughnessFactor": 0.38
      },
      "emissiveFactor": [
        0.06,
        0.12,
        0.42
      ]
    }
  ],
  "accessors": [
    {
      "bufferView": 0,
      "componentType": 5126,
      "count": 24,
      "type": "VEC3",
      "min": [
        -8.5,
        -0.09,
        -6.5
      ],
      "max": [
        8.5,
        0.09,
        6.5
      ]
    },
    {
      "bufferView": 1,
      "componentType": 5126,
      "count": 24,
      "type": "VEC3"
    },
    {
      "bufferView": 2,
      "componentType": 5126,
      "count": 24,
      "type": "VEC2"
    },
    {
      "bufferView": 3,
      "componentType": 5126,
      "count": 24,
      "type": "VEC4"
    },
    {
      "bufferView": 4,
      "componentType": 5123,
      "count": 36,
      "type": "SCALAR",
      "normalized": false
    },
    {
      "bufferView": 5,
      "componentType": 5126,
      "count": 96,
      "type": "VEC3",
      "min": [
        -0.14,
        -2.7,
        -4.5
      ],
      "max": [
        0.14,
        2.7,
        4.5
      ]
    },
    {
      "bufferView": 6,
      "componentType": 5126,
      "count": 96,
      "type": "VEC3"
    },
    {
      "bufferView": 7,
      "componentType": 5126,
      "count": 96,
      "type": "VEC2"
    },
    {
      "bufferView": 8,
      "componentType": 5126,
      "count": 96,
      "type": "VEC4"
    },
    {
      "bufferView": 9,
      "componentType": 5123,
      "count": 132,
      "type": "SCALAR",
      "normalized": false
    },
    {
      "bufferView": 10,
      "componentType": 5126,
      "count": 96,
      "type": "VEC3",
      "min": [
        -0.09,
        -2.8,
        -0.09
      ],
      "max": [
        0.09,
        2.8,
        0.09
      ]
    },
    {
      "bufferView": 11,
      "componentType": 5126,
      "count": 96,
      "type": "VEC3"
    },
    {
      "bufferView": 12,
      "componentType": 5126,
      "count": 96,
      "type": "VEC2"
    },
    {
      "bufferView": 13,
      "componentType": 5126,
      "count": 96,
      "type": "VEC4"
    },
    {
      "bufferView": 14,
      "componentType": 5123,
      "count": 132,
      "type": "SCALAR",
      "normalized": false
    },
    {
      "bufferView": 15,
      "componentType": 5126,
      "count": 920,
      "type": "VEC3",
      "min": [
        -1.18,
        -2.1,
        -1.18
      ],
      "max": [
        1.18,
        2.1,
        1.18
      ]
    },
    {
      "bufferView": 16,
      "componentType": 5126,
      "count": 920,
      "type": "VEC3"
    },
    {
      "bufferView": 17,
      "componentType": 5126,
      "count": 920,
      "type": "VEC2"
    },
    {
      "bufferView": 18,
      "componentType": 5126,
      "count": 920,
      "type": "VEC4"
    },
    {
      "bufferView": 19,
      "componentType": 5123,
      "count": 5280,
      "type": "SCALAR",
      "normalized": false
    },
    {
      "bufferView": 20,
      "componentType": 5126,
      "count": 684,
      "type": "VEC3",
      "min": [
        -1.32,
        -0.18,
        -1.32
      ],
      "max": [
        1.32,
        0.18,
        1.32
      ]
    },
    {
      "bufferView": 21,
      "componentType": 5126,
      "count": 684,
      "type": "VEC3"
    },
    {
      "bufferView": 22,
      "componentType": 5126,
      "count": 684,
      "type": "VEC2"
    },
    {
      "bufferView": 23,
      "componentType": 5126,
      "count": 684,
      "type": "VEC4"
    },
    {
      "bufferView": 24,
      "componentType": 5123,
      "count": 3888,
      "type": "SCALAR",
      "normalized": false
    },
    {
      "bufferView": 25,
      "componentType": 5126,
      "count": 384,
      "type": "VEC3",
      "min": [
        -1.31,
        -0.1,
        -1.31
      ],
      "max": [
        1.31,
        0.1,
        1.31
      ]
    },
    {
      "bufferView": 26,
      "componentType": 5126,
      "count": 384,
      "type": "VEC3"
    },
    {
      "bufferView": 27,
      "componentType": 5126,
      "count": 384,
      "type": "VEC2"
    },
    {
      "bufferView": 28,
      "componentType": 5126,
      "count": 384,
      "type": "VEC4"
    },
    {
      "bufferView": 29,
      "componentType": 5123,
      "count": 2304,
      "type": "SCALAR",
      "normalized": false
    },
    {
      "bufferView": 30,
      "componentType": 5126,
      "count": 384,
      "type": "VEC3",
      "min": [
        -1.1,
        -0.08,
        -1.1
      ],
      "max": [
        1.1,
        0.08,
        1.1
      ]
    },
    {
      "bufferView": 31,
      "componentType": 5126,
      "count": 384,
      "type": "VEC3"
    },
    {
      "bufferView": 32,
      "componentType": 5126,
      "count": 384,
      "type": "VEC2"
    },
    {
      "bufferView": 33,
      "componentType": 5126,
      "count": 384,
      "type": "VEC4"
    },
    {
      "bufferView": 34,
      "componentType": 5123,
      "count": 2304,
      "type": "SCALAR",
      "normalized": false
    },
    {
      "bufferView": 35,
      "componentType": 5126,
      "count": 58,
      "type": "VEC3",
      "min": [
        -0.58,
        -0.12,
        -0.58
      ],
      "max": [
        0.58,
        0.12,
        0.58
      ]
    },
    {
      "bufferView": 36,
      "componentType": 5126,
      "count": 58,
      "type": "VEC3"
    },
    {
      "bufferView": 37,
      "componentType": 5126,
      "count": 58,
      "type": "VEC2"
    },
    {
      "bufferView": 38,
      "componentType": 5126,
      "count": 58,
      "type": "VEC4"
    },
    {
      "bufferView": 39,
      "componentType": 5123,
      "count": 336,
      "type": "SCALAR",
      "normalized": false
    },
    {
      "bufferView": 40,
      "componentType": 5126,
      "count": 672,
      "type": "VEC3",
      "min": [
        -0.13,
        -2.2,
        -0.13
      ],
      "max": [
        0.13,
        2.2,
        0.13
      ]
    },
    {
      "bufferView": 41,
      "componentType": 5126,
      "count": 672,
      "type": "VEC3"
    },
    {
      "bufferView": 42,
      "componentType": 5126,
      "count": 672,
      "type": "VEC2"
    },
    {
      "bufferView": 43,
      "componentType": 5126,
      "count": 672,
      "type": "VEC4"
    },
    {
      "bufferView": 44,
      "componentType": 5123,
      "count": 3840,
      "type": "SCALAR",
      "normalized": false
    },
    {
      "bufferView": 45,
      "componentType": 5126,
      "count": 532,
      "type": "VEC3",
      "min": [
        -0.18,
        -0.18,
        -0.18
      ],
      "max": [
        0.18,
        0.18,
        0.18
      ]
    },
    {
      "bufferView": 46,
      "componentType": 5126,
      "count": 532,
      "type": "VEC3"
    },
    {
      "bufferView": 47,
      "componentType": 5126,
      "count": 532,
      "type": "VEC2"
    },
    {
      "bufferView": 48,
      "componentType": 5126,
      "count": 532,
      "type": "VEC4"
    },
    {
      "bufferView": 49,
      "componentType": 5123,
      "count": 3024,
      "type": "SCALAR",
      "normalized": false
    },
    {
      "bufferView": 50,
      "componentType": 5126,
      "count": 96,
      "type": "VEC3",
      "min": [
        -7.5,
        -0.09,
        -0.11
      ],
      "max": [
        7.5,
        0.09,
        0.11
      ]
    },
    {
      "bufferView": 51,
      "componentType": 5126,
      "count": 96,
      "type": "VEC3"
    },
    {
      "bufferView": 52,
      "componentType": 5126,
      "count": 96,
      "type": "VEC2"
    },
    {
      "bufferView": 53,
      "componentType": 5126,
      "count": 96,
      "type": "VEC4"
    },
    {
      "bufferView": 54,
      "componentType": 5123,
      "count": 132,
      "type": "SCALAR",
      "normalized": false
    },
    {
      "bufferView": 55,
      "componentType": 5126,
      "count": 96,
      "type": "VEC3",
      "min": [
        -0.575,
        -0.11,
        -0.475
      ],
      "max": [
        0.575,
        0.11,
        0.475
      ]
    },
    {
      "bufferView": 56,
      "componentType": 5126,
      "count": 96,
      "type": "VEC3"
    },
    {
      "bufferView": 57,
      "componentType": 5126,
      "count": 96,
      "type": "VEC2"
    },
    {
      "bufferView": 58,
      "componentType": 5126,
      "count": 96,
      "type": "VEC4"
    },
    {
      "bufferView": 59,
      "componentType": 5123,
      "count": 132,
      "type": "SCALAR",
      "normalized": false
    },
    {
      "bufferView": 60,
      "componentType": 5126,
      "count": 96,
      "type": "VEC3",
      "min": [
        -1.6,
        -2.125,
        -0.11
      ],
      "max": [
        1.6,
        2.125,
        0.11
      ]
    },
    {
      "bufferView": 61,
      "componentType": 5126,
      "count": 96,
      "type": "VEC3"
    },
    {
      "bufferView": 62,
      "componentType": 5126,
      "count": 96,
      "type": "VEC2"
    },
    {
      "bufferView": 63,
      "componentType": 5126,
      "count": 96,
      "type": "VEC4"
    },
    {
      "bufferView": 64,
      "componentType": 5123,
      "count": 132,
      "type": "SCALAR",
      "normalized": false
    },
    {
      "bufferView": 65,
      "componentType": 5126,
      "count": 96,
      "type": "VEC3",
      "min": [
        -1.775,
        -0.08,
        -0.15
      ],
      "max": [
        1.775,
        0.08,
        0.15
      ]
    },
    {
      "bufferView": 66,
      "componentType": 5126,
      "count": 96,
      "type": "VEC3"
    },
    {
      "bufferView": 67,
      "componentType": 5126,
      "count": 96,
      "type": "VEC2"
    },
    {
      "bufferView": 68,
      "componentType": 5126,
      "count": 96,
      "type": "VEC4"
    },
    {
      "bufferView": 69,
      "componentType": 5123,
      "count": 132,
      "type": "SCALAR",
      "normalized": false
    },
    {
      "bufferView": 70,
      "componentType": 5126,
      "count": 96,
      "type": "VEC3",
      "min": [
        -0.75,
        -0.475,
        -0.05
      ],
      "max": [
        0.75,
        0.475,
        0.05
      ]
    },
    {
      "bufferView": 71,
      "componentType": 5126,
      "count": 96,
      "type": "VEC3"
    },
    {
      "bufferView": 72,
      "componentType": 5126,
      "count": 96,
      "type": "VEC2"
    },
    {
      "bufferView": 73,
      "componentType": 5126,
      "count": 96,
      "type": "VEC4"
    },
    {
      "bufferView": 74,
      "componentType": 5123,
      "count": 132,
      "type": "SCALAR",
      "normalized": false
    },
    {
      "bufferView": 75,
      "componentType": 5126,
      "count": 50,
      "type": "VEC3",
      "min": [
        -0.045,
        -2.7,
        -0.045
      ],
      "max": [
        0.045,
        2.7,
        0.045
      ]
    },
    {
      "bufferView": 76,
      "componentType": 5126,
      "count": 50,
      "type": "VEC3"
    },
    {
      "bufferView": 77,
      "componentType": 5126,
      "count": 50,
      "type": "VEC2"
    },
    {
      "bufferView": 78,
      "componentType": 5126,
      "count": 50,
      "type": "VEC4"
    },
    {
      "bufferView": 79,
      "componentType": 5123,
      "count": 288,
      "type": "SCALAR",
      "normalized": false
    },
    {
      "bufferView": 80,
      "componentType": 5126,
      "count": 532,
      "type": "VEC3",
      "min": [
        -0.52,
        -0.52,
        -0.52
      ],
      "max": [
        0.52,
        0.52,
        0.52
      ]
    },
    {
      "bufferView": 81,
      "componentType": 5126,
      "count": 532,
      "type": "VEC3"
    },
    {
      "bufferView": 82,
      "componentType": 5126,
      "count": 532,
      "type": "VEC2"
    },
    {
      "bufferView": 83,
      "componentType": 5126,
      "count": 532,
      "type": "VEC4"
    },
    {
      "bufferView": 84,
      "componentType": 5123,
      "count": 3024,
      "type": "SCALAR",
      "normalized": false
    },
    {
      "bufferView": 85,
      "componentType": 5126,
      "count": 96,
      "type": "VEC3",
      "min": [
        -0.08,
        -1.9,
        -0.08
      ],
      "max": [
        0.08,
        1.9,
        0.08
      ]
    },
    {
      "bufferView": 86,
      "componentType": 5126,
      "count": 96,
      "type": "VEC3"
    },
    {
      "bufferView": 87,
      "componentType": 5126,
      "count": 96,
      "type": "VEC2"
    },
    {
      "bufferView": 88,
      "componentType": 5126,
      "count": 96,
      "type": "VEC4"
    },
    {
      "bufferView": 89,
      "componentType": 5123,
      "count": 132,
      "type": "SCALAR",
      "normalized": false
    },
    {
      "bufferView": 90,
      "componentType": 5126,
      "count": 50,
      "type": "VEC3",
      "min": [
        -0.18,
        -0.08,
        -0.18
      ],
      "max": [
        0.18,
        0.08,
        0.18
      ]
    },
    {
      "bufferView": 91,
      "componentType": 5126,
      "count": 50,
      "type": "VEC3"
    },
    {
      "bufferView": 92,
      "componentType": 5126,
      "count": 50,
      "type": "VEC2"
    },
    {
      "bufferView": 93,
      "componentType": 5126,
      "count": 50,
      "type": "VEC4"
    },
    {
      "bufferView": 94,
      "componentType": 5123,
      "count": 288,
      "type": "SCALAR",
      "normalized": false
    },
    {
      "bufferView": 95,
      "componentType": 5126,
      "count": 672,
      "type": "VEC3",
      "min": [
        -0.42,
        -0.56,
        -0.075
      ],
      "max": [
        0.42,
        0.56,
        0.075
      ]
    },
    {
      "bufferView": 96,
      "componentType": 5126,
      "count": 672,
      "type": "VEC3"
    },
    {
      "bufferView": 97,
      "componentType": 5126,
      "count": 672,
      "type": "VEC2"
    },
    {
      "bufferView": 98,
      "componentType": 5126,
      "count": 672,
      "type": "VEC4"
    },
    {
      "bufferView": 99,
      "componentType": 5123,
      "count": 3840,
      "type": "SCALAR",
      "normalized": false
    },
    {
      "bufferView": 100,
      "componentType": 5126,
      "count": 480,
      "type": "VEC3",
      "min": [
        -0.585,
        -0.06181867355918499,
        -0.585
      ],
      "max": [
        0.585,
        0.06181867355918499,
        0.585
      ]
    },
    {
      "bufferView": 101,
      "componentType": 5126,
      "count": 480,
      "type": "VEC3"
    },
    {
      "bufferView": 102,
      "componentType": 5126,
      "count": 480,
      "type": "VEC2"
    },
    {
      "bufferView": 103,
      "componentType": 5126,
      "count": 480,
      "type": "VEC4"
    },
    {
      "bufferView": 104,
      "componentType": 5123,
      "count": 2880,
      "type": "SCALAR",
      "normalized": false
    },
    {
      "bufferView": 105,
      "componentType": 5126,
      "count": 96,
      "type": "VEC3",
      "min": [
        -0.06,
        -0.14,
        -0.85
      ],
      "max": [
        0.06,
        0.14,
        0.85
      ]
    },
    {
      "bufferView": 106,
      "componentType": 5126,
      "count": 96,
      "type": "VEC3"
    },
    {
      "bufferView": 107,
      "componentType": 5126,
      "count": 96,
      "type": "VEC2"
    },
    {
      "bufferView": 108,
      "componentType": 5126,
      "count": 96,
      "type": "VEC4"
    },
    {
      "bufferView": 109,
      "componentType": 5123,
      "count": 132,
      "type": "SCALAR",
      "normalized": false
    },
    {
      "bufferView": 110,
      "componentType": 5126,
      "count": 96,
      "type": "VEC3",
      "min": [
        -0.725,
        -0.08,
        -0.59
      ],
      "max": [
        0.725,
        0.08,
        0.59
      ]
    },
    {
      "bufferView": 111,
      "componentType": 5126,
      "count": 96,
      "type": "VEC3"
    },
    {
      "bufferView": 112,
      "componentType": 5126,
      "count": 96,
      "type": "VEC2"
    },
    {
      "bufferView": 113,
      "componentType": 5126,
      "count": 96,
      "type": "VEC4"
    },
    {
      "bufferView": 114,
      "componentType": 5123,
      "count": 132,
      "type": "SCALAR",
      "normalized": false
    },
    {
      "bufferView": 115,
      "componentType": 5126,
      "count": 50,
      "type": "VEC3",
      "min": [
        -0.15,
        -0.08,
        -0.15
      ],
      "max": [
        0.15,
        0.08,
        0.15
      ]
    },
    {
      "bufferView": 116,
      "componentType": 5126,
      "count": 50,
      "type": "VEC3"
    },
    {
      "bufferView": 117,
      "componentType": 5126,
      "count": 50,
      "type": "VEC2"
    },
    {
      "bufferView": 118,
      "componentType": 5126,
      "count": 50,
      "type": "VEC4"
    },
    {
      "bufferView": 119,
      "componentType": 5123,
      "count": 288,
      "type": "SCALAR",
      "normalized": false
    },
    {
      "bufferView": 120,
      "componentType": 5126,
      "count": 96,
      "type": "VEC3",
      "min": [
        -0.1,
        -2.2,
        -0.13
      ],
      "max": [
        0.1,
        2.2,
        0.13
      ]
    },
    {
      "bufferView": 121,
      "componentType": 5126,
      "count": 96,
      "type": "VEC3"
    },
    {
      "bufferView": 122,
      "componentType": 5126,
      "count": 96,
      "type": "VEC2"
    },
    {
      "bufferView": 123,
      "componentType": 5126,
      "count": 96,
      "type": "VEC4"
    },
    {
      "bufferView": 124,
      "componentType": 5123,
      "count": 132,
      "type": "SCALAR",
      "normalized": false
    },
    {
      "bufferView": 125,
      "componentType": 5126,
      "count": 96,
      "type": "VEC3",
      "min": [
        -1.86,
        -0.1,
        -0.14
      ],
      "max": [
        1.86,
        0.1,
        0.14
      ]
    },
    {
      "bufferView": 126,
      "componentType": 5126,
      "count": 96,
      "type": "VEC3"
    },
    {
      "bufferView": 127,
      "componentType": 5126,
      "count": 96,
      "type": "VEC2"
    },
    {
      "bufferView": 128,
      "componentType": 5126,
      "count": 96,
      "type": "VEC4"
    },
    {
      "bufferView": 129,
      "componentType": 5123,
      "count": 132,
      "type": "SCALAR",
      "normalized": false
    },
    {
      "bufferView": 130,
      "componentType": 5126,
      "count": 96,
      "type": "VEC3",
      "min": [
        -0.86,
        -0.56,
        -0.04
      ],
      "max": [
        0.86,
        0.56,
        0.04
      ]
    },
    {
      "bufferView": 131,
      "componentType": 5126,
      "count": 96,
      "type": "VEC3"
    },
    {
      "bufferView": 132,
      "componentType": 5126,
      "count": 96,
      "type": "VEC2"
    },
    {
      "bufferView": 133,
      "componentType": 5126,
      "count": 96,
      "type": "VEC4"
    },
    {
      "bufferView": 134,
      "componentType": 5123,
      "count": 132,
      "type": "SCALAR",
      "normalized": false
    },
    {
      "bufferView": 135,
      "componentType": 5126,
      "count": 50,
      "type": "VEC3",
      "min": [
        -0.12,
        -0.07,
        -0.12
      ],
      "max": [
        0.12,
        0.07,
        0.12
      ]
    },
    {
      "bufferView": 136,
      "componentType": 5126,
      "count": 50,
      "type": "VEC3"
    },
    {
      "bufferView": 137,
      "componentType": 5126,
      "count": 50,
      "type": "VEC2"
    },
    {
      "bufferView": 138,
      "componentType": 5126,
      "count": 50,
      "type": "VEC4"
    },
    {
      "bufferView": 139,
      "componentType": 5123,
      "count": 288,
      "type": "SCALAR",
      "normalized": false
    },
    {
      "bufferView": 140,
      "componentType": 5126,
      "count": 50,
      "type": "VEC3",
      "min": [
        -0.045,
        -0.41,
        -0.045
      ],
      "max": [
        0.045,
        0.41,
        0.045
      ]
    },
    {
      "bufferView": 141,
      "componentType": 5126,
      "count": 50,
      "type": "VEC3"
    },
    {
      "bufferView": 142,
      "componentType": 5126,
      "count": 50,
      "type": "VEC2"
    },
    {
      "bufferView": 143,
      "componentType": 5126,
      "count": 50,
      "type": "VEC4"
    },
    {
      "bufferView": 144,
      "componentType": 5123,
      "count": 288,
      "type": "SCALAR",
      "normalized": false
    },
    {
      "bufferView": 145,
      "componentType": 5126,
      "count": 96,
      "type": "VEC3",
      "min": [
        -0.21,
        -3.3,
        -0.21
      ],
      "max": [
        0.21,
        3.3,
        0.21
      ]
    },
    {
      "bufferView": 146,
      "componentType": 5126,
      "count": 96,
      "type": "VEC3"
    },
    {
      "bufferView": 147,
      "componentType": 5126,
      "count": 96,
      "type": "VEC2"
    },
    {
      "bufferView": 148,
      "componentType": 5126,
      "count": 96,
      "type": "VEC4"
    },
    {
      "bufferView": 149,
      "componentType": 5123,
      "count": 132,
      "type": "SCALAR",
      "normalized": false
    },
    {
      "bufferView": 150,
      "componentType": 5126,
      "count": 96,
      "type": "VEC3",
      "min": [
        -6.5,
        -0.14,
        -0.18
      ],
      "max": [
        6.5,
        0.14,
        0.18
      ]
    },
    {
      "bufferView": 151,
      "componentType": 5126,
      "count": 96,
      "type": "VEC3"
    },
    {
      "bufferView": 152,
      "componentType": 5126,
      "count": 96,
      "type": "VEC2"
    },
    {
      "bufferView": 153,
      "componentType": 5126,
      "count": 96,
      "type": "VEC4"
    },
    {
      "bufferView": 154,
      "componentType": 5123,
      "count": 132,
      "type": "SCALAR",
      "normalized": false
    },
    {
      "bufferView": 155,
      "componentType": 5126,
      "count": 96,
      "type": "VEC3",
      "min": [
        -0.08,
        -2.4,
        -0.08
      ],
      "max": [
        0.08,
        2.4,
        0.08
      ]
    },
    {
      "bufferView": 156,
      "componentType": 5126,
      "count": 96,
      "type": "VEC3"
    },
    {
      "bufferView": 157,
      "componentType": 5126,
      "count": 96,
      "type": "VEC2"
    },
    {
      "bufferView": 158,
      "componentType": 5126,
      "count": 96,
      "type": "VEC4"
    },
    {
      "bufferView": 159,
      "componentType": 5123,
      "count": 132,
      "type": "SCALAR",
      "normalized": false
    },
    {
      "bufferView": 160,
      "componentType": 5126,
      "count": 532,
      "type": "VEC3",
      "min": [
        -0.14,
        -0.14,
        -0.14
      ],
      "max": [
        0.14,
        0.14,
        0.14
      ]
    },
    {
      "bufferView": 161,
      "componentType": 5126,
      "count": 532,
      "type": "VEC3"
    },
    {
      "bufferView": 162,
      "componentType": 5126,
      "count": 532,
      "type": "VEC2"
    },
    {
      "bufferView": 163,
      "componentType": 5126,
      "count": 532,
      "type": "VEC4"
    },
    {
      "bufferView": 164,
      "componentType": 5123,
      "count": 3024,
      "type": "SCALAR",
      "normalized": false
    },
    {
      "bufferView": 165,
      "componentType": 5126,
      "count": 66,
      "type": "VEC3",
      "min": [
        -0.88,
        -0.09,
        -0.88
      ],
      "max": [
        0.88,
        0.09,
        0.88
      ]
    },
    {
      "bufferView": 166,
      "componentType": 5126,
      "count": 66,
      "type": "VEC3"
    },
    {
      "bufferView": 167,
      "componentType": 5126,
      "count": 66,
      "type": "VEC2"
    },
    {
      "bufferView": 168,
      "componentType": 5126,
      "count": 66,
      "type": "VEC4"
    },
    {
      "bufferView": 169,
      "componentType": 5123,
      "count": 384,
      "type": "SCALAR",
      "normalized": false
    },
    {
      "bufferView": 170,
      "componentType": 5126,
      "count": 50,
      "type": "VEC3",
      "min": [
        -0.3,
        -0.95,
        -0.3
      ],
      "max": [
        0.3,
        0.95,
        0.3
      ]
    },
    {
      "bufferView": 171,
      "componentType": 5126,
      "count": 50,
      "type": "VEC3"
    },
    {
      "bufferView": 172,
      "componentType": 5126,
      "count": 50,
      "type": "VEC2"
    },
    {
      "bufferView": 173,
      "componentType": 5126,
      "count": 50,
      "type": "VEC4"
    },
    {
      "bufferView": 174,
      "componentType": 5123,
      "count": 288,
      "type": "SCALAR",
      "normalized": false
    },
    {
      "bufferView": 175,
      "componentType": 5126,
      "count": 58,
      "type": "VEC3",
      "min": [
        -0.52,
        -0.05,
        -0.52
      ],
      "max": [
        0.52,
        0.05,
        0.52
      ]
    },
    {
      "bufferView": 176,
      "componentType": 5126,
      "count": 58,
      "type": "VEC3"
    },
    {
      "bufferView": 177,
      "componentType": 5126,
      "count": 58,
      "type": "VEC2"
    },
    {
      "bufferView": 178,
      "componentType": 5126,
      "count": 58,
      "type": "VEC4"
    },
    {
      "bufferView": 179,
      "componentType": 5123,
      "count": 336,
      "type": "SCALAR",
      "normalized": false
    },
    {
      "bufferView": 180,
      "componentType": 5126,
      "count": 96,
      "type": "VEC3",
      "min": [
        -0.06,
        -0.75,
        -0.06
      ],
      "max": [
        0.06,
        0.75,
        0.06
      ]
    },
    {
      "bufferView": 181,
      "componentType": 5126,
      "count": 96,
      "type": "VEC3"
    },
    {
      "bufferView": 182,
      "componentType": 5126,
      "count": 96,
      "type": "VEC2"
    },
    {
      "bufferView": 183,
      "componentType": 5126,
      "count": 96,
      "type": "VEC4"
    },
    {
      "bufferView": 184,
      "componentType": 5123,
      "count": 132,
      "type": "SCALAR",
      "normalized": false
    },
    {
      "bufferView": 185,
      "componentType": 5126,
      "count": 96,
      "type": "VEC3",
      "min": [
        -1.1,
        -0.09,
        -0.7
      ],
      "max": [
        1.1,
        0.09,
        0.7
      ]
    },
    {
      "bufferView": 186,
      "componentType": 5126,
      "count": 96,
      "type": "VEC3"
    },
    {
      "bufferView": 187,
      "componentType": 5126,
      "count": 96,
      "type": "VEC2"
    },
    {
      "bufferView": 188,
      "componentType": 5126,
      "count": 96,
      "type": "VEC4"
    },
    {
      "bufferView": 189,
      "componentType": 5123,
      "count": 132,
      "type": "SCALAR",
      "normalized": false
    },
    {
      "bufferView": 190,
      "componentType": 5126,
      "count": 96,
      "type": "VEC3",
      "min": [
        -0.06,
        -0.17,
        -0.95
      ],
      "max": [
        0.06,
        0.17,
        0.95
      ]
    },
    {
      "bufferView": 191,
      "componentType": 5126,
      "count": 96,
      "type": "VEC3"
    },
    {
      "bufferView": 192,
      "componentType": 5126,
      "count": 96,
      "type": "VEC2"
    },
    {
      "bufferView": 193,
      "componentType": 5126,
      "count": 96,
      "type": "VEC4"
    },
    {
      "bufferView": 194,
      "componentType": 5123,
      "count": 132,
      "type": "SCALAR",
      "normalized": false
    },
    {
      "bufferView": 195,
      "componentType": 5126,
      "count": 96,
      "type": "VEC3",
      "min": [
        -0.7,
        -0.5,
        -0.06
      ],
      "max": [
        0.7,
        0.5,
        0.06
      ]
    },
    {
      "bufferView": 196,
      "componentType": 5126,
      "count": 96,
      "type": "VEC3"
    },
    {
      "bufferView": 197,
      "componentType": 5126,
      "count": 96,
      "type": "VEC2"
    },
    {
      "bufferView": 198,
      "componentType": 5126,
      "count": 96,
      "type": "VEC4"
    },
    {
      "bufferView": 199,
      "componentType": 5123,
      "count": 132,
      "type": "SCALAR",
      "normalized": false
    },
    {
      "bufferView": 200,
      "componentType": 5126,
      "count": 96,
      "type": "VEC3",
      "min": [
        -0.83,
        -0.61,
        -0.04
      ],
      "max": [
        0.83,
        0.61,
        0.04
      ]
    },
    {
      "bufferView": 201,
      "componentType": 5126,
      "count": 96,
      "type": "VEC3"
    },
    {
      "bufferView": 202,
      "componentType": 5126,
      "count": 96,
      "type": "VEC2"
    },
    {
      "bufferView": 203,
      "componentType": 5126,
      "count": 96,
      "type": "VEC4"
    },
    {
      "bufferView": 204,
      "componentType": 5123,
      "count": 132,
      "type": "SCALAR",
      "normalized": false
    },
    {
      "bufferView": 205,
      "componentType": 5126,
      "count": 50,
      "type": "VEC3",
      "min": [
        -0.045,
        -1.4,
        -0.045
      ],
      "max": [
        0.045,
        1.4,
        0.045
      ]
    },
    {
      "bufferView": 206,
      "componentType": 5126,
      "count": 50,
      "type": "VEC3"
    },
    {
      "bufferView": 207,
      "componentType": 5126,
      "count": 50,
      "type": "VEC2"
    },
    {
      "bufferView": 208,
      "componentType": 5126,
      "count": 50,
      "type": "VEC4"
    },
    {
      "bufferView": 209,
      "componentType": 5123,
      "count": 288,
      "type": "SCALAR",
      "normalized": false
    },
    {
      "bufferView": 210,
      "componentType": 5126,
      "count": 50,
      "type": "VEC3",
      "min": [
        -0.32,
        -0.07,
        -0.32
      ],
      "max": [
        0.32,
        0.07,
        0.32
      ]
    },
    {
      "bufferView": 211,
      "componentType": 5126,
      "count": 50,
      "type": "VEC3"
    },
    {
      "bufferView": 212,
      "componentType": 5126,
      "count": 50,
      "type": "VEC2"
    },
    {
      "bufferView": 213,
      "componentType": 5126,
      "count": 50,
      "type": "VEC4"
    },
    {
      "bufferView": 214,
      "componentType": 5123,
      "count": 288,
      "type": "SCALAR",
      "normalized": false
    }
  ],
  "bufferViews": [
    {
      "buffer": 0,
      "byteOffset": 0,
      "byteLength": 288,
      "target": 34962
    },
    {
      "buffer": 0,
      "byteOffset": 288,
      "byteLength": 288,
      "target": 34962
    },
    {
      "buffer": 0,
      "byteOffset": 576,
      "byteLength": 192,
      "target": 34962
    },
    {
      "buffer": 0,
      "byteOffset": 768,
      "byteLength": 384,
      "target": 34962
    },
    {
      "buffer": 0,
      "byteOffset": 1152,
      "byteLength": 72,
      "target": 34963
    },
    {
      "buffer": 0,
      "byteOffset": 1224,
      "byteLength": 1152,
      "target": 34962
    },
    {
      "buffer": 0,
      "byteOffset": 2376,
      "byteLength": 1152,
      "target": 34962
    },
    {
      "buffer": 0,
      "byteOffset": 3528,
      "byteLength": 768,
      "target": 34962
    },
    {
      "buffer": 0,
      "byteOffset": 4296,
      "byteLength": 1536,
      "target": 34962
    },
    {
      "buffer": 0,
      "byteOffset": 5832,
      "byteLength": 264,
      "target": 34963
    },
    {
      "buffer": 0,
      "byteOffset": 6096,
      "byteLength": 1152,
      "target": 34962
    },
    {
      "buffer": 0,
      "byteOffset": 7248,
      "byteLength": 1152,
      "target": 34962
    },
    {
      "buffer": 0,
      "byteOffset": 8400,
      "byteLength": 768,
      "target": 34962
    },
    {
      "buffer": 0,
      "byteOffset": 9168,
      "byteLength": 1536,
      "target": 34962
    },
    {
      "buffer": 0,
      "byteOffset": 10704,
      "byteLength": 264,
      "target": 34963
    },
    {
      "buffer": 0,
      "byteOffset": 10968,
      "byteLength": 11040,
      "target": 34962
    },
    {
      "buffer": 0,
      "byteOffset": 22008,
      "byteLength": 11040,
      "target": 34962
    },
    {
      "buffer": 0,
      "byteOffset": 33048,
      "byteLength": 7360,
      "target": 34962
    },
    {
      "buffer": 0,
      "byteOffset": 40408,
      "byteLength": 14720,
      "target": 34962
    },
    {
      "buffer": 0,
      "byteOffset": 55128,
      "byteLength": 10560,
      "target": 34963
    },
    {
      "buffer": 0,
      "byteOffset": 65688,
      "byteLength": 8208,
      "target": 34962
    },
    {
      "buffer": 0,
      "byteOffset": 73896,
      "byteLength": 8208,
      "target": 34962
    },
    {
      "buffer": 0,
      "byteOffset": 82104,
      "byteLength": 5472,
      "target": 34962
    },
    {
      "buffer": 0,
      "byteOffset": 87576,
      "byteLength": 10944,
      "target": 34962
    },
    {
      "buffer": 0,
      "byteOffset": 98520,
      "byteLength": 7776,
      "target": 34963
    },
    {
      "buffer": 0,
      "byteOffset": 106296,
      "byteLength": 4608,
      "target": 34962
    },
    {
      "buffer": 0,
      "byteOffset": 110904,
      "byteLength": 4608,
      "target": 34962
    },
    {
      "buffer": 0,
      "byteOffset": 115512,
      "byteLength": 3072,
      "target": 34962
    },
    {
      "buffer": 0,
      "byteOffset": 118584,
      "byteLength": 6144,
      "target": 34962
    },
    {
      "buffer": 0,
      "byteOffset": 124728,
      "byteLength": 4608,
      "target": 34963
    },
    {
      "buffer": 0,
      "byteOffset": 129336,
      "byteLength": 4608,
      "target": 34962
    },
    {
      "buffer": 0,
      "byteOffset": 133944,
      "byteLength": 4608,
      "target": 34962
    },
    {
      "buffer": 0,
      "byteOffset": 138552,
      "byteLength": 3072,
      "target": 34962
    },
    {
      "buffer": 0,
      "byteOffset": 141624,
      "byteLength": 6144,
      "target": 34962
    },
    {
      "buffer": 0,
      "byteOffset": 147768,
      "byteLength": 4608,
      "target": 34963
    },
    {
      "buffer": 0,
      "byteOffset": 152376,
      "byteLength": 696,
      "target": 34962
    },
    {
      "buffer": 0,
      "byteOffset": 153072,
      "byteLength": 696,
      "target": 34962
    },
    {
      "buffer": 0,
      "byteOffset": 153768,
      "byteLength": 464,
      "target": 34962
    },
    {
      "buffer": 0,
      "byteOffset": 154232,
      "byteLength": 928,
      "target": 34962
    },
    {
      "buffer": 0,
      "byteOffset": 155160,
      "byteLength": 672,
      "target": 34963
    },
    {
      "buffer": 0,
      "byteOffset": 155832,
      "byteLength": 8064,
      "target": 34962
    },
    {
      "buffer": 0,
      "byteOffset": 163896,
      "byteLength": 8064,
      "target": 34962
    },
    {
      "buffer": 0,
      "byteOffset": 171960,
      "byteLength": 5376,
      "target": 34962
    },
    {
      "buffer": 0,
      "byteOffset": 177336,
      "byteLength": 10752,
      "target": 34962
    },
    {
      "buffer": 0,
      "byteOffset": 188088,
      "byteLength": 7680,
      "target": 34963
    },
    {
      "buffer": 0,
      "byteOffset": 195768,
      "byteLength": 6384,
      "target": 34962
    },
    {
      "buffer": 0,
      "byteOffset": 202152,
      "byteLength": 6384,
      "target": 34962
    },
    {
      "buffer": 0,
      "byteOffset": 208536,
      "byteLength": 4256,
      "target": 34962
    },
    {
      "buffer": 0,
      "byteOffset": 212792,
      "byteLength": 8512,
      "target": 34962
    },
    {
      "buffer": 0,
      "byteOffset": 221304,
      "byteLength": 6048,
      "target": 34963
    },
    {
      "buffer": 0,
      "byteOffset": 227352,
      "byteLength": 1152,
      "target": 34962
    },
    {
      "buffer": 0,
      "byteOffset": 228504,
      "byteLength": 1152,
      "target": 34962
    },
    {
      "buffer": 0,
      "byteOffset": 229656,
      "byteLength": 768,
      "target": 34962
    },
    {
      "buffer": 0,
      "byteOffset": 230424,
      "byteLength": 1536,
      "target": 34962
    },
    {
      "buffer": 0,
      "byteOffset": 231960,
      "byteLength": 264,
      "target": 34963
    },
    {
      "buffer": 0,
      "byteOffset": 232224,
      "byteLength": 1152,
      "target": 34962
    },
    {
      "buffer": 0,
      "byteOffset": 233376,
      "byteLength": 1152,
      "target": 34962
    },
    {
      "buffer": 0,
      "byteOffset": 234528,
      "byteLength": 768,
      "target": 34962
    },
    {
      "buffer": 0,
      "byteOffset": 235296,
      "byteLength": 1536,
      "target": 34962
    },
    {
      "buffer": 0,
      "byteOffset": 236832,
      "byteLength": 264,
      "target": 34963
    },
    {
      "buffer": 0,
      "byteOffset": 237096,
      "byteLength": 1152,
      "target": 34962
    },
    {
      "buffer": 0,
      "byteOffset": 238248,
      "byteLength": 1152,
      "target": 34962
    },
    {
      "buffer": 0,
      "byteOffset": 239400,
      "byteLength": 768,
      "target": 34962
    },
    {
      "buffer": 0,
      "byteOffset": 240168,
      "byteLength": 1536,
      "target": 34962
    },
    {
      "buffer": 0,
      "byteOffset": 241704,
      "byteLength": 264,
      "target": 34963
    },
    {
      "buffer": 0,
      "byteOffset": 241968,
      "byteLength": 1152,
      "target": 34962
    },
    {
      "buffer": 0,
      "byteOffset": 243120,
      "byteLength": 1152,
      "target": 34962
    },
    {
      "buffer": 0,
      "byteOffset": 244272,
      "byteLength": 768,
      "target": 34962
    },
    {
      "buffer": 0,
      "byteOffset": 245040,
      "byteLength": 1536,
      "target": 34962
    },
    {
      "buffer": 0,
      "byteOffset": 246576,
      "byteLength": 264,
      "target": 34963
    },
    {
      "buffer": 0,
      "byteOffset": 246840,
      "byteLength": 1152,
      "target": 34962
    },
    {
      "buffer": 0,
      "byteOffset": 247992,
      "byteLength": 1152,
      "target": 34962
    },
    {
      "buffer": 0,
      "byteOffset": 249144,
      "byteLength": 768,
      "target": 34962
    },
    {
      "buffer": 0,
      "byteOffset": 249912,
      "byteLength": 1536,
      "target": 34962
    },
    {
      "buffer": 0,
      "byteOffset": 251448,
      "byteLength": 264,
      "target": 34963
    },
    {
      "buffer": 0,
      "byteOffset": 251712,
      "byteLength": 600,
      "target": 34962
    },
    {
      "buffer": 0,
      "byteOffset": 252312,
      "byteLength": 600,
      "target": 34962
    },
    {
      "buffer": 0,
      "byteOffset": 252912,
      "byteLength": 400,
      "target": 34962
    },
    {
      "buffer": 0,
      "byteOffset": 253312,
      "byteLength": 800,
      "target": 34962
    },
    {
      "buffer": 0,
      "byteOffset": 254112,
      "byteLength": 576,
      "target": 34963
    },
    {
      "buffer": 0,
      "byteOffset": 254688,
      "byteLength": 6384,
      "target": 34962
    },
    {
      "buffer": 0,
      "byteOffset": 261072,
      "byteLength": 6384,
      "target": 34962
    },
    {
      "buffer": 0,
      "byteOffset": 267456,
      "byteLength": 4256,
      "target": 34962
    },
    {
      "buffer": 0,
      "byteOffset": 271712,
      "byteLength": 8512,
      "target": 34962
    },
    {
      "buffer": 0,
      "byteOffset": 280224,
      "byteLength": 6048,
      "target": 34963
    },
    {
      "buffer": 0,
      "byteOffset": 286272,
      "byteLength": 1152,
      "target": 34962
    },
    {
      "buffer": 0,
      "byteOffset": 287424,
      "byteLength": 1152,
      "target": 34962
    },
    {
      "buffer": 0,
      "byteOffset": 288576,
      "byteLength": 768,
      "target": 34962
    },
    {
      "buffer": 0,
      "byteOffset": 289344,
      "byteLength": 1536,
      "target": 34962
    },
    {
      "buffer": 0,
      "byteOffset": 290880,
      "byteLength": 264,
      "target": 34963
    },
    {
      "buffer": 0,
      "byteOffset": 291144,
      "byteLength": 600,
      "target": 34962
    },
    {
      "buffer": 0,
      "byteOffset": 291744,
      "byteLength": 600,
      "target": 34962
    },
    {
      "buffer": 0,
      "byteOffset": 292344,
      "byteLength": 400,
      "target": 34962
    },
    {
      "buffer": 0,
      "byteOffset": 292744,
      "byteLength": 800,
      "target": 34962
    },
    {
      "buffer": 0,
      "byteOffset": 293544,
      "byteLength": 576,
      "target": 34963
    },
    {
      "buffer": 0,
      "byteOffset": 294120,
      "byteLength": 8064,
      "target": 34962
    },
    {
      "buffer": 0,
      "byteOffset": 302184,
      "byteLength": 8064,
      "target": 34962
    },
    {
      "buffer": 0,
      "byteOffset": 310248,
      "byteLength": 5376,
      "target": 34962
    },
    {
      "buffer": 0,
      "byteOffset": 315624,
      "byteLength": 10752,
      "target": 34962
    },
    {
      "buffer": 0,
      "byteOffset": 326376,
      "byteLength": 7680,
      "target": 34963
    },
    {
      "buffer": 0,
      "byteOffset": 334056,
      "byteLength": 5760,
      "target": 34962
    },
    {
      "buffer": 0,
      "byteOffset": 339816,
      "byteLength": 5760,
      "target": 34962
    },
    {
      "buffer": 0,
      "byteOffset": 345576,
      "byteLength": 3840,
      "target": 34962
    },
    {
      "buffer": 0,
      "byteOffset": 349416,
      "byteLength": 7680,
      "target": 34962
    },
    {
      "buffer": 0,
      "byteOffset": 357096,
      "byteLength": 5760,
      "target": 34963
    },
    {
      "buffer": 0,
      "byteOffset": 362856,
      "byteLength": 1152,
      "target": 34962
    },
    {
      "buffer": 0,
      "byteOffset": 364008,
      "byteLength": 1152,
      "target": 34962
    },
    {
      "buffer": 0,
      "byteOffset": 365160,
      "byteLength": 768,
      "target": 34962
    },
    {
      "buffer": 0,
      "byteOffset": 365928,
      "byteLength": 1536,
      "target": 34962
    },
    {
      "buffer": 0,
      "byteOffset": 367464,
      "byteLength": 264,
      "target": 34963
    },
    {
      "buffer": 0,
      "byteOffset": 367728,
      "byteLength": 1152,
      "target": 34962
    },
    {
      "buffer": 0,
      "byteOffset": 368880,
      "byteLength": 1152,
      "target": 34962
    },
    {
      "buffer": 0,
      "byteOffset": 370032,
      "byteLength": 768,
      "target": 34962
    },
    {
      "buffer": 0,
      "byteOffset": 370800,
      "byteLength": 1536,
      "target": 34962
    },
    {
      "buffer": 0,
      "byteOffset": 372336,
      "byteLength": 264,
      "target": 34963
    },
    {
      "buffer": 0,
      "byteOffset": 372600,
      "byteLength": 600,
      "target": 34962
    },
    {
      "buffer": 0,
      "byteOffset": 373200,
      "byteLength": 600,
      "target": 34962
    },
    {
      "buffer": 0,
      "byteOffset": 373800,
      "byteLength": 400,
      "target": 34962
    },
    {
      "buffer": 0,
      "byteOffset": 374200,
      "byteLength": 800,
      "target": 34962
    },
    {
      "buffer": 0,
      "byteOffset": 375000,
      "byteLength": 576,
      "target": 34963
    },
    {
      "buffer": 0,
      "byteOffset": 375576,
      "byteLength": 1152,
      "target": 34962
    },
    {
      "buffer": 0,
      "byteOffset": 376728,
      "byteLength": 1152,
      "target": 34962
    },
    {
      "buffer": 0,
      "byteOffset": 377880,
      "byteLength": 768,
      "target": 34962
    },
    {
      "buffer": 0,
      "byteOffset": 378648,
      "byteLength": 1536,
      "target": 34962
    },
    {
      "buffer": 0,
      "byteOffset": 380184,
      "byteLength": 264,
      "target": 34963
    },
    {
      "buffer": 0,
      "byteOffset": 380448,
      "byteLength": 1152,
      "target": 34962
    },
    {
      "buffer": 0,
      "byteOffset": 381600,
      "byteLength": 1152,
      "target": 34962
    },
    {
      "buffer": 0,
      "byteOffset": 382752,
      "byteLength": 768,
      "target": 34962
    },
    {
      "buffer": 0,
      "byteOffset": 383520,
      "byteLength": 1536,
      "target": 34962
    },
    {
      "buffer": 0,
      "byteOffset": 385056,
      "byteLength": 264,
      "target": 34963
    },
    {
      "buffer": 0,
      "byteOffset": 385320,
      "byteLength": 1152,
      "target": 34962
    },
    {
      "buffer": 0,
      "byteOffset": 386472,
      "byteLength": 1152,
      "target": 34962
    },
    {
      "buffer": 0,
      "byteOffset": 387624,
      "byteLength": 768,
      "target": 34962
    },
    {
      "buffer": 0,
      "byteOffset": 388392,
      "byteLength": 1536,
      "target": 34962
    },
    {
      "buffer": 0,
      "byteOffset": 389928,
      "byteLength": 264,
      "target": 34963
    },
    {
      "buffer": 0,
      "byteOffset": 390192,
      "byteLength": 600,
      "target": 34962
    },
    {
      "buffer": 0,
      "byteOffset": 390792,
      "byteLength": 600,
      "target": 34962
    },
    {
      "buffer": 0,
      "byteOffset": 391392,
      "byteLength": 400,
      "target": 34962
    },
    {
      "buffer": 0,
      "byteOffset": 391792,
      "byteLength": 800,
      "target": 34962
    },
    {
      "buffer": 0,
      "byteOffset": 392592,
      "byteLength": 576,
      "target": 34963
    },
    {
      "buffer": 0,
      "byteOffset": 393168,
      "byteLength": 600,
      "target": 34962
    },
    {
      "buffer": 0,
      "byteOffset": 393768,
      "byteLength": 600,
      "target": 34962
    },
    {
      "buffer": 0,
      "byteOffset": 394368,
      "byteLength": 400,
      "target": 34962
    },
    {
      "buffer": 0,
      "byteOffset": 394768,
      "byteLength": 800,
      "target": 34962
    },
    {
      "buffer": 0,
      "byteOffset": 395568,
      "byteLength": 576,
      "target": 34963
    },
    {
      "buffer": 0,
      "byteOffset": 396144,
      "byteLength": 1152,
      "target": 34962
    },
    {
      "buffer": 0,
      "byteOffset": 397296,
      "byteLength": 1152,
      "target": 34962
    },
    {
      "buffer": 0,
      "byteOffset": 398448,
      "byteLength": 768,
      "target": 34962
    },
    {
      "buffer": 0,
      "byteOffset": 399216,
      "byteLength": 1536,
      "target": 34962
    },
    {
      "buffer": 0,
      "byteOffset": 400752,
      "byteLength": 264,
      "target": 34963
    },
    {
      "buffer": 0,
      "byteOffset": 401016,
      "byteLength": 1152,
      "target": 34962
    },
    {
      "buffer": 0,
      "byteOffset": 402168,
      "byteLength": 1152,
      "target": 34962
    },
    {
      "buffer": 0,
      "byteOffset": 403320,
      "byteLength": 768,
      "target": 34962
    },
    {
      "buffer": 0,
      "byteOffset": 404088,
      "byteLength": 1536,
      "target": 34962
    },
    {
      "buffer": 0,
      "byteOffset": 405624,
      "byteLength": 264,
      "target": 34963
    },
    {
      "buffer": 0,
      "byteOffset": 405888,
      "byteLength": 1152,
      "target": 34962
    },
    {
      "buffer": 0,
      "byteOffset": 407040,
      "byteLength": 1152,
      "target": 34962
    },
    {
      "buffer": 0,
      "byteOffset": 408192,
      "byteLength": 768,
      "target": 34962
    },
    {
      "buffer": 0,
      "byteOffset": 408960,
      "byteLength": 1536,
      "target": 34962
    },
    {
      "buffer": 0,
      "byteOffset": 410496,
      "byteLength": 264,
      "target": 34963
    },
    {
      "buffer": 0,
      "byteOffset": 410760,
      "byteLength": 6384,
      "target": 34962
    },
    {
      "buffer": 0,
      "byteOffset": 417144,
      "byteLength": 6384,
      "target": 34962
    },
    {
      "buffer": 0,
      "byteOffset": 423528,
      "byteLength": 4256,
      "target": 34962
    },
    {
      "buffer": 0,
      "byteOffset": 427784,
      "byteLength": 8512,
      "target": 34962
    },
    {
      "buffer": 0,
      "byteOffset": 436296,
      "byteLength": 6048,
      "target": 34963
    },
    {
      "buffer": 0,
      "byteOffset": 442344,
      "byteLength": 792,
      "target": 34962
    },
    {
      "buffer": 0,
      "byteOffset": 443136,
      "byteLength": 792,
      "target": 34962
    },
    {
      "buffer": 0,
      "byteOffset": 443928,
      "byteLength": 528,
      "target": 34962
    },
    {
      "buffer": 0,
      "byteOffset": 444456,
      "byteLength": 1056,
      "target": 34962
    },
    {
      "buffer": 0,
      "byteOffset": 445512,
      "byteLength": 768,
      "target": 34963
    },
    {
      "buffer": 0,
      "byteOffset": 446280,
      "byteLength": 600,
      "target": 34962
    },
    {
      "buffer": 0,
      "byteOffset": 446880,
      "byteLength": 600,
      "target": 34962
    },
    {
      "buffer": 0,
      "byteOffset": 447480,
      "byteLength": 400,
      "target": 34962
    },
    {
      "buffer": 0,
      "byteOffset": 447880,
      "byteLength": 800,
      "target": 34962
    },
    {
      "buffer": 0,
      "byteOffset": 448680,
      "byteLength": 576,
      "target": 34963
    },
    {
      "buffer": 0,
      "byteOffset": 449256,
      "byteLength": 696,
      "target": 34962
    },
    {
      "buffer": 0,
      "byteOffset": 449952,
      "byteLength": 696,
      "target": 34962
    },
    {
      "buffer": 0,
      "byteOffset": 450648,
      "byteLength": 464,
      "target": 34962
    },
    {
      "buffer": 0,
      "byteOffset": 451112,
      "byteLength": 928,
      "target": 34962
    },
    {
      "buffer": 0,
      "byteOffset": 452040,
      "byteLength": 672,
      "target": 34963
    },
    {
      "buffer": 0,
      "byteOffset": 452712,
      "byteLength": 1152,
      "target": 34962
    },
    {
      "buffer": 0,
      "byteOffset": 453864,
      "byteLength": 1152,
      "target": 34962
    },
    {
      "buffer": 0,
      "byteOffset": 455016,
      "byteLength": 768,
      "target": 34962
    },
    {
      "buffer": 0,
      "byteOffset": 455784,
      "byteLength": 1536,
      "target": 34962
    },
    {
      "buffer": 0,
      "byteOffset": 457320,
      "byteLength": 264,
      "target": 34963
    },
    {
      "buffer": 0,
      "byteOffset": 457584,
      "byteLength": 1152,
      "target": 34962
    },
    {
      "buffer": 0,
      "byteOffset": 458736,
      "byteLength": 1152,
      "target": 34962
    },
    {
      "buffer": 0,
      "byteOffset": 459888,
      "byteLength": 768,
      "target": 34962
    },
    {
      "buffer": 0,
      "byteOffset": 460656,
      "byteLength": 1536,
      "target": 34962
    },
    {
      "buffer": 0,
      "byteOffset": 462192,
      "byteLength": 264,
      "target": 34963
    },
    {
      "buffer": 0,
      "byteOffset": 462456,
      "byteLength": 1152,
      "target": 34962
    },
    {
      "buffer": 0,
      "byteOffset": 463608,
      "byteLength": 1152,
      "target": 34962
    },
    {
      "buffer": 0,
      "byteOffset": 464760,
      "byteLength": 768,
      "target": 34962
    },
    {
      "buffer": 0,
      "byteOffset": 465528,
      "byteLength": 1536,
      "target": 34962
    },
    {
      "buffer": 0,
      "byteOffset": 467064,
      "byteLength": 264,
      "target": 34963
    },
    {
      "buffer": 0,
      "byteOffset": 467328,
      "byteLength": 1152,
      "target": 34962
    },
    {
      "buffer": 0,
      "byteOffset": 468480,
      "byteLength": 1152,
      "target": 34962
    },
    {
      "buffer": 0,
      "byteOffset": 469632,
      "byteLength": 768,
      "target": 34962
    },
    {
      "buffer": 0,
      "byteOffset": 470400,
      "byteLength": 1536,
      "target": 34962
    },
    {
      "buffer": 0,
      "byteOffset": 471936,
      "byteLength": 264,
      "target": 34963
    },
    {
      "buffer": 0,
      "byteOffset": 472200,
      "byteLength": 1152,
      "target": 34962
    },
    {
      "buffer": 0,
      "byteOffset": 473352,
      "byteLength": 1152,
      "target": 34962
    },
    {
      "buffer": 0,
      "byteOffset": 474504,
      "byteLength": 768,
      "target": 34962
    },
    {
      "buffer": 0,
      "byteOffset": 475272,
      "byteLength": 1536,
      "target": 34962
    },
    {
      "buffer": 0,
      "byteOffset": 476808,
      "byteLength": 264,
      "target": 34963
    },
    {
      "buffer": 0,
      "byteOffset": 477072,
      "byteLength": 600,
      "target": 34962
    },
    {
      "buffer": 0,
      "byteOffset": 477672,
      "byteLength": 600,
      "target": 34962
    },
    {
      "buffer": 0,
      "byteOffset": 478272,
      "byteLength": 400,
      "target": 34962
    },
    {
      "buffer": 0,
      "byteOffset": 478672,
      "byteLength": 800,
      "target": 34962
    },
    {
      "buffer": 0,
      "byteOffset": 479472,
      "byteLength": 576,
      "target": 34963
    },
    {
      "buffer": 0,
      "byteOffset": 480048,
      "byteLength": 600,
      "target": 34962
    },
    {
      "buffer": 0,
      "byteOffset": 480648,
      "byteLength": 600,
      "target": 34962
    },
    {
      "buffer": 0,
      "byteOffset": 481248,
      "byteLength": 400,
      "target": 34962
    },
    {
      "buffer": 0,
      "byteOffset": 481648,
      "byteLength": 800,
      "target": 34962
    },
    {
      "buffer": 0,
      "byteOffset": 482448,
      "byteLength": 576,
      "target": 34963
    }
  ],
  "buffers": [
    {
      "byteLength": 483024,
      "uri": "data:application/octet-stream;base64,"
    }
  ],
  "extras": {
    "ironwright_asset_id": "buried.labs.v1",
    "asset_quality": "authored_high_definition",
    "manufactured_surface_profile": "chamfered_high_definition",
    "required_nodes": [
      "BuriedLabsModel",
      "BuriedLabsContainmentHall",
      "BuriedLabsVessel0",
      "BuriedLabsVesselCore0",
      "BuriedLabsVesselViewport0",
      "BuriedLabsVesselViewportRing0",
      "BuriedLabsVesselCollarTop0",
      "BuriedLabsVesselCollarBottom0",
      "BuriedLabsVesselBaseRing0",
      "BuriedLabsVesselNeck0",
      "BuriedLabsVesselPort0",
      "BuriedLabsVesselClampL0",
      "BuriedLabsTransferRail",
      "BuriedLabsTransferCarriage",
      "BuriedLabsTransferRailStopL",
      "BuriedLabsContainmentDoor",
      "BuriedLabsContainmentDoorJambL",
      "BuriedLabsContainmentDoorLintel",
      "BuriedLabsWarningPanelFrame",
      "BuriedLabsCableClamp0",
      "BuriedLabsOrganicSeep0",
      "BuriedLabsOrganicTendril0_0",
      "BuriedLabsExtractionPylonL",
      "BuriedLabsExtractionBeam",
      "BuriedLabsExtractionCradle",
      "BuriedLabsGenomePrism",
      "BuriedLabsGenomePrismRing",
      "BuriedLabsExtractionServicePanelFrame",
      "ProductionAssetMarker"
    ]
  }
}
